
<svg xmlns="http://www.w3.org/2000/svg" version="1.1" xmlns:xlink="http://www.w3.org/1999/xlink" preserveAspectRatio="none" x="0px" y="0px" width="200px" height="350px" viewBox="0 0 200 350">
<defs>
<radialGradient id="Gradient_1" gradientUnits="userSpaceOnUse" cx="0" cy="0" r="46.89706314098997" fx="0" fy="0" gradientTransform="matrix( 0.9782062442179532, -0.20763560333672632, 0.05917214883280262, 0.2788021066626646, 357.95,262.6) " spreadMethod="pad">
<stop  offset="0%" stop-color="#FF3333"/>

<stop  offset="100%" stop-color="#FF3333" stop-opacity="0"/>
</radialGradient>

<radialGradient id="Gradient_2" gradientUnits="userSpaceOnUse" cx="0" cy="0" r="22.451955649786928" fx="0" fy="0" gradientTransform="matrix( 0.9781998656410328, -0.20766565161303657, 0.1235972510940861, 0.5823546155153787, 358.7,262.45) " spreadMethod="pad">
<stop  offset="0%" stop-color="#FF3333"/>

<stop  offset="100%" stop-color="#FF3333" stop-opacity="0"/>
</radialGradient>

<radialGradient id="Gradient_3" gradientUnits="userSpaceOnUse" cx="0" cy="0" r="46.89706314098997" fx="0" fy="0" gradientTransform="matrix( -0.9782062442179532, -0.20763560333672632, -0.05917214883280262, 0.2788021066626646, 178.2,262.6) " spreadMethod="pad">
<stop  offset="0%" stop-color="#FF3333"/>

<stop  offset="100%" stop-color="#FF3333" stop-opacity="0"/>
</radialGradient>

<radialGradient id="Gradient_4" gradientUnits="userSpaceOnUse" cx="0" cy="0" r="22.451955649786957" fx="0" fy="0" gradientTransform="matrix( -0.9781998656410317, -0.20766565161303632, -0.12359725109408595, 0.582354615515378, 177.45,262.45) " spreadMethod="pad">
<stop  offset="0%" stop-color="#FF3333"/>

<stop  offset="100%" stop-color="#FF3333" stop-opacity="0"/>
</radialGradient>

<g id="Symbole_2_0_Layer2_0_FILL">
<path fill="#660000" stroke="none" d="
M 10.4 134.8
Q 6.3 121.65 12.5 110.6
L 9.25 115.7
Q 8.25 117.3 5.5 120.05 5.3 120.25 5.15 120.4 0.4 124.9 -6.15 125.05 -6.25 125.05 -6.3 125.05 -6.4 125.05 -6.55 125.05 -7.4 125.05 -8.2 125 -8.8 124.95 -9.35 124.85 -14.7 124 -18.65 120.05 -19.05 119.65 -20.2 118
L -26.15 109.25
Q -20.65 117.8 -26.15 135.35 -13.5 132.95 -7.2 126.25 -6.75 126.8 -6.3 127.3 -1.2 132.55 10.4 134.8
M 34.25 33.2
Q 30.95 23.45 38.1 15.4 30.7 22.75 20.25 22.75 12.1 22.75 3.85 17.9 -1.05 15.15 -6.95 12.1
L -25.2 20.2
Q -30.85 22.75 -38.6 22.75 -48.95 22.75 -56.3 15.55 -50.25 22.85 -52.5 33.2 -82.6 65.25 -90.9 103.45 -91.3 105.3 -91.65 107.15 -91.75 107.55 -91.8 107.95 -91.85 108.25 -91.9 108.6 -92.15 109.7 -92.05 108.9 -139.35 203 -149.3 275.55 -150.5 280.75 -150.5 286.45 -150.5 305.95 -136.75 319.75 -127.55 328.95 -115.85 331.95 -109.95 333.5 -103.45 333.5 -83.95 333.5 -70.15 319.7 -63.55 313.1 -60.1 305.25
L -60.1 305.2
Q -57.55 299.4 -56.75 292.9 -56.35 289.9 -56.35 286.75 -56.35 286.6 -56.3 286.45 -51.2 216.8 -26.15 135.35 -20.65 117.8 -26.15 109.25
L -37.75 92.15 -26.15 109.25 -20.2 118
Q -19.05 119.65 -18.65 120.05 -14.7 124 -9.35 124.85 -8.8 124.95 -8.2 125 -7.4 125.05 -6.55 125.05 -6.4 125.05 -6.3 125.05 -6.25 125.05 -6.15 125.05 0.4 124.9 5.15 120.4 5.3 120.25 5.5 120.05 8.25 117.3 9.25 115.7
L 12.5 110.6 23.45 93.4 12.5 110.6
Q 6.3 121.65 10.4 134.8 31.55 196.85 38.85 283.35 38.85 283.6 38.85 283.9 38.85 284.15 38.85 284.45 38.9 287.2 39.1 290.65 39.8 298 42.65 304.5 46.05 312.3 52.65 318.95 66.45 332.75 85.95 332.75 92.45 332.75 98.35 331.2 110.05 328.1 119.25 318.9 133.05 305.1 133.05 285.6 133.05 279.9 131.9 274.7 131.25 272 130.35 269.5
L 130.35 269.4
Q 106.8 180.55 73.45 108.1 73.4228515625 107.9755859375 73.4 107.85 63.9146484375 64.6595703125 34.25 33.2
M 6.3 -243.05
Q 6.3 -242.8 6.35 -242.55 37.65 -239.2 61.9 -220.7 37.65 -239.2 6.35 -242.55 0.15 -243.25 -6.3 -243.3 -7.05 -243.3 -7.8 -243.3 -15.15 -243.3 -22.1 -242.55 -50.15 -239.5 -72.55 -224.25 -50.15 -239.5 -22.1 -242.55 -20 -255.65 -16.6 -272.6 -15.85 -275.5 -15.35 -278.6 -15.05 -280.75 -14.9 -282.95 -13.45 -304.4 -27.5 -320.65 -41.6 -336.85 -63.05 -338.35 -84.5 -339.85 -100.7 -325.75 -114.1 -314.1 -117.45 -297.5 -117.55 -297.15 -117.6 -296.8 -118.05 -294.5 -118.25 -292.1 -120.2 -278.1 -121.35 -258 -125.55 -184.5 -115.2 -132.7 -114.65 -129.05 -113.8 -125.45 -107.5 -98.85 -84.45 -78.3 -67.7 -63.35 -47.3 -56.3 -43.95 -55.15 -40.45 -54.2 -31.9 -51.85 -22.7 -50.8 -31.9 -51.85 -40.45 -54.2 -43.95 -55.15 -47.3 -56.3 -50.65 -56.6 -55.05 -56.6 -64.1 -56.6 -70.5 -50.2 -70.85 -49.85 -71.15 -49.45 -72 -48.6 -72.65 -47.7
L -146.55 37.45
Q -154.05 39.4 -159.95 45.3 -168.8 54.15 -168.8 66.6 -168.8 79.1 -159.95 87.9 -151.1 96.75 -138.65 96.75 -126.2 96.75 -117.35 87.9 -109.75 80.35 -108.65 70.05
L -63.6 2.1
Q -64.05 -0.2 -64.05 -2.7 -64.05 -10.1 -60.4 -15.95 -61.8 -25.4 -67.45 -30.85 -61.8 -25.4 -60.4 -15.95 -64.05 -10.1 -64.05 -2.7 -64.05 -0.2 -63.6 2.1 -62.3 9.6 -56.6 15.25 -56.45 15.4 -56.3 15.55 -48.95 22.75 -38.6 22.75 -30.85 22.75 -25.2 20.2
L -6.95 12.1
Q -1.05 15.15 3.85 17.9 12.1 22.75 20.25 22.75 30.7 22.75 38.1 15.4 38.15 15.35 38.25 15.25 42.15 11.35 44.05 6.6 44.9 4.35 45.35 1.9 45.7 -0.35 45.7 -2.7 45.7 -7.7 44.05 -12 43.35 -13.8 42.35 -15.5 43.25 -22.5 46.25 -26.6 43.25 -22.5 42.35 -15.5 43.35 -13.8 44.05 -12 45.7 -7.7 45.7 -2.7 45.7 -0.35 45.35 1.9
L 90.8 72.5
Q 92.05 82.25 99.4 89.6 108.2 98.4 120.65 98.4 133.15 98.4 141.95 89.6 150.8 80.75 150.8 68.3 150.8 55.85 141.95 47 137.15 42.15 131.25 40
L 52.8 -50.2
Q 46.4 -56.6 33.3 -56.85 33.25 -56.85 33.2 -56.85 30.6 -55.9 28 -55.1 19.3 -52.45 9.95 -51.15 19.3 -52.45 28 -55.1 30.75 -56.7 33.2 -56.85 52.7 -63.9 68.85 -78.3 91.85 -98.8 98.2 -125.45 99.25 -129.9 99.85 -134.5 105.2 -162.2 106.45 -196 105.1 -196.8 103.95 -198 66.25 -237.1 6.3 -243.05
M 2.25 -265.5
Q 1.7 -265.55 1.2 -265.55 -3.35 -265.9 -6.75 -262.85 -10.2 -259.9 -10.5 -255.35 -10.85 -250.8 -7.8 -247.35 -4.8 -243.95 -0.3 -243.6 3 -243.4 6.3 -243.05 66.25 -237.1 103.95 -198 105.1 -196.8 106.45 -196 108.8 -194.65 111.7 -194.6 116.2 -194.5 119.5 -197.65 122.8 -200.85 122.9 -205.35 123 -209.9 119.85 -213.2 113.6 -219.8 106.75 -225.55 64.85 -260.95 2.25 -265.5
M 101.55 -298.35
Q 98 -314.4 84.95 -325.75 68.75 -339.85 47.3 -338.35 25.85 -336.85 11.75 -320.65 -2.3 -304.4 -0.85 -282.95 -0.7 -280.65 -0.35 -278.45 -0.3 -278.05 -0.2 -277.6 0.15 -275.4 0.7 -273.3 1.5 -269.3 2.25 -265.5 64.85 -260.95 106.75 -225.55 106.55 -241.2 105.6 -258 104.5 -276.55 102.7 -290.4 102.4 -294.55 101.55 -298.35 Z"/>
</g>

<g id="Symbole_2_0_Layer1_0_FILL">
<path fill="#660000" stroke="none" d="
M 5.5 120.05
Q 5.3 120.25 5.15 120.4 0.4 124.9 -6.15 125.05 -6.25 125.05 -6.3 125.05 -6.4 125.05 -6.55 125.05 -7.4 125.05 -8.2 125 -8.8 124.95 -9.35 124.85 -14.7 124 -18.65 120.05 -19.05 119.65 -20.2 118
L -26.15 109.25
Q -20.65 117.8 -26.15 135.35 -13.5 132.95 -7.2 126.25 -6.75 126.8 -6.3 127.3 -1.2 132.55 10.4 134.8 6.3 121.65 12.5 110.6
L 9.25 115.7
Q 8.25 117.3 5.5 120.05
M 20.25 22.75
Q 12.1 22.75 3.85 17.9 -1.05 15.15 -6.95 12.1
L -25.2 20.2
Q -30.85 22.75 -38.6 22.75 -48.95 22.75 -56.3 15.55 -50.25 22.85 -52.5 33.2 -82.6 65.25 -90.9 103.45 -91.3 105.3 -91.65 107.15 -91.75 107.55 -91.8 107.95 -91.85 108.25 -91.9 108.6 -92.15 109.7 -92.05 108.9 -139.35 203 -149.3 275.55 -150.5 280.75 -150.5 286.45 -150.5 305.95 -136.75 319.75 -127.55 328.95 -115.85 331.95 -109.95 333.5 -103.45 333.5 -83.95 333.5 -70.15 319.7 -63.55 313.1 -60.1 305.25
L -60.1 305.2
Q -57.55 299.4 -56.75 292.9 -56.35 289.9 -56.35 286.75 -56.35 286.6 -56.3 286.45 -51.2 216.8 -26.15 135.35 -20.65 117.8 -26.15 109.25
L -37.75 92.15 -26.15 109.25 -20.2 118
Q -19.05 119.65 -18.65 120.05 -14.7 124 -9.35 124.85 -8.8 124.95 -8.2 125 -7.4 125.05 -6.55 125.05 -6.4 125.05 -6.3 125.05 -6.25 125.05 -6.15 125.05 0.4 124.9 5.15 120.4 5.3 120.25 5.5 120.05 8.25 117.3 9.25 115.7
L 12.5 110.6 23.45 93.4 12.5 110.6
Q 6.3 121.65 10.4 134.8 31.55 196.85 38.85 283.35 38.85 283.6 38.85 283.9 38.85 284.15 38.85 284.45 38.9 287.2 39.1 290.65 39.8 298 42.65 304.5 46.05 312.3 52.65 318.95 66.45 332.75 85.95 332.75 92.45 332.75 98.35 331.2 110.05 328.1 119.25 318.9 133.05 305.1 133.05 285.6 133.05 279.9 131.9 274.7 131.25 272 130.35 269.5
L 130.35 269.4
Q 106.8 180.55 73.45 108.1 73.4228515625 107.9755859375 73.4 107.85 63.9146484375 64.6595703125 34.25 33.2 30.95 23.45 38.1 15.4 30.7 22.75 20.25 22.75
M 6.3 -243.05
Q 6.3 -242.8 6.35 -242.55 37.65 -239.2 61.9 -220.7 37.65 -239.2 6.35 -242.55 0.15 -243.25 -6.3 -243.3 -7.05 -243.3 -7.8 -243.3 -15.15 -243.3 -22.1 -242.55 -50.15 -239.5 -72.55 -224.25 -50.15 -239.5 -22.1 -242.55 -20 -255.65 -16.6 -272.6 -15.85 -275.5 -15.35 -278.6 -15.05 -280.75 -14.9 -282.95 -13.45 -304.4 -27.5 -320.65 -41.6 -336.85 -63.05 -338.35 -84.5 -339.85 -100.7 -325.75 -114.1 -314.1 -117.45 -297.5 -117.55 -297.15 -117.6 -296.8 -118.05 -294.5 -118.25 -292.1 -120.2 -278.1 -121.35 -258 -125.55 -184.5 -115.2 -132.7 -114.65 -129.05 -113.8 -125.45 -107.5 -98.85 -84.45 -78.3 -67.7 -63.35 -47.3 -56.3 -43.95 -55.15 -40.45 -54.2 -31.9 -51.85 -22.7 -50.8 -31.9 -51.85 -40.45 -54.2 -43.95 -55.15 -47.3 -56.3 -50.65 -56.6 -55.05 -56.6 -64.1 -56.6 -70.5 -50.2 -70.85 -49.85 -71.15 -49.45 -72 -48.6 -72.65 -47.7
L -146.55 37.45
Q -154.05 39.4 -159.95 45.3 -168.8 54.15 -168.8 66.6 -168.8 79.1 -159.95 87.9 -151.1 96.75 -138.65 96.75 -126.2 96.75 -117.35 87.9 -109.75 80.35 -108.65 70.05
L -63.6 2.1
Q -64.05 -0.2 -64.05 -2.7 -64.05 -10.1 -60.4 -15.95 -61.8 -25.4 -67.45 -30.85 -61.8 -25.4 -60.4 -15.95 -64.05 -10.1 -64.05 -2.7 -64.05 -0.2 -63.6 2.1 -62.3 9.6 -56.6 15.25 -56.45 15.4 -56.3 15.55 -48.95 22.75 -38.6 22.75 -30.85 22.75 -25.2 20.2
L -6.95 12.1
Q -1.05 15.15 3.85 17.9 12.1 22.75 20.25 22.75 30.7 22.75 38.1 15.4 38.15 15.35 38.25 15.25 42.15 11.35 44.05 6.6 44.9 4.35 45.35 1.9 45.7 -0.35 45.7 -2.7 45.7 -7.7 44.05 -12 43.35 -13.8 42.35 -15.5 43.25 -22.5 46.25 -26.6 43.25 -22.5 42.35 -15.5 43.35 -13.8 44.05 -12 45.7 -7.7 45.7 -2.7 45.7 -0.35 45.35 1.9
L 90.8 72.5
Q 92.05 82.25 99.4 89.6 108.2 98.4 120.65 98.4 133.15 98.4 141.95 89.6 150.8 80.75 150.8 68.3 150.8 55.85 141.95 47 137.15 42.15 131.25 40
L 52.8 -50.2
Q 46.4 -56.6 33.3 -56.85 33.25 -56.85 33.2 -56.85 30.6 -55.9 28 -55.1 19.3 -52.45 9.95 -51.15 19.3 -52.45 28 -55.1 30.75 -56.7 33.2 -56.85 52.7 -63.9 68.85 -78.3 91.85 -98.8 98.2 -125.45 99.25 -129.9 99.85 -134.5 105.2 -162.2 106.45 -196 105.1 -196.8 103.95 -198 66.25 -237.1 6.3 -243.05
M 2.25 -265.5
Q 1.7 -265.55 1.2 -265.55 -3.35 -265.9 -6.75 -262.85 -10.2 -259.9 -10.5 -255.35 -10.85 -250.8 -7.8 -247.35 -4.8 -243.95 -0.3 -243.6 3 -243.4 6.3 -243.05 66.25 -237.1 103.95 -198 105.1 -196.8 106.45 -196 108.8 -194.65 111.7 -194.6 116.2 -194.5 119.5 -197.65 122.8 -200.85 122.9 -205.35 123 -209.9 119.85 -213.2 113.6 -219.8 106.75 -225.55 64.85 -260.95 2.25 -265.5
M 101.55 -298.35
Q 98 -314.4 84.95 -325.75 68.75 -339.85 47.3 -338.35 25.85 -336.85 11.75 -320.65 -2.3 -304.4 -0.85 -282.95 -0.7 -280.65 -0.35 -278.45 -0.3 -278.05 -0.2 -277.6 0.15 -275.4 0.7 -273.3 1.5 -269.3 2.25 -265.5 64.85 -260.95 106.75 -225.55 106.55 -241.2 105.6 -258 104.5 -276.55 102.7 -290.4 102.4 -294.55 101.55 -298.35 Z"/>
</g>

<g id="Symbole_2_0_Layer0_0_FILL">
<path fill="#FFB19C" stroke="none" d="
M 20.25 22.75
Q 12.1 22.75 3.85 17.9 -1.05 15.15 -6.95 12.1
L -25.2 20.2
Q -30.85 22.75 -38.6 22.75 -48.95 22.75 -56.3 15.55 -50.25 22.85 -52.5 33.2 -82.6 65.25 -90.9 103.45 -91.3 105.3 -91.65 107.15 -91.75 107.55 -91.8 107.95 -91.85 108.25 -91.9 108.6 -92.15 109.7 -92.05 108.9 -139.35 203 -149.3 275.55 -150.5 280.75 -150.5 286.45 -150.5 305.95 -136.75 319.75 -127.55 328.95 -115.85 331.95 -109.95 333.5 -103.45 333.5 -83.95 333.5 -70.15 319.7 -63.55 313.1 -60.1 305.25
L -60.1 305.2
Q -57.55 299.4 -56.75 292.9 -56.35 289.9 -56.35 286.75 -56.35 286.6 -56.3 286.45 -51.2 216.8 -26.15 135.35 -20.65 117.8 -26.15 109.25
L -37.75 92.15 -26.15 109.25
Q -20.65 117.8 -26.15 135.35 -13.5 132.95 -7.2 126.25 -6.75 126.8 -6.3 127.3 -1.2 132.55 10.4 134.8 6.3 121.65 12.5 110.6
L 23.45 93.4 12.5 110.6
Q 6.3 121.65 10.4 134.8 31.55 196.85 38.85 283.35 38.85 283.6 38.85 283.9 38.85 284.15 38.85 284.45 38.9 287.2 39.1 290.65 39.8 298 42.65 304.5 46.05 312.3 52.65 318.95 66.45 332.75 85.95 332.75 92.45 332.75 98.35 331.2 110.05 328.1 119.25 318.9 133.05 305.1 133.05 285.6 133.05 279.9 131.9 274.7 131.25 272 130.35 269.5
L 130.35 269.4
Q 106.8 180.55 73.45 108.1 73.4 107.95 73.4 107.85 73.3 107.5 73.25 107.15 59.75 60.25 34.25 33.2 30.95 23.45 38.1 15.4 30.7 22.75 20.25 22.75
M 6.3 -243.05
Q 6.3 -242.8 6.35 -242.55 0.15 -243.25 -6.3 -243.3 -7.05 -243.3 -7.8 -243.3 -15.15 -243.3 -22.1 -242.55 -20 -255.65 -16.6 -272.6 -15.85 -275.5 -15.35 -278.6 -15.05 -280.75 -14.9 -282.95 -13.45 -304.4 -27.5 -320.65 -41.6 -336.85 -63.05 -338.35 -84.5 -339.85 -100.7 -325.75 -114.1 -314.1 -117.45 -297.5 -117.55 -297.15 -117.6 -296.8 -118.05 -294.5 -118.25 -292.1 -120.2 -278.1 -121.35 -258 -125.55 -184.5 -115.2 -132.7 -114.65 -129.05 -113.8 -125.45 -107.5 -98.85 -84.45 -78.3 -67.7 -63.35 -47.3 -56.3 -43.95 -55.15 -40.45 -54.2 -31.9 -51.85 -22.7 -50.8 -31.9 -51.85 -40.45 -54.2 -43.95 -55.15 -47.3 -56.3 -50.65 -56.6 -55.05 -56.6 -64.1 -56.6 -70.5 -50.2 -70.85 -49.85 -71.15 -49.45 -72 -48.6 -72.65 -47.7
L -146.55 37.45
Q -154.05 39.4 -159.95 45.3 -168.8 54.15 -168.8 66.6 -168.8 79.1 -159.95 87.9 -151.1 96.75 -138.65 96.75 -126.2 96.75 -117.35 87.9 -109.75 80.35 -108.65 70.05
L -63.6 2.1
Q -64.05 -0.2 -64.05 -2.7 -64.05 -10.1 -60.4 -15.95 -61.8 -25.4 -67.45 -30.85 -61.8 -25.4 -60.4 -15.95 -64.05 -10.1 -64.05 -2.7 -64.05 -0.2 -63.6 2.1 -62.3 9.6 -56.6 15.25 -56.45 15.4 -56.3 15.55 -48.95 22.75 -38.6 22.75 -30.85 22.75 -25.2 20.2
L -6.95 12.1
Q -1.05 15.15 3.85 17.9 12.1 22.75 20.25 22.75 30.7 22.75 38.1 15.4 38.15 15.35 38.25 15.25 42.15 11.35 44.05 6.6 44.9 4.35 45.35 1.9 45.7 -0.35 45.7 -2.7 45.7 -7.7 44.05 -12 43.35 -13.8 42.35 -15.5 43.25 -22.5 46.25 -26.6 43.25 -22.5 42.35 -15.5 43.35 -13.8 44.05 -12 45.7 -7.7 45.7 -2.7 45.7 -0.35 45.35 1.9
L 90.8 72.5
Q 92.05 82.25 99.4 89.6 108.2 98.4 120.65 98.4 133.15 98.4 141.95 89.6 150.8 80.75 150.8 68.3 150.8 55.85 141.95 47 137.15 42.15 131.25 40
L 52.8 -50.2
Q 46.4 -56.6 33.3 -56.85 33.25 -56.85 33.2 -56.85 30.6 -55.9 28 -55.1 19.3 -52.45 9.95 -51.15 19.3 -52.45 28 -55.1 30.75 -56.7 33.2 -56.85 52.7 -63.9 68.85 -78.3 91.85 -98.8 98.2 -125.45 99.25 -129.9 99.85 -134.5 105.2 -162.2 106.45 -196 105.1 -196.8 103.95 -198 66.25 -237.1 6.3 -243.05
M 13.55 -140.4
Q 9.75 -138.75 11.6 -142.7 48.75 -186.9 77.15 -163.4 86.2 -167.25 96.2 -173.4 85.05 -158.8 69.2 -152.35 49.6 -177.75 13.55 -140.4
M 19.2 -122.45
Q 21.5 -124.1 21.35 -119.45 20.65 -114.65 17.2 -112.05 8.25 -105.45 -2.8 -103.7 6 -109.1 14.25 -114.75 18.6 -117.75 19.2 -122.45
M -25.45 -142.7
Q -23.6 -138.75 -27.4 -140.4 -63.45 -177.75 -83.05 -152.35 -98.9 -158.8 -110.05 -173.4 -100.05 -167.25 -91 -163.4 -62.6 -186.9 -25.45 -142.7
M -9.85 -104
Q -20.55 -106.75 -27.7 -111.5 -31.35 -113.95 -32.45 -118.45 -32.95 -121.7 -30.25 -121.6 -29.95 -117.7 -25.6 -115.05 -18.5 -110.45 -9.85 -104
M 101.55 -298.35
Q 98 -314.4 84.95 -325.75 68.75 -339.85 47.3 -338.35 25.85 -336.85 11.75 -320.65 -2.3 -304.4 -0.85 -282.95 -0.7 -280.65 -0.35 -278.45 -0.3 -278.05 -0.2 -277.6 0.15 -275.4 0.7 -273.3 1.5 -269.3 2.25 -265.5 64.85 -260.95 106.75 -225.55 106.55 -241.2 105.6 -258 104.5 -276.55 102.7 -290.4 102.4 -294.55 101.55 -298.35 Z"/>

<path fill="#3D3F3E" stroke="none" d="
M -27.7 -111.5
Q -20.55 -106.75 -9.85 -104 -18.5 -110.45 -25.6 -115.05 -29.95 -117.7 -30.25 -121.6 -32.95 -121.7 -32.45 -118.45 -31.35 -113.95 -27.7 -111.5
M -27.4 -140.4
Q -23.6 -138.75 -25.45 -142.7 -62.6 -186.9 -91 -163.4 -100.05 -167.25 -110.05 -173.4 -98.9 -158.8 -83.05 -152.35 -63.45 -177.75 -27.4 -140.4
M 21.35 -119.45
Q 21.5 -124.1 19.2 -122.45 18.6 -117.75 14.25 -114.75 6 -109.1 -2.8 -103.7 8.25 -105.45 17.2 -112.05 20.65 -114.65 21.35 -119.45
M 11.6 -142.7
Q 9.75 -138.75 13.55 -140.4 49.6 -177.75 69.2 -152.35 85.05 -158.8 96.2 -173.4 86.2 -167.25 77.15 -163.4 48.75 -186.9 11.6 -142.7 Z"/>

<path fill="#FF0000" stroke="none" d="
M 2.25 -265.5
Q 1.7 -265.55 1.2 -265.55 -3.35 -265.9 -6.75 -262.85 -10.2 -259.9 -10.5 -255.35 -10.85 -250.8 -7.8 -247.35 -4.8 -243.95 -0.3 -243.6 3 -243.4 6.3 -243.05 66.25 -237.1 103.95 -198 105.1 -196.8 106.45 -196 108.8 -194.65 111.7 -194.6 116.2 -194.5 119.5 -197.65 122.8 -200.85 122.9 -205.35 123 -209.9 119.85 -213.2 113.6 -219.8 106.75 -225.55 64.85 -260.95 2.25 -265.5 Z"/>
</g>

<g id="Symbole_2_0_Layer0_1_FILL">
<path fill="url(#Gradient_1)" stroke="none" d="
M 324.3 282.65
Q 340.95 284.15 363.05 279.5
L 356.05 246.4
Q 333.95 251.15 319.35 259.25 304.65 267.45 306.1 274.3 307.55 281.15 324.3 282.65 Z"/>

<path fill="url(#Gradient_2)" stroke="none" d="
M 356.25 246.35
Q 356.15 246.4 356.05 246.4
L 363.05 279.5
Q 363.15 279.5 363.25 279.45 373.95 277.2 380.45 270.75 386.95 264.3 385.5 257.45 384.05 250.6 375.5 247.35 366.95 244.1 356.25 246.35 Z"/>
</g>

<g id="Symbole_2_0_Layer0_2_FILL">
<path fill="url(#Gradient_3)" stroke="none" d="
M 211.85 282.65
Q 228.6 281.15 230.05 274.3 231.5 267.45 216.8 259.25 202.2 251.15 180.1 246.4
L 173.1 279.5
Q 195.2 284.15 211.85 282.65 Z"/>

<path fill="url(#Gradient_4)" stroke="none" d="
M 150.65 257.45
Q 149.2 264.3 155.7 270.75 162.2 277.2 172.9 279.45 173 279.5 173.1 279.5
L 180.1 246.4
Q 180 246.4 179.9 246.35 169.2 244.1 160.65 247.35 152.1 250.6 150.65 257.45 Z"/>
</g>

<path id="Symbole_2_0_Layer2_0_1_STROKES" stroke="#3C3F3E" stroke-width="15" stroke-linejoin="round" stroke-linecap="round" fill="none" d="
M 106.75 -225.55
Q 106.55 -241.2 105.6 -258 104.5 -276.55 102.7 -290.4 102.4 -294.55 101.55 -298.35 98 -314.4 84.95 -325.75 68.75 -339.85 47.3 -338.35 25.85 -336.85 11.75 -320.65 -2.3 -304.4 -0.85 -282.95 -0.7 -280.65 -0.35 -278.45 -0.3 -278.05 -0.2 -277.6 0.15 -275.4 0.7 -273.3 1.5 -269.3 2.25 -265.5 64.85 -260.95 106.75 -225.55 113.6 -219.8 119.85 -213.2 123 -209.9 122.9 -205.35 122.8 -200.85 119.5 -197.65 116.2 -194.5 111.7 -194.6 108.8 -194.65 106.45 -196 105.2 -162.2 99.85 -134.5 99.25 -129.9 98.2 -125.45 91.85 -98.8 68.85 -78.3 52.7 -63.9 33.2 -56.85 33.25 -56.85 33.3 -56.85 46.4 -56.6 52.8 -50.2
L 131.25 40
Q 137.15 42.15 141.95 47 150.8 55.85 150.8 68.3 150.8 80.75 141.95 89.6 133.15 98.4 120.65 98.4 108.2 98.4 99.4 89.6 92.05 82.25 90.8 72.5
L 45.35 1.9
Q 44.9 4.35 44.05 6.6 42.15 11.35 38.25 15.25 38.15 15.35 38.1 15.4 30.95 23.45 34.25 33.2 63.9146484375 64.6595703125 73.4 107.85 73.4228515625 107.9755859375 73.45 108.1 106.8 180.55 130.35 269.4
L 130.35 269.5
Q 131.25 272 131.9 274.7 133.05 279.9 133.05 285.6 133.05 305.1 119.25 318.9 110.05 328.1 98.35 331.2 92.45 332.75 85.95 332.75 66.45 332.75 52.65 318.95 46.05 312.3 42.65 304.5 39.8 298 39.1 290.65 39.2 292.3 39.3 294.1
M -90.9 103.45
Q -82.6 65.25 -52.5 33.2 -50.25 22.85 -56.3 15.55 -56.45 15.4 -56.6 15.25 -62.3 9.6 -63.6 2.1
L -108.65 70.05
Q -109.75 80.35 -117.35 87.9 -126.2 96.75 -138.65 96.75 -151.1 96.75 -159.95 87.9 -168.8 79.1 -168.8 66.6 -168.8 54.15 -159.95 45.3 -154.05 39.4 -146.55 37.45
L -72.65 -47.7
Q -72 -48.6 -71.15 -49.45 -70.85 -49.85 -70.5 -50.2 -64.1 -56.6 -55.05 -56.6 -50.65 -56.6 -47.3 -56.3 -67.7 -63.35 -84.45 -78.3 -107.5 -98.85 -113.8 -125.45 -114.65 -129.05 -115.2 -132.7 -125.55 -184.5 -121.35 -258 -120.2 -278.1 -118.25 -292.1 -118.05 -294.5 -117.6 -296.8 -117.55 -297.15 -117.45 -297.5 -114.1 -314.1 -100.7 -325.75 -84.5 -339.85 -63.05 -338.35 -41.6 -336.85 -27.5 -320.65 -13.45 -304.4 -14.9 -282.95 -15.05 -280.75 -15.35 -278.6 -15.85 -275.5 -16.6 -272.6 -20 -255.65 -22.1 -242.55 -15.15 -243.3 -7.8 -243.3 -7.05 -243.3 -6.3 -243.3 0.15 -243.25 6.35 -242.55 6.3 -242.8 6.3 -243.05 3 -243.4 -0.3 -243.6 -4.8 -243.95 -7.8 -247.35 -10.85 -250.8 -10.5 -255.35 -10.2 -259.9 -6.75 -262.85 -3.35 -265.9 1.2 -265.55 1.7 -265.55 2.25 -265.5
M 6.35 -242.55
Q 37.65 -239.2 61.9 -220.7
M 6.3 -243.05
Q 66.25 -237.1 103.95 -198 105.1 -196.8 106.45 -196
M 33.2 -56.85
Q 30.75 -56.7 28 -55.1 30.6 -55.9 33.2 -56.85 Z
M 28 -55.1
Q 19.3 -52.45 9.95 -51.15
M 46.25 -26.6
Q 43.25 -22.5 42.35 -15.5 43.35 -13.8 44.05 -12 45.7 -7.7 45.7 -2.7 45.7 -0.35 45.35 1.9
M 38.1 15.4
Q 30.7 22.75 20.25 22.75 12.1 22.75 3.85 17.9 -1.05 15.15 -6.95 12.1
L -25.2 20.2
Q -30.85 22.75 -38.6 22.75 -48.95 22.75 -56.3 15.55
M 10.4 134.8
Q 6.3 121.65 12.5 110.6
L 9.25 115.7
Q 8.25 117.3 5.5 120.05 5.3 120.25 5.15 120.4 0.4 124.9 -6.15 125.05 -6.25 125.05 -6.3 125.05 -6.4 125.05 -6.55 125.05 -7.4 125.05 -8.2 125 -8.8 124.95 -9.35 124.85 -14.7 124 -18.65 120.05 -19.05 119.65 -20.2 118
L -26.15 109.25
Q -20.65 117.8 -26.15 135.35 -13.5 132.95 -7.2 126.25 -6.75 126.8 -6.3 127.3 -1.2 132.55 10.4 134.8 31.55 196.85 38.85 283.35 38.85 283.6 38.85 283.9 38.85 284.15 38.85 284.45 38.9 287.2 39.1 290.65 38.85 288.15 38.85 285.6 38.85 285 38.85 284.45
M 23.45 93.4
L 12.5 110.6
M -22.1 -242.55
Q -50.15 -239.5 -72.55 -224.25
M -47.3 -56.3
Q -43.95 -55.15 -40.45 -54.2 -31.9 -51.85 -22.7 -50.8
M -67.45 -30.85
Q -61.8 -25.4 -60.4 -15.95 -64.05 -10.1 -64.05 -2.7 -64.05 -0.2 -63.6 2.1
M -90.9 103.45
Q -91.3 105.3 -91.65 107.15 -91.75 107.55 -91.8 107.95 -91.85 108.25 -91.9 108.6 -92.15 109.7 -92.05 108.9 -139.35 203 -149.3 275.55 -150.5 280.75 -150.5 286.45 -150.5 305.95 -136.75 319.75 -127.55 328.95 -115.85 331.95 -109.95 333.5 -103.45 333.5 -83.95 333.5 -70.15 319.7 -63.55 313.1 -60.1 305.25
L -60.1 305.2
Q -57.55 299.4 -56.75 292.9 -56.35 289.9 -56.35 286.75 -56.35 286.6 -56.3 286.45 -51.2 216.8 -26.15 135.35
M -90.9 103.45
Q -91.7 106.05 -92.05 108.9 -91.95 108.7 -91.9 108.6
M -26.15 109.25
L -37.75 92.15"/>

<path id="Symbole_2_0_Layer1_0_1_STROKES" stroke="#3C3F3E" stroke-width="15" stroke-linejoin="round" stroke-linecap="round" fill="none" d="
M 106.75 -225.55
Q 106.55 -241.2 105.6 -258 104.5 -276.55 102.7 -290.4 102.4 -294.55 101.55 -298.35 98 -314.4 84.95 -325.75 68.75 -339.85 47.3 -338.35 25.85 -336.85 11.75 -320.65 -2.3 -304.4 -0.85 -282.95 -0.7 -280.65 -0.35 -278.45 -0.3 -278.05 -0.2 -277.6 0.15 -275.4 0.7 -273.3 1.5 -269.3 2.25 -265.5 64.85 -260.95 106.75 -225.55 113.6 -219.8 119.85 -213.2 123 -209.9 122.9 -205.35 122.8 -200.85 119.5 -197.65 116.2 -194.5 111.7 -194.6 108.8 -194.65 106.45 -196 105.2 -162.2 99.85 -134.5 99.25 -129.9 98.2 -125.45 91.85 -98.8 68.85 -78.3 52.7 -63.9 33.2 -56.85 33.25 -56.85 33.3 -56.85 46.4 -56.6 52.8 -50.2
L 131.25 40
Q 137.15 42.15 141.95 47 150.8 55.85 150.8 68.3 150.8 80.75 141.95 89.6 133.15 98.4 120.65 98.4 108.2 98.4 99.4 89.6 92.05 82.25 90.8 72.5
L 45.35 1.9
Q 44.9 4.35 44.05 6.6 42.15 11.35 38.25 15.25 38.15 15.35 38.1 15.4 30.95 23.45 34.25 33.2 63.9146484375 64.6595703125 73.4 107.85 73.4228515625 107.9755859375 73.45 108.1 106.8 180.55 130.35 269.4
L 130.35 269.5
Q 131.25 272 131.9 274.7 133.05 279.9 133.05 285.6 133.05 305.1 119.25 318.9 110.05 328.1 98.35 331.2 92.45 332.75 85.95 332.75 66.45 332.75 52.65 318.95 46.05 312.3 42.65 304.5 39.8 298 39.1 290.65 39.2 292.3 39.3 294.1
M -90.9 103.45
Q -82.6 65.25 -52.5 33.2 -50.25 22.85 -56.3 15.55 -56.45 15.4 -56.6 15.25 -62.3 9.6 -63.6 2.1
L -108.65 70.05
Q -109.75 80.35 -117.35 87.9 -126.2 96.75 -138.65 96.75 -151.1 96.75 -159.95 87.9 -168.8 79.1 -168.8 66.6 -168.8 54.15 -159.95 45.3 -154.05 39.4 -146.55 37.45
L -72.65 -47.7
Q -72 -48.6 -71.15 -49.45 -70.85 -49.85 -70.5 -50.2 -64.1 -56.6 -55.05 -56.6 -50.65 -56.6 -47.3 -56.3 -67.7 -63.35 -84.45 -78.3 -107.5 -98.85 -113.8 -125.45 -114.65 -129.05 -115.2 -132.7 -125.55 -184.5 -121.35 -258 -120.2 -278.1 -118.25 -292.1 -118.05 -294.5 -117.6 -296.8 -117.55 -297.15 -117.45 -297.5 -114.1 -314.1 -100.7 -325.75 -84.5 -339.85 -63.05 -338.35 -41.6 -336.85 -27.5 -320.65 -13.45 -304.4 -14.9 -282.95 -15.05 -280.75 -15.35 -278.6 -15.85 -275.5 -16.6 -272.6 -20 -255.65 -22.1 -242.55 -15.15 -243.3 -7.8 -243.3 -7.05 -243.3 -6.3 -243.3 0.15 -243.25 6.35 -242.55 6.3 -242.8 6.3 -243.05 3 -243.4 -0.3 -243.6 -4.8 -243.95 -7.8 -247.35 -10.85 -250.8 -10.5 -255.35 -10.2 -259.9 -6.75 -262.85 -3.35 -265.9 1.2 -265.55 1.7 -265.55 2.25 -265.5
M 6.35 -242.55
Q 37.65 -239.2 61.9 -220.7
M 6.3 -243.05
Q 66.25 -237.1 103.95 -198 105.1 -196.8 106.45 -196
M 9.95 -51.15
Q 19.3 -52.45 28 -55.1 30.6 -55.9 33.2 -56.85 30.75 -56.7 28 -55.1
M 46.25 -26.6
Q 43.25 -22.5 42.35 -15.5 43.35 -13.8 44.05 -12 45.7 -7.7 45.7 -2.7 45.7 -0.35 45.35 1.9
M 38.1 15.4
Q 30.7 22.75 20.25 22.75 12.1 22.75 3.85 17.9 -1.05 15.15 -6.95 12.1
L -25.2 20.2
Q -30.85 22.75 -38.6 22.75 -48.95 22.75 -56.3 15.55
M 10.4 134.8
Q 6.3 121.65 12.5 110.6
L 9.25 115.7
Q 8.25 117.3 5.5 120.05 5.3 120.25 5.15 120.4 0.4 124.9 -6.15 125.05 -6.25 125.05 -6.3 125.05 -6.4 125.05 -6.55 125.05 -7.4 125.05 -8.2 125 -8.8 124.95 -9.35 124.85 -14.7 124 -18.65 120.05 -19.05 119.65 -20.2 118
L -26.15 109.25
Q -20.65 117.8 -26.15 135.35 -13.5 132.95 -7.2 126.25 -6.75 126.8 -6.3 127.3 -1.2 132.55 10.4 134.8 31.55 196.85 38.85 283.35 38.85 283.6 38.85 283.9 38.85 284.15 38.85 284.45 38.9 287.2 39.1 290.65 38.85 288.15 38.85 285.6 38.85 285 38.85 284.45
M 23.45 93.4
L 12.5 110.6
M -22.1 -242.55
Q -50.15 -239.5 -72.55 -224.25
M -47.3 -56.3
Q -43.95 -55.15 -40.45 -54.2 -31.9 -51.85 -22.7 -50.8
M -67.45 -30.85
Q -61.8 -25.4 -60.4 -15.95 -64.05 -10.1 -64.05 -2.7 -64.05 -0.2 -63.6 2.1
M -92.05 108.9
Q -91.95 108.7 -91.9 108.6 -92.15 109.7 -92.05 108.9 Z
M -91.9 108.6
Q -91.85 108.25 -91.8 107.95 -91.75 107.55 -91.65 107.15 -91.3 105.3 -90.9 103.45 -91.7 106.05 -92.05 108.9 -139.35 203 -149.3 275.55 -150.5 280.75 -150.5 286.45 -150.5 305.95 -136.75 319.75 -127.55 328.95 -115.85 331.95 -109.95 333.5 -103.45 333.5 -83.95 333.5 -70.15 319.7 -63.55 313.1 -60.1 305.25
L -60.1 305.2
Q -57.55 299.4 -56.75 292.9 -56.35 289.9 -56.35 286.75 -56.35 286.6 -56.3 286.45 -51.2 216.8 -26.15 135.35
M -26.15 109.25
L -37.75 92.15"/>

<path id="Symbole_2_0_Layer0_0_1_STROKES" stroke="#3D3F3E" stroke-width="2" stroke-linejoin="miter" stroke-linecap="square" stroke-miterlimit="3" fill="none" d="
M 106.75 -225.55
Q 106.55 -241.2 105.6 -258 104.5 -276.55 102.7 -290.4 102.4 -294.55 101.55 -298.35 98 -314.4 84.95 -325.75 68.75 -339.85 47.3 -338.35 25.85 -336.85 11.75 -320.65 -2.3 -304.4 -0.85 -282.95 -0.7 -280.65 -0.35 -278.45 -0.3 -278.05 -0.2 -277.6 0.15 -275.4 0.7 -273.3 1.5 -269.3 2.25 -265.5 64.85 -260.95 106.75 -225.55 113.6 -219.8 119.85 -213.2 123 -209.9 122.9 -205.35 122.8 -200.85 119.5 -197.65 116.2 -194.5 111.7 -194.6 108.8 -194.65 106.45 -196 105.2 -162.2 99.85 -134.5 99.25 -129.9 98.2 -125.45 91.85 -98.8 68.85 -78.3 52.7 -63.9 33.2 -56.85 33.25 -56.85 33.3 -56.85 46.4 -56.6 52.8 -50.2
L 131.25 40
Q 137.15 42.15 141.95 47 150.8 55.85 150.8 68.3 150.8 80.75 141.95 89.6 133.15 98.4 120.65 98.4 108.2 98.4 99.4 89.6 92.05 82.25 90.8 72.5
L 45.35 1.9
Q 44.9 4.35 44.05 6.6 42.15 11.35 38.25 15.25 38.15 15.35 38.1 15.4 30.95 23.45 34.25 33.2 59.75 60.25 73.25 107.15 73.3 105.5 73.45 108.1 106.8 180.55 130.35 269.4
L 130.35 269.5
Q 131.25 272 131.9 274.7 133.05 279.9 133.05 285.6 133.05 305.1 119.25 318.9 110.05 328.1 98.35 331.2 92.45 332.75 85.95 332.75 66.45 332.75 52.65 318.95 46.05 312.3 42.65 304.5 39.8 298 39.1 290.65 39.2 292.3 39.3 294.1
M 6.3 -243.05
Q 3 -243.4 -0.3 -243.6 -4.8 -243.95 -7.8 -247.35 -10.85 -250.8 -10.5 -255.35 -10.2 -259.9 -6.75 -262.85 -3.35 -265.9 1.2 -265.55 1.7 -265.55 2.25 -265.5
M -90.9 103.45
Q -82.6 65.25 -52.5 33.2 -50.25 22.85 -56.3 15.55 -56.45 15.4 -56.6 15.25 -62.3 9.6 -63.6 2.1
L -108.65 70.05
Q -109.75 80.35 -117.35 87.9 -126.2 96.75 -138.65 96.75 -151.1 96.75 -159.95 87.9 -168.8 79.1 -168.8 66.6 -168.8 54.15 -159.95 45.3 -154.05 39.4 -146.55 37.45
L -72.65 -47.7
Q -72 -48.6 -71.15 -49.45 -70.85 -49.85 -70.5 -50.2 -64.1 -56.6 -55.05 -56.6 -50.65 -56.6 -47.3 -56.3 -67.7 -63.35 -84.45 -78.3 -107.5 -98.85 -113.8 -125.45 -114.65 -129.05 -115.2 -132.7 -125.55 -184.5 -121.35 -258 -120.2 -278.1 -118.25 -292.1 -118.05 -294.5 -117.6 -296.8 -117.55 -297.15 -117.45 -297.5 -114.1 -314.1 -100.7 -325.75 -84.5 -339.85 -63.05 -338.35 -41.6 -336.85 -27.5 -320.65 -13.45 -304.4 -14.9 -282.95 -15.05 -280.75 -15.35 -278.6 -15.85 -275.5 -16.6 -272.6 -20 -255.65 -22.1 -242.55 -15.15 -243.3 -7.8 -243.3 -7.05 -243.3 -6.3 -243.3 0.15 -243.25 6.35 -242.55 6.3 -242.8 6.3 -243.05 66.25 -237.1 103.95 -198 105.1 -196.8 106.45 -196
M 33.2 -56.85
Q 30.75 -56.7 28 -55.1 30.6 -55.9 33.2 -56.85 Z
M 28 -55.1
Q 19.3 -52.45 9.95 -51.15
M 46.25 -26.6
Q 43.25 -22.5 42.35 -15.5 43.35 -13.8 44.05 -12 45.7 -7.7 45.7 -2.7 45.7 -0.35 45.35 1.9
M 38.1 15.4
Q 30.7 22.75 20.25 22.75 12.1 22.75 3.85 17.9 -1.05 15.15 -6.95 12.1
L -25.2 20.2
Q -30.85 22.75 -38.6 22.75 -48.95 22.75 -56.3 15.55
M 73.25 107.15
Q 73.3 107.5 73.4 107.85 73.4 107.95 73.45 108.1
M 10.4 134.8
Q 6.3 121.65 12.5 110.6
L 23.45 93.4
M 39.1 290.65
Q 38.85 288.15 38.85 285.6 38.85 285 38.85 284.45 38.85 284.15 38.85 283.9 38.85 283.6 38.85 283.35 31.55 196.85 10.4 134.8 -1.2 132.55 -6.3 127.3 -6.75 126.8 -7.2 126.25 -13.5 132.95 -26.15 135.35 -51.2 216.8 -56.3 286.45 -56.35 286.6 -56.35 286.75 -56.35 289.9 -56.75 292.9 -57.55 299.4 -60.1 305.2
L -60.1 305.25
Q -63.55 313.1 -70.15 319.7 -83.95 333.5 -103.45 333.5 -109.95 333.5 -115.85 331.95 -127.55 328.95 -136.75 319.75 -150.5 305.95 -150.5 286.45 -150.5 280.75 -149.3 275.55 -139.35 203 -92.05 108.9 -91.7 106.05 -90.9 103.45 -91.3 105.3 -91.65 107.15 -91.75 107.55 -91.8 107.95 -91.85 108.25 -91.9 108.6 -92.15 109.7 -92.05 108.9 -91.95 108.7 -91.9 108.6
M 38.85 284.45
Q 38.9 287.2 39.1 290.65
M -47.3 -56.3
Q -43.95 -55.15 -40.45 -54.2 -31.9 -51.85 -22.7 -50.8
M -67.45 -30.85
Q -61.8 -25.4 -60.4 -15.95 -64.05 -10.1 -64.05 -2.7 -64.05 -0.2 -63.6 2.1
M -26.15 135.35
Q -20.65 117.8 -26.15 109.25
L -37.75 92.15"/>

<path id="Symbole_2_0_Layer0_3_1_STROKES" stroke="#3D3F3E" stroke-width="2" stroke-linejoin="round" stroke-linecap="round" fill="none" d="
M 6.35 -242.55
Q 22.2 -240.9 36.2 -235.3
M -22.1 -242.55
Q -33.2 -241.35 -43.4 -238.25"/>
</defs>

<g transform="matrix( 0.46343994140625, 0, 0, 0.46343994140625, 109.05,177) ">
<g transform="matrix( 1, 0, 0, 1, 0,0) ">
<use xlink:href="#Symbole_2_0_Layer2_0_FILL"/>

<use xlink:href="#Symbole_2_0_Layer2_0_1_STROKES"/>
</g>

<g transform="matrix( 1, 0, 0, 1, 0,0) ">
<use xlink:href="#Symbole_2_0_Layer1_0_FILL"/>

<use xlink:href="#Symbole_2_0_Layer1_0_1_STROKES"/>
</g>

<g transform="matrix( 1, 0, 0, 1, 0,0) ">
<use xlink:href="#Symbole_2_0_Layer0_0_FILL"/>

<use xlink:href="#Symbole_2_0_Layer0_0_1_STROKES"/>
</g>

<g transform="matrix( 1, 0, 0, 1, -275,-400) ">
<use xlink:href="#Symbole_2_0_Layer0_1_FILL"/>
</g>

<g transform="matrix( 1, 0, 0, 1, -275,-400) ">
<use xlink:href="#Symbole_2_0_Layer0_2_FILL"/>
</g>

<g transform="matrix( 1, 0, 0, 1, 0,0) ">
<use xlink:href="#Symbole_2_0_Layer0_3_1_STROKES"/>
</g>
</g>
</svg>
