
<svg xmlns="http://www.w3.org/2000/svg" version="1.1" xmlns:xlink="http://www.w3.org/1999/xlink" preserveAspectRatio="none" x="0px" y="0px" width="200px" height="350px" viewBox="0 0 200 350">
<defs>
<radialGradient id="Gradient_1" gradientUnits="userSpaceOnUse" cx="0" cy="0" r="21.76253230899381" fx="0" fy="0" gradientTransform="matrix( 0.8943122851542753, -0.4474433334201544, 0.05399187848715599, 0.6008032435911188, 361.15,262.6) " spreadMethod="pad">
<stop  offset="0%" stop-color="#FF3333"/>

<stop  offset="100%" stop-color="#FF3333" stop-opacity="0"/>
</radialGradient>

<radialGradient id="Gradient_2" gradientUnits="userSpaceOnUse" cx="0" cy="0" r="10.414488105519167" fx="0" fy="0" gradientTransform="matrix( 0.8941870119439507, -0.4476936314833471, 0.11282359613789444, 1.2554625697897617, 361.45,262.45) " spreadMethod="pad">
<stop  offset="0%" stop-color="#FF3333"/>

<stop  offset="100%" stop-color="#FF3333" stop-opacity="0"/>
</radialGradient>

<radialGradient id="Gradient_3" gradientUnits="userSpaceOnUse" cx="0" cy="0" r="25.676865195151844" fx="0" fy="0" gradientTransform="matrix( -0.9833754941692633, -0.18158369273521544, -0.12413898565008026, 0.5092132509411136, 208.15,262.45) " spreadMethod="pad">
<stop  offset="0%" stop-color="#FF3333"/>

<stop  offset="100%" stop-color="#FF3333" stop-opacity="0"/>
</radialGradient>

<radialGradient id="Gradient_4" gradientUnits="userSpaceOnUse" cx="0" cy="0" r="53.64122860496393" fx="0" fy="0" gradientTransform="matrix( -0.9833853804593609, -0.1815301448762659, -0.05942257630737844, 0.24374907771575627, 209.05,262.6) " spreadMethod="pad">
<stop  offset="0%" stop-color="#FF3333"/>

<stop  offset="100%" stop-color="#FF3333" stop-opacity="0"/>
</radialGradient>

<g id="Layer2_0_FILL">
<path fill="#660000" stroke="none" d="
M 81.4 88.9
Q 90.25 80.1 90.25 67.6 90.25 55.15 81.4 46.3 80.3 45.2 79.2 44.25 78 43.3 76.8 42.45
L 61.05 7.3
Q 59.15 11.45 55.65 14.95 50.3 20.3 43.45 21.85 43.5 26.95 43.55 32.45 45.4 36.45 47 40.4 47.75 42.35 48.5 44.25 60.2 74.65 57.2 97.65 58.65 97.75 60.1 97.75 72.55 97.75 81.4 88.9
M 40.1 -229.35
Q 31.95 -233.9 23.15 -236.95 8.85 -241.9 -7.2 -243 -11.75 -243.3 -16.4 -243.3 -18.8 -243.3 -21.1 -243.2 -30.35 -242.9 -39.05 -241.35 -41.5 -224.2 -41.4 -210.8 -41.5 -224.2 -39.05 -241.35 -39 -241.85 -38.9 -242.4 -37.8 -250 -36.2 -258.25 -35.6 -261.45 -34.9 -265.1 -34.1 -269.25 -33.25 -273.95 -32.65 -276.6 -32.25 -279.3 -32.25 -279.5 -32.2 -279.7 -32 -281.3 -31.9 -282.95 -30.85 -298.65 -38.1 -311.6 -40.75 -316.3 -44.5 -320.65 -58.6 -336.85 -80.05 -338.35 -101.5 -339.85 -117.7 -325.75 -131.1 -314.15 -134.45 -297.6 -135.05 -294.7 -135.3 -291.6 -137.2 -277.7 -138.35 -258 -142.85 -179.3 -123.95 -124.35 -114.85 -97.8 -93.05 -78.3 -70.65 -58.35 -41.7 -52.45 -38.25 -54.6 -34.15 -55.3 -33.9 -55.35 -33.65 -55.35 -32 -55.6 -30.3 -55.6 -24.5 -55.6 -19.75 -52.95 -24.5 -55.6 -30.3 -55.6 -32 -55.6 -33.65 -55.35 -33.9 -55.35 -34.15 -55.3 -38.25 -54.6 -41.7 -52.45 -43.9 -51.1 -45.8 -49.2 -47.55 -47.45 -51.5 -39.45
L -93.15 50.15
Q -100.05 58.3 -100.05 69.3 -100.05 81.75 -91.2 90.6 -83.65 98.15 -73.3 99.25 -71.9 99.35 -70.4 99.4 -70.15 99.4 -69.9 99.4 -65.3 99.4 -61.2 98.2 -55.6 96.55 -50.9 92.65 -49.75 91.7 -48.65 90.6 -42.8 84.8 -40.8 77.45 -39.75 73.6 -39.75 69.3 -39.75 64.4 -41.1 60.05
L -18.85 -23.2 -41.1 60.05
Q -39.75 64.4 -39.75 69.3 -39.75 73.6 -40.8 77.45 -42.8 84.8 -48.65 90.6 -49.75 91.7 -50.9 92.65 -55.6 96.55 -61.2 98.2 -65.3 99.4 -69.9 99.4 -70.15 99.4 -70.4 99.4 -71.65 107.85 -70.6 114.45 -69.15 123.75 -65 132.4 -68.65 159 -78.2 183.7 -95.7 228.9 -99.35 282.35 -99.75 287.45 -99.05 292.9 -96.55 312.2 -81.1 324.1 -70.75 332 -58.75 333.6 -52.75 334.8 -46.3 333.95 -27 331.4 -15.1 315.9 -9.5 308.6 -7.2 300.6 -7.15 300.45 -7.1 300.3 -5.55 294.65 -5.25 289.55 -5.25 288.9 -5.2 288.3 -5.15 284.55 -5.65 280.65 -5.65 280.6 -5.65 280.55 -7 267.45 -7.2 262.65 -7.95 246.25 -7.2 231 -6.35 212.9 -3.4 196.45 -2.75 192.9 -2.05 189.5 2.7 166.6 4.6 144.9 5.4 135.4 5.65 126.1 8.85 105.9 3.05 93.05 8.85 105.9 5.65 126.1 5.75 126.1 5.8 126.1 11.85 125.55 19.95 117.25 28.35 108.1 33.2 94.05 28.35 108.1 19.95 117.25 11.85 125.55 5.8 126.1 5.75 126.1 5.65 126.1 5.4 135.4 4.6 144.9 2.7 166.6 -2.05 189.5 -2.75 192.9 -3.4 196.45 -3.45 200.95 -3.65 205.6 -5.4 245.65 -3.6 287.2 -3.6 288.25 -3.5 289.3 -3.05 297.85 0.15 305.2
L 0.2 305.25
Q 3.6 313.1 10.2 319.7 24 333.5 43.5 333.5 50 333.5 55.9 331.95 67.6 328.95 76.8 319.75 90.55 305.95 90.55 286.45 90.55 281.35 89.65 276.65 88.7 272.1 86.95 267.9 75.75 226.85 71.75 181.3 68.3 142.8 54.6 109.3 54.6 109.35 54.6 109.45 54.5525390625 109.3076171875 54.55 109.15 54.55390625 109.25390625 54.6 109.3 56.4 103.7 57.2 97.65 60.2 74.65 48.5 44.25 47.75 42.35 47 40.4 45.4 36.45 43.55 32.45 43.5 26.95 43.45 21.85 40.65 22.45 37.65 22.45 29.6 22.45 23.4 18.1 13.3 25.4 5.25 25.4 -5.3 25.4 -12.75 16.9 -18.85 10 -19.95 0.7 -18.85 10 -12.75 16.9 -5.3 25.4 5.25 25.4 13.3 25.4 23.4 18.1 29.6 22.45 37.65 22.45 40.65 22.45 43.45 21.85 50.3 20.3 55.65 14.95 59.15 11.45 61.05 7.3 61.25 6.8 61.45 6.3 63.1 2 63.1 -3 63.1 -8 61.45 -12.3 59.55 -17.1 52.95 -22.1 49.05 -25.05 45.7 -26.95 43.25 -28.3 41.1 -29.1 39.6 -29.65 38.05 -30.9 37.95 -31.25 37.85 -31.6 36.95 -34.75 35.75 -37.45 36.95 -34.75 37.85 -31.6 37.95 -31.25 38.05 -30.9 39.6 -29.65 41.1 -29.1 43.25 -28.3 45.7 -26.95
L 37.8 -44.5
Q 37.7 -44.65 37.6 -44.8 36.25 -47.05 34.3 -49 28.4 -54.9 20.2 -55.35 13.85 -53.35 7.2 -52.1 6.75 -52.05 6.3 -51.95 6.75 -52.05 7.2 -52.1 13.85 -53.35 20.2 -55.35 42.3 -62.3 60.25 -78.3 92.05 -106.65 92.05 -146.65 92.05 -156.4 90.15 -165.4 92.35 -169.05 94.25 -173.4 91.8 -170.8 89.45 -168.6 82.95 -194.75 60.25 -214.95 50.75 -223.45 40.1 -229.35
M 53.35 -247.8
Q 50.55 -249.5 47.7 -251 11.45 -270.1 -34.9 -265.1 -35.6 -261.45 -36.2 -258.25 -37.8 -250 -38.9 -242.4 6.05 -248.9 40.25 -229.95 41.2 -229.45 42.2 -228.85 46.15 -226.55 50.55 -227.7 54.9 -228.85 57.25 -232.8 59.55 -236.75 58.4 -241.1 57.25 -245.5 53.35 -247.8
M 41.5 -325.75
Q 25.3 -339.85 3.85 -338.35 -17.6 -336.85 -31.7 -320.65 -35.45 -316.3 -38.1 -311.6 -30.85 -298.65 -31.9 -282.95 -32 -281.3 -32.2 -279.7 -32.25 -279.5 -32.25 -279.3 -32.65 -276.6 -33.25 -273.95 -34.1 -269.25 -34.9 -265.1 11.45 -270.1 47.7 -251 49.9 -256.1 52.3 -260.25
L 52.65 -260.8
Q 60.4 -274 59.25 -290.15 57.8 -311.6 41.5 -325.75 Z"/>
</g>

<g id="Layer1_0_FILL">
<path fill="#660000" stroke="none" d="
M 81.4 88.9
Q 90.25 80.1 90.25 67.6 90.25 55.15 81.4 46.3 80.3 45.2 79.2 44.25 78 43.3 76.8 42.45
L 61.05 7.3
Q 59.15 11.45 55.65 14.95 50.3 20.3 43.45 21.85 43.5 26.95 43.55 32.45 45.4 36.45 47 40.4 47.75 42.35 48.5 44.25 60.2 74.65 57.2 97.65 58.65 97.75 60.1 97.75 72.55 97.75 81.4 88.9
M 40.1 -229.35
Q 31.95 -233.9 23.15 -236.95 8.85 -241.9 -7.2 -243 -11.75 -243.3 -16.4 -243.3 -18.8 -243.3 -21.1 -243.2 -30.35 -242.9 -39.05 -241.35 -41.5 -224.2 -41.4 -210.8 -41.5 -224.2 -39.05 -241.35 -39 -241.85 -38.9 -242.4 -37.8 -250 -36.2 -258.25 -35.6 -261.45 -34.9 -265.1 -34.1 -269.25 -33.25 -273.95 -32.65 -276.6 -32.25 -279.3 -32.25 -279.5 -32.2 -279.7 -32 -281.3 -31.9 -282.95 -30.85 -298.65 -38.1 -311.6 -40.75 -316.3 -44.5 -320.65 -58.6 -336.85 -80.05 -338.35 -101.5 -339.85 -117.7 -325.75 -131.1 -314.15 -134.45 -297.6 -135.05 -294.7 -135.3 -291.6 -137.2 -277.7 -138.35 -258 -142.85 -179.3 -123.95 -124.35 -114.85 -97.8 -93.05 -78.3 -70.65 -58.35 -41.7 -52.45 -38.25 -54.6 -34.15 -55.3 -33.9 -55.35 -33.65 -55.35 -32 -55.6 -30.3 -55.6 -24.5 -55.6 -19.75 -52.95 -24.5 -55.6 -30.3 -55.6 -32 -55.6 -33.65 -55.35 -33.9 -55.35 -34.15 -55.3 -38.25 -54.6 -41.7 -52.45 -43.9 -51.1 -45.8 -49.2 -47.55 -47.45 -51.5 -39.45
L -93.15 50.15
Q -100.05 58.3 -100.05 69.3 -100.05 81.75 -91.2 90.6 -83.65 98.15 -73.3 99.25 -71.9 99.35 -70.4 99.4 -70.15 99.4 -69.9 99.4 -65.3 99.4 -61.2 98.2 -55.6 96.55 -50.9 92.65 -49.75 91.7 -48.65 90.6 -42.8 84.8 -40.8 77.45 -39.75 73.6 -39.75 69.3 -39.75 64.4 -41.1 60.05
L -18.85 -23.2 -41.1 60.05
Q -39.75 64.4 -39.75 69.3 -39.75 73.6 -40.8 77.45 -42.8 84.8 -48.65 90.6 -49.75 91.7 -50.9 92.65 -55.6 96.55 -61.2 98.2 -65.3 99.4 -69.9 99.4 -70.15 99.4 -70.4 99.4 -71.65 107.85 -70.6 114.45 -69.15 123.75 -65 132.4 -68.65 159 -78.2 183.7 -95.7 228.9 -99.35 282.35 -99.75 287.45 -99.05 292.9 -96.55 312.2 -81.1 324.1 -70.75 332 -58.75 333.6 -52.75 334.8 -46.3 333.95 -27 331.4 -15.1 315.9 -9.5 308.6 -7.2 300.6 -7.15 300.45 -7.1 300.3 -5.55 294.65 -5.25 289.55 -5.25 288.9 -5.2 288.3 -5.15 284.55 -5.65 280.65 -5.65 280.6 -5.65 280.55 -7 267.45 -7.2 262.65 -7.95 246.25 -7.2 231 -6.35 212.9 -3.4 196.45 -2.75 192.9 -2.05 189.5 2.7 166.6 4.6 144.9 5.4 135.4 5.65 126.1 8.85 105.9 3.05 93.05 8.85 105.9 5.65 126.1 5.75 126.1 5.8 126.1 11.85 125.55 19.95 117.25 28.35 108.1 33.2 94.05 28.35 108.1 19.95 117.25 11.85 125.55 5.8 126.1 5.75 126.1 5.65 126.1 5.4 135.4 4.6 144.9 2.7 166.6 -2.05 189.5 -2.75 192.9 -3.4 196.45 -3.45 200.95 -3.65 205.6 -5.4 245.65 -3.6 287.2 -3.6 288.25 -3.5 289.3 -3.05 297.85 0.15 305.2
L 0.2 305.25
Q 3.6 313.1 10.2 319.7 24 333.5 43.5 333.5 50 333.5 55.9 331.95 67.6 328.95 76.8 319.75 90.55 305.95 90.55 286.45 90.55 281.35 89.65 276.65 88.7 272.1 86.95 267.9 75.75 226.85 71.75 181.3 68.3 142.8 54.6 109.3 54.6 109.35 54.6 109.45 54.5525390625 109.3076171875 54.55 109.15 54.55390625 109.25390625 54.6 109.3 56.4 103.7 57.2 97.65 60.2 74.65 48.5 44.25 47.75 42.35 47 40.4 45.4 36.45 43.55 32.45 43.5 26.95 43.45 21.85 40.65 22.45 37.65 22.45 29.6 22.45 23.4 18.1 13.3 25.4 5.25 25.4 -5.3 25.4 -12.75 16.9 -18.85 10 -19.95 0.7 -18.85 10 -12.75 16.9 -5.3 25.4 5.25 25.4 13.3 25.4 23.4 18.1 29.6 22.45 37.65 22.45 40.65 22.45 43.45 21.85 50.3 20.3 55.65 14.95 59.15 11.45 61.05 7.3 61.25 6.8 61.45 6.3 63.1 2 63.1 -3 63.1 -8 61.45 -12.3 59.55 -17.1 52.95 -22.1 49.05 -25.05 45.7 -26.95 43.25 -28.3 41.1 -29.1 39.6 -29.65 38.05 -30.9 37.95 -31.25 37.85 -31.6 36.95 -34.75 35.75 -37.45 36.95 -34.75 37.85 -31.6 37.95 -31.25 38.05 -30.9 39.6 -29.65 41.1 -29.1 43.25 -28.3 45.7 -26.95
L 37.8 -44.5
Q 37.7 -44.65 37.6 -44.8 36.25 -47.05 34.3 -49 28.4 -54.9 20.2 -55.35 13.85 -53.35 7.2 -52.1 6.75 -52.05 6.3 -51.95 6.75 -52.05 7.2 -52.1 13.85 -53.35 20.2 -55.35 42.3 -62.3 60.25 -78.3 92.05 -106.65 92.05 -146.65 92.05 -156.4 90.15 -165.4 92.35 -169.05 94.25 -173.4 91.8 -170.8 89.45 -168.6 82.95 -194.75 60.25 -214.95 50.75 -223.45 40.1 -229.35
M 53.35 -247.8
Q 50.55 -249.5 47.7 -251 11.45 -270.1 -34.9 -265.1 -35.6 -261.45 -36.2 -258.25 -37.8 -250 -38.9 -242.4 6.05 -248.9 40.25 -229.95 41.2 -229.45 42.2 -228.85 46.15 -226.55 50.55 -227.7 54.9 -228.85 57.25 -232.8 59.55 -236.75 58.4 -241.1 57.25 -245.5 53.35 -247.8
M 41.5 -325.75
Q 25.3 -339.85 3.85 -338.35 -17.6 -336.85 -31.7 -320.65 -35.45 -316.3 -38.1 -311.6 -30.85 -298.65 -31.9 -282.95 -32 -281.3 -32.2 -279.7 -32.25 -279.5 -32.25 -279.3 -32.65 -276.6 -33.25 -273.95 -34.1 -269.25 -34.9 -265.1 11.45 -270.1 47.7 -251 49.9 -256.1 52.3 -260.25
L 52.65 -260.8
Q 60.4 -274 59.25 -290.15 57.8 -311.6 41.5 -325.75 Z"/>
</g>

<g id="Layer0_0_FILL">
<path fill="#FFB19C" stroke="none" d="
M 81.4 88.9
Q 90.25 80.1 90.25 67.6 90.25 55.15 81.4 46.3 80.3 45.2 79.2 44.25 78 43.3 76.8 42.45
L 61.05 7.3
Q 59.15 11.45 55.65 14.95 50.3 20.3 43.45 21.85 43.5 26.95 43.55 32.45 45.4 36.45 47 40.4 47.75 42.35 48.5 44.25 60.2 74.65 57.2 97.65 58.65 97.75 60.1 97.75 72.55 97.75 81.4 88.9
M 40.1 -229.35
Q 31.95 -233.9 23.15 -236.95 8.85 -241.9 -7.2 -243 -11.75 -243.3 -16.4 -243.3 -18.8 -243.3 -21.1 -243.2 -30.35 -242.9 -39.05 -241.35 -39.75 -236.3 -40.25 -231.55 -39.75 -236.3 -39.05 -241.35 -39 -241.85 -38.9 -242.4 -37.8 -250 -36.2 -258.25 -35.6 -261.45 -34.9 -265.1 -34.1 -269.25 -33.25 -273.95 -32.65 -276.6 -32.25 -279.3 -32.25 -279.5 -32.2 -279.7 -32 -281.3 -31.9 -282.95 -30.85 -298.65 -38.1 -311.6 -40.75 -316.3 -44.5 -320.65 -58.6 -336.85 -80.05 -338.35 -101.5 -339.85 -117.7 -325.75 -131.1 -314.15 -134.45 -297.6 -135.05 -294.7 -135.3 -291.6 -137.2 -277.7 -138.35 -258 -142.85 -179.3 -123.95 -124.35 -114.85 -97.8 -93.05 -78.3 -70.65 -58.35 -41.7 -52.45 -38.25 -54.6 -34.15 -55.3 -33.9 -55.35 -33.65 -55.35 -32 -55.6 -30.3 -55.6 -24.5 -55.6 -19.75 -52.95 -24.5 -55.6 -30.3 -55.6 -32 -55.6 -33.65 -55.35 -33.9 -55.35 -34.15 -55.3 -38.25 -54.6 -41.7 -52.45 -43.9 -51.1 -45.8 -49.2 -47.55 -47.45 -51.5 -39.45
L -93.15 50.15
Q -100.05 58.3 -100.05 69.3 -100.05 81.75 -91.2 90.6 -83.65 98.15 -73.3 99.25 -71.9 99.35 -70.4 99.4 -70.15 99.4 -69.9 99.4 -65.3 99.4 -61.2 98.2 -55.6 96.55 -50.9 92.65 -49.75 91.7 -48.65 90.6 -42.8 84.8 -40.8 77.45 -39.75 73.6 -39.75 69.3 -39.75 64.4 -41.1 60.05
L -18.85 -23.2 -41.1 60.05
Q -39.75 64.4 -39.75 69.3 -39.75 73.6 -40.8 77.45 -42.8 84.8 -48.65 90.6 -49.75 91.7 -50.9 92.65 -55.6 96.55 -61.2 98.2 -65.3 99.4 -69.9 99.4 -70.15 99.4 -70.4 99.4 -71.65 107.85 -70.6 114.45 -69.15 123.75 -65 132.4 -68.65 159 -78.2 183.7 -95.7 228.9 -99.35 282.35 -99.75 287.45 -99.05 292.9 -96.55 312.2 -81.1 324.1 -70.75 332 -58.75 333.6 -52.75 334.8 -46.3 333.95 -27 331.4 -15.1 315.9 -9.5 308.6 -7.2 300.6 -7.15 300.45 -7.1 300.3 -5.55 294.65 -5.25 289.55 -5.25 288.9 -5.2 288.3 -5.15 284.55 -5.65 280.65 -5.65 280.6 -5.65 280.55 -7 267.45 -7.2 262.65 -7.95 246.25 -7.2 231 -6.35 212.9 -3.4 196.45 -2.75 192.9 -2.05 189.5 2.7 166.6 4.6 144.9 5.4 135.4 5.65 126.1 8.85 105.9 -6.95 91.85 8.85 105.9 5.65 126.1 5.4 135.4 4.6 144.9 2.7 166.6 -2.05 189.5 -2.75 192.9 -3.4 196.45 -3.45 200.95 -3.65 205.6 -5.4 245.65 -3.6 287.2 -3.6 288.25 -3.5 289.3 -3.05 297.85 0.15 305.2
L 0.2 305.25
Q 3.6 313.1 10.2 319.7 24 333.5 43.5 333.5 50 333.5 55.9 331.95 67.6 328.95 76.8 319.75 90.55 305.95 90.55 286.45 90.55 281.35 89.65 276.65 88.7 272.1 86.95 267.9 75.75 226.85 71.75 181.3 68.3 142.8 54.6 109.3 54.6 109.35 54.6 109.45 54.5525390625 109.3076171875 54.55 109.15 54.55390625 109.25390625 54.6 109.3 56.4 103.7 57.2 97.65 60.2 74.65 48.5 44.25 47.75 42.35 47 40.4 45.4 36.45 43.55 32.45 43.5 26.95 43.45 21.85 40.65 22.45 37.65 22.45 29.6 22.45 23.4 18.1 13.3 25.4 5.25 25.4 -5.3 25.4 -12.75 16.9 -18.85 10 -19.95 0.7 -18.85 10 -12.75 16.9 -5.3 25.4 5.25 25.4 13.3 25.4 23.4 18.1 29.6 22.45 37.65 22.45 40.65 22.45 43.45 21.85 50.3 20.3 55.65 14.95 59.15 11.45 61.05 7.3 61.25 6.8 61.45 6.3 63.1 2 63.1 -3 63.1 -8 61.45 -12.3 59.55 -17.1 52.95 -22.1 49.05 -25.05 45.7 -26.95 43.25 -28.3 41.1 -29.1 39.6 -29.65 38.05 -30.9 37.95 -31.25 37.85 -31.6 36.95 -34.75 35.75 -37.45 36.95 -34.75 37.85 -31.6 37.95 -31.25 38.05 -30.9 39.6 -29.65 41.1 -29.1 43.25 -28.3 45.7 -26.95
L 37.8 -44.5
Q 37.7 -44.65 37.6 -44.8 36.25 -47.05 34.3 -49 28.4 -54.9 20.2 -55.35 13.85 -53.35 7.2 -52.1 6.75 -52.05 6.3 -51.95 6.75 -52.05 7.2 -52.1 13.85 -53.35 20.2 -55.35 42.3 -62.3 60.25 -78.3 92.05 -106.65 92.05 -146.65 92.05 -156.4 90.15 -165.4 85.05 -156.9 78.6 -152.35 67.25 -177.75 46.3 -140.4 44.1 -138.75 45.15 -142.7 66.75 -186.9 83.25 -163.4 86.25 -165.6 89.45 -168.6 82.95 -194.75 60.25 -214.95 50.75 -223.45 40.1 -229.35
M 13.1 -142.7
Q 15.2 -138.75 10.85 -140.4 -30.25 -177.75 -52.6 -152.35 -70.65 -158.8 -83.4 -173.4 -71.95 -167.25 -61.65 -163.4 -29.3 -186.9 13.1 -142.7
M 4.6 -118.45
Q 4.1 -121.7 6.8 -121.6 7.1 -117.7 11.45 -115.05 18.55 -110.45 27.2 -104 16.5 -106.75 9.35 -111.5 5.7 -113.95 4.6 -118.45
M 47.65 -119.45
Q 47.25 -114.65 45.15 -112.05 39.7 -105.45 32.95 -103.7 38.3 -109.1 43.35 -114.75 46 -117.75 46.35 -122.45 47.75 -124.1 47.65 -119.45
M 25.95 117.25
Q 17.85 125.55 11.8 126.1 17.85 125.55 25.95 117.25 34.35 108.1 39.2 94.05 34.35 108.1 25.95 117.25
M 41.5 -325.75
Q 25.3 -339.85 3.85 -338.35 -17.6 -336.85 -31.7 -320.65 -35.45 -316.3 -38.1 -311.6 -30.85 -298.65 -31.9 -282.95 -32 -281.3 -32.2 -279.7 -32.25 -279.5 -32.25 -279.3 -32.65 -276.6 -33.25 -273.95 -34.1 -269.25 -34.9 -265.1 11.45 -270.1 47.7 -251 49.9 -256.1 52.3 -260.25
L 52.65 -260.8
Q 60.4 -274 59.25 -290.15 57.8 -311.6 41.5 -325.75 Z"/>

<path fill="#3D3F3E" stroke="none" d="
M 89.45 -168.6
Q 86.25 -165.6 83.25 -163.4 66.75 -186.9 45.15 -142.7 44.1 -138.75 46.3 -140.4 67.25 -177.75 78.6 -152.35 85.05 -156.9 90.15 -165.4 92.35 -169.05 94.25 -173.4 91.8 -170.8 89.45 -168.6
M 45.15 -112.05
Q 47.25 -114.65 47.65 -119.45 47.75 -124.1 46.35 -122.45 46 -117.75 43.35 -114.75 38.3 -109.1 32.95 -103.7 39.7 -105.45 45.15 -112.05
M 6.8 -121.6
Q 4.1 -121.7 4.6 -118.45 5.7 -113.95 9.35 -111.5 16.5 -106.75 27.2 -104 18.55 -110.45 11.45 -115.05 7.1 -117.7 6.8 -121.6
M 10.85 -140.4
Q 15.2 -138.75 13.1 -142.7 -29.3 -186.9 -61.65 -163.4 -71.95 -167.25 -83.4 -173.4 -70.65 -158.8 -52.6 -152.35 -30.25 -177.75 10.85 -140.4 Z"/>

<path fill="#FF0000" stroke="none" d="
M 53.35 -247.8
Q 50.55 -249.5 47.7 -251 11.45 -270.1 -34.9 -265.1 -35.6 -261.45 -36.2 -258.25 -37.8 -250 -38.9 -242.4 6.05 -248.9 40.25 -229.95 41.2 -229.45 42.2 -228.85 46.15 -226.55 50.55 -227.7 54.9 -228.85 57.25 -232.8 59.55 -236.75 58.4 -241.1 57.25 -245.5 53.35 -247.8 Z"/>
</g>

<g id="Layer0_1_FILL">
<path fill="url(#Gradient_1)" stroke="none" d="
M 346.85 282.65
Q 353.9 284.15 363.3 279.5
L 360.35 246.4
Q 350.95 251.15 344.75 259.25 338.55 267.45 339.15 274.3 339.75 281.15 346.85 282.65 Z"/>

<path fill="url(#Gradient_2)" stroke="none" d="
M 360.4 246.35
L 360.35 246.4 363.3 279.5
Q 363.35 279.5 363.4 279.45 367.9 277.2 370.7 270.75 373.45 264.3 372.8 257.45 372.2 250.6 368.6 247.35 364.95 244.1 360.4 246.35 Z"/>
</g>

<g id="Layer0_2_FILL">
<path fill="url(#Gradient_3)" stroke="none" d="
M 211.2 246.4
Q 211.1 246.4 211 246.35 198.7 244.1 188.85 247.35 179.05 250.6 177.35 257.45 175.7 264.3 183.15 270.75 190.65 277.2 202.95 279.45 203.05 279.5 203.15 279.5
L 211.2 246.4 Z"/>

<path fill="url(#Gradient_4)" stroke="none" d="
M 247.7 282.65
Q 267 281.15 268.65 274.3 270.3 267.45 253.4 259.25 236.65 251.15 211.2 246.4
L 203.15 279.5
Q 228.6 284.15 247.7 282.65 Z"/>
</g>

<path id="Layer2_0_1_STROKES" stroke="#3C3F3E" stroke-width="15" stroke-linejoin="round" stroke-linecap="round" fill="none" d="
M 90.15 -165.4
Q 92.05 -156.4 92.05 -146.65 92.05 -106.65 60.25 -78.3 42.3 -62.3 20.2 -55.35 28.4 -54.9 34.3 -49 36.25 -47.05 37.6 -44.8 37.7 -44.65 37.8 -44.5
L 45.7 -26.95
Q 49.05 -25.05 52.95 -22.1 59.55 -17.1 61.45 -12.3 63.1 -8 63.1 -3 63.1 2 61.45 6.3 61.25 6.8 61.05 7.3
L 76.8 42.45
Q 78 43.3 79.2 44.25 80.3 45.2 81.4 46.3 90.25 55.15 90.25 67.6 90.25 80.1 81.4 88.9 72.55 97.75 60.1 97.75 58.65 97.75 57.2 97.65 56.4 103.7 54.6 109.3 68.3 142.8 71.75 181.3 75.75 226.85 86.95 267.9 88.7 272.1 89.65 276.65 90.55 281.35 90.55 286.45 90.55 305.95 76.8 319.75 67.6 328.95 55.9 331.95 50 333.5 43.5 333.5 24 333.5 10.2 319.7 3.6 313.1 0.2 305.25
L 0.15 305.2
Q -3.05 297.85 -3.5 289.3 -3.6 288.25 -3.6 287.2 -5.4 245.65 -3.65 205.6 -3.45 200.95 -3.4 196.45 -6.35 212.9 -7.2 231 -7.95 246.25 -7.2 262.65 -7 267.45 -5.65 280.55 -5.65 280.6 -5.65 280.65 -5.15 284.55 -5.2 288.3 -5.25 288.9 -5.25 289.55 -5.55 294.65 -7.1 300.3 -7.15 300.45 -7.2 300.6 -9.5 308.6 -15.1 315.9 -27 331.4 -46.3 333.95 -52.75 334.8 -58.75 333.6 -70.75 332 -81.1 324.1 -96.55 312.2 -99.05 292.9 -99.75 287.45 -99.35 282.35 -95.7 228.9 -78.2 183.7 -68.65 159 -65 132.4 -69.15 123.75 -70.6 114.45 -71.65 107.85 -70.4 99.4 -71.9 99.35 -73.3 99.25 -83.65 98.15 -91.2 90.6 -100.05 81.75 -100.05 69.3 -100.05 58.3 -93.15 50.15
L -51.5 -39.45
Q -47.55 -47.45 -45.8 -49.2 -43.9 -51.1 -41.7 -52.45 -70.65 -58.35 -93.05 -78.3 -114.85 -97.8 -123.95 -124.35 -142.85 -179.3 -138.35 -258 -137.2 -277.7 -135.3 -291.6 -135.05 -294.7 -134.45 -297.6 -131.1 -314.15 -117.7 -325.75 -101.5 -339.85 -80.05 -338.35 -58.6 -336.85 -44.5 -320.65 -40.75 -316.3 -38.1 -311.6 -35.45 -316.3 -31.7 -320.65 -17.6 -336.85 3.85 -338.35 25.3 -339.85 41.5 -325.75 57.8 -311.6 59.25 -290.15 60.4 -274 52.65 -260.8
L 52.3 -260.25
Q 49.9 -256.1 47.7 -251 50.55 -249.5 53.35 -247.8 57.25 -245.5 58.4 -241.1 59.55 -236.75 57.25 -232.8 54.9 -228.85 50.55 -227.7 46.15 -226.55 42.2 -228.85 41.2 -229.45 40.25 -229.95 40.15 -229.65 40.1 -229.35 50.75 -223.45 60.25 -214.95 82.95 -194.75 89.45 -168.6
M 40.25 -229.95
Q 6.05 -248.9 -38.9 -242.4 -39 -241.85 -39.05 -241.35 -30.35 -242.9 -21.1 -243.2 -18.8 -243.3 -16.4 -243.3 -11.75 -243.3 -7.2 -243 8.85 -241.9 23.15 -236.95 31.95 -233.9 40.1 -229.35
M 20.2 -55.35
Q 13.85 -53.35 7.2 -52.1 6.75 -52.05 6.3 -51.95
M 35.75 -37.45
Q 36.95 -34.75 37.85 -31.6 37.95 -31.25 38.05 -30.9 39.6 -29.65 41.1 -29.1 43.25 -28.3 45.7 -26.95
M -38.1 -311.6
Q -30.85 -298.65 -31.9 -282.95 -32 -281.3 -32.2 -279.7 -32.25 -279.5 -32.25 -279.3 -32.65 -276.6 -33.25 -273.95 -34.1 -269.25 -34.9 -265.1 11.45 -270.1 47.7 -251
M -34.9 -265.1
Q -35.6 -261.45 -36.2 -258.25 -37.8 -250 -38.9 -242.4
M -39.05 -241.35
Q -41.5 -224.2 -41.4 -210.8
M -41.7 -52.45
Q -38.25 -54.6 -34.15 -55.3 -33.9 -55.35 -33.65 -55.35 -32 -55.6 -30.3 -55.6 -24.5 -55.6 -19.75 -52.95
M 57.2 97.65
Q 60.2 74.65 48.5 44.25 47.75 42.35 47 40.4 45.4 36.45 43.55 32.45 43.5 26.95 43.45 21.85 40.65 22.45 37.65 22.45 29.6 22.45 23.4 18.1 13.3 25.4 5.25 25.4 -5.3 25.4 -12.75 16.9 -18.85 10 -19.95 0.7
M -18.85 -23.2
L -41.1 60.05
Q -39.75 64.4 -39.75 69.3 -39.75 73.6 -40.8 77.45 -42.8 84.8 -48.65 90.6 -49.75 91.7 -50.9 92.65 -55.6 96.55 -61.2 98.2 -65.3 99.4 -69.9 99.4 -70.15 99.4 -70.4 99.4
M 33.2 94.05
Q 28.35 108.1 19.95 117.25 11.85 125.55 5.8 126.1 5.75 126.1 5.65 126.1 5.4 135.4 4.6 144.9 2.7 166.6 -2.05 189.5 -2.75 192.9 -3.4 196.45
M 61.05 7.3
Q 59.15 11.45 55.65 14.95 50.3 20.3 43.45 21.85
M 54.6 109.3
Q 54.6 109.35 54.6 109.45 54.5525390625 109.3076171875 54.55 109.175 54.55390625 109.25390625 54.6 109.3 Z
M 3.05 93.05
Q 8.85 105.9 5.65 126.1"/>

<path id="Layer1_0_1_STROKES" stroke="#3C3F3E" stroke-width="15" stroke-linejoin="round" stroke-linecap="round" fill="none" d="
M 90.15 -165.4
Q 92.05 -156.4 92.05 -146.65 92.05 -106.65 60.25 -78.3 42.3 -62.3 20.2 -55.35 28.4 -54.9 34.3 -49 36.25 -47.05 37.6 -44.8 37.7 -44.65 37.8 -44.5
L 45.7 -26.95
Q 49.05 -25.05 52.95 -22.1 59.55 -17.1 61.45 -12.3 63.1 -8 63.1 -3 63.1 2 61.45 6.3 61.25 6.8 61.05 7.3
L 76.8 42.45
Q 78 43.3 79.2 44.25 80.3 45.2 81.4 46.3 90.25 55.15 90.25 67.6 90.25 80.1 81.4 88.9 72.55 97.75 60.1 97.75 58.65 97.75 57.2 97.65 56.4 103.7 54.6 109.3 68.3 142.8 71.75 181.3 75.75 226.85 86.95 267.9 88.7 272.1 89.65 276.65 90.55 281.35 90.55 286.45 90.55 305.95 76.8 319.75 67.6 328.95 55.9 331.95 50 333.5 43.5 333.5 24 333.5 10.2 319.7 3.6 313.1 0.2 305.25
L 0.15 305.2
Q -3.05 297.85 -3.5 289.3 -3.6 288.25 -3.6 287.2 -5.4 245.65 -3.65 205.6 -3.45 200.95 -3.4 196.45 -6.35 212.9 -7.2 231 -7.95 246.25 -7.2 262.65 -7 267.45 -5.65 280.55 -5.65 280.6 -5.65 280.65 -5.15 284.55 -5.2 288.3 -5.25 288.9 -5.25 289.55 -5.55 294.65 -7.1 300.3 -7.15 300.45 -7.2 300.6 -9.5 308.6 -15.1 315.9 -27 331.4 -46.3 333.95 -52.75 334.8 -58.75 333.6 -70.75 332 -81.1 324.1 -96.55 312.2 -99.05 292.9 -99.75 287.45 -99.35 282.35 -95.7 228.9 -78.2 183.7 -68.65 159 -65 132.4 -69.15 123.75 -70.6 114.45 -71.65 107.85 -70.4 99.4 -71.9 99.35 -73.3 99.25 -83.65 98.15 -91.2 90.6 -100.05 81.75 -100.05 69.3 -100.05 58.3 -93.15 50.15
L -51.5 -39.45
Q -47.55 -47.45 -45.8 -49.2 -43.9 -51.1 -41.7 -52.45 -70.65 -58.35 -93.05 -78.3 -114.85 -97.8 -123.95 -124.35 -142.85 -179.3 -138.35 -258 -137.2 -277.7 -135.3 -291.6 -135.05 -294.7 -134.45 -297.6 -131.1 -314.15 -117.7 -325.75 -101.5 -339.85 -80.05 -338.35 -58.6 -336.85 -44.5 -320.65 -40.75 -316.3 -38.1 -311.6 -35.45 -316.3 -31.7 -320.65 -17.6 -336.85 3.85 -338.35 25.3 -339.85 41.5 -325.75 57.8 -311.6 59.25 -290.15 60.4 -274 52.65 -260.8
L 52.3 -260.25
Q 49.9 -256.1 47.7 -251 50.55 -249.5 53.35 -247.8 57.25 -245.5 58.4 -241.1 59.55 -236.75 57.25 -232.8 54.9 -228.85 50.55 -227.7 46.15 -226.55 42.2 -228.85 41.2 -229.45 40.25 -229.95 40.15 -229.65 40.1 -229.35 50.75 -223.45 60.25 -214.95 82.95 -194.75 89.45 -168.6
M 40.25 -229.95
Q 6.05 -248.9 -38.9 -242.4 -39 -241.85 -39.05 -241.35 -30.35 -242.9 -21.1 -243.2 -18.8 -243.3 -16.4 -243.3 -11.75 -243.3 -7.2 -243 8.85 -241.9 23.15 -236.95 31.95 -233.9 40.1 -229.35
M 20.2 -55.35
Q 13.85 -53.35 7.2 -52.1 6.75 -52.05 6.3 -51.95
M 35.75 -37.45
Q 36.95 -34.75 37.85 -31.6 37.95 -31.25 38.05 -30.9 39.6 -29.65 41.1 -29.1 43.25 -28.3 45.7 -26.95
M 47.7 -251
Q 11.45 -270.1 -34.9 -265.1 -35.6 -261.45 -36.2 -258.25 -37.8 -250 -38.9 -242.4
M -38.1 -311.6
Q -30.85 -298.65 -31.9 -282.95 -32 -281.3 -32.2 -279.7 -32.25 -279.5 -32.25 -279.3 -32.65 -276.6 -33.25 -273.95 -34.1 -269.25 -34.9 -265.1
M -39.05 -241.35
Q -41.5 -224.2 -41.4 -210.8
M -41.7 -52.45
Q -38.25 -54.6 -34.15 -55.3 -33.9 -55.35 -33.65 -55.35 -32 -55.6 -30.3 -55.6 -24.5 -55.6 -19.75 -52.95
M 57.2 97.65
Q 60.2 74.65 48.5 44.25 47.75 42.35 47 40.4 45.4 36.45 43.55 32.45 43.5 26.95 43.45 21.85 40.65 22.45 37.65 22.45 29.6 22.45 23.4 18.1 13.3 25.4 5.25 25.4 -5.3 25.4 -12.75 16.9 -18.85 10 -19.95 0.7
M -18.85 -23.2
L -41.1 60.05
Q -39.75 64.4 -39.75 69.3 -39.75 73.6 -40.8 77.45 -42.8 84.8 -48.65 90.6 -49.75 91.7 -50.9 92.65 -55.6 96.55 -61.2 98.2 -65.3 99.4 -69.9 99.4 -70.15 99.4 -70.4 99.4
M 33.2 94.05
Q 28.35 108.1 19.95 117.25 11.85 125.55 5.8 126.1 5.75 126.1 5.65 126.1 5.4 135.4 4.6 144.9 2.7 166.6 -2.05 189.5 -2.75 192.9 -3.4 196.45
M 61.05 7.3
Q 59.15 11.45 55.65 14.95 50.3 20.3 43.45 21.85
M 54.6 109.3
Q 54.6 109.35 54.6 109.45 54.5525390625 109.3076171875 54.55 109.175 54.55390625 109.25390625 54.6 109.3 Z
M 3.05 93.05
Q 8.85 105.9 5.65 126.1"/>

<path id="Layer0_0_1_STROKES" stroke="#3D3F3E" stroke-width="2" stroke-linejoin="miter" stroke-linecap="square" stroke-miterlimit="3" fill="none" d="
M 90.15 -165.4
Q 92.05 -156.4 92.05 -146.65 92.05 -106.65 60.25 -78.3 42.3 -62.3 20.2 -55.35 28.4 -54.9 34.3 -49 36.25 -47.05 37.6 -44.8 37.7 -44.65 37.8 -44.5
L 45.7 -26.95
Q 49.05 -25.05 52.95 -22.1 59.55 -17.1 61.45 -12.3 63.1 -8 63.1 -3 63.1 2 61.45 6.3 61.25 6.8 61.05 7.3
L 76.8 42.45
Q 78 43.3 79.2 44.25 80.3 45.2 81.4 46.3 90.25 55.15 90.25 67.6 90.25 80.1 81.4 88.9 72.55 97.75 60.1 97.75 58.65 97.75 57.2 97.65 56.4 103.7 54.6 109.3 68.3 142.8 71.75 181.3 75.75 226.85 86.95 267.9 88.7 272.1 89.65 276.65 90.55 281.35 90.55 286.45 90.55 305.95 76.8 319.75 67.6 328.95 55.9 331.95 50 333.5 43.5 333.5 24 333.5 10.2 319.7 3.6 313.1 0.2 305.25
L 0.15 305.2
Q -3.05 297.85 -3.5 289.3 -3.6 288.25 -3.6 287.2 -5.4 245.65 -3.65 205.6 -3.45 200.95 -3.4 196.45 -6.35 212.9 -7.2 231 -7.95 246.25 -7.2 262.65 -7 267.45 -5.65 280.55 -5.65 280.6 -5.65 280.65 -5.15 284.55 -5.2 288.3 -5.25 288.9 -5.25 289.55 -5.55 294.65 -7.1 300.3 -7.15 300.45 -7.2 300.6 -9.5 308.6 -15.1 315.9 -27 331.4 -46.3 333.95 -52.75 334.8 -58.75 333.6 -70.75 332 -81.1 324.1 -96.55 312.2 -99.05 292.9 -99.75 287.45 -99.35 282.35 -95.7 228.9 -78.2 183.7 -68.65 159 -65 132.4 -69.15 123.75 -70.6 114.45 -71.65 107.85 -70.4 99.4 -71.9 99.35 -73.3 99.25 -83.65 98.15 -91.2 90.6 -100.05 81.75 -100.05 69.3 -100.05 58.3 -93.15 50.15
L -51.5 -39.45
Q -47.55 -47.45 -45.8 -49.2 -43.9 -51.1 -41.7 -52.45 -70.65 -58.35 -93.05 -78.3 -114.85 -97.8 -123.95 -124.35 -142.85 -179.3 -138.35 -258 -137.2 -277.7 -135.3 -291.6 -135.05 -294.7 -134.45 -297.6 -131.1 -314.15 -117.7 -325.75 -101.5 -339.85 -80.05 -338.35 -58.6 -336.85 -44.5 -320.65 -40.75 -316.3 -38.1 -311.6 -35.45 -316.3 -31.7 -320.65 -17.6 -336.85 3.85 -338.35 25.3 -339.85 41.5 -325.75 57.8 -311.6 59.25 -290.15 60.4 -274 52.65 -260.8
L 52.3 -260.25
Q 49.9 -256.1 47.7 -251 50.55 -249.5 53.35 -247.8 57.25 -245.5 58.4 -241.1 59.55 -236.75 57.25 -232.8 54.9 -228.85 50.55 -227.7 46.15 -226.55 42.2 -228.85 41.2 -229.45 40.25 -229.95 40.15 -229.65 40.1 -229.35 50.75 -223.45 60.25 -214.95 82.95 -194.75 89.45 -168.6
M -38.9 -242.4
Q -39 -241.85 -39.05 -241.35 -30.35 -242.9 -21.1 -243.2 -18.8 -243.3 -16.4 -243.3 -11.75 -243.3 -7.2 -243 8.85 -241.9 23.15 -236.95 31.95 -233.9 40.1 -229.35
M 20.2 -55.35
Q 13.85 -53.35 7.2 -52.1 6.75 -52.05 6.3 -51.95
M 35.75 -37.45
Q 36.95 -34.75 37.85 -31.6 37.95 -31.25 38.05 -30.9 39.6 -29.65 41.1 -29.1 43.25 -28.3 45.7 -26.95
M 47.7 -251
Q 11.45 -270.1 -34.9 -265.1 -35.6 -261.45 -36.2 -258.25 -37.8 -250 -38.9 -242.4 6.05 -248.9 40.25 -229.95
M -38.1 -311.6
Q -30.85 -298.65 -31.9 -282.95 -32 -281.3 -32.2 -279.7 -32.25 -279.5 -32.25 -279.3 -32.65 -276.6 -33.25 -273.95 -34.1 -269.25 -34.9 -265.1
M -39.05 -241.35
Q -39.75 -236.3 -40.25 -231.55
M -41.7 -52.45
Q -38.25 -54.6 -34.15 -55.3 -33.9 -55.35 -33.65 -55.35 -32 -55.6 -30.3 -55.6 -24.5 -55.6 -19.75 -52.95
M 57.2 97.65
Q 60.2 74.65 48.5 44.25 47.75 42.35 47 40.4 45.4 36.45 43.55 32.45 43.5 26.95 43.45 21.85 40.65 22.45 37.65 22.45 29.6 22.45 23.4 18.1 13.3 25.4 5.25 25.4 -5.3 25.4 -12.75 16.9 -18.85 10 -19.95 0.7
M -18.85 -23.2
L -41.1 60.05
Q -39.75 64.4 -39.75 69.3 -39.75 73.6 -40.8 77.45 -42.8 84.8 -48.65 90.6 -49.75 91.7 -50.9 92.65 -55.6 96.55 -61.2 98.2 -65.3 99.4 -69.9 99.4 -70.15 99.4 -70.4 99.4
M -6.95 91.85
Q 8.85 105.9 5.65 126.1 5.4 135.4 4.6 144.9 2.7 166.6 -2.05 189.5 -2.75 192.9 -3.4 196.45
M 61.05 7.3
Q 59.15 11.45 55.65 14.95 50.3 20.3 43.45 21.85
M 54.6 109.3
Q 54.6 109.35 54.6 109.45 54.5525390625 109.3076171875 54.55 109.175 54.55390625 109.25390625 54.6 109.3 Z
M 39.2 94.05
Q 34.35 108.1 25.95 117.25 17.85 125.55 11.8 126.1"/>
</defs>

<g transform="matrix( 0.46343994140625, 0, 0, 0.46343994140625, 109.05,177) ">
<g transform="matrix( 1, 0, 0, 1, 0,0) ">
<use xlink:href="#Layer2_0_FILL"/>

<use xlink:href="#Layer2_0_1_STROKES"/>
</g>

<g transform="matrix( 1, 0, 0, 1, 0,0) ">
<use xlink:href="#Layer1_0_FILL"/>

<use xlink:href="#Layer1_0_1_STROKES"/>
</g>

<g transform="matrix( 1, 0, 0, 1, 0,0) ">
<use xlink:href="#Layer0_0_FILL"/>

<use xlink:href="#Layer0_0_1_STROKES"/>
</g>

<g transform="matrix( 1, 0, 0, 1, -275,-400) ">
<use xlink:href="#Layer0_1_FILL"/>
</g>

<g transform="matrix( 1, 0, 0, 1, -275,-400) ">
<use xlink:href="#Layer0_2_FILL"/>
</g>
</g>
</svg>
