
<svg xmlns="http://www.w3.org/2000/svg" version="1.1" xmlns:xlink="http://www.w3.org/1999/xlink" preserveAspectRatio="none" x="0px" y="0px" width="200px" height="350px" viewBox="0 0 200 350">
<defs>
<radialGradient id="Gradient_1" gradientUnits="userSpaceOnUse" cx="0" cy="0" r="57.259056325178825" fx="0" fy="0" gradientTransform="matrix( -0.98543363480456, -0.17006043453982106, -0.05959755921613755, 0.22834815728966987, 258.6,262.6) " spreadMethod="pad">
<stop  offset="0%" stop-color="#FF3333"/>

<stop  offset="100%" stop-color="#FF3333" stop-opacity="0"/>
</radialGradient>

<radialGradient id="Gradient_2" gradientUnits="userSpaceOnUse" cx="0" cy="0" r="27.411932848670116" fx="0" fy="0" gradientTransform="matrix( -0.9854285047728952, -0.1700901583897686, -0.12448957973299417, 0.47698205274986044, 257.7,262.45) " spreadMethod="pad">
<stop  offset="0%" stop-color="#FF3333"/>

<stop  offset="100%" stop-color="#FF3333" stop-opacity="0"/>
</radialGradient>

<g id="Symbole_2_0_Layer2_0_FILL">
<path fill="#660000" stroke="none" d="
M -35.5 -263.6
Q -36.6 -263.55 -37.65 -263.5 -46.6 -263.15 -55.75 -261.35 -58.3 -249.3 -58.8 -238.1 -50 -240.4 -41.4 -241.2 -38.15 -241.5 -34.95 -241.6 -30.45 -241.7 -27.3 -245 -24.15 -248.35 -24.25 -252.85 -24.35 -257.4 -27.65 -260.55 -31 -263.7 -35.5 -263.6
M -35.3 -277.6
Q -34.7 -282.2 -34.85 -287.1 -35.75 -308.55 -51.55 -323.2 -66.9 -337.4 -87.6 -336.95 -77.25 -333.6 -68.55 -325.6 -52.75 -310.95 -51.85 -289.5 -51.7 -284.6 -52.3 -280 -52.3 -276.1 -53.3 -271.6 -54.35 -266.6 -55.05 -264.6 -55.35 -263.35 -55.6 -262.1 -55.7 -261.75 -55.75 -261.35 -46.6 -263.15 -37.65 -263.5 -37.05 -265.6 -36.3 -269.2 -35.3 -273.7 -35.3 -277.6
M 70.25 -104.35
Q 78.2 -119.6 79.6 -137.2 79.9 -141 79.9 -144.95 79.9 -184.95 48.15 -213.25 24.35 -234.5 -6.9 -239.8 -17.3 -241.6 -28.5 -241.6 -34.6 -241.6 -40.4 -241.05 -40.95 -241.05 -41.4 -240.95 -50.4 -240.1 -58.8 -238 -58.85 -237.2 -58.85 -236.45 -59.15 -228.65 -58.45 -221.25 -59.15 -228.65 -58.85 -236.45 -58.85 -237.2 -58.8 -238 -58.8 -238.05 -58.8 -238.1 -58.3 -249.3 -55.75 -261.35 -55.7 -261.75 -55.6 -262.1 -55.35 -263.35 -55.05 -264.6 -54.35 -266.6 -53.3 -271.6 -52.3 -276.1 -52.3 -280 -51.7 -284.6 -51.85 -289.5 -52.75 -310.95 -68.55 -325.6 -77.25 -333.6 -87.6 -336.95 -91 -338.05 -94.55 -338.65 -100 -339.6 -105.85 -339.35 -127.3 -338.5 -141.9 -322.7 -153.45 -310.15 -155.3 -294.15 -172.2 -183.4 -126.75 -103.35 -118.95 -88.9 -105.15 -76.6 -73.4 -48.3 -28.5 -48.3 -25.55 -48.3 -22.65 -48.4 -21.95 -48.45 -21.2 -48.5 -21.95 -48.45 -22.65 -48.4 -24.5 -46.3 -26.05 -43.5 -33.25 -30.7 -28.55 -10.5 -28.55 -10.4 -28.5 -10.25 -27.15 -1.55 -26 5.65
L -25.05 -24.05
Q -26.35 -26.85 -26.85 -30.15 -26.95 -30.85 -27 -31.5 -26.95 -30.85 -26.85 -30.15 -26.35 -26.85 -25.05 -24.05
L -26 5.65 -27.2 43.6 -28.6 48.7
Q -34 54.4 -35.85 61.55 -36.8 65.2 -36.8 69.3 -36.8 81.75 -27.9 90.6 -27.5 91 -27.1 91.4 -18.65 99.3 -6.9 99.4 -6.8 99.4 -6.65 99.4 1 99.4 7.25 96.15 9.85 94.75 12.2 92.85 13.45 91.8 14.65 90.6 15.65 89.6 16.55 88.6 17.95 86.9 19.1 85.1 23.5 78.1 23.5 69.3 23.5 59.7 18.25 52.25
L 14.5 -23.8
Q 16.8 -28.35 16.75 -33.5 16.8 -28.35 14.5 -23.8
L 18.25 52.25
Q 23.5 59.7 23.5 69.3 23.5 78.1 19.1 85.1 17.95 86.9 16.55 88.6 15.65 89.6 14.65 90.6 13.45 91.8 12.2 92.85 9.85 94.75 7.25 96.15 1 99.4 -6.65 99.4 -6.8 99.4 -6.9 99.4 -18.65 99.3 -27.1 91.4 -27.5 91 -27.9 90.6 -36.8 81.75 -36.8 69.3 -36.8 65.2 -35.85 61.55 -36.05 61.75 -36.3 61.95 -36.9 62.5 -37.5 63.1 -37.3 61.05 -37.3 58.9 -37.3 44.25 -47.65 33.9 -58 23.55 -72.6 23.55 -87.25 23.55 -97.6 33.9 -107.95 44.25 -107.95 58.9 -107.95 73.5 -97.6 83.85 -90.7 90.75 -81.9 93.1 -77.5 94.25 -72.6 94.25 -63.7 94.25 -56.35 90.4 -57 92 -57.55 93.65 -63.6 111.45 -47.15 128.05 -41.95 133.25 -36.6 135.9 -35.85 163.1 -46.75 197.8 -60.75 242.4 -48.45 295.5 -48.05 297.75 -47.45 299.95 -44.25 311 -35.5 319.8 -26.3 329 -14.6 332 -10.85 333 -6.9 333.35 -4.6 333.55 -2.2 333.55 17.3 333.55 31.1 319.75 37.7 313.15 41.15 305.3
L 41.15 305.25
Q 44.9 296.65 44.9 286.5 44.9 277.4 41.9 269.55 40.65 267 39.55 264.4 24.15 229 29.5 187.4 34.3 150.1 31.45 120.3
L 31.45 120.2
Q 30.25 105.4 22.65 92.8 30.25 105.4 31.45 120.2 31.7125 119.9375 31.95 119.65
L 32.05 119.6 32.1 119.45
Q 32.24921875 119.2884765625 32.4 119.1 33.35 117.85 34.35 116.15 39.15 108 45.5 90 54.5 64.25 52.3 42.8 51.25 32.15 49.1 22.2 49.2 22.2 49.35 22.25 63.2 23.8 71.65 12.9 80.1 2 74.8 -11.75 69.55 -25.5 51 -28.6 30.65 -29.6 15.85 -43.05 14.65 -44.1 12.95 -45.75 8.75 -50.05 3.95 -52.4 4.55 -52.6 5.2 -52.75 29.05 -59.55 48.15 -76.6 62.4 -89.3 70.25 -104.35 Z"/>
</g>

<g id="Symbole_2_0_Layer1_0_FILL">
<path fill="#660000" stroke="none" d="
M -35.5 -263.6
Q -36.6 -263.55 -37.65 -263.5 -46.6 -263.15 -55.75 -261.35 -58.3 -249.3 -58.8 -238.1 -50 -240.4 -41.4 -241.2 -38.15 -241.5 -34.95 -241.6 -30.45 -241.7 -27.3 -245 -24.15 -248.35 -24.25 -252.85 -24.35 -257.4 -27.65 -260.55 -31 -263.7 -35.5 -263.6
M -35.3 -277.6
Q -34.7 -282.2 -34.85 -287.1 -35.75 -308.55 -51.55 -323.2 -66.9 -337.4 -87.6 -336.95 -77.25 -333.6 -68.55 -325.6 -52.75 -310.95 -51.85 -289.5 -51.7 -284.6 -52.3 -280 -52.3 -276.1 -53.3 -271.6 -54.35 -266.6 -55.05 -264.6 -55.35 -263.35 -55.6 -262.1 -55.7 -261.75 -55.75 -261.35 -46.6 -263.15 -37.65 -263.5 -37.05 -265.6 -36.3 -269.2 -35.3 -273.7 -35.3 -277.6
M 70.25 -104.35
Q 78.2 -119.6 79.6 -137.2 79.9 -141 79.9 -144.95 79.9 -184.95 48.15 -213.25 24.35 -234.5 -6.9 -239.8 -17.3 -241.6 -28.5 -241.6 -34.6 -241.6 -40.4 -241.05 -40.95 -241.05 -41.4 -240.95 -50.4 -240.1 -58.8 -238 -58.85 -237.2 -58.85 -236.45 -59.15 -228.65 -58.45 -221.25 -59.15 -228.65 -58.85 -236.45 -58.85 -237.2 -58.8 -238 -58.8 -238.05 -58.8 -238.1 -58.3 -249.3 -55.75 -261.35 -55.7 -261.75 -55.6 -262.1 -55.35 -263.35 -55.05 -264.6 -54.35 -266.6 -53.3 -271.6 -52.3 -276.1 -52.3 -280 -51.7 -284.6 -51.85 -289.5 -52.75 -310.95 -68.55 -325.6 -77.25 -333.6 -87.6 -336.95 -91 -338.05 -94.55 -338.65 -100 -339.6 -105.85 -339.35 -127.3 -338.5 -141.9 -322.7 -153.45 -310.15 -155.3 -294.15 -172.2 -183.4 -126.75 -103.35 -118.95 -88.9 -105.15 -76.6 -73.4 -48.3 -28.5 -48.3 -25.55 -48.3 -22.65 -48.4 -21.95 -48.45 -21.2 -48.5 -21.95 -48.45 -22.65 -48.4 -24.5 -46.3 -26.05 -43.5 -33.25 -30.7 -28.55 -10.5 -28.55 -10.4 -28.5 -10.25 -27.15 -1.55 -26 5.65
L -25.05 -24.05
Q -26.35 -26.85 -26.85 -30.15 -26.95 -30.85 -27 -31.5 -26.95 -30.85 -26.85 -30.15 -26.35 -26.85 -25.05 -24.05
L -26 5.65 -27.2 43.6 -28.6 48.7
Q -34 54.4 -35.85 61.55 -36.8 65.2 -36.8 69.3 -36.8 81.75 -27.9 90.6 -27.5 91 -27.1 91.4 -18.65 99.3 -6.9 99.4 -6.8 99.4 -6.65 99.4 1 99.4 7.25 96.15 9.85 94.75 12.2 92.85 13.45 91.8 14.65 90.6 15.65 89.6 16.55 88.6 17.95 86.9 19.1 85.1 23.5 78.1 23.5 69.3 23.5 59.7 18.25 52.25
L 14.5 -23.8
Q 16.8 -28.35 16.75 -33.5 16.8 -28.35 14.5 -23.8
L 18.25 52.25
Q 23.5 59.7 23.5 69.3 23.5 78.1 19.1 85.1 17.95 86.9 16.55 88.6 15.65 89.6 14.65 90.6 13.45 91.8 12.2 92.85 9.85 94.75 7.25 96.15 1 99.4 -6.65 99.4 -6.8 99.4 -6.9 99.4 -18.65 99.3 -27.1 91.4 -27.5 91 -27.9 90.6 -36.8 81.75 -36.8 69.3 -36.8 65.2 -35.85 61.55 -36.05 61.75 -36.3 61.95 -36.9 62.5 -37.5 63.1 -37.3 61.05 -37.3 58.9 -37.3 44.25 -47.65 33.9 -58 23.55 -72.6 23.55 -87.25 23.55 -97.6 33.9 -107.95 44.25 -107.95 58.9 -107.95 73.5 -97.6 83.85 -90.7 90.75 -81.9 93.1 -77.5 94.25 -72.6 94.25 -63.7 94.25 -56.35 90.4 -57 92 -57.55 93.65 -63.6 111.45 -47.15 128.05 -41.95 133.25 -36.6 135.9 -35.85 163.1 -46.75 197.8 -60.75 242.4 -48.45 295.5 -48.05 297.75 -47.45 299.95 -44.25 311 -35.5 319.8 -26.3 329 -14.6 332 -10.85 333 -6.9 333.35 -4.6 333.55 -2.2 333.55 17.3 333.55 31.1 319.75 37.7 313.15 41.15 305.3
L 41.15 305.25
Q 44.9 296.65 44.9 286.5 44.9 277.4 41.9 269.55 40.65 267 39.55 264.4 24.15 229 29.5 187.4 34.3 150.1 31.45 120.3
L 31.45 120.2
Q 30.25 105.4 22.65 92.8 30.25 105.4 31.45 120.2 31.7125 119.9375 31.95 119.65
L 32.05 119.6 32.1 119.45
Q 32.24921875 119.2884765625 32.4 119.1 33.35 117.85 34.35 116.15 39.15 108 45.5 90 54.5 64.25 52.3 42.8 51.25 32.15 49.1 22.2 49.2 22.2 49.35 22.25 63.2 23.8 71.65 12.9 80.1 2 74.8 -11.75 69.55 -25.5 51 -28.6 30.65 -29.6 15.85 -43.05 14.65 -44.1 12.95 -45.75 8.75 -50.05 3.95 -52.4 4.55 -52.6 5.2 -52.75 29.05 -59.55 48.15 -76.6 62.4 -89.3 70.25 -104.35 Z"/>
</g>

<g id="Symbole_2_0_Layer0_0_FILL">
<path fill="#FF0000" stroke="none" d="
M -35.5 -263.6
Q -36.6 -263.55 -37.65 -263.5 -46.6 -263.15 -55.75 -261.35 -58.3 -249.3 -58.8 -238.1 -50 -240.4 -41.4 -241.2 -38.15 -241.5 -34.95 -241.6 -30.45 -241.7 -27.3 -245 -24.15 -248.35 -24.25 -252.85 -24.35 -257.4 -27.65 -260.55 -31 -263.7 -35.5 -263.6 Z"/>

<path fill="#FFB19C" stroke="none" d="
M -35.3 -277.6
Q -34.7 -282.2 -34.85 -287.1 -35.75 -308.55 -51.55 -323.2 -66.9 -337.4 -87.6 -336.95 -77.25 -333.6 -68.55 -325.6 -52.75 -310.95 -51.85 -289.5 -51.7 -284.6 -52.3 -280 -52.3 -276.1 -53.3 -271.6 -54.35 -266.6 -55.05 -264.6 -55.35 -263.35 -55.6 -262.1 -55.7 -261.75 -55.75 -261.35 -46.6 -263.15 -37.65 -263.5 -37.05 -265.6 -36.3 -269.2 -35.3 -273.7 -35.3 -277.6
M 70.25 -104.35
Q 78.2 -119.6 79.6 -137.2 79.9 -141 79.9 -144.95 79.9 -184.95 48.15 -213.25 24.35 -234.5 -6.9 -239.8 -17.3 -241.6 -28.5 -241.6 -34.6 -241.6 -40.4 -241.05 -40.95 -241.05 -41.4 -240.95 -50.4 -240.1 -58.8 -238 -58.85 -237.2 -58.85 -236.45 -59.15 -228.65 -58.45 -221.25 -59.15 -228.65 -58.85 -236.45 -58.85 -237.2 -58.8 -238 -58.8 -238.05 -58.8 -238.1 -58.3 -249.3 -55.75 -261.35 -55.7 -261.75 -55.6 -262.1 -55.35 -263.35 -55.05 -264.6 -54.35 -266.6 -53.3 -271.6 -52.3 -276.1 -52.3 -280 -51.7 -284.6 -51.85 -289.5 -52.75 -310.95 -68.55 -325.6 -77.25 -333.6 -87.6 -336.95 -91 -338.05 -94.55 -338.65 -100 -339.6 -105.85 -339.35 -127.3 -338.5 -141.9 -322.7 -153.45 -310.15 -155.3 -294.15 -172.2 -183.4 -126.75 -103.35 -118.95 -88.9 -105.15 -76.6 -73.4 -48.3 -28.5 -48.3 -25.55 -48.3 -22.65 -48.4 -21.95 -48.45 -21.2 -48.5 -21.95 -48.45 -22.65 -48.4 -24.5 -46.3 -26.05 -43.5 -33.25 -30.7 -28.55 -10.5 -28.55 -10.4 -28.5 -10.25 -27.15 -1.55 -26 5.65
L -25.05 -24.05
Q -26.35 -26.85 -26.85 -30.15 -26.95 -30.85 -27 -31.5 -26.95 -30.85 -26.85 -30.15 -26.35 -26.85 -25.05 -24.05
L -26 5.65 -27.2 43.6 -28.6 48.7
Q -34 54.4 -35.85 61.55 -36.8 65.2 -36.8 69.3 -36.8 81.75 -27.9 90.6 -27.5 91 -27.1 91.4 -18.65 99.3 -6.9 99.4 -6.8 99.4 -6.65 99.4 1 99.4 7.25 96.15 9.85 94.75 12.2 92.85 13.45 91.8 14.65 90.6 15.65 89.6 16.55 88.6 17.95 86.9 19.1 85.1 23.5 78.1 23.5 69.3 23.5 59.7 18.25 52.25
L 14.5 -23.8
Q 16.8 -28.35 16.75 -33.5 16.8 -28.35 14.5 -23.8
L 18.25 52.25
Q 23.5 59.7 23.5 69.3 23.5 78.1 19.1 85.1 17.95 86.9 16.55 88.6 15.65 89.6 14.65 90.6 13.45 91.8 12.2 92.85 9.85 94.75 7.25 96.15 1 99.4 -6.65 99.4 -6.8 99.4 -6.9 99.4 -18.65 99.3 -27.1 91.4 -27.5 91 -27.9 90.6 -36.8 81.75 -36.8 69.3 -36.8 65.2 -35.85 61.55 -36.05 61.75 -36.3 61.95 -36.9 62.5 -37.5 63.1 -37.3 61.05 -37.3 58.9 -37.3 44.25 -47.65 33.9 -58 23.55 -72.6 23.55 -87.25 23.55 -97.6 33.9 -107.95 44.25 -107.95 58.9 -107.95 73.5 -97.6 83.85 -90.7 90.75 -81.9 93.1 -77.5 94.25 -72.6 94.25 -63.7 94.25 -56.35 90.4 -57 92 -57.55 93.65 -63.6 111.45 -47.15 128.05 -41.95 133.25 -36.6 135.9 -35.85 163.1 -46.75 197.8 -60.75 242.4 -48.45 295.5 -48.05 297.75 -47.45 299.95 -44.25 311 -35.5 319.8 -26.3 329 -14.6 332 -10.85 333 -6.9 333.35 -4.6 333.55 -2.2 333.55 17.3 333.55 31.1 319.75 37.7 313.15 41.15 305.3
L 41.15 305.25
Q 44.9 296.65 44.9 286.5 44.9 277.4 41.9 269.55 40.65 267 39.55 264.4 24.15 229 29.5 187.4 34.3 150.1 31.45 120.3
L 31.45 120.2
Q 30.25 105.4 22.65 92.8 30.25 105.4 31.45 120.2 31.7125 119.9375 31.95 119.65
L 32.05 119.6 32.1 119.45
Q 32.24921875 119.2884765625 32.4 119.1 33.35 117.85 34.35 116.15 39.15 108 45.5 90 54.5 64.25 52.3 42.8 51.25 32.15 49.1 22.2 49.2 22.2 49.35 22.25 63.2 23.8 71.65 12.9 80.1 2 74.8 -11.75 69.55 -25.5 51 -28.6 30.65 -29.6 15.85 -43.05 14.65 -44.1 12.95 -45.75 8.75 -50.05 3.95 -52.4 4.55 -52.6 5.2 -52.75 29.05 -59.55 48.15 -76.6 62.4 -89.3 70.25 -104.35 Z"/>
</g>

<g id="Symbole_2_0_Layer0_1_FILL">
<path fill="#3D3F3E" stroke="none" d="
M 70.1 -104
Q 61.45 -110.45 54.35 -115.05 50 -117.7 49.7 -121.6 47 -121.7 47.5 -118.45 48.6 -113.95 52.25 -111.5 59.4 -106.75 70.1 -104
M 68.95 -140.4
Q 73.6 -138.75 71.35 -142.7 25.65 -186.9 -9.25 -163.4 -20.4 -167.25 -32.7 -173.4 -19 -158.8 0.5 -152.35 24.6 -177.75 68.95 -140.4 Z"/>
</g>

<g id="Symbole_2_0_Layer0_1_MEMBER_0_FILL">
<path fill="url(#Gradient_1)" stroke="none" d="
M 300 282.65
Q 320.6 281.15 322.4 274.3 324.15 267.45 306.1 259.25 288.15 251.15 260.95 246.4
L 252.35 279.5
Q 279.5 284.15 300 282.65 Z"/>

<path fill="url(#Gradient_2)" stroke="none" d="
M 260.95 246.4
Q 260.85 246.4 260.7 246.35 247.55 244.1 237.05 247.35 226.5 250.6 224.75 257.45 222.95 264.3 230.95 270.75 238.95 277.2 252.1 279.45 252.2 279.5 252.35 279.5
L 260.95 246.4 Z"/>
</g>

<path id="Symbole_2_0_Layer2_0_1_STROKES" stroke="#3C3F3E" stroke-width="15" stroke-linejoin="round" stroke-linecap="round" fill="none" d="
M 31.45 120.2
Q 31.7125 119.9375 31.975 119.675
L 32.05 119.6 32.125 119.475
Q 32.24921875 119.2884765625 32.4 119.1 33.35 117.85 34.35 116.15 39.15 108 45.5 90 54.5 64.25 52.3 42.8 51.25 32.15 49.1 22.2 49.2 22.2 49.35 22.25 63.2 23.8 71.65 12.9 80.1 2 74.8 -11.75 69.55 -25.5 51 -28.6 30.65 -29.6 15.85 -43.05 14.65 -44.1 12.95 -45.75 8.75 -50.05 3.95 -52.4 4.55 -52.6 5.2 -52.75 29.05 -59.55 48.15 -76.6 62.4 -89.3 70.25 -104.35 78.2 -119.6 79.6 -137.2 79.9 -141 79.9 -144.95 79.9 -184.95 48.15 -213.25 24.35 -234.5 -6.9 -239.8 -17.3 -241.6 -28.5 -241.6 -34.6 -241.6 -40.4 -241.05 -40.95 -241.05 -41.4 -240.95 -50.4 -240.1 -58.8 -238 -58.85 -237.2 -58.85 -236.45 -59.15 -228.65 -58.45 -221.25
M 70.25 -104.35
L 70.9 -104.35
M 16.75 -33.5
Q 16.8 -28.35 14.5 -23.8
L 18.25 52.25
Q 23.5 59.7 23.5 69.3 23.5 78.1 19.1 85.1 17.95 86.9 16.55 88.6 15.65 89.6 14.65 90.6 13.45 91.8 12.2 92.85 9.85 94.75 7.25 96.15 1 99.4 -6.65 99.4 -6.8 99.4 -6.9 99.4 -18.65 99.3 -27.1 91.4 -27.5 91 -27.9 90.6 -36.8 81.75 -36.8 69.3 -36.8 65.2 -35.85 61.55 -36.05 61.75 -36.3 61.95 -36.9 62.5 -37.5 63.1 -37.3 61.05 -37.3 58.9 -37.3 44.25 -47.65 33.9 -58 23.55 -72.6 23.55 -87.25 23.55 -97.6 33.9 -107.95 44.25 -107.95 58.9 -107.95 73.5 -97.6 83.85 -90.7 90.75 -81.9 93.1 -77.5 94.25 -72.6 94.25 -63.7 94.25 -56.35 90.4 -57 92 -57.55 93.65 -63.6 111.45 -47.15 128.05 -41.95 133.25 -36.6 135.9 -35.85 163.1 -46.75 197.8 -60.75 242.4 -48.45 295.5 -48.05 297.75 -47.45 299.95 -44.25 311 -35.5 319.8 -26.3 329 -14.6 332 -10.85 333 -6.9 333.35 -4.6 333.55 -2.2 333.55 17.3 333.55 31.1 319.75 37.7 313.15 41.15 305.3
L 41.15 305.25
Q 44.9 296.65 44.9 286.5 44.9 277.4 41.9 269.55 40.65 267 39.55 264.4 24.15 229 29.5 187.4 34.3 150.1 31.45 120.3
L 31.45 120.2
Q 30.25 105.4 22.65 92.8
M 34.35 116.15
Q 33.55 117.7 32.4 119.15 32.25 119.3 32.125 119.475
M 31.975 119.675
Q 31.673046875 119.987890625 31.45 120.3
M 32.4 119.15
L 32.4 119.1
M -35.85 61.55
Q -34 54.4 -28.6 48.7
L -27.2 43.6 -26 5.65
Q -27.15 -1.55 -28.5 -10.25 -28.55 -10.4 -28.55 -10.5 -33.25 -30.7 -26.05 -43.5 -24.5 -46.3 -22.65 -48.4 -25.55 -48.3 -28.5 -48.3 -73.4 -48.3 -105.15 -76.6 -118.95 -88.9 -126.75 -103.35 -172.2 -183.4 -155.3 -294.15 -153.45 -310.15 -141.9 -322.7 -127.3 -338.5 -105.85 -339.35 -100 -339.6 -94.55 -338.65 -91 -338.05 -87.6 -336.95 -66.9 -337.4 -51.55 -323.2 -35.75 -308.55 -34.85 -287.1 -34.7 -282.2 -35.3 -277.6 -35.3 -273.7 -36.3 -269.2 -37.05 -265.6 -37.65 -263.5 -36.6 -263.55 -35.5 -263.6 -31 -263.7 -27.65 -260.55 -24.35 -257.4 -24.25 -252.85 -24.15 -248.35 -27.3 -245 -30.45 -241.7 -34.95 -241.6 -38.15 -241.5 -41.4 -241.2 -41.4 -241.1 -41.4 -240.95
M -87.6 -336.95
Q -77.25 -333.6 -68.55 -325.6 -52.75 -310.95 -51.85 -289.5 -51.7 -284.6 -52.3 -280 -52.3 -276.1 -53.3 -271.6 -54.35 -266.6 -55.05 -264.6 -55.35 -263.35 -55.6 -262.1 -55.7 -261.75 -55.75 -261.35 -46.6 -263.15 -37.65 -263.5
M -41.4 -241.2
Q -50 -240.4 -58.8 -238.1 -58.8 -238.05 -58.8 -238
M -55.75 -261.35
Q -58.3 -249.3 -58.8 -238.1
M -26 5.65
L -25.05 -24.05
Q -26.35 -26.85 -26.85 -30.15 -26.95 -30.85 -27 -31.5
M -22.65 -48.4
Q -21.95 -48.45 -21.2 -48.5"/>

<path id="Symbole_2_0_Layer1_0_1_STROKES" stroke="#3C3F3E" stroke-width="15" stroke-linejoin="round" stroke-linecap="round" fill="none" d="
M 70.25 -104.35
L 70.9 -104.35
M 31.45 120.2
Q 31.7125 119.9375 31.975 119.675
L 32.05 119.6 32.125 119.475
Q 32.24921875 119.2884765625 32.4 119.1 33.35 117.85 34.35 116.15 39.15 108 45.5 90 54.5 64.25 52.3 42.8 51.25 32.15 49.1 22.2 49.2 22.2 49.35 22.25 63.2 23.8 71.65 12.9 80.1 2 74.8 -11.75 69.55 -25.5 51 -28.6 30.65 -29.6 15.85 -43.05 14.65 -44.1 12.95 -45.75 8.75 -50.05 3.95 -52.4 4.55 -52.6 5.2 -52.75 29.05 -59.55 48.15 -76.6 62.4 -89.3 70.25 -104.35 78.2 -119.6 79.6 -137.2 79.9 -141 79.9 -144.95 79.9 -184.95 48.15 -213.25 24.35 -234.5 -6.9 -239.8 -17.3 -241.6 -28.5 -241.6 -34.6 -241.6 -40.4 -241.05 -40.95 -241.05 -41.4 -240.95 -50.4 -240.1 -58.8 -238 -58.85 -237.2 -58.85 -236.45 -59.15 -228.65 -58.45 -221.25
M 16.75 -33.5
Q 16.8 -28.35 14.5 -23.8
L 18.25 52.25
Q 23.5 59.7 23.5 69.3 23.5 78.1 19.1 85.1 17.95 86.9 16.55 88.6 15.65 89.6 14.65 90.6 13.45 91.8 12.2 92.85 9.85 94.75 7.25 96.15 1 99.4 -6.65 99.4 -6.8 99.4 -6.9 99.4 -18.65 99.3 -27.1 91.4 -27.5 91 -27.9 90.6 -36.8 81.75 -36.8 69.3 -36.8 65.2 -35.85 61.55 -36.05 61.75 -36.3 61.95 -36.9 62.5 -37.5 63.1 -37.3 61.05 -37.3 58.9 -37.3 44.25 -47.65 33.9 -58 23.55 -72.6 23.55 -87.25 23.55 -97.6 33.9 -107.95 44.25 -107.95 58.9 -107.95 73.5 -97.6 83.85 -90.7 90.75 -81.9 93.1 -77.5 94.25 -72.6 94.25 -63.7 94.25 -56.35 90.4 -57 92 -57.55 93.65 -63.6 111.45 -47.15 128.05 -41.95 133.25 -36.6 135.9 -35.85 163.1 -46.75 197.8 -60.75 242.4 -48.45 295.5 -48.05 297.75 -47.45 299.95 -44.25 311 -35.5 319.8 -26.3 329 -14.6 332 -10.85 333 -6.9 333.35 -4.6 333.55 -2.2 333.55 17.3 333.55 31.1 319.75 37.7 313.15 41.15 305.3
L 41.15 305.25
Q 44.9 296.65 44.9 286.5 44.9 277.4 41.9 269.55 40.65 267 39.55 264.4 24.15 229 29.5 187.4 34.3 150.1 31.45 120.3
L 31.45 120.2
Q 30.25 105.4 22.65 92.8
M 34.35 116.15
Q 33.55 117.7 32.4 119.15 32.25 119.3 32.125 119.475
M 31.975 119.675
Q 31.673046875 119.987890625 31.45 120.3
M 32.4 119.15
L 32.4 119.1
M -35.85 61.55
Q -34 54.4 -28.6 48.7
L -27.2 43.6 -26 5.65
Q -27.15 -1.55 -28.5 -10.25 -28.55 -10.4 -28.55 -10.5 -33.25 -30.7 -26.05 -43.5 -24.5 -46.3 -22.65 -48.4 -25.55 -48.3 -28.5 -48.3 -73.4 -48.3 -105.15 -76.6 -118.95 -88.9 -126.75 -103.35 -172.2 -183.4 -155.3 -294.15 -153.45 -310.15 -141.9 -322.7 -127.3 -338.5 -105.85 -339.35 -100 -339.6 -94.55 -338.65 -91 -338.05 -87.6 -336.95 -66.9 -337.4 -51.55 -323.2 -35.75 -308.55 -34.85 -287.1 -34.7 -282.2 -35.3 -277.6 -35.3 -273.7 -36.3 -269.2 -37.05 -265.6 -37.65 -263.5 -36.6 -263.55 -35.5 -263.6 -31 -263.7 -27.65 -260.55 -24.35 -257.4 -24.25 -252.85 -24.15 -248.35 -27.3 -245 -30.45 -241.7 -34.95 -241.6 -38.15 -241.5 -41.4 -241.2 -41.4 -241.1 -41.4 -240.95
M -87.6 -336.95
Q -77.25 -333.6 -68.55 -325.6 -52.75 -310.95 -51.85 -289.5 -51.7 -284.6 -52.3 -280 -52.3 -276.1 -53.3 -271.6 -54.35 -266.6 -55.05 -264.6 -55.35 -263.35 -55.6 -262.1 -55.7 -261.75 -55.75 -261.35 -46.6 -263.15 -37.65 -263.5
M -41.4 -241.2
Q -50 -240.4 -58.8 -238.1 -58.8 -238.05 -58.8 -238
M -55.75 -261.35
Q -58.3 -249.3 -58.8 -238.1
M -22.65 -48.4
Q -21.95 -48.45 -21.2 -48.5
M -26 5.65
L -25.05 -24.05
Q -26.35 -26.85 -26.85 -30.15 -26.95 -30.85 -27 -31.5"/>

<path id="Symbole_2_0_Layer0_0_1_STROKES" stroke="#3D3F3E" stroke-width="2" stroke-linejoin="miter" stroke-linecap="square" stroke-miterlimit="3" fill="none" d="
M 70.25 -104.35
L 70.9 -104.35
M 31.45 120.2
Q 31.7125 119.9375 31.975 119.675
L 32.05 119.6 32.125 119.475
Q 32.24921875 119.2884765625 32.4 119.1 33.35 117.85 34.35 116.15 39.15 108 45.5 90 54.5 64.25 52.3 42.8 51.25 32.15 49.1 22.2 49.2 22.2 49.35 22.25 63.2 23.8 71.65 12.9 80.1 2 74.8 -11.75 69.55 -25.5 51 -28.6 30.65 -29.6 15.85 -43.05 14.65 -44.1 12.95 -45.75 8.75 -50.05 3.95 -52.4 4.55 -52.6 5.2 -52.75 29.05 -59.55 48.15 -76.6 62.4 -89.3 70.25 -104.35 78.2 -119.6 79.6 -137.2 79.9 -141 79.9 -144.95 79.9 -184.95 48.15 -213.25 24.35 -234.5 -6.9 -239.8 -17.3 -241.6 -28.5 -241.6 -34.6 -241.6 -40.4 -241.05 -40.95 -241.05 -41.4 -240.95 -50.4 -240.1 -58.8 -238 -58.85 -237.2 -58.85 -236.45 -59.15 -228.65 -58.45 -221.25
M 16.75 -33.5
Q 16.8 -28.35 14.5 -23.8
L 18.25 52.25
Q 23.5 59.7 23.5 69.3 23.5 78.1 19.1 85.1 17.95 86.9 16.55 88.6 15.65 89.6 14.65 90.6 13.45 91.8 12.2 92.85 9.85 94.75 7.25 96.15 1 99.4 -6.65 99.4 -6.8 99.4 -6.9 99.4 -18.65 99.3 -27.1 91.4 -27.5 91 -27.9 90.6 -36.8 81.75 -36.8 69.3 -36.8 65.2 -35.85 61.55 -36.05 61.75 -36.3 61.95 -36.9 62.5 -37.5 63.1 -37.3 61.05 -37.3 58.9 -37.3 44.25 -47.65 33.9 -58 23.55 -72.6 23.55 -87.25 23.55 -97.6 33.9 -107.95 44.25 -107.95 58.9 -107.95 73.5 -97.6 83.85 -90.7 90.75 -81.9 93.1 -77.5 94.25 -72.6 94.25 -63.7 94.25 -56.35 90.4 -57 92 -57.55 93.65 -63.6 111.45 -47.15 128.05 -41.95 133.25 -36.6 135.9 -35.85 163.1 -46.75 197.8 -60.75 242.4 -48.45 295.5 -48.05 297.75 -47.45 299.95 -44.25 311 -35.5 319.8 -26.3 329 -14.6 332 -10.85 333 -6.9 333.35 -4.6 333.55 -2.2 333.55 17.3 333.55 31.1 319.75 37.7 313.15 41.15 305.3
L 41.15 305.25
Q 44.9 296.65 44.9 286.5 44.9 277.4 41.9 269.55 40.65 267 39.55 264.4 24.15 229 29.5 187.4 34.3 150.1 31.45 120.3
L 31.45 120.2
Q 30.25 105.4 22.65 92.8
M 34.35 116.15
Q 33.55 117.7 32.4 119.15 32.25 119.3 32.125 119.475
M 31.975 119.675
Q 31.673046875 119.987890625 31.45 120.3
M 32.4 119.15
L 32.4 119.1
M -35.85 61.55
Q -34 54.4 -28.6 48.7
L -27.2 43.6 -26 5.65
Q -27.15 -1.55 -28.5 -10.25 -28.55 -10.4 -28.55 -10.5 -33.25 -30.7 -26.05 -43.5 -24.5 -46.3 -22.65 -48.4 -25.55 -48.3 -28.5 -48.3 -73.4 -48.3 -105.15 -76.6 -118.95 -88.9 -126.75 -103.35 -172.2 -183.4 -155.3 -294.15 -153.45 -310.15 -141.9 -322.7 -127.3 -338.5 -105.85 -339.35 -100 -339.6 -94.55 -338.65 -91 -338.05 -87.6 -336.95 -66.9 -337.4 -51.55 -323.2 -35.75 -308.55 -34.85 -287.1 -34.7 -282.2 -35.3 -277.6 -35.3 -273.7 -36.3 -269.2 -37.05 -265.6 -37.65 -263.5 -36.6 -263.55 -35.5 -263.6 -31 -263.7 -27.65 -260.55 -24.35 -257.4 -24.25 -252.85 -24.15 -248.35 -27.3 -245 -30.45 -241.7 -34.95 -241.6 -38.15 -241.5 -41.4 -241.2 -41.4 -241.1 -41.4 -240.95
M -87.6 -336.95
Q -77.25 -333.6 -68.55 -325.6 -52.75 -310.95 -51.85 -289.5 -51.7 -284.6 -52.3 -280 -52.3 -276.1 -53.3 -271.6 -54.35 -266.6 -55.05 -264.6 -55.35 -263.35 -55.6 -262.1 -55.7 -261.75 -55.75 -261.35 -46.6 -263.15 -37.65 -263.5
M -58.8 -238
Q -58.8 -238.05 -58.8 -238.1 -50 -240.4 -41.4 -241.2
M -55.75 -261.35
Q -58.3 -249.3 -58.8 -238.1
M -22.65 -48.4
Q -21.95 -48.45 -21.2 -48.5
M -26 5.65
L -25.05 -24.05
Q -26.35 -26.85 -26.85 -30.15 -26.95 -30.85 -27 -31.5"/>
</defs>

<g transform="matrix( 0.46343994140625, 0, 0, 0.46343994140625, 109.05,177) ">
<g transform="matrix( 1, 0, 0, 1, 0,0) ">
<use xlink:href="#Symbole_2_0_Layer2_0_FILL"/>

<use xlink:href="#Symbole_2_0_Layer2_0_1_STROKES"/>
</g>

<g transform="matrix( 1, 0, 0, 1, 0,0) ">
<use xlink:href="#Symbole_2_0_Layer1_0_FILL"/>

<use xlink:href="#Symbole_2_0_Layer1_0_1_STROKES"/>
</g>

<g transform="matrix( 1, 0, 0, 1, 0,0) ">
<use xlink:href="#Symbole_2_0_Layer0_0_FILL"/>

<use xlink:href="#Symbole_2_0_Layer0_0_1_STROKES"/>
</g>

<g transform="matrix( 1, 0, 0, 1, 0,0) ">
<use xlink:href="#Symbole_2_0_Layer0_1_FILL"/>
</g>

<g transform="matrix( 1, 0, 0, 1, -275,-400) ">
<use xlink:href="#Symbole_2_0_Layer0_1_MEMBER_0_FILL"/>
</g>
</g>
</svg>
