
<svg xmlns="http://www.w3.org/2000/svg" version="1.1" xmlns:xlink="http://www.w3.org/1999/xlink" preserveAspectRatio="none" x="0px" y="0px" width="200px" height="350px" viewBox="0 0 200 350">
<defs>
<g id="Symbole_2_0_Layer2_0_FILL">
<path fill="#660000" stroke="none" d="
M -31.6 24.5
Q -34.85 23.75 -38.35 23.6 -39.2 23.55 -40.05 23.55 -54.65 23.55 -65 33.9 -67.5 36.4 -69.4 39.15 -75.35 47.8 -75.35 58.9 -75.35 66.5 -72.5 73.05 -70.75 77.05 -67.85 80.7 -66.55 82.35 -65 83.9 -61.25 87.65 -56.9 90.1 -54 91.65 -50.9 92.65 -45.8 94.25 -40.05 94.25 -35.15 94.25 -30.75 93.1 -21.95 90.75 -15.05 83.85 -13.05 81.85 -11.4 79.7 -8.8 76.2 -7.2 72.25 -6.95 71.65 -6.75 71.1 -4.7 65.4 -4.7 58.9 -4.7 52.2 -6.85 46.45 -7 46 -7.2 45.55 -9.8 39.15 -15.05 33.9 -22.3 26.65 -31.6 24.5
M -149.85 -208.4
Q -147.1 -204.8 -142.55 -204.25 -140.3 -203.95 -138.25 -204.5 -136.25 -205.05 -134.45 -206.45 -101.35 -231.95 -54.4 -240.25 -53 -252.25 -51.15 -263.1 -102.25 -255.55 -139.1 -230.25 -143.65 -227.2 -147.9 -223.85 -151.55 -221.05 -152.1 -216.5 -152.65 -212 -149.85 -208.4
M -43.4 -297.2
Q -43.05 -299 -42.6 -300.7 -41.05 -306.4 -38.1 -311.6 -40.75 -316.3 -44.5 -320.65 -58.6 -336.85 -80.05 -338.35 -101.5 -339.85 -117.7 -325.75 -131.05 -314.15 -134.55 -298 -134.8 -297.05 -134.95 -296 -135.45 -293.45 -135.65 -290.75 -135.65 -290.6 -135.65 -290.5 -137.25 -276.75 -138.35 -258 -139.15 -243.75 -139.1 -230.25 -102.25 -255.55 -51.15 -263.1 -47.95 -281.85 -43.4 -297.2
M 52.95 -22.1
Q 49.05 -25.05 45.7 -26.95
L 61.05 7.3
Q 61.25 6.8 61.45 6.3 63.1 2 63.1 -3 63.1 -8 61.45 -12.3 59.55 -17.1 52.95 -22.1
M 41.5 -325.75
Q 25.3 -339.85 3.85 -338.35 -17.6 -336.85 -31.7 -320.65 -35.45 -316.3 -38.1 -311.6 -41.05 -306.4 -42.6 -300.7 -43.05 -299 -43.4 -297.2 -47.95 -281.85 -51.15 -263.1 -53 -252.25 -54.4 -240.25 -54.55 -238.85 -54.7 -237.35 -56.6 -220.4 -57.6 -201.2 -56.6 -220.4 -54.7 -237.35 -75.8 -230.35 -93.05 -214.95 -98.75 -209.85 -103.45 -204.35 -98.75 -209.85 -93.05 -214.95 -75.8 -230.35 -54.7 -237.35 -54.55 -238.85 -54.4 -240.25 -101.35 -231.95 -134.45 -206.45 -136.25 -205.05 -138.25 -204.5 -135.3 -159.05 -121.7 -122.75 -114.85 -97.8 -93.05 -78.3 -70.65 -58.35 -41.7 -52.45 -41.25 -52.35 -40.75 -52.25 -39.55 -52 -38.3 -51.8 -37.75 -51.7 -37.15 -51.6 -30.7 -50.55 -23.95 -50.2 -30.7 -50.55 -37.15 -51.6 -46.5 -52.7 -52.1 -40.35
L -93.15 50.15
Q -100.05 58.3 -100.05 69.3 -100.05 81.75 -91.2 90.6 -83.65 98.15 -73.3 99.25 -72.65 94.55 -71.3 89.25 -70.3 85.45 -67.85 80.7 -70.75 77.05 -72.5 73.05 -75.35 66.5 -75.35 58.9 -75.35 47.8 -69.4 39.15 -67.5 36.4 -65 33.9 -54.65 23.55 -40.05 23.55 -39.2 23.55 -38.35 23.6
L -48.6 -28.85
Q -48.65 -29.15 -48.7 -29.45 -48.65 -29.15 -48.6 -28.85
L -38.35 23.6
Q -34.85 23.75 -31.6 24.5 -22.3 26.65 -15.05 33.9 -9.8 39.15 -7.2 45.55 -7 46 -6.85 46.45 -4.7 52.2 -4.7 58.9 -4.7 65.4 -6.75 71.1 -6.95 71.65 -7.2 72.25 -8.8 76.2 -11.4 79.7 -13.05 81.85 -15.05 83.85 -21.95 90.75 -30.75 93.1 -35.15 94.25 -40.05 94.25 -45.8 94.25 -50.9 92.65 -54 91.65 -56.9 90.1 -61.25 87.65 -65 83.9 -66.55 82.35 -67.85 80.7 -70.3 85.45 -71.3 89.25 -72.65 94.55 -73.3 99.25 -74.55 107.8 -73.5 114.45 -72.05 123.75 -65 132.4 -68.6 158.95 -78.2 183.7 -95.7 228.9 -99.1 280.05 -99.25 281.2 -99.35 282.35 -99.75 287.45 -99.05 292.9 -96.55 312.2 -81.1 324.1 -70.75 332 -58.75 333.6 -52.75 334.8 -46.3 333.95 -27 331.4 -15.1 315.9 -9.65 308.8 -7.3 300.25 -7.25 300 -7.2 299.75 -5.55 294.8 -5.25 289.55 -5.25 288.9 -5.2 288.3 -5.15 284.55 -5.65 280.65 -5.9 278.65 -6.3 276.7 -6.9 269.55 -7.2 262.65 -7.95 246.25 -7.2 231 -6.35 212.9 -3.4 196.45 -3.05 171.55 -7.2 151.35 -8.4 145.4 -10 139.9 -10.65 137.6 -11.4 135.35 -24.1 139.9 -34.6 140.35 -24.1 139.9 -11.4 135.35 -24.45 128.2 -24.7 109.9 -24.45 128.2 -11.4 135.35 -2.2 139.65 10.7 138.8 -2.2 139.65 -11.4 135.35 -10.65 137.6 -10 139.9 -8.4 145.4 -7.2 151.35 -3.05 171.55 -3.4 196.45 -3.45 200.95 -3.65 205.6 -5.25 241.85 -3.6 285.75 -3.6 286.1 -3.6 286.45 -3.6 286.8 -3.6 287.2 -3.6 288.25 -3.5 289.3 -3.05 297.85 0.15 305.2
L 0.2 305.25
Q 3.6 313.1 10.2 319.7 24 333.5 43.5 333.5 50 333.5 55.9 331.95 67.6 328.95 76.8 319.75 90.55 305.95 90.55 286.45 90.55 281.35 89.65 276.65 88.1 272.35 86.95 267.9 75.75 226.85 71.75 181.3 68.3 142.8 54.6 109.3 54.6 109.35 54.6 109.45 54.5525390625 109.3076171875 54.55 109.15 54.55390625 109.25390625 54.6 109.3 56.4 103.7 57.2 97.65 53.5 97.3 50.15 96.15 43.85 93.95 38.8 88.9 35.35 85.45 33.25 81.45 29.95 75.2 29.95 67.6 29.95 63.4 30.95 59.65
L 5.25 -23.05 30.95 59.65
Q 29.95 63.4 29.95 67.6 29.95 75.2 33.25 81.45 35.35 85.45 38.8 88.9 43.85 93.95 50.15 96.15 53.5 97.3 57.2 97.65 58.65 97.75 60.1 97.75 72.55 97.75 81.4 88.9 90.25 80.1 90.25 67.6 90.25 55.15 81.4 46.3 79.2 44.1 76.8 42.45
L 61.05 7.3 45.7 -26.95 37.8 -44.5
Q 37.7 -44.65 37.6 -44.8 36.25 -47.05 34.3 -49 28.4 -54.9 20.2 -55.35 13.85 -53.35 7.2 -52.1 6.4 -52 5.65 -51.85 6.4 -52 7.2 -52.1 13.85 -53.35 20.2 -55.35 42.3 -62.3 60.25 -78.3 92.05 -106.65 92.05 -146.65 92.05 -156.65 90.05 -165.95 84.1 -193.75 60.25 -214.95 52.2 -222.15 43.35 -227.5 39.35 -210.1 36.5 -189 39.35 -210.1 43.35 -227.5 48.4 -249.65 55.2 -265.75 55.5 -266.55 55.85 -267.35 60.1 -277.9 59.25 -290.15 57.8 -311.6 41.5 -325.75 Z"/>
</g>

<g id="Symbole_2_0_Layer1_0_FILL">
<path fill="#660000" stroke="none" d="
M -38.35 23.6
Q -39.2 23.55 -40.05 23.55 -54.65 23.55 -65 33.9 -67.5 36.4 -69.4 39.15 -75.35 47.8 -75.35 58.9 -75.35 66.5 -72.5 73.05 -70.75 77.05 -67.85 80.7 -66.55 82.35 -65 83.9 -61.25 87.65 -56.9 90.1 -54 91.65 -50.9 92.65 -45.8 94.25 -40.05 94.25 -35.15 94.25 -30.75 93.1 -21.95 90.75 -15.05 83.85 -13.05 81.85 -11.4 79.7 -8.8 76.2 -7.2 72.25 -6.95 71.65 -6.75 71.1 -4.7 65.4 -4.7 58.9 -4.7 52.2 -6.85 46.45 -7 46 -7.2 45.55 -9.8 39.15 -15.05 33.9 -22.3 26.65 -31.6 24.5 -34.85 23.75 -38.35 23.6
M -149.85 -208.4
Q -147.1 -204.8 -142.55 -204.25 -140.3 -203.95 -138.25 -204.5 -136.25 -205.05 -134.45 -206.45 -101.35 -231.95 -54.4 -240.25 -53 -252.25 -51.15 -263.1 -102.25 -255.55 -139.1 -230.25 -143.65 -227.2 -147.9 -223.85 -151.55 -221.05 -152.1 -216.5 -152.65 -212 -149.85 -208.4
M -44.5 -320.65
Q -58.6 -336.85 -80.05 -338.35 -101.5 -339.85 -117.7 -325.75 -131.05 -314.15 -134.55 -298 -134.8 -297.05 -134.95 -296 -135.45 -293.45 -135.65 -290.75 -135.65 -290.6 -135.65 -290.5 -137.25 -276.75 -138.35 -258 -139.15 -243.75 -139.1 -230.25 -102.25 -255.55 -51.15 -263.1 -47.95 -281.85 -43.4 -297.2 -43.05 -299 -42.6 -300.7 -41.05 -306.4 -38.1 -311.6 -40.75 -316.3 -44.5 -320.65
M 52.95 -22.1
Q 49.05 -25.05 45.7 -26.95
L 61.05 7.3
Q 61.25 6.8 61.45 6.3 63.1 2 63.1 -3 63.1 -8 61.45 -12.3 59.55 -17.1 52.95 -22.1
M 41.5 -325.75
Q 25.3 -339.85 3.85 -338.35 -17.6 -336.85 -31.7 -320.65 -35.45 -316.3 -38.1 -311.6 -41.05 -306.4 -42.6 -300.7 -43.05 -299 -43.4 -297.2 -47.95 -281.85 -51.15 -263.1 -53 -252.25 -54.4 -240.25 -54.55 -238.85 -54.7 -237.35 -56.6 -220.4 -57.6 -201.2 -56.6 -220.4 -54.7 -237.35 -75.8 -230.35 -93.05 -214.95 -98.75 -209.85 -103.45 -204.35 -98.75 -209.85 -93.05 -214.95 -75.8 -230.35 -54.7 -237.35 -54.55 -238.85 -54.4 -240.25 -101.35 -231.95 -134.45 -206.45 -136.25 -205.05 -138.25 -204.5 -135.3 -159.05 -121.7 -122.75 -114.85 -97.8 -93.05 -78.3 -70.65 -58.35 -41.7 -52.45 -41.25 -52.35 -40.75 -52.25 -39.55 -52 -38.3 -51.8 -37.75 -51.7 -37.15 -51.6 -30.7 -50.55 -23.95 -50.2 -30.7 -50.55 -37.15 -51.6 -46.5 -52.7 -52.1 -40.35
L -93.15 50.15
Q -100.05 58.3 -100.05 69.3 -100.05 81.75 -91.2 90.6 -83.65 98.15 -73.3 99.25 -72.65 94.55 -71.3 89.25 -70.3 85.45 -67.85 80.7 -70.75 77.05 -72.5 73.05 -75.35 66.5 -75.35 58.9 -75.35 47.8 -69.4 39.15 -67.5 36.4 -65 33.9 -54.65 23.55 -40.05 23.55 -39.2 23.55 -38.35 23.6
L -48.6 -28.85
Q -48.65 -29.15 -48.7 -29.45 -48.65 -29.15 -48.6 -28.85
L -38.35 23.6
Q -34.85 23.75 -31.6 24.5 -22.3 26.65 -15.05 33.9 -9.8 39.15 -7.2 45.55 -7 46 -6.85 46.45 -4.7 52.2 -4.7 58.9 -4.7 65.4 -6.75 71.1 -6.95 71.65 -7.2 72.25 -8.8 76.2 -11.4 79.7 -13.05 81.85 -15.05 83.85 -21.95 90.75 -30.75 93.1 -35.15 94.25 -40.05 94.25 -45.8 94.25 -50.9 92.65 -54 91.65 -56.9 90.1 -61.25 87.65 -65 83.9 -66.55 82.35 -67.85 80.7 -70.3 85.45 -71.3 89.25 -72.65 94.55 -73.3 99.25 -74.55 107.8 -73.5 114.45 -72.05 123.75 -65 132.4 -68.6 158.95 -78.2 183.7 -95.7 228.9 -99.1 280.05 -99.25 281.2 -99.35 282.35 -99.75 287.45 -99.05 292.9 -96.55 312.2 -81.1 324.1 -70.75 332 -58.75 333.6 -52.75 334.8 -46.3 333.95 -27 331.4 -15.1 315.9 -9.65 308.8 -7.3 300.25 -7.25 300 -7.2 299.75 -5.55 294.8 -5.25 289.55 -5.25 288.9 -5.2 288.3 -5.15 284.55 -5.65 280.65 -5.9 278.65 -6.3 276.7 -6.9 269.55 -7.2 262.65 -7.95 246.25 -7.2 231 -6.35 212.9 -3.4 196.45 -3.05 171.55 -7.2 151.35 -8.4 145.4 -10 139.9 -10.65 137.6 -11.4 135.35 -24.1 139.9 -34.6 140.35 -24.1 139.9 -11.4 135.35 -24.45 128.2 -24.7 109.9 -24.45 128.2 -11.4 135.35 -2.2 139.65 10.7 138.8 -2.2 139.65 -11.4 135.35 -10.65 137.6 -10 139.9 -8.4 145.4 -7.2 151.35 -3.05 171.55 -3.4 196.45 -3.45 200.95 -3.65 205.6 -5.25 241.85 -3.6 285.75 -3.6 286.1 -3.6 286.45 -3.6 286.8 -3.6 287.2 -3.6 288.25 -3.5 289.3 -3.05 297.85 0.15 305.2
L 0.2 305.25
Q 3.6 313.1 10.2 319.7 24 333.5 43.5 333.5 50 333.5 55.9 331.95 67.6 328.95 76.8 319.75 90.55 305.95 90.55 286.45 90.55 281.35 89.65 276.65 88.1 272.35 86.95 267.9 75.75 226.85 71.75 181.3 68.3 142.8 54.6 109.3 54.6 109.35 54.6 109.45 54.5525390625 109.3076171875 54.55 109.15 54.55390625 109.25390625 54.6 109.3 56.4 103.7 57.2 97.65 53.5 97.3 50.15 96.15 43.85 93.95 38.8 88.9 35.35 85.45 33.25 81.45 29.95 75.2 29.95 67.6 29.95 63.4 30.95 59.65
L 5.25 -23.05 30.95 59.65
Q 29.95 63.4 29.95 67.6 29.95 75.2 33.25 81.45 35.35 85.45 38.8 88.9 43.85 93.95 50.15 96.15 53.5 97.3 57.2 97.65 58.65 97.75 60.1 97.75 72.55 97.75 81.4 88.9 90.25 80.1 90.25 67.6 90.25 55.15 81.4 46.3 79.2 44.1 76.8 42.45
L 61.05 7.3 45.7 -26.95 37.8 -44.5
Q 37.7 -44.65 37.6 -44.8 36.25 -47.05 34.3 -49 28.4 -54.9 20.2 -55.35 13.85 -53.35 7.2 -52.1 6.4 -52 5.65 -51.85 6.4 -52 7.2 -52.1 13.85 -53.35 20.2 -55.35 42.3 -62.3 60.25 -78.3 92.05 -106.65 92.05 -146.65 92.05 -156.65 90.05 -165.95 84.1 -193.75 60.25 -214.95 52.2 -222.15 43.35 -227.5 39.35 -210.1 36.5 -189 39.35 -210.1 43.35 -227.5 48.4 -249.65 55.2 -265.75 55.5 -266.55 55.85 -267.35 60.1 -277.9 59.25 -290.15 57.8 -311.6 41.5 -325.75 Z"/>
</g>

<g id="Symbole_2_0_Layer0_0_FILL">
<path fill="#FFB19C" stroke="none" d="
M -31.6 24.5
Q -34.85 23.75 -38.35 23.6 -39.2 23.55 -40.05 23.55 -54.65 23.55 -65 33.9 -67.5 36.4 -69.4 39.15 -75.35 47.8 -75.35 58.9 -75.35 66.5 -72.5 73.05 -70.75 77.05 -67.85 80.7 -66.55 82.35 -65 83.9 -61.25 87.65 -56.9 90.1 -54 91.65 -50.9 92.65 -45.8 94.25 -40.05 94.25 -35.15 94.25 -30.75 93.1 -21.95 90.75 -15.05 83.85 -13.05 81.85 -11.4 79.7 -8.8 76.2 -7.2 72.25 -6.95 71.65 -6.75 71.1 -4.7 65.4 -4.7 58.9 -4.7 52.2 -6.85 46.45 -7 46 -7.2 45.55 -9.8 39.15 -15.05 33.9 -22.3 26.65 -31.6 24.5
M -43.4 -297.2
Q -43.05 -299 -42.6 -300.7 -41.05 -306.4 -38.1 -311.6 -40.75 -316.3 -44.5 -320.65 -58.6 -336.85 -80.05 -338.35 -101.5 -339.85 -117.7 -325.75 -131.05 -314.15 -134.55 -298 -134.8 -297.05 -134.95 -296 -135.45 -293.45 -135.65 -290.75 -135.65 -290.6 -135.65 -290.5 -137.25 -276.75 -138.35 -258 -139.15 -243.75 -139.1 -230.25 -102.25 -255.55 -51.15 -263.1 -47.95 -281.85 -43.4 -297.2
M 52.95 -22.1
Q 49.05 -25.05 45.7 -26.95
L 61.05 7.3
Q 61.25 6.8 61.45 6.3 63.1 2 63.1 -3 63.1 -8 61.45 -12.3 59.55 -17.1 52.95 -22.1
M 41.5 -325.75
Q 25.3 -339.85 3.85 -338.35 -17.6 -336.85 -31.7 -320.65 -35.45 -316.3 -38.1 -311.6 -41.05 -306.4 -42.6 -300.7 -43.05 -299 -43.4 -297.2 -47.95 -281.85 -51.15 -263.1 -53 -252.25 -54.4 -240.25 -54.55 -238.85 -54.7 -237.35 -55.9 -226.95 -56.7 -215.7 -55.9 -226.95 -54.7 -237.35 -75.5 -230.45 -92.55 -215.4 -75.5 -230.45 -54.7 -237.35 -54.55 -238.85 -54.4 -240.25 -101.35 -231.95 -134.45 -206.45 -136.25 -205.05 -138.25 -204.5 -135.3 -159.05 -121.7 -122.75 -114.85 -97.8 -93.05 -78.3 -70.65 -58.35 -41.7 -52.45 -41.25 -52.35 -40.75 -52.25 -39.55 -52 -38.3 -51.8 -37.75 -51.7 -37.15 -51.6 -30.7 -50.55 -23.95 -50.2 -30.7 -50.55 -37.15 -51.6 -46.5 -52.7 -52.1 -40.35
L -93.15 50.15
Q -100.05 58.3 -100.05 69.3 -100.05 81.75 -91.2 90.6 -83.65 98.15 -73.3 99.25 -72.65 94.55 -71.3 89.25 -70.3 85.45 -67.85 80.7 -70.75 77.05 -72.5 73.05 -75.35 66.5 -75.35 58.9 -75.35 47.8 -69.4 39.15 -67.5 36.4 -65 33.9 -54.65 23.55 -40.05 23.55 -39.2 23.55 -38.35 23.6
L -45.25 -11.7 -50 -22.3 -45.25 -11.7 -38.35 23.6
Q -34.85 23.75 -31.6 24.5 -22.3 26.65 -15.05 33.9 -9.8 39.15 -7.2 45.55 -7 46 -6.85 46.45 -4.7 52.2 -4.7 58.9 -4.7 65.4 -6.75 71.1 -6.95 71.65 -7.2 72.25 -8.8 76.2 -11.4 79.7 -13.05 81.85 -15.05 83.85 -21.95 90.75 -30.75 93.1 -35.15 94.25 -40.05 94.25 -45.8 94.25 -50.9 92.65 -54 91.65 -56.9 90.1 -61.25 87.65 -65 83.9 -66.55 82.35 -67.85 80.7 -70.3 85.45 -71.3 89.25 -72.65 94.55 -73.3 99.25 -74.55 107.8 -73.5 114.45 -72.05 123.75 -65 132.4 -68.6 158.95 -78.2 183.7 -95.7 228.9 -99.1 280.05 -99.25 281.2 -99.35 282.35 -99.75 287.45 -99.05 292.9 -96.55 312.2 -81.1 324.1 -70.75 332 -58.75 333.6 -52.75 334.8 -46.3 333.95 -27 331.4 -15.1 315.9 -9.65 308.8 -7.3 300.25 -7.25 300 -7.2 299.75 -5.55 294.8 -5.25 289.55 -5.25 288.9 -5.2 288.3 -5.15 284.55 -5.65 280.65 -5.9 278.65 -6.3 276.7 -6.9 269.55 -7.2 262.65 -7.95 246.25 -7.2 231 -6.35 212.9 -3.4 196.45 -3.05 171.55 -7.2 151.35 -8.4 145.4 -10 139.9 -10.65 137.6 -11.4 135.35 -27.1 129.1 -29.05 110.85 -27.1 129.1 -11.4 135.35 -10.65 137.6 -10 139.9 -8.4 145.4 -7.2 151.35 -3.05 171.55 -3.4 196.45 -3.45 200.95 -3.65 205.6 -5.25 241.85 -3.6 285.75 -3.6 286.1 -3.6 286.45 -3.6 286.8 -3.6 287.2 -3.6 288.25 -3.5 289.3 -3.05 297.85 0.15 305.2
L 0.2 305.25
Q 3.6 313.1 10.2 319.7 24 333.5 43.5 333.5 50 333.5 55.9 331.95 67.6 328.95 76.8 319.75 90.55 305.95 90.55 286.45 90.55 281.35 89.65 276.65 88.1 272.35 86.95 267.9 75.75 226.85 71.75 181.3 68.3 142.8 54.6 109.3 54.6 109.35 54.6 109.45 54.5525390625 109.3076171875 54.55 109.15 54.55390625 109.25390625 54.6 109.3 56.4 103.7 57.2 97.65 53.5 97.3 50.15 96.15 43.85 93.95 38.8 88.9 35.35 85.45 33.25 81.45 29.95 75.2 29.95 67.6 29.95 63.4 30.95 59.65
L 5.25 -23.05 30.95 59.65
Q 29.95 63.4 29.95 67.6 29.95 75.2 33.25 81.45 35.35 85.45 38.8 88.9 43.85 93.95 50.15 96.15 53.5 97.3 57.2 97.65 58.65 97.75 60.1 97.75 72.55 97.75 81.4 88.9 90.25 80.1 90.25 67.6 90.25 55.15 81.4 46.3 79.2 44.1 76.8 42.45
L 61.05 7.3 45.7 -26.95 37.8 -44.5
Q 37.7 -44.65 37.6 -44.8 36.25 -47.05 34.3 -49 28.4 -54.9 20.2 -55.35 13.85 -53.35 7.2 -52.1 6.4 -52 5.65 -51.85 6.4 -52 7.2 -52.1 13.85 -53.35 20.2 -55.35 42.3 -62.3 60.25 -78.3 92.05 -106.65 92.05 -146.65 92.05 -156.65 90.05 -165.95 84.1 -193.75 60.25 -214.95 52.2 -222.15 43.35 -227.5 41 -217.4 39.1 -206.1 41 -217.4 43.35 -227.5 48.4 -249.65 55.2 -265.75 55.5 -266.55 55.85 -267.35 60.1 -277.9 59.25 -290.15 57.8 -311.6 41.5 -325.75 Z"/>

<path fill="#FF0000" stroke="none" d="
M -149.85 -208.4
Q -147.1 -204.8 -142.55 -204.25 -140.3 -203.95 -138.25 -204.5 -136.25 -205.05 -134.45 -206.45 -101.35 -231.95 -54.4 -240.25 -53 -252.25 -51.15 -263.1 -102.25 -255.55 -139.1 -230.25 -143.65 -227.2 -147.9 -223.85 -151.55 -221.05 -152.1 -216.5 -152.65 -212 -149.85 -208.4 Z"/>
</g>

<path id="Symbole_2_0_Layer2_0_1_STROKES" stroke="#3C3F3E" stroke-width="15" stroke-linejoin="round" stroke-linecap="round" fill="none" d="
M 43.35 -227.5
Q 48.4 -249.65 55.2 -265.75 55.5 -266.55 55.85 -267.35 60.1 -277.9 59.25 -290.15 57.8 -311.6 41.5 -325.75 25.3 -339.85 3.85 -338.35 -17.6 -336.85 -31.7 -320.65 -35.45 -316.3 -38.1 -311.6 -41.05 -306.4 -42.6 -300.7 -43.05 -299 -43.4 -297.2 -47.95 -281.85 -51.15 -263.1 -53 -252.25 -54.4 -240.25 -54.55 -238.85 -54.7 -237.35 -56.6 -220.4 -57.6 -201.2
M 43.35 -227.5
Q 52.2 -222.15 60.25 -214.95 84.1 -193.75 90.05 -165.95 92.05 -156.65 92.05 -146.65 92.05 -106.65 60.25 -78.3 42.3 -62.3 20.2 -55.35 28.4 -54.9 34.3 -49 36.25 -47.05 37.6 -44.8 37.7 -44.65 37.8 -44.5
L 45.7 -26.95
Q 49.05 -25.05 52.95 -22.1 59.55 -17.1 61.45 -12.3 63.1 -8 63.1 -3 63.1 2 61.45 6.3 61.25 6.8 61.05 7.3
L 76.8 42.45
Q 79.2 44.1 81.4 46.3 90.25 55.15 90.25 67.6 90.25 80.1 81.4 88.9 72.55 97.75 60.1 97.75 58.65 97.75 57.2 97.65 56.4 103.7 54.6 109.3 68.3 142.8 71.75 181.3 75.75 226.85 86.95 267.9 88.7 272.1 89.65 276.65 90.55 281.35 90.55 286.45 90.55 305.95 76.8 319.75 67.6 328.95 55.9 331.95 50 333.5 43.5 333.5 24 333.5 10.2 319.7 3.6 313.1 0.2 305.25
L 0.15 305.2
Q -3.05 297.85 -3.5 289.3 -3.6 288.25 -3.6 287.2 -3.75 283.25 -3.6 285.75 -5.25 241.85 -3.65 205.6 -3.45 200.95 -3.4 196.45 -6.35 212.9 -7.2 231 -7.95 246.25 -7.2 262.65 -6.9 269.55 -6.3 276.7 -5.9 278.65 -5.65 280.65 -5.15 284.55 -5.2 288.3 -5.25 288.9 -5.25 289.55 -5.55 294.8 -7.2 299.75 -7.25 300 -7.3 300.25 -9.65 308.8 -15.1 315.9 -27 331.4 -46.3 333.95 -52.75 334.8 -58.75 333.6 -70.75 332 -81.1 324.1 -96.55 312.2 -99.05 292.9 -99.75 287.45 -99.35 282.35 -99.25 281.2 -99.1 280.05 -95.7 228.9 -78.2 183.7 -68.6 158.95 -65 132.4 -72.05 123.75 -73.5 114.45 -74.55 107.8 -73.3 99.25 -83.65 98.15 -91.2 90.6 -100.05 81.75 -100.05 69.3 -100.05 58.3 -93.15 50.15
L -52.1 -40.35
Q -46.5 -52.7 -37.15 -51.6 -37.75 -51.7 -38.3 -51.8 -39.55 -52 -40.75 -52.25 -41.25 -52.35 -41.7 -52.45 -70.65 -58.35 -93.05 -78.3 -114.85 -97.8 -121.7 -122.75 -135.3 -159.05 -138.25 -204.5 -140.3 -203.95 -142.55 -204.25 -147.1 -204.8 -149.85 -208.4 -152.65 -212 -152.1 -216.5 -151.55 -221.05 -147.9 -223.85 -143.65 -227.2 -139.1 -230.25 -139.15 -243.75 -138.35 -258 -137.25 -276.75 -135.65 -290.5 -135.65 -290.6 -135.65 -290.75 -135.45 -293.45 -134.95 -296 -134.8 -297.05 -134.55 -298 -131.05 -314.15 -117.7 -325.75 -101.5 -339.85 -80.05 -338.35 -58.6 -336.85 -44.5 -320.65 -40.75 -316.3 -38.1 -311.6
M 20.2 -55.35
Q 13.85 -53.35 7.2 -52.1 6.4 -52 5.65 -51.85
M 36.5 -189
Q 39.35 -210.1 43.35 -227.5
M 5.25 -23.05
L 30.95 59.65
Q 29.95 63.4 29.95 67.6 29.95 75.2 33.25 81.45 35.35 85.45 38.8 88.9 43.85 93.95 50.15 96.15 53.5 97.3 57.2 97.65
M 54.6 109.3
Q 54.6 109.35 54.6 109.45 54.5525390625 109.3076171875 54.55 109.175 54.55390625 109.25390625 54.6 109.3 Z
M 45.7 -26.95
L 61.05 7.3
M -138.25 -204.5
Q -136.25 -205.05 -134.45 -206.45 -101.35 -231.95 -54.4 -240.25
M -103.45 -204.35
Q -98.75 -209.85 -93.05 -214.95 -75.8 -230.35 -54.7 -237.35
M -51.15 -263.1
Q -102.25 -255.55 -139.1 -230.25
M -23.95 -50.2
Q -30.7 -50.55 -37.15 -51.6
M -48.7 -29.45
Q -48.65 -29.15 -48.6 -28.85
L -38.35 23.6
Q -34.85 23.75 -31.6 24.5 -22.3 26.65 -15.05 33.9 -9.8 39.15 -7.2 45.55 -7 46 -6.85 46.45 -4.7 52.2 -4.7 58.9 -4.7 65.4 -6.75 71.1 -6.95 71.65 -7.2 72.25 -8.8 76.2 -11.4 79.7 -13.05 81.85 -15.05 83.85 -21.95 90.75 -30.75 93.1 -35.15 94.25 -40.05 94.25 -45.8 94.25 -50.9 92.65 -54 91.65 -56.9 90.1 -61.25 87.65 -65 83.9 -66.55 82.35 -67.85 80.7 -70.3 85.45 -71.3 89.25 -72.65 94.55 -73.3 99.25
M -38.35 23.6
Q -39.2 23.55 -40.05 23.55 -54.65 23.55 -65 33.9 -67.5 36.4 -69.4 39.15 -75.35 47.8 -75.35 58.9 -75.35 66.5 -72.5 73.05 -70.75 77.05 -67.85 80.7
M 10.7 138.8
Q -2.2 139.65 -11.4 135.35 -10.65 137.6 -10 139.9 -8.4 145.4 -7.2 151.35 -3.05 171.55 -3.4 196.45
M -24.7 109.9
Q -24.45 128.2 -11.4 135.35 -24.1 139.9 -34.6 140.35
M -3.6 285.75
Q -3.6 286.1 -3.6 286.45 -3.6 286.8 -3.6 287.2"/>

<path id="Symbole_2_0_Layer1_0_1_STROKES" stroke="#3C3F3E" stroke-width="15" stroke-linejoin="round" stroke-linecap="round" fill="none" d="
M 43.35 -227.5
Q 48.4 -249.65 55.2 -265.75 55.5 -266.55 55.85 -267.35 60.1 -277.9 59.25 -290.15 57.8 -311.6 41.5 -325.75 25.3 -339.85 3.85 -338.35 -17.6 -336.85 -31.7 -320.65 -35.45 -316.3 -38.1 -311.6 -41.05 -306.4 -42.6 -300.7 -43.05 -299 -43.4 -297.2 -47.95 -281.85 -51.15 -263.1 -53 -252.25 -54.4 -240.25 -54.55 -238.85 -54.7 -237.35 -56.6 -220.4 -57.6 -201.2
M 43.35 -227.5
Q 52.2 -222.15 60.25 -214.95 84.1 -193.75 90.05 -165.95 92.05 -156.65 92.05 -146.65 92.05 -106.65 60.25 -78.3 42.3 -62.3 20.2 -55.35 28.4 -54.9 34.3 -49 36.25 -47.05 37.6 -44.8 37.7 -44.65 37.8 -44.5
L 45.7 -26.95
Q 49.05 -25.05 52.95 -22.1 59.55 -17.1 61.45 -12.3 63.1 -8 63.1 -3 63.1 2 61.45 6.3 61.25 6.8 61.05 7.3
L 76.8 42.45
Q 79.2 44.1 81.4 46.3 90.25 55.15 90.25 67.6 90.25 80.1 81.4 88.9 72.55 97.75 60.1 97.75 58.65 97.75 57.2 97.65 56.4 103.7 54.6 109.3 68.3 142.8 71.75 181.3 75.75 226.85 86.95 267.9 88.7 272.1 89.65 276.65 90.55 281.35 90.55 286.45 90.55 305.95 76.8 319.75 67.6 328.95 55.9 331.95 50 333.5 43.5 333.5 24 333.5 10.2 319.7 3.6 313.1 0.2 305.25
L 0.15 305.2
Q -3.05 297.85 -3.5 289.3 -3.6 288.25 -3.6 287.2 -3.75 283.25 -3.6 285.75 -5.25 241.85 -3.65 205.6 -3.45 200.95 -3.4 196.45 -6.35 212.9 -7.2 231 -7.95 246.25 -7.2 262.65 -6.9 269.55 -6.3 276.7 -5.9 278.65 -5.65 280.65 -5.15 284.55 -5.2 288.3 -5.25 288.9 -5.25 289.55 -5.55 294.8 -7.2 299.75 -7.25 300 -7.3 300.25 -9.65 308.8 -15.1 315.9 -27 331.4 -46.3 333.95 -52.75 334.8 -58.75 333.6 -70.75 332 -81.1 324.1 -96.55 312.2 -99.05 292.9 -99.75 287.45 -99.35 282.35 -99.25 281.2 -99.1 280.05 -95.7 228.9 -78.2 183.7 -68.6 158.95 -65 132.4 -72.05 123.75 -73.5 114.45 -74.55 107.8 -73.3 99.25 -83.65 98.15 -91.2 90.6 -100.05 81.75 -100.05 69.3 -100.05 58.3 -93.15 50.15
L -52.1 -40.35
Q -46.5 -52.7 -37.15 -51.6 -37.75 -51.7 -38.3 -51.8 -39.55 -52 -40.75 -52.25 -41.25 -52.35 -41.7 -52.45 -70.65 -58.35 -93.05 -78.3 -114.85 -97.8 -121.7 -122.75 -135.3 -159.05 -138.25 -204.5 -140.3 -203.95 -142.55 -204.25 -147.1 -204.8 -149.85 -208.4 -152.65 -212 -152.1 -216.5 -151.55 -221.05 -147.9 -223.85 -143.65 -227.2 -139.1 -230.25 -139.15 -243.75 -138.35 -258 -137.25 -276.75 -135.65 -290.5 -135.65 -290.6 -135.65 -290.75 -135.45 -293.45 -134.95 -296 -134.8 -297.05 -134.55 -298 -131.05 -314.15 -117.7 -325.75 -101.5 -339.85 -80.05 -338.35 -58.6 -336.85 -44.5 -320.65 -40.75 -316.3 -38.1 -311.6
M 20.2 -55.35
Q 13.85 -53.35 7.2 -52.1 6.4 -52 5.65 -51.85
M 36.5 -189
Q 39.35 -210.1 43.35 -227.5
M 5.25 -23.05
L 30.95 59.65
Q 29.95 63.4 29.95 67.6 29.95 75.2 33.25 81.45 35.35 85.45 38.8 88.9 43.85 93.95 50.15 96.15 53.5 97.3 57.2 97.65
M 54.6 109.3
Q 54.6 109.35 54.6 109.45 54.5525390625 109.3076171875 54.55 109.175 54.55390625 109.25390625 54.6 109.3 Z
M 45.7 -26.95
L 61.05 7.3
M -138.25 -204.5
Q -136.25 -205.05 -134.45 -206.45 -101.35 -231.95 -54.4 -240.25
M -103.45 -204.35
Q -98.75 -209.85 -93.05 -214.95 -75.8 -230.35 -54.7 -237.35
M -51.15 -263.1
Q -102.25 -255.55 -139.1 -230.25
M -23.95 -50.2
Q -30.7 -50.55 -37.15 -51.6
M -48.7 -29.45
Q -48.65 -29.15 -48.6 -28.85
L -38.35 23.6
Q -34.85 23.75 -31.6 24.5 -22.3 26.65 -15.05 33.9 -9.8 39.15 -7.2 45.55 -7 46 -6.85 46.45 -4.7 52.2 -4.7 58.9 -4.7 65.4 -6.75 71.1 -6.95 71.65 -7.2 72.25 -8.8 76.2 -11.4 79.7 -13.05 81.85 -15.05 83.85 -21.95 90.75 -30.75 93.1 -35.15 94.25 -40.05 94.25 -45.8 94.25 -50.9 92.65 -54 91.65 -56.9 90.1 -61.25 87.65 -65 83.9 -66.55 82.35 -67.85 80.7 -70.3 85.45 -71.3 89.25 -72.65 94.55 -73.3 99.25
M -38.35 23.6
Q -39.2 23.55 -40.05 23.55 -54.65 23.55 -65 33.9 -67.5 36.4 -69.4 39.15 -75.35 47.8 -75.35 58.9 -75.35 66.5 -72.5 73.05 -70.75 77.05 -67.85 80.7
M -3.4 196.45
Q -3.05 171.55 -7.2 151.35 -8.4 145.4 -10 139.9 -10.65 137.6 -11.4 135.35 -24.1 139.9 -34.6 140.35
M -24.7 109.9
Q -24.45 128.2 -11.4 135.35 -2.2 139.65 10.7 138.8
M -3.6 285.75
Q -3.6 286.1 -3.6 286.45 -3.6 286.8 -3.6 287.2"/>

<path id="Symbole_2_0_Layer0_0_1_STROKES" stroke="#3D3F3E" stroke-width="2" stroke-linejoin="miter" stroke-linecap="square" stroke-miterlimit="3" fill="none" d="
M 43.35 -227.5
Q 48.4 -249.65 55.2 -265.75 55.5 -266.55 55.85 -267.35 60.1 -277.9 59.25 -290.15 57.8 -311.6 41.5 -325.75 25.3 -339.85 3.85 -338.35 -17.6 -336.85 -31.7 -320.65 -35.45 -316.3 -38.1 -311.6 -41.05 -306.4 -42.6 -300.7 -43.05 -299 -43.4 -297.2 -47.95 -281.85 -51.15 -263.1 -53 -252.25 -54.4 -240.25 -54.55 -238.85 -54.7 -237.35 -55.9 -226.95 -56.7 -215.7
M 43.35 -227.5
Q 52.2 -222.15 60.25 -214.95 84.1 -193.75 90.05 -165.95 92.05 -156.65 92.05 -146.65 92.05 -106.65 60.25 -78.3 42.3 -62.3 20.2 -55.35 28.4 -54.9 34.3 -49 36.25 -47.05 37.6 -44.8 37.7 -44.65 37.8 -44.5
L 45.7 -26.95
Q 49.05 -25.05 52.95 -22.1 59.55 -17.1 61.45 -12.3 63.1 -8 63.1 -3 63.1 2 61.45 6.3 61.25 6.8 61.05 7.3
L 76.8 42.45
Q 79.2 44.1 81.4 46.3 90.25 55.15 90.25 67.6 90.25 80.1 81.4 88.9 72.55 97.75 60.1 97.75 58.65 97.75 57.2 97.65 56.4 103.7 54.6 109.3 68.3 142.8 71.75 181.3 75.75 226.85 86.95 267.9 88.7 272.1 89.65 276.65 90.55 281.35 90.55 286.45 90.55 305.95 76.8 319.75 67.6 328.95 55.9 331.95 50 333.5 43.5 333.5 24 333.5 10.2 319.7 3.6 313.1 0.2 305.25
L 0.15 305.2
Q -3.05 297.85 -3.5 289.3 -3.6 288.25 -3.6 287.2 -3.75 283.25 -3.6 285.75 -5.25 241.85 -3.65 205.6 -3.45 200.95 -3.4 196.45 -6.35 212.9 -7.2 231 -7.95 246.25 -7.2 262.65 -6.9 269.55 -6.3 276.7 -5.9 278.65 -5.65 280.65 -5.15 284.55 -5.2 288.3 -5.25 288.9 -5.25 289.55 -5.55 294.8 -7.2 299.75 -7.25 300 -7.3 300.25 -9.65 308.8 -15.1 315.9 -27 331.4 -46.3 333.95 -52.75 334.8 -58.75 333.6 -70.75 332 -81.1 324.1 -96.55 312.2 -99.05 292.9 -99.75 287.45 -99.35 282.35 -99.25 281.2 -99.1 280.05 -95.7 228.9 -78.2 183.7 -68.6 158.95 -65 132.4 -72.05 123.75 -73.5 114.45 -74.55 107.8 -73.3 99.25 -83.65 98.15 -91.2 90.6 -100.05 81.75 -100.05 69.3 -100.05 58.3 -93.15 50.15
L -52.1 -40.35
Q -46.5 -52.7 -37.15 -51.6 -37.75 -51.7 -38.3 -51.8 -39.55 -52 -40.75 -52.25 -41.25 -52.35 -41.7 -52.45 -70.65 -58.35 -93.05 -78.3 -114.85 -97.8 -121.7 -122.75 -135.3 -159.05 -138.25 -204.5 -140.3 -203.95 -142.55 -204.25 -147.1 -204.8 -149.85 -208.4 -152.65 -212 -152.1 -216.5 -151.55 -221.05 -147.9 -223.85 -143.65 -227.2 -139.1 -230.25 -139.15 -243.75 -138.35 -258 -137.25 -276.75 -135.65 -290.5 -135.65 -290.6 -135.65 -290.75 -135.45 -293.45 -134.95 -296 -134.8 -297.05 -134.55 -298 -131.05 -314.15 -117.7 -325.75 -101.5 -339.85 -80.05 -338.35 -58.6 -336.85 -44.5 -320.65 -40.75 -316.3 -38.1 -311.6
M 39.1 -206.1
Q 41 -217.4 43.35 -227.5
M 20.2 -55.35
Q 13.85 -53.35 7.2 -52.1 6.4 -52 5.65 -51.85
M 5.25 -23.05
L 30.95 59.65
Q 29.95 63.4 29.95 67.6 29.95 75.2 33.25 81.45 35.35 85.45 38.8 88.9 43.85 93.95 50.15 96.15 53.5 97.3 57.2 97.65
M 54.6 109.3
Q 54.6 109.35 54.6 109.45 54.5525390625 109.3076171875 54.55 109.175 54.55390625 109.25390625 54.6 109.3 Z
M 45.7 -26.95
L 61.05 7.3
M -138.25 -204.5
Q -136.25 -205.05 -134.45 -206.45 -101.35 -231.95 -54.4 -240.25
M -92.55 -215.4
Q -75.5 -230.45 -54.7 -237.35
M -51.15 -263.1
Q -102.25 -255.55 -139.1 -230.25
M -23.95 -50.2
Q -30.7 -50.55 -37.15 -51.6
M -50 -22.3
L -45.25 -11.7 -38.35 23.6
Q -34.85 23.75 -31.6 24.5 -22.3 26.65 -15.05 33.9 -9.8 39.15 -7.2 45.55 -7 46 -6.85 46.45 -4.7 52.2 -4.7 58.9 -4.7 65.4 -6.75 71.1 -6.95 71.65 -7.2 72.25 -8.8 76.2 -11.4 79.7 -13.05 81.85 -15.05 83.85 -21.95 90.75 -30.75 93.1 -35.15 94.25 -40.05 94.25 -45.8 94.25 -50.9 92.65 -54 91.65 -56.9 90.1 -61.25 87.65 -65 83.9 -66.55 82.35 -67.85 80.7 -70.3 85.45 -71.3 89.25 -72.65 94.55 -73.3 99.25
M -38.35 23.6
Q -39.2 23.55 -40.05 23.55 -54.65 23.55 -65 33.9 -67.5 36.4 -69.4 39.15 -75.35 47.8 -75.35 58.9 -75.35 66.5 -72.5 73.05 -70.75 77.05 -67.85 80.7
M -29.05 110.85
Q -27.1 129.1 -11.4 135.35 -10.65 137.6 -10 139.9 -8.4 145.4 -7.2 151.35 -3.05 171.55 -3.4 196.45
M -3.6 285.75
Q -3.6 286.1 -3.6 286.45 -3.6 286.8 -3.6 287.2"/>
</defs>

<g transform="matrix( 0.46343994140625, 0, 0, 0.46343994140625, 109.05,177) ">
<g transform="matrix( 1, 0, 0, 1, 0,0) ">
<use xlink:href="#Symbole_2_0_Layer2_0_FILL"/>

<use xlink:href="#Symbole_2_0_Layer2_0_1_STROKES"/>
</g>

<g transform="matrix( 1, 0, 0, 1, 0,0) ">
<use xlink:href="#Symbole_2_0_Layer1_0_FILL"/>

<use xlink:href="#Symbole_2_0_Layer1_0_1_STROKES"/>
</g>

<g transform="matrix( 1, 0, 0, 1, 0,0) ">
<use xlink:href="#Symbole_2_0_Layer0_0_FILL"/>

<use xlink:href="#Symbole_2_0_Layer0_0_1_STROKES"/>
</g>
</g>
</svg>
