
<svg xmlns="http://www.w3.org/2000/svg" version="1.1" xmlns:xlink="http://www.w3.org/1999/xlink" preserveAspectRatio="none" x="0px" y="0px" width="200px" height="350px" viewBox="0 0 200 350">
<defs>
<g id="Symbole_2_0_Layer2_0_FILL">
<path fill="#660000" stroke="none" d="
M 44.05 6.6
Q 44.9 4.35 45.35 1.9
L 42.1 -3.15 38.1 15.4
Q 38.15 15.35 38.25 15.25 42.15 11.35 44.05 6.6
M -56.6 15.25
Q -56.45 15.4 -56.3 15.55
L -60.3 -2.9 -63.65 2.1
Q -62.3 9.6 -56.6 15.25
M -137.15 -208.5
Q -138.15 -204.05 -135.7 -200.2 -133.3 -196.35 -128.85 -195.35 -125.35 -194.6 -122.15 -195.95 -121.35 -196.3 -120.55 -196.8 -80.65 -222.05 -22.35 -241.05 -19.3 -242.05 -16.2 -243.05 -14.55 -243.6 -12.85 -244.1 -8.5 -245.45 -6.35 -249.45 -4.25 -253.5 -5.6 -257.85 -6.95 -262.2 -10.95 -264.3 -14.25 -266.05 -17.75 -265.45 -18.55 -265.35 -19.35 -265.1 -79.95 -246.3 -122.55 -221.35 -127.55 -218.4 -132.3 -215.4 -136.15 -212.95 -137.15 -208.5
M -27.5 -320.65
Q -41.6 -336.85 -63.05 -338.35 -84.5 -339.85 -100.7 -325.75 -117 -311.6 -117.7 -298.05 -119.95 -282.15 -121.35 -258 -122.45 -238.95 -122.55 -221.35 -79.95 -246.3 -19.35 -265.1 -18.55 -265.35 -17.75 -265.45 -16.65 -270.75 -15.35 -276.35 -15.25 -278.15 -14.9 -282.95 -13.45 -304.4 -27.5 -320.65
M 101.95 -298.05
Q 101.25 -311.6 84.95 -325.75 68.75 -339.85 47.3 -338.35 25.85 -336.85 11.75 -320.65 -2.3 -304.4 -0.85 -282.95 -0.5 -278.15 -0.4 -276.35 3.95 -257.7 6.35 -242.55 10.95 -213.9 8.75 -197.75 10.95 -213.9 6.35 -242.55 0.15 -243.25 -6.3 -243.3 -7.05 -243.3 -7.8 -243.3 -12.05 -243.3 -16.2 -243.05 -19.3 -242.05 -22.35 -241.05 -26.65 -213.45 -24.5 -197.75 -26.65 -213.45 -22.35 -241.05 -80.65 -222.05 -120.55 -196.8 -121.35 -196.3 -122.15 -195.95 -120.9 -161.1 -115.2 -132.7 -114.65 -129.05 -113.8 -125.45 -107.5 -98.85 -84.45 -78.3 -66.95 -62.7 -45.4 -55.65 -41.9 -54.55 -38.25 -53.6 -32.55 -52.2 -26.6 -51.3 -32.55 -52.2 -38.25 -53.6 -41.9 -54.55 -45.4 -55.65 -50 -56.6 -55.05 -56.6 -64.1 -56.6 -70.5 -50.2 -70.85 -49.85 -71.15 -49.45 -72 -48.6 -72.65 -47.7
L -146.55 37.45
Q -154.05 39.4 -159.95 45.3 -168.8 54.15 -168.8 66.6 -168.8 79.1 -159.95 87.9 -151.1 96.75 -138.65 96.75 -126.2 96.75 -117.35 87.9 -109.75 80.35 -108.65 70.05
L -63.65 2.1 -60.3 -2.9
Q -63.7 -17.5 -62.35 -28.25 -63.7 -17.5 -60.3 -2.9
L -56.3 15.55 -52.5 33.2
Q -82.6 65.25 -90.9 103.45 -91.3 105.3 -91.65 107.15 -91.75 107.55 -91.8 107.95 -91.85 108.25 -91.9 108.6 -92.05 109.55 -92.2 110.6 -92.15 109.7 -92.05 108.9 -139.35 203 -149.8 278.15 -150.5 282.15 -150.5 286.45 -150.5 305.95 -136.75 319.75 -127.55 328.95 -115.85 331.95 -109.95 333.5 -103.45 333.5 -83.95 333.5 -70.15 319.7 -63.55 313.1 -60.1 305.25
L -60.1 305.2
Q -57.55 299.4 -56.75 292.9
L -56.35 286.45
Q -56.35 287.2 -56.35 287.9 -50.45 214.3 -26.15 135.35 -33.2 135.6 -47.05 138.8 -33.2 135.6 -26.15 135.35 -14.95 132.8 -6.95 125.45
L -6.95 112.55 -6.95 125.45
Q -1.2 132.55 10.3 134.55
L 24.75 138.8 10.3 134.55
Q 30.85 194.6 38.95 282.1 38.9 282.85 38.9 284 38.85 286.4 39.1 290.6 39.25 292.35 39.55 294.05 40.5 299.5 42.65 304.5 46.05 312.3 52.65 318.95 66.45 332.75 85.95 332.75 92.45 332.75 98.35 331.2 110.05 328.1 119.25 318.9 133.05 305.1 133.05 285.6 133.05 279.9 131.9 274.7 108.05 183.3 73.7 108.75 73.9 110 73.95 111.35 73.7 109.7 73.45 108.1 73.4 107.95 73.4 107.85 73.3 107.5 73.25 107.15 72.8 104.8 72.3 102.5 64 64.75 34.25 33.2
L 38.1 15.4 42.1 -3.15
Q 46.15 -18.45 44.2 -28.6 46.15 -18.45 42.1 -3.15
L 45.35 1.9 90.8 72.5
Q 92.05 82.25 99.4 89.6 108.2 98.4 120.65 98.4 133.15 98.4 141.95 89.6 150.8 80.75 150.8 68.3 150.8 55.85 141.95 47 137.15 42.15 131.25 40
L 52.8 -50.2
Q 46.4 -56.6 32.35 -56.5 32.3 -56.5 32.2 -56.5 30 -55.75 27.8 -55.05 19.05 -52.4 9.7 -51.1 19.05 -52.4 27.8 -55.05 30.25 -56.5 32.2 -56.5 52.3 -63.55 68.85 -78.3 91.85 -98.8 98.2 -125.45 99.25 -129.9 99.85 -134.5 109.75 -185.75 105.6 -258 104.2 -282.15 101.95 -298.05
M -32.9 33.9
Q -22.55 23.55 -7.9 23.55 -7.1 23.55 -6.3 23.6 7.25 24.1 17.05 33.9 27.4 44.25 27.4 58.9 27.4 66.5 24.55 73.05 22 78.9 17.05 83.9 10.3 90.65 1.75 93 -2.1 94.05 -6.3 94.25 -7.1 94.25 -7.9 94.25 -11.95 94.25 -15.65 93.5 -16.45 93.3 -17.2 93.1 -26 90.75 -32.9 83.85 -43.25 73.5 -43.25 58.9 -43.25 44.25 -32.9 33.9
M -7.9 23.55
Q -22.55 23.55 -32.9 33.9 -43.25 44.25 -43.25 58.9 -43.25 73.5 -32.9 83.85 -26 90.75 -17.2 93.1 -16.45 93.3 -15.65 93.5 -11.95 94.25 -7.9 94.25 -7.1 94.25 -6.3 94.25 -2.1 94.05 1.75 93 10.3 90.65 17.05 83.9 22 78.9 24.55 73.05 27.4 66.5 27.4 58.9 27.4 44.25 17.05 33.9 7.25 24.1 -6.3 23.6 -7.1 23.55 -7.9 23.55 Z"/>
</g>

<g id="Symbole_2_0_Layer1_0_FILL">
<path fill="#660000" stroke="none" d="
M 44.05 6.6
Q 44.9 4.35 45.35 1.9
L 42.1 -3.15 38.1 15.4
Q 38.15 15.35 38.25 15.25 42.15 11.35 44.05 6.6
M -56.6 15.25
Q -56.45 15.4 -56.3 15.55
L -60.3 -2.9 -63.65 2.1
Q -62.3 9.6 -56.6 15.25
M -137.15 -208.5
Q -138.15 -204.05 -135.7 -200.2 -133.3 -196.35 -128.85 -195.35 -125.35 -194.6 -122.15 -195.95 -121.35 -196.3 -120.55 -196.8 -80.65 -222.05 -22.35 -241.05 -19.3 -242.05 -16.2 -243.05 -14.55 -243.6 -12.85 -244.1 -8.5 -245.45 -6.35 -249.45 -4.25 -253.5 -5.6 -257.85 -6.95 -262.2 -10.95 -264.3 -14.25 -266.05 -17.75 -265.45 -18.55 -265.35 -19.35 -265.1 -79.95 -246.3 -122.55 -221.35 -127.55 -218.4 -132.3 -215.4 -136.15 -212.95 -137.15 -208.5
M -27.5 -320.65
Q -41.6 -336.85 -63.05 -338.35 -84.5 -339.85 -100.7 -325.75 -117 -311.6 -117.7 -298.05 -119.95 -282.15 -121.35 -258 -122.45 -238.95 -122.55 -221.35 -79.95 -246.3 -19.35 -265.1 -18.55 -265.35 -17.75 -265.45 -16.65 -270.75 -15.35 -276.35 -15.25 -278.15 -14.9 -282.95 -13.45 -304.4 -27.5 -320.65
M 101.95 -298.05
Q 101.25 -311.6 84.95 -325.75 68.75 -339.85 47.3 -338.35 25.85 -336.85 11.75 -320.65 -2.3 -304.4 -0.85 -282.95 -0.5 -278.15 -0.4 -276.35 3.95 -257.7 6.35 -242.55 10.95 -213.9 8.75 -197.75 10.95 -213.9 6.35 -242.55 0.15 -243.25 -6.3 -243.3 -7.05 -243.3 -7.8 -243.3 -12.05 -243.3 -16.2 -243.05 -19.3 -242.05 -22.35 -241.05 -26.65 -213.45 -24.5 -197.75 -26.65 -213.45 -22.35 -241.05 -80.65 -222.05 -120.55 -196.8 -121.35 -196.3 -122.15 -195.95 -120.9 -161.1 -115.2 -132.7 -114.65 -129.05 -113.8 -125.45 -107.5 -98.85 -84.45 -78.3 -66.95 -62.7 -45.4 -55.65 -41.9 -54.55 -38.25 -53.6 -32.55 -52.2 -26.6 -51.3 -32.55 -52.2 -38.25 -53.6 -41.9 -54.55 -45.4 -55.65 -50 -56.6 -55.05 -56.6 -64.1 -56.6 -70.5 -50.2 -70.85 -49.85 -71.15 -49.45 -72 -48.6 -72.65 -47.7
L -146.55 37.45
Q -154.05 39.4 -159.95 45.3 -168.8 54.15 -168.8 66.6 -168.8 79.1 -159.95 87.9 -151.1 96.75 -138.65 96.75 -126.2 96.75 -117.35 87.9 -109.75 80.35 -108.65 70.05
L -63.65 2.1 -60.3 -2.9
Q -63.7 -17.5 -62.35 -28.25 -63.7 -17.5 -60.3 -2.9
L -56.3 15.55 -52.5 33.2
Q -82.6 65.25 -90.9 103.45 -91.3 105.3 -91.65 107.15 -91.75 107.55 -91.8 107.95 -91.85 108.25 -91.9 108.6 -92.05 109.55 -92.2 110.6 -92.15 109.7 -92.05 108.9 -139.35 203 -149.8 278.15 -150.5 282.15 -150.5 286.45 -150.5 305.95 -136.75 319.75 -127.55 328.95 -115.85 331.95 -109.95 333.5 -103.45 333.5 -83.95 333.5 -70.15 319.7 -63.55 313.1 -60.1 305.25
L -60.1 305.2
Q -57.55 299.4 -56.75 292.9
L -56.35 286.45
Q -56.35 287.2 -56.35 287.9 -50.45 214.3 -26.15 135.35 -33.2 135.6 -47.05 138.8 -33.2 135.6 -26.15 135.35 -14.95 132.8 -6.95 125.45
L -6.95 112.55 -6.95 125.45
Q -1.2 132.55 10.3 134.55
L 24.75 138.8 10.3 134.55
Q 30.85 194.6 38.95 282.1 38.9 282.85 38.9 284 38.85 286.4 39.1 290.6 39.25 292.35 39.55 294.05 40.5 299.5 42.65 304.5 46.05 312.3 52.65 318.95 66.45 332.75 85.95 332.75 92.45 332.75 98.35 331.2 110.05 328.1 119.25 318.9 133.05 305.1 133.05 285.6 133.05 279.9 131.9 274.7 108.05 183.3 73.7 108.75 73.9 110 73.95 111.35 73.7 109.7 73.45 108.1 73.4 107.95 73.4 107.85 73.3 107.5 73.25 107.15 72.8 104.8 72.3 102.5 64 64.75 34.25 33.2
L 38.1 15.4 42.1 -3.15
Q 46.15 -18.45 44.2 -28.6 46.15 -18.45 42.1 -3.15
L 45.35 1.9 90.8 72.5
Q 92.05 82.25 99.4 89.6 108.2 98.4 120.65 98.4 133.15 98.4 141.95 89.6 150.8 80.75 150.8 68.3 150.8 55.85 141.95 47 137.15 42.15 131.25 40
L 52.8 -50.2
Q 46.4 -56.6 32.35 -56.5 32.3 -56.5 32.2 -56.5 30 -55.75 27.8 -55.05 19.05 -52.4 9.7 -51.1 19.05 -52.4 27.8 -55.05 30.25 -56.5 32.2 -56.5 52.3 -63.55 68.85 -78.3 91.85 -98.8 98.2 -125.45 99.25 -129.9 99.85 -134.5 109.75 -185.75 105.6 -258 104.2 -282.15 101.95 -298.05
M -32.9 33.9
Q -22.55 23.55 -7.9 23.55 -7.1 23.55 -6.3 23.6 7.25 24.1 17.05 33.9 27.4 44.25 27.4 58.9 27.4 66.5 24.55 73.05 22 78.9 17.05 83.9 10.3 90.65 1.75 93 -2.1 94.05 -6.3 94.25 -7.1 94.25 -7.9 94.25 -11.95 94.25 -15.65 93.5 -16.45 93.3 -17.2 93.1 -26 90.75 -32.9 83.85 -43.25 73.5 -43.25 58.9 -43.25 44.25 -32.9 33.9
M -7.9 23.55
Q -22.55 23.55 -32.9 33.9 -43.25 44.25 -43.25 58.9 -43.25 73.5 -32.9 83.85 -26 90.75 -17.2 93.1 -16.45 93.3 -15.65 93.5 -11.95 94.25 -7.9 94.25 -7.1 94.25 -6.3 94.25 -2.1 94.05 1.75 93 10.3 90.65 17.05 83.9 22 78.9 24.55 73.05 27.4 66.5 27.4 58.9 27.4 44.25 17.05 33.9 7.25 24.1 -6.3 23.6 -7.1 23.55 -7.9 23.55 Z"/>
</g>

<g id="Symbole_2_0_Layer0_0_FILL">
<path fill="#FFB19C" stroke="none" d="
M 44.05 6.6
Q 44.9 4.35 45.35 1.9
L 42.1 -3.15 38.1 15.4
Q 38.15 15.35 38.25 15.25 42.15 11.35 44.05 6.6
M -56.6 15.25
Q -56.45 15.4 -56.3 15.55
L -60.3 -2.9 -63.65 2.1
Q -62.3 9.6 -56.6 15.25
M -27.5 -320.65
Q -41.6 -336.85 -63.05 -338.35 -84.5 -339.85 -100.7 -325.75 -117 -311.6 -117.7 -298.05 -119.95 -282.15 -121.35 -258 -122.45 -238.95 -122.55 -221.35 -79.95 -246.3 -19.35 -265.1 -18.55 -265.35 -17.75 -265.45 -16.65 -270.75 -15.35 -276.35 -15.25 -278.15 -14.9 -282.95 -13.45 -304.4 -27.5 -320.65
M 101.95 -298.05
Q 101.25 -311.6 84.95 -325.75 68.75 -339.85 47.3 -338.35 25.85 -336.85 11.75 -320.65 -2.3 -304.4 -0.85 -282.95 -0.5 -278.15 -0.4 -276.35 3.95 -257.7 6.35 -242.55 7.95 -232.6 8.75 -224.1 7.95 -232.6 6.35 -242.55 0.15 -243.25 -6.3 -243.3 -7.05 -243.3 -7.8 -243.3 -12.05 -243.3 -16.2 -243.05 -19.3 -242.05 -22.35 -241.05 -23.95 -230.9 -24.65 -222.3 -23.95 -230.9 -22.35 -241.05 -80.65 -222.05 -120.55 -196.8 -121.35 -196.3 -122.15 -195.95 -120.9 -161.1 -115.2 -132.7 -114.65 -129.05 -113.8 -125.45 -107.5 -98.85 -84.45 -78.3 -66.95 -62.7 -45.4 -55.65 -41.9 -54.55 -38.25 -53.6 -32.55 -52.2 -26.6 -51.3 -32.55 -52.2 -38.25 -53.6 -41.9 -54.55 -45.4 -55.65 -50 -56.6 -55.05 -56.6 -64.1 -56.6 -70.5 -50.2 -70.85 -49.85 -71.15 -49.45 -72 -48.6 -72.65 -47.7
L -146.55 37.45
Q -154.05 39.4 -159.95 45.3 -168.8 54.15 -168.8 66.6 -168.8 79.1 -159.95 87.9 -151.1 96.75 -138.65 96.75 -126.2 96.75 -117.35 87.9 -109.75 80.35 -108.65 70.05
L -63.65 2.1 -60.3 -2.9
Q -63.7 -17.5 -62.35 -28.25 -63.7 -17.5 -60.3 -2.9
L -56.3 15.55 -52.5 33.2
Q -82.6 65.25 -90.9 103.45 -91.3 105.3 -91.65 107.15 -91.75 107.55 -91.8 107.95 -91.85 108.25 -91.9 108.6 -92.05 109.55 -92.2 110.6 -92.15 109.7 -92.05 108.9 -139.35 203 -149.8 278.15 -150.5 282.15 -150.5 286.45 -150.5 305.95 -136.75 319.75 -127.55 328.95 -115.85 331.95 -109.95 333.5 -103.45 333.5 -83.95 333.5 -70.15 319.7 -63.55 313.1 -60.1 305.25
L -60.1 305.2
Q -57.55 299.4 -56.75 292.9
L -56.35 286.45
Q -56.35 287.2 -56.35 287.9 -50.45 214.3 -26.15 135.35 -14.95 132.8 -6.95 125.45 -1.2 132.55 10.3 134.55 30.85 194.6 38.95 282.1 38.9 282.85 38.9 284 38.85 286.4 39.1 290.6 39.25 292.35 39.55 294.05 40.5 299.5 42.65 304.5 46.05 312.3 52.65 318.95 66.45 332.75 85.95 332.75 92.45 332.75 98.35 331.2 110.05 328.1 119.25 318.9 133.05 305.1 133.05 285.6 133.05 279.9 131.9 274.7 108.05 183.3 73.7 108.75 73.9 110 73.95 111.35 73.7 109.7 73.45 108.1 73.4 107.95 73.4 107.85 73.3 107.5 73.25 107.15 72.8 104.8 72.3 102.5 64 64.75 34.25 33.2
L 38.1 15.4 42.1 -3.15
Q 46.15 -18.45 44.2 -28.6 46.15 -18.45 42.1 -3.15
L 45.35 1.9 90.8 72.5
Q 92.05 82.25 99.4 89.6 108.2 98.4 120.65 98.4 133.15 98.4 141.95 89.6 150.8 80.75 150.8 68.3 150.8 55.85 141.95 47 137.15 42.15 131.25 40
L 52.8 -50.2
Q 46.4 -56.6 32.35 -56.5 32.3 -56.5 32.2 -56.5 30 -55.75 27.8 -55.05 19.05 -52.4 9.7 -51.1 19.05 -52.4 27.8 -55.05 30.25 -56.5 32.2 -56.5 52.3 -63.55 68.85 -78.3 91.85 -98.8 98.2 -125.45 99.25 -129.9 99.85 -134.5 109.75 -185.75 105.6 -258 104.2 -282.15 101.95 -298.05
M -32.9 33.9
Q -22.55 23.55 -7.9 23.55 -7.1 23.55 -6.3 23.6 7.25 24.1 17.05 33.9 27.4 44.25 27.4 58.9 27.4 66.5 24.55 73.05 22 78.9 17.05 83.9 10.3 90.65 1.75 93 -2.1 94.05 -6.3 94.25 -7.1 94.25 -7.9 94.25 -11.95 94.25 -15.65 93.5 -16.45 93.3 -17.2 93.1 -26 90.75 -32.9 83.85 -43.25 73.5 -43.25 58.9 -43.25 44.25 -32.9 33.9
M -7.9 23.55
Q -22.55 23.55 -32.9 33.9 -43.25 44.25 -43.25 58.9 -43.25 73.5 -32.9 83.85 -26 90.75 -17.2 93.1 -16.45 93.3 -15.65 93.5 -11.95 94.25 -7.9 94.25 -7.1 94.25 -6.3 94.25 -2.1 94.05 1.75 93 10.3 90.65 17.05 83.9 22 78.9 24.55 73.05 27.4 66.5 27.4 58.9 27.4 44.25 17.05 33.9 7.25 24.1 -6.3 23.6 -7.1 23.55 -7.9 23.55 Z"/>

<path fill="#FF0000" stroke="none" d="
M -137.15 -208.5
Q -138.15 -204.05 -135.7 -200.2 -133.3 -196.35 -128.85 -195.35 -125.35 -194.6 -122.15 -195.95 -121.35 -196.3 -120.55 -196.8 -80.65 -222.05 -22.35 -241.05 -19.3 -242.05 -16.2 -243.05 -14.55 -243.6 -12.85 -244.1 -8.5 -245.45 -6.35 -249.45 -4.25 -253.5 -5.6 -257.85 -6.95 -262.2 -10.95 -264.3 -14.25 -266.05 -17.75 -265.45 -18.55 -265.35 -19.35 -265.1 -79.95 -246.3 -122.55 -221.35 -127.55 -218.4 -132.3 -215.4 -136.15 -212.95 -137.15 -208.5 Z"/>
</g>

<path id="Symbole_2_0_Layer2_0_1_STROKES" stroke="#3C3F3E" stroke-width="15" stroke-linejoin="round" stroke-linecap="round" fill="none" d="
M -0.4 -276.35
Q -0.5 -278.15 -0.85 -282.95 -2.3 -304.4 11.75 -320.65 25.85 -336.85 47.3 -338.35 68.75 -339.85 84.95 -325.75 101.25 -311.6 101.95 -298.05 104.2 -282.15 105.6 -258 109.75 -185.75 99.85 -134.5 99.25 -129.9 98.2 -125.45 91.85 -98.8 68.85 -78.3 52.3 -63.55 32.2 -56.5 32.3 -56.5 32.35 -56.5 46.4 -56.6 52.8 -50.2
L 131.25 40
Q 137.15 42.15 141.95 47 150.8 55.85 150.8 68.3 150.8 80.75 141.95 89.6 133.15 98.4 120.65 98.4 108.2 98.4 99.4 89.6 92.05 82.25 90.8 72.5
L 45.35 1.9
Q 44.9 4.35 44.05 6.6 42.15 11.35 38.25 15.25 38.15 15.35 38.1 15.4
L 34.25 33.2
Q 64 64.75 72.3 102.5 73.3 105.5 73.7 108.75 108.05 183.3 131.9 274.7 133.05 279.9 133.05 285.6 133.05 305.1 119.25 318.9 110.05 328.1 98.35 331.2 92.45 332.75 85.95 332.75 66.45 332.75 52.65 318.95 46.05 312.3 42.65 304.5 40.5 299.5 39.55 294.05 39.25 292.35 39.1 290.6 38.85 288.15 38.85 285.6 38.85 284.8 38.9 284 38.9 282.85 38.95 282.1 30.85 194.6 10.3 134.55 -1.2 132.55 -6.95 125.45 -14.95 132.8 -26.15 135.35 -50.45 214.3 -56.35 287.9 -56.45 290.45 -56.75 292.9 -57.55 299.4 -60.1 305.2
L -60.1 305.25
Q -63.55 313.1 -70.15 319.7 -83.95 333.5 -103.45 333.5 -109.95 333.5 -115.85 331.95 -127.55 328.95 -136.75 319.75 -150.5 305.95 -150.5 286.45 -150.5 282.15 -149.8 278.15 -139.35 203 -92.05 108.9 -91.7 106.05 -90.9 103.45 -82.6 65.25 -52.5 33.2
L -56.3 15.55
Q -56.45 15.4 -56.6 15.25 -62.3 9.6 -63.65 2.1
L -108.65 70.05
Q -109.75 80.35 -117.35 87.9 -126.2 96.75 -138.65 96.75 -151.1 96.75 -159.95 87.9 -168.8 79.1 -168.8 66.6 -168.8 54.15 -159.95 45.3 -154.05 39.4 -146.55 37.45
L -72.65 -47.7
Q -72 -48.6 -71.15 -49.45 -70.85 -49.85 -70.5 -50.2 -64.1 -56.6 -55.05 -56.6 -50 -56.6 -45.4 -55.65 -66.95 -62.7 -84.45 -78.3 -107.5 -98.85 -113.8 -125.45 -114.65 -129.05 -115.2 -132.7 -120.9 -161.1 -122.15 -195.95 -125.35 -194.6 -128.85 -195.35 -133.3 -196.35 -135.7 -200.2 -138.15 -204.05 -137.15 -208.5 -136.15 -212.95 -132.3 -215.4 -127.55 -218.4 -122.55 -221.35 -122.45 -238.95 -121.35 -258 -119.95 -282.15 -117.7 -298.05 -117 -311.6 -100.7 -325.75 -84.5 -339.85 -63.05 -338.35 -41.6 -336.85 -27.5 -320.65 -13.45 -304.4 -14.9 -282.95 -15.25 -278.15 -15.35 -276.35 -15.25 -276.7 -15.2 -277 -15.5 -274 -15.35 -276.35 -16.65 -270.75 -17.75 -265.45 -14.25 -266.05 -10.95 -264.3 -6.95 -262.2 -5.6 -257.85 -4.25 -253.5 -6.35 -249.45 -8.5 -245.45 -12.85 -244.1 -14.55 -243.6 -16.2 -243.05 -12.05 -243.3 -7.8 -243.3 -7.05 -243.3 -6.3 -243.3 0.15 -243.25 6.35 -242.55 3.95 -257.7 -0.4 -276.35 -0.25 -274 -0.55 -277 -0.5 -276.7 -0.4 -276.35 Z
M 32.2 -56.5
Q 30 -55.75 27.8 -55.05 30.25 -56.5 32.2 -56.5 Z
M 9.7 -51.1
Q 19.05 -52.4 27.8 -55.05
M 44.2 -28.6
Q 46.15 -18.45 42.1 -3.15
L 45.35 1.9
M 6.35 -242.55
Q 10.95 -213.9 8.75 -197.75
M -17.75 -265.45
Q -18.55 -265.35 -19.35 -265.1 -79.95 -246.3 -122.55 -221.35
M -122.15 -195.95
Q -121.35 -196.3 -120.55 -196.8 -80.65 -222.05 -22.35 -241.05 -19.3 -242.05 -16.2 -243.05
M -45.4 -55.65
Q -41.9 -54.55 -38.25 -53.6 -32.55 -52.2 -26.6 -51.3
M -62.35 -28.25
Q -63.7 -17.5 -60.3 -2.9
L -56.3 15.55
M -22.35 -241.05
Q -26.65 -213.45 -24.5 -197.75
M 17.05 83.9
Q 10.3 90.65 1.75 93 -2.1 94.05 -6.3 94.25 -7.1 94.25 -7.9 94.25 -11.95 94.25 -15.65 93.5 -16.45 93.3 -17.2 93.1 -26 90.75 -32.9 83.85 -43.25 73.5 -43.25 58.9 -43.25 44.25 -32.9 33.9 -22.55 23.55 -7.9 23.55 -7.1 23.55 -6.3 23.6 7.25 24.1 17.05 33.9 27.4 44.25 27.4 58.9 27.4 66.5 24.55 73.05 22 78.9 17.05 83.9 Z
M -90.9 103.45
Q -91.3 105.3 -91.65 107.15 -91.75 107.55 -91.8 107.95 -91.85 108.25 -91.9 108.6 -92.05 109.55 -92.2 110.6 -92.15 109.7 -92.05 108.9 -91.95 108.7 -91.9 108.6
M -6.95 125.45
L -6.95 112.55
M -47.05 138.8
Q -33.2 135.6 -26.15 135.35
M -56.75 292.9
L -56.35 286.45
Q -56.35 287.2 -56.35 287.9
M 72.3 102.5
Q 72.8 104.8 73.25 107.15 73.3 107.5 73.4 107.85 73.4 107.95 73.45 108.1 73.55 108.4 73.7 108.75 73.9 110 73.95 111.35 73.7 109.7 73.45 108.1
M 24.75 138.8
L 10.3 134.55
M 38.9 284
Q 38.85 286.4 39.1 290.6
M 42.1 -3.15
L 38.1 15.4
M -60.3 -2.9
L -63.65 2.1"/>

<path id="Symbole_2_0_Layer1_0_1_STROKES" stroke="#3C3F3E" stroke-width="15" stroke-linejoin="round" stroke-linecap="round" fill="none" d="
M -0.4 -276.35
Q -0.5 -278.15 -0.85 -282.95 -2.3 -304.4 11.75 -320.65 25.85 -336.85 47.3 -338.35 68.75 -339.85 84.95 -325.75 101.25 -311.6 101.95 -298.05 104.2 -282.15 105.6 -258 109.75 -185.75 99.85 -134.5 99.25 -129.9 98.2 -125.45 91.85 -98.8 68.85 -78.3 52.3 -63.55 32.2 -56.5 32.3 -56.5 32.35 -56.5 46.4 -56.6 52.8 -50.2
L 131.25 40
Q 137.15 42.15 141.95 47 150.8 55.85 150.8 68.3 150.8 80.75 141.95 89.6 133.15 98.4 120.65 98.4 108.2 98.4 99.4 89.6 92.05 82.25 90.8 72.5
L 45.35 1.9
Q 44.9 4.35 44.05 6.6 42.15 11.35 38.25 15.25 38.15 15.35 38.1 15.4
L 34.25 33.2
Q 64 64.75 72.3 102.5 73.3 105.5 73.7 108.75 108.05 183.3 131.9 274.7 133.05 279.9 133.05 285.6 133.05 305.1 119.25 318.9 110.05 328.1 98.35 331.2 92.45 332.75 85.95 332.75 66.45 332.75 52.65 318.95 46.05 312.3 42.65 304.5 40.5 299.5 39.55 294.05 39.25 292.35 39.1 290.6 38.85 288.15 38.85 285.6 38.85 284.8 38.9 284 38.9 282.85 38.95 282.1 30.85 194.6 10.3 134.55 -1.2 132.55 -6.95 125.45 -14.95 132.8 -26.15 135.35 -50.45 214.3 -56.35 287.9 -56.45 290.45 -56.75 292.9 -57.55 299.4 -60.1 305.2
L -60.1 305.25
Q -63.55 313.1 -70.15 319.7 -83.95 333.5 -103.45 333.5 -109.95 333.5 -115.85 331.95 -127.55 328.95 -136.75 319.75 -150.5 305.95 -150.5 286.45 -150.5 282.15 -149.8 278.15 -139.35 203 -92.05 108.9 -91.7 106.05 -90.9 103.45 -82.6 65.25 -52.5 33.2
L -56.3 15.55
Q -56.45 15.4 -56.6 15.25 -62.3 9.6 -63.65 2.1
L -108.65 70.05
Q -109.75 80.35 -117.35 87.9 -126.2 96.75 -138.65 96.75 -151.1 96.75 -159.95 87.9 -168.8 79.1 -168.8 66.6 -168.8 54.15 -159.95 45.3 -154.05 39.4 -146.55 37.45
L -72.65 -47.7
Q -72 -48.6 -71.15 -49.45 -70.85 -49.85 -70.5 -50.2 -64.1 -56.6 -55.05 -56.6 -50 -56.6 -45.4 -55.65 -66.95 -62.7 -84.45 -78.3 -107.5 -98.85 -113.8 -125.45 -114.65 -129.05 -115.2 -132.7 -120.9 -161.1 -122.15 -195.95 -125.35 -194.6 -128.85 -195.35 -133.3 -196.35 -135.7 -200.2 -138.15 -204.05 -137.15 -208.5 -136.15 -212.95 -132.3 -215.4 -127.55 -218.4 -122.55 -221.35 -122.45 -238.95 -121.35 -258 -119.95 -282.15 -117.7 -298.05 -117 -311.6 -100.7 -325.75 -84.5 -339.85 -63.05 -338.35 -41.6 -336.85 -27.5 -320.65 -13.45 -304.4 -14.9 -282.95 -15.25 -278.15 -15.35 -276.35 -15.25 -276.7 -15.2 -277 -15.5 -274 -15.35 -276.35 -16.65 -270.75 -17.75 -265.45 -14.25 -266.05 -10.95 -264.3 -6.95 -262.2 -5.6 -257.85 -4.25 -253.5 -6.35 -249.45 -8.5 -245.45 -12.85 -244.1 -14.55 -243.6 -16.2 -243.05 -12.05 -243.3 -7.8 -243.3 -7.05 -243.3 -6.3 -243.3 0.15 -243.25 6.35 -242.55 3.95 -257.7 -0.4 -276.35 -0.25 -274 -0.55 -277 -0.5 -276.7 -0.4 -276.35 Z
M 9.7 -51.1
Q 19.05 -52.4 27.8 -55.05 30.25 -56.5 32.2 -56.5 30 -55.75 27.8 -55.05
M 44.2 -28.6
Q 46.15 -18.45 42.1 -3.15
L 45.35 1.9
M 6.35 -242.55
Q 10.95 -213.9 8.75 -197.75
M -17.75 -265.45
Q -18.55 -265.35 -19.35 -265.1 -79.95 -246.3 -122.55 -221.35
M -122.15 -195.95
Q -121.35 -196.3 -120.55 -196.8 -80.65 -222.05 -22.35 -241.05 -19.3 -242.05 -16.2 -243.05
M -45.4 -55.65
Q -41.9 -54.55 -38.25 -53.6 -32.55 -52.2 -26.6 -51.3
M -62.35 -28.25
Q -63.7 -17.5 -60.3 -2.9
L -56.3 15.55
M -22.35 -241.05
Q -26.65 -213.45 -24.5 -197.75
M 17.05 83.9
Q 10.3 90.65 1.75 93 -2.1 94.05 -6.3 94.25 -7.1 94.25 -7.9 94.25 -11.95 94.25 -15.65 93.5 -16.45 93.3 -17.2 93.1 -26 90.75 -32.9 83.85 -43.25 73.5 -43.25 58.9 -43.25 44.25 -32.9 33.9 -22.55 23.55 -7.9 23.55 -7.1 23.55 -6.3 23.6 7.25 24.1 17.05 33.9 27.4 44.25 27.4 58.9 27.4 66.5 24.55 73.05 22 78.9 17.05 83.9 Z
M -91.9 108.6
Q -91.95 108.7 -92.05 108.9 -92.15 109.7 -92.2 110.6 -92.05 109.55 -91.9 108.6 -91.85 108.25 -91.8 107.95 -91.75 107.55 -91.65 107.15 -91.3 105.3 -90.9 103.45
M -6.95 125.45
L -6.95 112.55
M -47.05 138.8
Q -33.2 135.6 -26.15 135.35
M -56.75 292.9
L -56.35 286.45
Q -56.35 287.2 -56.35 287.9
M 73.45 108.1
Q 73.7 109.7 73.95 111.35 73.9 110 73.7 108.75 73.55 108.4 73.45 108.1 73.4 107.95 73.4 107.85 73.3 107.5 73.25 107.15 72.8 104.8 72.3 102.5
M 24.75 138.8
L 10.3 134.55
M 38.9 284
Q 38.85 286.4 39.1 290.6
M -60.3 -2.9
L -63.65 2.1
M 42.1 -3.15
L 38.1 15.4"/>

<path id="Symbole_2_0_Layer0_0_1_STROKES" stroke="#3D3F3E" stroke-width="2" stroke-linejoin="miter" stroke-linecap="square" stroke-miterlimit="3" fill="none" d="
M -0.4 -276.35
Q -0.5 -278.15 -0.85 -282.95 -2.3 -304.4 11.75 -320.65 25.85 -336.85 47.3 -338.35 68.75 -339.85 84.95 -325.75 101.25 -311.6 101.95 -298.05 104.2 -282.15 105.6 -258 109.75 -185.75 99.85 -134.5 99.25 -129.9 98.2 -125.45 91.85 -98.8 68.85 -78.3 52.3 -63.55 32.2 -56.5 32.3 -56.5 32.35 -56.5 46.4 -56.6 52.8 -50.2
L 131.25 40
Q 137.15 42.15 141.95 47 150.8 55.85 150.8 68.3 150.8 80.75 141.95 89.6 133.15 98.4 120.65 98.4 108.2 98.4 99.4 89.6 92.05 82.25 90.8 72.5
L 45.35 1.9
Q 44.9 4.35 44.05 6.6 42.15 11.35 38.25 15.25 38.15 15.35 38.1 15.4
L 34.25 33.2
Q 64 64.75 72.3 102.5 73.3 105.5 73.7 108.75 108.05 183.3 131.9 274.7 133.05 279.9 133.05 285.6 133.05 305.1 119.25 318.9 110.05 328.1 98.35 331.2 92.45 332.75 85.95 332.75 66.45 332.75 52.65 318.95 46.05 312.3 42.65 304.5 40.5 299.5 39.55 294.05 39.25 292.35 39.1 290.6 38.85 288.15 38.85 285.6 38.85 284.8 38.9 284 38.9 282.85 38.95 282.1 30.85 194.6 10.3 134.55 -1.2 132.55 -6.95 125.45 -14.95 132.8 -26.15 135.35 -50.45 214.3 -56.35 287.9 -56.45 290.45 -56.75 292.9 -57.55 299.4 -60.1 305.2
L -60.1 305.25
Q -63.55 313.1 -70.15 319.7 -83.95 333.5 -103.45 333.5 -109.95 333.5 -115.85 331.95 -127.55 328.95 -136.75 319.75 -150.5 305.95 -150.5 286.45 -150.5 282.15 -149.8 278.15 -139.35 203 -92.05 108.9 -91.7 106.05 -90.9 103.45 -82.6 65.25 -52.5 33.2
L -56.3 15.55
Q -56.45 15.4 -56.6 15.25 -62.3 9.6 -63.65 2.1
L -108.65 70.05
Q -109.75 80.35 -117.35 87.9 -126.2 96.75 -138.65 96.75 -151.1 96.75 -159.95 87.9 -168.8 79.1 -168.8 66.6 -168.8 54.15 -159.95 45.3 -154.05 39.4 -146.55 37.45
L -72.65 -47.7
Q -72 -48.6 -71.15 -49.45 -70.85 -49.85 -70.5 -50.2 -64.1 -56.6 -55.05 -56.6 -50 -56.6 -45.4 -55.65 -66.95 -62.7 -84.45 -78.3 -107.5 -98.85 -113.8 -125.45 -114.65 -129.05 -115.2 -132.7 -120.9 -161.1 -122.15 -195.95 -125.35 -194.6 -128.85 -195.35 -133.3 -196.35 -135.7 -200.2 -138.15 -204.05 -137.15 -208.5 -136.15 -212.95 -132.3 -215.4 -127.55 -218.4 -122.55 -221.35 -122.45 -238.95 -121.35 -258 -119.95 -282.15 -117.7 -298.05 -117 -311.6 -100.7 -325.75 -84.5 -339.85 -63.05 -338.35 -41.6 -336.85 -27.5 -320.65 -13.45 -304.4 -14.9 -282.95 -15.25 -278.15 -15.35 -276.35 -15.25 -276.7 -15.2 -277 -15.5 -274 -15.35 -276.35 -16.65 -270.75 -17.75 -265.45 -14.25 -266.05 -10.95 -264.3 -6.95 -262.2 -5.6 -257.85 -4.25 -253.5 -6.35 -249.45 -8.5 -245.45 -12.85 -244.1 -14.55 -243.6 -16.2 -243.05 -12.05 -243.3 -7.8 -243.3 -7.05 -243.3 -6.3 -243.3 0.15 -243.25 6.35 -242.55 3.95 -257.7 -0.4 -276.35 -0.25 -274 -0.55 -277 -0.5 -276.7 -0.4 -276.35 Z
M 6.35 -242.55
Q 7.95 -232.6 8.75 -224.1
M 32.2 -56.5
Q 30 -55.75 27.8 -55.05 30.25 -56.5 32.2 -56.5 Z
M 9.7 -51.1
Q 19.05 -52.4 27.8 -55.05
M 44.2 -28.6
Q 46.15 -18.45 42.1 -3.15
L 45.35 1.9
M -17.75 -265.45
Q -18.55 -265.35 -19.35 -265.1 -79.95 -246.3 -122.55 -221.35
M -122.15 -195.95
Q -121.35 -196.3 -120.55 -196.8 -80.65 -222.05 -22.35 -241.05 -19.3 -242.05 -16.2 -243.05
M -22.35 -241.05
Q -23.95 -230.9 -24.65 -222.3
M -45.4 -55.65
Q -41.9 -54.55 -38.25 -53.6 -32.55 -52.2 -26.6 -51.3
M -62.35 -28.25
Q -63.7 -17.5 -60.3 -2.9
L -56.3 15.55
M 17.05 83.9
Q 10.3 90.65 1.75 93 -2.1 94.05 -6.3 94.25 -7.1 94.25 -7.9 94.25 -11.95 94.25 -15.65 93.5 -16.45 93.3 -17.2 93.1 -26 90.75 -32.9 83.85 -43.25 73.5 -43.25 58.9 -43.25 44.25 -32.9 33.9 -22.55 23.55 -7.9 23.55 -7.1 23.55 -6.3 23.6 7.25 24.1 17.05 33.9 27.4 44.25 27.4 58.9 27.4 66.5 24.55 73.05 22 78.9 17.05 83.9 Z
M -91.9 108.6
Q -91.95 108.7 -92.05 108.9 -92.15 109.7 -92.2 110.6 -92.05 109.55 -91.9 108.6 -91.85 108.25 -91.8 107.95 -91.75 107.55 -91.65 107.15 -91.3 105.3 -90.9 103.45
M -56.75 292.9
L -56.35 286.45
Q -56.35 287.2 -56.35 287.9
M 73.45 108.1
Q 73.7 109.7 73.95 111.35 73.9 110 73.7 108.75 73.55 108.4 73.45 108.1 73.4 107.95 73.4 107.85 73.3 107.5 73.25 107.15 72.8 104.8 72.3 102.5
M 38.9 284
Q 38.85 286.4 39.1 290.6
M 42.1 -3.15
L 38.1 15.4
M -60.3 -2.9
L -63.65 2.1"/>
</defs>

<g transform="matrix( 0.46343994140625, 0, 0, 0.46343994140625, 109.05,177) ">
<g transform="matrix( 1, 0, 0, 1, 0,0) ">
<use xlink:href="#Symbole_2_0_Layer2_0_FILL"/>

<use xlink:href="#Symbole_2_0_Layer2_0_1_STROKES"/>
</g>

<g transform="matrix( 1, 0, 0, 1, 0,0) ">
<use xlink:href="#Symbole_2_0_Layer1_0_FILL"/>

<use xlink:href="#Symbole_2_0_Layer1_0_1_STROKES"/>
</g>

<g transform="matrix( 1, 0, 0, 1, 0,0) ">
<use xlink:href="#Symbole_2_0_Layer0_0_FILL"/>

<use xlink:href="#Symbole_2_0_Layer0_0_1_STROKES"/>
</g>
</g>
</svg>
