
<svg xmlns="http://www.w3.org/2000/svg" version="1.1" xmlns:xlink="http://www.w3.org/1999/xlink" preserveAspectRatio="none" x="0px" y="0px" width="200px" height="350px" viewBox="0 0 200 350">
<defs>
<g id="Symbole_2_0_Layer2_0_FILL">
<path fill="#660000" stroke="none" d="
M -66.85 -22.1
Q -73.45 -17.1 -75.35 -12.3 -77 -8 -77 -3 -77 2 -75.35 6.3 -75.15 6.8 -74.9 7.3
L -59.55 -26.95
Q -62.95 -25.05 -66.85 -22.1
M -58.9 -234.4
L -58.9 -234.45
Q -58.95 -234.65 -59 -234.85
L -59.2 -235.5
Q -59.0400390625 -234.9572265625 -58.9 -234.4
M 55.5 39.15
Q 53.6 36.4 51.1 33.9 40.75 23.55 26.15 23.55 25.3 23.55 24.45 23.6 20.95 23.75 17.7 24.5 8.4 26.65 1.15 33.9 -4.1 39.15 -6.7 45.55 -6.9 46 -7.05 46.45 -9.2 52.2 -9.2 58.9 -9.2 65.4 -7.15 71.1 -6.95 71.65 -6.7 72.25 -5.1 76.2 -2.5 79.7 -0.85 81.85 1.15 83.85 8.05 90.75 16.85 93.1 21.25 94.25 26.15 94.25 31.9 94.25 37 92.65 40.1 91.65 43 90.1 47.35 87.65 51.1 83.9 52.65 82.35 53.95 80.7 56.85 77.05 58.6 73.05 61.45 66.5 61.45 58.9 61.45 47.8 55.5 39.15
M 37.25 -263.15
L 37.25 -263.1 40.1 -248.3
Q 40.15 -247.2 39.75 -246.05 38.55 -242.45 33.1 -238.25 11.3 -221.4 -15.25 -217.8 -43.9 -214 -55.4 -218.9 -55.65 -219.05 -55.9 -219.15 -56 -220.65 -56.05 -222.15
L -56.05 -222.2
Q -56.15 -222.55 -56.2 -222.9 -56.75 -225.25 -57.25 -227.5 -58.05 -230.9 -58.85 -234.2 -58.8736328125 -234.294140625 -58.9 -234.4 -59.0400390625 -234.9572265625 -59.2 -235.5
L -59.55 -236.85
Q -72.7 -230.85 -75.25 -223.35 -77.6 -216.4 -77.25 -212.05 -77.25 -211.7 -77.2 -211.35 -76.7 -207.5 -73.85 -204.8 -66.85 -197.15 -51.25 -194.95 -35.95 -192.85 -12.35 -196
L -12.3 -196
Q 15 -199.65 42.6 -218.6 46.95 -221.6 51.3 -225 54.45 -227.8 56.65 -230.6 65.2 -241.7 59.05 -252.6 51.25 -266.35 37.25 -263.15
M 28.7 -300.7
Q 27.15 -306.4 24.2 -311.6 21.55 -316.3 17.8 -320.65 3.7 -336.85 -17.75 -338.35 -39.2 -339.85 -55.4 -325.75 -71.7 -311.6 -73.15 -290.15 -74 -277.9 -69.75 -267.35 -69.4 -266.55 -69.1 -265.75 -63.5591796875 -252.6443359375 -59.2 -235.5
L -59 -234.85
Q -58.95 -234.65 -58.9 -234.45
L -58.9 -234.4
Q -58.8736328125 -234.294140625 -58.85 -234.2 -58.05 -230.9 -57.25 -227.5 -56.75 -225.25 -56.2 -222.9 -56.15 -222.55 -56.05 -222.2
L -56.05 -222.15
Q -55.75 -220.55 -55.4 -218.9 -43.9 -214 -15.25 -217.8 11.3 -221.4 33.1 -238.25 38.55 -242.45 39.75 -246.05 38.65 -254.9 37.25 -263.1
L 37.25 -263.15
Q 34.05 -281.85 29.5 -297.2 29.15 -299 28.7 -300.7
M 120.65 -298
Q 117.15 -314.15 103.8 -325.75 87.6 -339.85 66.15 -338.35 44.7 -336.85 30.6 -320.65 26.85 -316.3 24.2 -311.6 27.15 -306.4 28.7 -300.7 29.15 -299 29.5 -297.2 34.05 -281.85 37.25 -263.15 51.25 -266.35 59.05 -252.6 65.2 -241.7 56.65 -230.6 68.6 -224.35 79.15 -214.95 84.85 -209.85 89.55 -204.35 84.85 -209.85 79.15 -214.95 68.6 -224.35 56.65 -230.6 54.45 -227.8 51.3 -225 46.95 -221.6 42.6 -218.6 43.25 -210.15 43.7 -201.2 43.25 -210.15 42.6 -218.6 15 -199.65 -12.3 -196
L -12.35 -196
Q -35.95 -192.85 -51.25 -194.95 -50.8 -192 -50.4 -189 -50.8 -192 -51.25 -194.95 -66.85 -197.15 -73.85 -204.8 -76.7 -207.5 -77.2 -211.35 -77.25 -211.7 -77.25 -212.05 -98.4 -191.9 -103.95 -165.95 -105.95 -156.65 -105.95 -146.65 -105.95 -106.65 -74.15 -78.3 -56.2 -62.3 -34.1 -55.35 -27.75 -53.35 -21.1 -52.1 -20.3 -52 -19.55 -51.85 -20.3 -52 -21.1 -52.1 -27.75 -53.35 -34.1 -55.35 -42.3 -54.9 -48.2 -49 -50.15 -47.05 -51.5 -44.8
L -59.55 -26.95 -74.9 7.3 -90.7 42.45
Q -93.1 44.1 -95.3 46.3 -104.15 55.15 -104.15 67.6 -104.15 80.1 -95.3 88.9 -86.45 97.75 -74 97.75 -72.55 97.75 -71.1 97.65 -67.4 97.3 -64.05 96.15 -57.75 93.95 -52.7 88.9 -49.25 85.45 -47.15 81.45 -43.85 75.2 -43.85 67.6 -43.85 63.4 -44.85 59.65
L -19.15 -23.05 -44.85 59.65
Q -43.85 63.4 -43.85 67.6 -43.85 75.2 -47.15 81.45 -49.25 85.45 -52.7 88.9 -57.75 93.95 -64.05 96.15 -67.4 97.3 -71.1 97.65 -70.3 103.7 -68.5 109.3 -68.453125 109.253125 -68.45 109.15 -68.451953125 109.30625 -68.5 109.45 -68.5 109.35 -68.5 109.3 -82.2 142.8 -85.65 181.3 -89.65 226.85 -100.85 267.9 -102 272.35 -103.55 276.65 -104.45 281.35 -104.45 286.45 -104.45 305.95 -90.7 319.75 -81.5 328.95 -69.8 331.95 -63.9 333.5 -57.4 333.5 -37.9 333.5 -24.1 319.7 -17.5 313.1 -14.1 305.25
L -14.05 305.2
Q -10.85 297.85 -10.4 289.3 -10.3 288.25 -10.3 287.2 -10.3 286.8 -10.3 286.45 -10.3 286.1 -10.3 285.75 -8.65 241.85 -10.25 205.6 -10.45 200.95 -10.5 196.45 -10.85 171.55 -6.7 151.35 -5.5 145.4 -3.9 139.9 -3.25 137.6 -2.5 135.35 -11.7 139.65 -24.6 138.8 -11.7 139.65 -2.5 135.35 10.55 128.2 10.8 109.9 10.55 128.2 -2.5 135.35 10.2 139.9 20.7 140.35 10.2 139.9 -2.5 135.35 -3.25 137.6 -3.9 139.9 -5.5 145.4 -6.7 151.35 -10.85 171.55 -10.5 196.45 -7.55 212.9 -6.7 231 -5.95 246.25 -6.7 262.65 -7 269.55 -7.6 276.7 -8.05 282.45 -8.7 288.3 -8.65 288.9 -8.65 289.55 -8.35 294.8 -6.7 299.75 -6.65 300 -6.55 300.25 -4.25 308.8 1.2 315.9 13.1 331.4 32.4 333.95 38.85 334.8 44.9 334 56.85 332 67.2 324.1 82.65 312.2 85.15 292.9 85.85 287.45 85.45 282.35 85.35 281.2 85.2 280.05 81.8 228.9 64.3 183.7 54.7 158.95 51.1 132.4 58.15 123.75 59.6 114.45 60.65 107.8 59.4 99.25 58.75 94.55 57.4 89.25 56.4 85.45 53.95 80.7 52.65 82.35 51.1 83.9 47.35 87.65 43 90.1 40.1 91.65 37 92.65 31.9 94.25 26.15 94.25 21.25 94.25 16.85 93.1 8.05 90.75 1.15 83.85 -0.85 81.85 -2.5 79.7 -5.1 76.2 -6.7 72.25 -6.95 71.65 -7.15 71.1 -9.2 65.4 -9.2 58.9 -9.2 52.2 -7.05 46.45 -6.9 46 -6.7 45.55 -4.1 39.15 1.15 33.9 8.4 26.65 17.7 24.5 20.95 23.75 24.45 23.6
L 34.7 -28.85
Q 34.75 -29.15 34.8 -29.45 34.75 -29.15 34.7 -28.85
L 24.45 23.6
Q 25.3 23.55 26.15 23.55 40.75 23.55 51.1 33.9 53.6 36.4 55.5 39.15 61.45 47.8 61.45 58.9 61.45 66.5 58.6 73.05 56.85 77.05 53.95 80.7 56.4 85.45 57.4 89.25 58.75 94.55 59.4 99.25 69.75 98.15 77.3 90.6 86.15 81.75 86.15 69.3 86.15 58.3 79.25 50.15
L 38.2 -40.35
Q 32.6 -52.7 23.25 -51.6 16.8 -50.55 10.05 -50.2 16.8 -50.55 23.25 -51.6 23.85 -51.7 24.4 -51.8 25.65 -52 26.85 -52.25 27.35 -52.35 27.8 -52.45 56.75 -58.35 79.15 -78.3 100.95 -97.8 107.8 -122.75 128.95 -179.3 124.45 -258 123.35 -276.75 121.75 -290.5 121.75 -290.6 121.75 -290.75 121.55 -293.45 121.05 -296 120.9 -297.05 120.65 -298 Z"/>
</g>

<g id="Symbole_2_0_Layer1_0_FILL">
<path fill="#660000" stroke="none" d="
M -75.35 -12.3
Q -77 -8 -77 -3 -77 2 -75.35 6.3 -75.15 6.8 -74.9 7.3
L -59.55 -26.95
Q -62.95 -25.05 -66.85 -22.1 -73.45 -17.1 -75.35 -12.3
M -58.9 -234.4
L -58.9 -234.45
Q -58.95 -234.65 -59 -234.85
L -59.2 -235.5
Q -59.0400390625 -234.9572265625 -58.9 -234.4
M 55.5 39.15
Q 53.6 36.4 51.1 33.9 40.75 23.55 26.15 23.55 25.3 23.55 24.45 23.6 20.95 23.75 17.7 24.5 8.4 26.65 1.15 33.9 -4.1 39.15 -6.7 45.55 -6.9 46 -7.05 46.45 -9.2 52.2 -9.2 58.9 -9.2 65.4 -7.15 71.1 -6.95 71.65 -6.7 72.25 -5.1 76.2 -2.5 79.7 -0.85 81.85 1.15 83.85 8.05 90.75 16.85 93.1 21.25 94.25 26.15 94.25 31.9 94.25 37 92.65 40.1 91.65 43 90.1 47.35 87.65 51.1 83.9 52.65 82.35 53.95 80.7 56.85 77.05 58.6 73.05 61.45 66.5 61.45 58.9 61.45 47.8 55.5 39.15
M 37.25 -263.1
L 40.1 -248.3
Q 40.15 -247.2 39.75 -246.05 38.55 -242.45 33.1 -238.25 11.3 -221.4 -15.25 -217.8 -43.9 -214 -55.4 -218.9 -55.65 -219.05 -55.9 -219.15 -56 -220.65 -56.05 -222.15
L -56.05 -222.2
Q -56.15 -222.55 -56.2 -222.9 -56.75 -225.25 -57.25 -227.5 -58.05 -230.9 -58.85 -234.2 -58.8736328125 -234.294140625 -58.9 -234.4 -59.0400390625 -234.9572265625 -59.2 -235.5
L -59.55 -236.85
Q -72.7 -230.85 -75.25 -223.35 -77.6 -216.4 -77.25 -212.05 -77.25 -211.7 -77.2 -211.35 -76.7 -207.5 -73.85 -204.8 -66.85 -197.15 -51.25 -194.95 -35.95 -192.85 -12.35 -196
L -12.3 -196
Q 15 -199.65 42.6 -218.6 46.95 -221.6 51.3 -225 54.45 -227.8 56.65 -230.6 65.2 -241.7 59.05 -252.6 51.25 -266.35 37.25 -263.15
L 37.25 -263.1
M 24.2 -311.6
Q 21.55 -316.3 17.8 -320.65 3.7 -336.85 -17.75 -338.35 -39.2 -339.85 -55.4 -325.75 -71.7 -311.6 -73.15 -290.15 -74 -277.9 -69.75 -267.35 -69.4 -266.55 -69.1 -265.75 -63.5591796875 -252.6443359375 -59.2 -235.5
L -59 -234.85
Q -58.95 -234.65 -58.9 -234.45
L -58.9 -234.4
Q -58.8736328125 -234.294140625 -58.85 -234.2 -58.05 -230.9 -57.25 -227.5 -56.75 -225.25 -56.2 -222.9 -56.15 -222.55 -56.05 -222.2
L -56.05 -222.15
Q -55.75 -220.55 -55.4 -218.9 -43.9 -214 -15.25 -217.8 11.3 -221.4 33.1 -238.25 38.55 -242.45 39.75 -246.05 38.65 -254.9 37.25 -263.1
L 37.25 -263.15
Q 34.05 -281.85 29.5 -297.2 29.15 -299 28.7 -300.7 27.15 -306.4 24.2 -311.6
M 120.65 -298
Q 117.15 -314.15 103.8 -325.75 87.6 -339.85 66.15 -338.35 44.7 -336.85 30.6 -320.65 26.85 -316.3 24.2 -311.6 27.15 -306.4 28.7 -300.7 29.15 -299 29.5 -297.2 34.05 -281.85 37.25 -263.15 51.25 -266.35 59.05 -252.6 65.2 -241.7 56.65 -230.6 68.6 -224.35 79.15 -214.95 84.85 -209.85 89.55 -204.35 84.85 -209.85 79.15 -214.95 68.6 -224.35 56.65 -230.6 54.45 -227.8 51.3 -225 46.95 -221.6 42.6 -218.6 43.25 -210.15 43.7 -201.2 43.25 -210.15 42.6 -218.6 15 -199.65 -12.3 -196
L -12.35 -196
Q -35.95 -192.85 -51.25 -194.95 -50.8 -192 -50.4 -189 -50.8 -192 -51.25 -194.95 -66.85 -197.15 -73.85 -204.8 -76.7 -207.5 -77.2 -211.35 -77.25 -211.7 -77.25 -212.05 -98.4 -191.9 -103.95 -165.95 -105.95 -156.65 -105.95 -146.65 -105.95 -106.65 -74.15 -78.3 -56.2 -62.3 -34.1 -55.35 -27.75 -53.35 -21.1 -52.1 -20.3 -52 -19.55 -51.85 -20.3 -52 -21.1 -52.1 -27.75 -53.35 -34.1 -55.35 -42.3 -54.9 -48.2 -49 -50.15 -47.05 -51.5 -44.8
L -59.55 -26.95 -74.9 7.3 -90.7 42.45
Q -93.1 44.1 -95.3 46.3 -104.15 55.15 -104.15 67.6 -104.15 80.1 -95.3 88.9 -86.45 97.75 -74 97.75 -72.55 97.75 -71.1 97.65 -67.4 97.3 -64.05 96.15 -57.75 93.95 -52.7 88.9 -49.25 85.45 -47.15 81.45 -43.85 75.2 -43.85 67.6 -43.85 63.4 -44.85 59.65
L -19.15 -23.05 -44.85 59.65
Q -43.85 63.4 -43.85 67.6 -43.85 75.2 -47.15 81.45 -49.25 85.45 -52.7 88.9 -57.75 93.95 -64.05 96.15 -67.4 97.3 -71.1 97.65 -70.3 103.7 -68.5 109.3 -68.453125 109.253125 -68.45 109.15 -68.451953125 109.30625 -68.5 109.45 -68.5 109.35 -68.5 109.3 -82.2 142.8 -85.65 181.3 -89.65 226.85 -100.85 267.9 -102 272.35 -103.55 276.65 -104.45 281.35 -104.45 286.45 -104.45 305.95 -90.7 319.75 -81.5 328.95 -69.8 331.95 -63.9 333.5 -57.4 333.5 -37.9 333.5 -24.1 319.7 -17.5 313.1 -14.1 305.25
L -14.05 305.2
Q -10.85 297.85 -10.4 289.3 -10.3 288.25 -10.3 287.2 -10.3 286.8 -10.3 286.45 -10.3 286.1 -10.3 285.75 -8.65 241.85 -10.25 205.6 -10.45 200.95 -10.5 196.45 -10.85 171.55 -6.7 151.35 -5.5 145.4 -3.9 139.9 -3.25 137.6 -2.5 135.35 -11.7 139.65 -24.6 138.8 -11.7 139.65 -2.5 135.35 10.55 128.2 10.8 109.9 10.55 128.2 -2.5 135.35 10.2 139.9 20.7 140.35 10.2 139.9 -2.5 135.35 -3.25 137.6 -3.9 139.9 -5.5 145.4 -6.7 151.35 -10.85 171.55 -10.5 196.45 -7.55 212.9 -6.7 231 -5.95 246.25 -6.7 262.65 -7 269.55 -7.6 276.7 -8.05 282.45 -8.7 288.3 -8.65 288.9 -8.65 289.55 -8.35 294.8 -6.7 299.75 -6.65 300 -6.55 300.25 -4.25 308.8 1.2 315.9 13.1 331.4 32.4 333.95 38.85 334.8 44.9 334 56.85 332 67.2 324.1 82.65 312.2 85.15 292.9 85.85 287.45 85.45 282.35 85.35 281.2 85.2 280.05 81.8 228.9 64.3 183.7 54.7 158.95 51.1 132.4 58.15 123.75 59.6 114.45 60.65 107.8 59.4 99.25 58.75 94.55 57.4 89.25 56.4 85.45 53.95 80.7 52.65 82.35 51.1 83.9 47.35 87.65 43 90.1 40.1 91.65 37 92.65 31.9 94.25 26.15 94.25 21.25 94.25 16.85 93.1 8.05 90.75 1.15 83.85 -0.85 81.85 -2.5 79.7 -5.1 76.2 -6.7 72.25 -6.95 71.65 -7.15 71.1 -9.2 65.4 -9.2 58.9 -9.2 52.2 -7.05 46.45 -6.9 46 -6.7 45.55 -4.1 39.15 1.15 33.9 8.4 26.65 17.7 24.5 20.95 23.75 24.45 23.6
L 34.7 -28.85
Q 34.75 -29.15 34.8 -29.45 34.75 -29.15 34.7 -28.85
L 24.45 23.6
Q 25.3 23.55 26.15 23.55 40.75 23.55 51.1 33.9 53.6 36.4 55.5 39.15 61.45 47.8 61.45 58.9 61.45 66.5 58.6 73.05 56.85 77.05 53.95 80.7 56.4 85.45 57.4 89.25 58.75 94.55 59.4 99.25 69.75 98.15 77.3 90.6 86.15 81.75 86.15 69.3 86.15 58.3 79.25 50.15
L 38.2 -40.35
Q 32.6 -52.7 23.25 -51.6 16.8 -50.55 10.05 -50.2 16.8 -50.55 23.25 -51.6 23.85 -51.7 24.4 -51.8 25.65 -52 26.85 -52.25 27.35 -52.35 27.8 -52.45 56.75 -58.35 79.15 -78.3 100.95 -97.8 107.8 -122.75 128.95 -179.3 124.45 -258 123.35 -276.75 121.75 -290.5 121.75 -290.6 121.75 -290.75 121.55 -293.45 121.05 -296 120.9 -297.05 120.65 -298 Z"/>
</g>

<g id="Symbole_2_0_Layer0_0_FILL">
<path fill="#FFB19C" stroke="none" d="
M -66.85 -22.1
Q -73.45 -17.1 -75.35 -12.3 -77 -8 -77 -3 -77 2 -75.35 6.3 -75.15 6.8 -74.9 7.3
L -59.55 -26.95
Q -62.95 -25.05 -66.85 -22.1
M 55.5 39.15
Q 53.6 36.4 51.1 33.9 40.75 23.55 26.15 23.55 25.3 23.55 24.45 23.6 20.95 23.75 17.7 24.5 8.4 26.65 1.15 33.9 -4.1 39.15 -6.7 45.55 -6.9 46 -7.05 46.45 -9.2 52.2 -9.2 58.9 -9.2 65.4 -7.15 71.1 -6.95 71.65 -6.7 72.25 -5.1 76.2 -2.5 79.7 -0.85 81.85 1.15 83.85 8.05 90.75 16.85 93.1 21.25 94.25 26.15 94.25 31.9 94.25 37 92.65 40.1 91.65 43 90.1 47.35 87.65 51.1 83.9 52.65 82.35 53.95 80.7 56.85 77.05 58.6 73.05 61.45 66.5 61.45 58.9 61.45 47.8 55.5 39.15
M 28.7 -300.7
Q 27.15 -306.4 24.2 -311.6 21.55 -316.3 17.8 -320.65 3.7 -336.85 -17.75 -338.35 -39.2 -339.85 -55.4 -325.75 -71.7 -311.6 -73.15 -290.15 -74 -277.9 -69.75 -267.35 -69.4 -266.55 -69.1 -265.75 -63.5591796875 -252.6443359375 -59.2 -235.5
L -59 -234.85
Q -58.95 -234.65 -58.9 -234.45
L -58.9 -234.4
Q -58.8736328125 -234.294140625 -58.85 -234.2 -58.05 -230.9 -57.25 -227.5 -56.75 -225.25 -56.2 -222.9 -56.15 -222.55 -56.05 -222.2
L -56.05 -222.15
Q -55.75 -220.55 -55.4 -218.9 -43.9 -214 -15.25 -217.8 11.3 -221.4 33.1 -238.25 38.55 -242.45 39.75 -246.05 38.65 -254.9 37.25 -263.1
L 37.25 -263.15
Q 34.05 -281.85 29.5 -297.2 29.15 -299 28.7 -300.7
M 120.65 -298
Q 117.15 -314.15 103.8 -325.75 87.6 -339.85 66.15 -338.35 44.7 -336.85 30.6 -320.65 26.85 -316.3 24.2 -311.6 27.15 -306.4 28.7 -300.7 29.15 -299 29.5 -297.2 34.05 -281.85 37.25 -263.15 51.25 -266.35 59.05 -252.6 65.2 -241.7 56.65 -230.6 67.8 -224.75 77.75 -216.15 67.8 -224.75 56.65 -230.6 54.45 -227.8 51.3 -225 46.95 -221.6 42.6 -218.6 43.25 -210.15 43.7 -201.2 43.25 -210.15 42.6 -218.6 15 -199.65 -12.3 -196
L -12.35 -196
Q -35.95 -192.85 -51.25 -194.95 -66.85 -197.15 -73.85 -204.8 -76.7 -207.5 -77.2 -211.35 -77.25 -211.7 -77.25 -212.05 -98.4 -191.9 -103.95 -165.95 -105.95 -156.65 -105.95 -146.65 -105.95 -106.65 -74.15 -78.3 -56.2 -62.3 -34.1 -55.35 -27.75 -53.35 -21.1 -52.1 -20.3 -52 -19.55 -51.85 -20.3 -52 -21.1 -52.1 -27.75 -53.35 -34.1 -55.35 -42.3 -54.9 -48.2 -49 -50.15 -47.05 -51.5 -44.8 -51.6 -44.65 -51.7 -44.5
L -59.55 -26.95 -74.9 7.3 -90.7 42.45
Q -93.1 44.1 -95.3 46.3 -104.15 55.15 -104.15 67.6 -104.15 80.1 -95.3 88.9 -86.45 97.75 -74 97.75 -72.55 97.75 -71.1 97.65 -67.4 97.3 -64.05 96.15 -57.75 93.95 -52.7 88.9 -49.25 85.45 -47.15 81.45 -43.85 75.2 -43.85 67.6 -43.85 63.4 -44.85 59.65
L -19.15 -23.05 -44.85 59.65
Q -43.85 63.4 -43.85 67.6 -43.85 75.2 -47.15 81.45 -49.25 85.45 -52.7 88.9 -57.75 93.95 -64.05 96.15 -67.4 97.3 -71.1 97.65 -70.3 103.7 -68.5 109.3 -68.453125 109.253125 -68.45 109.15 -68.451953125 109.30625 -68.5 109.45 -68.5 109.35 -68.5 109.3 -82.2 142.8 -85.65 181.3 -89.65 226.85 -100.85 267.9 -102 272.35 -103.55 276.65 -104.45 281.35 -104.45 286.45 -104.45 305.95 -90.7 319.75 -81.5 328.95 -69.8 331.95 -63.9 333.5 -57.4 333.5 -37.9 333.5 -24.1 319.7 -17.5 313.1 -14.1 305.25
L -14.05 305.2
Q -10.85 297.85 -10.4 289.3 -10.3 288.25 -10.3 287.2 -10.3 286.8 -10.3 286.45 -10.3 286.1 -10.3 285.75 -8.65 241.85 -10.25 205.6 -10.45 200.95 -10.5 196.45 -10.85 171.55 -6.7 151.35 -5.5 145.4 -3.9 139.9 -3.25 137.6 -2.5 135.35 14.45 126.95 18.05 109.9 14.45 126.95 -2.5 135.35 -3.25 137.6 -3.9 139.9 -5.5 145.4 -6.7 151.35 -10.85 171.55 -10.5 196.45 -7.55 212.9 -6.7 231 -5.95 246.25 -6.7 262.65 -7 269.55 -7.6 276.7 -8.05 282.45 -8.7 288.3 -8.65 288.9 -8.65 289.55 -8.35 294.8 -6.7 299.75 -6.65 300 -6.55 300.25 -4.25 308.8 1.2 315.9 13.1 331.4 32.4 333.95 38.85 334.8 44.9 334 56.85 332 67.2 324.1 82.65 312.2 85.15 292.9 85.85 287.45 85.45 282.35 85.35 281.2 85.2 280.05 81.8 228.9 64.3 183.7 54.7 158.95 51.1 132.4 58.15 123.75 59.6 114.45 60.65 107.8 59.4 99.25 58.75 94.55 57.4 89.25 56.4 85.45 53.95 80.7 52.65 82.35 51.1 83.9 47.35 87.65 43 90.1 40.1 91.65 37 92.65 31.9 94.25 26.15 94.25 21.25 94.25 16.85 93.1 8.05 90.75 1.15 83.85 -0.85 81.85 -2.5 79.7 -5.1 76.2 -6.7 72.25 -6.95 71.65 -7.15 71.1 -9.2 65.4 -9.2 58.9 -9.2 52.2 -7.05 46.45 -6.9 46 -6.7 45.55 -4.1 39.15 1.15 33.9 8.4 26.65 17.7 24.5 20.95 23.75 24.45 23.6
L 32.4 -17.1 36.3 -26.5 32.4 -17.1 24.45 23.6
Q 25.3 23.55 26.15 23.55 40.75 23.55 51.1 33.9 53.6 36.4 55.5 39.15 61.45 47.8 61.45 58.9 61.45 66.5 58.6 73.05 56.85 77.05 53.95 80.7 56.4 85.45 57.4 89.25 58.75 94.55 59.4 99.25 69.75 98.15 77.3 90.6 86.15 81.75 86.15 69.3 86.15 58.3 79.25 50.15
L 38.2 -40.35
Q 32.6 -52.7 23.25 -51.6 16.8 -50.55 10.05 -50.2 16.8 -50.55 23.25 -51.6 23.85 -51.7 24.4 -51.8 25.65 -52 26.85 -52.25 27.35 -52.35 27.8 -52.45 56.75 -58.35 79.15 -78.3 100.95 -97.8 107.8 -122.75 128.95 -179.3 124.45 -258 123.35 -276.75 121.75 -290.5 121.75 -290.6 121.75 -290.75 121.55 -293.45 121.05 -296 120.9 -297.05 120.65 -298 Z"/>

<path fill="#FF0000" stroke="none" d="
M -58.9 -234.4
L -58.9 -234.45
Q -58.95 -234.65 -59 -234.85
L -59.2 -235.5
Q -59.0400390625 -234.9572265625 -58.9 -234.4
M 37.25 -263.15
L 37.25 -263.1 40.1 -248.3
Q 40.15 -247.2 39.75 -246.05 38.55 -242.45 33.1 -238.25 11.3 -221.4 -15.25 -217.8 -43.9 -214 -55.4 -218.9 -55.65 -219.05 -55.9 -219.15 -56 -220.65 -56.05 -222.15
L -56.05 -222.2
Q -56.15 -222.55 -56.2 -222.9 -56.75 -225.25 -57.25 -227.5 -58.05 -230.9 -58.85 -234.2 -58.8736328125 -234.294140625 -58.9 -234.4 -59.0400390625 -234.9572265625 -59.2 -235.5
L -59.55 -236.85
Q -72.7 -230.85 -75.25 -223.35 -77.6 -216.4 -77.25 -212.05 -77.25 -211.7 -77.2 -211.35 -76.7 -207.5 -73.85 -204.8 -66.85 -197.15 -51.25 -194.95 -35.95 -192.85 -12.35 -196
L -12.3 -196
Q 15 -199.65 42.6 -218.6 46.95 -221.6 51.3 -225 54.45 -227.8 56.65 -230.6 65.2 -241.7 59.05 -252.6 51.25 -266.35 37.25 -263.15 Z"/>
</g>

<path id="Symbole_2_0_Layer2_0_1_STROKES" stroke="#3C3F3E" stroke-width="15" stroke-linejoin="round" stroke-linecap="round" fill="none" d="
M 23.25 -51.6
Q 23.85 -51.7 24.4 -51.8 25.65 -52 26.85 -52.25 27.35 -52.35 27.8 -52.45 56.75 -58.35 79.15 -78.3 100.95 -97.8 107.8 -122.75 128.95 -179.3 124.45 -258 123.35 -276.75 121.75 -290.5 121.75 -290.6 121.75 -290.75 121.55 -293.45 121.05 -296 120.9 -297.05 120.65 -298 117.15 -314.15 103.8 -325.75 87.6 -339.85 66.15 -338.35 44.7 -336.85 30.6 -320.65 26.85 -316.3 24.2 -311.6 27.15 -306.4 28.7 -300.7 29.15 -299 29.5 -297.2 34.05 -281.85 37.25 -263.15 51.25 -266.35 59.05 -252.6 65.2 -241.7 56.65 -230.6 68.6 -224.35 79.15 -214.95 84.85 -209.85 89.55 -204.35
M 24.2 -311.6
Q 21.55 -316.3 17.8 -320.65 3.7 -336.85 -17.75 -338.35 -39.2 -339.85 -55.4 -325.75 -71.7 -311.6 -73.15 -290.15 -74 -277.9 -69.75 -267.35 -69.4 -266.55 -69.1 -265.75 -63.5591796875 -252.6443359375 -59.175 -235.5
L -59 -234.85
Q -58.95 -234.65 -58.9 -234.45
L -58.9 -234.4
Q -58.8736328125 -234.294140625 -58.85 -234.2 -58.05 -230.9 -57.25 -227.5 -56.75 -225.25 -56.2 -222.9 -56.15 -222.55 -56.05 -222.2
L -56.05 -222.15
Q -55.75 -220.55 -55.4 -218.9 -43.9 -214 -15.25 -217.8 11.3 -221.4 33.1 -238.25 38.55 -242.45 39.75 -246.05 38.65 -254.9 37.25 -263.1
L 37.25 -263.15
M 37.25 -263.1
L 40.1 -248.3
Q 40.15 -247.2 39.75 -246.05
M -77.25 -212.05
Q -77.25 -211.7 -77.2 -211.35 -76.7 -207.5 -73.85 -204.8 -66.85 -197.15 -51.25 -194.95 -35.95 -192.85 -12.35 -196
L -12.3 -196
Q 15 -199.65 42.6 -218.6 46.95 -221.6 51.3 -225 54.45 -227.8 56.65 -230.6
M 42.6 -218.6
Q 43.25 -210.15 43.7 -201.2
M 23.25 -51.6
Q 16.8 -50.55 10.05 -50.2
M 34.8 -29.45
Q 34.75 -29.15 34.7 -28.85
L 24.45 23.6
Q 25.3 23.55 26.15 23.55 40.75 23.55 51.1 33.9 53.6 36.4 55.5 39.15 61.45 47.8 61.45 58.9 61.45 66.5 58.6 73.05 56.85 77.05 53.95 80.7 56.4 85.45 57.4 89.25 58.75 94.55 59.4 99.25 69.75 98.15 77.3 90.6 86.15 81.75 86.15 69.3 86.15 58.3 79.25 50.15
L 38.2 -40.35
Q 32.6 -52.7 23.25 -51.6
M 24.45 23.6
Q 20.95 23.75 17.7 24.5 8.4 26.65 1.15 33.9 -4.1 39.15 -6.7 45.55 -6.9 46 -7.05 46.45 -9.2 52.2 -9.2 58.9 -9.2 65.4 -7.15 71.1 -6.95 71.65 -6.7 72.25 -5.1 76.2 -2.5 79.7 -0.85 81.85 1.15 83.85 8.05 90.75 16.85 93.1 21.25 94.25 26.15 94.25 31.9 94.25 37 92.65 40.1 91.65 43 90.1 47.35 87.65 51.1 83.9 52.65 82.35 53.95 80.7
M -8.7 288.3
Q -8.65 288.9 -8.65 289.55 -8.35 294.8 -6.7 299.75 -6.65 300 -6.55 300.25 -4.25 308.8 1.2 315.9 13.1 331.4 32.4 333.95 38.85 334.8 44.9 334 56.85 332 67.2 324.1 82.65 312.2 85.15 292.9 85.85 287.45 85.45 282.35 85.35 281.2 85.2 280.05 81.8 228.9 64.3 183.7 54.7 158.95 51.1 132.4 58.15 123.75 59.6 114.45 60.65 107.8 59.4 99.25
M -59.175 -235.5
L -59.55 -236.85
Q -72.7 -230.85 -75.25 -223.35 -77.6 -216.4 -77.25 -212.05 -98.4 -191.9 -103.95 -165.95 -105.95 -156.65 -105.95 -146.65 -105.95 -106.65 -74.15 -78.3 -56.2 -62.3 -34.1 -55.35 -27.75 -53.35 -21.1 -52.1 -20.3 -52 -19.55 -51.85
M -59.175 -235.5
Q -59.0400390625 -234.9572265625 -58.9 -234.4
M -55.4 -218.9
Q -55.65 -219.05 -55.9 -219.15 -56 -220.65 -56.05 -222.15
M -51.25 -194.95
Q -50.8 -192 -50.4 -189
M -100.85 267.9
Q -89.65 226.85 -85.65 181.3 -82.2 142.8 -68.5 109.3 -70.3 103.7 -71.1 97.65 -72.55 97.75 -74 97.75 -86.45 97.75 -95.3 88.9 -104.15 80.1 -104.15 67.6 -104.15 55.15 -95.3 46.3 -93.1 44.1 -90.7 42.45
L -74.9 7.3
Q -75.15 6.8 -75.35 6.3 -77 2 -77 -3 -77 -8 -75.35 -12.3 -73.45 -17.1 -66.85 -22.1 -62.95 -25.05 -59.55 -26.95
L -51.5 -44.8
Q -50.15 -47.05 -48.2 -49 -42.3 -54.9 -34.1 -55.35
M -19.15 -23.05
L -44.85 59.65
Q -43.85 63.4 -43.85 67.6 -43.85 75.2 -47.15 81.45 -49.25 85.45 -52.7 88.9 -57.75 93.95 -64.05 96.15 -67.4 97.3 -71.1 97.65
M -10.5 196.45
Q -10.85 171.55 -6.7 151.35 -5.5 145.4 -3.9 139.9 -3.25 137.6 -2.5 135.35 -11.7 139.65 -24.6 138.8
M -68.5 109.3
Q -68.5 109.35 -68.5 109.45 -68.451953125 109.30625 -68.45 109.15 -68.453125 109.253125 -68.5 109.3 Z
M -7.6 276.7
Q -8 278.65 -8.25 280.65 -8.75 284.55 -8.7 288.3
M -7.6 276.7
Q -7 269.55 -6.7 262.65 -5.95 246.25 -6.7 231 -7.55 212.9 -10.5 196.45 -10.45 200.95 -10.25 205.6 -8.65 241.85 -10.3 285.75 -10.15 283.25 -10.3 287.2 -10.3 288.25 -10.4 289.3 -10.85 297.85 -14.05 305.2
L -14.1 305.25
Q -17.5 313.1 -24.1 319.7 -37.9 333.5 -57.4 333.5 -63.9 333.5 -69.8 331.95 -81.5 328.95 -90.7 319.75 -104.45 305.95 -104.45 286.45 -104.45 281.35 -103.55 276.65 -102.6 272.1 -100.85 267.9
M -10.3 285.75
Q -10.3 286.1 -10.3 286.45 -10.3 286.8 -10.3 287.2
M -59.55 -26.95
L -74.9 7.3
M 10.8 109.9
Q 10.55 128.2 -2.5 135.35 10.2 139.9 20.7 140.35"/>

<path id="Symbole_2_0_Layer1_0_1_STROKES" stroke="#3C3F3E" stroke-width="15" stroke-linejoin="round" stroke-linecap="round" fill="none" d="
M 23.25 -51.6
Q 23.85 -51.7 24.4 -51.8 25.65 -52 26.85 -52.25 27.35 -52.35 27.8 -52.45 56.75 -58.35 79.15 -78.3 100.95 -97.8 107.8 -122.75 128.95 -179.3 124.45 -258 123.35 -276.75 121.75 -290.5 121.75 -290.6 121.75 -290.75 121.55 -293.45 121.05 -296 120.9 -297.05 120.65 -298 117.15 -314.15 103.8 -325.75 87.6 -339.85 66.15 -338.35 44.7 -336.85 30.6 -320.65 26.85 -316.3 24.2 -311.6 27.15 -306.4 28.7 -300.7 29.15 -299 29.5 -297.2 34.05 -281.85 37.25 -263.15 51.25 -266.35 59.05 -252.6 65.2 -241.7 56.65 -230.6 68.6 -224.35 79.15 -214.95 84.85 -209.85 89.55 -204.35
M 24.2 -311.6
Q 21.55 -316.3 17.8 -320.65 3.7 -336.85 -17.75 -338.35 -39.2 -339.85 -55.4 -325.75 -71.7 -311.6 -73.15 -290.15 -74 -277.9 -69.75 -267.35 -69.4 -266.55 -69.1 -265.75 -63.5591796875 -252.6443359375 -59.175 -235.5
L -59 -234.85
Q -58.95 -234.65 -58.9 -234.45
L -58.9 -234.4
Q -58.8736328125 -234.294140625 -58.85 -234.2 -58.05 -230.9 -57.25 -227.5 -56.75 -225.25 -56.2 -222.9 -56.15 -222.55 -56.05 -222.2
L -56.05 -222.15
Q -55.75 -220.55 -55.4 -218.9 -43.9 -214 -15.25 -217.8 11.3 -221.4 33.1 -238.25 38.55 -242.45 39.75 -246.05 38.65 -254.9 37.25 -263.1
L 37.25 -263.15
M 37.25 -263.1
L 40.1 -248.3
Q 40.15 -247.2 39.75 -246.05
M 56.65 -230.6
Q 54.45 -227.8 51.3 -225 46.95 -221.6 42.6 -218.6 43.25 -210.15 43.7 -201.2
M 23.25 -51.6
Q 16.8 -50.55 10.05 -50.2
M 34.8 -29.45
Q 34.75 -29.15 34.7 -28.85
L 24.45 23.6
Q 25.3 23.55 26.15 23.55 40.75 23.55 51.1 33.9 53.6 36.4 55.5 39.15 61.45 47.8 61.45 58.9 61.45 66.5 58.6 73.05 56.85 77.05 53.95 80.7 56.4 85.45 57.4 89.25 58.75 94.55 59.4 99.25 69.75 98.15 77.3 90.6 86.15 81.75 86.15 69.3 86.15 58.3 79.25 50.15
L 38.2 -40.35
Q 32.6 -52.7 23.25 -51.6
M 24.45 23.6
Q 20.95 23.75 17.7 24.5 8.4 26.65 1.15 33.9 -4.1 39.15 -6.7 45.55 -6.9 46 -7.05 46.45 -9.2 52.2 -9.2 58.9 -9.2 65.4 -7.15 71.1 -6.95 71.65 -6.7 72.25 -5.1 76.2 -2.5 79.7 -0.85 81.85 1.15 83.85 8.05 90.75 16.85 93.1 21.25 94.25 26.15 94.25 31.9 94.25 37 92.65 40.1 91.65 43 90.1 47.35 87.65 51.1 83.9 52.65 82.35 53.95 80.7
M -8.7 288.3
Q -8.65 288.9 -8.65 289.55 -8.35 294.8 -6.7 299.75 -6.65 300 -6.55 300.25 -4.25 308.8 1.2 315.9 13.1 331.4 32.4 333.95 38.85 334.8 44.9 334 56.85 332 67.2 324.1 82.65 312.2 85.15 292.9 85.85 287.45 85.45 282.35 85.35 281.2 85.2 280.05 81.8 228.9 64.3 183.7 54.7 158.95 51.1 132.4 58.15 123.75 59.6 114.45 60.65 107.8 59.4 99.25
M -59.175 -235.5
L -59.55 -236.85
Q -72.7 -230.85 -75.25 -223.35 -77.6 -216.4 -77.25 -212.05 -77.25 -211.7 -77.2 -211.35 -76.7 -207.5 -73.85 -204.8 -66.85 -197.15 -51.25 -194.95 -35.95 -192.85 -12.35 -196
L -12.3 -196
Q 15 -199.65 42.6 -218.6
M -59.175 -235.5
Q -59.0400390625 -234.9572265625 -58.9 -234.4
M -55.4 -218.9
Q -55.65 -219.05 -55.9 -219.15 -56 -220.65 -56.05 -222.15
M -51.25 -194.95
Q -50.8 -192 -50.4 -189
M -100.85 267.9
Q -89.65 226.85 -85.65 181.3 -82.2 142.8 -68.5 109.3 -70.3 103.7 -71.1 97.65 -72.55 97.75 -74 97.75 -86.45 97.75 -95.3 88.9 -104.15 80.1 -104.15 67.6 -104.15 55.15 -95.3 46.3 -93.1 44.1 -90.7 42.45
L -74.9 7.3
Q -75.15 6.8 -75.35 6.3 -77 2 -77 -3 -77 -8 -75.35 -12.3 -73.45 -17.1 -66.85 -22.1 -62.95 -25.05 -59.55 -26.95
L -51.5 -44.8
Q -50.15 -47.05 -48.2 -49 -42.3 -54.9 -34.1 -55.35 -56.2 -62.3 -74.15 -78.3 -105.95 -106.65 -105.95 -146.65 -105.95 -156.65 -103.95 -165.95 -98.4 -191.9 -77.25 -212.05
M -34.1 -55.35
Q -27.75 -53.35 -21.1 -52.1 -20.3 -52 -19.55 -51.85
M -19.15 -23.05
L -44.85 59.65
Q -43.85 63.4 -43.85 67.6 -43.85 75.2 -47.15 81.45 -49.25 85.45 -52.7 88.9 -57.75 93.95 -64.05 96.15 -67.4 97.3 -71.1 97.65
M -10.5 196.45
Q -10.85 171.55 -6.7 151.35 -5.5 145.4 -3.9 139.9 -3.25 137.6 -2.5 135.35 -11.7 139.65 -24.6 138.8
M -68.5 109.3
Q -68.5 109.35 -68.5 109.45 -68.451953125 109.30625 -68.45 109.15 -68.453125 109.253125 -68.5 109.3 Z
M -7.6 276.7
Q -8 278.65 -8.25 280.65 -8.75 284.55 -8.7 288.3
M -7.6 276.7
Q -7 269.55 -6.7 262.65 -5.95 246.25 -6.7 231 -7.55 212.9 -10.5 196.45 -10.45 200.95 -10.25 205.6 -8.65 241.85 -10.3 285.75 -10.15 283.25 -10.3 287.2 -10.3 288.25 -10.4 289.3 -10.85 297.85 -14.05 305.2
L -14.1 305.25
Q -17.5 313.1 -24.1 319.7 -37.9 333.5 -57.4 333.5 -63.9 333.5 -69.8 331.95 -81.5 328.95 -90.7 319.75 -104.45 305.95 -104.45 286.45 -104.45 281.35 -103.55 276.65 -102.6 272.1 -100.85 267.9
M -10.3 285.75
Q -10.3 286.1 -10.3 286.45 -10.3 286.8 -10.3 287.2
M -59.55 -26.95
L -74.9 7.3
M 10.8 109.9
Q 10.55 128.2 -2.5 135.35 10.2 139.9 20.7 140.35"/>

<path id="Symbole_2_0_Layer0_0_1_STROKES" stroke="#3D3F3E" stroke-width="2" stroke-linejoin="miter" stroke-linecap="square" stroke-miterlimit="3" fill="none" d="
M 23.25 -51.6
Q 23.85 -51.7 24.4 -51.8 25.65 -52 26.85 -52.25 27.35 -52.35 27.8 -52.45 56.75 -58.35 79.15 -78.3 100.95 -97.8 107.8 -122.75 128.95 -179.3 124.45 -258 123.35 -276.75 121.75 -290.5 121.75 -290.6 121.75 -290.75 121.55 -293.45 121.05 -296 120.9 -297.05 120.65 -298 117.15 -314.15 103.8 -325.75 87.6 -339.85 66.15 -338.35 44.7 -336.85 30.6 -320.65 26.85 -316.3 24.2 -311.6 27.15 -306.4 28.7 -300.7 29.15 -299 29.5 -297.2 34.05 -281.85 37.25 -263.15 51.25 -266.35 59.05 -252.6 65.2 -241.7 56.65 -230.6 67.8 -224.75 77.75 -216.15
M 24.2 -311.6
Q 21.55 -316.3 17.8 -320.65 3.7 -336.85 -17.75 -338.35 -39.2 -339.85 -55.4 -325.75 -71.7 -311.6 -73.15 -290.15 -74 -277.9 -69.75 -267.35 -69.4 -266.55 -69.1 -265.75 -63.5591796875 -252.6443359375 -59.175 -235.5
L -59 -234.85
Q -58.95 -234.65 -58.9 -234.45
L -58.9 -234.4
Q -58.8736328125 -234.294140625 -58.85 -234.2 -58.05 -230.9 -57.25 -227.5 -56.75 -225.25 -56.2 -222.9 -56.15 -222.55 -56.05 -222.2
L -56.05 -222.15
Q -55.75 -220.55 -55.4 -218.9 -43.9 -214 -15.25 -217.8 11.3 -221.4 33.1 -238.25 38.55 -242.45 39.75 -246.05 38.65 -254.9 37.25 -263.1
L 37.25 -263.15
M 37.25 -263.1
L 40.1 -248.3
Q 40.15 -247.2 39.75 -246.05
M -77.25 -212.05
Q -77.25 -211.7 -77.2 -211.35 -76.7 -207.5 -73.85 -204.8 -66.85 -197.15 -51.25 -194.95 -35.95 -192.85 -12.35 -196
L -12.3 -196
Q 15 -199.65 42.6 -218.6 46.95 -221.6 51.3 -225 54.45 -227.8 56.65 -230.6
M 42.6 -218.6
Q 43.25 -210.15 43.7 -201.2
M 23.25 -51.6
Q 16.8 -50.55 10.05 -50.2
M 36.3 -26.5
L 32.4 -17.1 24.45 23.6
Q 25.3 23.55 26.15 23.55 40.75 23.55 51.1 33.9 53.6 36.4 55.5 39.15 61.45 47.8 61.45 58.9 61.45 66.5 58.6 73.05 56.85 77.05 53.95 80.7 56.4 85.45 57.4 89.25 58.75 94.55 59.4 99.25 69.75 98.15 77.3 90.6 86.15 81.75 86.15 69.3 86.15 58.3 79.25 50.15
L 38.2 -40.35
Q 32.6 -52.7 23.25 -51.6
M 24.45 23.6
Q 20.95 23.75 17.7 24.5 8.4 26.65 1.15 33.9 -4.1 39.15 -6.7 45.55 -6.9 46 -7.05 46.45 -9.2 52.2 -9.2 58.9 -9.2 65.4 -7.15 71.1 -6.95 71.65 -6.7 72.25 -5.1 76.2 -2.5 79.7 -0.85 81.85 1.15 83.85 8.05 90.75 16.85 93.1 21.25 94.25 26.15 94.25 31.9 94.25 37 92.65 40.1 91.65 43 90.1 47.35 87.65 51.1 83.9 52.65 82.35 53.95 80.7
M -8.7 288.3
Q -8.65 288.9 -8.65 289.55 -8.35 294.8 -6.7 299.75 -6.65 300 -6.55 300.25 -4.25 308.8 1.2 315.9 13.1 331.4 32.4 333.95 38.85 334.8 44.9 334 56.85 332 67.2 324.1 82.65 312.2 85.15 292.9 85.85 287.45 85.45 282.35 85.35 281.2 85.2 280.05 81.8 228.9 64.3 183.7 54.7 158.95 51.1 132.4 58.15 123.75 59.6 114.45 60.65 107.8 59.4 99.25
M -59.175 -235.5
L -59.55 -236.85
Q -72.7 -230.85 -75.25 -223.35 -77.6 -216.4 -77.25 -212.05 -98.4 -191.9 -103.95 -165.95 -105.95 -156.65 -105.95 -146.65 -105.95 -106.65 -74.15 -78.3 -56.2 -62.3 -34.1 -55.35 -27.75 -53.35 -21.1 -52.1 -20.3 -52 -19.55 -51.85
M -59.175 -235.5
Q -59.0400390625 -234.9572265625 -58.9 -234.4
M -56.05 -222.15
Q -56 -220.65 -55.9 -219.15 -55.65 -219.05 -55.4 -218.9
M -100.85 267.9
Q -89.65 226.85 -85.65 181.3 -82.2 142.8 -68.5 109.3 -70.3 103.7 -71.1 97.65 -72.55 97.75 -74 97.75 -86.45 97.75 -95.3 88.9 -104.15 80.1 -104.15 67.6 -104.15 55.15 -95.3 46.3 -93.1 44.1 -90.7 42.45
L -74.9 7.3
Q -75.15 6.8 -75.35 6.3 -77 2 -77 -3 -77 -8 -75.35 -12.3 -73.45 -17.1 -66.85 -22.1 -62.95 -25.05 -59.55 -26.95
L -51.7 -44.5
Q -51.6 -44.65 -51.5 -44.8 -50.15 -47.05 -48.2 -49 -42.3 -54.9 -34.1 -55.35
M -19.15 -23.05
L -44.85 59.65
Q -43.85 63.4 -43.85 67.6 -43.85 75.2 -47.15 81.45 -49.25 85.45 -52.7 88.9 -57.75 93.95 -64.05 96.15 -67.4 97.3 -71.1 97.65
M -10.5 196.45
Q -10.85 171.55 -6.7 151.35 -5.5 145.4 -3.9 139.9 -3.25 137.6 -2.5 135.35 14.45 126.95 18.05 109.9
M -68.5 109.3
Q -68.5 109.35 -68.5 109.45 -68.451953125 109.30625 -68.45 109.15 -68.453125 109.253125 -68.5 109.3 Z
M -7.6 276.7
Q -8 278.65 -8.25 280.65 -8.75 284.55 -8.7 288.3
M -7.6 276.7
Q -7 269.55 -6.7 262.65 -5.95 246.25 -6.7 231 -7.55 212.9 -10.5 196.45 -10.45 200.95 -10.25 205.6 -8.65 241.85 -10.3 285.75 -10.15 283.25 -10.3 287.2 -10.3 288.25 -10.4 289.3 -10.85 297.85 -14.05 305.2
L -14.1 305.25
Q -17.5 313.1 -24.1 319.7 -37.9 333.5 -57.4 333.5 -63.9 333.5 -69.8 331.95 -81.5 328.95 -90.7 319.75 -104.45 305.95 -104.45 286.45 -104.45 281.35 -103.55 276.65 -102.6 272.1 -100.85 267.9
M -10.3 285.75
Q -10.3 286.1 -10.3 286.45 -10.3 286.8 -10.3 287.2
M -59.55 -26.95
L -74.9 7.3"/>
</defs>

<g transform="matrix( 0.46343994140625, 0, 0, 0.46343994140625, 109.05,177) ">
<g transform="matrix( 1, 0, 0, 1, 0,0) ">
<use xlink:href="#Symbole_2_0_Layer2_0_FILL"/>

<use xlink:href="#Symbole_2_0_Layer2_0_1_STROKES"/>
</g>

<g transform="matrix( 1, 0, 0, 1, 0,0) ">
<use xlink:href="#Symbole_2_0_Layer1_0_FILL"/>

<use xlink:href="#Symbole_2_0_Layer1_0_1_STROKES"/>
</g>

<g transform="matrix( 1, 0, 0, 1, 0,0) ">
<use xlink:href="#Symbole_2_0_Layer0_0_FILL"/>

<use xlink:href="#Symbole_2_0_Layer0_0_1_STROKES"/>
</g>
</g>
</svg>
