
<svg xmlns="http://www.w3.org/2000/svg" version="1.1" xmlns:xlink="http://www.w3.org/1999/xlink" preserveAspectRatio="none" x="0px" y="0px" width="200px" height="350px" viewBox="0 0 200 350">
<defs>
<radialGradient id="Gradient_1" gradientUnits="userSpaceOnUse" cx="0" cy="0" r="57.259056325178825" fx="0" fy="0" gradientTransform="matrix( 0.98543363480456, -0.17006043453982106, 0.05959755921613755, 0.22834815728966987, 279.1,262.6) " spreadMethod="pad">
<stop  offset="0%" stop-color="#FF3333"/>

<stop  offset="100%" stop-color="#FF3333" stop-opacity="0"/>
</radialGradient>

<radialGradient id="Gradient_2" gradientUnits="userSpaceOnUse" cx="0" cy="0" r="27.411932848670116" fx="0" fy="0" gradientTransform="matrix( 0.9854285047728952, -0.1700901583897686, 0.12448957973299417, 0.47698205274986044, 280,262.45) " spreadMethod="pad">
<stop  offset="0%" stop-color="#FF3333"/>

<stop  offset="100%" stop-color="#FF3333" stop-opacity="0"/>
</radialGradient>

<g id="Symbole_2_0_Layer2_0_FILL">
<path fill="#660000" stroke="none" d="
M 31.45 -231.8
Q 27.25 -233.7 25.65 -237.9 25 -239.55 24.9 -241.2 19.85 -241.6 14.6 -241.6 3.4 -241.6 -7 -239.8 -38.25 -234.5 -62.05 -213.25 -93.8 -184.95 -93.8 -144.95 -93.8 -141 -93.5 -137.2 -92.1 -119.6 -84.15 -104.35 -76.3 -89.3 -62.05 -76.6 -42.95 -59.55 -19.1 -52.75 -18.45 -52.6 -17.85 -52.4 -22.65 -50.05 -26.85 -45.75 -28.55 -44.1 -30.1 -42.1 -44.55 -29.6 -64.9 -28.6 -83.45 -25.5 -88.7 -11.75 -94 2 -85.55 12.9 -77.1 23.8 -63.25 22.25 -63.1 22.25 -63 22.25 -65.2 32.15 -66.2 42.8 -68.4 64.25 -59.4 90 -53.05 108 -48.25 116.15 -47.25 117.85 -46.3 119.1 -46.1685546875 119.275390625 -46.05 119.45
L -45.95 119.6 -45.85 119.7 -45.8 119.75
Q -45.56875 119.98125 -45.35 120.2 -44.15 105.4 -36.55 92.8 -44.15 105.4 -45.35 120.2
L -45.35 120.3
Q -48.2 150.1 -43.4 187.4 -38.05 229 -53.45 264.4 -54.55 267 -55.8 269.55 -58.8 277.4 -58.8 286.5 -58.8 296.65 -55.05 305.25
L -55.05 305.3
Q -51.6 313.15 -45 319.75 -31.2 333.55 -11.7 333.55 -9.3 333.55 -7 333.35 -3.05 333 0.7 332 12.4 329 21.6 319.8 30.35 311 33.55 299.95 34.15 297.75 34.55 295.5 46.85 242.4 32.85 197.8 21.95 163.1 22.7 135.9 28.05 133.25 33.25 128.05 49.7 111.45 43.65 93.65 43.1 92 42.45 90.4 49.8 94.25 58.7 94.25 63.6 94.25 68 93.1 76.8 90.75 83.7 83.85 94.05 73.5 94.05 58.9 94.05 44.25 83.7 33.9 73.35 23.55 58.7 23.55 44.1 23.55 33.75 33.9 23.4 44.25 23.4 58.9 23.4 61.05 23.6 63.1 23 62.5 22.4 61.95 22.15 61.75 21.95 61.55 22.9 65.2 22.9 69.3 22.9 81.75 14 90.6 13.6 91 13.2 91.4 4.75 99.3 -7 99.4 -7.1 99.4 -7.25 99.4 -14.9 99.4 -21.15 96.15 -23.75 94.75 -26.1 92.85 -27.35 91.8 -28.55 90.6 -29.55 89.6 -30.45 88.6 -31.85 86.9 -33 85.1 -37.4 78.1 -37.4 69.3 -37.4 59.7 -32.15 52.25
L -28.4 -23.8
Q -30.7 -28.35 -30.65 -33.5 -30.7 -28.35 -28.4 -23.8
L -32.15 52.25
Q -37.4 59.7 -37.4 69.3 -37.4 78.1 -33 85.1 -31.85 86.9 -30.45 88.6 -29.55 89.6 -28.55 90.6 -27.35 91.8 -26.1 92.85 -23.75 94.75 -21.15 96.15 -14.9 99.4 -7.25 99.4 -7.1 99.4 -7 99.4 4.75 99.3 13.2 91.4 13.6 91 14 90.6 22.9 81.75 22.9 69.3 22.9 65.2 21.95 61.55 20.1 54.4 14.7 48.7
L 13.3 43.6 12.1 5.65 11.15 -24.05
Q 12.45 -26.85 12.95 -30.15 13.05 -30.85 13.1 -31.5 13.05 -30.85 12.95 -30.15 12.45 -26.85 11.15 -24.05
L 12.1 5.65
Q 13.25 -1.55 14.6 -10.25 14.65 -10.4 14.65 -10.5 19.35 -30.7 12.15 -43.5 10.6 -46.3 8.75 -48.4 8.05 -48.45 7.3 -48.5 8.05 -48.45 8.75 -48.4 11.65 -48.3 14.6 -48.3 59.5 -48.3 91.25 -76.6 105.05 -88.9 112.85 -103.35 136.55 -145.1 143.3 -195.2 100 -202.65 44.85 -226 44.7 -223.8 44.5 -221.35 44.7 -223.8 44.85 -226 38.2 -228.8 31.45 -231.8
M 32 -252.1
Q 30.65 -251.6 29.6 -250.85 27.15 -249.2 25.9 -246.3 24.75 -243.8 24.9 -241.2 25 -239.55 25.65 -237.9 27.25 -233.7 31.45 -231.8 38.2 -228.8 44.85 -226 100 -202.65 143.3 -195.2 146.2 -194.7 149 -194.25 153.5 -193.6 157.15 -196.3 160.85 -199 161.55 -203.5 162.2 -208 159.5 -211.65 156.8 -215.35 152.3 -216 148.9 -216.55 145.45 -217.15 101.15 -225.2 43.85 -250.35 42.1 -251.1 40.4 -251.9 36.2 -253.75 32 -252.1
M 62.2 -331.45
Q 50.8 -328.25 41.45 -319.6 25.65 -304.95 24.75 -283.5 24.6 -278.9 25.15 -274.55 25.15 -270.35 25.8 -266.4 27.05 -262.5 27.95 -258.6 28.85 -254.7 29.6 -250.85 30.65 -251.6 32 -252.1 36.2 -253.75 40.4 -251.9 42.1 -251.1 43.85 -250.35 43.6 -251.95 43.35 -253.6 42.45 -259 41.15 -264.6 40.4 -266.6 39.85 -268.65 39.4 -270.5 39 -272.4 38.35 -276.35 38.35 -280.55 37.8 -284.9 37.95 -289.5 38.85 -310.95 54.65 -325.6 58.25 -328.95 62.2 -331.45
M 128 -322.7
Q 113.4 -338.5 91.95 -339.35 75.4 -340 62.2 -331.45 58.25 -328.95 54.65 -325.6 38.85 -310.95 37.95 -289.5 37.8 -284.9 38.35 -280.55 38.35 -276.35 39 -272.4 40.25 -268.5 41.15 -264.6 42.45 -259 43.35 -253.6 43.6 -251.95 43.85 -250.35 101.15 -225.2 145.45 -217.15 147.6 -253.6 141.4 -294.15 139.55 -310.15 128 -322.7 Z"/>
</g>

<g id="Symbole_2_0_Layer1_0_FILL">
<path fill="#660000" stroke="none" d="
M 24.9 -241.2
Q 19.85 -241.6 14.6 -241.6 3.4 -241.6 -7 -239.8 -38.25 -234.5 -62.05 -213.25 -93.8 -184.95 -93.8 -144.95 -93.8 -141 -93.5 -137.2 -92.1 -119.6 -84.15 -104.35 -76.3 -89.3 -62.05 -76.6 -42.95 -59.55 -19.1 -52.75 -18.45 -52.6 -17.85 -52.4 -22.65 -50.05 -26.85 -45.75 -28.55 -44.1 -30.1 -42.1 -44.55 -29.6 -64.9 -28.6 -83.45 -25.5 -88.7 -11.75 -94 2 -85.55 12.9 -77.1 23.8 -63.25 22.25 -63.1 22.25 -63 22.25 -65.2 32.15 -66.2 42.8 -68.4 64.25 -59.4 90 -53.05 108 -48.25 116.15 -47.25 117.85 -46.3 119.1 -46.1685546875 119.275390625 -46.05 119.45
L -45.95 119.6 -45.85 119.7 -45.8 119.75
Q -45.56875 119.98125 -45.35 120.2 -44.15 105.4 -36.55 92.8 -44.15 105.4 -45.35 120.2
L -45.35 120.3
Q -48.2 150.1 -43.4 187.4 -38.05 229 -53.45 264.4 -54.55 267 -55.8 269.55 -58.8 277.4 -58.8 286.5 -58.8 296.65 -55.05 305.25
L -55.05 305.3
Q -51.6 313.15 -45 319.75 -31.2 333.55 -11.7 333.55 -9.3 333.55 -7 333.35 -3.05 333 0.7 332 12.4 329 21.6 319.8 30.35 311 33.55 299.95 34.15 297.75 34.55 295.5 46.85 242.4 32.85 197.8 21.95 163.1 22.7 135.9 28.05 133.25 33.25 128.05 49.7 111.45 43.65 93.65 43.1 92 42.45 90.4 49.8 94.25 58.7 94.25 63.6 94.25 68 93.1 76.8 90.75 83.7 83.85 94.05 73.5 94.05 58.9 94.05 44.25 83.7 33.9 73.35 23.55 58.7 23.55 44.1 23.55 33.75 33.9 23.4 44.25 23.4 58.9 23.4 61.05 23.6 63.1 23 62.5 22.4 61.95 22.15 61.75 21.95 61.55 22.9 65.2 22.9 69.3 22.9 81.75 14 90.6 13.6 91 13.2 91.4 4.75 99.3 -7 99.4 -7.1 99.4 -7.25 99.4 -14.9 99.4 -21.15 96.15 -23.75 94.75 -26.1 92.85 -27.35 91.8 -28.55 90.6 -29.55 89.6 -30.45 88.6 -31.85 86.9 -33 85.1 -37.4 78.1 -37.4 69.3 -37.4 59.7 -32.15 52.25
L -28.4 -23.8
Q -30.7 -28.35 -30.65 -33.5 -30.7 -28.35 -28.4 -23.8
L -32.15 52.25
Q -37.4 59.7 -37.4 69.3 -37.4 78.1 -33 85.1 -31.85 86.9 -30.45 88.6 -29.55 89.6 -28.55 90.6 -27.35 91.8 -26.1 92.85 -23.75 94.75 -21.15 96.15 -14.9 99.4 -7.25 99.4 -7.1 99.4 -7 99.4 4.75 99.3 13.2 91.4 13.6 91 14 90.6 22.9 81.75 22.9 69.3 22.9 65.2 21.95 61.55 20.1 54.4 14.7 48.7
L 13.3 43.6 12.1 5.65 11.15 -24.05
Q 12.45 -26.85 12.95 -30.15 13.05 -30.85 13.1 -31.5 13.05 -30.85 12.95 -30.15 12.45 -26.85 11.15 -24.05
L 12.1 5.65
Q 13.25 -1.55 14.6 -10.25 14.65 -10.4 14.65 -10.5 19.35 -30.7 12.15 -43.5 10.6 -46.3 8.75 -48.4 8.05 -48.45 7.3 -48.5 8.05 -48.45 8.75 -48.4 11.65 -48.3 14.6 -48.3 59.5 -48.3 91.25 -76.6 105.05 -88.9 112.85 -103.35 136.55 -145.1 143.3 -195.2 100 -202.65 44.85 -226 44.7 -223.8 44.5 -221.35 44.7 -223.8 44.85 -226 38.2 -228.8 31.45 -231.8 27.25 -233.7 25.65 -237.9 25 -239.55 24.9 -241.2
M 32 -252.1
Q 30.65 -251.6 29.6 -250.85 27.15 -249.2 25.9 -246.3 24.75 -243.8 24.9 -241.2 25 -239.55 25.65 -237.9 27.25 -233.7 31.45 -231.8 38.2 -228.8 44.85 -226 100 -202.65 143.3 -195.2 146.2 -194.7 149 -194.25 153.5 -193.6 157.15 -196.3 160.85 -199 161.55 -203.5 162.2 -208 159.5 -211.65 156.8 -215.35 152.3 -216 148.9 -216.55 145.45 -217.15 101.15 -225.2 43.85 -250.35 42.1 -251.1 40.4 -251.9 36.2 -253.75 32 -252.1
M 54.65 -325.6
Q 58.25 -328.95 62.2 -331.45 50.8 -328.25 41.45 -319.6 25.65 -304.95 24.75 -283.5 24.6 -278.9 25.15 -274.55 25.15 -270.35 25.8 -266.4 27.05 -262.5 27.95 -258.6 28.85 -254.7 29.6 -250.85 30.65 -251.6 32 -252.1 36.2 -253.75 40.4 -251.9 42.1 -251.1 43.85 -250.35 43.6 -251.95 43.35 -253.6 42.45 -259 41.15 -264.6 40.4 -266.6 39.85 -268.65 39.4 -270.5 39 -272.4 38.35 -276.35 38.35 -280.55 37.8 -284.9 37.95 -289.5 38.85 -310.95 54.65 -325.6
M 128 -322.7
Q 113.4 -338.5 91.95 -339.35 75.4 -340 62.2 -331.45 58.25 -328.95 54.65 -325.6 38.85 -310.95 37.95 -289.5 37.8 -284.9 38.35 -280.55 38.35 -276.35 39 -272.4 40.25 -268.5 41.15 -264.6 42.45 -259 43.35 -253.6 43.6 -251.95 43.85 -250.35 101.15 -225.2 145.45 -217.15 147.6 -253.6 141.4 -294.15 139.55 -310.15 128 -322.7 Z"/>
</g>

<g id="Symbole_2_0_Layer0_0_FILL">
<path fill="#FFB19C" stroke="none" d="
M 24.9 -241.2
Q 19.85 -241.6 14.6 -241.6 3.4 -241.6 -7 -239.8 -38.25 -234.5 -62.05 -213.25 -93.8 -184.95 -93.8 -144.95 -93.8 -141 -93.5 -137.2 -92.1 -119.6 -84.15 -104.35 -76.3 -89.3 -62.05 -76.6 -42.95 -59.55 -19.1 -52.75 -18.45 -52.6 -17.85 -52.4 -22.65 -50.05 -26.85 -45.75 -28.55 -44.1 -30.1 -42.1 -44.55 -29.6 -64.9 -28.6 -83.45 -25.5 -88.7 -11.75 -94 2 -85.55 12.9 -77.1 23.8 -63.25 22.25 -63.1 22.25 -63 22.25 -65.2 32.15 -66.2 42.8 -68.4 64.25 -59.4 90 -53.05 108 -48.25 116.15 -47.25 117.85 -46.3 119.1 -46.1685546875 119.275390625 -46.05 119.45
L -45.95 119.6 -45.85 119.7 -45.8 119.75
Q -45.56875 119.98125 -45.35 120.2 -44.15 105.4 -36.55 92.8 -44.15 105.4 -45.35 120.2
L -45.35 120.3
Q -48.2 150.1 -43.4 187.4 -38.05 229 -53.45 264.4 -54.55 267 -55.8 269.55 -58.8 277.4 -58.8 286.5 -58.8 296.65 -55.05 305.25
L -55.05 305.3
Q -51.6 313.15 -45 319.75 -31.2 333.55 -11.7 333.55 -9.3 333.55 -7 333.35 -3.05 333 0.7 332 12.4 329 21.6 319.8 30.35 311 33.55 299.95 34.15 297.75 34.55 295.5 46.85 242.4 32.85 197.8 21.95 163.1 22.7 135.9 28.05 133.25 33.25 128.05 49.7 111.45 43.65 93.65 43.1 92 42.45 90.4 49.8 94.25 58.7 94.25 63.6 94.25 68 93.1 76.8 90.75 83.7 83.85 94.05 73.5 94.05 58.9 94.05 44.25 83.7 33.9 73.35 23.55 58.7 23.55 44.1 23.55 33.75 33.9 23.4 44.25 23.4 58.9 23.4 61.05 23.6 63.1 23 62.5 22.4 61.95 22.15 61.75 21.95 61.55 22.9 65.2 22.9 69.3 22.9 81.75 14 90.6 13.6 91 13.2 91.4 4.75 99.3 -7 99.4 -7.1 99.4 -7.25 99.4 -14.9 99.4 -21.15 96.15 -23.75 94.75 -26.1 92.85 -27.35 91.8 -28.55 90.6 -29.55 89.6 -30.45 88.6 -31.85 86.9 -33 85.1 -37.4 78.1 -37.4 69.3 -37.4 59.7 -32.15 52.25
L -28.4 -23.8
Q -30.7 -28.35 -30.65 -33.5 -30.7 -28.35 -28.4 -23.8
L -32.15 52.25
Q -37.4 59.7 -37.4 69.3 -37.4 78.1 -33 85.1 -31.85 86.9 -30.45 88.6 -29.55 89.6 -28.55 90.6 -27.35 91.8 -26.1 92.85 -23.75 94.75 -21.15 96.15 -14.9 99.4 -7.25 99.4 -7.1 99.4 -7 99.4 4.75 99.3 13.2 91.4 13.6 91 14 90.6 22.9 81.75 22.9 69.3 22.9 65.2 21.95 61.55 20.1 54.4 14.7 48.7
L 13.3 43.6 12.1 5.65 11.15 -24.05
Q 12.45 -26.85 12.95 -30.15 13.05 -30.85 13.1 -31.5 13.05 -30.85 12.95 -30.15 12.45 -26.85 11.15 -24.05
L 12.1 5.65
Q 13.25 -1.55 14.6 -10.25 14.65 -10.4 14.65 -10.5 19.35 -30.7 12.15 -43.5 10.6 -46.3 8.75 -48.4 8.05 -48.45 7.3 -48.5 8.05 -48.45 8.75 -48.4 11.65 -48.3 14.6 -48.3 59.5 -48.3 91.25 -76.6 105.05 -88.9 112.85 -103.35 136.55 -145.1 143.3 -195.2 100 -202.65 44.85 -226 38.2 -228.8 31.45 -231.8 27.25 -233.7 25.65 -237.9 25 -239.55 24.9 -241.2
M 62.2 -331.45
Q 50.8 -328.25 41.45 -319.6 25.65 -304.95 24.75 -283.5 24.6 -278.9 25.15 -274.55 25.15 -270.35 25.8 -266.4 27.05 -262.5 27.95 -258.6 28.85 -254.7 29.6 -250.85 30.65 -251.6 32 -252.1 36.2 -253.75 40.4 -251.9 42.1 -251.1 43.85 -250.35 43.6 -251.95 43.35 -253.6 42.45 -259 41.15 -264.6 40.4 -266.6 39.85 -268.65 39.4 -270.5 39 -272.4 38.35 -276.35 38.35 -280.55 37.8 -284.9 37.95 -289.5 38.85 -310.95 54.65 -325.6 58.25 -328.95 62.2 -331.45
M 128 -322.7
Q 113.4 -338.5 91.95 -339.35 75.4 -340 62.2 -331.45 58.25 -328.95 54.65 -325.6 38.85 -310.95 37.95 -289.5 37.8 -284.9 38.35 -280.55 38.35 -276.35 39 -272.4 40.25 -268.5 41.15 -264.6 42.45 -259 43.35 -253.6 43.6 -251.95 43.85 -250.35 101.15 -225.2 145.45 -217.15 147.6 -253.6 141.4 -294.15 139.55 -310.15 128 -322.7 Z"/>

<path fill="#FF0000" stroke="none" d="
M 32 -252.1
Q 30.65 -251.6 29.6 -250.85 27.15 -249.2 25.9 -246.3 24.75 -243.8 24.9 -241.2 25 -239.55 25.65 -237.9 27.25 -233.7 31.45 -231.8 38.2 -228.8 44.85 -226 100 -202.65 143.3 -195.2 146.2 -194.7 149 -194.25 153.5 -193.6 157.15 -196.3 160.85 -199 161.55 -203.5 162.2 -208 159.5 -211.65 156.8 -215.35 152.3 -216 148.9 -216.55 145.45 -217.15 101.15 -225.2 43.85 -250.35 42.1 -251.1 40.4 -251.9 36.2 -253.75 32 -252.1 Z"/>
</g>

<g id="Symbole_2_0_Layer0_1_FILL">
<path fill="#3D3F3E" stroke="none" d="
M -83.65 -142.7
Q -85.9 -138.75 -81.25 -140.4 -36.9 -177.75 -12.8 -152.35 6.7 -158.8 20.4 -173.4 8.1 -167.25 -3.05 -163.4 -37.95 -186.9 -83.65 -142.7
M -64.55 -111.5
Q -60.9 -113.95 -59.8 -118.45 -59.3 -121.7 -62 -121.6 -62.3 -117.7 -66.65 -115.05 -73.75 -110.45 -82.4 -104 -71.7 -106.75 -64.55 -111.5 Z"/>
</g>

<g id="Symbole_2_0_Layer0_1_MEMBER_0_FILL">
<path fill="url(#Gradient_1)" stroke="none" d="
M 285.35 279.5
L 276.75 246.4
Q 249.55 251.15 231.6 259.25 213.55 267.45 215.3 274.3 217.1 281.15 237.7 282.65 258.2 284.15 285.35 279.5 Z"/>

<path fill="url(#Gradient_2)" stroke="none" d="
M 277 246.35
Q 276.85 246.4 276.75 246.4
L 285.35 279.5
Q 285.5 279.5 285.6 279.45 298.75 277.2 306.75 270.75 314.75 264.3 312.95 257.45 311.2 250.6 300.65 247.35 290.15 244.1 277 246.35 Z"/>
</g>

<path id="Symbole_2_0_Layer2_0_1_STROKES" stroke="#3C3F3E" stroke-width="15" stroke-linejoin="round" stroke-linecap="round" fill="none" d="
M 145.45 -217.15
Q 147.6 -253.6 141.4 -294.15 139.55 -310.15 128 -322.7 113.4 -338.5 91.95 -339.35 75.4 -340 62.2 -331.45 58.25 -328.95 54.65 -325.6 38.85 -310.95 37.95 -289.5 37.8 -284.9 38.35 -280.55 38.35 -276.35 39 -272.4 40.25 -268.5 41.15 -264.6 42.45 -259 43.35 -253.6 43.6 -251.95 43.85 -250.35 101.15 -225.2 145.45 -217.15 148.9 -216.55 152.3 -216 156.8 -215.35 159.5 -211.65 162.2 -208 161.55 -203.5 160.85 -199 157.15 -196.3 153.5 -193.6 149 -194.25 146.2 -194.7 143.3 -195.2 136.55 -145.1 112.85 -103.35 105.05 -88.9 91.25 -76.6 59.5 -48.3 14.6 -48.3 11.65 -48.3 8.75 -48.4 10.6 -46.3 12.15 -43.5 19.35 -30.7 14.65 -10.5 14.65 -10.4 14.6 -10.25 13.25 -1.55 12.1 5.65
L 13.3 43.6 14.7 48.7
Q 20.1 54.4 21.95 61.55 22.15 61.75 22.4 61.95 23 62.5 23.6 63.1 23.4 61.05 23.4 58.9 23.4 44.25 33.75 33.9 44.1 23.55 58.7 23.55 73.35 23.55 83.7 33.9 94.05 44.25 94.05 58.9 94.05 73.5 83.7 83.85 76.8 90.75 68 93.1 63.6 94.25 58.7 94.25 49.8 94.25 42.45 90.4 43.1 92 43.65 93.65 49.7 111.45 33.25 128.05 28.05 133.25 22.7 135.9 21.95 163.1 32.85 197.8 46.85 242.4 34.55 295.5 34.15 297.75 33.55 299.95 30.35 311 21.6 319.8 12.4 329 0.7 332 -3.05 333 -7 333.35 -9.3 333.55 -11.7 333.55 -31.2 333.55 -45 319.75 -51.6 313.15 -55.05 305.3
L -55.05 305.25
Q -58.8 296.65 -58.8 286.5 -58.8 277.4 -55.8 269.55 -54.55 267 -53.45 264.4 -38.05 229 -43.4 187.4 -48.2 150.1 -45.35 120.3 -45.52890625 120.031640625 -45.8 119.775
L -45.85 119.7 -45.95 119.6 -46.025 119.45
Q -46.16875 119.28125 -46.3 119.15 -47.45 117.7 -48.25 116.15 -53.05 108 -59.4 90 -68.4 64.25 -66.2 42.8 -65.2 32.15 -63 22.25 -63.1 22.25 -63.25 22.25 -77.1 23.8 -85.55 12.9 -94 2 -88.7 -11.75 -83.45 -25.5 -64.9 -28.6 -44.55 -29.6 -30.1 -42.1 -28.55 -44.1 -26.85 -45.75 -22.65 -50.05 -17.85 -52.4 -18.45 -52.6 -19.1 -52.75 -42.95 -59.55 -62.05 -76.6 -76.3 -89.3 -84.15 -104.35
L -84.8 -104.35
M 62.2 -331.45
Q 50.8 -328.25 41.45 -319.6 25.65 -304.95 24.75 -283.5 24.6 -278.9 25.15 -274.55 25.15 -270.35 25.8 -266.4 27.05 -262.5 27.95 -258.6 28.85 -254.7 29.6 -250.85 30.65 -251.6 32 -252.1 36.2 -253.75 40.4 -251.9 42.1 -251.1 43.85 -250.35
M 39 -272.4
Q 39.4 -270.5 39.85 -268.65 40.4 -266.6 41.15 -264.6
M 24.9 -241.2
Q 25 -239.55 25.65 -237.9 27.25 -233.7 31.45 -231.8 38.2 -228.8 44.85 -226 100 -202.65 143.3 -195.2
M -93.5 -137.2
Q -93.8 -141 -93.8 -144.95 -93.8 -184.95 -62.05 -213.25 -38.25 -234.5 -7 -239.8 3.4 -241.6 14.6 -241.6 19.85 -241.6 24.9 -241.2 24.75 -243.8 25.9 -246.3 27.15 -249.2 29.6 -250.85
M 44.85 -226
Q 44.7 -223.8 44.5 -221.35
M 7.3 -48.5
Q 8.05 -48.45 8.75 -48.4
M 12.1 5.65
L 11.15 -24.05
Q 12.45 -26.85 12.95 -30.15 13.05 -30.85 13.1 -31.5
M -30.65 -33.5
Q -30.7 -28.35 -28.4 -23.8
L -32.15 52.25
Q -37.4 59.7 -37.4 69.3 -37.4 78.1 -33 85.1 -31.85 86.9 -30.45 88.6 -29.55 89.6 -28.55 90.6 -27.35 91.8 -26.1 92.85 -23.75 94.75 -21.15 96.15 -14.9 99.4 -7.25 99.4 -7.1 99.4 -7 99.4 4.75 99.3 13.2 91.4 13.6 91 14 90.6 22.9 81.75 22.9 69.3 22.9 65.2 21.95 61.55
M -84.15 -104.35
Q -92.1 -119.6 -93.5 -137.2 -93.85 -136.9 -94.25 -136.6
M -48.25 116.15
Q -47.25 117.85 -46.3 119.1 -46.1685546875 119.275390625 -46.025 119.45
M -46.3 119.15
L -46.3 119.1
M -45.35 120.3
L -45.35 120.2
Q -45.56875 119.98125 -45.8 119.775
M -45.35 120.2
Q -44.15 105.4 -36.55 92.8"/>

<path id="Symbole_2_0_Layer1_0_1_STROKES" stroke="#3C3F3E" stroke-width="15" stroke-linejoin="round" stroke-linecap="round" fill="none" d="
M 145.45 -217.15
Q 147.6 -253.6 141.4 -294.15 139.55 -310.15 128 -322.7 113.4 -338.5 91.95 -339.35 75.4 -340 62.2 -331.45 58.25 -328.95 54.65 -325.6 38.85 -310.95 37.95 -289.5 37.8 -284.9 38.35 -280.55 38.35 -276.35 39 -272.4 40.25 -268.5 41.15 -264.6 42.45 -259 43.35 -253.6 43.6 -251.95 43.85 -250.35 101.15 -225.2 145.45 -217.15 148.9 -216.55 152.3 -216 156.8 -215.35 159.5 -211.65 162.2 -208 161.55 -203.5 160.85 -199 157.15 -196.3 153.5 -193.6 149 -194.25 146.2 -194.7 143.3 -195.2 136.55 -145.1 112.85 -103.35 105.05 -88.9 91.25 -76.6 59.5 -48.3 14.6 -48.3 11.65 -48.3 8.75 -48.4 10.6 -46.3 12.15 -43.5 19.35 -30.7 14.65 -10.5 14.65 -10.4 14.6 -10.25 13.25 -1.55 12.1 5.65
L 13.3 43.6 14.7 48.7
Q 20.1 54.4 21.95 61.55 22.15 61.75 22.4 61.95 23 62.5 23.6 63.1 23.4 61.05 23.4 58.9 23.4 44.25 33.75 33.9 44.1 23.55 58.7 23.55 73.35 23.55 83.7 33.9 94.05 44.25 94.05 58.9 94.05 73.5 83.7 83.85 76.8 90.75 68 93.1 63.6 94.25 58.7 94.25 49.8 94.25 42.45 90.4 43.1 92 43.65 93.65 49.7 111.45 33.25 128.05 28.05 133.25 22.7 135.9 21.95 163.1 32.85 197.8 46.85 242.4 34.55 295.5 34.15 297.75 33.55 299.95 30.35 311 21.6 319.8 12.4 329 0.7 332 -3.05 333 -7 333.35 -9.3 333.55 -11.7 333.55 -31.2 333.55 -45 319.75 -51.6 313.15 -55.05 305.3
L -55.05 305.25
Q -58.8 296.65 -58.8 286.5 -58.8 277.4 -55.8 269.55 -54.55 267 -53.45 264.4 -38.05 229 -43.4 187.4 -48.2 150.1 -45.35 120.3 -45.52890625 120.031640625 -45.8 119.775
L -45.85 119.7 -45.95 119.6 -46.025 119.45
Q -46.16875 119.28125 -46.3 119.15 -47.45 117.7 -48.25 116.15 -53.05 108 -59.4 90 -68.4 64.25 -66.2 42.8 -65.2 32.15 -63 22.25 -63.1 22.25 -63.25 22.25 -77.1 23.8 -85.55 12.9 -94 2 -88.7 -11.75 -83.45 -25.5 -64.9 -28.6 -44.55 -29.6 -30.1 -42.1 -28.55 -44.1 -26.85 -45.75 -22.65 -50.05 -17.85 -52.4 -18.45 -52.6 -19.1 -52.75 -42.95 -59.55 -62.05 -76.6 -76.3 -89.3 -84.15 -104.35
L -84.8 -104.35
M 62.2 -331.45
Q 50.8 -328.25 41.45 -319.6 25.65 -304.95 24.75 -283.5 24.6 -278.9 25.15 -274.55 25.15 -270.35 25.8 -266.4 27.05 -262.5 27.95 -258.6 28.85 -254.7 29.6 -250.85 30.65 -251.6 32 -252.1 36.2 -253.75 40.4 -251.9 42.1 -251.1 43.85 -250.35
M 39 -272.4
Q 39.4 -270.5 39.85 -268.65 40.4 -266.6 41.15 -264.6
M -93.5 -137.2
Q -93.8 -141 -93.8 -144.95 -93.8 -184.95 -62.05 -213.25 -38.25 -234.5 -7 -239.8 3.4 -241.6 14.6 -241.6 19.85 -241.6 24.9 -241.2 24.75 -243.8 25.9 -246.3 27.15 -249.2 29.6 -250.85
M 24.9 -241.2
Q 25 -239.55 25.65 -237.9 27.25 -233.7 31.45 -231.8 38.2 -228.8 44.85 -226 100 -202.65 143.3 -195.2
M 44.85 -226
Q 44.7 -223.8 44.5 -221.35
M 12.1 5.65
L 11.15 -24.05
Q 12.45 -26.85 12.95 -30.15 13.05 -30.85 13.1 -31.5
M 7.3 -48.5
Q 8.05 -48.45 8.75 -48.4
M -30.65 -33.5
Q -30.7 -28.35 -28.4 -23.8
L -32.15 52.25
Q -37.4 59.7 -37.4 69.3 -37.4 78.1 -33 85.1 -31.85 86.9 -30.45 88.6 -29.55 89.6 -28.55 90.6 -27.35 91.8 -26.1 92.85 -23.75 94.75 -21.15 96.15 -14.9 99.4 -7.25 99.4 -7.1 99.4 -7 99.4 4.75 99.3 13.2 91.4 13.6 91 14 90.6 22.9 81.75 22.9 69.3 22.9 65.2 21.95 61.55
M -94.25 -136.6
Q -93.85 -136.9 -93.5 -137.2 -92.1 -119.6 -84.15 -104.35
M -48.25 116.15
Q -47.25 117.85 -46.3 119.1 -46.1685546875 119.275390625 -46.025 119.45
M -46.3 119.15
L -46.3 119.1
M -45.35 120.3
L -45.35 120.2
Q -45.56875 119.98125 -45.8 119.775
M -45.35 120.2
Q -44.15 105.4 -36.55 92.8"/>

<path id="Symbole_2_0_Layer0_0_1_STROKES" stroke="#3D3F3E" stroke-width="2" stroke-linejoin="miter" stroke-linecap="square" stroke-miterlimit="3" fill="none" d="
M 145.45 -217.15
Q 147.6 -253.6 141.4 -294.15 139.55 -310.15 128 -322.7 113.4 -338.5 91.95 -339.35 75.4 -340 62.2 -331.45 58.25 -328.95 54.65 -325.6 38.85 -310.95 37.95 -289.5 37.8 -284.9 38.35 -280.55 38.35 -276.35 39 -272.4 40.25 -268.5 41.15 -264.6 42.45 -259 43.35 -253.6 43.6 -251.95 43.85 -250.35 101.15 -225.2 145.45 -217.15 148.9 -216.55 152.3 -216 156.8 -215.35 159.5 -211.65 162.2 -208 161.55 -203.5 160.85 -199 157.15 -196.3 153.5 -193.6 149 -194.25 146.2 -194.7 143.3 -195.2 136.55 -145.1 112.85 -103.35 105.05 -88.9 91.25 -76.6 59.5 -48.3 14.6 -48.3 11.65 -48.3 8.75 -48.4 10.6 -46.3 12.15 -43.5 19.35 -30.7 14.65 -10.5 14.65 -10.4 14.6 -10.25 13.25 -1.55 12.1 5.65
L 13.3 43.6 14.7 48.7
Q 20.1 54.4 21.95 61.55 22.15 61.75 22.4 61.95 23 62.5 23.6 63.1 23.4 61.05 23.4 58.9 23.4 44.25 33.75 33.9 44.1 23.55 58.7 23.55 73.35 23.55 83.7 33.9 94.05 44.25 94.05 58.9 94.05 73.5 83.7 83.85 76.8 90.75 68 93.1 63.6 94.25 58.7 94.25 49.8 94.25 42.45 90.4 43.1 92 43.65 93.65 49.7 111.45 33.25 128.05 28.05 133.25 22.7 135.9 21.95 163.1 32.85 197.8 46.85 242.4 34.55 295.5 34.15 297.75 33.55 299.95 30.35 311 21.6 319.8 12.4 329 0.7 332 -3.05 333 -7 333.35 -9.3 333.55 -11.7 333.55 -31.2 333.55 -45 319.75 -51.6 313.15 -55.05 305.3
L -55.05 305.25
Q -58.8 296.65 -58.8 286.5 -58.8 277.4 -55.8 269.55 -54.55 267 -53.45 264.4 -38.05 229 -43.4 187.4 -48.2 150.1 -45.35 120.3 -45.52890625 120.031640625 -45.8 119.775
L -45.85 119.7 -45.95 119.6 -46.025 119.45
Q -46.16875 119.28125 -46.3 119.15 -47.45 117.7 -48.25 116.15 -53.05 108 -59.4 90 -68.4 64.25 -66.2 42.8 -65.2 32.15 -63 22.25 -63.1 22.25 -63.25 22.25 -77.1 23.8 -85.55 12.9 -94 2 -88.7 -11.75 -83.45 -25.5 -64.9 -28.6 -44.55 -29.6 -30.1 -42.1 -28.55 -44.1 -26.85 -45.75 -22.65 -50.05 -17.85 -52.4 -18.45 -52.6 -19.1 -52.75 -42.95 -59.55 -62.05 -76.6 -76.3 -89.3 -84.15 -104.35
L -84.8 -104.35
M 62.2 -331.45
Q 50.8 -328.25 41.45 -319.6 25.65 -304.95 24.75 -283.5 24.6 -278.9 25.15 -274.55 25.15 -270.35 25.8 -266.4 27.05 -262.5 27.95 -258.6 28.85 -254.7 29.6 -250.85 30.65 -251.6 32 -252.1 36.2 -253.75 40.4 -251.9 42.1 -251.1 43.85 -250.35
M 39 -272.4
Q 39.4 -270.5 39.85 -268.65 40.4 -266.6 41.15 -264.6
M 24.9 -241.2
Q 19.85 -241.6 14.6 -241.6 3.4 -241.6 -7 -239.8 -38.25 -234.5 -62.05 -213.25 -93.8 -184.95 -93.8 -144.95 -93.8 -141 -93.5 -137.2 -92.1 -119.6 -84.15 -104.35
M 24.9 -241.2
Q 25 -239.55 25.65 -237.9 27.25 -233.7 31.45 -231.8 38.2 -228.8 44.85 -226 100 -202.65 143.3 -195.2
M 29.6 -250.85
Q 27.15 -249.2 25.9 -246.3 24.75 -243.8 24.9 -241.2
M 7.3 -48.5
Q 8.05 -48.45 8.75 -48.4
M 12.1 5.65
L 11.15 -24.05
Q 12.45 -26.85 12.95 -30.15 13.05 -30.85 13.1 -31.5
M -30.65 -33.5
Q -30.7 -28.35 -28.4 -23.8
L -32.15 52.25
Q -37.4 59.7 -37.4 69.3 -37.4 78.1 -33 85.1 -31.85 86.9 -30.45 88.6 -29.55 89.6 -28.55 90.6 -27.35 91.8 -26.1 92.85 -23.75 94.75 -21.15 96.15 -14.9 99.4 -7.25 99.4 -7.1 99.4 -7 99.4 4.75 99.3 13.2 91.4 13.6 91 14 90.6 22.9 81.75 22.9 69.3 22.9 65.2 21.95 61.55
M -94.25 -136.6
Q -93.85 -136.9 -93.5 -137.2
M -46.3 119.15
L -46.3 119.1
Q -47.25 117.85 -48.25 116.15
M -46.3 119.1
Q -46.1685546875 119.275390625 -46.025 119.45
M -45.35 120.3
L -45.35 120.2
Q -45.56875 119.98125 -45.8 119.775
M -45.35 120.2
Q -44.15 105.4 -36.55 92.8"/>
</defs>

<g transform="matrix( 0.46343994140625, 0, 0, 0.46343994140625, 109.05,177) ">
<g transform="matrix( 1, 0, 0, 1, 0,0) ">
<use xlink:href="#Symbole_2_0_Layer2_0_FILL"/>

<use xlink:href="#Symbole_2_0_Layer2_0_1_STROKES"/>
</g>

<g transform="matrix( 1, 0, 0, 1, 0,0) ">
<use xlink:href="#Symbole_2_0_Layer1_0_FILL"/>

<use xlink:href="#Symbole_2_0_Layer1_0_1_STROKES"/>
</g>

<g transform="matrix( 1, 0, 0, 1, 0,0) ">
<use xlink:href="#Symbole_2_0_Layer0_0_FILL"/>

<use xlink:href="#Symbole_2_0_Layer0_0_1_STROKES"/>
</g>

<g transform="matrix( 1, 0, 0, 1, 0,0) ">
<use xlink:href="#Symbole_2_0_Layer0_1_FILL"/>
</g>

<g transform="matrix( 1, 0, 0, 1, -275,-400) ">
<use xlink:href="#Symbole_2_0_Layer0_1_MEMBER_0_FILL"/>
</g>
</g>
</svg>
