
<svg xmlns="http://www.w3.org/2000/svg" version="1.1" xmlns:xlink="http://www.w3.org/1999/xlink" preserveAspectRatio="none" x="0px" y="0px" width="200px" height="350px" viewBox="0 0 200 350">
<defs>
<radialGradient id="Gradient_1" gradientUnits="userSpaceOnUse" cx="0" cy="0" r="21.762532308993833" fx="0" fy="0" gradientTransform="matrix( -0.8943122851542743, -0.4474433334201539, -0.05399187848715593, 0.6008032435911181, 174.45,262.6) " spreadMethod="pad">
<stop  offset="0%" stop-color="#FF3333"/>

<stop  offset="100%" stop-color="#FF3333" stop-opacity="0"/>
</radialGradient>

<radialGradient id="Gradient_2" gradientUnits="userSpaceOnUse" cx="0" cy="0" r="10.414488105519167" fx="0" fy="0" gradientTransform="matrix( -0.8941870119439507, -0.4476936314833471, -0.11282359613789444, 1.2554625697897617, 174.15,262.45) " spreadMethod="pad">
<stop  offset="0%" stop-color="#FF3333"/>

<stop  offset="100%" stop-color="#FF3333" stop-opacity="0"/>
</radialGradient>

<radialGradient id="Gradient_3" gradientUnits="userSpaceOnUse" cx="0" cy="0" r="53.64122860496393" fx="0" fy="0" gradientTransform="matrix( 0.9833853804593609, -0.1815301448762659, 0.05942257630737844, 0.24374907771575627, 326.55,262.6) " spreadMethod="pad">
<stop  offset="0%" stop-color="#FF3333"/>

<stop  offset="100%" stop-color="#FF3333" stop-opacity="0"/>
</radialGradient>

<radialGradient id="Gradient_4" gradientUnits="userSpaceOnUse" cx="0" cy="0" r="25.676865195151844" fx="0" fy="0" gradientTransform="matrix( 0.9833754941692633, -0.18158369273521544, 0.12413898565008026, 0.5092132509411136, 327.45,262.45) " spreadMethod="pad">
<stop  offset="0%" stop-color="#FF3333"/>

<stop  offset="100%" stop-color="#FF3333" stop-opacity="0"/>
</radialGradient>

<g id="Symbole_2_0_Layer2_0_FILL">
<path fill="#660000" stroke="none" d="
M -60.9 40.4
Q -59.3 36.45 -57.45 32.45 -57.4 26.95 -57.3 21.85
L -57.35 21.85
Q -64.2 20.3 -69.55 14.95 -73.05 11.45 -74.95 7.35
L -90.7 42.45
Q -93.1 44.1 -95.3 46.3 -104.15 55.15 -104.15 67.6 -104.15 80.1 -95.3 88.9 -86.45 97.75 -74 97.75 -72.55 97.75 -71.1 97.65 -74.25 73.2 -60.9 40.4
M 26.25 -232.65
Q 27.55 -220.7 27.5 -210.8 27.55 -220.7 26.25 -232.65 21.1 -233.2 15.85 -233.55 11.3 -233.9 8.3 -237.35 6 -240 5.65 -243.25 4.1 -243.3 2.5 -243.3 -2.15 -243.3 -6.7 -243 -22.75 -241.9 -37.05 -236.95 -45.85 -233.9 -54 -229.35 -64.65 -223.45 -74.15 -214.95 -98 -193.75 -103.95 -165.95 -105.95 -156.65 -105.95 -146.65 -105.95 -106.65 -74.15 -78.3 -56.2 -62.3 -34.1 -55.35 -27.75 -53.35 -21.1 -52.1 -20.65 -52.05 -20.2 -51.95 -20.65 -52.05 -21.1 -52.1 -27.75 -53.35 -34.1 -55.35 -42.3 -54.9 -48.2 -49 -50.15 -47.05 -51.3 -44.6
L -59.55 -26.95
Q -57.15 -28.3 -55 -29.1 -53.5 -29.65 -51.95 -30.9 -51.85 -31.25 -51.75 -31.6 -50.85 -34.75 -49.65 -37.45 -50.85 -34.75 -51.75 -31.6 -51.85 -31.25 -51.95 -30.9 -53.5 -29.65 -55 -29.1 -57.15 -28.3 -59.55 -26.95
L -59.6 -26.95
Q -62.95 -25.05 -66.85 -22.1 -73.45 -17.1 -75.35 -12.3 -77 -8 -77 -3 -77 2 -75.35 6.3 -75.15 6.8 -74.95 7.3
L -74.95 7.35
Q -73.05 11.45 -69.55 14.95 -64.2 20.3 -57.35 21.85
L -57.3 21.85
Q -54.55 22.45 -51.55 22.45 -43.5 22.45 -37.3 18.1 -27.2 25.4 -19.15 25.4 -8.6 25.4 -1.15 16.9 4.95 10 6.05 0.7 4.95 10 -1.15 16.9 -8.6 25.4 -19.15 25.4 -27.2 25.4 -37.3 18.1 -43.5 22.45 -51.55 22.45 -54.55 22.45 -57.3 21.85 -57.4 26.95 -57.45 32.45 -59.3 36.45 -60.9 40.4 -74.25 73.2 -71.1 97.65 -70.3 103.7 -68.5 109.3 -68.453125 109.253125 -68.45 109.15 -68.451953125 109.30625 -68.5 109.45 -68.5 109.35 -68.5 109.3 -82.2 142.8 -85.65 181.3 -89.65 226.85 -100.85 267.9 -102.6 272.1 -103.55 276.65 -104.45 281.35 -104.45 286.45 -104.45 305.95 -90.7 319.75 -81.5 328.95 -69.8 331.95 -63.9 333.5 -57.4 333.5 -37.9 333.5 -24.1 319.7 -17.5 313.1 -14.1 305.25
L -14.05 305.2
Q -10.85 297.85 -10.4 289.3 -10.3 288.25 -10.3 287.2 -8.5 245.65 -10.25 205.6 -10.45 200.95 -10.5 196.45 -11.15 192.9 -11.85 189.5 -16.6 166.6 -18.5 144.9 -19.3 135.4 -19.55 126.1 -19.65 126.1 -19.7 126.1 -25.75 125.55 -33.85 117.25 -42.25 108.1 -47.1 94.05 -42.25 108.1 -33.85 117.25 -25.75 125.55 -19.7 126.1 -19.65 126.1 -19.55 126.1 -22.75 105.9 -16.95 93.05 -22.75 105.9 -19.55 126.1 -19.3 135.4 -18.5 144.9 -16.6 166.6 -11.85 189.5 -11.15 192.9 -10.5 196.45 -7.55 212.9 -6.7 231 -5.95 246.25 -6.7 262.65 -6.9 267.45 -8.25 280.55 -8.25 280.6 -8.25 280.65 -8.75 284.55 -8.7 288.3 -8.65 288.9 -8.65 289.55 -8.35 294.65 -6.8 300.3 -6.75 300.45 -6.7 300.6 -4.4 308.6 1.2 315.9 13.1 331.4 32.4 333.95 38.85 334.8 44.9 334 56.85 332 67.2 324.1 82.65 312.2 85.15 292.9 85.85 287.45 85.45 282.35 81.8 228.9 64.3 183.7 54.75 159 51.1 132.4 55.25 123.75 56.7 114.45 57.75 107.85 56.5 99.4 56.25 99.4 56 99.4 51.4 99.4 47.3 98.2 41.7 96.55 37 92.65 35.85 91.7 34.75 90.6 28.9 84.8 26.9 77.45 25.85 73.6 25.85 69.3 25.85 64.4 27.2 60.05
L 4.95 -23.2 27.2 60.05
Q 25.85 64.4 25.85 69.3 25.85 73.6 26.9 77.45 28.9 84.8 34.75 90.6 35.85 91.7 37 92.65 41.7 96.55 47.3 98.2 51.4 99.4 56 99.4 56.25 99.4 56.5 99.4 58 99.35 59.4 99.25 69.75 98.15 77.3 90.6 86.15 81.75 86.15 69.3 86.15 58.3 79.25 50.15
L 37.6 -39.45
Q 33.65 -47.45 31.9 -49.2 30 -51.1 27.8 -52.45 24.35 -54.6 20.25 -55.3 20 -55.35 19.75 -55.35 18.1 -55.6 16.4 -55.6 10.6 -55.6 5.85 -52.95 10.6 -55.6 16.4 -55.6 18.1 -55.6 19.75 -55.35 20 -55.35 20.25 -55.3 24.35 -54.6 27.8 -52.45 56.75 -58.35 79.15 -78.3 100.95 -97.8 110.05 -124.35 121 -156.15 124.1 -195.95 123.65 -196.25 123.25 -196.6 86.3 -226.25 26.25 -232.65
M 17.4 -255.5
Q 12.85 -255.85 9.4 -252.85 5.95 -249.85 5.65 -245.35 5.55 -244.25 5.65 -243.25 6 -240 8.3 -237.35 11.3 -233.9 15.85 -233.55 21.1 -233.2 26.25 -232.65 86.3 -226.25 123.25 -196.6 123.65 -196.25 124.1 -195.95 127.3 -193.8 131.3 -194.2 135.8 -194.7 138.7 -198.2 141.55 -201.75 141.1 -206.25 140.6 -210.8 137.1 -213.7 131.4 -218.35 125.3 -222.45 84.8 -249.65 22.9 -255.1 20.15 -255.35 17.4 -255.5
M 24.2 -311.6
Q 21.55 -316.3 17.8 -320.65 3.7 -336.85 -17.75 -338.35 -39.2 -339.85 -55.4 -325.75 -71.7 -311.6 -73.15 -290.15 -74.3 -274 -66.55 -260.8
L -66.2 -260.25
Q -59.45 -248.5 -54 -229.35 -45.85 -233.9 -37.05 -236.95 -22.75 -241.9 -6.7 -243 -2.15 -243.3 2.5 -243.3 4.1 -243.3 5.65 -243.25 5.55 -244.25 5.65 -245.35 5.95 -249.85 9.4 -252.85 12.85 -255.85 17.4 -255.5 20.15 -255.35 22.9 -255.1 22.6 -256.65 22.3 -258.25 21 -265.1 19.35 -273.95 18.75 -276.6 18.35 -279.3 18.35 -279.5 18.3 -279.7 18.1 -281.3 18 -282.95 16.95 -298.65 24.2 -311.6
M 120.55 -297.6
Q 117.2 -314.15 103.8 -325.75 87.6 -339.85 66.15 -338.35 44.7 -336.85 30.6 -320.65 26.85 -316.3 24.2 -311.6 16.95 -298.65 18 -282.95 18.1 -281.3 18.3 -279.7 18.35 -279.5 18.35 -279.3 18.75 -276.6 19.35 -273.95 21 -265.1 22.3 -258.25 22.6 -256.65 22.9 -255.1 84.8 -249.65 125.3 -222.45 125.5 -239.6 124.45 -258 123.3 -277.7 121.4 -291.6 121.15 -294.7 120.55 -297.6 Z"/>
</g>

<g id="Symbole_2_0_Layer1_0_FILL">
<path fill="#660000" stroke="none" d="
M -57.3 21.85
L -57.35 21.85
Q -64.2 20.3 -69.55 14.95 -73.05 11.45 -74.95 7.35
L -90.7 42.45
Q -93.1 44.1 -95.3 46.3 -104.15 55.15 -104.15 67.6 -104.15 80.1 -95.3 88.9 -86.45 97.75 -74 97.75 -72.55 97.75 -71.1 97.65 -74.25 73.2 -60.9 40.4 -59.3 36.45 -57.45 32.45 -57.4 26.95 -57.3 21.85
M 26.25 -232.65
Q 21.1 -233.2 15.85 -233.55 11.3 -233.9 8.3 -237.35 6 -240 5.65 -243.25 4.1 -243.3 2.5 -243.3 -2.15 -243.3 -6.7 -243 -22.75 -241.9 -37.05 -236.95 -45.85 -233.9 -54 -229.35 -64.65 -223.45 -74.15 -214.95 -98 -193.75 -103.95 -165.95 -105.95 -156.65 -105.95 -146.65 -105.95 -106.65 -74.15 -78.3 -56.2 -62.3 -34.1 -55.35 -27.75 -53.35 -21.1 -52.1 -20.65 -52.05 -20.2 -51.95 -20.65 -52.05 -21.1 -52.1 -27.75 -53.35 -34.1 -55.35 -42.3 -54.9 -48.2 -49 -50.15 -47.05 -51.3 -44.6
L -59.55 -26.95
Q -57.15 -28.3 -55 -29.1 -53.5 -29.65 -51.95 -30.9 -51.85 -31.25 -51.75 -31.6 -50.85 -34.75 -49.65 -37.45 -50.85 -34.75 -51.75 -31.6 -51.85 -31.25 -51.95 -30.9 -53.5 -29.65 -55 -29.1 -57.15 -28.3 -59.55 -26.95
L -59.6 -26.95
Q -62.95 -25.05 -66.85 -22.1 -73.45 -17.1 -75.35 -12.3 -77 -8 -77 -3 -77 2 -75.35 6.3 -75.15 6.8 -74.95 7.3
L -74.95 7.35
Q -73.05 11.45 -69.55 14.95 -64.2 20.3 -57.35 21.85
L -57.3 21.85
Q -54.55 22.45 -51.55 22.45 -43.5 22.45 -37.3 18.1 -27.2 25.4 -19.15 25.4 -8.6 25.4 -1.15 16.9 4.95 10 6.05 0.7 4.95 10 -1.15 16.9 -8.6 25.4 -19.15 25.4 -27.2 25.4 -37.3 18.1 -43.5 22.45 -51.55 22.45 -54.55 22.45 -57.3 21.85 -57.4 26.95 -57.45 32.45 -59.3 36.45 -60.9 40.4 -74.25 73.2 -71.1 97.65 -70.3 103.7 -68.5 109.3 -68.453125 109.253125 -68.45 109.15 -68.451953125 109.30625 -68.5 109.45 -68.5 109.35 -68.5 109.3 -82.2 142.8 -85.65 181.3 -89.65 226.85 -100.85 267.9 -102.6 272.1 -103.55 276.65 -104.45 281.35 -104.45 286.45 -104.45 305.95 -90.7 319.75 -81.5 328.95 -69.8 331.95 -63.9 333.5 -57.4 333.5 -37.9 333.5 -24.1 319.7 -17.5 313.1 -14.1 305.25
L -14.05 305.2
Q -10.85 297.85 -10.4 289.3 -10.3 288.25 -10.3 287.2 -8.5 245.65 -10.25 205.6 -10.45 200.95 -10.5 196.45 -11.15 192.9 -11.85 189.5 -16.6 166.6 -18.5 144.9 -19.3 135.4 -19.55 126.1 -19.65 126.1 -19.7 126.1 -25.75 125.55 -33.85 117.25 -42.25 108.1 -47.1 94.05 -42.25 108.1 -33.85 117.25 -25.75 125.55 -19.7 126.1 -19.65 126.1 -19.55 126.1 -22.75 105.9 -16.95 93.05 -22.75 105.9 -19.55 126.1 -19.3 135.4 -18.5 144.9 -16.6 166.6 -11.85 189.5 -11.15 192.9 -10.5 196.45 -7.55 212.9 -6.7 231 -5.95 246.25 -6.7 262.65 -6.9 267.45 -8.25 280.55 -8.25 280.6 -8.25 280.65 -8.75 284.55 -8.7 288.3 -8.65 288.9 -8.65 289.55 -8.35 294.65 -6.8 300.3 -6.75 300.45 -6.7 300.6 -4.4 308.6 1.2 315.9 13.1 331.4 32.4 333.95 38.85 334.8 44.9 334 56.85 332 67.2 324.1 82.65 312.2 85.15 292.9 85.85 287.45 85.45 282.35 81.8 228.9 64.3 183.7 54.75 159 51.1 132.4 55.25 123.75 56.7 114.45 57.75 107.85 56.5 99.4 56.25 99.4 56 99.4 51.4 99.4 47.3 98.2 41.7 96.55 37 92.65 35.85 91.7 34.75 90.6 28.9 84.8 26.9 77.45 25.85 73.6 25.85 69.3 25.85 64.4 27.2 60.05
L 4.95 -23.2 27.2 60.05
Q 25.85 64.4 25.85 69.3 25.85 73.6 26.9 77.45 28.9 84.8 34.75 90.6 35.85 91.7 37 92.65 41.7 96.55 47.3 98.2 51.4 99.4 56 99.4 56.25 99.4 56.5 99.4 58 99.35 59.4 99.25 69.75 98.15 77.3 90.6 86.15 81.75 86.15 69.3 86.15 58.3 79.25 50.15
L 37.6 -39.45
Q 33.65 -47.45 31.9 -49.2 30 -51.1 27.8 -52.45 24.35 -54.6 20.25 -55.3 20 -55.35 19.75 -55.35 18.1 -55.6 16.4 -55.6 10.6 -55.6 5.85 -52.95 10.6 -55.6 16.4 -55.6 18.1 -55.6 19.75 -55.35 20 -55.35 20.25 -55.3 24.35 -54.6 27.8 -52.45 56.75 -58.35 79.15 -78.3 100.95 -97.8 110.05 -124.35 121 -156.15 124.1 -195.95 123.65 -196.25 123.25 -196.6 86.3 -226.25 26.25 -232.65 27.55 -220.7 27.5 -210.8 27.55 -220.7 26.25 -232.65
M 17.4 -255.5
Q 12.85 -255.85 9.4 -252.85 5.95 -249.85 5.65 -245.35 5.55 -244.25 5.65 -243.25 6 -240 8.3 -237.35 11.3 -233.9 15.85 -233.55 21.1 -233.2 26.25 -232.65 86.3 -226.25 123.25 -196.6 123.65 -196.25 124.1 -195.95 127.3 -193.8 131.3 -194.2 135.8 -194.7 138.7 -198.2 141.55 -201.75 141.1 -206.25 140.6 -210.8 137.1 -213.7 131.4 -218.35 125.3 -222.45 84.8 -249.65 22.9 -255.1 20.15 -255.35 17.4 -255.5
M 24.2 -311.6
Q 21.55 -316.3 17.8 -320.65 3.7 -336.85 -17.75 -338.35 -39.2 -339.85 -55.4 -325.75 -71.7 -311.6 -73.15 -290.15 -74.3 -274 -66.55 -260.8
L -66.2 -260.25
Q -59.45 -248.5 -54 -229.35 -45.85 -233.9 -37.05 -236.95 -22.75 -241.9 -6.7 -243 -2.15 -243.3 2.5 -243.3 4.1 -243.3 5.65 -243.25 5.55 -244.25 5.65 -245.35 5.95 -249.85 9.4 -252.85 12.85 -255.85 17.4 -255.5 20.15 -255.35 22.9 -255.1 22.6 -256.65 22.3 -258.25 21 -265.1 19.35 -273.95 18.75 -276.6 18.35 -279.3 18.35 -279.5 18.3 -279.7 18.1 -281.3 18 -282.95 16.95 -298.65 24.2 -311.6
M 120.55 -297.6
Q 117.2 -314.15 103.8 -325.75 87.6 -339.85 66.15 -338.35 44.7 -336.85 30.6 -320.65 26.85 -316.3 24.2 -311.6 16.95 -298.65 18 -282.95 18.1 -281.3 18.3 -279.7 18.35 -279.5 18.35 -279.3 18.75 -276.6 19.35 -273.95 21 -265.1 22.3 -258.25 22.6 -256.65 22.9 -255.1 84.8 -249.65 125.3 -222.45 125.5 -239.6 124.45 -258 123.3 -277.7 121.4 -291.6 121.15 -294.7 120.55 -297.6 Z"/>
</g>

<g id="Symbole_2_0_Layer0_0_FILL">
<path fill="#FFB19C" stroke="none" d="
M -60.9 40.4
Q -59.3 36.45 -57.45 32.45 -57.4 26.95 -57.3 21.85
L -57.35 21.85
Q -64.2 20.3 -69.55 14.95 -73.05 11.45 -74.95 7.35
L -90.7 42.45
Q -93.1 44.1 -95.3 46.3 -104.15 55.15 -104.15 67.6 -104.15 80.1 -95.3 88.9 -86.45 97.75 -74 97.75 -72.55 97.75 -71.1 97.65 -74.25 73.2 -60.9 40.4
M 5.65 -243.25
Q 4.1 -243.3 2.5 -243.3 -2.15 -243.3 -6.7 -243 -22.75 -241.9 -37.05 -236.95 -45.85 -233.9 -54 -229.35 -64.65 -223.45 -74.15 -214.95 -98 -193.75 -103.95 -165.95 -105.95 -156.65 -105.95 -146.65 -105.95 -106.65 -74.15 -78.3 -56.2 -62.3 -34.1 -55.35 -27.75 -53.35 -21.1 -52.1 -20.65 -52.05 -20.2 -51.95 -20.65 -52.05 -21.1 -52.1 -27.75 -53.35 -34.1 -55.35 -42.3 -54.9 -48.2 -49 -50.15 -47.05 -51.5 -44.8 -51.6 -44.65 -51.7 -44.5
L -59.55 -26.95
Q -57.15 -28.3 -55 -29.1 -53.5 -29.65 -51.95 -30.9 -51.85 -31.25 -51.75 -31.6 -50.85 -34.75 -49.65 -37.45 -50.85 -34.75 -51.75 -31.6 -51.85 -31.25 -51.95 -30.9 -53.5 -29.65 -55 -29.1 -57.15 -28.3 -59.55 -26.95
L -59.6 -26.95
Q -62.95 -25.05 -66.85 -22.1 -73.45 -17.1 -75.35 -12.3 -77 -8 -77 -3 -77 2 -75.35 6.3 -75.15 6.8 -74.95 7.3
L -74.95 7.35
Q -73.05 11.45 -69.55 14.95 -64.2 20.3 -57.35 21.85
L -57.3 21.85
Q -54.55 22.45 -51.55 22.45 -43.5 22.45 -37.3 18.1 -27.2 25.4 -19.15 25.4 -8.6 25.4 -1.15 16.9 4.95 10 6.05 0.7 4.95 10 -1.15 16.9 -8.6 25.4 -19.15 25.4 -27.2 25.4 -37.3 18.1 -43.5 22.45 -51.55 22.45 -54.55 22.45 -57.3 21.85 -57.4 26.95 -57.45 32.45 -59.3 36.45 -60.9 40.4 -74.25 73.2 -71.1 97.65 -70.3 103.7 -68.5 109.3 -68.453125 109.253125 -68.45 109.15 -68.451953125 109.30625 -68.5 109.45 -68.5 109.35 -68.5 109.3 -82.2 142.8 -85.65 181.3 -89.65 226.85 -100.85 267.9 -102.6 272.1 -103.55 276.65 -104.45 281.35 -104.45 286.45 -104.45 305.95 -90.7 319.75 -81.5 328.95 -69.8 331.95 -63.9 333.5 -57.4 333.5 -37.9 333.5 -24.1 319.7 -17.5 313.1 -14.1 305.25
L -14.05 305.2
Q -10.85 297.85 -10.4 289.3 -10.3 288.25 -10.3 287.2 -8.5 245.65 -10.25 205.6 -10.45 200.95 -10.5 196.45 -11.15 192.9 -11.85 189.5 -16.6 166.6 -18.5 144.9 -19.3 135.4 -19.55 126.1 -22.75 105.9 -6.95 94.6 -22.75 105.9 -19.55 126.1 -19.3 135.4 -18.5 144.9 -16.6 166.6 -11.85 189.5 -11.15 192.9 -10.5 196.45 -7.55 212.9 -6.7 231 -5.95 246.25 -6.7 262.65 -6.9 267.45 -8.25 280.55 -8.25 280.6 -8.25 280.65 -8.75 284.55 -8.7 288.3 -8.65 288.9 -8.65 289.55 -8.35 294.65 -6.8 300.3 -6.75 300.45 -6.7 300.6 -4.4 308.6 1.2 315.9 13.1 331.4 32.4 333.95 38.85 334.8 44.9 334 56.85 332 67.2 324.1 82.65 312.2 85.15 292.9 85.85 287.45 85.45 282.35 81.8 228.9 64.3 183.7 54.75 159 51.1 132.4 55.25 123.75 56.7 114.45 57.75 107.85 56.5 99.4 56.25 99.4 56 99.4 51.4 99.4 47.3 98.2 41.7 96.55 37 92.65 35.85 91.7 34.75 90.6 28.9 84.8 26.9 77.45 25.85 73.6 25.85 69.3 25.85 64.4 27.2 60.05
L 4.95 -23.2 27.2 60.05
Q 25.85 64.4 25.85 69.3 25.85 73.6 26.9 77.45 28.9 84.8 34.75 90.6 35.85 91.7 37 92.65 41.7 96.55 47.3 98.2 51.4 99.4 56 99.4 56.25 99.4 56.5 99.4 58 99.35 59.4 99.25 69.75 98.15 77.3 90.6 86.15 81.75 86.15 69.3 86.15 58.3 79.25 50.15
L 37.6 -39.45
Q 33.65 -47.45 31.9 -49.2 30 -51.1 27.8 -52.45 24.35 -54.6 20.25 -55.3 20 -55.35 19.75 -55.35 18.1 -55.6 16.4 -55.6 10.6 -55.6 5.85 -52.95 10.6 -55.6 16.4 -55.6 18.1 -55.6 19.75 -55.35 20 -55.35 20.25 -55.3 24.35 -54.6 27.8 -52.45 56.75 -58.35 79.15 -78.3 100.95 -97.8 110.05 -124.35 121 -156.15 124.1 -195.95 123.65 -196.25 123.25 -196.6 86.3 -226.25 26.25 -232.65 21.1 -233.2 15.85 -233.55 11.3 -233.9 8.3 -237.35 6 -240 5.65 -243.25
M -41.35 117.25
Q -33.25 125.55 -27.2 126.1 -33.25 125.55 -41.35 117.25 -49.75 108.1 -54.6 94.05 -49.75 108.1 -41.35 117.25
M 24.2 -311.6
Q 21.55 -316.3 17.8 -320.65 3.7 -336.85 -17.75 -338.35 -39.2 -339.85 -55.4 -325.75 -71.7 -311.6 -73.15 -290.15 -74.3 -274 -66.55 -260.8
L -66.2 -260.25
Q -59.45 -248.5 -54 -229.35 -45.85 -233.9 -37.05 -236.95 -22.75 -241.9 -6.7 -243 -2.15 -243.3 2.5 -243.3 4.1 -243.3 5.65 -243.25 5.55 -244.25 5.65 -245.35 5.95 -249.85 9.4 -252.85 12.85 -255.85 17.4 -255.5 20.15 -255.35 22.9 -255.1 22.6 -256.65 22.3 -258.25 21 -265.1 19.35 -273.95 18.75 -276.6 18.35 -279.3 18.35 -279.5 18.3 -279.7 18.1 -281.3 18 -282.95 16.95 -298.65 24.2 -311.6
M 120.55 -297.6
Q 117.2 -314.15 103.8 -325.75 87.6 -339.85 66.15 -338.35 44.7 -336.85 30.6 -320.65 26.85 -316.3 24.2 -311.6 16.95 -298.65 18 -282.95 18.1 -281.3 18.3 -279.7 18.35 -279.5 18.35 -279.3 18.75 -276.6 19.35 -273.95 21 -265.1 22.3 -258.25 22.6 -256.65 22.9 -255.1 84.8 -249.65 125.3 -222.45 125.5 -239.6 124.45 -258 123.3 -277.7 121.4 -291.6 121.15 -294.7 120.55 -297.6 Z"/>

<path fill="#FF0000" stroke="none" d="
M 17.4 -255.5
Q 12.85 -255.85 9.4 -252.85 5.95 -249.85 5.65 -245.35 5.55 -244.25 5.65 -243.25 6 -240 8.3 -237.35 11.3 -233.9 15.85 -233.55 21.1 -233.2 26.25 -232.65 86.3 -226.25 123.25 -196.6 123.65 -196.25 124.1 -195.95 127.3 -193.8 131.3 -194.2 135.8 -194.7 138.7 -198.2 141.55 -201.75 141.1 -206.25 140.6 -210.8 137.1 -213.7 131.4 -218.35 125.3 -222.45 84.8 -249.65 22.9 -255.1 20.15 -255.35 17.4 -255.5 Z"/>
</g>

<g id="Symbole_2_0_Layer0_1_FILL">
<path fill="#3D3F3E" stroke="none" d="
M -21.2 -121.6
Q -21.5 -117.7 -25.85 -115.05 -32.95 -110.45 -41.6 -104 -30.9 -106.75 -23.75 -111.5 -20.1 -113.95 -19 -118.45 -18.5 -121.7 -21.2 -121.6
M -60.75 -122.45
Q -62.15 -124.1 -62.05 -119.45 -61.65 -114.65 -59.55 -112.05 -54.1 -105.45 -47.35 -103.7 -52.7 -109.1 -57.75 -114.75 -60.4 -117.75 -60.75 -122.45
M -60.7 -140.4
Q -58.5 -138.75 -59.55 -142.7 -81.15 -186.9 -97.65 -163.4 -102.85 -167.25 -108.65 -173.4 -102.2 -158.8 -93 -152.35 -81.65 -177.75 -60.7 -140.4
M 69 -173.4
Q 57.55 -167.25 47.25 -163.4 14.9 -186.9 -27.5 -142.7 -29.6 -138.75 -25.25 -140.4 15.85 -177.75 38.2 -152.35 56.25 -158.8 69 -173.4 Z"/>
</g>

<g id="Symbole_2_0_Layer0_1_MEMBER_0_FILL">
<path fill="url(#Gradient_1)" stroke="none" d="
M 172.3 279.5
Q 181.7 284.15 188.75 282.65 195.85 281.15 196.45 274.3 197.05 267.45 190.85 259.25 184.65 251.15 175.25 246.4
L 172.3 279.5 Z"/>

<path fill="url(#Gradient_2)" stroke="none" d="
M 175.25 246.4
L 175.2 246.35
Q 170.65 244.1 167 247.35 163.4 250.6 162.8 257.45 162.15 264.3 164.9 270.75 167.7 277.2 172.2 279.45 172.25 279.5 172.3 279.5
L 175.25 246.4 Z"/>
</g>

<g id="Symbole_2_0_Layer0_1_MEMBER_1_FILL">
<path fill="url(#Gradient_3)" stroke="none" d="
M 332.45 279.5
L 324.4 246.4
Q 298.95 251.15 282.2 259.25 265.3 267.45 266.95 274.3 268.6 281.15 287.9 282.65 307 284.15 332.45 279.5 Z"/>

<path fill="url(#Gradient_4)" stroke="none" d="
M 324.6 246.35
Q 324.5 246.4 324.4 246.4
L 332.45 279.5
Q 332.55 279.5 332.65 279.45 344.95 277.2 352.45 270.75 359.9 264.3 358.25 257.45 356.55 250.6 346.75 247.35 336.9 244.1 324.6 246.35 Z"/>
</g>

<path id="Symbole_2_0_Layer2_0_1_STROKES" stroke="#3C3F3E" stroke-width="15" stroke-linejoin="round" stroke-linecap="round" fill="none" d="
M 125.3 -222.45
Q 125.5 -239.6 124.45 -258 123.3 -277.7 121.4 -291.6 121.15 -294.7 120.55 -297.6 117.2 -314.15 103.8 -325.75 87.6 -339.85 66.15 -338.35 44.7 -336.85 30.6 -320.65 26.85 -316.3 24.2 -311.6 16.95 -298.65 18 -282.95 18.1 -281.3 18.3 -279.7 18.35 -279.5 18.35 -279.3 18.75 -276.6 19.35 -273.95 21 -265.1 22.3 -258.25 22.6 -256.65 22.9 -255.1 84.8 -249.65 125.3 -222.45 131.4 -218.35 137.1 -213.7 140.6 -210.8 141.1 -206.25 141.55 -201.75 138.7 -198.2 135.8 -194.7 131.3 -194.2 127.3 -193.8 124.1 -195.95 121 -156.15 110.05 -124.35 100.95 -97.8 79.15 -78.3 56.75 -58.35 27.8 -52.45 30 -51.1 31.9 -49.2 33.65 -47.45 37.6 -39.45
L 79.25 50.15
Q 86.15 58.3 86.15 69.3 86.15 81.75 77.3 90.6 69.75 98.15 59.4 99.25 58 99.35 56.5 99.4 57.75 107.85 56.7 114.45 55.25 123.75 51.1 132.4 54.75 159 64.3 183.7 81.8 228.9 85.45 282.35 85.85 287.45 85.15 292.9 82.65 312.2 67.2 324.1 56.85 332 44.9 334 38.85 334.8 32.4 333.95 13.1 331.4 1.2 315.9 -4.4 308.6 -6.7 300.6 -6.75 300.45 -6.8 300.3 -8.35 294.65 -8.65 289.55 -8.65 288.9 -8.7 288.3 -8.75 284.55 -8.25 280.65 -8.25 280.6 -8.25 280.55 -6.9 267.45 -6.7 262.65 -5.95 246.25 -6.7 231 -7.55 212.9 -10.5 196.45 -10.45 200.95 -10.25 205.6 -8.5 245.65 -10.3 287.2 -10.3 288.25 -10.4 289.3 -10.85 297.85 -14.05 305.2
L -14.1 305.25
Q -17.5 313.1 -24.1 319.7 -37.9 333.5 -57.4 333.5 -63.9 333.5 -69.8 331.95 -81.5 328.95 -90.7 319.75 -104.45 305.95 -104.45 286.45 -104.45 281.35 -103.55 276.65 -102.6 272.1 -100.85 267.9 -89.65 226.85 -85.65 181.3 -82.2 142.8 -68.5 109.3 -70.3 103.7 -71.1 97.65 -72.55 97.75 -74 97.75 -86.45 97.75 -95.3 88.9 -104.15 80.1 -104.15 67.6 -104.15 55.15 -95.3 46.3 -93.1 44.1 -90.7 42.45
L -74.95 7.35 -74.95 7.3
Q -75.15 6.8 -75.35 6.3 -77 2 -77 -3 -77 -8 -75.35 -12.3 -73.45 -17.1 -66.85 -22.1 -62.95 -25.05 -59.6 -26.95
L -59.55 -26.95 -51.3 -44.6
Q -50.15 -47.05 -48.2 -49 -42.3 -54.9 -34.1 -55.35 -56.2 -62.3 -74.15 -78.3 -105.95 -106.65 -105.95 -146.65 -105.95 -156.65 -103.95 -165.95 -98 -193.75 -74.15 -214.95 -64.65 -223.45 -54 -229.35 -59.45 -248.5 -66.2 -260.25
L -66.55 -260.8
Q -74.3 -274 -73.15 -290.15 -71.7 -311.6 -55.4 -325.75 -39.2 -339.85 -17.75 -338.35 3.7 -336.85 17.8 -320.65 21.55 -316.3 24.2 -311.6
M 22.9 -255.1
Q 20.15 -255.35 17.4 -255.5 12.85 -255.85 9.4 -252.85 5.95 -249.85 5.65 -245.35 5.55 -244.25 5.65 -243.25 6 -240 8.3 -237.35 11.3 -233.9 15.85 -233.55 21.1 -233.2 26.25 -232.65 86.3 -226.25 123.25 -196.6 123.65 -196.25 124.1 -195.95
M 26.25 -232.65
Q 27.55 -220.7 27.5 -210.8
M 5.65 -243.25
Q 4.1 -243.3 2.5 -243.3 -2.15 -243.3 -6.7 -243 -22.75 -241.9 -37.05 -236.95 -45.85 -233.9 -54 -229.35
M 5.85 -52.95
Q 10.6 -55.6 16.4 -55.6 18.1 -55.6 19.75 -55.35 20 -55.35 20.25 -55.3 24.35 -54.6 27.8 -52.45
M 4.95 -23.2
L 27.2 60.05
Q 25.85 64.4 25.85 69.3 25.85 73.6 26.9 77.45 28.9 84.8 34.75 90.6 35.85 91.7 37 92.65 41.7 96.55 47.3 98.2 51.4 99.4 56 99.4 56.25 99.4 56.5 99.4
M -34.1 -55.35
Q -27.75 -53.35 -21.1 -52.1 -20.65 -52.05 -20.2 -51.95
M -49.65 -37.45
Q -50.85 -34.75 -51.75 -31.6 -51.85 -31.25 -51.95 -30.9 -53.5 -29.65 -55 -29.1 -57.15 -28.3 -59.55 -26.95
M -74.95 7.35
Q -73.05 11.45 -69.55 14.95 -64.2 20.3 -57.35 21.85
L -57.3 21.85
Q -54.55 22.45 -51.55 22.45 -43.5 22.45 -37.3 18.1 -27.2 25.4 -19.15 25.4 -8.6 25.4 -1.15 16.9 4.95 10 6.05 0.7
M -57.3 21.85
Q -57.4 26.95 -57.45 32.45 -59.3 36.45 -60.9 40.4 -74.25 73.2 -71.1 97.65
M -16.95 93.05
Q -22.75 105.9 -19.55 126.1 -19.3 135.4 -18.5 144.9 -16.6 166.6 -11.85 189.5 -11.15 192.9 -10.5 196.45
M -47.1 94.05
Q -42.25 108.1 -33.85 117.25 -25.75 125.55 -19.7 126.1 -19.65 126.1 -19.55 126.1
M -68.5 109.3
Q -68.5 109.35 -68.5 109.45 -68.451953125 109.30625 -68.45 109.15 -68.453125 109.253125 -68.5 109.3 Z"/>

<path id="Symbole_2_0_Layer1_0_1_STROKES" stroke="#3C3F3E" stroke-width="15" stroke-linejoin="round" stroke-linecap="round" fill="none" d="
M 125.3 -222.45
Q 125.5 -239.6 124.45 -258 123.3 -277.7 121.4 -291.6 121.15 -294.7 120.55 -297.6 117.2 -314.15 103.8 -325.75 87.6 -339.85 66.15 -338.35 44.7 -336.85 30.6 -320.65 26.85 -316.3 24.2 -311.6 16.95 -298.65 18 -282.95 18.1 -281.3 18.3 -279.7 18.35 -279.5 18.35 -279.3 18.75 -276.6 19.35 -273.95 21 -265.1 22.3 -258.25 22.6 -256.65 22.9 -255.1 84.8 -249.65 125.3 -222.45 131.4 -218.35 137.1 -213.7 140.6 -210.8 141.1 -206.25 141.55 -201.75 138.7 -198.2 135.8 -194.7 131.3 -194.2 127.3 -193.8 124.1 -195.95 121 -156.15 110.05 -124.35 100.95 -97.8 79.15 -78.3 56.75 -58.35 27.8 -52.45 30 -51.1 31.9 -49.2 33.65 -47.45 37.6 -39.45
L 79.25 50.15
Q 86.15 58.3 86.15 69.3 86.15 81.75 77.3 90.6 69.75 98.15 59.4 99.25 58 99.35 56.5 99.4 57.75 107.85 56.7 114.45 55.25 123.75 51.1 132.4 54.75 159 64.3 183.7 81.8 228.9 85.45 282.35 85.85 287.45 85.15 292.9 82.65 312.2 67.2 324.1 56.85 332 44.9 334 38.85 334.8 32.4 333.95 13.1 331.4 1.2 315.9 -4.4 308.6 -6.7 300.6 -6.75 300.45 -6.8 300.3 -8.35 294.65 -8.65 289.55 -8.65 288.9 -8.7 288.3 -8.75 284.55 -8.25 280.65 -8.25 280.6 -8.25 280.55 -6.9 267.45 -6.7 262.65 -5.95 246.25 -6.7 231 -7.55 212.9 -10.5 196.45 -10.45 200.95 -10.25 205.6 -8.5 245.65 -10.3 287.2 -10.3 288.25 -10.4 289.3 -10.85 297.85 -14.05 305.2
L -14.1 305.25
Q -17.5 313.1 -24.1 319.7 -37.9 333.5 -57.4 333.5 -63.9 333.5 -69.8 331.95 -81.5 328.95 -90.7 319.75 -104.45 305.95 -104.45 286.45 -104.45 281.35 -103.55 276.65 -102.6 272.1 -100.85 267.9 -89.65 226.85 -85.65 181.3 -82.2 142.8 -68.5 109.3 -70.3 103.7 -71.1 97.65 -72.55 97.75 -74 97.75 -86.45 97.75 -95.3 88.9 -104.15 80.1 -104.15 67.6 -104.15 55.15 -95.3 46.3 -93.1 44.1 -90.7 42.45
L -74.95 7.35 -74.95 7.3
Q -75.15 6.8 -75.35 6.3 -77 2 -77 -3 -77 -8 -75.35 -12.3 -73.45 -17.1 -66.85 -22.1 -62.95 -25.05 -59.6 -26.95
L -59.55 -26.95 -51.3 -44.6
Q -50.15 -47.05 -48.2 -49 -42.3 -54.9 -34.1 -55.35 -56.2 -62.3 -74.15 -78.3 -105.95 -106.65 -105.95 -146.65 -105.95 -156.65 -103.95 -165.95 -98 -193.75 -74.15 -214.95 -64.65 -223.45 -54 -229.35 -59.45 -248.5 -66.2 -260.25
L -66.55 -260.8
Q -74.3 -274 -73.15 -290.15 -71.7 -311.6 -55.4 -325.75 -39.2 -339.85 -17.75 -338.35 3.7 -336.85 17.8 -320.65 21.55 -316.3 24.2 -311.6
M 22.9 -255.1
Q 20.15 -255.35 17.4 -255.5 12.85 -255.85 9.4 -252.85 5.95 -249.85 5.65 -245.35 5.55 -244.25 5.65 -243.25 6 -240 8.3 -237.35 11.3 -233.9 15.85 -233.55 21.1 -233.2 26.25 -232.65 86.3 -226.25 123.25 -196.6 123.65 -196.25 124.1 -195.95
M 5.65 -243.25
Q 4.1 -243.3 2.5 -243.3 -2.15 -243.3 -6.7 -243 -22.75 -241.9 -37.05 -236.95 -45.85 -233.9 -54 -229.35
M 26.25 -232.65
Q 27.55 -220.7 27.5 -210.8
M 5.85 -52.95
Q 10.6 -55.6 16.4 -55.6 18.1 -55.6 19.75 -55.35 20 -55.35 20.25 -55.3 24.35 -54.6 27.8 -52.45
M 4.95 -23.2
L 27.2 60.05
Q 25.85 64.4 25.85 69.3 25.85 73.6 26.9 77.45 28.9 84.8 34.75 90.6 35.85 91.7 37 92.65 41.7 96.55 47.3 98.2 51.4 99.4 56 99.4 56.25 99.4 56.5 99.4
M -34.1 -55.35
Q -27.75 -53.35 -21.1 -52.1 -20.65 -52.05 -20.2 -51.95
M -49.65 -37.45
Q -50.85 -34.75 -51.75 -31.6 -51.85 -31.25 -51.95 -30.9 -53.5 -29.65 -55 -29.1 -57.15 -28.3 -59.55 -26.95
M -74.95 7.35
Q -73.05 11.45 -69.55 14.95 -64.2 20.3 -57.35 21.85
L -57.3 21.85
Q -54.55 22.45 -51.55 22.45 -43.5 22.45 -37.3 18.1 -27.2 25.4 -19.15 25.4 -8.6 25.4 -1.15 16.9 4.95 10 6.05 0.7
M -57.3 21.85
Q -57.4 26.95 -57.45 32.45 -59.3 36.45 -60.9 40.4 -74.25 73.2 -71.1 97.65
M -47.1 94.05
Q -42.25 108.1 -33.85 117.25 -25.75 125.55 -19.7 126.1 -19.65 126.1 -19.55 126.1 -22.75 105.9 -16.95 93.05
M -19.55 126.1
Q -19.3 135.4 -18.5 144.9 -16.6 166.6 -11.85 189.5 -11.15 192.9 -10.5 196.45
M -68.5 109.3
Q -68.5 109.35 -68.5 109.45 -68.451953125 109.30625 -68.45 109.15 -68.453125 109.253125 -68.5 109.3 Z"/>

<path id="Symbole_2_0_Layer0_0_1_STROKES" stroke="#3D3F3E" stroke-width="2" stroke-linejoin="miter" stroke-linecap="square" stroke-miterlimit="3" fill="none" d="
M 125.3 -222.45
Q 125.5 -239.6 124.45 -258 123.3 -277.7 121.4 -291.6 121.15 -294.7 120.55 -297.6 117.2 -314.15 103.8 -325.75 87.6 -339.85 66.15 -338.35 44.7 -336.85 30.6 -320.65 26.85 -316.3 24.2 -311.6 16.95 -298.65 18 -282.95 18.1 -281.3 18.3 -279.7 18.35 -279.5 18.35 -279.3 18.75 -276.6 19.35 -273.95 21 -265.1 22.3 -258.25 22.6 -256.65 22.9 -255.1 84.8 -249.65 125.3 -222.45 131.4 -218.35 137.1 -213.7 140.6 -210.8 141.1 -206.25 141.55 -201.75 138.7 -198.2 135.8 -194.7 131.3 -194.2 127.3 -193.8 124.1 -195.95 121 -156.15 110.05 -124.35 100.95 -97.8 79.15 -78.3 56.75 -58.35 27.8 -52.45 30 -51.1 31.9 -49.2 33.65 -47.45 37.6 -39.45
L 79.25 50.15
Q 86.15 58.3 86.15 69.3 86.15 81.75 77.3 90.6 69.75 98.15 59.4 99.25 58 99.35 56.5 99.4 57.75 107.85 56.7 114.45 55.25 123.75 51.1 132.4 54.75 159 64.3 183.7 81.8 228.9 85.45 282.35 85.85 287.45 85.15 292.9 82.65 312.2 67.2 324.1 56.85 332 44.9 334 38.85 334.8 32.4 333.95 13.1 331.4 1.2 315.9 -4.4 308.6 -6.7 300.6 -6.75 300.45 -6.8 300.3 -8.35 294.65 -8.65 289.55 -8.65 288.9 -8.7 288.3 -8.75 284.55 -8.25 280.65 -8.25 280.6 -8.25 280.55 -6.9 267.45 -6.7 262.65 -5.95 246.25 -6.7 231 -7.55 212.9 -10.5 196.45 -10.45 200.95 -10.25 205.6 -8.5 245.65 -10.3 287.2 -10.3 288.25 -10.4 289.3 -10.85 297.85 -14.05 305.2
L -14.1 305.25
Q -17.5 313.1 -24.1 319.7 -37.9 333.5 -57.4 333.5 -63.9 333.5 -69.8 331.95 -81.5 328.95 -90.7 319.75 -104.45 305.95 -104.45 286.45 -104.45 281.35 -103.55 276.65 -102.6 272.1 -100.85 267.9 -89.65 226.85 -85.65 181.3 -82.2 142.8 -68.5 109.3 -70.3 103.7 -71.1 97.65 -72.55 97.75 -74 97.75 -86.45 97.75 -95.3 88.9 -104.15 80.1 -104.15 67.6 -104.15 55.15 -95.3 46.3 -93.1 44.1 -90.7 42.45
L -74.95 7.35 -74.95 7.3
Q -75.15 6.8 -75.35 6.3 -77 2 -77 -3 -77 -8 -75.35 -12.3 -73.45 -17.1 -66.85 -22.1 -62.95 -25.05 -59.6 -26.95
L -59.55 -26.95 -51.7 -44.5
Q -51.6 -44.65 -51.5 -44.8 -50.15 -47.05 -48.2 -49 -42.3 -54.9 -34.1 -55.35 -56.2 -62.3 -74.15 -78.3 -105.95 -106.65 -105.95 -146.65 -105.95 -156.65 -103.95 -165.95 -98 -193.75 -74.15 -214.95 -64.65 -223.45 -54 -229.35 -59.45 -248.5 -66.2 -260.25
L -66.55 -260.8
Q -74.3 -274 -73.15 -290.15 -71.7 -311.6 -55.4 -325.75 -39.2 -339.85 -17.75 -338.35 3.7 -336.85 17.8 -320.65 21.55 -316.3 24.2 -311.6
M 22.9 -255.1
Q 20.15 -255.35 17.4 -255.5 12.85 -255.85 9.4 -252.85 5.95 -249.85 5.65 -245.35 5.55 -244.25 5.65 -243.25 6 -240 8.3 -237.35 11.3 -233.9 15.85 -233.55 21.1 -233.2 26.25 -232.65 86.3 -226.25 123.25 -196.6 123.65 -196.25 124.1 -195.95
M 5.65 -243.25
Q 4.1 -243.3 2.5 -243.3 -2.15 -243.3 -6.7 -243 -22.75 -241.9 -37.05 -236.95 -45.85 -233.9 -54 -229.35
M 5.85 -52.95
Q 10.6 -55.6 16.4 -55.6 18.1 -55.6 19.75 -55.35 20 -55.35 20.25 -55.3 24.35 -54.6 27.8 -52.45
M 4.95 -23.2
L 27.2 60.05
Q 25.85 64.4 25.85 69.3 25.85 73.6 26.9 77.45 28.9 84.8 34.75 90.6 35.85 91.7 37 92.65 41.7 96.55 47.3 98.2 51.4 99.4 56 99.4 56.25 99.4 56.5 99.4
M -34.1 -55.35
Q -27.75 -53.35 -21.1 -52.1 -20.65 -52.05 -20.2 -51.95
M -49.65 -37.45
Q -50.85 -34.75 -51.75 -31.6 -51.85 -31.25 -51.95 -30.9 -53.5 -29.65 -55 -29.1 -57.15 -28.3 -59.55 -26.95
M -74.95 7.35
Q -73.05 11.45 -69.55 14.95 -64.2 20.3 -57.35 21.85
L -57.3 21.85
Q -54.55 22.45 -51.55 22.45 -43.5 22.45 -37.3 18.1 -27.2 25.4 -19.15 25.4 -8.6 25.4 -1.15 16.9 4.95 10 6.05 0.7
M -57.3 21.85
Q -57.4 26.95 -57.45 32.45 -59.3 36.45 -60.9 40.4 -74.25 73.2 -71.1 97.65
M -6.95 94.6
Q -22.75 105.9 -19.55 126.1 -19.3 135.4 -18.5 144.9 -16.6 166.6 -11.85 189.5 -11.15 192.9 -10.5 196.45
M -68.5 109.3
Q -68.5 109.35 -68.5 109.45 -68.451953125 109.30625 -68.45 109.15 -68.453125 109.253125 -68.5 109.3 Z
M -54.6 94.05
Q -49.75 108.1 -41.35 117.25 -33.25 125.55 -27.2 126.1"/>
</defs>

<g transform="matrix( 0.46343994140625, 0, 0, 0.46343994140625, 109.05,177) ">
<g transform="matrix( 1, 0, 0, 1, 0,0) ">
<use xlink:href="#Symbole_2_0_Layer2_0_FILL"/>

<use xlink:href="#Symbole_2_0_Layer2_0_1_STROKES"/>
</g>

<g transform="matrix( 1, 0, 0, 1, 0,0) ">
<use xlink:href="#Symbole_2_0_Layer1_0_FILL"/>

<use xlink:href="#Symbole_2_0_Layer1_0_1_STROKES"/>
</g>

<g transform="matrix( 1, 0, 0, 1, 0,0) ">
<use xlink:href="#Symbole_2_0_Layer0_0_FILL"/>

<use xlink:href="#Symbole_2_0_Layer0_0_1_STROKES"/>
</g>

<g transform="matrix( 1, 0, 0, 1, 0,0) ">
<use xlink:href="#Symbole_2_0_Layer0_1_FILL"/>
</g>

<g transform="matrix( 1, 0, 0, 1, -275,-400) ">
<use xlink:href="#Symbole_2_0_Layer0_1_MEMBER_0_FILL"/>
</g>

<g transform="matrix( 1, 0, 0, 1, -275,-400) ">
<use xlink:href="#Symbole_2_0_Layer0_1_MEMBER_1_FILL"/>
</g>
</g>
</svg>
