<?xml version="1.0" encoding="UTF-8" standalone="no"?>
<svg
   version="1.1"
   preserveAspectRatio="none"
   x="0px"
   y="0px"
   width="30.355591"
   height="37.503632"
   viewBox="0 0 30.355591 37.503632"
   id="svg116"
   sodipodi:docname="pc_pictos.svg"
   xmlns:inkscape="http://www.inkscape.org/namespaces/inkscape"
   xmlns:sodipodi="http://sodipodi.sourceforge.net/DTD/sodipodi-0.dtd"
   xmlns:xlink="http://www.w3.org/1999/xlink"
   xmlns="http://www.w3.org/2000/svg"
   xmlns:svg="http://www.w3.org/2000/svg">
  <sodipodi:namedview
     id="namedview118"
     pagecolor="#ffffff"
     bordercolor="#000000"
     borderopacity="0.25"
     inkscape:showpageshadow="2"
     inkscape:pageopacity="0.0"
     inkscape:pagecheckerboard="0"
     inkscape:deskcolor="#d1d1d1"
     showgrid="false" />
  <defs
     id="defs50">
    <g
       id="Layer1_3_FILL">
      <path
         fill="#ff00fe"
         stroke="none"
         d="m 663,323.7 q -2.1,0.2 -3.6,1.05 -1.45,0.85 -2.55,2.15 -1.1,1.3 -1.75,3 -0.65,1.65 -0.8,3.85 0,0.25 0,0.5 -0.05,2.35 0.35,4.35 0.4,1.95 1.05,3.65 0.6,1.75 1.45,3.25 0.85,1.5 1.8,2.85 1,1.4 2.25,2.5 0.8,0.65 1.95,1 1,0.25 2.1,-0.05 1.1,-0.3 2.1,-0.8 0.85,-0.35 1.85,-0.45 1.65,-0.2 2.95,0.2 0.85,0.25 1.7,0.65 0.95,0.5 2.4,0.45 1.45,0 2.3,-0.55 1.45,-1 2.4,-2.35 1,-1.4 1.85,-2.85 0.9,-1.5 1.55,-3.2 0.15,-0.4 0.3,-0.9 -0.4,-0.25 -0.9,-0.55 -1.5,-0.85 -2.5,-2.15 -1.05,-1.35 -1.45,-3.3 -0.2,-1 -0.1,-2.15 0.15,-2.15 1.05,-3.6 0.95,-1.5 2.3,-2.45 0.35,-0.25 0.6,-0.6 -0.9,-1.35 -2.3,-2.25 -1.4,-0.95 -3.4,-1.3 -0.7,-0.15 -1.55,-0.15 -2.1,0.1 -3.65,0.75 -1.2,0.55 -2.6,0.9 -0.55,0.2 -1.05,0.05 -0.5,-0.15 -0.9,-0.3 -1.45,-0.6 -3,-1.05 -1,-0.3 -2.2,-0.15 m 10.85,-2.1 q 1.3,-1.05 2.1,-2.55 0.85,-1.55 1,-3.75 0.05,-0.45 -0.1,-0.75 -0.1,-0.15 -0.3,-0.05 -0.45,0.05 -0.85,0.2 -1.85,0.45 -3.15,1.5 -1.35,1 -2.2,2.5 -0.85,1.45 -1.05,3.65 v 0.05 q 0,0.4 0.1,0.7 0.65,0.15 1.2,0 1.95,-0.4 3.25,-1.5 z"
         id="path11" />
    </g>
  </defs>
  <g
     id="g66"
     transform="translate(-654.29443,-314.45999)">
    <use
       xlink:href="#Layer1_3_FILL"
       id="use64" />
  </g>
</svg>
