<?xml version="1.0" encoding="UTF-8" standalone="no"?>
<svg
   version="1.1"
   preserveAspectRatio="none"
   x="0px"
   y="0px"
   width="36.5"
   height="36.5"
   viewBox="0 0 36.5 36.5"
   id="svg148"
   sodipodi:docname="pictos carres.svg"
   inkscape:export-filename="../../../front/public/icons/facebook.svg"
   inkscape:export-xdpi="96"
   inkscape:export-ydpi="96"
   xmlns:inkscape="http://www.inkscape.org/namespaces/inkscape"
   xmlns:sodipodi="http://sodipodi.sourceforge.net/DTD/sodipodi-0.dtd"
   xmlns:xlink="http://www.w3.org/1999/xlink"
   xmlns="http://www.w3.org/2000/svg"
   xmlns:svg="http://www.w3.org/2000/svg">
  <sodipodi:namedview
     id="namedview150"
     pagecolor="#ffffff"
     bordercolor="#000000"
     borderopacity="0.25"
     inkscape:showpageshadow="2"
     inkscape:pageopacity="0.0"
     inkscape:pagecheckerboard="0"
     inkscape:deskcolor="#d1d1d1"
     showgrid="false" />
  <defs
     id="defs82">
    <g
       id="Layer1_3_FILL">
      <path
         fill="#cccccc"
         stroke="none"
         d="m 653,316.05 v 36.5 h 36.5 v -36.5 H 653 m 17,5 q 0.8,-1.35 1.95,-2.25 1.15,-0.9 2.8,-1.3 0.35,-0.15 0.75,-0.2 0.2,-0.05 0.25,0.05 0.15,0.3 0.1,0.7 -0.1,1.9 -0.85,3.3 -0.75,1.3 -1.9,2.25 -1.15,0.95 -2.85,1.35 -0.5,0.1 -1.05,0 -0.1,-0.3 -0.1,-0.65 v -0.05 q 0.15,-1.95 0.9,-3.2 m -4.55,4.55 q 1.4,0.4 2.65,0.9 0.35,0.15 0.8,0.3 0.45,0.1 0.95,-0.05 1.25,-0.3 2.3,-0.8 1.35,-0.6 3.25,-0.65 0.75,0 1.35,0.1 1.75,0.3 3,1.15 1.25,0.8 2.05,2 -0.25,0.3 -0.55,0.55 -1.2,0.85 -2.05,2.15 -0.75,1.3 -0.9,3.2 -0.1,1 0.1,1.9 0.35,1.7 1.25,2.9 0.9,1.15 2.25,1.9 0.4,0.3 0.8,0.5 -0.15,0.45 -0.3,0.8 -0.55,1.5 -1.35,2.85 -0.75,1.25 -1.65,2.5 -0.85,1.2 -2.1,2.1 -0.75,0.45 -2.05,0.45 -1.3,0.05 -2.15,-0.4 -0.75,-0.35 -1.5,-0.55 -1.15,-0.35 -2.6,-0.2 -0.9,0.1 -1.65,0.4 -0.85,0.45 -1.85,0.7 -0.95,0.3 -1.85,0.05 -1,-0.3 -1.7,-0.85 -1.15,-1 -2,-2.25 -0.85,-1.2 -1.6,-2.5 -0.75,-1.35 -1.3,-2.9 -0.55,-1.5 -0.9,-3.2 -0.35,-1.8 -0.35,-3.85 0,-0.25 0,-0.45 0.15,-1.95 0.75,-3.4 0.55,-1.5 1.55,-2.65 0.95,-1.15 2.25,-1.9 1.3,-0.75 3.15,-0.95 1.1,-0.1 1.95,0.15 z"
         id="path17" />
      <path
         fill="#ff00fe"
         stroke="none"
         d="m 668.1,326.5 q -1.25,-0.5 -2.65,-0.9 -0.85,-0.25 -1.95,-0.15 -1.85,0.2 -3.15,0.95 -1.3,0.75 -2.25,1.9 -1,1.15 -1.55,2.65 -0.6,1.45 -0.75,3.4 0,0.2 0,0.45 0,2.05 0.35,3.85 0.35,1.7 0.9,3.2 0.55,1.55 1.3,2.9 0.75,1.3 1.6,2.5 0.85,1.25 2,2.25 0.7,0.55 1.7,0.85 0.9,0.25 1.85,-0.05 1,-0.25 1.85,-0.7 0.75,-0.3 1.65,-0.4 1.45,-0.15 2.6,0.2 0.75,0.2 1.5,0.55 0.85,0.45 2.15,0.4 1.3,0 2.05,-0.45 1.25,-0.9 2.1,-2.1 0.9,-1.25 1.65,-2.5 0.8,-1.35 1.35,-2.85 0.15,-0.35 0.3,-0.8 -0.4,-0.2 -0.8,-0.5 -1.35,-0.75 -2.25,-1.9 -0.9,-1.2 -1.25,-2.9 -0.2,-0.9 -0.1,-1.9 0.15,-1.9 0.9,-3.2 0.85,-1.3 2.05,-2.15 0.3,-0.25 0.55,-0.55 -0.8,-1.2 -2.05,-2 -1.25,-0.85 -3,-1.15 -0.6,-0.1 -1.35,-0.1 -1.9,0.05 -3.25,0.65 -1.05,0.5 -2.3,0.8 -0.5,0.15 -0.95,0.05 -0.45,-0.15 -0.8,-0.3 m 3.85,-7.7 q -1.15,0.9 -1.95,2.25 -0.75,1.25 -0.9,3.2 v 0.05 q 0,0.35 0.1,0.65 0.55,0.1 1.05,0 1.7,-0.4 2.85,-1.35 1.15,-0.95 1.9,-2.25 0.75,-1.4 0.85,-3.3 0.05,-0.4 -0.1,-0.7 -0.05,-0.1 -0.25,-0.05 -0.4,0.05 -0.75,0.2 -1.65,0.4 -2.8,1.3 z"
         id="path19" />
    </g>
  </defs>
  <g
     id="g98"
     transform="translate(-653,-316.04999)">
    <use
       xlink:href="#Layer1_3_FILL"
       id="use96" />
  </g>
</svg>
