<?xml version="1.0" encoding="UTF-8" standalone="no"?>
<svg
   version="1.1"
   preserveAspectRatio="none"
   x="0px"
   y="0px"
   width="36.5"
   height="36.5"
   viewBox="0 0 36.5 36.5"
   id="svg148"
   sodipodi:docname="pictos carres.svg"
   inkscape:export-filename="../../../front/public/icons/facebook.svg"
   inkscape:export-xdpi="96"
   inkscape:export-ydpi="96"
   xmlns:inkscape="http://www.inkscape.org/namespaces/inkscape"
   xmlns:sodipodi="http://sodipodi.sourceforge.net/DTD/sodipodi-0.dtd"
   xmlns:xlink="http://www.w3.org/1999/xlink"
   xmlns="http://www.w3.org/2000/svg"
   xmlns:svg="http://www.w3.org/2000/svg">
  <sodipodi:namedview
     id="namedview150"
     pagecolor="#ffffff"
     bordercolor="#000000"
     borderopacity="0.25"
     inkscape:showpageshadow="2"
     inkscape:pageopacity="0.0"
     inkscape:pagecheckerboard="0"
     inkscape:deskcolor="#d1d1d1"
     showgrid="false" />
  <defs
     id="defs82">
    <g
       id="Layer1_13_FILL">
      <path
         fill="#3c3f3e"
         stroke="none"
         d="m 1316.15,346.75 v 36.5 h 36.5 v -36.5 h -36.5 m 11,8.3 q 1.35,1.3 2.5,2.75 1.2,1.4 2.25,2.95 1.1,1.55 2.05,3.15 0.3,0.5 0.55,1 0.25,-0.5 0.55,-1 0.95,-1.6 2.05,-3.15 1.1,-1.55 2.25,-2.95 1.15,-1.45 2.5,-2.75 1.3,-1.3 2.95,-2.3 1.15,-0.75 2.75,-1.1 1,-0.2 1.7,0.15 1.35,0.6 1.45,2.45 0,2.6 -0.25,4.9 -0.05,0.25 -0.1,0.6 -0.15,1.7 -0.3,3.45 -0.05,0.6 -0.25,1.05 -0.45,2.05 -1.95,3.2 -1.45,1.2 -3.65,1.55 -1.05,0.15 -2.05,0.1 -0.4,-0.05 -0.65,0.05 2.15,0.45 3.75,1.45 1.35,0.85 1.8,2.5 0.15,0.7 0,1.35 -0.4,1.6 -1.3,2.6 -1.25,1.35 -2.85,2.4 -1.15,0.7 -2.8,0.65 -0.3,0 -0.55,-0.1 -1.45,-0.45 -2.35,-1.55 -1.15,-1.45 -1.9,-3.3 -0.35,-0.8 -0.6,-1.6 -0.05,-0.25 -0.2,-0.45 -0.15,0.2 -0.2,0.45 -0.25,0.8 -0.6,1.6 -0.75,1.85 -1.9,3.35 -0.85,1.05 -2.35,1.5 -0.25,0.1 -0.55,0.1 -1.7,0.05 -2.8,-0.65 -1.6,-1 -2.85,-2.4 -0.9,-1 -1.35,-2.6 -0.15,-0.65 0.1,-1.35 0.45,-1.65 1.75,-2.5 1.55,-1 3.75,-1.45 -0.25,-0.1 -0.7,-0.05 -0.95,0.05 -2,-0.1 -2.25,-0.35 -3.7,-1.55 -1.45,-1.15 -1.9,-3.2 -0.2,-0.45 -0.25,-1.05 -0.15,-1.75 -0.3,-3.45 -0.05,-0.3 -0.05,-0.6 -0.3,-2.3 -0.3,-4.9 0.1,-1.85 1.45,-2.45 0.7,-0.35 1.7,-0.15 1.55,0.35 2.75,1.1 1.65,1 2.95,2.3 z"
         id="path67" />
      <path
         fill="#ff00fe"
         stroke="none"
         d="m 1329.65,357.8 q -1.15,-1.45 -2.5,-2.75 -1.3,-1.3 -2.95,-2.3 -1.2,-0.75 -2.75,-1.1 -1,-0.2 -1.7,0.15 -1.35,0.6 -1.45,2.45 0,2.6 0.3,4.9 0,0.3 0.05,0.6 0.15,1.7 0.3,3.45 0.05,0.6 0.25,1.05 0.45,2.05 1.9,3.2 1.45,1.2 3.7,1.55 1.05,0.15 2,0.1 0.45,-0.05 0.7,0.05 -2.2,0.45 -3.75,1.45 -1.3,0.85 -1.75,2.5 -0.25,0.7 -0.1,1.35 0.45,1.6 1.35,2.6 1.25,1.4 2.85,2.4 1.1,0.7 2.8,0.65 0.3,0 0.55,-0.1 1.5,-0.45 2.35,-1.5 1.15,-1.5 1.9,-3.35 0.35,-0.8 0.6,-1.6 0.05,-0.25 0.2,-0.45 0.15,0.2 0.2,0.45 0.25,0.8 0.6,1.6 0.75,1.85 1.9,3.3 0.9,1.1 2.35,1.55 0.25,0.1 0.55,0.1 1.65,0.05 2.8,-0.65 1.6,-1.05 2.85,-2.4 0.9,-1 1.3,-2.6 0.15,-0.65 0,-1.35 -0.45,-1.65 -1.8,-2.5 -1.6,-1 -3.75,-1.45 0.25,-0.1 0.65,-0.05 1,0.05 2.05,-0.1 2.2,-0.35 3.65,-1.55 1.5,-1.15 1.95,-3.2 0.2,-0.45 0.25,-1.05 0.15,-1.75 0.3,-3.45 0.05,-0.35 0.1,-0.6 0.25,-2.3 0.25,-4.9 -0.1,-1.85 -1.45,-2.45 -0.7,-0.35 -1.7,-0.15 -1.6,0.35 -2.75,1.1 -1.65,1 -2.95,2.3 -1.35,1.3 -2.5,2.75 -1.15,1.4 -2.25,2.95 -1.1,1.55 -2.05,3.15 -0.3,0.5 -0.55,1 -0.25,-0.5 -0.55,-1 -0.95,-1.6 -2.05,-3.15 -1.05,-1.55 -2.25,-2.95 z"
         id="path69" />
    </g>
  </defs>
  <g
     id="g138"
     transform="translate(-1316.15,-346.75)">
    <use
       xlink:href="#Layer1_13_FILL"
       id="use136" />
  </g>
</svg>
