<?xml version="1.0" encoding="UTF-8" standalone="no"?>
<svg
   version="1.1"
   preserveAspectRatio="none"
   x="0px"
   y="0px"
   width="41.5"
   height="41.5"
   viewBox="0 0 41.5 41.5"
   id="svg148"
   sodipodi:docname="pictos smart.svg"
   xmlns:inkscape="http://www.inkscape.org/namespaces/inkscape"
   xmlns:sodipodi="http://sodipodi.sourceforge.net/DTD/sodipodi-0.dtd"
   xmlns:xlink="http://www.w3.org/1999/xlink"
   xmlns="http://www.w3.org/2000/svg"
   xmlns:svg="http://www.w3.org/2000/svg">
  <sodipodi:namedview
     id="namedview150"
     pagecolor="#ffffff"
     bordercolor="#000000"
     borderopacity="0.25"
     inkscape:showpageshadow="2"
     inkscape:pageopacity="0.0"
     inkscape:pagecheckerboard="0"
     inkscape:deskcolor="#d1d1d1"
     showgrid="false" />
  <defs
     id="defs82">
    <g
       id="Layer2_3_FILL">
      <path
         fill="#cccccc"
         stroke="none"
         d="m 741.9,1031.75 v -41.5 h -41.5 v 41.5 h 41.5 M 729.6,998.3 q 1.5,-1.5 3.4,-2.7 1.35,-0.85 3.2,-1.25 1.15,-0.25 2,0.15 1.55,0.7 1.65,2.85 0,3.05 -0.25,5.7 -0.1,0.3 -0.15,0.7 -0.15,2 -0.35,4 -0.05,0.7 -0.3,1.25 -0.5,2.35 -2.25,3.7 -1.7,1.4 -4.25,1.8 -1.2,0.2 -2.35,0.1 -0.5,-0.05 -0.75,0.1 2.5,0.5 4.35,1.65 1.55,1 2.1,2.9 0.15,0.85 0,1.6 -0.5,1.85 -1.55,3 -1.45,1.6 -3.3,2.8 -1.35,0.8 -3.25,0.75 -0.35,0 -0.65,-0.1 -1.7,-0.55 -2.7,-1.8 -1.35,-1.7 -2.25,-3.85 -0.4,-0.95 -0.7,-1.85 -0.05,-0.3 -0.2,-0.55 -0.2,0.25 -0.25,0.55 -0.3,0.9 -0.7,1.85 -0.85,2.15 -2.2,3.9 -1,1.2 -2.75,1.75 -0.25,0.1 -0.6,0.1 -2,0.05 -3.25,-0.75 -1.9,-1.15 -3.35,-2.8 -1.05,-1.15 -1.55,-3 -0.2,-0.75 0.1,-1.6 0.55,-1.9 2.05,-2.9 1.8,-1.15 4.35,-1.65 -0.3,-0.15 -0.8,-0.1 -1.1,0.1 -2.35,-0.1 -2.6,-0.4 -4.3,-1.8 -1.65,-1.35 -2.2,-3.7 -0.25,-0.55 -0.3,-1.25 -0.15,-2 -0.35,-4 -0.05,-0.35 -0.05,-0.7 -0.35,-2.65 -0.35,-5.7 0.15,-2.15 1.7,-2.85 0.8,-0.4 1.95,-0.15 1.8,0.4 3.2,1.25 1.95,1.2 3.45,2.7 1.55,1.5 2.9,3.2 1.4,1.6 2.6,3.4 1.3,1.8 2.4,3.65 0.35,0.6 0.65,1.2 0.3,-0.6 0.65,-1.2 1.1,-1.85 2.35,-3.65 1.3,-1.8 2.65,-3.4 1.3,-1.7 2.9,-3.2 z"
         id="path17" />
      <path
         fill="#ff00fe"
         stroke="none"
         d="m 733,995.6 q -1.9,1.2 -3.4,2.7 -1.6,1.5 -2.9,3.2 -1.35,1.6 -2.65,3.4 -1.25,1.8 -2.35,3.65 -0.35,0.6 -0.65,1.2 -0.3,-0.6 -0.65,-1.2 -1.1,-1.85 -2.4,-3.65 -1.2,-1.8 -2.6,-3.4 -1.35,-1.7 -2.9,-3.2 -1.5,-1.5 -3.45,-2.7 -1.4,-0.85 -3.2,-1.25 -1.15,-0.25 -1.95,0.15 -1.55,0.7 -1.7,2.85 0,3.05 0.35,5.7 0,0.35 0.05,0.7 0.2,2 0.35,4 0.05,0.7 0.3,1.25 0.55,2.35 2.2,3.7 1.7,1.4 4.3,1.8 1.25,0.2 2.35,0.1 0.5,-0.05 0.8,0.1 -2.55,0.5 -4.35,1.65 -1.5,1 -2.05,2.9 -0.3,0.85 -0.1,1.6 0.5,1.85 1.55,3 1.45,1.65 3.35,2.8 1.25,0.8 3.25,0.75 0.35,0 0.6,-0.1 1.75,-0.55 2.75,-1.75 1.35,-1.75 2.2,-3.9 0.4,-0.95 0.7,-1.85 0.05,-0.3 0.25,-0.55 0.15,0.25 0.2,0.55 0.3,0.9 0.7,1.85 0.9,2.15 2.25,3.85 1,1.25 2.7,1.8 0.3,0.1 0.65,0.1 1.9,0.05 3.25,-0.75 1.85,-1.2 3.3,-2.8 1.05,-1.15 1.55,-3 0.15,-0.75 0,-1.6 -0.55,-1.9 -2.1,-2.9 -1.85,-1.15 -4.35,-1.65 0.25,-0.15 0.75,-0.1 1.15,0.1 2.35,-0.1 2.55,-0.4 4.25,-1.8 1.75,-1.35 2.25,-3.7 0.25,-0.55 0.3,-1.25 0.2,-2 0.35,-4 0.05,-0.4 0.15,-0.7 0.25,-2.65 0.25,-5.7 -0.1,-2.15 -1.65,-2.85 -0.85,-0.4 -2,-0.15 -1.85,0.4 -3.2,1.25 z"
         id="path19" />
    </g>
  </defs>
  <g
     id="g98"
     transform="translate(-700.40002,-990.25)">
    <use
       xlink:href="#Layer2_3_FILL"
       id="use96" />
  </g>
</svg>
