<?xml version="1.0" encoding="UTF-8" standalone="no"?>
<svg
   version="1.1"
   preserveAspectRatio="none"
   x="0px"
   y="0px"
   width="21.800049"
   height="35.149994"
   viewBox="0 0 21.800049 35.149994"
   id="svg116"
   sodipodi:docname="pc_pictos.svg"
   xmlns:inkscape="http://www.inkscape.org/namespaces/inkscape"
   xmlns:sodipodi="http://sodipodi.sourceforge.net/DTD/sodipodi-0.dtd"
   xmlns:xlink="http://www.w3.org/1999/xlink"
   xmlns="http://www.w3.org/2000/svg"
   xmlns:svg="http://www.w3.org/2000/svg">
  <sodipodi:namedview
     id="namedview118"
     pagecolor="#ffffff"
     bordercolor="#000000"
     borderopacity="0.25"
     inkscape:showpageshadow="2"
     inkscape:pageopacity="0.0"
     inkscape:pagecheckerboard="0"
     inkscape:deskcolor="#d1d1d1"
     showgrid="false" />
  <defs
     id="defs50">
    <g
       id="Layer1_8_FILL">
      <path
         fill="#ff00fe"
         stroke="none"
         d="m 1045.1,323.9 q -0.7,0 -1.35,-0.05 -0.5,-0.05 -0.6,0.25 0,1.1 0,2.15 0,2.6 -0.05,5.25 0,0.7 0.1,1.2 1.65,0.05 3.3,0.05 1.4,-0.05 2.6,0.05 0.25,0.2 0.35,0.55 -0.35,0.85 -0.75,1.6 -0.95,1.75 -1.85,3.45 -0.9,1.75 -1.75,3.45 -0.9,1.7 -1.8,3.4 -0.1,0.1 -0.1,0.25 v 0.05 q -0.1,2.55 -0.1,5.15 0,0.7 0.1,1.25 0,0.05 0.05,0.05 1.85,0 3.8,0 1.35,0 2.5,-0.05 0.2,-0.15 0.35,-0.3 0.1,-0.1 0.15,-0.25 0.95,-1.6 1.85,-3.35 0.45,-0.85 0.85,-1.75 0.45,-0.9 1.35,-1.3 0.15,0 0.3,0 2.6,0 5.2,0 2.65,0.05 5.2,-0.05 v -0.05 q 0.1,-1.05 0.05,-2.2 0,-2.6 0.05,-5.25 0,-0.7 -0.1,-1.25 -0.3,-0.1 -0.65,-0.1 -2.65,0.1 -5.2,0.05 -0.3,-0.25 -0.45,-0.6 0.05,-0.25 0.15,-0.5 0.15,-0.25 0.3,-0.5 0.25,-0.5 0.5,-1 0.9,-1.75 1.8,-3.45 0.9,-1.7 1.8,-3.4 0.9,-1.7 1.8,-3.4 0,-2.55 0.05,-5.1 0,-0.7 -0.1,-1.25 -0.5,-0.1 -1.15,-0.1 -2.65,0.05 -5.2,0.05 -0.5,0.4 -0.85,0.95 -0.9,1.7 -1.8,3.45 -0.25,0.55 -0.5,1.1 -0.45,1.05 -1.45,1.5 -1.8,0 -3.55,0 -2.65,0 -5.2,0 z"
         id="path26" />
    </g>
  </defs>
  <g
     id="g86"
     transform="translate(-1043.1,-316.85001)">
    <use
       xlink:href="#Layer1_8_FILL"
       id="use84" />
  </g>
</svg>
