<?xml version="1.0" encoding="UTF-8" standalone="no"?>
<svg
   version="1.1"
   preserveAspectRatio="none"
   x="0px"
   y="0px"
   width="36.5"
   height="36.5"
   viewBox="0 0 36.5 36.5"
   id="svg148"
   sodipodi:docname="pictos carres.svg"
   inkscape:export-filename="../../../front/public/icons/facebook.svg"
   inkscape:export-xdpi="96"
   inkscape:export-ydpi="96"
   xmlns:inkscape="http://www.inkscape.org/namespaces/inkscape"
   xmlns:sodipodi="http://sodipodi.sourceforge.net/DTD/sodipodi-0.dtd"
   xmlns:xlink="http://www.w3.org/1999/xlink"
   xmlns="http://www.w3.org/2000/svg"
   xmlns:svg="http://www.w3.org/2000/svg">
  <sodipodi:namedview
     id="namedview150"
     pagecolor="#ffffff"
     bordercolor="#000000"
     borderopacity="0.25"
     inkscape:showpageshadow="2"
     inkscape:pageopacity="0.0"
     inkscape:pagecheckerboard="0"
     inkscape:deskcolor="#d1d1d1"
     showgrid="false" />
  <defs
     id="defs82">
    <g
       id="Layer1_8_FILL">
      <path
         fill="#cccccc"
         stroke="none"
         d="m 1035.55,316.35 v 36.5 h 36.5 v -36.5 h -36.5 m 7.85,10.6 q 0,-0.95 0,-1.95 0.1,-0.25 0.6,-0.2 0.6,0 1.3,0 2.5,0 5.1,0 1.7,0 3.45,0 1,-0.4 1.4,-1.35 0.25,-0.5 0.5,-1 0.9,-1.55 1.75,-3.1 0.35,-0.5 0.85,-0.85 2.5,0 5.05,-0.05 0.65,0 1.15,0.1 0.1,0.5 0.1,1.1 -0.05,2.3 -0.05,4.65 -0.9,1.5 -1.75,3.05 -0.9,1.55 -1.75,3.1 -0.9,1.5 -1.8,3.1 -0.2,0.45 -0.45,0.9 -0.15,0.25 -0.3,0.45 -0.1,0.25 -0.15,0.45 0.15,0.35 0.45,0.55 2.45,0.05 5.05,-0.05 0.35,0 0.65,0.1 0.1,0.5 0.1,1.15 -0.05,2.4 -0.05,4.75 0.05,1 -0.05,1.95 v 0.05 q -2.5,0.1 -5.1,0.05 -2.5,0 -5.05,0 -0.15,0 -0.3,0 -0.9,0.35 -1.35,1.2 -0.35,0.8 -0.8,1.55 -0.9,1.6 -1.8,3.05 -0.05,0.15 -0.15,0.2 -0.15,0.15 -0.35,0.3 -1.15,0.05 -2.45,0.05 -1.9,0 -3.7,0 -0.05,0 -0.05,-0.05 -0.1,-0.5 -0.1,-1.15 0,-2.35 0.1,-4.65 v -0.05 q 0,-0.1 0.1,-0.2 0.85,-1.55 1.75,-3.1 0.85,-1.55 1.7,-3.1 0.9,-1.55 1.8,-3.15 0.4,-0.65 0.75,-1.45 -0.1,-0.3 -0.35,-0.5 -1.15,-0.05 -2.55,0 -1.6,0 -3.2,-0.05 -0.1,-0.45 -0.1,-1.1 0.05,-2.4 0.05,-4.75 z"
         id="path42" />
      <path
         fill="#ff00fe"
         stroke="none"
         d="m 1043.4,325 q 0,1 0,1.95 0,2.35 -0.05,4.75 0,0.65 0.1,1.1 1.6,0.05 3.2,0.05 1.4,-0.05 2.55,0 0.25,0.2 0.35,0.5 -0.35,0.8 -0.75,1.45 -0.9,1.6 -1.8,3.15 -0.85,1.55 -1.7,3.1 -0.9,1.55 -1.75,3.1 -0.1,0.1 -0.1,0.2 v 0.05 q -0.1,2.3 -0.1,4.65 0,0.65 0.1,1.15 0,0.05 0.05,0.05 1.8,0 3.7,0 1.3,0 2.45,-0.05 0.2,-0.15 0.35,-0.3 0.1,-0.05 0.15,-0.2 0.9,-1.45 1.8,-3.05 0.45,-0.75 0.8,-1.55 0.45,-0.85 1.35,-1.2 0.15,0 0.3,0 2.55,0 5.05,0 2.6,0.05 5.1,-0.05 v -0.05 q 0.1,-0.95 0.05,-1.95 0,-2.35 0.05,-4.75 0,-0.65 -0.1,-1.15 -0.3,-0.1 -0.65,-0.1 -2.6,0.1 -5.05,0.05 -0.3,-0.2 -0.45,-0.55 0.05,-0.2 0.15,-0.45 0.15,-0.2 0.3,-0.45 0.25,-0.45 0.45,-0.9 0.9,-1.6 1.8,-3.1 0.85,-1.55 1.75,-3.1 0.85,-1.55 1.75,-3.05 0,-2.35 0.05,-4.65 0,-0.6 -0.1,-1.1 -0.5,-0.1 -1.15,-0.1 -2.55,0.05 -5.05,0.05 -0.5,0.35 -0.85,0.85 -0.85,1.55 -1.75,3.1 -0.25,0.5 -0.5,1 -0.4,0.95 -1.4,1.35 -1.75,0 -3.45,0 -2.6,0 -5.1,0 -0.7,0 -1.3,0 -0.5,-0.05 -0.6,0.2 z"
         id="path44" />
    </g>
  </defs>
  <g
     id="g118"
     transform="translate(-1035.55,-316.35001)">
    <use
       xlink:href="#Layer1_8_FILL"
       id="use116" />
  </g>
</svg>
