<?xml version="1.0" encoding="UTF-8" standalone="no"?>
<svg
   version="1.1"
   preserveAspectRatio="none"
   x="0px"
   y="0px"
   width="41.5"
   height="41.5"
   viewBox="0 0 41.5 41.5"
   id="svg148"
   sodipodi:docname="pictos smart.svg"
   xmlns:inkscape="http://www.inkscape.org/namespaces/inkscape"
   xmlns:sodipodi="http://sodipodi.sourceforge.net/DTD/sodipodi-0.dtd"
   xmlns:xlink="http://www.w3.org/1999/xlink"
   xmlns="http://www.w3.org/2000/svg"
   xmlns:svg="http://www.w3.org/2000/svg">
  <sodipodi:namedview
     id="namedview150"
     pagecolor="#ffffff"
     bordercolor="#000000"
     borderopacity="0.25"
     inkscape:showpageshadow="2"
     inkscape:pageopacity="0.0"
     inkscape:pagecheckerboard="0"
     inkscape:deskcolor="#d1d1d1"
     showgrid="false" />
  <defs
     id="defs82">
    <g
       id="Layer2_14_FILL">
      <path
         fill="#3c3f3e"
         stroke="none"
         d="m 131.45,1795.15 v 41.5 h 41.5 v -41.5 h -41.5 m 25.15,3.2 q 0.4,-0.6 1,-1 2.95,0 6,-0.05 0.8,0 1.35,0.1 0.1,0.55 0.1,1.3 -0.05,2.65 -0.05,5.35 -1.05,1.75 -2.1,3.6 -1,1.75 -2.05,3.55 -1.05,1.75 -2.1,3.6 -0.3,0.55 -0.6,1.05 -0.15,0.25 -0.35,0.5 -0.1,0.3 -0.15,0.5 0.15,0.45 0.5,0.65 2.95,0.1 6.05,-0.05 0.4,0 0.75,0.15 0.1,0.55 0.1,1.3 -0.05,2.75 -0.05,5.5 0.05,1.15 -0.05,2.3 v 0.05 q -2.95,0.1 -6.05,0.05 -3,0 -6.05,0 -0.15,0 -0.35,0 -1.05,0.4 -1.55,1.35 -0.45,0.95 -1,1.85 -1.05,1.85 -2.15,3.5 -0.05,0.15 -0.15,0.3 -0.2,0.1 -0.4,0.3 -1.35,0.05 -2.9,0.05 -2.3,0 -4.45,0 -0.05,0 -0.05,-0.05 -0.1,-0.6 -0.1,-1.3 0,-2.75 0.1,-5.4 v -0.05 q 0,-0.2 0.1,-0.3 1.05,-1.8 2.1,-3.55 1,-1.8 2.05,-3.6 1.05,-1.8 2.15,-3.6 0.45,-0.85 0.85,-1.75 -0.1,-0.35 -0.4,-0.5 -1.4,-0.15 -3,-0.1 -1.95,0 -3.85,-0.05 -0.1,-0.5 -0.1,-1.25 0.05,-2.75 0.05,-5.5 0,-1.1 0,-2.3 0.1,-0.3 0.7,-0.25 0.75,0.1 1.55,0.1 2.95,0 6.05,0 2.05,0 4.15,0 1.15,-0.5 1.65,-1.6 0.3,-0.55 0.6,-1.15 1.05,-1.8 2.1,-3.6 z"
         id="path72" />
      <path
         fill="#ff00fe"
         stroke="none"
         d="m 157.6,1797.35 q -0.6,0.4 -1,1 -1.05,1.8 -2.1,3.6 -0.3,0.6 -0.6,1.15 -0.5,1.1 -1.65,1.6 -2.1,0 -4.15,0 -3.1,0 -6.05,0 -0.8,0 -1.55,-0.1 -0.6,-0.05 -0.7,0.25 0,1.2 0,2.3 0,2.75 -0.05,5.5 0,0.75 0.1,1.25 1.9,0.05 3.85,0.05 1.6,-0.05 3,0.1 0.3,0.15 0.4,0.5 -0.4,0.9 -0.85,1.75 -1.1,1.8 -2.15,3.6 -1.05,1.8 -2.05,3.6 -1.05,1.75 -2.1,3.55 -0.1,0.1 -0.1,0.3 v 0.05 q -0.1,2.65 -0.1,5.4 0,0.7 0.1,1.3 0,0.05 0.05,0.05 2.15,0 4.45,0 1.55,0 2.9,-0.05 0.2,-0.2 0.4,-0.3 0.1,-0.15 0.15,-0.3 1.1,-1.65 2.15,-3.5 0.55,-0.9 1,-1.85 0.5,-0.95 1.55,-1.35 0.2,0 0.35,0 3.05,0 6.05,0 3.1,0.05 6.05,-0.05 v -0.05 q 0.1,-1.15 0.05,-2.3 0,-2.75 0.05,-5.5 0,-0.75 -0.1,-1.3 -0.35,-0.15 -0.75,-0.15 -3.1,0.15 -6.05,0.05 -0.35,-0.2 -0.5,-0.65 0.05,-0.2 0.15,-0.5 0.2,-0.25 0.35,-0.5 0.3,-0.5 0.6,-1.05 1.05,-1.85 2.1,-3.6 1.05,-1.8 2.05,-3.55 1.05,-1.85 2.1,-3.6 0,-2.7 0.05,-5.35 0,-0.75 -0.1,-1.3 -0.55,-0.1 -1.35,-0.1 -3.05,0.05 -6,0.05 z"
         id="path74" />
    </g>
  </defs>
  <g
     id="g142"
     transform="translate(-131.45,-1795.15)">
    <use
       xlink:href="#Layer2_14_FILL"
       id="use140" />
  </g>
</svg>
