<?xml version="1.0" encoding="UTF-8" standalone="no"?>
<svg
   version="1.1"
   preserveAspectRatio="none"
   x="0px"
   y="0px"
   width="36.5"
   height="36.5"
   viewBox="0 0 36.5 36.5"
   id="svg148"
   sodipodi:docname="pictos carres.svg"
   inkscape:export-filename="../../../front/public/icons/facebook.svg"
   inkscape:export-xdpi="96"
   inkscape:export-ydpi="96"
   xmlns:inkscape="http://www.inkscape.org/namespaces/inkscape"
   xmlns:sodipodi="http://sodipodi.sourceforge.net/DTD/sodipodi-0.dtd"
   xmlns:xlink="http://www.w3.org/1999/xlink"
   xmlns="http://www.w3.org/2000/svg"
   xmlns:svg="http://www.w3.org/2000/svg">
  <sodipodi:namedview
     id="namedview150"
     pagecolor="#ffffff"
     bordercolor="#000000"
     borderopacity="0.25"
     inkscape:showpageshadow="2"
     inkscape:pageopacity="0.0"
     inkscape:pagecheckerboard="0"
     inkscape:deskcolor="#d1d1d1"
     showgrid="false" />
  <defs
     id="defs82">
    <g
       id="Layer1_12_FILL">
      <path
         fill="#3c3f3e"
         stroke="none"
         d="m 1352.65,339.75 v -36.5 h -36.5 v 36.5 h 36.5 m -8.15,-27.2 q 1.95,3 3.1,6.8 1.15,3.9 0.75,8.7 -2.85,2.15 -6.55,3.4 -0.2,0.1 -0.5,0.1 -0.8,-1 -1.4,-2.25 v -0.05 q 0.45,-0.4 1.1,-0.6 0.65,-0.25 1.1,-0.7 -0.2,-0.2 -0.5,-0.3 l -0.05,-0.05 q -2.65,1.35 -6.4,1.5 h -0.1 q -0.5,0 -0.95,0 h -0.05 q -3.75,-0.15 -6.4,-1.5 -0.05,0 -0.05,0.05 -0.3,0.1 -0.5,0.3 V 328 q 1.05,0.65 2.2,1.2 v 0.05 q -0.6,1.25 -1.45,2.3 -0.25,0 -0.5,-0.1 -3.7,-1.25 -6.55,-3.4 V 328 q -0.05,-0.55 -0.05,-1.2 v -0.05 q 0,-1 0,-2 v -0.05 q 0,-0.25 0,-0.5 0,-0.05 0,-0.1 0,-0.15 0,-0.3 0.45,-4.55 2.05,-7.9 1,-2.05 2.25,-3.85 2.55,-1 5.55,-1.6 h 0.05 q 0.45,0.65 0.75,1.4 0.05,0 0.05,0.05 3.1,-0.45 6.2,0 h 0.05 q 0.4,-0.7 0.8,-1.4 v -0.05 q 3.2,0.55 5.65,1.8 0.2,0.1 0.35,0.3 m -13.65,6.9 q -0.2,-0.1 -0.5,-0.1 -2.4,0 -2.8,2.1 0,0.15 0,0.3 v 0.05 h -0.05 q 0,0.25 0,0.5 h 0.05 q 0.15,1.6 1.25,2.2 0.4,0.25 0.9,0.25 2.3,0 2.65,-2.05 0.35,-2.4 -1.5,-3.25 m 8.55,-0.05 q -2.35,0.05 -2.7,2.2 -0.05,1.3 0.4,2.05 0.5,0.8 1.45,1.05 1.55,0.35 2.4,-0.6 0.6,-0.65 0.65,-1.8 0.1,-1.9 -1.05,-2.65 -0.45,-0.3 -1.15,-0.25 z"
         id="path62" />
      <path
         fill="#ff00fe"
         stroke="none"
         d="m 1347.6,319.35 q -1.15,-3.8 -3.1,-6.8 -0.15,-0.2 -0.35,-0.3 -2.45,-1.25 -5.65,-1.8 v 0.05 q -0.4,0.7 -0.8,1.4 h -0.05 q -3.1,-0.45 -6.2,0 0,-0.05 -0.05,-0.05 -0.3,-0.75 -0.75,-1.4 h -0.05 q -3,0.6 -5.55,1.6 -1.25,1.8 -2.25,3.85 -1.6,3.35 -2.05,7.9 0,0.15 0,0.3 0,0.05 0,0.1 0,0.25 0,0.5 v 0.05 q 0,1 0,2 v 0.05 q 0,0.65 0.05,1.2 v 0.05 q 2.85,2.15 6.55,3.4 0.25,0.1 0.5,0.1 0.85,-1.05 1.45,-2.3 v -0.05 q -1.15,-0.55 -2.2,-1.2 v -0.05 q 0.2,-0.2 0.5,-0.3 0,-0.05 0.05,-0.05 2.65,1.35 6.4,1.5 h 0.05 q 0.45,0 0.95,0 h 0.1 q 3.75,-0.15 6.4,-1.5 l 0.05,0.05 q 0.3,0.1 0.5,0.3 -0.45,0.45 -1.1,0.7 -0.65,0.2 -1.1,0.6 v 0.05 q 0.6,1.25 1.4,2.25 0.3,0 0.5,-0.1 3.7,-1.25 6.55,-3.4 0.4,-4.8 -0.75,-8.7 m -10.9,2.25 q 0.35,-2.15 2.7,-2.2 0.7,-0.05 1.15,0.25 1.15,0.75 1.05,2.65 -0.05,1.15 -0.65,1.8 -0.85,0.95 -2.4,0.6 -0.95,-0.25 -1.45,-1.05 -0.45,-0.75 -0.4,-2.05 m -6.35,-2.25 q 0.3,0 0.5,0.1 1.85,0.85 1.5,3.25 -0.35,2.05 -2.65,2.05 -0.5,0 -0.9,-0.25 -1.1,-0.6 -1.25,-2.2 h -0.05 q 0,-0.25 0,-0.5 h 0.05 v -0.05 q 0,-0.15 0,-0.3 0.4,-2.1 2.8,-2.1 z"
         id="path64" />
    </g>
  </defs>
  <g
     id="g134"
     transform="translate(-1316.15,-303.25)">
    <use
       xlink:href="#Layer1_12_FILL"
       id="use132" />
  </g>
</svg>
