<?xml version="1.0" encoding="UTF-8" standalone="no"?>
<svg
   version="1.1"
   preserveAspectRatio="none"
   x="0px"
   y="0px"
   width="41.5"
   height="41.5"
   viewBox="0 0 41.5 41.5"
   id="svg148"
   sodipodi:docname="pictos smart.svg"
   xmlns:inkscape="http://www.inkscape.org/namespaces/inkscape"
   xmlns:sodipodi="http://sodipodi.sourceforge.net/DTD/sodipodi-0.dtd"
   xmlns:xlink="http://www.w3.org/1999/xlink"
   xmlns="http://www.w3.org/2000/svg"
   xmlns:svg="http://www.w3.org/2000/svg">
  <sodipodi:namedview
     id="namedview150"
     pagecolor="#ffffff"
     bordercolor="#000000"
     borderopacity="0.25"
     inkscape:showpageshadow="2"
     inkscape:pageopacity="0.0"
     inkscape:pagecheckerboard="0"
     inkscape:deskcolor="#d1d1d1"
     showgrid="false" />
  <defs
     id="defs82">
    <g
       id="Layer2_2_FILL">
      <path
         fill="#cccccc"
         stroke="none"
         d="m 700.9,938.8 v 41.5 h 41.5 v -41.5 h -41.5 m 23.8,9.35 h 0.05 q 0.45,-0.85 0.95,-1.65 v -0.05 q 3.7,0.65 6.55,2.1 0.25,0.1 0.4,0.35 2.3,3.5 3.6,7.9 1.35,4.55 0.9,10.1 -3.3,2.5 -7.6,3.95 -0.25,0.1 -0.6,0.1 -0.95,-1.15 -1.65,-2.6 v -0.05 q 0.55,-0.45 1.3,-0.7 0.75,-0.3 1.25,-0.8 -0.2,-0.25 -0.55,-0.35 l -0.05,-0.05 q -3.1,1.55 -7.45,1.75 h -0.1 q -0.6,0 -1.1,0 h -0.1 q -4.35,-0.2 -7.4,-1.75 -0.1,0 -0.1,0.05 -0.35,0.1 -0.55,0.35 v 0.05 q 1.2,0.75 2.55,1.4 v 0.05 q -0.7,1.45 -1.7,2.65 -0.3,0 -0.55,-0.1 -4.3,-1.45 -7.65,-3.95 v -0.05 q -0.05,-0.65 -0.05,-1.4 v -0.05 q 0,-1.15 0,-2.35 V 963 q 0,-0.3 0,-0.55 0,-0.1 0,-0.15 0,-0.15 0,-0.35 0.55,-5.25 2.4,-9.15 1.15,-2.4 2.6,-4.5 2.95,-1.15 6.45,-1.85 h 0.05 q 0.55,0.75 0.9,1.65 0.05,0 0.05,0.05 3.6,-0.55 7.2,0 m -1.1,11.25 q -0.05,1.5 0.45,2.4 0.6,0.9 1.7,1.2 1.8,0.4 2.8,-0.7 0.7,-0.75 0.75,-2.1 0.1,-2.2 -1.25,-3.05 -0.5,-0.35 -1.3,-0.3 -2.75,0.05 -3.15,2.55 m -6.8,-2.5 q -0.25,-0.1 -0.6,-0.1 -2.75,0 -3.25,2.45 0,0.15 0,0.35 v 0.05 h -0.05 q 0,0.3 0,0.55 h 0.05 q 0.2,1.9 1.45,2.6 0.5,0.25 1.05,0.25 2.7,0 3.1,-2.35 0.4,-2.8 -1.75,-3.8 z"
         id="path12" />
      <path
         fill="#ff00fe"
         stroke="none"
         d="m 724.75,948.15 h -0.05 q -3.6,-0.55 -7.2,0 0,-0.05 -0.05,-0.05 -0.35,-0.9 -0.9,-1.65 h -0.05 q -3.5,0.7 -6.45,1.85 -1.45,2.1 -2.6,4.5 -1.85,3.9 -2.4,9.15 0,0.2 0,0.35 0,0.05 0,0.15 0,0.25 0,0.55 v 0.05 q 0,1.2 0,2.35 v 0.05 q 0,0.75 0.05,1.4 v 0.05 q 3.35,2.5 7.65,3.95 0.25,0.1 0.55,0.1 1,-1.2 1.7,-2.65 v -0.05 q -1.35,-0.65 -2.55,-1.4 v -0.05 q 0.2,-0.25 0.55,-0.35 0,-0.05 0.1,-0.05 3.05,1.55 7.4,1.75 h 0.1 q 0.5,0 1.1,0 h 0.1 q 4.35,-0.2 7.45,-1.75 l 0.05,0.05 q 0.35,0.1 0.55,0.35 -0.5,0.5 -1.25,0.8 -0.75,0.25 -1.3,0.7 v 0.05 q 0.7,1.45 1.65,2.6 0.35,0 0.6,-0.1 4.3,-1.45 7.6,-3.95 0.45,-5.55 -0.9,-10.1 -1.3,-4.4 -3.6,-7.9 -0.15,-0.25 -0.4,-0.35 -2.85,-1.45 -6.55,-2.1 v 0.05 q -0.5,0.8 -0.95,1.65 m -8.55,8.65 q 0.35,0 0.6,0.1 2.15,1 1.75,3.8 -0.4,2.35 -3.1,2.35 -0.55,0 -1.05,-0.25 -1.25,-0.7 -1.45,-2.6 h -0.05 q 0,-0.25 0,-0.55 h 0.05 v -0.05 q 0,-0.2 0,-0.35 0.5,-2.45 3.25,-2.45 m 7.85,5 q -0.5,-0.9 -0.45,-2.4 0.4,-2.5 3.15,-2.55 0.8,-0.05 1.3,0.3 1.35,0.85 1.25,3.05 -0.05,1.35 -0.75,2.1 -1,1.1 -2.8,0.7 -1.1,-0.3 -1.7,-1.2 z"
         id="path14" />
    </g>
  </defs>
  <g
     id="g94"
     transform="translate(-700.90002,-938.79999)">
    <use
       xlink:href="#Layer2_2_FILL"
       id="use92" />
  </g>
</svg>
