<?xml version="1.0" encoding="UTF-8" standalone="no"?>
<svg
   version="1.1"
   preserveAspectRatio="none"
   x="0px"
   y="0px"
   width="36.5"
   height="36.5"
   viewBox="0 0 36.5 36.5"
   id="svg148"
   sodipodi:docname="pictos carres.svg"
   inkscape:export-filename="../../../front/public/icons/facebook.svg"
   inkscape:export-xdpi="96"
   inkscape:export-ydpi="96"
   xmlns:inkscape="http://www.inkscape.org/namespaces/inkscape"
   xmlns:sodipodi="http://sodipodi.sourceforge.net/DTD/sodipodi-0.dtd"
   xmlns:xlink="http://www.w3.org/1999/xlink"
   xmlns="http://www.w3.org/2000/svg"
   xmlns:svg="http://www.w3.org/2000/svg">
  <sodipodi:namedview
     id="namedview150"
     pagecolor="#ffffff"
     bordercolor="#000000"
     borderopacity="0.25"
     inkscape:showpageshadow="2"
     inkscape:pageopacity="0.0"
     inkscape:pagecheckerboard="0"
     inkscape:deskcolor="#d1d1d1"
     showgrid="false" />
  <defs
     id="defs82">
    <g
       id="Layer1_1_FILL">
      <path
         fill="#cccccc"
         stroke="none"
         d="m 363.75,317.95 h -36.5 v 36.5 h 36.5 v -36.5 m -13.75,2 q 2,0 3.95,-0.1 1.85,-0.1 3.65,-0.3 0.65,-0.05 1.3,0 h 0.05 q 0,0.5 -0.05,1.15 -0.15,1.85 -0.25,3.65 -0.1,1.95 -0.15,3.8 -0.05,0.3 -0.15,0.45 -0.3,0.1 -0.75,0.1 -0.5,0 -0.9,0 -0.25,-0.45 -0.35,-1 -0.35,-1.6 -0.85,-3.1 -0.5,-1.5 -1.75,-2.2 -0.75,-0.4 -2,-0.35 -1.3,0.05 -2.6,0.05 -2,0 -4,0 -1.55,0 -3,0 -0.1,0.05 -0.2,0.1 -0.35,0.5 -0.25,1.45 0,0.65 0,1.3 0,1.95 0,3.95 0,2 0,3.95 0,0.9 0.1,1.75 0.5,0.1 1.25,0.1 1.95,-0.05 3.85,-0.1 1.6,0 2.75,-0.55 0.45,-0.15 0.65,-0.65 0.45,-1.3 0.7,-2.75 0.1,-0.5 0.3,-0.9 0.9,-0.05 1.8,0 v 0.05 q 0.1,0.55 0.05,1.25 -0.1,1.85 -0.2,3.7 -0.05,1.9 0.05,3.85 0.05,1.4 0,2.75 v 0.05 q -0.4,0.1 -0.95,0.1 -0.45,-0.05 -0.9,-0.1 -0.35,-1 -0.5,-2.1 -0.25,-1.4 -1.25,-2 -0.15,-0.1 -0.3,-0.15 -0.5,-0.15 -1.1,-0.2 -1.85,-0.1 -3.8,-0.1 -1.25,0 -2.4,0 v 0.05 q -0.1,0.2 -0.1,0.6 0,1.95 0,3.85 0,1.95 0,3.85 -0.05,1.5 0.15,2.65 0.3,1.05 1.2,1.4 1.15,0.5 2.9,0.45 1.3,-0.05 2.65,-0.05 1.9,0 3.85,-0.05 1.55,-0.05 2.55,-0.65 1,-0.65 1.6,-1.65 0.6,-1.05 1.1,-2.25 0.55,-1.3 1.15,-2.55 0.05,0 0.1,-0.05 0.7,-0.05 1.45,0 h 0.05 q 0.05,0.55 -0.05,1.1 -0.2,1.15 -0.3,2.35 -0.25,1.7 -0.45,3.45 -0.15,1.35 -0.35,2.7 h -0.1 q -1.75,0 -3.5,0 -0.2,0.05 -0.15,-0.1 h -0.05 q -0.1,0 -0.2,0 h -0.05 q -0.15,0 -0.25,-0.05 -0.45,-0.05 -0.95,0 -0.2,0.05 -0.3,-0.05 -0.55,0 -1.05,0 h -0.05 q -0.2,0 -0.4,0 -1.65,0 -3.3,0 -1.9,0 -3.8,0 -1.95,0 -3.8,0 -1.95,-0.05 -3.85,0 -0.1,0.05 -0.2,0.05 h -0.05 q -0.35,-0.05 -0.7,0 -0.15,0.05 -0.25,0.05 l -0.05,-0.05 q -0.1,0 -0.2,0.05 0,0.15 -0.15,0.1 h -0.05 q -1.8,0 -3.6,0 h -0.05 q -0.1,-0.35 -0.1,-0.9 0,-0.55 0.1,-0.95 v -0.05 q 1,-0.25 2.05,-0.4 1.15,-0.15 1.9,-0.7 0.35,-0.25 0.4,-0.85 0.15,-1.65 0.15,-3.45 0.05,-1.9 0.05,-3.8 0,-1.95 0,-3.95 0,-1.95 0,-3.9 0,-2 0,-3.9 -0.05,-1.95 -0.05,-3.9 0,-1.15 -0.3,-2.05 -0.05,-0.25 -0.2,-0.45 -0.7,-0.65 -1.85,-0.8 -1.15,-0.15 -2.15,-0.4 v -0.05 q -0.05,-0.8 -0.1,-1.65 0.2,-0.3 0.8,-0.25 0.6,0.1 1.25,0.1 1.95,0.05 3.85,0.1 2,0.1 4,0.1 2,0 4,0 2,0 4,0 z"
         id="path7" />
      <path
         fill="#ff00fe"
         stroke="none"
         d="m 353.95,319.85 q -1.95,0.1 -3.95,0.1 -2,0 -4,0 -2,0 -4,0 -2,0 -4,-0.1 -1.9,-0.05 -3.85,-0.1 -0.65,0 -1.25,-0.1 -0.6,-0.05 -0.8,0.25 0.05,0.85 0.1,1.65 v 0.05 q 1,0.25 2.15,0.4 1.15,0.15 1.85,0.8 0.15,0.2 0.2,0.45 0.3,0.9 0.3,2.05 0,1.95 0.05,3.9 0,1.9 0,3.9 0,1.95 0,3.9 0,2 0,3.95 0,1.9 -0.05,3.8 0,1.8 -0.15,3.45 -0.05,0.6 -0.4,0.85 -0.75,0.55 -1.9,0.7 -1.05,0.15 -2.05,0.4 v 0.05 q -0.1,0.4 -0.1,0.95 0,0.55 0.1,0.9 h 0.05 q 1.8,0 3.6,0 h 0.05 q 0.15,0.05 0.15,-0.1 0.1,-0.05 0.2,-0.05 l 0.05,0.05 q 0.1,0 0.25,-0.05 0.35,-0.05 0.7,0 h 0.05 q 0.1,0 0.2,-0.05 1.9,-0.05 3.85,0 1.85,0 3.8,0 1.9,0 3.8,0 1.65,0 3.3,0 0.2,0 0.4,0 h 0.05 q 0.5,0 1.05,0 0.1,0.1 0.3,0.05 0.5,-0.05 0.95,0 0.1,0.05 0.25,0.05 h 0.05 q 0.1,0 0.2,0 h 0.05 q -0.05,0.15 0.15,0.1 1.75,0 3.5,0 h 0.1 q 0.2,-1.35 0.35,-2.7 0.2,-1.75 0.45,-3.45 0.1,-1.2 0.3,-2.35 0.1,-0.55 0.05,-1.1 h -0.05 q -0.75,-0.05 -1.45,0 -0.05,0.05 -0.1,0.05 -0.6,1.25 -1.15,2.55 -0.5,1.2 -1.1,2.25 -0.6,1 -1.6,1.65 -1,0.6 -2.55,0.65 -1.95,0.05 -3.85,0.05 -1.35,0 -2.65,0.05 -1.75,0.05 -2.9,-0.45 -0.9,-0.35 -1.2,-1.4 -0.2,-1.15 -0.15,-2.65 0,-1.9 0,-3.85 0,-1.9 0,-3.85 0,-0.4 0.1,-0.6 v -0.05 q 1.15,0 2.4,0 1.95,0 3.8,0.1 0.6,0.05 1.1,0.2 0.15,0.05 0.3,0.15 1,0.6 1.25,2 0.15,1.1 0.5,2.1 0.45,0.05 0.9,0.1 0.55,0 0.95,-0.1 v -0.05 q 0.05,-1.35 0,-2.75 -0.1,-1.95 -0.05,-3.85 0.1,-1.85 0.2,-3.7 0.05,-0.7 -0.05,-1.25 v -0.05 q -0.9,-0.05 -1.8,0 -0.2,0.4 -0.3,0.9 -0.25,1.45 -0.7,2.75 -0.2,0.5 -0.65,0.65 -1.15,0.55 -2.75,0.55 -1.9,0.05 -3.85,0.1 -0.75,0 -1.25,-0.1 -0.1,-0.85 -0.1,-1.75 0,-1.95 0,-3.95 0,-2 0,-3.95 0,-0.65 0,-1.3 -0.1,-0.95 0.25,-1.45 0.1,-0.05 0.2,-0.1 1.45,0 3,0 2,0 4,0 1.3,0 2.6,-0.05 1.25,-0.05 2,0.35 1.25,0.7 1.75,2.2 0.5,1.5 0.85,3.1 0.1,0.55 0.35,1 0.4,0 0.9,0 0.45,0 0.75,-0.1 0.1,-0.15 0.15,-0.45 0.05,-1.85 0.15,-3.8 0.1,-1.8 0.25,-3.65 0.05,-0.65 0.05,-1.15 h -0.05 q -0.65,-0.05 -1.3,0 -1.8,0.2 -3.65,0.3 z"
         id="path9" />
    </g>
  </defs>
  <g
     id="g90"
     transform="translate(-327.25,-317.95001)">
    <use
       xlink:href="#Layer1_1_FILL"
       id="use88" />
  </g>
</svg>
