<?xml version="1.0" encoding="UTF-8" standalone="no"?>
<svg
   version="1.1"
   preserveAspectRatio="none"
   x="0px"
   y="0px"
   width="41.5"
   height="41.5"
   viewBox="0 0 41.5 41.5"
   id="svg148"
   sodipodi:docname="pictos smart.svg"
   xmlns:inkscape="http://www.inkscape.org/namespaces/inkscape"
   xmlns:sodipodi="http://sodipodi.sourceforge.net/DTD/sodipodi-0.dtd"
   xmlns:xlink="http://www.w3.org/1999/xlink"
   xmlns="http://www.w3.org/2000/svg"
   xmlns:svg="http://www.w3.org/2000/svg">
  <sodipodi:namedview
     id="namedview150"
     pagecolor="#ffffff"
     bordercolor="#000000"
     borderopacity="0.25"
     inkscape:showpageshadow="2"
     inkscape:pageopacity="0.0"
     inkscape:pagecheckerboard="0"
     inkscape:deskcolor="#d1d1d1"
     showgrid="false" />
  <defs
     id="defs82">
    <g
       id="Layer2_7_FILL">
      <path
         fill="#3c3f3e"
         stroke="none"
         d="m 178.3,1258.05 v -41.5 h -41.5 v 41.5 h 41.5 m -6.05,-39.3 h 0.05 q 0,0.55 -0.05,1.3 -0.15,2.15 -0.3,4.25 -0.1,2.25 -0.15,4.4 -0.05,0.35 -0.2,0.55 -0.3,0.1 -0.85,0.1 -0.6,0 -1.05,0 -0.3,-0.5 -0.4,-1.15 -0.4,-1.85 -1,-3.6 -0.55,-1.75 -2,-2.55 -0.9,-0.5 -2.35,-0.4 -1.5,0.05 -3,0.05 -2.35,0 -4.65,0 -1.8,0 -3.5,0 -0.1,0.05 -0.25,0.1 -0.4,0.6 -0.3,1.7 0,0.75 0,1.5 0,2.25 0,4.6 0,2.3 0,4.6 0,1.05 0.15,2 0.55,0.15 1.45,0.15 2.25,-0.05 4.45,-0.15 1.85,0 3.2,-0.6 0.55,-0.2 0.75,-0.8 0.55,-1.5 0.85,-3.15 0.1,-0.6 0.35,-1.05 1.05,-0.1 2.05,0 v 0.05 q 0.15,0.65 0.1,1.45 -0.15,2.15 -0.25,4.3 -0.05,2.2 0.05,4.45 0.05,1.65 0,3.2 v 0.05 q -0.45,0.15 -1.1,0.15 -0.5,-0.05 -1.05,-0.15 -0.4,-1.15 -0.6,-2.4 -0.25,-1.65 -1.45,-2.35 -0.15,-0.1 -0.35,-0.15 -0.55,-0.2 -1.25,-0.25 -2.15,-0.1 -4.4,-0.1 -1.5,0 -2.8,0 v 0.05 q -0.15,0.2 -0.15,0.7 0,2.25 0,4.45 0,2.3 0,4.5 -0.05,1.75 0.2,3.05 0.35,1.25 1.4,1.65 1.35,0.6 3.35,0.5 1.5,-0.05 3.1,-0.05 2.2,0 4.45,-0.05 1.8,-0.05 3,-0.75 1.15,-0.75 1.85,-1.9 0.7,-1.25 1.25,-2.65 0.65,-1.5 1.35,-2.95 0.05,0 0.1,-0.05 0.85,-0.05 1.7,0 h 0.05 q 0.05,0.65 -0.05,1.25 -0.25,1.35 -0.35,2.75 -0.3,2 -0.5,4 -0.2,1.6 -0.4,3.15 h -0.15 q -2,0 -4.05,0 -0.25,0.05 -0.2,-0.1 h -0.05 q -0.1,0 -0.2,0 H 168 q -0.15,0 -0.25,-0.05 -0.55,-0.1 -1.1,0 -0.25,0.05 -0.35,-0.1 -0.65,0 -1.25,0 H 165 q -0.25,0 -0.45,0 -1.95,0 -3.85,0 -2.2,0 -4.4,0 -2.3,0 -4.45,0 -2.25,-0.05 -4.45,0 -0.15,0.1 -0.25,0.1 h -0.05 q -0.4,-0.1 -0.8,0 -0.2,0.05 -0.3,0.05 l -0.05,-0.05 q -0.15,0 -0.25,0.05 0,0.15 -0.15,0.1 h -0.1 q -2.05,0 -4.15,0 h -0.05 q -0.15,-0.4 -0.15,-1.05 0,-0.65 0.15,-1.1 v -0.05 q 1.15,-0.3 2.35,-0.45 1.35,-0.2 2.2,-0.85 0.45,-0.3 0.5,-0.95 0.15,-1.95 0.15,-4.05 0.05,-2.2 0.05,-4.4 0,-2.25 0,-4.6 0,-2.25 0,-4.55 0,-2.3 0,-4.5 -0.05,-2.25 -0.05,-4.55 0,-1.35 -0.35,-2.35 -0.05,-0.3 -0.2,-0.55 -0.85,-0.75 -2.15,-0.95 -1.35,-0.15 -2.5,-0.45 v -0.05 q -0.1,-0.95 -0.15,-1.9 0.25,-0.35 0.95,-0.3 0.7,0.1 1.45,0.1 2.25,0.05 4.45,0.1 2.35,0.15 4.65,0.15 2.35,0 4.65,0 2.35,0 4.65,0 2.35,0 4.6,-0.15 2.15,-0.1 4.25,-0.3 0.75,-0.1 1.5,0 z"
         id="path37" />
      <path
         fill="#ff00fe"
         stroke="none"
         d="m 172.3,1218.75 h -0.05 q -0.75,-0.1 -1.5,0 -2.1,0.2 -4.25,0.3 -2.25,0.15 -4.6,0.15 -2.3,0 -4.65,0 -2.3,0 -4.65,0 -2.3,0 -4.65,-0.15 -2.2,-0.05 -4.45,-0.1 -0.75,0 -1.45,-0.1 -0.7,-0.05 -0.95,0.3 0.05,0.95 0.15,1.9 v 0.05 q 1.15,0.3 2.5,0.45 1.3,0.2 2.15,0.95 0.15,0.25 0.2,0.55 0.35,1 0.35,2.35 0,2.3 0.05,4.55 0,2.2 0,4.5 0,2.3 0,4.55 0,2.35 0,4.6 0,2.2 -0.05,4.4 0,2.1 -0.15,4.05 -0.05,0.65 -0.5,0.95 -0.85,0.65 -2.2,0.85 -1.2,0.15 -2.35,0.45 v 0.05 q -0.15,0.45 -0.15,1.1 0,0.65 0.15,1.05 h 0.05 q 2.1,0 4.15,0 h 0.1 q 0.15,0.05 0.15,-0.1 0.1,-0.05 0.25,-0.05 l 0.05,0.05 q 0.1,0 0.3,-0.05 0.4,-0.1 0.8,0 h 0.05 q 0.1,0 0.25,-0.1 2.2,-0.05 4.45,0 2.15,0 4.45,0 2.2,0 4.4,0 1.9,0 3.85,0 0.2,0 0.45,0 h 0.05 q 0.6,0 1.25,0 0.1,0.15 0.35,0.1 0.55,-0.1 1.1,0 0.1,0.05 0.25,0.05 h 0.1 q 0.1,0 0.2,0 h 0.05 q -0.05,0.15 0.2,0.1 2.05,0 4.05,0 h 0.15 q 0.2,-1.55 0.4,-3.15 0.2,-2 0.5,-4 0.1,-1.4 0.35,-2.75 0.1,-0.6 0.05,-1.25 H 174 q -0.85,-0.05 -1.7,0 -0.05,0.05 -0.1,0.05 -0.7,1.45 -1.35,2.95 -0.55,1.4 -1.25,2.65 -0.7,1.15 -1.85,1.9 -1.2,0.7 -3,0.75 -2.25,0.05 -4.45,0.05 -1.6,0 -3.1,0.05 -2,0.1 -3.35,-0.5 -1.05,-0.4 -1.4,-1.65 -0.25,-1.3 -0.2,-3.05 0,-2.2 0,-4.5 0,-2.2 0,-4.45 0,-0.5 0.15,-0.7 v -0.05 q 1.3,0 2.8,0 2.25,0 4.4,0.1 0.7,0.05 1.25,0.25 0.2,0.05 0.35,0.15 1.2,0.7 1.45,2.35 0.2,1.25 0.6,2.4 0.55,0.1 1.05,0.15 0.65,0 1.1,-0.15 v -0.05 q 0.05,-1.55 0,-3.2 -0.1,-2.25 -0.05,-4.45 0.1,-2.15 0.25,-4.3 0.05,-0.8 -0.1,-1.45 v -0.05 q -1,-0.1 -2.05,0 -0.25,0.45 -0.35,1.05 -0.3,1.65 -0.85,3.15 -0.2,0.6 -0.75,0.8 -1.35,0.6 -3.2,0.6 -2.2,0.1 -4.45,0.15 -0.9,0 -1.45,-0.15 -0.15,-0.95 -0.15,-2 0,-2.3 0,-4.6 0,-2.35 0,-4.6 0,-0.75 0,-1.5 -0.1,-1.1 0.3,-1.7 0.15,-0.05 0.25,-0.1 1.7,0 3.5,0 2.3,0 4.65,0 1.5,0 3,-0.05 1.45,-0.1 2.35,0.4 1.45,0.8 2,2.55 0.6,1.75 1,3.6 0.1,0.65 0.4,1.15 0.45,0 1.05,0 0.55,0 0.85,-0.1 0.15,-0.2 0.2,-0.55 0.05,-2.15 0.15,-4.4 0.15,-2.1 0.3,-4.25 0.05,-0.75 0.05,-1.3 z"
         id="path39" />
    </g>
  </defs>
  <g
     id="g114"
     transform="translate(-136.8,-1216.55)">
    <use
       xlink:href="#Layer2_7_FILL"
       id="use112" />
  </g>
</svg>
