<?xml version="1.0" encoding="UTF-8" standalone="no"?>
<svg
   version="1.1"
   preserveAspectRatio="none"
   x="0px"
   y="0px"
   width="41.5"
   height="41.5"
   viewBox="0 0 41.5 41.5"
   id="svg148"
   sodipodi:docname="pictos smart.svg"
   xmlns:inkscape="http://www.inkscape.org/namespaces/inkscape"
   xmlns:sodipodi="http://sodipodi.sourceforge.net/DTD/sodipodi-0.dtd"
   xmlns:xlink="http://www.w3.org/1999/xlink"
   xmlns="http://www.w3.org/2000/svg"
   xmlns:svg="http://www.w3.org/2000/svg">
  <sodipodi:namedview
     id="namedview150"
     pagecolor="#ffffff"
     bordercolor="#000000"
     borderopacity="0.25"
     inkscape:showpageshadow="2"
     inkscape:pageopacity="0.0"
     inkscape:pagecheckerboard="0"
     inkscape:deskcolor="#d1d1d1"
     showgrid="false" />
  <defs
     id="defs82">
    <g
       id="Layer2_5_FILL">
      <path
         fill="#cccccc"
         stroke="none"
         d="m 700.4,1094.7 v 41.5 h 41.5 v -41.5 h -41.5 m 21.85,3.5 q 0.25,0.05 0.5,0.05 0.15,0.05 0.45,0.1 0.2,0 0.45,0.05 0.2,0 0.45,0.1 0.25,0 0.45,0.1 0.15,0.05 0.45,0.05 0.15,0 0.35,0.1 0.2,0 0.45,0.1 0.2,0.05 0.35,0.1 0.25,0.05 0.4,0.15 0.2,0.1 0.4,0.15 0.2,0.05 0.45,0.1 0.1,0.1 0.3,0.2 0.2,0.05 0.35,0.1 0.25,0.05 0.35,0.15 0.2,0.15 0.35,0.2 0.2,0.1 0.35,0.15 0.2,0.15 0.35,0.2 0.2,0.1 0.35,0.2 0.2,0.1 0.3,0.2 0.2,0.1 0.35,0.25 0.2,0.05 0.3,0.15 0.15,0.05 0.35,0.25 0.1,0.05 0.25,0.2 0.15,0.1 0.25,0.25 0.2,0.05 0.35,0.2 0.15,0.1 0.25,0.2 0.15,0.15 0.3,0.3 0.1,0.1 0.2,0.25 0.2,0.1 0.35,0.2 0.15,0.15 0.25,0.25 0.1,0.15 0.25,0.3 0.15,0.1 0.2,0.3 0.2,0.1 0.25,0.2 0.15,0.2 0.3,0.3 0.1,0.1 0.2,0.3 0.15,0.1 0.25,0.3 0.1,0.15 0.25,0.25 0.1,0.15 0.2,0.3 0.15,0.15 0.25,0.3 0.05,0.2 0.2,0.35 0.05,0.1 0.15,0.3 0.1,0.15 0.2,0.35 0.1,0.1 0.25,0.3 0.1,0.15 0.15,0.35 0.1,0.15 0.15,0.35 0.1,0.15 0.2,0.35 0.1,0.15 0.15,0.35 0.05,0.2 0.1,0.4 0.15,0.15 0.2,0.35 0.05,0.2 0.1,0.4 0.15,0.1 0.2,0.35 0.1,0.15 0.1,0.4 0.05,0.15 0.1,0.4 0.15,0.2 0.15,0.4 0.05,0.2 0.1,0.4 0,0.25 0.05,0.4 0.05,0.25 0.15,0.5 0,0.2 0,0.4 0.1,0.3 0.1,0.45 0.05,0.25 0.05,0.45 0,0.25 0,0.55 0,0.3 0,0.5 0,0.25 0,0.55 0,0.25 0,0.5 0,0.25 0,0.55 0,0.2 0,0.45 0,0.3 0,0.55 -0.05,0.2 -0.1,0.45 0,0.25 -0.05,0.45 0,0.25 -0.1,0.4 -0.05,0.25 -0.05,0.5 -0.05,0.2 -0.1,0.4 -0.05,0.15 -0.2,0.4 0,0.25 -0.05,0.4 -0.05,0.15 -0.1,0.4 -0.05,0.2 -0.1,0.35 -0.1,0.25 -0.2,0.4 -0.05,0.2 -0.1,0.4 -0.05,0.15 -0.2,0.35 -0.05,0.2 -0.15,0.35 -0.05,0.2 -0.2,0.35 -0.05,0.15 -0.1,0.35 -0.1,0.2 -0.15,0.35 -0.15,0.15 -0.25,0.3 -0.1,0.2 -0.2,0.35 -0.05,0.2 -0.15,0.35 -0.1,0.15 -0.25,0.3 -0.1,0.1 -0.2,0.3 -0.1,0.15 -0.2,0.35 -0.1,0.1 -0.25,0.25 -0.1,0.15 -0.2,0.3 -0.15,0.15 -0.25,0.3 -0.1,0.1 -0.25,0.3 -0.1,0.1 -0.2,0.25 -0.1,0.15 -0.25,0.25 -0.15,0.15 -0.3,0.3 -0.1,0.1 -0.2,0.25 -0.15,0.15 -0.3,0.3 -0.2,0.1 -0.3,0.15 -0.1,0.2 -0.25,0.25 -0.15,0.15 -0.35,0.2 -0.1,0.2 -0.2,0.3 -0.2,0.15 -0.3,0.25 -0.15,0.1 -0.35,0.15 -0.1,0.15 -0.3,0.25 -0.15,0.1 -0.3,0.15 -0.15,0.15 -0.25,0.25 -0.2,0.1 -0.35,0.25 -0.2,0.1 -0.35,0.15 -0.2,0.15 -0.35,0.2 -0.15,0.1 -0.3,0.15 -0.2,0.15 -0.35,0.25 -0.2,0.05 -0.35,0.1 -0.2,0.15 -0.35,0.2 -0.25,0.1 -0.4,0.1 -0.2,0.05 -0.35,0.15 -0.2,0.1 -0.4,0.15 -0.2,0.05 -0.35,0.15 -0.25,0 -0.4,0.05 -0.25,0.15 -0.45,0.2 -0.2,0.05 -0.4,0.05 -0.2,0.05 -0.4,0.1 -0.3,0.1 -0.45,0.1 -0.25,0.05 -0.45,0.1 -0.25,0.05 -0.45,0.05 -0.15,0.05 -0.2,-0.05 -0.15,-0.6 -0.15,-1.35 0.1,-2.65 0.1,-5.45 0,-2.5 0,-4.9 0,-0.1 0.05,-0.1 0.5,-0.05 1.15,-0.05 1.75,0.05 3.5,0 0.4,-2.35 0.85,-4.6 0.05,-0.35 0,-0.6 -0.2,-0.05 -0.65,-0.05 -2.4,0.05 -4.8,0 h -0.05 q -0.15,-0.65 -0.15,-1.35 0,-1.35 0.45,-2.5 0.5,-1.45 2.2,-1.7 1.4,-0.3 2.95,-0.1 0.25,0 0.35,-0.1 0.1,-0.45 0.1,-1.1 0,-1.8 -0.05,-3.55 -0.45,-0.25 -1.1,-0.3 -2.5,-0.35 -5.05,0.05 -2.3,0.35 -3.7,1.65 -1.45,1.35 -1.95,3.6 -0.45,2 -0.3,4.4 0,0.6 -0.1,1 -0.75,0.05 -1.7,0.05 -0.9,-0.05 -1.7,0 -0.15,0.6 -0.15,1.3 0.05,1.95 0.05,3.9 1.75,0 3.5,0.05 0.1,0.4 0.1,1 0,2.7 0,5.45 0,2.55 -0.1,5 -1.1,-0.2 -2.05,-0.6 -1.95,-0.8 -3.6,-1.9 -1.6,-1.15 -2.9,-2.55 -1.3,-1.4 -2.3,-3.2 -0.25,-0.4 -0.5,-0.9 -0.85,-1.85 -1.35,-4.05 -0.45,-1.85 -0.45,-4.2 0.1,-0.15 0.15,-0.45 0,-0.15 0,-0.45 0.05,-0.2 0.05,-0.4 0.05,-0.3 0.05,-0.55 0.05,-0.2 0.05,-0.45 0.05,-0.2 0.15,-0.4 0.05,-0.25 0.05,-0.5 0.05,-0.15 0.05,-0.4 0.05,-0.2 0.1,-0.35 0.05,-0.25 0.15,-0.4 0.1,-0.2 0.15,-0.4 0,-0.25 0.1,-0.4 0.1,-0.2 0.15,-0.4 0.1,-0.2 0.15,-0.35 0.05,-0.2 0.2,-0.35 0.05,-0.2 0.15,-0.4 0.05,-0.2 0.1,-0.3 0.15,-0.2 0.25,-0.35 0.05,-0.2 0.2,-0.35 0.05,-0.2 0.15,-0.35 0.05,-0.15 0.2,-0.35 0.1,-0.1 0.15,-0.3 0.2,-0.15 0.25,-0.35 0.1,-0.1 0.15,-0.3 0.2,-0.1 0.25,-0.25 0.1,-0.15 0.2,-0.3 0.15,-0.2 0.25,-0.3 0.1,-0.15 0.25,-0.3 0.1,-0.1 0.3,-0.3 0.1,-0.1 0.2,-0.2 0.05,-0.2 0.25,-0.3 0.1,-0.1 0.25,-0.3 0.1,-0.1 0.2,-0.25 0.2,-0.1 0.35,-0.2 0.15,-0.15 0.25,-0.25 0.1,-0.1 0.3,-0.3 0.1,-0.1 0.25,-0.2 0.15,-0.05 0.3,-0.25 0.15,-0.1 0.3,-0.25 0.1,-0.1 0.3,-0.15 0.15,-0.1 0.3,-0.25 0.15,-0.1 0.3,-0.2 0.15,-0.15 0.3,-0.2 0.15,-0.1 0.3,-0.25 0.2,-0.05 0.35,-0.15 0.15,-0.1 0.35,-0.25 0.15,-0.05 0.35,-0.15 0.2,-0.05 0.3,-0.1 0.2,-0.15 0.4,-0.2 0.2,-0.05 0.35,-0.15 0.2,-0.1 0.35,-0.2 0.2,-0.05 0.4,-0.1 0.2,-0.05 0.35,-0.2 0.2,-0.05 0.4,-0.1 0.25,-0.05 0.4,-0.05 0.2,-0.05 0.45,-0.15 0.15,-0.05 0.4,-0.1 0.2,0 0.4,-0.05 0.25,-0.1 0.45,-0.1 0.3,0 0.5,-0.1 0.15,-0.05 0.4,-0.05 0.25,-0.05 0.5,-0.05 0.25,-0.05 0.45,-0.05 0.25,-0.05 0.5,-0.05 0.2,0 0.45,0 0.25,0 0.5,-0.05 0.3,0 0.55,0.05 0.25,0 0.45,0 z"
         id="path27" />
      <path
         fill="#ff00fe"
         stroke="none"
         d="m 722.75,1098.25 q -0.25,0 -0.5,-0.05 -0.2,0 -0.45,0 -0.25,-0.05 -0.55,-0.05 -0.25,0.05 -0.5,0.05 -0.25,0 -0.45,0 -0.25,0 -0.5,0.05 -0.2,0 -0.45,0.05 -0.25,0 -0.5,0.05 -0.25,0 -0.4,0.05 -0.2,0.1 -0.5,0.1 -0.2,0 -0.45,0.1 -0.2,0.05 -0.4,0.05 -0.25,0.05 -0.4,0.1 -0.25,0.1 -0.45,0.15 -0.15,0 -0.4,0.05 -0.2,0.05 -0.4,0.1 -0.15,0.15 -0.35,0.2 -0.2,0.05 -0.4,0.1 -0.15,0.1 -0.35,0.2 -0.15,0.1 -0.35,0.15 -0.2,0.05 -0.4,0.2 -0.1,0.05 -0.3,0.1 -0.2,0.1 -0.35,0.15 -0.2,0.15 -0.35,0.25 -0.15,0.1 -0.35,0.15 -0.15,0.15 -0.3,0.25 -0.15,0.05 -0.3,0.2 -0.15,0.1 -0.3,0.2 -0.15,0.15 -0.3,0.25 -0.2,0.05 -0.3,0.15 -0.15,0.15 -0.3,0.25 -0.15,0.2 -0.3,0.25 -0.15,0.1 -0.25,0.2 -0.2,0.2 -0.3,0.3 -0.1,0.1 -0.25,0.25 -0.15,0.1 -0.35,0.2 -0.1,0.15 -0.2,0.25 -0.15,0.2 -0.25,0.3 -0.2,0.1 -0.25,0.3 -0.1,0.1 -0.2,0.2 -0.2,0.2 -0.3,0.3 -0.15,0.15 -0.25,0.3 -0.1,0.1 -0.25,0.3 -0.1,0.15 -0.2,0.3 -0.05,0.15 -0.25,0.25 -0.05,0.2 -0.15,0.3 -0.05,0.2 -0.25,0.35 -0.05,0.2 -0.15,0.3 -0.15,0.2 -0.2,0.35 -0.1,0.15 -0.15,0.35 -0.15,0.15 -0.2,0.35 -0.1,0.15 -0.25,0.35 -0.05,0.1 -0.1,0.3 -0.1,0.2 -0.15,0.4 -0.15,0.15 -0.2,0.35 -0.05,0.15 -0.15,0.35 -0.05,0.2 -0.15,0.4 -0.1,0.15 -0.1,0.4 -0.05,0.2 -0.15,0.4 -0.1,0.15 -0.15,0.4 -0.05,0.15 -0.1,0.35 0,0.25 -0.05,0.4 0,0.25 -0.05,0.5 -0.1,0.2 -0.15,0.4 0,0.25 -0.05,0.45 0,0.25 -0.05,0.55 0,0.2 -0.05,0.4 0,0.3 0,0.45 -0.05,0.3 -0.15,0.45 0,2.35 0.45,4.2 0.5,2.2 1.35,4.05 0.25,0.5 0.5,0.9 1,1.8 2.3,3.2 1.3,1.4 2.9,2.55 1.65,1.1 3.6,1.9 0.95,0.4 2.05,0.6 0.1,-2.45 0.1,-5 0,-2.75 0,-5.45 0,-0.6 -0.1,-1 -1.75,-0.05 -3.5,-0.05 0,-1.95 -0.05,-3.9 0,-0.7 0.15,-1.3 0.8,-0.05 1.7,0 0.95,0 1.7,-0.05 0.1,-0.4 0.1,-1 -0.15,-2.4 0.3,-4.4 0.5,-2.25 1.95,-3.6 1.4,-1.3 3.7,-1.65 2.55,-0.4 5.05,-0.05 0.65,0.05 1.1,0.3 0.05,1.75 0.05,3.55 0,0.65 -0.1,1.1 -0.1,0.1 -0.35,0.1 -1.55,-0.2 -2.95,0.1 -1.7,0.25 -2.2,1.7 -0.45,1.15 -0.45,2.5 0,0.7 0.15,1.35 h 0.05 q 2.4,0.05 4.8,0 0.45,0 0.65,0.05 0.05,0.25 0,0.6 -0.45,2.25 -0.85,4.6 -1.75,0.05 -3.5,0 -0.65,0 -1.15,0.05 -0.05,0 -0.05,0.1 0,2.4 0,4.9 0,2.8 -0.1,5.45 0,0.75 0.15,1.35 0.05,0.1 0.2,0.05 0.2,0 0.45,-0.05 0.2,-0.05 0.45,-0.1 0.15,0 0.45,-0.1 0.2,-0.05 0.4,-0.1 0.2,0 0.4,-0.05 0.2,-0.05 0.45,-0.2 0.15,-0.05 0.4,-0.05 0.15,-0.1 0.35,-0.15 0.2,-0.05 0.4,-0.15 0.15,-0.1 0.35,-0.15 0.15,0 0.4,-0.1 0.15,-0.05 0.35,-0.2 0.15,-0.05 0.35,-0.1 0.15,-0.1 0.35,-0.25 0.15,-0.05 0.3,-0.15 0.15,-0.05 0.35,-0.2 0.15,-0.05 0.35,-0.15 0.15,-0.15 0.35,-0.25 0.1,-0.1 0.25,-0.25 0.15,-0.05 0.3,-0.15 0.2,-0.1 0.3,-0.25 0.2,-0.05 0.35,-0.15 0.1,-0.1 0.3,-0.25 0.1,-0.1 0.2,-0.3 0.2,-0.05 0.35,-0.2 0.15,-0.05 0.25,-0.25 0.1,-0.05 0.3,-0.15 0.15,-0.15 0.3,-0.3 0.1,-0.15 0.2,-0.25 0.15,-0.15 0.3,-0.3 0.15,-0.1 0.25,-0.25 0.1,-0.15 0.2,-0.25 0.15,-0.2 0.25,-0.3 0.1,-0.15 0.25,-0.3 0.1,-0.15 0.2,-0.3 0.15,-0.15 0.25,-0.25 0.1,-0.2 0.2,-0.35 0.1,-0.2 0.2,-0.3 0.15,-0.15 0.25,-0.3 0.1,-0.15 0.15,-0.35 0.1,-0.15 0.2,-0.35 0.1,-0.15 0.25,-0.3 0.05,-0.15 0.15,-0.35 0.05,-0.2 0.1,-0.35 0.15,-0.15 0.2,-0.35 0.1,-0.15 0.15,-0.35 0.15,-0.2 0.2,-0.35 0.05,-0.2 0.1,-0.4 0.1,-0.15 0.2,-0.4 0.05,-0.15 0.1,-0.35 0.05,-0.25 0.1,-0.4 0.05,-0.15 0.05,-0.4 0.15,-0.25 0.2,-0.4 0.05,-0.2 0.1,-0.4 0,-0.25 0.05,-0.5 0.1,-0.15 0.1,-0.4 0.05,-0.2 0.05,-0.45 0.05,-0.25 0.1,-0.45 0,-0.25 0,-0.55 0,-0.25 0,-0.45 0,-0.3 0,-0.55 0,-0.25 0,-0.5 0,-0.3 0,-0.55 0,-0.2 0,-0.5 0,-0.3 0,-0.55 0,-0.2 -0.05,-0.45 0,-0.15 -0.1,-0.45 0,-0.2 0,-0.4 -0.1,-0.25 -0.15,-0.5 -0.05,-0.15 -0.05,-0.4 -0.05,-0.2 -0.1,-0.4 0,-0.2 -0.15,-0.4 -0.05,-0.25 -0.1,-0.4 0,-0.25 -0.1,-0.4 -0.05,-0.25 -0.2,-0.35 -0.05,-0.2 -0.1,-0.4 -0.05,-0.2 -0.2,-0.35 -0.05,-0.2 -0.1,-0.4 -0.05,-0.2 -0.15,-0.35 -0.1,-0.2 -0.2,-0.35 -0.05,-0.2 -0.15,-0.35 -0.05,-0.2 -0.15,-0.35 -0.15,-0.2 -0.25,-0.3 -0.1,-0.2 -0.2,-0.35 -0.1,-0.2 -0.15,-0.3 -0.15,-0.15 -0.2,-0.35 -0.1,-0.15 -0.25,-0.3 -0.1,-0.15 -0.2,-0.3 -0.15,-0.1 -0.25,-0.25 -0.1,-0.2 -0.25,-0.3 -0.1,-0.2 -0.2,-0.3 -0.15,-0.1 -0.3,-0.3 -0.05,-0.1 -0.25,-0.2 -0.05,-0.2 -0.2,-0.3 -0.15,-0.15 -0.25,-0.3 -0.1,-0.1 -0.25,-0.25 -0.15,-0.1 -0.35,-0.2 -0.1,-0.15 -0.2,-0.25 -0.15,-0.15 -0.3,-0.3 -0.1,-0.1 -0.25,-0.2 -0.15,-0.15 -0.35,-0.2 -0.1,-0.15 -0.25,-0.25 -0.15,-0.15 -0.25,-0.2 -0.2,-0.2 -0.35,-0.25 -0.1,-0.1 -0.3,-0.15 -0.15,-0.15 -0.35,-0.25 -0.1,-0.1 -0.3,-0.2 -0.15,-0.1 -0.35,-0.2 -0.15,-0.05 -0.35,-0.2 -0.15,-0.05 -0.35,-0.15 -0.15,-0.05 -0.35,-0.2 -0.1,-0.1 -0.35,-0.15 -0.15,-0.05 -0.35,-0.1 -0.2,-0.1 -0.3,-0.2 -0.25,-0.05 -0.45,-0.1 -0.2,-0.05 -0.4,-0.15 -0.15,-0.1 -0.4,-0.15 -0.15,-0.05 -0.35,-0.1 -0.25,-0.1 -0.45,-0.1 -0.2,-0.1 -0.35,-0.1 -0.3,0 -0.45,-0.05 -0.2,-0.1 -0.45,-0.1 -0.25,-0.1 -0.45,-0.1 -0.25,-0.05 -0.45,-0.05 -0.3,-0.05 -0.45,-0.1 z"
         id="path29" />
    </g>
  </defs>
  <g
     id="g106"
     transform="translate(-700.40002,-1094.7)">
    <use
       xlink:href="#Layer2_5_FILL"
       id="use104" />
  </g>
</svg>
