<?xml version="1.0" encoding="UTF-8" standalone="no"?>
<svg
   version="1.1"
   preserveAspectRatio="none"
   x="0px"
   y="0px"
   width="36.5"
   height="36.5"
   viewBox="0 0 36.5 36.5"
   id="svg148"
   sodipodi:docname="pictos carres.svg"
   inkscape:export-filename="../../../front/public/icons/facebook.svg"
   inkscape:export-xdpi="96"
   inkscape:export-ydpi="96"
   xmlns:inkscape="http://www.inkscape.org/namespaces/inkscape"
   xmlns:sodipodi="http://sodipodi.sourceforge.net/DTD/sodipodi-0.dtd"
   xmlns:xlink="http://www.w3.org/1999/xlink"
   xmlns="http://www.w3.org/2000/svg"
   xmlns:svg="http://www.w3.org/2000/svg">
  <sodipodi:namedview
     id="namedview150"
     pagecolor="#ffffff"
     bordercolor="#000000"
     borderopacity="0.25"
     inkscape:showpageshadow="2"
     inkscape:pageopacity="0.0"
     inkscape:pagecheckerboard="0"
     inkscape:deskcolor="#d1d1d1"
     showgrid="false" />
  <defs
     id="defs82">
    <g
       id="Layer1_15_FILL">
      <path
         fill="#3c3f3e"
         stroke="none"
         d="m 1316.15,437.85 v 36.5 h 36.5 v -36.5 h -36.5 m 23.1,3.95 q 0.15,0.05 0.35,0.1 0.15,0.05 0.35,0.1 0.1,0.1 0.3,0.15 0.15,0.05 0.3,0.1 0.2,0.05 0.3,0.15 0.15,0.1 0.3,0.15 0.15,0.1 0.3,0.15 0.15,0.1 0.3,0.15 0.15,0.1 0.3,0.2 0.15,0.05 0.25,0.15 0.15,0.1 0.3,0.2 0.15,0.05 0.25,0.15 0.15,0.05 0.3,0.2 0.1,0.05 0.2,0.2 0.15,0.05 0.25,0.2 0.15,0.05 0.3,0.15 0.1,0.1 0.2,0.2 0.15,0.1 0.25,0.25 0.1,0.1 0.2,0.2 0.15,0.1 0.3,0.2 0.1,0.1 0.2,0.2 0.1,0.15 0.2,0.25 0.15,0.1 0.2,0.25 0.15,0.1 0.2,0.2 0.15,0.15 0.25,0.25 0.1,0.1 0.2,0.25 0.1,0.1 0.2,0.25 0.1,0.15 0.2,0.25 0.1,0.1 0.2,0.25 0.1,0.1 0.2,0.25 0.05,0.15 0.15,0.3 0.05,0.1 0.15,0.25 0.1,0.15 0.15,0.3 0.1,0.1 0.25,0.25 0.05,0.15 0.1,0.3 0.1,0.15 0.15,0.3 0.1,0.15 0.15,0.3 0.1,0.15 0.15,0.3 0.05,0.2 0.1,0.35 0.1,0.15 0.15,0.3 0.05,0.2 0.1,0.35 0.1,0.1 0.15,0.3 0.1,0.15 0.1,0.35 0.05,0.15 0.1,0.35 0.1,0.15 0.1,0.35 0.05,0.15 0.1,0.35 0,0.2 0.05,0.35 0.05,0.2 0.1,0.4 0,0.2 0,0.35 0.1,0.25 0.1,0.4 0.05,0.2 0.05,0.4 0,0.2 0,0.45 0,0.25 0,0.45 0,0.2 0,0.45 0,0.2 0,0.45 0,0.2 0,0.45 0,0.2 0,0.4 0,0.25 0,0.45 -0.05,0.2 -0.1,0.4 0,0.2 -0.05,0.4 0,0.2 -0.05,0.35 -0.05,0.2 -0.05,0.4 -0.05,0.2 -0.1,0.35 -0.05,0.15 -0.15,0.35 0,0.2 -0.05,0.35 -0.05,0.15 -0.1,0.35 -0.05,0.15 -0.1,0.3 -0.05,0.2 -0.15,0.35 -0.05,0.15 -0.1,0.35 -0.05,0.1 -0.15,0.3 -0.05,0.15 -0.15,0.3 -0.05,0.15 -0.15,0.3 -0.05,0.1 -0.1,0.3 -0.1,0.15 -0.15,0.3 -0.1,0.1 -0.2,0.25 -0.1,0.15 -0.15,0.3 -0.05,0.15 -0.15,0.3 -0.1,0.15 -0.2,0.25 -0.1,0.1 -0.2,0.25 -0.05,0.15 -0.15,0.3 -0.1,0.1 -0.2,0.25 -0.1,0.1 -0.2,0.25 -0.1,0.1 -0.2,0.25 -0.1,0.1 -0.2,0.25 -0.1,0.1 -0.2,0.2 -0.1,0.15 -0.2,0.25 -0.15,0.1 -0.25,0.25 -0.1,0.1 -0.2,0.2 -0.1,0.15 -0.25,0.25 -0.15,0.1 -0.25,0.15 -0.1,0.15 -0.2,0.2 -0.15,0.15 -0.3,0.2 -0.1,0.15 -0.2,0.25 -0.15,0.1 -0.25,0.2 -0.15,0.1 -0.3,0.15 -0.1,0.1 -0.25,0.2 -0.15,0.1 -0.25,0.15 -0.15,0.1 -0.25,0.2 -0.15,0.1 -0.3,0.2 -0.15,0.1 -0.3,0.15 -0.15,0.1 -0.3,0.15 -0.1,0.1 -0.25,0.15 -0.15,0.1 -0.3,0.2 -0.15,0.05 -0.3,0.1 -0.15,0.1 -0.3,0.15 -0.2,0.1 -0.35,0.1 -0.15,0.05 -0.3,0.15 -0.15,0.05 -0.35,0.1 -0.15,0.05 -0.3,0.15 -0.2,0 -0.35,0.05 -0.2,0.1 -0.35,0.15 -0.2,0.05 -0.35,0.05 -0.2,0.05 -0.35,0.1 -0.25,0.05 -0.4,0.05 -0.2,0.05 -0.4,0.1 -0.2,0.05 -0.35,0.05 -0.15,0.05 -0.2,-0.05 -0.1,-0.5 -0.1,-1.15 0.05,-2.3 0.05,-4.7 0,-2.15 0,-4.2 0,-0.1 0.05,-0.1 0.45,-0.05 1,-0.05 1.5,0.05 3,0 0.35,-2 0.75,-3.95 0.05,-0.3 0,-0.5 -0.2,-0.05 -0.55,-0.05 -2.1,0.05 -4.15,0 h -0.05 q -0.1,-0.55 -0.1,-1.15 0,-1.2 0.35,-2.15 0.45,-1.25 1.9,-1.5 1.2,-0.25 2.55,-0.05 0.2,0 0.3,-0.1 0.1,-0.4 0.1,-0.95 0,-1.55 -0.05,-3.05 -0.4,-0.2 -0.95,-0.25 -2.15,-0.3 -4.35,0.05 -2,0.3 -3.2,1.4 -1.25,1.15 -1.65,3.1 -0.4,1.7 -0.25,3.8 0,0.5 -0.1,0.85 -0.65,0.05 -1.45,0.05 -0.8,-0.05 -1.5,0 -0.1,0.5 -0.1,1.1 0.05,1.7 0.05,3.35 1.5,0 3,0.05 0.1,0.35 0.1,0.85 0,2.35 0,4.7 0,2.2 -0.1,4.3 -0.95,-0.15 -1.75,-0.5 -1.7,-0.7 -3.1,-1.65 -1.4,-1 -2.5,-2.2 -1.15,-1.2 -2,-2.75 -0.2,-0.35 -0.4,-0.75 -0.75,-1.6 -1.2,-3.5 -0.35,-1.6 -0.35,-3.6 0.05,-0.15 0.1,-0.4 0,-0.15 0,-0.4 0.05,-0.15 0.05,-0.35 0.05,-0.25 0.05,-0.45 0.05,-0.2 0.05,-0.4 0.05,-0.15 0.1,-0.35 0.05,-0.2 0.05,-0.4 0.05,-0.15 0.05,-0.35 0.05,-0.2 0.1,-0.3 0.05,-0.25 0.1,-0.35 0.1,-0.2 0.15,-0.35 0,-0.2 0.1,-0.35 0.05,-0.15 0.1,-0.35 0.1,-0.15 0.15,-0.3 0.05,-0.15 0.15,-0.3 0.05,-0.15 0.15,-0.35 0.05,-0.15 0.1,-0.25 0.1,-0.15 0.2,-0.3 0.05,-0.15 0.15,-0.3 0.05,-0.15 0.15,-0.3 0.05,-0.15 0.15,-0.3 0.1,-0.1 0.15,-0.25 0.15,-0.15 0.2,-0.3 0.1,-0.1 0.15,-0.25 0.15,-0.1 0.2,-0.25 0.1,-0.1 0.2,-0.25 0.1,-0.15 0.2,-0.25 0.1,-0.15 0.2,-0.25 0.1,-0.1 0.25,-0.25 0.1,-0.1 0.2,-0.2 0.05,-0.15 0.2,-0.25 0.1,-0.1 0.2,-0.25 0.1,-0.1 0.2,-0.2 0.15,-0.1 0.3,-0.2 0.1,-0.1 0.2,-0.2 0.1,-0.1 0.25,-0.25 0.1,-0.1 0.25,-0.2 0.1,-0.05 0.25,-0.2 0.1,-0.1 0.25,-0.2 0.1,-0.1 0.25,-0.15 0.15,-0.1 0.25,-0.2 0.15,-0.1 0.25,-0.2 0.15,-0.1 0.3,-0.15 0.1,-0.1 0.25,-0.2 0.15,-0.05 0.3,-0.15 0.1,-0.1 0.3,-0.2 0.1,-0.05 0.3,-0.15 0.15,-0.05 0.25,-0.1 0.15,-0.1 0.35,-0.15 0.15,-0.05 0.3,-0.15 0.15,-0.05 0.3,-0.15 0.15,-0.05 0.35,-0.1 0.15,-0.05 0.3,-0.15 0.15,-0.05 0.35,-0.1 0.2,-0.05 0.35,-0.05 0.15,-0.05 0.35,-0.1 0.15,-0.05 0.35,-0.1 0.2,0 0.35,-0.05 0.2,-0.1 0.4,-0.1 0.25,0 0.4,-0.05 0.15,-0.05 0.35,-0.05 0.25,-0.05 0.45,-0.05 0.2,-0.05 0.4,-0.05 0.2,-0.05 0.4,-0.05 0.2,0 0.4,0 0.2,0 0.45,-0.05 0.25,0 0.45,0.05 0.2,0 0.4,0 0.2,0.05 0.4,0.05 0.15,0.05 0.4,0.1 0.2,0 0.4,0.05 0.15,0 0.4,0.05 0.2,0 0.35,0.1 0.15,0.05 0.4,0.05 0.15,0 0.3,0.1 0.2,0 0.4,0.05 0.15,0.05 0.3,0.1 0.2,0.05 0.35,0.15 z"
         id="path77" />
      <path
         fill="#ff00fe"
         stroke="none"
         d="m 1339.6,441.9 q -0.2,-0.05 -0.35,-0.1 -0.15,-0.1 -0.35,-0.15 -0.15,-0.05 -0.3,-0.1 -0.2,-0.05 -0.4,-0.05 -0.15,-0.1 -0.3,-0.1 -0.25,0 -0.4,-0.05 -0.15,-0.1 -0.35,-0.1 -0.25,-0.05 -0.4,-0.05 -0.2,-0.05 -0.4,-0.05 -0.25,-0.05 -0.4,-0.1 -0.2,0 -0.4,-0.05 -0.2,0 -0.4,0 -0.2,-0.05 -0.45,-0.05 -0.25,0.05 -0.45,0.05 -0.2,0 -0.4,0 -0.2,0 -0.4,0.05 -0.2,0 -0.4,0.05 -0.2,0 -0.45,0.05 -0.2,0 -0.35,0.05 -0.15,0.05 -0.4,0.05 -0.2,0 -0.4,0.1 -0.15,0.05 -0.35,0.05 -0.2,0.05 -0.35,0.1 -0.2,0.05 -0.35,0.1 -0.15,0 -0.35,0.05 -0.2,0.05 -0.35,0.1 -0.15,0.1 -0.3,0.15 -0.2,0.05 -0.35,0.1 -0.15,0.1 -0.3,0.15 -0.15,0.1 -0.3,0.15 -0.2,0.05 -0.35,0.15 -0.1,0.05 -0.25,0.1 -0.2,0.1 -0.3,0.15 -0.2,0.1 -0.3,0.2 -0.15,0.1 -0.3,0.15 -0.15,0.1 -0.25,0.2 -0.15,0.05 -0.3,0.15 -0.1,0.1 -0.25,0.2 -0.1,0.1 -0.25,0.2 -0.15,0.05 -0.25,0.15 -0.15,0.1 -0.25,0.2 -0.15,0.15 -0.25,0.2 -0.15,0.1 -0.25,0.2 -0.15,0.15 -0.25,0.25 -0.1,0.1 -0.2,0.2 -0.15,0.1 -0.3,0.2 -0.1,0.1 -0.2,0.2 -0.1,0.15 -0.2,0.25 -0.15,0.1 -0.2,0.25 -0.1,0.1 -0.2,0.2 -0.15,0.15 -0.25,0.25 -0.1,0.1 -0.2,0.25 -0.1,0.1 -0.2,0.25 -0.1,0.15 -0.2,0.25 -0.05,0.15 -0.2,0.25 -0.05,0.15 -0.15,0.25 -0.05,0.15 -0.2,0.3 -0.05,0.15 -0.15,0.25 -0.1,0.15 -0.15,0.3 -0.1,0.15 -0.15,0.3 -0.1,0.15 -0.15,0.3 -0.1,0.15 -0.2,0.3 -0.05,0.1 -0.1,0.25 -0.1,0.2 -0.15,0.35 -0.1,0.15 -0.15,0.3 -0.05,0.15 -0.15,0.3 -0.05,0.2 -0.1,0.35 -0.1,0.15 -0.1,0.35 -0.05,0.15 -0.15,0.35 -0.05,0.1 -0.1,0.35 -0.05,0.1 -0.1,0.3 0,0.2 -0.05,0.35 0,0.2 -0.05,0.4 -0.05,0.2 -0.1,0.35 0,0.2 -0.05,0.4 0,0.2 -0.05,0.45 0,0.2 -0.05,0.35 0,0.25 0,0.4 -0.05,0.25 -0.1,0.4 0,2 0.35,3.6 0.45,1.9 1.2,3.5 0.2,0.4 0.4,0.75 0.85,1.55 2,2.75 1.1,1.2 2.5,2.2 1.4,0.95 3.1,1.65 0.8,0.35 1.75,0.5 0.1,-2.1 0.1,-4.3 0,-2.35 0,-4.7 0,-0.5 -0.1,-0.85 -1.5,-0.05 -3,-0.05 0,-1.65 -0.05,-3.35 0,-0.6 0.1,-1.1 0.7,-0.05 1.5,0 0.8,0 1.45,-0.05 0.1,-0.35 0.1,-0.85 -0.15,-2.1 0.25,-3.8 0.4,-1.95 1.65,-3.1 1.2,-1.1 3.2,-1.4 2.2,-0.35 4.35,-0.05 0.55,0.05 0.95,0.25 0.05,1.5 0.05,3.05 0,0.55 -0.1,0.95 -0.1,0.1 -0.3,0.1 -1.35,-0.2 -2.55,0.05 -1.45,0.25 -1.9,1.5 -0.35,0.95 -0.35,2.15 0,0.6 0.1,1.15 h 0.05 q 2.05,0.05 4.15,0 0.35,0 0.55,0.05 0.05,0.2 0,0.5 -0.4,1.95 -0.75,3.95 -1.5,0.05 -3,0 -0.55,0 -1,0.05 -0.05,0 -0.05,0.1 0,2.05 0,4.2 0,2.4 -0.05,4.7 0,0.65 0.1,1.15 0.05,0.1 0.2,0.05 0.15,0 0.35,-0.05 0.2,-0.05 0.4,-0.1 0.15,0 0.4,-0.05 0.15,-0.05 0.35,-0.1 0.15,0 0.35,-0.05 0.15,-0.05 0.35,-0.15 0.15,-0.05 0.35,-0.05 0.15,-0.1 0.3,-0.15 0.2,-0.05 0.35,-0.1 0.15,-0.1 0.3,-0.15 0.15,0 0.35,-0.1 0.15,-0.05 0.3,-0.15 0.15,-0.05 0.3,-0.1 0.15,-0.1 0.3,-0.2 0.15,-0.05 0.25,-0.15 0.15,-0.05 0.3,-0.15 0.15,-0.05 0.3,-0.15 0.15,-0.1 0.3,-0.2 0.1,-0.1 0.25,-0.2 0.1,-0.05 0.25,-0.15 0.15,-0.1 0.25,-0.2 0.15,-0.05 0.3,-0.15 0.1,-0.1 0.25,-0.2 0.1,-0.1 0.2,-0.25 0.15,-0.05 0.3,-0.2 0.1,-0.05 0.2,-0.2 0.1,-0.05 0.25,-0.15 0.15,-0.1 0.25,-0.25 0.1,-0.1 0.2,-0.2 0.1,-0.15 0.25,-0.25 0.1,-0.1 0.2,-0.25 0.1,-0.1 0.2,-0.2 0.1,-0.15 0.2,-0.25 0.1,-0.15 0.2,-0.25 0.1,-0.15 0.2,-0.25 0.1,-0.15 0.2,-0.25 0.1,-0.15 0.15,-0.3 0.1,-0.15 0.2,-0.25 0.1,-0.1 0.2,-0.25 0.1,-0.15 0.15,-0.3 0.05,-0.15 0.15,-0.3 0.1,-0.15 0.2,-0.25 0.05,-0.15 0.15,-0.3 0.05,-0.2 0.1,-0.3 0.1,-0.15 0.15,-0.3 0.1,-0.15 0.15,-0.3 0.1,-0.2 0.15,-0.3 0.05,-0.2 0.1,-0.35 0.1,-0.15 0.15,-0.35 0.05,-0.15 0.1,-0.3 0.05,-0.2 0.1,-0.35 0.05,-0.15 0.05,-0.35 0.1,-0.2 0.15,-0.35 0.05,-0.15 0.1,-0.35 0,-0.2 0.05,-0.4 0.05,-0.15 0.05,-0.35 0.05,-0.2 0.05,-0.4 0.05,-0.2 0.1,-0.4 0,-0.2 0,-0.45 0,-0.2 0,-0.4 0,-0.25 0,-0.45 0,-0.25 0,-0.45 0,-0.25 0,-0.45 0,-0.2 0,-0.45 0,-0.25 0,-0.45 0,-0.2 -0.05,-0.4 0,-0.15 -0.1,-0.4 0,-0.15 0,-0.35 -0.05,-0.2 -0.1,-0.4 -0.05,-0.15 -0.05,-0.35 -0.05,-0.2 -0.1,-0.35 0,-0.2 -0.1,-0.35 -0.05,-0.2 -0.1,-0.35 0,-0.2 -0.1,-0.35 -0.05,-0.2 -0.15,-0.3 -0.05,-0.15 -0.1,-0.35 -0.05,-0.15 -0.15,-0.3 -0.05,-0.15 -0.1,-0.35 -0.05,-0.15 -0.15,-0.3 -0.05,-0.15 -0.15,-0.3 -0.05,-0.15 -0.15,-0.3 -0.05,-0.15 -0.1,-0.3 -0.15,-0.15 -0.25,-0.25 -0.05,-0.15 -0.15,-0.3 -0.1,-0.15 -0.15,-0.25 -0.1,-0.15 -0.15,-0.3 -0.1,-0.15 -0.2,-0.25 -0.1,-0.15 -0.2,-0.25 -0.1,-0.1 -0.2,-0.25 -0.1,-0.15 -0.2,-0.25 -0.1,-0.15 -0.2,-0.25 -0.1,-0.1 -0.25,-0.25 -0.05,-0.1 -0.2,-0.2 -0.05,-0.15 -0.2,-0.25 -0.1,-0.1 -0.2,-0.25 -0.1,-0.1 -0.2,-0.2 -0.15,-0.1 -0.3,-0.2 -0.1,-0.1 -0.2,-0.2 -0.1,-0.15 -0.25,-0.25 -0.1,-0.1 -0.2,-0.2 -0.15,-0.1 -0.3,-0.15 -0.1,-0.15 -0.25,-0.2 -0.1,-0.15 -0.2,-0.2 -0.15,-0.15 -0.3,-0.2 -0.1,-0.1 -0.25,-0.15 -0.15,-0.1 -0.3,-0.2 -0.1,-0.1 -0.25,-0.15 -0.15,-0.1 -0.3,-0.2 -0.15,-0.05 -0.3,-0.15 -0.15,-0.05 -0.3,-0.15 -0.15,-0.05 -0.3,-0.15 -0.1,-0.1 -0.3,-0.15 -0.15,-0.05 -0.3,-0.1 -0.2,-0.05 -0.3,-0.15 -0.2,-0.05 -0.35,-0.1 z"
         id="path79" />
    </g>
  </defs>
  <g
     id="g146"
     transform="translate(-1316.15,-437.85001)">
    <use
       xlink:href="#Layer1_15_FILL"
       id="use144" />
  </g>
</svg>
