<?xml version="1.0" encoding="UTF-8" standalone="no"?>
<svg
   version="1.1"
   preserveAspectRatio="none"
   x="0px"
   y="0px"
   width="32.899902"
   height="34.76593"
   viewBox="0 0 32.899902 34.76593"
   id="svg116"
   sodipodi:docname="pc_pictos.svg"
   xmlns:inkscape="http://www.inkscape.org/namespaces/inkscape"
   xmlns:sodipodi="http://sodipodi.sourceforge.net/DTD/sodipodi-0.dtd"
   xmlns:xlink="http://www.w3.org/1999/xlink"
   xmlns="http://www.w3.org/2000/svg"
   xmlns:svg="http://www.w3.org/2000/svg">
  <sodipodi:namedview
     id="namedview118"
     pagecolor="#ffffff"
     bordercolor="#000000"
     borderopacity="0.25"
     inkscape:showpageshadow="2"
     inkscape:pageopacity="0.0"
     inkscape:pagecheckerboard="0"
     inkscape:deskcolor="#d1d1d1"
     showgrid="false" />
  <defs
     id="defs50">
    <g
       id="Layer1_7_FILL">
      <path
         fill="#ff00fe"
         stroke="none"
         d="m 1054.2,302.85 v 0.05 q 0.25,0.1 0.5,-0.05 0.25,-0.25 0.2,-0.8 0,-0.1 -0.1,-0.15 -0.05,0 -0.15,0 -0.45,0.15 -0.55,0.6 0,0.1 0,0.25 v 0.05 q 0.05,0 0.1,0.05 m 10.4,-0.75 v 0.05 q 0.05,1.3 0.85,1.8 h 0.05 q 0.15,0 0.25,0 0.3,-0.2 0.45,-0.55 0,-0.2 0,-0.35 -0.3,-0.65 -0.8,-0.95 -0.45,-0.25 -0.8,0 m -26.5,-2.45 -0.05,-0.05 q -0.4,-0.05 -0.5,0.2 0,0.2 0,0.4 0.2,0.2 0.45,0.25 h 0.05 q 0.25,-0.1 0.35,-0.3 v -0.05 q -0.05,-0.35 -0.3,-0.45 m 5.15,-2.95 q 0.25,-0.45 -0.05,-0.8 -0.1,-0.05 -0.25,0 -0.75,0.25 -1.1,0.95 0,0.1 0,0.2 0.1,0.3 0.35,0.4 0.7,-0.2 1.05,-0.75 m -1.4,-13.85 q 0.45,-0.1 0.45,-0.45 v -0.05 q -0.1,-0.2 -0.25,-0.25 H 1042 q -0.25,0.15 -0.4,0.45 0,0.3 0.25,0.3 m -2.2,0.4 q -0.05,0.65 0.3,0.95 0.35,0.3 0.9,0.1 0.15,-0.15 0.25,-0.3 -0.05,-0.95 -0.75,-1.2 h -0.05 q -0.15,0 -0.3,0 v 0.05 q -0.1,0 -0.2,0.1 V 283 q -0.1,0.1 -0.15,0.25 m 28.05,13.25 q 0,0.15 0,0.3 h 0.05 q 0.15,0.35 0.45,0.5 h 0.05 q 0.15,0 0.35,0 v -0.05 q 0.25,-0.05 0.3,-0.3 -0.1,-0.8 -0.9,-0.7 h -0.05 q -0.15,0.15 -0.25,0.25 m 2.5,-9.1 q 0.15,-0.1 0.25,-0.25 v -0.05 q 0,-0.25 -0.05,-0.45 -0.3,-0.2 -0.8,-0.1 -0.35,0.1 -0.8,0.2 -0.25,0.1 -0.55,0.1 -0.55,0.05 -0.95,0.25 v 0.05 q 0,0.25 0.15,0.35 h 0.05 q 0,0.05 0.05,0.05 1.45,0.1 2.65,-0.15 m -11.6,-12.75 v -0.05 q -0.1,-0.35 -0.45,-0.45 -0.2,0 -0.3,0 h -0.05 q -0.2,0.1 -0.3,0.2 v 0.05 q -0.1,0.2 -0.1,0.4 0,0.3 0.15,0.45 0.85,0.1 1.05,-0.6 m 9.25,7.75 q -0.2,0.1 -0.3,0.25 v 0.05 q 0,0.3 0.3,0.35 h 0.05 q 0.25,-0.05 0.35,-0.35 -0.05,0 -0.05,-0.05 -0.05,-0.25 -0.3,-0.25 h -0.05 m -0.8,0.35 v -0.05 q 0,-0.3 -0.3,-0.4 h -0.05 q -0.15,-0.05 -0.3,0 -0.1,0.15 -0.2,0.25 0,0.2 0.1,0.35 0.2,0.2 0.6,0.1 v -0.05 q 0.1,-0.05 0.15,-0.2 m -2.2,-3.7 q -0.55,0.3 -0.95,0.8 -0.4,0.55 -1,0.85 -0.1,-0.05 -0.15,-0.2 -0.15,-0.55 -0.65,-0.8 -0.15,0 -0.25,0 -0.3,0.15 -0.65,0.2 -1.1,-0.75 -1.75,-1.9 0.05,-0.05 0.05,-0.1 0.25,-0.45 0.5,-0.85 0.3,-0.5 0.15,-1.2 -0.15,-0.15 -0.3,-0.25 -1.45,0.05 -2.25,0.7 -0.45,0.35 -1.25,0.45 -0.8,-0.55 -0.75,-1.9 0.05,-1.35 0,-2.5 h -0.05 q -0.25,-0.4 -0.75,-0.25 -0.1,0.1 -0.2,0.2 -0.05,0.1 -0.05,0.25 -0.1,1.5 0,3 0.1,0.65 0.2,1.2 0.2,1.3 -1,1.3 v 0.05 q -0.2,0.2 -0.45,0.35 -0.15,-0.05 -0.25,-0.15 -0.3,-0.3 -0.55,-0.6 -0.35,-0.4 -0.7,-0.85 -1.1,-1.55 -1.55,-3.7 -0.15,-0.6 -0.6,-0.85 h -0.05 q -0.3,0.1 -0.4,0.4 0,0.15 0,0.25 0.45,1.1 0.9,2.25 0.35,0.9 0.8,1.85 0.2,0.5 0.15,1.05 H 1051 q -0.1,0.15 -0.3,0.15 -0.2,-0.05 -0.3,-0.2 -0.05,-0.15 -0.15,-0.4 -0.3,-1.15 -0.8,-2.15 -0.1,-0.2 -0.2,-0.35 -0.25,-0.45 -0.85,-0.5 -0.3,0.2 -0.45,0.45 -0.1,0.5 0.1,0.85 0.8,1.65 1.6,3.3 0,0.2 -0.05,0.35 -0.05,0.05 -0.15,0.05 -0.55,0.1 -0.85,0.4 v 0.05 q 0,0.55 -0.05,1.05 h -0.05 q -0.2,0.2 -0.65,0.05 -0.15,-0.1 -0.25,-0.35 -0.25,-0.7 -0.9,-1.05 -0.2,-0.1 -0.4,-0.2 -0.35,-0.15 -0.6,-0.45 -1.1,-1.5 -2.8,-2.45 -0.35,-0.15 -0.7,-0.25 -1.2,-0.25 -1.7,0.65 -0.2,0.4 0.05,0.8 0.25,0.45 0.65,0.7 0.7,0.45 1.4,0.85 0.85,0.5 1.55,1.05 0.75,0.65 1.25,1.45 0,0.35 -0.05,0.65 -0.1,0.15 -0.2,0.25 -0.25,0.05 -0.6,0.05 -0.8,0.1 -1.35,0.45 -0.05,0.05 -0.05,0.1 0,1 0.45,1.7 0.2,0.3 0.2,0.8 -0.05,0.7 -0.4,1.15 0.35,0.55 0.25,1.45 -0.2,0.35 -0.7,0.45 -0.3,0.1 -0.65,0.15 -1.25,0.3 -2.75,0.25 -0.15,0 -0.3,-0.05 -0.65,-0.3 -1.25,-0.05 0,0.05 -0.05,0.05 -0.25,0.2 -0.3,0.6 0,0.3 0.1,0.45 0.15,0.2 0.5,0.25 0.5,0.05 0.9,-0.05 1.45,-0.2 2.7,0.1 0.2,0 0.25,0.05 0.9,0.15 1.3,0.75 0,0.55 -0.5,0.75 -0.8,0.25 -1.8,0.3 -1.3,0 -1.85,0.8 -0.15,0.2 -0.15,0.55 -0.1,1.1 0.95,1.25 1.1,0.1 1.7,-0.45 0.35,-0.35 0.9,-0.55 0.75,-0.25 1.15,0.15 v 0.05 q 0.2,0.35 0.15,0.9 h 0.05 q 0,0.2 0.15,0.3 h 0.05 q 0.15,0.05 0.35,0.15 -0.05,0.2 0,0.55 0.35,0.15 0.5,0.45 -0.05,0.25 -0.25,0.4 -0.45,0.4 -1.05,0.75 -0.75,0.45 -1.4,1 -1.4,1.25 -2.55,2.65 -0.15,0.2 -0.35,0.4 -0.75,0.5 -0.7,1.9 0.2,0.5 0.7,0.65 0.15,0.05 0.4,0 1.05,-0.15 1.35,-1.2 0.35,-1.25 1.1,-2.15 0.25,-0.25 0.55,-0.4 1.3,-0.8 2.4,-1.7 0.2,-0.1 0.35,-0.3 0.35,-0.35 0.75,-0.6 0.3,0.4 0.65,0.7 h 0.05 q 0.15,0 0.3,0 l 0.05,-0.05 q 0.1,-0.05 0.2,-0.15 0.25,-0.25 0.75,-0.3 0.45,0.2 0.35,0.9 -0.15,0.9 -0.15,1.9 h 0.05 q 0,0.1 0.05,0.15 v 0.05 q 0.2,0.15 0.35,0.2 h 0.05 q 0.15,0 0.35,0 0.6,-0.4 0.5,-1.55 0,-0.4 0.15,-0.6 0.95,0.25 1.35,1.1 0.15,0.45 0.05,1 -0.1,0.6 -0.2,1.35 -0.2,1.15 -0.45,2.25 -0.2,1.2 0.45,1.75 0.35,0.05 0.55,0 0.5,-0.55 0.6,-1.55 0.25,-1.75 0.45,-3.45 0.3,-1.7 1.7,-2.25 0.25,-0.1 0.6,-0.05 1.1,0.2 1.55,1.05 0.25,0.4 0.2,1.05 0,1 0.05,1.9 h 0.05 q 0.1,0.1 0.2,0.25 h 0.05 q 0.4,0.1 0.8,0 v -0.05 q 0.2,-0.1 0.25,-0.25 0.15,-0.7 -0.05,-1.3 -0.15,-0.65 -0.3,-1.3 -0.25,-0.95 0.35,-1.4 0.2,-0.15 0.5,-0.05 0.85,0.15 1.35,0.7 0.05,0.05 0.05,0.1 0.25,0.4 0.5,0.85 0.8,1.45 1.2,3.35 0.2,1.1 1.05,1.6 0.7,0 0.85,-0.55 0.25,-0.8 -0.1,-1.4 -0.65,-1.1 -1.25,-2.05 -0.55,-0.8 -0.65,-1.95 -0.1,-0.7 0,-1.2 0,-0.05 0.05,-0.05 0.15,-0.15 0.4,-0.1 0.1,-0.05 0.2,-0.05 v -0.05 q 0.25,-0.4 0.15,-1.2 0.1,-0.1 0.25,-0.2 0.4,0.05 0.55,0.3 0.1,0.25 0.25,0.5 0.45,0.95 1.2,1.55 0.2,0 0.35,-0.05 v -0.05 q 0.2,-0.05 0.25,-0.25 -0.15,-0.9 -0.55,-1.5 -0.05,-0.1 -0.15,-0.2 -0.3,-0.35 -0.25,-0.85 0.15,-0.05 0.25,0.05 0.45,0.5 1.15,0.7 h 0.05 q 0.25,-0.1 0.35,-0.35 -0.35,-0.7 -0.95,-1 0,-0.05 -0.05,-0.05 -0.05,-0.1 -0.1,-0.3 0.1,-0.15 0.25,-0.25 0.25,0.05 0.45,0.15 0.55,0.25 1.35,0.3 0.25,-0.1 0.35,-0.35 v -0.05 q 0,-0.2 -0.05,-0.4 -0.2,-0.2 -0.4,-0.4 -0.15,-0.2 -0.45,-0.3 -0.6,-0.2 -0.8,-0.75 v -0.05 q 0.35,-0.65 0.75,-1.2 0.05,-0.25 -0.05,-0.45 -0.3,-0.4 -0.35,-1.05 0.1,-0.25 0.25,-0.4 0.15,-0.15 0.35,-0.3 0.7,-0.4 1,-1.15 -0.1,-0.4 -0.35,-0.65 -0.4,-0.4 -0.65,-0.95 -0.25,-0.6 0,-1.25 h -0.05 q 0,-0.25 -0.15,-0.35 -0.65,-0.15 -0.9,-0.7 0,-0.1 0.05,-0.2 0.05,-0.1 0.1,-0.15 0.4,-0.35 0.6,-0.95 -0.2,-0.5 -0.85,-0.6 -1.1,-0.05 -1.7,-0.6 -0.3,-0.25 -0.2,-0.65 0.1,-0.5 0.4,-0.95 0.45,-0.8 0.85,-1.7 v -0.05 q 0,-0.2 -0.05,-0.25 0,-0.05 -0.1,0 m -9.2,1 q 0.05,0.2 0.15,0.25 h 0.05 q -0.05,0.3 0.15,0.4 v 0.05 q 0.1,1.2 -0.05,2.25 -0.05,0.2 -0.1,0.3 0,0.2 -0.05,0.4 -0.15,0.15 -0.15,0.45 -0.15,0.1 -0.15,0.35 v 0.05 q -0.15,0.2 -0.3,0.4 0,0.1 -0.05,0.2 -0.3,0.4 -0.6,0.8 -0.3,0.4 -0.85,0.55 -0.3,0.2 -0.85,0.15 -0.2,0 -0.35,-0.05 -0.1,-0.15 -0.35,-0.15 -0.75,-0.45 -1.15,-1.2 -0.1,-0.1 -0.05,-0.25 v -0.05 q -0.25,-0.4 -0.2,-1.2 v -0.05 q 0.1,-0.15 0.2,-0.3 v -0.05 q 0,-0.3 0.1,-0.5 0.05,-0.05 0.05,-0.15 0.15,-0.05 0.2,-0.3 0.2,-0.3 0.3,-0.6 0.05,0 0.05,-0.05 0.15,-0.05 0.15,-0.2 0.15,-0.05 0.15,-0.2 l 0.05,-0.05 q 0.85,-0.9 1.9,-1.6 h 0.05 q 0.2,-0.1 0.45,-0.2 0.15,0 0.35,0 h 0.05 q 0.5,0.2 0.85,0.55 m 1.75,1.95 q 0.1,-0.05 0.15,-0.1 0.3,-0.55 0.8,-0.85 0.2,0 0.25,-0.1 v -0.05 q 0.35,-0.1 0.8,-0.05 0.1,0.2 0.35,0.2 0.15,0.15 0.3,0.25 0,0.05 0.05,0.05 0,0.15 0.1,0.2 h 0.05 q 0.1,0.25 0.2,0.5 0.2,0.2 0.25,0.5 0.05,0 0.05,0.1 0.05,0.1 0.05,0.25 v 0.05 q 0.05,0.15 0.15,0.35 0.05,0.75 0.05,1.4 0.1,0.6 0,1.1 -0.05,0.15 -0.05,0.4 -0.05,0.1 -0.15,0.2 0,0.15 -0.05,0.25 v 0.05 q -0.2,0.25 -0.3,0.55 -0.4,0.4 -0.9,0.75 -0.05,0 -0.15,0 -0.1,0.1 -0.2,0.15 v 0.05 q -0.35,0 -0.7,0.05 -0.25,0.05 -0.45,-0.05 -0.7,-0.1 -1.1,-0.6 0,-0.05 -0.05,-0.05 -0.1,-0.15 -0.2,-0.4 v -0.05 q -0.15,-0.25 -0.25,-0.65 -0.1,-0.85 -0.05,-1.9 0.15,-0.3 0.15,-0.8 v -0.05 q 0.05,-0.05 0.15,-0.15 0,-0.35 0.2,-0.45 v -0.05 q 0,-0.25 0.15,-0.35 0,-0.15 0.05,-0.2 v -0.05 q 0.2,-0.15 0.3,-0.45 m 4.95,5.15 v -0.05 q 0.3,-0.2 0.3,0.2 v 0.05 q -0.05,0.2 -0.25,0.3 -0.05,-0.2 -0.05,-0.5 m -1.55,1.5 q 0.8,-0.35 1.25,0.2 0.9,1.1 0.85,3 0,0.65 -0.25,1.05 -0.45,0.85 -1.6,1 -0.3,0 -0.55,0 -1.3,-0.35 -1.9,-1.45 -0.15,-0.35 -0.1,-0.95 0.5,-2.1 2.3,-2.85 m -6.25,-0.2 q 0.2,0.1 0.45,0.1 0.8,0.35 1.35,1 0,0.15 0.15,0.25 0,0.05 0.05,0.05 0,0.2 0.05,0.25 l 0.05,0.05 q 0.05,0.15 0.05,0.3 v 0.05 q 0.1,0 0.15,0.15 h 0.05 q 0,0.15 0,0.3 V 291 q 0.05,0.15 0.15,0.35 0,0.15 0,0.25 0.1,0.05 0.1,0.15 h 0.05 q 0,0.1 0,0.2 0.3,0.45 0.55,0.9 0.15,0.1 0.25,0.25 h 0.05 q 0,0.1 0.05,0.15 v 0.05 q 0.15,0 0.15,0.15 0.05,0 0.1,0.1 h 0.05 q 0,0.2 0.15,0.3 0,0.2 0.15,0.3 0.05,0.25 0.15,0.4 0.1,0.7 0.05,1.45 v 0.05 q -0.05,0.1 -0.15,0.2 0,0.15 -0.05,0.25 v 0.05 q -0.1,0.1 -0.15,0.3 -0.25,0.4 -0.5,0.8 -0.25,0.4 -0.65,0.55 -0.05,0 -0.1,0 -0.05,0.1 -0.15,0.15 h -0.05 q -0.75,0.1 -1.2,-0.15 -0.15,-0.05 -0.3,0 -0.2,-0.15 -0.45,-0.15 L 1055.1,298 q -0.6,-0.35 -1.05,-0.85 -0.05,0 -0.1,-0.1 -0.45,-0.4 -1.15,-0.6 -0.25,-0.2 -0.75,-0.15 -1.55,0.1 -2.95,-0.15 -0.3,0 -0.65,0 -0.05,-0.1 -0.15,-0.15 -0.65,-0.2 -0.8,-0.85 -0.2,-0.35 -0.2,-0.8 -0.05,-0.15 -0.05,-0.25 0,-0.2 0,-0.35 0.15,-0.35 0.15,-0.85 v -0.05 q 0.1,-0.1 0.15,-0.4 0.05,-0.1 0.1,-0.15 h 0.05 q -0.05,-0.15 0,-0.2 h 0.05 q 0.05,-0.05 0.1,-0.1 0.35,-0.6 0.9,-0.95 0.25,0 0.35,-0.15 0.25,0.05 0.3,-0.1 0.4,-0.1 0.65,-0.2 v -0.05 q 0.1,0 0.3,0 0.35,-0.2 0.7,-0.4 0.4,-0.4 0.75,-0.8 0.35,-0.35 0.9,-0.55 0.35,-0.15 0.7,-0.25 0.65,-0.15 1.15,-0.1 m -5.7,-4.7 q -0.2,-0.05 -0.15,-0.35 0.05,0 0.05,-0.05 0.1,-0.2 0.4,-0.15 h 0.05 q 0,0.45 -0.35,0.55 m 0.25,1.15 q 0.9,0.45 1.15,1.5 0.25,0.75 0.15,1.75 -0.05,1.15 -0.95,1.65 -0.9,0.5 -2.15,0.2 -0.9,-0.2 -1.2,-1.05 -0.2,-0.5 -0.2,-1.2 0.55,-2.1 2.5,-2.8 0.3,-0.05 0.7,-0.05 m 16.45,-7.35 q -0.15,0.1 -0.25,0.3 v 0.05 q 0,0.2 0,0.35 v 0.05 q 0.1,0.15 0.2,0.2 h 0.05 q 0.6,-0.05 0.8,-0.6 v -0.05 q 0,-0.15 -0.05,-0.3 h -0.05 q -0.3,-0.2 -0.7,-0.05 z"
         id="path23" />
    </g>
  </defs>
  <g
     id="g82"
     transform="translate(-1037.55,-272.05908)">
    <use
       xlink:href="#Layer1_7_FILL"
       id="use80" />
  </g>
</svg>
