<?xml version="1.0" encoding="UTF-8" standalone="no"?>
<svg
   version="1.1"
   preserveAspectRatio="none"
   x="0px"
   y="0px"
   width="41.5"
   height="41.5"
   viewBox="0 0 41.5 41.5"
   id="svg148"
   sodipodi:docname="pictos smart.svg"
   xmlns:inkscape="http://www.inkscape.org/namespaces/inkscape"
   xmlns:sodipodi="http://sodipodi.sourceforge.net/DTD/sodipodi-0.dtd"
   xmlns:xlink="http://www.w3.org/1999/xlink"
   xmlns="http://www.w3.org/2000/svg"
   xmlns:svg="http://www.w3.org/2000/svg">
  <sodipodi:namedview
     id="namedview150"
     pagecolor="#ffffff"
     bordercolor="#000000"
     borderopacity="0.25"
     inkscape:showpageshadow="2"
     inkscape:pageopacity="0.0"
     inkscape:pagecheckerboard="0"
     inkscape:deskcolor="#d1d1d1"
     showgrid="false" />
  <defs
     id="defs82">
    <g
       id="Layer2_13_FILL">
      <path
         fill="#3c3f3e"
         stroke="none"
         d="m 131.45,1742.6 v 41.5 h 41.5 v -41.5 h -41.5 m 35.8,7.3 v 0.05 q -0.2,0.65 -0.9,0.7 h -0.1 q -0.1,-0.05 -0.2,-0.2 v -0.1 q 0,-0.15 0,-0.4 v -0.05 q 0.1,-0.25 0.3,-0.35 v -0.05 q 0.45,-0.2 0.8,0.05 h 0.05 q 0.05,0.2 0.05,0.35 m -1.75,1.4 q 0.15,-0.05 0.15,0 0.05,0.05 0.05,0.3 v 0.05 q -0.45,1.05 -1,2 -0.35,0.5 -0.45,1.1 -0.15,0.45 0.2,0.75 0.7,0.6 2,0.7 0.75,0.1 1,0.7 -0.25,0.7 -0.7,1.1 -0.05,0.05 -0.15,0.15 -0.05,0.1 -0.05,0.25 0.3,0.65 1.05,0.8 0.2,0.1 0.2,0.4 h 0.05 q -0.3,0.75 0,1.45 0.3,0.65 0.75,1.1 0.3,0.3 0.4,0.75 -0.35,0.9 -1.15,1.35 -0.25,0.2 -0.4,0.35 -0.2,0.2 -0.3,0.45 0.05,0.8 0.4,1.25 0.1,0.25 0.05,0.5 -0.45,0.65 -0.85,1.4 v 0.05 q 0.2,0.65 0.9,0.9 0.35,0.1 0.55,0.35 0.2,0.2 0.45,0.45 0.05,0.25 0.05,0.45 v 0.1 q -0.1,0.25 -0.4,0.4 -0.9,-0.05 -1.55,-0.35 -0.25,-0.15 -0.55,-0.2 -0.15,0.15 -0.3,0.3 0.1,0.25 0.15,0.35 0.05,0 0.05,0.05 0.7,0.35 1.1,1.15 -0.1,0.3 -0.4,0.45 h -0.05 q -0.85,-0.25 -1.35,-0.85 -0.1,-0.1 -0.3,-0.05 -0.05,0.6 0.3,1 0.1,0.1 0.15,0.25 0.5,0.7 0.65,1.7 -0.05,0.25 -0.3,0.3 v 0.05 q -0.15,0.1 -0.4,0.1 -0.85,-0.7 -1.4,-1.8 -0.15,-0.3 -0.25,-0.6 -0.2,-0.3 -0.65,-0.35 -0.2,0.1 -0.3,0.25 0.1,0.9 -0.15,1.35 v 0.1 q -0.15,0 -0.25,0.05 -0.3,-0.05 -0.45,0.1 -0.1,0 -0.1,0.05 -0.1,0.6 0,1.4 0.15,1.35 0.8,2.3 0.65,1.1 1.45,2.35 0.4,0.7 0.1,1.65 -0.2,0.65 -1,0.65 -1,-0.6 -1.2,-1.9 -0.5,-2.2 -1.4,-3.9 -0.3,-0.5 -0.6,-0.95 0,-0.05 -0.05,-0.15 -0.6,-0.6 -1.55,-0.8 -0.35,-0.1 -0.6,0.05 -0.7,0.55 -0.4,1.65 0.15,0.75 0.35,1.5 0.25,0.7 0.05,1.5 -0.05,0.2 -0.3,0.3 v 0.05 q -0.45,0.15 -0.9,0 h -0.1 q -0.1,-0.15 -0.2,-0.3 h -0.05 q -0.05,-1.05 -0.05,-2.2 0.05,-0.75 -0.25,-1.2 -0.55,-1 -1.8,-1.25 -0.4,-0.05 -0.7,0.1 -1.65,0.6 -2,2.6 -0.2,1.95 -0.5,4 -0.1,1.15 -0.7,1.8 -0.25,0.05 -0.65,0 -0.75,-0.65 -0.5,-2.05 0.3,-1.25 0.5,-2.6 0.1,-0.85 0.25,-1.55 0.1,-0.65 -0.05,-1.2 -0.5,-0.95 -1.6,-1.25 -0.15,0.25 -0.15,0.7 0.1,1.35 -0.6,1.8 -0.2,0 -0.4,0 h -0.05 q -0.2,-0.05 -0.4,-0.25 v -0.05 q -0.05,-0.05 -0.05,-0.15 h -0.1 q 0,-1.2 0.2,-2.25 0.1,-0.8 -0.4,-1 -0.6,0.05 -0.9,0.3 -0.1,0.15 -0.2,0.2 l -0.1,0.05 q -0.15,0 -0.3,0 h -0.1 q -0.4,-0.35 -0.75,-0.8 -0.45,0.3 -0.85,0.7 -0.2,0.2 -0.4,0.35 -1.3,1.05 -2.8,1.95 -0.35,0.2 -0.65,0.5 -0.85,1.05 -1.25,2.5 -0.35,1.2 -1.6,1.35 -0.3,0.1 -0.45,0 -0.6,-0.15 -0.8,-0.75 -0.1,-1.6 0.8,-2.2 0.2,-0.2 0.4,-0.45 1.35,-1.65 2.95,-3.1 0.75,-0.6 1.65,-1.15 0.7,-0.4 1.2,-0.85 0.25,-0.2 0.3,-0.5 -0.15,-0.35 -0.6,-0.5 -0.05,-0.4 0,-0.65 -0.2,-0.1 -0.4,-0.15 h -0.05 q -0.15,-0.15 -0.15,-0.35 h -0.1 q 0.1,-0.65 -0.15,-1.05 v -0.05 q -0.45,-0.5 -1.35,-0.2 -0.65,0.25 -1.05,0.65 -0.7,0.65 -1.95,0.5 -1.25,-0.15 -1.1,-1.45 0,-0.4 0.15,-0.65 0.65,-0.9 2.15,-0.9 1.15,-0.05 2.1,-0.35 0.6,-0.25 0.6,-0.9 -0.5,-0.7 -1.55,-0.85 -0.05,-0.05 -0.25,-0.05 -1.45,-0.35 -3.15,-0.1 -0.45,0.1 -1.05,0.05 -0.4,-0.05 -0.6,-0.3 -0.1,-0.2 -0.1,-0.55 0.05,-0.45 0.35,-0.7 0.05,0 0.05,-0.05 0.7,-0.3 1.45,0.05 0.2,0.1 0.35,0.1 1.75,0.05 3.2,-0.3 0.4,-0.05 0.75,-0.2 0.6,-0.1 0.8,-0.5 0.15,-1.05 -0.25,-1.7 0.4,-0.5 0.45,-1.35 0,-0.55 -0.25,-0.9 -0.5,-0.8 -0.5,-2 0,-0.05 0.05,-0.1 0.65,-0.4 1.55,-0.5 0.45,0 0.7,-0.1 0.15,-0.1 0.25,-0.25 0.05,-0.35 0.05,-0.8 -0.55,-0.9 -1.45,-1.65 -0.8,-0.65 -1.8,-1.25 -0.8,-0.45 -1.6,-0.95 -0.5,-0.3 -0.8,-0.85 -0.25,-0.45 -0.05,-0.9 0.6,-1.05 2,-0.75 0.4,0.1 0.8,0.25 2,1.1 3.25,2.85 0.3,0.35 0.7,0.55 0.25,0.1 0.45,0.2 0.75,0.45 1.05,1.25 0.15,0.3 0.3,0.4 0.55,0.15 0.75,-0.05 h 0.05 q 0.1,-0.6 0.1,-1.25 v -0.05 q 0.35,-0.35 0.95,-0.45 0.15,0 0.2,-0.05 0.05,-0.2 0.05,-0.4 -0.95,-1.95 -1.85,-3.85 -0.25,-0.4 -0.15,-1 0.2,-0.3 0.55,-0.5 0.7,0.05 1,0.55 0.1,0.2 0.2,0.4 0.6,1.2 0.95,2.5 0.1,0.3 0.15,0.5 0.15,0.15 0.35,0.2 0.25,0 0.35,-0.15 h 0.1 q 0.05,-0.65 -0.2,-1.2 -0.5,-1.15 -0.95,-2.15 -0.5,-1.35 -1,-2.65 0,-0.1 0,-0.3 0.1,-0.35 0.45,-0.45 h 0.05 q 0.5,0.3 0.7,1 0.5,2.5 1.8,4.3 0.4,0.5 0.8,1 0.3,0.35 0.65,0.7 0.1,0.1 0.3,0.15 0.3,-0.15 0.5,-0.4 v -0.05 q 1.4,0 1.2,-1.5 -0.15,-0.65 -0.25,-1.4 -0.1,-1.75 0,-3.5 0,-0.2 0.05,-0.3 0.1,-0.1 0.25,-0.25 0.55,-0.15 0.85,0.3 h 0.05 q 0.05,1.35 0,2.9 -0.05,1.6 0.9,2.25 0.9,-0.15 1.45,-0.55 0.9,-0.75 2.6,-0.8 0.2,0.1 0.35,0.3 0.2,0.8 -0.15,1.4 -0.3,0.45 -0.6,0.95 0,0.05 -0.05,0.15 0.75,1.3 2,2.2 0.45,-0.05 0.8,-0.25 0.1,0 0.25,0 0.6,0.3 0.75,0.95 0.1,0.15 0.2,0.2 0.7,-0.35 1.15,-0.95 0.5,-0.6 1.1,-0.95 m 3.15,4.25 v -0.05 q 0.1,-0.2 0.35,-0.3 h 0.05 q 0.3,0 0.35,0.3 0,0.05 0.05,0.05 -0.1,0.35 -0.4,0.4 H 169 q -0.35,-0.05 -0.35,-0.4 m -0.6,0 v 0.05 q -0.05,0.2 -0.15,0.25 v 0.05 q -0.45,0.1 -0.7,-0.1 -0.1,-0.2 -0.1,-0.45 0.1,-0.1 0.2,-0.25 0.2,-0.1 0.35,0 h 0.05 q 0.35,0.1 0.35,0.45 m 2.05,4.7 q 0.55,-0.1 0.95,-0.25 0.55,-0.1 0.9,0.15 0.05,0.2 0.05,0.5 v 0.05 q -0.1,0.2 -0.25,0.3 -1.4,0.3 -3.1,0.2 -0.05,0 -0.05,-0.1 h -0.05 q -0.2,-0.1 -0.2,-0.4 v -0.05 q 0.5,-0.25 1.1,-0.3 0.35,0 0.65,-0.1 m 0.1,11.85 q -0.05,0.3 -0.35,0.35 v 0.05 q -0.2,0 -0.4,0 h -0.05 q -0.35,-0.15 -0.5,-0.55 h -0.05 q 0,-0.2 0,-0.35 0.1,-0.15 0.25,-0.3 h 0.1 q 0.9,-0.1 1,0.8 m -4.95,6.05 v -0.05 q 0.4,-0.3 0.9,0 0.6,0.35 0.95,1.1 0,0.15 0,0.4 -0.2,0.4 -0.55,0.65 -0.1,0 -0.3,0 h -0.05 q -0.9,-0.6 -0.95,-2.1 m -7,-31.95 q -0.25,0.8 -1.2,0.7 -0.2,-0.2 -0.2,-0.55 0,-0.2 0.1,-0.45 v -0.05 q 0.15,-0.15 0.35,-0.25 h 0.1 q 0.1,0 0.35,0 0.4,0.1 0.5,0.55 v 0.05 m -21.6,9.5 v -0.05 q 0.15,0 0.35,0 h 0.05 q 0.8,0.3 0.85,1.4 -0.1,0.2 -0.3,0.35 -0.6,0.25 -1.05,-0.1 -0.4,-0.35 -0.35,-1.1 0.1,-0.2 0.2,-0.3 v -0.05 q 0.1,-0.15 0.25,-0.15 m 2.15,0 q -0.3,0 -0.3,-0.35 0.15,-0.35 0.45,-0.5 H 139 q 0.2,0.05 0.3,0.3 v 0.05 q 0,0.4 -0.5,0.5 m 1.25,15.2 q 0.2,-0.05 0.3,0 0.35,0.4 0.05,0.9 -0.4,0.65 -1.2,0.9 -0.3,-0.15 -0.4,-0.5 0,-0.1 0,-0.2 0.4,-0.8 1.25,-1.1 m -5.65,4.35 q 0.3,0.1 0.35,0.5 v 0.1 q -0.1,0.2 -0.4,0.3 h -0.05 q -0.3,-0.05 -0.5,-0.25 0,-0.25 0,-0.5 0.1,-0.25 0.55,-0.2 l 0.05,0.05 m 18.6,3.6 q 0,-0.2 0,-0.3 0.15,-0.5 0.65,-0.7 0.15,0 0.2,0 0.1,0.05 0.1,0.2 0.05,0.6 -0.25,0.9 -0.25,0.2 -0.55,0.05 v -0.05 q -0.05,-0.05 -0.15,-0.05 v -0.05 m -4.3,-16.95 q 0.15,-1.2 -0.15,-2.05 -0.3,-1.25 -1.35,-1.75 -0.45,0 -0.8,0.05 -2.25,0.8 -2.9,3.25 0,0.85 0.2,1.4 0.35,1 1.4,1.25 1.45,0.35 2.5,-0.25 1.05,-0.6 1.1,-1.9 m 5.35,0.45 q -0.25,0 -0.5,-0.1 -0.6,-0.1 -1.35,0.1 -0.4,0.1 -0.8,0.3 -0.65,0.2 -1.05,0.6 -0.4,0.5 -0.85,0.95 -0.45,0.25 -0.85,0.45 -0.2,0 -0.35,0 v 0.1 q -0.3,0.1 -0.75,0.2 -0.05,0.2 -0.35,0.1 -0.1,0.2 -0.4,0.2 -0.65,0.4 -1.05,1.1 -0.05,0.05 -0.1,0.1 h -0.05 q -0.1,0.1 0,0.25 h -0.1 q -0.05,0.05 -0.1,0.2 -0.05,0.3 -0.15,0.45 v 0.05 q 0,0.6 -0.2,1 0,0.15 0,0.4 0,0.1 0.05,0.3 0,0.5 0.25,0.9 0.15,0.75 0.95,1 0.1,0.05 0.15,0.2 0.4,0 0.75,0 1.65,0.25 3.45,0.15 0.55,-0.05 0.85,0.2 0.8,0.2 1.35,0.65 0.05,0.15 0.1,0.15 0.55,0.55 1.25,1 l 0.05,0.05 q 0.3,0 0.5,0.15 0.2,-0.05 0.35,0 0.55,0.3 1.4,0.2 h 0.05 q 0.15,-0.05 0.2,-0.2 0.05,0 0.1,0 0.45,-0.15 0.75,-0.65 0.3,-0.45 0.6,-0.9 0.05,-0.25 0.15,-0.35 v -0.05 q 0.1,-0.15 0.1,-0.3 0.1,-0.1 0.15,-0.25 V 1771 q 0.05,-0.85 -0.05,-1.7 -0.1,-0.15 -0.2,-0.45 -0.15,-0.1 -0.15,-0.35 -0.2,-0.1 -0.2,-0.35 h -0.05 q -0.05,-0.1 -0.1,-0.1 0,-0.2 -0.2,-0.2 v -0.05 q -0.05,-0.05 -0.05,-0.15 h -0.05 q -0.1,-0.2 -0.3,-0.3 -0.3,-0.55 -0.65,-1.05 0,-0.1 0,-0.25 h -0.05 q 0,-0.1 -0.1,-0.15 0,-0.15 0,-0.3 -0.1,-0.25 -0.15,-0.4 v -0.05 q 0,-0.2 0,-0.35 h -0.1 q -0.05,-0.2 -0.15,-0.2 v -0.05 q 0,-0.15 -0.05,-0.35 l -0.05,-0.05 q -0.1,-0.05 -0.1,-0.3 -0.05,0 -0.05,-0.05 -0.15,-0.1 -0.15,-0.3 -0.65,-0.75 -1.6,-1.15 m 2.8,-7.6 q -0.1,0.35 -0.35,0.5 v 0.05 q -0.05,0.05 -0.05,0.25 -0.15,0.1 -0.15,0.4 v 0.05 q -0.25,0.1 -0.25,0.55 -0.1,0.1 -0.2,0.15 v 0.05 q 0,0.6 -0.15,0.95 -0.05,1.2 0.05,2.2 0.1,0.45 0.3,0.75 v 0.05 q 0.1,0.3 0.25,0.5 0.05,0 0.05,0.05 0.45,0.55 1.25,0.7 0.25,0.1 0.55,0.05 0.4,-0.05 0.8,-0.05 v -0.05 q 0.1,-0.1 0.25,-0.2 0.1,0 0.15,0 0.6,-0.4 1.05,-0.85 0.1,-0.35 0.35,-0.65 v -0.05 q 0.05,-0.15 0.05,-0.3 0.1,-0.1 0.2,-0.25 0,-0.3 0.05,-0.45 0.1,-0.6 0,-1.3 0,-0.75 -0.05,-1.6 -0.15,-0.25 -0.2,-0.4 v -0.05 q 0,-0.2 -0.05,-0.3 0,-0.15 -0.05,-0.15 -0.05,-0.35 -0.3,-0.55 -0.1,-0.3 -0.25,-0.6 h -0.05 q -0.1,-0.05 -0.1,-0.25 -0.05,0 -0.05,-0.05 -0.2,-0.1 -0.35,-0.25 -0.3,0 -0.4,-0.25 -0.55,-0.05 -0.95,0.05 v 0.05 q -0.05,0.15 -0.3,0.15 -0.55,0.3 -0.9,0.95 -0.1,0.05 -0.2,0.15 m -6.25,-0.85 -0.1,0.05 q 0,0.2 -0.15,0.25 0,0.2 -0.2,0.25 0,0.05 -0.05,0.05 -0.1,0.35 -0.35,0.7 -0.05,0.3 -0.2,0.35 0,0.1 -0.05,0.15 -0.15,0.25 -0.15,0.6 v 0.05 q -0.1,0.2 -0.2,0.35 v 0.05 q -0.1,0.95 0.2,1.4 v 0.05 q -0.05,0.2 0.05,0.3 0.5,0.9 1.35,1.4 0.3,0 0.4,0.2 0.2,0.05 0.4,0.05 0.65,0.05 1,-0.2 0.65,-0.15 1,-0.65 0.35,-0.45 0.7,-0.9 0.05,-0.15 0.05,-0.25 0.15,-0.2 0.35,-0.45 v -0.05 q 0,-0.3 0.15,-0.4 0,-0.35 0.2,-0.55 0.05,-0.25 0.05,-0.45 0.05,-0.15 0.1,-0.35 0.2,-1.25 0.1,-2.6 v -0.1 q -0.25,-0.1 -0.2,-0.45 H 155 q -0.1,-0.05 -0.2,-0.3 -0.4,-0.4 -0.95,-0.65 h -0.05 q -0.25,0 -0.45,0 -0.25,0.15 -0.5,0.25 h -0.05 q -1.25,0.8 -2.2,1.85 m -3.8,2.4 q 0,0.05 -0.05,0.05 -0.05,0.35 0.15,0.4 0.45,-0.1 0.45,-0.65 h -0.1 q -0.35,-0.05 -0.45,0.2 m 16.15,11.1 q 0.3,-0.45 0.3,-1.2 0.05,-2.25 -1,-3.5 -0.5,-0.65 -1.45,-0.25 -2.1,0.9 -2.65,3.3 -0.05,0.7 0.1,1.15 0.7,1.25 2.2,1.65 0.3,0 0.65,0 1.35,-0.15 1.85,-1.15 m -0.35,-6.75 v 0.05 q 0,0.35 0.05,0.6 0.25,-0.1 0.3,-0.35 v -0.05 q 0,-0.5 -0.35,-0.25 z"
         id="path67" />
      <path
         fill="#ff00fe"
         stroke="none"
         d="m 153,1778.55 q 0,0.1 0,0.3 v 0.05 q 0.1,0 0.15,0.05 v 0.05 q 0.3,0.15 0.55,-0.05 0.3,-0.3 0.25,-0.9 0,-0.15 -0.1,-0.2 -0.05,0 -0.2,0 -0.5,0.2 -0.65,0.7 m -18.25,-2.8 q -0.05,-0.4 -0.35,-0.5 l -0.05,-0.05 q -0.45,-0.05 -0.55,0.2 0,0.25 0,0.5 0.2,0.2 0.5,0.25 h 0.05 q 0.3,-0.1 0.4,-0.3 v -0.1 m 5.6,-4.85 q -0.1,-0.05 -0.3,0 -0.85,0.3 -1.25,1.1 0,0.1 0,0.2 0.1,0.35 0.4,0.5 0.8,-0.25 1.2,-0.9 0.3,-0.5 -0.05,-0.9 m -1.85,-15.55 q 0,0.35 0.3,0.35 0.5,-0.1 0.5,-0.5 v -0.05 q -0.1,-0.25 -0.3,-0.3 h -0.05 q -0.3,0.15 -0.45,0.5 m -1.85,0.3 v 0.05 q -0.15,0 -0.25,0.15 v 0.05 q -0.1,0.1 -0.2,0.3 -0.05,0.75 0.35,1.1 0.45,0.35 1.05,0.1 0.2,-0.15 0.3,-0.35 -0.05,-1.1 -0.85,-1.4 H 137 q -0.2,0 -0.35,0 m 20.4,-8.75 q 0.95,0.1 1.2,-0.7 v -0.05 q -0.1,-0.45 -0.5,-0.55 -0.25,0 -0.35,0 h -0.1 q -0.2,0.1 -0.35,0.25 v 0.05 q -0.1,0.25 -0.1,0.45 0,0.35 0.2,0.55 m 8.2,31.2 v 0.05 q 0.05,1.5 0.95,2.1 h 0.05 q 0.2,0 0.3,0 0.35,-0.25 0.55,-0.65 0,-0.25 0,-0.4 -0.35,-0.75 -0.95,-1.1 -0.5,-0.3 -0.9,0 m 4.6,-5.65 q 0.3,-0.05 0.35,-0.35 -0.1,-0.9 -1,-0.8 h -0.1 q -0.15,0.15 -0.25,0.3 0,0.15 0,0.35 h 0.05 q 0.15,0.4 0.5,0.55 h 0.05 q 0.2,0 0.4,0 v -0.05 m 1.2,-12.45 q -0.4,0.15 -0.95,0.25 -0.3,0.1 -0.65,0.1 -0.6,0.05 -1.1,0.3 v 0.05 q 0,0.3 0.2,0.4 h 0.05 q 0,0.1 0.05,0.1 1.7,0.1 3.1,-0.2 0.15,-0.1 0.25,-0.3 v -0.05 q 0,-0.3 -0.05,-0.5 -0.35,-0.25 -0.9,-0.15 m -3,-4.4 v -0.05 q 0,-0.35 -0.35,-0.45 h -0.05 q -0.15,-0.1 -0.35,0 -0.1,0.15 -0.2,0.25 0,0.25 0.1,0.45 0.25,0.2 0.7,0.1 v -0.05 q 0.1,-0.05 0.15,-0.25 m 0.6,-0.1 v 0.05 q 0,0.35 0.35,0.4 h 0.05 q 0.3,-0.05 0.4,-0.4 -0.05,0 -0.05,-0.05 -0.05,-0.3 -0.35,-0.3 H 169 q -0.25,0.1 -0.35,0.3 m -3,-4.2 q 0,-0.05 -0.15,0 -0.6,0.35 -1.1,0.95 -0.45,0.6 -1.15,0.95 -0.1,-0.05 -0.2,-0.2 -0.15,-0.65 -0.75,-0.95 -0.15,0 -0.25,0 -0.35,0.2 -0.8,0.25 -1.25,-0.9 -2,-2.2 0.05,-0.1 0.05,-0.15 0.3,-0.5 0.6,-0.95 0.35,-0.6 0.15,-1.4 -0.15,-0.2 -0.35,-0.3 -1.7,0.05 -2.6,0.8 -0.55,0.4 -1.45,0.55 -0.95,-0.65 -0.9,-2.25 0.05,-1.55 0,-2.9 h -0.05 q -0.3,-0.45 -0.85,-0.3 -0.15,0.15 -0.25,0.25 -0.05,0.1 -0.05,0.3 -0.1,1.75 0,3.5 0.1,0.75 0.25,1.4 0.2,1.5 -1.2,1.5 v 0.05 q -0.2,0.25 -0.5,0.4 -0.2,-0.05 -0.3,-0.15 -0.35,-0.35 -0.65,-0.7 -0.4,-0.5 -0.8,-1 -1.3,-1.8 -1.8,-4.3 -0.2,-0.7 -0.7,-1 h -0.05 q -0.35,0.1 -0.45,0.45 0,0.2 0,0.3 0.5,1.3 1,2.65 0.45,1 0.95,2.15 0.25,0.55 0.2,1.2 h -0.1 q -0.1,0.15 -0.35,0.15 -0.2,-0.05 -0.35,-0.2 -0.05,-0.2 -0.15,-0.5 -0.35,-1.3 -0.95,-2.5 -0.1,-0.2 -0.2,-0.4 -0.3,-0.5 -1,-0.55 -0.35,0.2 -0.55,0.5 -0.1,0.6 0.15,1 0.9,1.9 1.85,3.85 0,0.2 -0.05,0.4 -0.05,0.05 -0.2,0.05 -0.6,0.1 -0.95,0.45 v 0.05 q 0,0.65 -0.1,1.25 h -0.05 q -0.2,0.2 -0.75,0.05 -0.15,-0.1 -0.3,-0.4 -0.3,-0.8 -1.05,-1.25 -0.2,-0.1 -0.45,-0.2 -0.4,-0.2 -0.7,-0.55 -1.25,-1.75 -3.25,-2.85 -0.4,-0.15 -0.8,-0.25 -1.4,-0.3 -2,0.75 -0.2,0.45 0.05,0.9 0.3,0.55 0.8,0.85 0.8,0.5 1.6,0.95 1,0.6 1.8,1.25 0.9,0.75 1.45,1.65 0,0.45 -0.05,0.8 -0.1,0.15 -0.25,0.25 -0.25,0.1 -0.7,0.1 -0.9,0.1 -1.55,0.5 -0.05,0.05 -0.05,0.1 0,1.2 0.5,2 0.25,0.35 0.25,0.9 -0.05,0.85 -0.45,1.35 0.4,0.65 0.25,1.7 -0.2,0.4 -0.8,0.5 -0.35,0.15 -0.75,0.2 -1.45,0.35 -3.2,0.3 -0.15,0 -0.35,-0.1 -0.75,-0.35 -1.45,-0.05 0,0.05 -0.05,0.05 -0.3,0.25 -0.35,0.7 0,0.35 0.1,0.55 0.2,0.25 0.6,0.3 0.6,0.05 1.05,-0.05 1.7,-0.25 3.15,0.1 0.2,0 0.25,0.05 1.05,0.15 1.55,0.85 0,0.65 -0.6,0.9 -0.95,0.3 -2.1,0.35 -1.5,0 -2.15,0.9 -0.15,0.25 -0.15,0.65 -0.15,1.3 1.1,1.45 1.25,0.15 1.95,-0.5 0.4,-0.4 1.05,-0.65 0.9,-0.3 1.35,0.2 v 0.05 q 0.25,0.4 0.15,1.05 h 0.1 q 0,0.2 0.15,0.35 h 0.05 q 0.2,0.05 0.4,0.15 -0.05,0.25 0,0.65 0.45,0.15 0.6,0.5 -0.05,0.3 -0.3,0.5 -0.5,0.45 -1.2,0.85 -0.9,0.55 -1.65,1.15 -1.6,1.45 -2.95,3.1 -0.2,0.25 -0.4,0.45 -0.9,0.6 -0.8,2.2 0.2,0.6 0.8,0.75 0.15,0.1 0.45,0 1.25,-0.15 1.6,-1.35 0.4,-1.45 1.25,-2.5 0.3,-0.3 0.65,-0.5 1.5,-0.9 2.8,-1.95 0.2,-0.15 0.4,-0.35 0.4,-0.4 0.85,-0.7 0.35,0.45 0.75,0.8 h 0.1 q 0.15,0 0.3,0 l 0.1,-0.05 q 0.1,-0.05 0.2,-0.2 0.3,-0.25 0.9,-0.3 0.5,0.2 0.4,1 -0.2,1.05 -0.2,2.25 h 0.1 q 0,0.1 0.05,0.15 v 0.05 q 0.2,0.2 0.4,0.25 h 0.05 q 0.2,0 0.4,0 0.7,-0.45 0.6,-1.8 0,-0.45 0.15,-0.7 1.1,0.3 1.6,1.25 0.15,0.55 0.05,1.2 -0.15,0.7 -0.25,1.55 -0.2,1.35 -0.5,2.6 -0.25,1.4 0.5,2.05 0.4,0.05 0.65,0 0.6,-0.65 0.7,-1.8 0.3,-2.05 0.5,-4 0.35,-2 2,-2.6 0.3,-0.15 0.7,-0.1 1.25,0.25 1.8,1.25 0.3,0.45 0.25,1.2 0,1.15 0.05,2.2 h 0.05 q 0.1,0.15 0.2,0.3 h 0.1 q 0.45,0.15 0.9,0 v -0.05 q 0.25,-0.1 0.3,-0.3 0.2,-0.8 -0.05,-1.5 -0.2,-0.75 -0.35,-1.5 -0.3,-1.1 0.4,-1.65 0.25,-0.15 0.6,-0.05 0.95,0.2 1.55,0.8 0.05,0.1 0.05,0.15 0.3,0.45 0.6,0.95 0.9,1.7 1.4,3.9 0.2,1.3 1.2,1.9 0.8,0 1,-0.65 0.3,-0.95 -0.1,-1.65 -0.8,-1.25 -1.45,-2.35 -0.65,-0.95 -0.8,-2.3 -0.1,-0.8 0,-1.4 0,-0.05 0.1,-0.05 0.15,-0.15 0.45,-0.1 0.1,-0.05 0.25,-0.05 v -0.1 q 0.25,-0.45 0.15,-1.35 0.1,-0.15 0.3,-0.25 0.45,0.05 0.65,0.35 0.1,0.3 0.25,0.6 0.55,1.1 1.4,1.8 0.25,0 0.4,-0.1 V 1775 q 0.25,-0.05 0.3,-0.3 -0.15,-1 -0.65,-1.7 -0.05,-0.15 -0.15,-0.25 -0.35,-0.4 -0.3,-1 0.2,-0.05 0.3,0.05 0.5,0.6 1.35,0.85 h 0.05 q 0.3,-0.15 0.4,-0.45 -0.4,-0.8 -1.1,-1.15 0,-0.05 -0.05,-0.05 -0.05,-0.1 -0.15,-0.35 0.15,-0.15 0.3,-0.3 0.3,0.05 0.55,0.2 0.65,0.3 1.55,0.35 0.3,-0.15 0.4,-0.4 v -0.1 q 0,-0.2 -0.05,-0.45 -0.25,-0.25 -0.45,-0.45 -0.2,-0.25 -0.55,-0.35 -0.7,-0.25 -0.9,-0.9 v -0.05 q 0.4,-0.75 0.85,-1.4 0.05,-0.25 -0.05,-0.5 -0.35,-0.45 -0.4,-1.25 0.1,-0.25 0.3,-0.45 0.15,-0.15 0.4,-0.35 0.8,-0.45 1.15,-1.35 -0.1,-0.45 -0.4,-0.75 -0.45,-0.45 -0.75,-1.1 -0.3,-0.7 0,-1.45 h -0.05 q 0,-0.3 -0.2,-0.4 -0.75,-0.15 -1.05,-0.8 0,-0.15 0.05,-0.25 0.1,-0.1 0.15,-0.15 0.45,-0.4 0.7,-1.1 -0.25,-0.6 -1,-0.7 -1.3,-0.1 -2,-0.7 -0.35,-0.3 -0.2,-0.75 0.1,-0.6 0.45,-1.1 0.55,-0.95 1,-2 v -0.05 q 0,-0.25 -0.05,-0.3 m -3.05,9.4 v -0.05 q 0.35,-0.25 0.35,0.25 v 0.05 q -0.05,0.25 -0.3,0.35 -0.05,-0.25 -0.05,-0.6 m 0.65,5.5 q 0,0.75 -0.3,1.2 -0.5,1 -1.85,1.15 -0.35,0 -0.65,0 -1.5,-0.4 -2.2,-1.65 -0.15,-0.45 -0.1,-1.15 0.55,-2.4 2.65,-3.3 0.95,-0.4 1.45,0.25 1.05,1.25 1,3.5 m -16.5,-9.85 q 0.05,0 0.05,-0.05 0.1,-0.25 0.45,-0.2 h 0.1 q 0,0.55 -0.45,0.65 -0.2,-0.05 -0.15,-0.4 m 3.75,-2.4 0.1,-0.05 q 0.95,-1.05 2.2,-1.85 h 0.05 q 0.25,-0.1 0.5,-0.25 0.2,0 0.45,0 h 0.05 q 0.55,0.25 0.95,0.65 0.1,0.25 0.2,0.3 h 0.05 q -0.05,0.35 0.2,0.45 v 0.1 q 0.1,1.35 -0.1,2.6 -0.05,0.2 -0.1,0.35 0,0.2 -0.05,0.45 -0.2,0.2 -0.2,0.55 -0.15,0.1 -0.15,0.4 v 0.05 q -0.2,0.25 -0.35,0.45 0,0.1 -0.05,0.25 -0.35,0.45 -0.7,0.9 -0.35,0.5 -1,0.65 -0.35,0.25 -1,0.2 -0.2,0 -0.4,-0.05 -0.1,-0.2 -0.4,-0.2 -0.85,-0.5 -1.35,-1.4 -0.1,-0.1 -0.05,-0.3 v -0.05 q -0.3,-0.45 -0.2,-1.4 v -0.05 q 0.1,-0.15 0.2,-0.35 v -0.05 q 0,-0.35 0.15,-0.6 0.05,-0.05 0.05,-0.15 0.15,-0.05 0.2,-0.35 0.25,-0.35 0.35,-0.7 0.05,0 0.05,-0.05 0.2,-0.05 0.2,-0.25 0.15,-0.05 0.15,-0.25 m 6,1.3 q 0.25,-0.15 0.35,-0.5 0.1,-0.1 0.2,-0.15 0.35,-0.65 0.9,-0.95 0.25,0 0.3,-0.15 v -0.05 q 0.4,-0.1 0.95,-0.05 0.1,0.25 0.4,0.25 0.15,0.15 0.35,0.25 0,0.05 0.05,0.05 0,0.2 0.1,0.25 h 0.05 q 0.15,0.3 0.25,0.6 0.25,0.2 0.3,0.55 0.05,0 0.05,0.15 0.05,0.1 0.05,0.3 v 0.05 q 0.05,0.15 0.2,0.4 0.05,0.85 0.05,1.6 0.1,0.7 0,1.3 -0.05,0.15 -0.05,0.45 -0.1,0.15 -0.2,0.25 0,0.15 -0.05,0.3 v 0.05 q -0.25,0.3 -0.35,0.65 -0.45,0.45 -1.05,0.85 -0.05,0 -0.15,0 -0.15,0.1 -0.25,0.2 v 0.05 q -0.4,0 -0.8,0.05 -0.3,0.05 -0.55,-0.05 -0.8,-0.15 -1.25,-0.7 0,-0.05 -0.05,-0.05 -0.15,-0.2 -0.25,-0.5 v -0.05 q -0.2,-0.3 -0.3,-0.75 -0.1,-1 -0.05,-2.2 0.15,-0.35 0.15,-0.95 v -0.05 q 0.1,-0.05 0.2,-0.15 0,-0.45 0.25,-0.55 v -0.05 q 0,-0.3 0.15,-0.4 0,-0.2 0.05,-0.25 v -0.05 m -2.95,7 q 0.25,0.1 0.5,0.1 0.95,0.4 1.6,1.15 0,0.2 0.15,0.3 0,0.05 0.05,0.05 0,0.25 0.1,0.3 l 0.05,0.05 q 0.05,0.2 0.05,0.35 v 0.05 q 0.1,0 0.15,0.2 h 0.1 q 0,0.15 0,0.35 v 0.05 q 0.05,0.15 0.15,0.4 0,0.15 0,0.3 0.1,0.05 0.1,0.15 h 0.05 q 0,0.15 0,0.25 0.35,0.5 0.65,1.05 0.2,0.1 0.3,0.3 h 0.05 q 0,0.1 0.05,0.15 v 0.05 q 0.2,0 0.2,0.2 0.05,0 0.1,0.1 H 158 q 0,0.25 0.2,0.35 0,0.25 0.15,0.35 0.1,0.3 0.2,0.45 0.1,0.85 0.05,1.7 v 0.05 q -0.05,0.15 -0.15,0.25 0,0.15 -0.1,0.3 v 0.05 q -0.1,0.1 -0.15,0.35 -0.3,0.45 -0.6,0.9 -0.3,0.5 -0.75,0.65 -0.05,0 -0.1,0 -0.05,0.15 -0.2,0.2 h -0.05 q -0.85,0.1 -1.4,-0.2 -0.15,-0.05 -0.35,0 -0.2,-0.15 -0.5,-0.15 l -0.05,-0.05 q -0.7,-0.45 -1.25,-1 -0.05,0 -0.1,-0.15 -0.55,-0.45 -1.35,-0.65 -0.3,-0.25 -0.85,-0.2 -1.8,0.1 -3.45,-0.15 -0.35,0 -0.75,0 -0.05,-0.15 -0.15,-0.2 -0.8,-0.25 -0.95,-1 -0.25,-0.4 -0.25,-0.9 -0.05,-0.2 -0.05,-0.3 0,-0.25 0,-0.4 0.2,-0.4 0.2,-1 v -0.05 q 0.1,-0.15 0.15,-0.45 0.05,-0.15 0.1,-0.2 h 0.1 q -0.1,-0.15 0,-0.25 h 0.05 q 0.05,-0.05 0.1,-0.1 0.4,-0.7 1.05,-1.1 0.3,0 0.4,-0.2 0.3,0.1 0.35,-0.1 0.45,-0.1 0.75,-0.2 v -0.1 q 0.15,0 0.35,0 0.4,-0.2 0.85,-0.45 0.45,-0.45 0.85,-0.95 0.4,-0.4 1.05,-0.6 0.4,-0.2 0.8,-0.3 0.75,-0.2 1.35,-0.1 m -5,-2.4 q 0.3,0.85 0.15,2.05 -0.05,1.3 -1.1,1.9 -1.05,0.6 -2.5,0.25 -1.05,-0.25 -1.4,-1.25 -0.2,-0.55 -0.2,-1.4 0.65,-2.45 2.9,-3.25 0.35,-0.05 0.8,-0.05 1.05,0.5 1.35,1.75 m 18.7,-9.9 v -0.05 q 0,-0.15 -0.05,-0.35 h -0.05 q -0.35,-0.25 -0.8,-0.05 v 0.05 q -0.2,0.1 -0.3,0.35 v 0.05 q 0,0.25 0,0.4 v 0.1 q 0.1,0.15 0.2,0.2 h 0.1 q 0.7,-0.05 0.9,-0.7 z"
         id="path69" />
    </g>
  </defs>
  <g
     id="g138"
     transform="translate(-131.45,-1742.6)">
    <use
       xlink:href="#Layer2_13_FILL"
       id="use136" />
  </g>
</svg>
