<?xml version="1.0" encoding="UTF-8" standalone="no"?>
<svg
   version="1.1"
   preserveAspectRatio="none"
   x="0px"
   y="0px"
   width="41.5"
   height="41.5"
   viewBox="0 0 41.5 41.5"
   id="svg148"
   sodipodi:docname="pictos smart.svg"
   xmlns:inkscape="http://www.inkscape.org/namespaces/inkscape"
   xmlns:sodipodi="http://sodipodi.sourceforge.net/DTD/sodipodi-0.dtd"
   xmlns:xlink="http://www.w3.org/1999/xlink"
   xmlns="http://www.w3.org/2000/svg"
   xmlns:svg="http://www.w3.org/2000/svg">
  <sodipodi:namedview
     id="namedview150"
     pagecolor="#ffffff"
     bordercolor="#000000"
     borderopacity="0.25"
     inkscape:showpageshadow="2"
     inkscape:pageopacity="0.0"
     inkscape:pagecheckerboard="0"
     inkscape:deskcolor="#d1d1d1"
     showgrid="false" />
  <defs
     id="defs82">
    <g
       id="Layer2_15_FILL">
      <path
         fill="#ff00ff"
         stroke="none"
         d="m 154.8,1921.5 v 41.5 h 41.5 v -41.5 h -41.5 m 10.05,7.25 q -0.4,-1.95 -0.35,-3.15 0.25,-1.85 1.4,-2.7 0.85,-0.6 1.65,-0.4 1,0.3 1.2,1.7 0.05,0.2 0.05,2.2 -0.1,1.65 0.7,2.95 3.05,-1.35 7,-1.35 2.2,0 4.8,0.5 v -2.9 q 0.25,-0.75 0.65,-1.3 0.5,-0.55 1.35,-0.6 0.85,-0.1 1.35,0.4 0.45,0.45 0.5,1.1 0.1,0.7 -0.05,1.55 -0.2,0.85 -0.45,1.6 -0.3,0.8 -0.35,0.95 0.2,0.1 0.4,0.2 5.35,2.4 5.35,8.05 0,2.85 -1.6,5.2 -2.4,3.65 -7.8,4.35 -2.35,0.25 -3.9,2.2 -0.4,0.6 -0.95,1.65 -1,1.85 -0.55,2.9 0.45,1 1.3,1.45 0.8,0.5 1.9,0.25 0.95,-0.2 2.2,-0.85 1.15,-0.75 0.95,-1.8 -0.95,-2.75 0.6,-3.9 1.55,-1.25 2.6,-1.2 0.95,0 1.8,0.5 0.75,0.5 1.2,1.45 0.35,0.95 0.45,2 0.2,1.05 -0.9,3.75 -1,2.7 -4.6,4.6 -3.65,1.9 -8.8,1.2 -3.35,-0.2 -6.7,-2.05 -3.35,-1.85 -4.35,-5.7 -1.05,-3.9 -1.3,-8.25 -0.65,-9.15 4.2,-13.6 -0.5,-1.25 -0.95,-2.95 z"
         id="path77" />
      <path
         fill="#3d3f3e"
         stroke="none"
         d="m 164.5,1925.6 q -0.05,1.2 0.35,3.15 0.45,1.7 0.95,2.95 -4.85,4.45 -4.2,13.6 0.25,4.35 1.3,8.25 1,3.85 4.35,5.7 3.35,1.85 6.7,2.05 5.15,0.7 8.8,-1.2 3.6,-1.9 4.6,-4.6 1.1,-2.7 0.9,-3.75 -0.1,-1.05 -0.45,-2 -0.45,-0.95 -1.2,-1.45 -0.85,-0.5 -1.8,-0.5 -1.05,-0.05 -2.6,1.2 -1.55,1.15 -0.6,3.9 0.2,1.05 -0.95,1.8 -1.25,0.65 -2.2,0.85 -1.1,0.25 -1.9,-0.25 -0.85,-0.45 -1.3,-1.45 -0.45,-1.05 0.55,-2.9 0.55,-1.05 0.95,-1.65 1.55,-1.95 3.9,-2.2 5.4,-0.7 7.8,-4.35 1.6,-2.35 1.6,-5.2 0,-5.65 -5.35,-8.05 -0.2,-0.1 -0.4,-0.2 0.05,-0.15 0.35,-0.95 0.25,-0.75 0.45,-1.6 0.15,-0.85 0.05,-1.55 -0.05,-0.65 -0.5,-1.1 -0.5,-0.5 -1.35,-0.4 -0.85,0.05 -1.35,0.6 -0.4,0.55 -0.65,1.3 v 2.9 q -2.6,-0.5 -4.8,-0.5 -3.95,0 -7,1.35 -0.8,-1.3 -0.7,-2.95 0,-2 -0.05,-2.2 -0.2,-1.4 -1.2,-1.7 -0.8,-0.2 -1.65,0.4 -1.15,0.85 -1.4,2.7 z"
         id="path79" />
    </g>
  </defs>
  <g
     id="g146"
     transform="translate(-154.8,-1921.5)">
    <use
       xlink:href="#Layer2_15_FILL"
       id="use144" />
  </g>
</svg>
