<?xml version="1.0" encoding="UTF-8" standalone="no"?>
<svg
   version="1.1"
   preserveAspectRatio="none"
   x="0px"
   y="0px"
   width="36.5"
   height="36.5"
   viewBox="0 0 36.5 36.5"
   id="svg148"
   sodipodi:docname="pictos carres.svg"
   inkscape:export-filename="../../../front/public/icons/facebook.svg"
   inkscape:export-xdpi="96"
   inkscape:export-ydpi="96"
   xmlns:inkscape="http://www.inkscape.org/namespaces/inkscape"
   xmlns:sodipodi="http://sodipodi.sourceforge.net/DTD/sodipodi-0.dtd"
   xmlns:xlink="http://www.w3.org/1999/xlink"
   xmlns="http://www.w3.org/2000/svg"
   xmlns:svg="http://www.w3.org/2000/svg">
  <sodipodi:namedview
     id="namedview150"
     pagecolor="#ffffff"
     bordercolor="#000000"
     borderopacity="0.25"
     inkscape:showpageshadow="2"
     inkscape:pageopacity="0.0"
     inkscape:pagecheckerboard="0"
     inkscape:deskcolor="#d1d1d1"
     showgrid="false" />
  <defs
     id="defs82">
    <g
       id="Layer1_9_FILL">
      <path
         fill="#ff00ff"
         stroke="none"
         d="m 1088.9,461.45 v -36.5 h -36.5 v 36.5 h 36.5 m -22.7,-29.55 q 2.6,-1.15 5.95,-1.15 1.9,0 4.15,0.45 v -2.5 q 0.2,-0.7 0.55,-1.1 0.4,-0.5 1.15,-0.55 0.7,-0.1 1.15,0.4 0.35,0.3 0.45,0.9 0.05,0.6 -0.05,1.3 -0.15,0.75 -0.4,1.4 -0.25,0.7 -0.3,0.8 0.15,0.1 0.35,0.15 4.55,2.1 4.55,6.9 0,2.45 -1.35,4.45 -2.05,3.15 -6.65,3.75 -2,0.2 -3.35,1.9 -0.35,0.5 -0.8,1.35 -0.9,1.6 -0.5,2.5 0.4,0.85 1.1,1.25 0.75,0.4 1.6,0.25 0.85,-0.2 1.9,-0.8 1,-0.6 0.85,-1.5 -0.85,-2.35 0.5,-3.35 1.35,-1.05 2.2,-1 0.85,0 1.55,0.45 0.7,0.35 1,1.2 0.3,0.8 0.45,1.75 0.1,0.85 -0.75,3.2 -0.9,2.25 -4,3.9 -3.1,1.65 -7.55,1.05 -2.85,-0.2 -5.7,-1.75 -2.9,-1.6 -3.7,-4.9 -0.9,-3.35 -1.1,-7.05 -0.55,-7.85 3.55,-11.65 -0.4,-1.05 -0.8,-2.5 -0.35,-1.65 -0.3,-2.7 0.2,-1.6 1.2,-2.35 0.75,-0.5 1.4,-0.3 0.9,0.25 1.05,1.4 0.05,0.25 0.05,1.9 -0.1,1.45 0.6,2.55 z"
         id="path47" />
      <path
         fill="#3d3f3e"
         stroke="none"
         d="m 1072.15,430.75 q -3.35,0 -5.95,1.15 -0.7,-1.1 -0.6,-2.55 0,-1.65 -0.05,-1.9 -0.15,-1.15 -1.05,-1.4 -0.65,-0.2 -1.4,0.3 -1,0.75 -1.2,2.35 -0.05,1.05 0.3,2.7 0.4,1.45 0.8,2.5 -4.1,3.8 -3.55,11.65 0.2,3.7 1.1,7.05 0.8,3.3 3.7,4.9 2.85,1.55 5.7,1.75 4.45,0.6 7.55,-1.05 3.1,-1.65 4,-3.9 0.85,-2.35 0.75,-3.2 -0.15,-0.95 -0.45,-1.75 -0.3,-0.85 -1,-1.2 -0.7,-0.45 -1.55,-0.45 -0.85,-0.05 -2.2,1 -1.35,1 -0.5,3.35 0.15,0.9 -0.85,1.5 -1.05,0.6 -1.9,0.8 -0.85,0.15 -1.6,-0.25 -0.7,-0.4 -1.1,-1.25 -0.4,-0.9 0.5,-2.5 0.45,-0.85 0.8,-1.35 1.35,-1.7 3.35,-1.9 4.6,-0.6 6.65,-3.75 1.35,-2 1.35,-4.45 0,-4.8 -4.55,-6.9 -0.2,-0.05 -0.35,-0.15 0.05,-0.1 0.3,-0.8 0.25,-0.65 0.4,-1.4 0.1,-0.7 0.05,-1.3 -0.1,-0.6 -0.45,-0.9 -0.45,-0.5 -1.15,-0.4 -0.75,0.05 -1.15,0.55 -0.35,0.4 -0.55,1.1 v 2.5 q -2.25,-0.45 -4.15,-0.45 z"
         id="path49" />
    </g>
  </defs>
  <g
     id="g122"
     transform="translate(-1052.4,-424.95001)">
    <use
       xlink:href="#Layer1_9_FILL"
       id="use120" />
  </g>
</svg>
