<?xml version="1.0" encoding="UTF-8" standalone="no"?>
<svg
   version="1.1"
   preserveAspectRatio="none"
   x="0px"
   y="0px"
   width="1025.4"
   height="301.95001"
   viewBox="0 0 1025.4 301.95001"
   id="svg148"
   sodipodi:docname="pictos carres.svg"
   inkscape:export-filename="../../../front/public/icons/goatreon.svg"
   inkscape:export-xdpi="96"
   inkscape:export-ydpi="96"
   xmlns:inkscape="http://www.inkscape.org/namespaces/inkscape"
   xmlns:sodipodi="http://sodipodi.sourceforge.net/DTD/sodipodi-0.dtd"
   xmlns:xlink="http://www.w3.org/1999/xlink"
   xmlns="http://www.w3.org/2000/svg"
   xmlns:svg="http://www.w3.org/2000/svg">
  <sodipodi:namedview
     id="namedview150"
     pagecolor="#ffffff"
     bordercolor="#000000"
     borderopacity="0.25"
     inkscape:showpageshadow="2"
     inkscape:pageopacity="0.0"
     inkscape:pagecheckerboard="0"
     inkscape:deskcolor="#d1d1d1"
     showgrid="false" />
  <defs
     id="defs82">
    <g
       id="Layer1_0_FILL">
      <path
         fill="#cccccc"
         stroke="none"
         d="m 363.75,272.25 h -36.5 v 36.5 h 36.5 v -36.5 m -24,5.4 q 0.45,-0.75 0.95,-1.45 0.5,-0.65 1.1,-1.2 0.95,-0.9 2.35,-1.25 0.65,-0.15 1.25,0.05 0.95,0.3 1.55,0.95 1.7,0 2.55,1 0.4,0.45 0.7,1.05 0.3,0.55 0.55,1.2 h 0.05 q 0.35,-0.1 0.75,-0.25 0.35,-0.15 0.8,-0.05 1.05,0.95 2,1.9 0.2,0.2 0.35,0.35 1.3,0.05 2.6,0.1 h 0.05 q 0.3,0.25 0.35,0.8 0,0.4 0.05,0.8 0.3,1.7 0.55,3.4 0.2,1.7 0.5,3.35 0.2,1.65 0.45,3.35 0.25,1.65 0.5,3.3 0.25,1.6 0.45,3.2 0.25,1.65 0.5,3.3 0.25,1.6 0.5,3.25 0.1,0.35 0.05,0.7 -0.4,0.2 -0.9,0.3 -0.95,0.25 -1.9,0.5 -0.9,0.25 -1.85,0.45 -0.95,0.25 -1.9,0.45 -0.95,0.25 -1.9,0.5 -0.35,0.1 -0.8,0.05 -0.45,-0.05 -1,-0.15 -1.6,-0.25 -3.15,-0.5 -1.6,-0.3 -3.2,-0.55 -1.6,-0.3 -3.15,-0.55 -1.5,-0.3 -3.05,-0.55 -1.6,-0.3 -3.15,-0.55 -1.6,-0.3 -3.2,-0.55 -0.45,-0.05 -0.85,-0.2 0,-0.1 0,-0.3 0.25,-1.65 0.45,-3.35 0.2,-1.65 0.4,-3.25 0.25,-1.6 0.45,-3.15 0.2,-1.55 0.4,-3.15 0.2,-1.65 0.4,-3.35 0.25,-1.75 0.45,-3.4 0.05,-0.5 0.25,-0.8 0.15,-0.2 0.35,-0.3 1.3,-0.45 2.65,-0.8 0.55,-0.2 1.1,-0.4 0.2,-0.95 0.5,-1.85 0.45,-1.3 1.1,-2.4 m 9.5,-0.05 q -0.45,-1.05 -1.5,-1.55 v 0.05 q 0.35,1.2 0.45,2.55 h 0.05 q 0.65,-0.15 1.25,-0.4 -0.15,-0.35 -0.25,-0.65 m -7.75,12.8 q -0.25,-0.6 0,-1.2 0.2,-0.35 0.5,-0.65 0.65,-0.45 1.8,-0.45 1.1,0 2,0.25 v 0.05 q 0.1,0.05 0.2,0.1 0.2,-0.6 0.4,-1.25 0.15,-0.6 0.3,-1.25 v -0.05 q 0.2,-0.6 0.25,-1.2 -1,-0.3 -2.4,-0.2 -1.05,0.05 -2.05,0.25 v 0.05 q -0.4,0.15 -0.85,0.3 -1.1,0.5 -1.9,1.35 -0.6,0.55 -1.05,1.3 v 0.05 q 0,0.05 0,0.2 -0.5,0.8 -0.55,1.95 -0.15,1.25 0.1,2.2 0.1,0.25 0.2,0.5 0.2,0.35 0.45,0.65 0.75,0.95 1.8,1.55 0.9,0.6 1.4,1.55 0.1,0.2 0.1,0.4 0.05,1.2 -0.7,1.6 -0.4,0.15 -0.85,0.1 -0.45,0 -0.9,-0.1 -0.35,-0.15 -0.8,-0.3 -0.7,-0.35 -1.3,-0.75 h -0.05 q -0.35,1.3 -0.6,2.65 -0.05,0.15 0.05,0.2 0.2,0.15 0.4,0.25 0.95,0.65 2.05,1.05 0.15,0 0.25,0 0.9,0.25 2.1,0.2 1.1,-0.05 1.95,-0.4 0.3,-0.2 0.65,-0.4 0.9,-0.65 1.45,-1.75 0.05,-0.05 0,-0.15 h 0.05 q 0,-0.1 0.05,-0.1 v -0.05 q 0.1,-0.3 0.2,-0.5 0.2,-1 0.15,-2.35 -0.05,-0.5 -0.15,-0.95 -0.1,-0.2 -0.2,-0.45 0,-0.1 -0.1,-0.15 0,-0.1 0,-0.15 -0.1,-0.15 -0.25,-0.3 -0.05,-0.1 -0.1,-0.2 -0.85,-1.05 -2,-1.7 -1.2,-0.7 -2.05,-1.75 m 2.4,-10.95 q -0.1,0.1 -0.15,0.2 0,0.25 -0.15,0.35 0,0.05 0.05,0.05 0.15,0.1 0.35,0 0.15,-0.15 0.35,-0.2 1.2,-0.35 2.45,-0.7 0,-0.35 0,-0.65 0,-0.3 -0.05,-0.6 -0.05,-0.6 -0.25,-1.05 0,-0.45 -0.2,-0.65 -0.7,0.4 -1.2,1 -0.45,0.65 -0.85,1.3 v 0.05 q 0,0.05 -0.05,0.1 v 0.05 q -0.05,0.1 -0.1,0.15 v 0.05 q 0,0.05 -0.05,0.15 -0.05,0.05 -0.1,0.1 v 0.05 q -0.05,0.1 -0.05,0.25 m -1.05,-1.2 q 0.05,-0.05 0.15,-0.15 0,-0.1 0,-0.2 0.5,-0.9 1.15,-1.7 0.55,-0.6 1.25,-1.1 -0.35,-0.1 -0.9,-0.05 -0.4,0 -0.75,0.15 -1.15,0.6 -1.95,1.65 -0.8,0.95 -1.4,2.1 0,0.1 -0.05,0.2 -0.1,0.1 -0.15,0.35 -0.05,0 -0.1,0.05 v 0.05 q -0.3,0.85 -0.6,1.7 0.05,0.1 0.3,0.05 0.45,-0.15 0.85,-0.35 h 0.05 q 0.1,0 0.2,0 0.55,-0.2 1.15,-0.4 0.35,-1.2 0.8,-2.35 z"
         id="path2" />
      <path
         fill="#ff00fe"
         stroke="none"
         d="m 340.7,276.2 q -0.5,0.7 -0.95,1.45 -0.65,1.1 -1.1,2.4 -0.3,0.9 -0.5,1.85 -0.55,0.2 -1.1,0.4 -1.35,0.35 -2.65,0.8 -0.2,0.1 -0.35,0.3 -0.2,0.3 -0.25,0.8 -0.2,1.65 -0.45,3.4 -0.2,1.7 -0.4,3.35 -0.2,1.6 -0.4,3.15 -0.2,1.55 -0.45,3.15 -0.2,1.6 -0.4,3.25 -0.2,1.7 -0.45,3.35 0,0.2 0,0.3 0.4,0.15 0.85,0.2 1.6,0.25 3.2,0.55 1.55,0.25 3.15,0.55 1.55,0.25 3.05,0.55 1.55,0.25 3.15,0.55 1.6,0.25 3.2,0.55 1.55,0.25 3.15,0.5 0.55,0.1 1,0.15 0.45,0.05 0.8,-0.05 0.95,-0.25 1.9,-0.5 0.95,-0.2 1.9,-0.45 0.95,-0.2 1.85,-0.45 0.95,-0.25 1.9,-0.5 0.5,-0.1 0.9,-0.3 0.05,-0.35 -0.05,-0.7 -0.25,-1.65 -0.5,-3.25 -0.25,-1.65 -0.5,-3.3 -0.2,-1.6 -0.45,-3.2 -0.25,-1.65 -0.5,-3.3 -0.25,-1.7 -0.45,-3.35 -0.3,-1.65 -0.5,-3.35 -0.25,-1.7 -0.55,-3.4 -0.05,-0.4 -0.05,-0.8 -0.05,-0.55 -0.35,-0.8 h -0.05 q -1.3,-0.05 -2.6,-0.1 -0.15,-0.15 -0.35,-0.35 -0.95,-0.95 -2,-1.9 -0.45,-0.1 -0.8,0.05 -0.4,0.15 -0.75,0.25 h -0.05 q -0.25,-0.65 -0.55,-1.2 -0.3,-0.6 -0.7,-1.05 -0.85,-1 -2.55,-1 -0.6,-0.65 -1.55,-0.95 -0.6,-0.2 -1.25,-0.05 -1.4,0.35 -2.35,1.25 -0.6,0.55 -1.1,1.2 m 2.3,1.9 q -0.1,0.1 -0.15,0.15 -0.45,1.15 -0.8,2.35 -0.6,0.2 -1.15,0.4 -0.1,0 -0.2,0 h -0.05 q -0.4,0.2 -0.85,0.35 -0.25,0.05 -0.3,-0.05 0.3,-0.85 0.6,-1.7 v -0.05 q 0.05,-0.05 0.1,-0.05 0.05,-0.25 0.15,-0.35 0.05,-0.1 0.05,-0.2 0.6,-1.15 1.4,-2.1 0.8,-1.05 1.95,-1.65 0.35,-0.15 0.75,-0.15 0.55,-0.05 0.9,0.05 -0.7,0.5 -1.25,1.1 -0.65,0.8 -1.15,1.7 0,0.1 0,0.2 m 0.75,1.55 q 0.05,-0.1 0.15,-0.2 0,-0.15 0.05,-0.25 v -0.05 q 0.05,-0.05 0.1,-0.1 0.05,-0.1 0.05,-0.15 v -0.05 q 0.05,-0.05 0.1,-0.15 v -0.05 q 0.05,-0.05 0.05,-0.1 v -0.05 q 0.4,-0.65 0.85,-1.3 0.5,-0.6 1.2,-1 0.2,0.2 0.2,0.65 0.2,0.45 0.25,1.05 0.05,0.3 0.05,0.6 0,0.3 0,0.65 -1.25,0.35 -2.45,0.7 -0.2,0.05 -0.35,0.2 -0.2,0.1 -0.35,0 -0.05,0 -0.05,-0.05 0.15,-0.1 0.15,-0.35 m -2.25,9.55 q -0.25,0.6 0,1.2 0.85,1.05 2.05,1.75 1.15,0.65 2,1.7 0.05,0.1 0.1,0.2 0.15,0.15 0.25,0.3 0,0.05 0,0.15 0.1,0.05 0.1,0.15 0.1,0.25 0.2,0.45 0.1,0.45 0.15,0.95 0.05,1.35 -0.15,2.35 -0.1,0.2 -0.2,0.5 v 0.05 q -0.05,0 -0.05,0.1 h -0.05 q 0.05,0.1 0,0.15 -0.55,1.1 -1.45,1.75 -0.35,0.2 -0.65,0.4 -0.85,0.35 -1.95,0.4 -1.2,0.05 -2.1,-0.2 -0.1,0 -0.25,0 -1.1,-0.4 -2.05,-1.05 -0.2,-0.1 -0.4,-0.25 -0.1,-0.05 -0.05,-0.2 0.25,-1.35 0.6,-2.65 h 0.05 q 0.6,0.4 1.3,0.75 0.45,0.15 0.8,0.3 0.45,0.1 0.9,0.1 0.45,0.05 0.85,-0.1 0.75,-0.4 0.7,-1.6 0,-0.2 -0.1,-0.4 -0.5,-0.95 -1.4,-1.55 -1.05,-0.6 -1.8,-1.55 -0.25,-0.3 -0.45,-0.65 -0.1,-0.25 -0.2,-0.5 -0.25,-0.95 -0.1,-2.2 0.05,-1.15 0.55,-1.95 0,-0.15 0,-0.2 v -0.05 q 0.45,-0.75 1.05,-1.3 0.8,-0.85 1.9,-1.35 0.45,-0.15 0.85,-0.3 v -0.05 q 1,-0.2 2.05,-0.25 1.4,-0.1 2.4,0.2 -0.05,0.6 -0.25,1.2 V 286 q -0.15,0.65 -0.3,1.25 -0.2,0.65 -0.4,1.25 -0.1,-0.05 -0.2,-0.1 v -0.05 q -0.9,-0.25 -2,-0.25 -1.15,0 -1.8,0.45 -0.3,0.3 -0.5,0.65 m 6.25,-13.15 q 1.05,0.5 1.5,1.55 0.1,0.3 0.25,0.65 -0.6,0.25 -1.25,0.4 h -0.05 q -0.1,-1.35 -0.45,-2.55 z"
         id="path4" />
    </g>
    <g
       id="Layer1_1_FILL">
      <path
         fill="#cccccc"
         stroke="none"
         d="m 363.75,317.95 h -36.5 v 36.5 h 36.5 v -36.5 m -13.75,2 q 2,0 3.95,-0.1 1.85,-0.1 3.65,-0.3 0.65,-0.05 1.3,0 h 0.05 q 0,0.5 -0.05,1.15 -0.15,1.85 -0.25,3.65 -0.1,1.95 -0.15,3.8 -0.05,0.3 -0.15,0.45 -0.3,0.1 -0.75,0.1 -0.5,0 -0.9,0 -0.25,-0.45 -0.35,-1 -0.35,-1.6 -0.85,-3.1 -0.5,-1.5 -1.75,-2.2 -0.75,-0.4 -2,-0.35 -1.3,0.05 -2.6,0.05 -2,0 -4,0 -1.55,0 -3,0 -0.1,0.05 -0.2,0.1 -0.35,0.5 -0.25,1.45 0,0.65 0,1.3 0,1.95 0,3.95 0,2 0,3.95 0,0.9 0.1,1.75 0.5,0.1 1.25,0.1 1.95,-0.05 3.85,-0.1 1.6,0 2.75,-0.55 0.45,-0.15 0.65,-0.65 0.45,-1.3 0.7,-2.75 0.1,-0.5 0.3,-0.9 0.9,-0.05 1.8,0 v 0.05 q 0.1,0.55 0.05,1.25 -0.1,1.85 -0.2,3.7 -0.05,1.9 0.05,3.85 0.05,1.4 0,2.75 v 0.05 q -0.4,0.1 -0.95,0.1 -0.45,-0.05 -0.9,-0.1 -0.35,-1 -0.5,-2.1 -0.25,-1.4 -1.25,-2 -0.15,-0.1 -0.3,-0.15 -0.5,-0.15 -1.1,-0.2 -1.85,-0.1 -3.8,-0.1 -1.25,0 -2.4,0 v 0.05 q -0.1,0.2 -0.1,0.6 0,1.95 0,3.85 0,1.95 0,3.85 -0.05,1.5 0.15,2.65 0.3,1.05 1.2,1.4 1.15,0.5 2.9,0.45 1.3,-0.05 2.65,-0.05 1.9,0 3.85,-0.05 1.55,-0.05 2.55,-0.65 1,-0.65 1.6,-1.65 0.6,-1.05 1.1,-2.25 0.55,-1.3 1.15,-2.55 0.05,0 0.1,-0.05 0.7,-0.05 1.45,0 h 0.05 q 0.05,0.55 -0.05,1.1 -0.2,1.15 -0.3,2.35 -0.25,1.7 -0.45,3.45 -0.15,1.35 -0.35,2.7 h -0.1 q -1.75,0 -3.5,0 -0.2,0.05 -0.15,-0.1 h -0.05 q -0.1,0 -0.2,0 h -0.05 q -0.15,0 -0.25,-0.05 -0.45,-0.05 -0.95,0 -0.2,0.05 -0.3,-0.05 -0.55,0 -1.05,0 h -0.05 q -0.2,0 -0.4,0 -1.65,0 -3.3,0 -1.9,0 -3.8,0 -1.95,0 -3.8,0 -1.95,-0.05 -3.85,0 -0.1,0.05 -0.2,0.05 h -0.05 q -0.35,-0.05 -0.7,0 -0.15,0.05 -0.25,0.05 l -0.05,-0.05 q -0.1,0 -0.2,0.05 0,0.15 -0.15,0.1 h -0.05 q -1.8,0 -3.6,0 h -0.05 q -0.1,-0.35 -0.1,-0.9 0,-0.55 0.1,-0.95 v -0.05 q 1,-0.25 2.05,-0.4 1.15,-0.15 1.9,-0.7 0.35,-0.25 0.4,-0.85 0.15,-1.65 0.15,-3.45 0.05,-1.9 0.05,-3.8 0,-1.95 0,-3.95 0,-1.95 0,-3.9 0,-2 0,-3.9 -0.05,-1.95 -0.05,-3.9 0,-1.15 -0.3,-2.05 -0.05,-0.25 -0.2,-0.45 -0.7,-0.65 -1.85,-0.8 -1.15,-0.15 -2.15,-0.4 v -0.05 q -0.05,-0.8 -0.1,-1.65 0.2,-0.3 0.8,-0.25 0.6,0.1 1.25,0.1 1.95,0.05 3.85,0.1 2,0.1 4,0.1 2,0 4,0 2,0 4,0 z"
         id="path7" />
      <path
         fill="#ff00fe"
         stroke="none"
         d="m 353.95,319.85 q -1.95,0.1 -3.95,0.1 -2,0 -4,0 -2,0 -4,0 -2,0 -4,-0.1 -1.9,-0.05 -3.85,-0.1 -0.65,0 -1.25,-0.1 -0.6,-0.05 -0.8,0.25 0.05,0.85 0.1,1.65 v 0.05 q 1,0.25 2.15,0.4 1.15,0.15 1.85,0.8 0.15,0.2 0.2,0.45 0.3,0.9 0.3,2.05 0,1.95 0.05,3.9 0,1.9 0,3.9 0,1.95 0,3.9 0,2 0,3.95 0,1.9 -0.05,3.8 0,1.8 -0.15,3.45 -0.05,0.6 -0.4,0.85 -0.75,0.55 -1.9,0.7 -1.05,0.15 -2.05,0.4 v 0.05 q -0.1,0.4 -0.1,0.95 0,0.55 0.1,0.9 h 0.05 q 1.8,0 3.6,0 h 0.05 q 0.15,0.05 0.15,-0.1 0.1,-0.05 0.2,-0.05 l 0.05,0.05 q 0.1,0 0.25,-0.05 0.35,-0.05 0.7,0 h 0.05 q 0.1,0 0.2,-0.05 1.9,-0.05 3.85,0 1.85,0 3.8,0 1.9,0 3.8,0 1.65,0 3.3,0 0.2,0 0.4,0 h 0.05 q 0.5,0 1.05,0 0.1,0.1 0.3,0.05 0.5,-0.05 0.95,0 0.1,0.05 0.25,0.05 h 0.05 q 0.1,0 0.2,0 h 0.05 q -0.05,0.15 0.15,0.1 1.75,0 3.5,0 h 0.1 q 0.2,-1.35 0.35,-2.7 0.2,-1.75 0.45,-3.45 0.1,-1.2 0.3,-2.35 0.1,-0.55 0.05,-1.1 h -0.05 q -0.75,-0.05 -1.45,0 -0.05,0.05 -0.1,0.05 -0.6,1.25 -1.15,2.55 -0.5,1.2 -1.1,2.25 -0.6,1 -1.6,1.65 -1,0.6 -2.55,0.65 -1.95,0.05 -3.85,0.05 -1.35,0 -2.65,0.05 -1.75,0.05 -2.9,-0.45 -0.9,-0.35 -1.2,-1.4 -0.2,-1.15 -0.15,-2.65 0,-1.9 0,-3.85 0,-1.9 0,-3.85 0,-0.4 0.1,-0.6 v -0.05 q 1.15,0 2.4,0 1.95,0 3.8,0.1 0.6,0.05 1.1,0.2 0.15,0.05 0.3,0.15 1,0.6 1.25,2 0.15,1.1 0.5,2.1 0.45,0.05 0.9,0.1 0.55,0 0.95,-0.1 v -0.05 q 0.05,-1.35 0,-2.75 -0.1,-1.95 -0.05,-3.85 0.1,-1.85 0.2,-3.7 0.05,-0.7 -0.05,-1.25 v -0.05 q -0.9,-0.05 -1.8,0 -0.2,0.4 -0.3,0.9 -0.25,1.45 -0.7,2.75 -0.2,0.5 -0.65,0.65 -1.15,0.55 -2.75,0.55 -1.9,0.05 -3.85,0.1 -0.75,0 -1.25,-0.1 -0.1,-0.85 -0.1,-1.75 0,-1.95 0,-3.95 0,-2 0,-3.95 0,-0.65 0,-1.3 -0.1,-0.95 0.25,-1.45 0.1,-0.05 0.2,-0.1 1.45,0 3,0 2,0 4,0 1.3,0 2.6,-0.05 1.25,-0.05 2,0.35 1.25,0.7 1.75,2.2 0.5,1.5 0.85,3.1 0.1,0.55 0.35,1 0.4,0 0.9,0 0.45,0 0.75,-0.1 0.1,-0.15 0.15,-0.45 0.05,-1.85 0.15,-3.8 0.1,-1.8 0.25,-3.65 0.05,-0.65 0.05,-1.15 h -0.05 q -0.65,-0.05 -1.3,0 -1.8,0.2 -3.65,0.3 z"
         id="path9" />
    </g>
    <g
       id="Layer1_2_FILL">
      <path
         fill="#cccccc"
         stroke="none"
         d="M 689.5,267.75 H 653 v 36.5 h 36.5 v -36.5 m -35.25,16.95 v -0.05 q 0,-0.05 0,-0.1 0.5,-0.2 0.85,0.15 0.4,0.3 0.75,0.55 1.6,0.95 3.3,1.75 1.75,0.8 3.65,1.35 1.85,0.65 4,1.05 2.1,0.35 4.6,0.35 2.4,0 4.55,-0.35 2.15,-0.35 4,-0.9 1.9,-0.7 3.6,-1.5 0.6,-0.25 1.25,-0.4 0.25,0.1 0.4,0.4 0,0.15 0,0.25 -0.5,0.75 -1.25,1.3 -1.5,1.05 -3.2,1.85 -1.7,0.85 -3.65,1.4 -1.9,0.55 -4.2,0.75 -2.35,0.2 -4.6,-0.1 -2.2,-0.3 -4.05,-0.95 -1.85,-0.65 -3.5,-1.5 -1.65,-0.9 -3.1,-2 -1.45,-1.05 -2.75,-2.35 -0.35,-0.35 -0.65,-0.75 -0.05,0 0,-0.05 v -0.05 q 0,-0.05 0,-0.1 M 685.2,284 q 1.25,-0.1 2,0.1 0.85,0.15 0.9,0.9 v 0.1 q 0.05,0.15 0,0.35 v 0.15 q -0.35,2.6 -1.3,4.25 -0.5,0.85 -1.25,1.5 -0.05,0.05 -0.15,0 -0.2,-0.45 0.05,-0.9 0.1,-0.25 0.2,-0.5 0.5,-1.3 0.75,-2.95 0.1,-0.6 -0.1,-1.05 -0.15,-0.1 -0.25,-0.25 H 686 q -1.3,-0.35 -2.8,-0.1 -0.55,0.1 -1.2,0.1 h -0.05 q -0.1,0 -0.1,-0.05 h -0.05 q -0.15,0 -0.1,-0.2 1.25,-1.3 3.5,-1.45 z"
         id="path12" />
      <path
         fill="#ff00fe"
         stroke="none"
         d="m 687.2,284.1 q -0.75,-0.2 -2,-0.1 -2.25,0.15 -3.5,1.45 -0.05,0.2 0.1,0.2 h 0.05 q 0,0.05 0.1,0.05 H 682 q 0.65,0 1.2,-0.1 1.5,-0.25 2.8,0.1 h 0.05 q 0.1,0.15 0.25,0.25 0.2,0.45 0.1,1.05 -0.25,1.65 -0.75,2.95 -0.1,0.25 -0.2,0.5 -0.25,0.45 -0.05,0.9 0.1,0.05 0.15,0 0.75,-0.65 1.25,-1.5 0.95,-1.65 1.3,-4.25 v -0.15 q 0.05,-0.2 0,-0.35 V 285 q -0.05,-0.75 -0.9,-0.9 m -32.95,0.55 v 0.05 q 0,0.05 0,0.1 v 0.05 q -0.05,0.05 0,0.05 0.3,0.4 0.65,0.75 1.3,1.3 2.75,2.35 1.45,1.1 3.1,2 1.65,0.85 3.5,1.5 1.85,0.65 4.05,0.95 2.25,0.3 4.6,0.1 2.3,-0.2 4.2,-0.75 1.95,-0.55 3.65,-1.4 1.7,-0.8 3.2,-1.85 0.75,-0.55 1.25,-1.3 0,-0.1 0,-0.25 -0.15,-0.3 -0.4,-0.4 -0.65,0.15 -1.25,0.4 -1.7,0.8 -3.6,1.5 -1.85,0.55 -4,0.9 -2.15,0.35 -4.55,0.35 -2.5,0 -4.6,-0.35 -2.15,-0.4 -4,-1.05 -1.9,-0.55 -3.65,-1.35 -1.7,-0.8 -3.3,-1.75 -0.35,-0.25 -0.75,-0.55 -0.35,-0.35 -0.85,-0.15 0,0.05 0,0.1 z"
         id="path14" />
    </g>
    <g
       id="Layer1_3_FILL">
      <path
         fill="#cccccc"
         stroke="none"
         d="m 653,316.05 v 36.5 h 36.5 v -36.5 H 653 m 17,5 q 0.8,-1.35 1.95,-2.25 1.15,-0.9 2.8,-1.3 0.35,-0.15 0.75,-0.2 0.2,-0.05 0.25,0.05 0.15,0.3 0.1,0.7 -0.1,1.9 -0.85,3.3 -0.75,1.3 -1.9,2.25 -1.15,0.95 -2.85,1.35 -0.5,0.1 -1.05,0 -0.1,-0.3 -0.1,-0.65 v -0.05 q 0.15,-1.95 0.9,-3.2 m -4.55,4.55 q 1.4,0.4 2.65,0.9 0.35,0.15 0.8,0.3 0.45,0.1 0.95,-0.05 1.25,-0.3 2.3,-0.8 1.35,-0.6 3.25,-0.65 0.75,0 1.35,0.1 1.75,0.3 3,1.15 1.25,0.8 2.05,2 -0.25,0.3 -0.55,0.55 -1.2,0.85 -2.05,2.15 -0.75,1.3 -0.9,3.2 -0.1,1 0.1,1.9 0.35,1.7 1.25,2.9 0.9,1.15 2.25,1.9 0.4,0.3 0.8,0.5 -0.15,0.45 -0.3,0.8 -0.55,1.5 -1.35,2.85 -0.75,1.25 -1.65,2.5 -0.85,1.2 -2.1,2.1 -0.75,0.45 -2.05,0.45 -1.3,0.05 -2.15,-0.4 -0.75,-0.35 -1.5,-0.55 -1.15,-0.35 -2.6,-0.2 -0.9,0.1 -1.65,0.4 -0.85,0.45 -1.85,0.7 -0.95,0.3 -1.85,0.05 -1,-0.3 -1.7,-0.85 -1.15,-1 -2,-2.25 -0.85,-1.2 -1.6,-2.5 -0.75,-1.35 -1.3,-2.9 -0.55,-1.5 -0.9,-3.2 -0.35,-1.8 -0.35,-3.85 0,-0.25 0,-0.45 0.15,-1.95 0.75,-3.4 0.55,-1.5 1.55,-2.65 0.95,-1.15 2.25,-1.9 1.3,-0.75 3.15,-0.95 1.1,-0.1 1.95,0.15 z"
         id="path17" />
      <path
         fill="#ff00fe"
         stroke="none"
         d="m 668.1,326.5 q -1.25,-0.5 -2.65,-0.9 -0.85,-0.25 -1.95,-0.15 -1.85,0.2 -3.15,0.95 -1.3,0.75 -2.25,1.9 -1,1.15 -1.55,2.65 -0.6,1.45 -0.75,3.4 0,0.2 0,0.45 0,2.05 0.35,3.85 0.35,1.7 0.9,3.2 0.55,1.55 1.3,2.9 0.75,1.3 1.6,2.5 0.85,1.25 2,2.25 0.7,0.55 1.7,0.85 0.9,0.25 1.85,-0.05 1,-0.25 1.85,-0.7 0.75,-0.3 1.65,-0.4 1.45,-0.15 2.6,0.2 0.75,0.2 1.5,0.55 0.85,0.45 2.15,0.4 1.3,0 2.05,-0.45 1.25,-0.9 2.1,-2.1 0.9,-1.25 1.65,-2.5 0.8,-1.35 1.35,-2.85 0.15,-0.35 0.3,-0.8 -0.4,-0.2 -0.8,-0.5 -1.35,-0.75 -2.25,-1.9 -0.9,-1.2 -1.25,-2.9 -0.2,-0.9 -0.1,-1.9 0.15,-1.9 0.9,-3.2 0.85,-1.3 2.05,-2.15 0.3,-0.25 0.55,-0.55 -0.8,-1.2 -2.05,-2 -1.25,-0.85 -3,-1.15 -0.6,-0.1 -1.35,-0.1 -1.9,0.05 -3.25,0.65 -1.05,0.5 -2.3,0.8 -0.5,0.15 -0.95,0.05 -0.45,-0.15 -0.8,-0.3 m 3.85,-7.7 q -1.15,0.9 -1.95,2.25 -0.75,1.25 -0.9,3.2 v 0.05 q 0,0.35 0.1,0.65 0.55,0.1 1.05,0 1.7,-0.4 2.85,-1.35 1.15,-0.95 1.9,-2.25 0.75,-1.4 0.85,-3.3 0.05,-0.4 -0.1,-0.7 -0.05,-0.1 -0.25,-0.05 -0.4,0.05 -0.75,0.2 -1.65,0.4 -2.8,1.3 z"
         id="path19" />
    </g>
    <g
       id="Layer1_4_FILL">
      <path
         fill="#cccccc"
         stroke="none"
         d="M 689.5,361.55 H 653 v 36.5 h 36.5 v -36.5 m -18.15,7.4 q 2.6,0 5.2,0.05 2.5,0.1 4.9,0.25 1.25,0.1 2.35,0.35 1.5,0.4 2.3,1.55 0.8,1.05 1,2.65 0.25,1.7 0.3,3.55 0.1,1.9 0.1,3.85 0,2.65 -0.3,4.95 -0.15,1.2 -0.45,2.2 -0.3,1.05 -0.95,1.7 -0.65,0.65 -1.65,1 -1,0.3 -2.2,0.4 -2.4,0.2 -4.95,0.3 -2.5,0.1 -5.1,0.1 -2.65,0 -5.2,-0.1 -2.5,-0.05 -5,-0.2 -1.9,-0.1 -3.6,-0.5 -0.45,-0.15 -0.85,-0.4 -1.65,-1 -2,-3.25 -0.35,-2.3 -0.45,-4.8 -0.1,-1.7 -0.05,-3.5 0.1,-2.55 0.35,-4.85 0.15,-1.5 0.75,-2.6 0.85,-1.75 3.05,-2.1 1.2,-0.15 2.35,-0.3 2.4,-0.2 5,-0.25 2.5,-0.05 5.1,-0.05 m -3.55,6.65 q 0,1.9 0,3.8 0,2.6 0,5.2 0,0.4 0.1,0.6 0,0.05 0.1,0 0.5,-0.2 1,-0.45 1.65,-0.95 3.3,-1.95 1.65,-0.95 3.35,-1.9 0.4,-0.2 0.75,-0.5 v -0.05 q -0.3,-0.3 -0.7,-0.5 -1.65,-0.95 -3.35,-1.9 -1.65,-0.95 -3.3,-1.85 -0.3,-0.2 -0.5,-0.35 -0.35,-0.3 -0.75,-0.15 z"
         id="path22" />
      <path
         fill="#ff00fe"
         stroke="none"
         d="m 676.55,369 q -2.6,-0.05 -5.2,-0.05 -2.6,0 -5.1,0.05 -2.6,0.05 -5,0.25 -1.15,0.15 -2.35,0.3 -2.2,0.35 -3.05,2.1 -0.6,1.1 -0.75,2.6 -0.25,2.3 -0.35,4.85 -0.05,1.8 0.05,3.5 0.1,2.5 0.45,4.8 0.35,2.25 2,3.25 0.4,0.25 0.85,0.4 1.7,0.4 3.6,0.5 2.5,0.15 5,0.2 2.55,0.1 5.2,0.1 2.6,0 5.1,-0.1 2.55,-0.1 4.95,-0.3 1.2,-0.1 2.2,-0.4 1,-0.35 1.65,-1 0.65,-0.65 0.95,-1.7 0.3,-1 0.45,-2.2 0.3,-2.3 0.3,-4.95 0,-1.95 -0.1,-3.85 -0.05,-1.85 -0.3,-3.55 -0.2,-1.6 -1,-2.65 -0.8,-1.15 -2.3,-1.55 -1.1,-0.25 -2.35,-0.35 -2.4,-0.15 -4.9,-0.25 m -8.75,10.4 q 0,-1.9 0,-3.8 0.4,-0.15 0.75,0.15 0.2,0.15 0.5,0.35 1.65,0.9 3.3,1.85 1.7,0.95 3.35,1.9 0.4,0.2 0.7,0.5 v 0.05 q -0.35,0.3 -0.75,0.5 -1.7,0.95 -3.35,1.9 -1.65,1 -3.3,1.95 -0.5,0.25 -1,0.45 -0.1,0.05 -0.1,0 -0.1,-0.2 -0.1,-0.6 0,-2.6 0,-5.2 z"
         id="path24" />
    </g>
    <g
       id="Layer1_5_FILL">
      <path
         fill="#cccccc"
         stroke="none"
         d="m 689.5,443.45 v -36.5 H 653 v 36.5 h 36.5 m -17.2,-33.7 q 2.3,0 4.7,0 2.3,0 4.7,0 2.1,0 4.05,0 h 0.05 q 0.1,0.5 0.05,1.15 0,2.35 0,4.7 0,2.35 0,4.7 0,2.35 0,4.7 0,1.85 0,3.65 -1.15,1.2 -2.35,2.4 -1.2,1.15 -2.35,2.3 -1.15,1.2 -2.35,2.4 -0.5,0.5 -1,1 -1.05,0.05 -2.3,0.05 -1.9,0 -3.75,0 -1.25,1.1 -2.4,2.3 -0.85,0.85 -1.7,1.7 -1.5,0 -3.1,0.05 -0.6,0.05 -0.95,-0.1 -0.1,-0.4 -0.05,-0.95 0,-1.5 0,-2.95 -0.55,-0.1 -1.15,-0.1 -2.35,0.05 -4.7,0.05 -0.8,0 -1.5,-0.1 h -0.05 q -0.05,-0.2 -0.05,-0.55 0,-2.35 0,-4.7 0,-2.35 0,-4.7 0,-2.35 0,-4.7 0,-2.35 0,-4.7 0,-1.15 0,-2.3 0.7,-1.7 1.3,-3.4 0.2,-0.5 0.35,-0.95 0.15,-0.4 0.25,-0.75 0.05,-0.15 0.2,-0.2 2.3,-0.05 4.65,0 2.35,0 4.7,0 2.35,0 4.75,0 m 3.45,2.75 q -2.35,0 -4.7,0 -2.35,0 -4.7,0 -2.35,0 -4.7,-0.1 -0.5,0 -0.8,0.15 0,2.1 0,4.2 0,2.35 0,4.7 0,2.35 0,4.7 0,2.35 0,4.7 -0.05,0.65 0.1,1.15 0.15,0.05 0.45,0.05 2.35,-0.05 4.7,-0.05 0.5,-0.05 0.8,0.1 0.05,0 0.05,0.05 0.05,1.35 0,2.85 0,0.55 0.05,0.95 0.05,0 0.05,-0.05 0.85,-0.75 1.6,-1.55 1.15,-1.2 2.4,-2.35 1.35,0 2.65,0 2.35,0 4.7,0 h 0.05 q 1.2,-1.15 2.4,-2.35 1.15,-1.2 2.3,-2.4 0,-2.05 0,-4.2 0,-2.4 0,-4.7 0,-2.4 0,-4.7 0,-0.65 0,-1.1 l -0.05,-0.05 q -1.3,-0.05 -2.65,-0.05 -2.35,0.05 -4.7,0.05 m -7.4,8.1 q 0,-1.3 0,-2.65 0.35,-0.1 0.9,-0.1 0.9,0.05 1.65,0.1 0.05,0.45 0.05,1.1 -0.05,2.35 -0.05,4.7 0,1.1 0.05,2.05 0,0.1 -0.05,0.05 -0.35,0.1 -0.9,0.1 -0.85,-0.05 -1.55,-0.1 h -0.05 q -0.1,-0.2 -0.1,-0.55 0.05,-2.35 0.05,-4.7 m 7.45,-0.55 q 0,-1.05 -0.05,-2.05 0.2,-0.15 0.6,-0.15 0.5,0.05 1.05,0.05 0.55,-0.05 0.95,0.05 0.05,2.3 0.05,4.65 0,1.7 -0.05,3.25 -0.55,0.1 -1.3,0.05 -0.65,0 -1.2,-0.05 -0.1,-0.45 -0.1,-1.1 0.05,-2.35 0.05,-4.7 z"
         id="path27" />
      <path
         fill="#ff00fe"
         stroke="none"
         d="m 677,409.75 q -2.4,0 -4.7,0 -2.4,0 -4.75,0 -2.35,0 -4.7,0 -2.35,-0.05 -4.65,0 -0.15,0.05 -0.2,0.2 -0.1,0.35 -0.25,0.75 -0.15,0.45 -0.35,0.95 -0.6,1.7 -1.3,3.4 0,1.15 0,2.3 0,2.35 0,4.7 0,2.35 0,4.7 0,2.35 0,4.7 0,2.35 0,4.7 0,0.35 0.05,0.55 h 0.05 q 0.7,0.1 1.5,0.1 2.35,0 4.7,-0.05 0.6,0 1.15,0.1 0,1.45 0,2.95 -0.05,0.55 0.05,0.95 0.35,0.15 0.95,0.1 1.6,-0.05 3.1,-0.05 0.85,-0.85 1.7,-1.7 1.15,-1.2 2.4,-2.3 1.85,0 3.75,0 1.25,0 2.3,-0.05 0.5,-0.5 1,-1 1.2,-1.2 2.35,-2.4 1.15,-1.15 2.35,-2.3 1.2,-1.2 2.35,-2.4 0,-1.8 0,-3.65 0,-2.35 0,-4.7 0,-2.35 0,-4.7 0,-2.35 0,-4.7 0.05,-0.65 -0.05,-1.15 h -0.05 q -1.95,0 -4.05,0 -2.4,0 -4.7,0 m -5.95,2.75 q 2.35,0 4.7,0 2.35,0 4.7,-0.05 1.35,0 2.65,0.05 l 0.05,0.05 q 0,0.45 0,1.1 0,2.3 0,4.7 0,2.3 0,4.7 0,2.15 0,4.2 -1.15,1.2 -2.3,2.4 -1.2,1.2 -2.4,2.35 h -0.05 q -2.35,0 -4.7,0 -1.3,0 -2.65,0 -1.25,1.15 -2.4,2.35 -0.75,0.8 -1.6,1.55 0,0.05 -0.05,0.05 -0.05,-0.4 -0.05,-0.95 0.05,-1.5 0,-2.85 0,-0.05 -0.05,-0.05 -0.3,-0.15 -0.8,-0.1 -2.35,0 -4.7,0.05 -0.3,0 -0.45,-0.05 -0.15,-0.5 -0.1,-1.15 0,-2.35 0,-4.7 0,-2.35 0,-4.7 0,-2.35 0,-4.7 0,-2.1 0,-4.2 0.3,-0.15 0.8,-0.15 2.35,0.1 4.7,0.1 2.35,0 4.7,0 m 4.7,5.5 q 0.05,1 0.05,2.05 0,2.35 -0.05,4.7 0,0.65 0.1,1.1 0.55,0.05 1.2,0.05 0.75,0.05 1.3,-0.05 0.05,-1.55 0.05,-3.25 0,-2.35 -0.05,-4.65 -0.4,-0.1 -0.95,-0.05 -0.55,0 -1.05,-0.05 -0.4,0 -0.6,0.15 m -7.4,-0.05 q 0,1.35 0,2.65 0,2.35 -0.05,4.7 0,0.35 0.1,0.55 h 0.05 q 0.7,0.05 1.55,0.1 0.55,0 0.9,-0.1 0.05,0.05 0.05,-0.05 -0.05,-0.95 -0.05,-2.05 0,-2.35 0.05,-4.7 0,-0.65 -0.05,-1.1 -0.75,-0.05 -1.65,-0.1 -0.55,0 -0.9,0.1 z"
         id="path29" />
    </g>
    <g
       id="Layer1_6_FILL">
      <path
         fill="#cccccc"
         stroke="none"
         d="m 653,451.7 v 36.5 h 36.5 V 451.7 H 653 m 24.65,2.65 q 0,0.25 0.1,0.5 0.4,1.75 1.3,2.95 0.95,1.25 2.25,2.05 1.25,0.85 3.05,1.15 0.6,0.1 1.2,0.15 0,1.05 0,2.3 0,2.15 0,4.2 0,0.1 -0.05,0.15 -0.25,0.05 -0.55,0.05 -1.8,0 -3.25,-0.35 -1.35,-0.35 -2.45,-1.05 -0.9,-0.55 -1.7,-1.25 -0.1,0.5 -0.1,1.1 0.05,1.95 0.05,3.9 0,0.15 0,0.3 0,2.05 0.05,4.15 0,2 -0.2,3.7 -0.15,1 -0.45,1.85 -0.55,1.5 -1.4,2.7 -0.9,1.2 -2.05,2.1 -1.1,0.9 -2.6,1.45 -0.8,0.35 -1.8,0.55 -1.6,0.3 -3.4,0.1 -1.65,-0.2 -2.95,-0.8 -1.4,-0.65 -2.5,-1.55 -1.1,-0.95 -1.95,-2.15 -0.85,-1.2 -1.35,-2.75 -0.55,-1.55 -0.45,-3.65 0,-0.2 0,-0.35 0.2,-1.9 0.8,-3.35 0.55,-1.25 1.35,-2.3 0.15,-0.15 0.25,-0.3 0.95,-1.15 2.2,-1.95 1.25,-0.9 2.85,-1.4 1.65,-0.45 3.8,-0.4 0.3,0 0.5,0.05 0.05,0.5 0.05,1.15 0,1.4 0,2.85 0,0.65 0,1.35 0,0.45 -0.05,0.75 -0.5,0.05 -1.1,0.05 -1.25,-0.05 -2,0.35 -1.4,0.7 -2.1,2.05 -0.55,1.05 -0.35,2.6 0.05,0.5 0.2,0.9 0.6,1.5 1.9,2.25 0.85,0.45 2.1,0.5 1.45,0.05 2.4,-0.5 1.3,-0.75 2,-2.15 0.35,-0.8 0.35,-2 -0.05,-2.05 -0.05,-4.15 0.05,-1 0.05,-2 0,-1.1 0,-2.15 0,-2.1 0,-4.25 0,-2.1 0,-4.25 0,-2.15 -0.05,-4.3 0,-1 0.1,-1.9 0.5,-0.1 1.1,-0.1 2.2,0.05 4.35,0.05 0.25,0 0.35,0.05 0.15,0.45 0.2,1 z"
         id="path32" />
      <path
         fill="#ff00fe"
         stroke="none"
         d="m 677.75,454.85 q -0.1,-0.25 -0.1,-0.5 -0.05,-0.55 -0.2,-1 -0.1,-0.05 -0.35,-0.05 -2.15,0 -4.35,-0.05 -0.6,0 -1.1,0.1 -0.1,0.9 -0.1,1.9 0.05,2.15 0.05,4.3 0,2.15 0,4.25 0,2.15 0,4.25 0,1.05 0,2.15 0,1 -0.05,2 0,2.1 0.05,4.15 0,1.2 -0.35,2 -0.7,1.4 -2,2.15 -0.95,0.55 -2.4,0.5 -1.25,-0.05 -2.1,-0.5 -1.3,-0.75 -1.9,-2.25 -0.15,-0.4 -0.2,-0.9 -0.2,-1.55 0.35,-2.6 0.7,-1.35 2.1,-2.05 0.75,-0.4 2,-0.35 0.6,0 1.1,-0.05 0.05,-0.3 0.05,-0.75 0,-0.7 0,-1.35 0,-1.45 0,-2.85 0,-0.65 -0.05,-1.15 -0.2,-0.05 -0.5,-0.05 -2.15,-0.05 -3.8,0.4 -1.6,0.5 -2.85,1.4 -1.25,0.8 -2.2,1.95 -0.1,0.15 -0.25,0.3 -0.8,1.05 -1.35,2.3 -0.6,1.45 -0.8,3.35 0,0.15 0,0.35 -0.1,2.1 0.45,3.65 0.5,1.55 1.35,2.75 0.85,1.2 1.95,2.15 1.1,0.9 2.5,1.55 1.3,0.6 2.95,0.8 1.8,0.2 3.4,-0.1 1,-0.2 1.8,-0.55 1.5,-0.55 2.6,-1.45 1.15,-0.9 2.05,-2.1 0.85,-1.2 1.4,-2.7 0.3,-0.85 0.45,-1.85 0.2,-1.7 0.2,-3.7 -0.05,-2.1 -0.05,-4.15 0,-0.15 0,-0.3 0,-1.95 -0.05,-3.9 0,-0.6 0.1,-1.1 0.8,0.7 1.7,1.25 1.1,0.7 2.45,1.05 1.45,0.35 3.25,0.35 0.3,0 0.55,-0.05 0.05,-0.05 0.05,-0.15 0,-2.05 0,-4.2 0,-1.25 0,-2.3 -0.6,-0.05 -1.2,-0.15 -1.8,-0.3 -3.05,-1.15 -1.3,-0.8 -2.25,-2.05 -0.9,-1.2 -1.3,-2.95 z"
         id="path34" />
    </g>
    <g
       id="Layer1_7_FILL">
      <path
         fill="#cccccc"
         stroke="none"
         d="m 1035.55,271.25 v 36.5 h 36.5 v -36.5 h -36.5 m 30,6.3 v -0.05 q 0.4,-0.15 0.7,0.05 h 0.05 q 0.05,0.15 0.05,0.3 v 0.05 q -0.2,0.55 -0.8,0.6 h -0.05 q -0.1,-0.05 -0.2,-0.2 v -0.05 q 0,-0.15 0,-0.35 v -0.05 q 0.1,-0.2 0.25,-0.3 m -1.65,2.3 q 0.4,-0.5 0.95,-0.8 0.1,-0.05 0.1,0 0.05,0.05 0.05,0.25 v 0.05 q -0.4,0.9 -0.85,1.7 -0.3,0.45 -0.4,0.95 -0.1,0.4 0.2,0.65 0.6,0.55 1.7,0.6 0.65,0.1 0.85,0.6 -0.2,0.6 -0.6,0.95 -0.05,0.05 -0.1,0.15 -0.05,0.1 -0.05,0.2 0.25,0.55 0.9,0.7 0.15,0.1 0.15,0.35 h 0.05 q -0.25,0.65 0,1.25 0.25,0.55 0.65,0.95 0.25,0.25 0.35,0.65 -0.3,0.75 -1,1.15 -0.2,0.15 -0.35,0.3 -0.15,0.15 -0.25,0.4 0.05,0.65 0.35,1.05 0.1,0.2 0.05,0.45 -0.4,0.55 -0.75,1.2 v 0.05 q 0.2,0.55 0.8,0.75 0.3,0.1 0.45,0.3 0.2,0.2 0.4,0.4 0.05,0.2 0.05,0.4 v 0.05 q -0.1,0.25 -0.35,0.35 -0.8,-0.05 -1.35,-0.3 -0.2,-0.1 -0.45,-0.15 -0.15,0.1 -0.25,0.25 0.05,0.2 0.1,0.3 0.05,0 0.05,0.05 0.6,0.3 0.95,1 -0.1,0.25 -0.35,0.35 h -0.05 q -0.7,-0.2 -1.15,-0.7 -0.1,-0.1 -0.25,-0.05 -0.05,0.5 0.25,0.85 0.1,0.1 0.15,0.2 0.4,0.6 0.55,1.5 -0.05,0.2 -0.25,0.25 v 0.05 q -0.15,0.05 -0.35,0.05 -0.75,-0.6 -1.2,-1.55 -0.15,-0.25 -0.25,-0.5 -0.15,-0.25 -0.55,-0.3 -0.15,0.1 -0.25,0.2 0.1,0.8 -0.15,1.2 v 0.05 q -0.1,0 -0.2,0.05 -0.25,-0.05 -0.4,0.1 -0.05,0 -0.05,0.05 -0.1,0.5 0,1.2 0.1,1.15 0.65,1.95 0.6,0.95 1.25,2.05 0.35,0.6 0.1,1.4 -0.15,0.55 -0.85,0.55 -0.85,-0.5 -1.05,-1.6 -0.4,-1.9 -1.2,-3.35 -0.25,-0.45 -0.5,-0.85 0,-0.05 -0.05,-0.1 -0.5,-0.55 -1.35,-0.7 -0.3,-0.1 -0.5,0.05 -0.6,0.45 -0.35,1.4 0.15,0.65 0.3,1.3 0.2,0.6 0.05,1.3 -0.05,0.15 -0.25,0.25 v 0.05 q -0.4,0.1 -0.8,0 h -0.05 q -0.1,-0.15 -0.2,-0.25 h -0.05 q -0.05,-0.9 -0.05,-1.9 0.05,-0.65 -0.2,-1.05 -0.45,-0.85 -1.55,-1.05 -0.35,-0.05 -0.6,0.05 -1.4,0.55 -1.7,2.25 -0.2,1.7 -0.45,3.45 -0.1,1 -0.6,1.55 -0.2,0.05 -0.55,0 -0.65,-0.55 -0.45,-1.75 0.25,-1.1 0.45,-2.25 0.1,-0.75 0.2,-1.35 0.1,-0.55 -0.05,-1 -0.4,-0.85 -1.35,-1.1 -0.15,0.2 -0.15,0.6 0.1,1.15 -0.5,1.55 -0.2,0 -0.35,0 H 1049 q -0.15,-0.05 -0.35,-0.2 v -0.05 q -0.05,-0.05 -0.05,-0.15 h -0.05 q 0,-1 0.15,-1.9 0.1,-0.7 -0.35,-0.9 -0.5,0.05 -0.75,0.3 -0.1,0.1 -0.2,0.15 l -0.05,0.05 q -0.15,0 -0.3,0 H 1047 q -0.35,-0.3 -0.65,-0.7 -0.4,0.25 -0.75,0.6 -0.15,0.2 -0.35,0.3 -1.1,0.9 -2.4,1.7 -0.3,0.15 -0.55,0.4 -0.75,0.9 -1.1,2.15 -0.3,1.05 -1.35,1.2 -0.25,0.05 -0.4,0 -0.5,-0.15 -0.7,-0.65 -0.05,-1.4 0.7,-1.9 0.2,-0.2 0.35,-0.4 1.15,-1.4 2.55,-2.65 0.65,-0.55 1.4,-1 0.6,-0.35 1.05,-0.75 0.2,-0.15 0.25,-0.4 -0.15,-0.3 -0.5,-0.45 -0.05,-0.35 0,-0.55 -0.2,-0.1 -0.35,-0.15 h -0.05 q -0.15,-0.1 -0.15,-0.3 h -0.05 q 0.05,-0.55 -0.15,-0.9 v -0.05 q -0.4,-0.4 -1.15,-0.15 -0.55,0.2 -0.9,0.55 -0.6,0.55 -1.7,0.45 -1.05,-0.15 -0.95,-1.25 0,-0.35 0.15,-0.55 0.55,-0.8 1.85,-0.8 1,-0.05 1.8,-0.3 0.5,-0.2 0.5,-0.75 -0.4,-0.6 -1.3,-0.75 -0.05,-0.05 -0.25,-0.05 -1.25,-0.3 -2.7,-0.1 -0.4,0.1 -0.9,0.05 -0.35,-0.05 -0.5,-0.25 -0.1,-0.15 -0.1,-0.45 0.05,-0.4 0.3,-0.6 0.05,0 0.05,-0.05 0.6,-0.25 1.25,0.05 0.15,0.05 0.3,0.05 1.5,0.05 2.75,-0.25 0.35,-0.05 0.65,-0.15 0.5,-0.1 0.7,-0.45 0.1,-0.9 -0.25,-1.45 0.35,-0.45 0.4,-1.15 0,-0.5 -0.2,-0.8 -0.45,-0.7 -0.45,-1.7 0,-0.05 0.05,-0.1 0.55,-0.35 1.35,-0.45 0.35,0 0.6,-0.05 0.1,-0.1 0.2,-0.25 0.05,-0.3 0.05,-0.65 -0.5,-0.8 -1.25,-1.45 -0.7,-0.55 -1.55,-1.05 -0.7,-0.4 -1.4,-0.85 -0.4,-0.25 -0.65,-0.7 -0.25,-0.4 -0.05,-0.8 0.5,-0.9 1.7,-0.65 0.35,0.1 0.7,0.25 1.7,0.95 2.8,2.45 0.25,0.3 0.6,0.45 0.2,0.1 0.4,0.2 0.65,0.35 0.9,1.05 0.1,0.25 0.25,0.35 0.45,0.15 0.65,-0.05 h 0.05 q 0.05,-0.5 0.05,-1.05 v -0.05 q 0.3,-0.3 0.85,-0.4 0.1,0 0.15,-0.05 0.05,-0.15 0.05,-0.35 -0.8,-1.65 -1.6,-3.3 -0.2,-0.35 -0.1,-0.85 0.15,-0.25 0.45,-0.45 0.6,0.05 0.85,0.5 0.1,0.15 0.2,0.35 0.5,1 0.8,2.15 0.1,0.25 0.15,0.4 0.1,0.15 0.3,0.2 0.2,0 0.3,-0.15 h 0.05 q 0.05,-0.55 -0.15,-1.05 -0.45,-0.95 -0.8,-1.85 -0.45,-1.15 -0.9,-2.25 0,-0.1 0,-0.25 0.1,-0.3 0.4,-0.4 h 0.05 q 0.45,0.25 0.6,0.85 0.45,2.15 1.55,3.7 0.35,0.45 0.7,0.85 0.25,0.3 0.55,0.6 0.1,0.1 0.25,0.15 0.25,-0.15 0.45,-0.35 v -0.05 q 1.2,0 1,-1.3 -0.1,-0.55 -0.2,-1.2 -0.1,-1.5 0,-3 0,-0.15 0.05,-0.25 0.1,-0.1 0.2,-0.2 0.5,-0.15 0.75,0.25 h 0.05 q 0.05,1.15 0,2.5 -0.05,1.35 0.75,1.9 0.8,-0.1 1.25,-0.45 0.8,-0.65 2.25,-0.7 0.15,0.1 0.3,0.25 0.15,0.7 -0.15,1.2 -0.25,0.4 -0.5,0.85 0,0.05 -0.05,0.1 0.65,1.15 1.75,1.9 0.35,-0.05 0.65,-0.2 0.1,0 0.25,0 0.5,0.25 0.65,0.8 0.05,0.15 0.15,0.2 0.6,-0.3 1,-0.85 m 3.15,2.85 v 0.05 q -0.05,0.15 -0.15,0.2 V 283 q -0.4,0.1 -0.6,-0.1 -0.1,-0.15 -0.1,-0.35 0.1,-0.1 0.2,-0.25 0.15,-0.05 0.3,0 h 0.05 q 0.3,0.1 0.3,0.4 m 0.5,-0.05 q 0.1,-0.15 0.3,-0.25 h 0.05 q 0.25,0 0.3,0.25 0,0.05 0.05,0.05 -0.1,0.3 -0.35,0.35 h -0.05 q -0.3,-0.05 -0.3,-0.35 v -0.05 m -8.95,-8.05 v 0.05 q -0.2,0.7 -1.05,0.6 -0.15,-0.15 -0.15,-0.45 0,-0.2 0.1,-0.4 v -0.05 q 0.1,-0.1 0.3,-0.2 h 0.05 q 0.1,0 0.3,0 0.35,0.1 0.45,0.45 m 11.85,12.55 q -0.1,0.15 -0.25,0.25 -1.2,0.25 -2.65,0.15 -0.05,0 -0.05,-0.05 h -0.05 q -0.15,-0.1 -0.15,-0.35 v -0.05 q 0.4,-0.2 0.95,-0.25 0.3,0 0.55,-0.1 0.45,-0.1 0.8,-0.2 0.5,-0.1 0.8,0.1 0.05,0.2 0.05,0.45 v 0.05 m -2.75,9.65 q 0,-0.15 0,-0.3 0.1,-0.1 0.25,-0.25 h 0.05 q 0.8,-0.1 0.9,0.7 -0.05,0.25 -0.3,0.3 v 0.05 q -0.2,0 -0.35,0 h -0.05 q -0.3,-0.15 -0.45,-0.5 h -0.05 m -27.75,-12.6 q -0.35,-0.3 -0.3,-0.95 0.05,-0.15 0.15,-0.25 v -0.05 q 0.1,-0.1 0.2,-0.1 v -0.05 q 0.15,0 0.3,0 h 0.05 q 0.7,0.25 0.75,1.2 -0.1,0.15 -0.25,0.3 -0.55,0.2 -0.9,-0.1 m 2.35,-1.8 q 0,0.35 -0.45,0.45 -0.25,0 -0.25,-0.3 0.15,-0.3 0.4,-0.45 h 0.05 q 0.15,0.05 0.25,0.25 v 0.05 m 0.9,13.5 q 0.3,0.35 0.05,0.8 -0.35,0.55 -1.05,0.75 -0.25,-0.1 -0.35,-0.4 0,-0.1 0,-0.2 0.35,-0.7 1.1,-0.95 0.15,-0.05 0.25,0 m -5.15,3.7 0.05,0.05 q 0.25,0.1 0.3,0.45 v 0.05 q -0.1,0.2 -0.35,0.3 H 1038 q -0.25,-0.05 -0.45,-0.25 0,-0.2 0,-0.4 0.1,-0.25 0.5,-0.2 m 26.55,2.55 v -0.05 q 0.35,-0.25 0.8,0 0.5,0.3 0.8,0.95 0,0.15 0,0.35 -0.15,0.35 -0.45,0.55 -0.1,0 -0.25,0 h -0.05 q -0.8,-0.5 -0.85,-1.8 m -10.4,0.75 v -0.05 q -0.05,-0.05 -0.1,-0.05 v -0.05 q 0,-0.15 0,-0.25 0.1,-0.45 0.55,-0.6 0.1,0 0.15,0 0.1,0.05 0.1,0.15 0.05,0.55 -0.2,0.8 -0.25,0.15 -0.5,0.05 m -3.95,-16.5 q -0.25,-1.05 -1.15,-1.5 -0.4,0 -0.7,0.05 -1.95,0.7 -2.5,2.8 0,0.7 0.2,1.2 0.3,0.85 1.2,1.05 1.25,0.3 2.15,-0.2 0.9,-0.5 0.95,-1.65 0.1,-1 -0.15,-1.75 m -1.55,-3 q -0.05,0.3 0.15,0.35 0.35,-0.1 0.35,-0.55 h -0.05 q -0.3,-0.05 -0.4,0.15 0,0.05 -0.05,0.05 m 6.3,5.15 q -0.25,0 -0.45,-0.1 -0.5,-0.05 -1.15,0.1 -0.35,0.1 -0.7,0.25 -0.55,0.2 -0.9,0.55 -0.35,0.4 -0.75,0.8 -0.35,0.2 -0.7,0.4 -0.2,0 -0.3,0 v 0.05 q -0.25,0.1 -0.65,0.2 -0.05,0.15 -0.3,0.1 -0.1,0.15 -0.35,0.15 -0.55,0.35 -0.9,0.95 -0.05,0.05 -0.1,0.1 h -0.05 q -0.05,0.05 0,0.2 h -0.05 q -0.05,0.05 -0.1,0.15 -0.05,0.3 -0.15,0.4 v 0.05 q 0,0.5 -0.15,0.85 0,0.15 0,0.35 0,0.1 0.05,0.25 0,0.45 0.2,0.8 0.15,0.65 0.8,0.85 0.1,0.05 0.15,0.15 0.35,0 0.65,0 1.4,0.25 2.95,0.15 0.5,-0.05 0.75,0.15 0.7,0.2 1.15,0.6 0.05,0.1 0.1,0.1 0.45,0.5 1.05,0.85 l 0.05,0.05 q 0.25,0 0.45,0.15 0.15,-0.05 0.3,0 0.45,0.25 1.2,0.15 h 0.05 q 0.1,-0.05 0.15,-0.15 0.05,0 0.1,0 0.4,-0.15 0.65,-0.55 0.25,-0.4 0.5,-0.8 0.05,-0.2 0.15,-0.3 v -0.05 q 0.05,-0.1 0.05,-0.25 0.1,-0.1 0.15,-0.2 V 296 q 0.05,-0.75 -0.05,-1.45 -0.1,-0.15 -0.15,-0.4 -0.15,-0.1 -0.15,-0.3 -0.15,-0.1 -0.15,-0.3 h -0.05 q -0.05,-0.1 -0.1,-0.1 0,-0.15 -0.15,-0.15 v -0.05 q -0.05,-0.05 -0.05,-0.15 H 1058 q -0.1,-0.15 -0.25,-0.25 -0.25,-0.45 -0.55,-0.9 0,-0.1 0,-0.2 h -0.05 q 0,-0.1 -0.1,-0.15 0,-0.1 0,-0.25 -0.1,-0.2 -0.15,-0.35 v -0.05 q 0,-0.15 0,-0.3 h -0.05 q -0.05,-0.15 -0.15,-0.15 v -0.05 q 0,-0.15 -0.05,-0.3 l -0.05,-0.05 q -0.05,-0.05 -0.05,-0.25 -0.05,0 -0.05,-0.05 -0.15,-0.1 -0.15,-0.25 -0.55,-0.65 -1.35,-1 m 7.05,0.3 q -0.45,-0.55 -1.25,-0.2 -1.8,0.75 -2.3,2.85 -0.05,0.6 0.1,0.95 0.6,1.1 1.9,1.45 0.25,0 0.55,0 1.15,-0.15 1.6,-1 0.25,-0.4 0.25,-1.05 0.05,-1.9 -0.85,-3 m 0.3,-1.75 v 0.05 q 0,0.3 0.05,0.5 0.2,-0.1 0.25,-0.3 v -0.05 q 0,-0.4 -0.3,-0.2 m -4.8,-5.2 q -0.05,0.05 -0.15,0.1 -0.1,0.3 -0.3,0.45 v 0.05 q -0.05,0.05 -0.05,0.2 -0.15,0.1 -0.15,0.35 v 0.05 q -0.2,0.1 -0.2,0.45 -0.1,0.1 -0.15,0.15 v 0.05 q 0,0.5 -0.15,0.8 -0.05,1.05 0.05,1.9 0.1,0.4 0.25,0.65 v 0.05 q 0.1,0.25 0.2,0.4 0.05,0 0.05,0.05 0.4,0.5 1.1,0.6 0.2,0.1 0.45,0.05 0.35,-0.05 0.7,-0.05 v -0.05 q 0.1,-0.05 0.2,-0.15 0.1,0 0.15,0 0.5,-0.35 0.9,-0.75 0.1,-0.3 0.3,-0.55 v -0.05 q 0.05,-0.1 0.05,-0.25 0.1,-0.1 0.15,-0.2 0,-0.25 0.05,-0.4 0.1,-0.5 0,-1.1 0,-0.65 -0.05,-1.4 -0.1,-0.2 -0.15,-0.35 v -0.05 q 0,-0.15 -0.05,-0.25 0,-0.1 -0.05,-0.1 -0.05,-0.3 -0.25,-0.5 -0.1,-0.25 -0.2,-0.5 h -0.05 q -0.1,-0.05 -0.1,-0.2 -0.05,0 -0.05,-0.05 -0.15,-0.1 -0.3,-0.25 -0.25,0 -0.35,-0.2 -0.45,-0.05 -0.8,0.05 v 0.05 q -0.05,0.1 -0.25,0.1 -0.5,0.3 -0.8,0.85 m -1.75,-1.6 q -0.1,-0.05 -0.15,-0.25 -0.35,-0.35 -0.85,-0.55 h -0.05 q -0.2,0 -0.35,0 -0.25,0.1 -0.45,0.2 h -0.05 q -1.05,0.7 -1.9,1.6 l -0.05,0.05 q 0,0.15 -0.15,0.2 0,0.15 -0.15,0.2 0,0.05 -0.05,0.05 -0.1,0.3 -0.3,0.6 -0.05,0.25 -0.2,0.3 0,0.1 -0.05,0.15 -0.1,0.2 -0.1,0.5 v 0.05 q -0.1,0.15 -0.2,0.3 v 0.05 q -0.05,0.8 0.2,1.2 V 285 q -0.05,0.15 0.05,0.25 0.4,0.75 1.15,1.2 0.25,0 0.35,0.15 0.15,0.05 0.35,0.05 0.55,0.05 0.85,-0.15 0.55,-0.15 0.85,-0.55 0.3,-0.4 0.6,-0.8 0.05,-0.1 0.05,-0.2 0.15,-0.2 0.3,-0.4 v -0.05 q 0,-0.25 0.15,-0.35 0,-0.3 0.15,-0.45 0.05,-0.2 0.05,-0.4 0.05,-0.1 0.1,-0.3 0.15,-1.05 0.05,-2.25 v -0.05 q -0.2,-0.1 -0.15,-0.4 z"
         id="path37" />
      <path
         fill="#ff00fe"
         stroke="none"
         d="m 1054.2,302.85 v 0.05 q 0.25,0.1 0.5,-0.05 0.25,-0.25 0.2,-0.8 0,-0.1 -0.1,-0.15 -0.05,0 -0.15,0 -0.45,0.15 -0.55,0.6 0,0.1 0,0.25 v 0.05 q 0.05,0 0.1,0.05 m 10.4,-0.75 v 0.05 q 0.05,1.3 0.85,1.8 h 0.05 q 0.15,0 0.25,0 0.3,-0.2 0.45,-0.55 0,-0.2 0,-0.35 -0.3,-0.65 -0.8,-0.95 -0.45,-0.25 -0.8,0 m -26.5,-2.45 -0.05,-0.05 q -0.4,-0.05 -0.5,0.2 0,0.2 0,0.4 0.2,0.2 0.45,0.25 h 0.05 q 0.25,-0.1 0.35,-0.3 v -0.05 q -0.05,-0.35 -0.3,-0.45 m 5.15,-2.95 q 0.25,-0.45 -0.05,-0.8 -0.1,-0.05 -0.25,0 -0.75,0.25 -1.1,0.95 0,0.1 0,0.2 0.1,0.3 0.35,0.4 0.7,-0.2 1.05,-0.75 m -1.4,-13.85 q 0.45,-0.1 0.45,-0.45 v -0.05 q -0.1,-0.2 -0.25,-0.25 H 1042 q -0.25,0.15 -0.4,0.45 0,0.3 0.25,0.3 m -2.2,0.4 q -0.05,0.65 0.3,0.95 0.35,0.3 0.9,0.1 0.15,-0.15 0.25,-0.3 -0.05,-0.95 -0.75,-1.2 h -0.05 q -0.15,0 -0.3,0 v 0.05 q -0.1,0 -0.2,0.1 V 283 q -0.1,0.1 -0.15,0.25 m 28.05,13.25 q 0,0.15 0,0.3 h 0.05 q 0.15,0.35 0.45,0.5 h 0.05 q 0.15,0 0.35,0 v -0.05 q 0.25,-0.05 0.3,-0.3 -0.1,-0.8 -0.9,-0.7 h -0.05 q -0.15,0.15 -0.25,0.25 m 2.5,-9.1 q 0.15,-0.1 0.25,-0.25 v -0.05 q 0,-0.25 -0.05,-0.45 -0.3,-0.2 -0.8,-0.1 -0.35,0.1 -0.8,0.2 -0.25,0.1 -0.55,0.1 -0.55,0.05 -0.95,0.25 v 0.05 q 0,0.25 0.15,0.35 h 0.05 q 0,0.05 0.05,0.05 1.45,0.1 2.65,-0.15 m -11.6,-12.75 v -0.05 q -0.1,-0.35 -0.45,-0.45 -0.2,0 -0.3,0 h -0.05 q -0.2,0.1 -0.3,0.2 v 0.05 q -0.1,0.2 -0.1,0.4 0,0.3 0.15,0.45 0.85,0.1 1.05,-0.6 m 9.25,7.75 q -0.2,0.1 -0.3,0.25 v 0.05 q 0,0.3 0.3,0.35 h 0.05 q 0.25,-0.05 0.35,-0.35 -0.05,0 -0.05,-0.05 -0.05,-0.25 -0.3,-0.25 h -0.05 m -0.8,0.35 v -0.05 q 0,-0.3 -0.3,-0.4 h -0.05 q -0.15,-0.05 -0.3,0 -0.1,0.15 -0.2,0.25 0,0.2 0.1,0.35 0.2,0.2 0.6,0.1 v -0.05 q 0.1,-0.05 0.15,-0.2 m -2.2,-3.7 q -0.55,0.3 -0.95,0.8 -0.4,0.55 -1,0.85 -0.1,-0.05 -0.15,-0.2 -0.15,-0.55 -0.65,-0.8 -0.15,0 -0.25,0 -0.3,0.15 -0.65,0.2 -1.1,-0.75 -1.75,-1.9 0.05,-0.05 0.05,-0.1 0.25,-0.45 0.5,-0.85 0.3,-0.5 0.15,-1.2 -0.15,-0.15 -0.3,-0.25 -1.45,0.05 -2.25,0.7 -0.45,0.35 -1.25,0.45 -0.8,-0.55 -0.75,-1.9 0.05,-1.35 0,-2.5 h -0.05 q -0.25,-0.4 -0.75,-0.25 -0.1,0.1 -0.2,0.2 -0.05,0.1 -0.05,0.25 -0.1,1.5 0,3 0.1,0.65 0.2,1.2 0.2,1.3 -1,1.3 v 0.05 q -0.2,0.2 -0.45,0.35 -0.15,-0.05 -0.25,-0.15 -0.3,-0.3 -0.55,-0.6 -0.35,-0.4 -0.7,-0.85 -1.1,-1.55 -1.55,-3.7 -0.15,-0.6 -0.6,-0.85 h -0.05 q -0.3,0.1 -0.4,0.4 0,0.15 0,0.25 0.45,1.1 0.9,2.25 0.35,0.9 0.8,1.85 0.2,0.5 0.15,1.05 H 1051 q -0.1,0.15 -0.3,0.15 -0.2,-0.05 -0.3,-0.2 -0.05,-0.15 -0.15,-0.4 -0.3,-1.15 -0.8,-2.15 -0.1,-0.2 -0.2,-0.35 -0.25,-0.45 -0.85,-0.5 -0.3,0.2 -0.45,0.45 -0.1,0.5 0.1,0.85 0.8,1.65 1.6,3.3 0,0.2 -0.05,0.35 -0.05,0.05 -0.15,0.05 -0.55,0.1 -0.85,0.4 v 0.05 q 0,0.55 -0.05,1.05 h -0.05 q -0.2,0.2 -0.65,0.05 -0.15,-0.1 -0.25,-0.35 -0.25,-0.7 -0.9,-1.05 -0.2,-0.1 -0.4,-0.2 -0.35,-0.15 -0.6,-0.45 -1.1,-1.5 -2.8,-2.45 -0.35,-0.15 -0.7,-0.25 -1.2,-0.25 -1.7,0.65 -0.2,0.4 0.05,0.8 0.25,0.45 0.65,0.7 0.7,0.45 1.4,0.85 0.85,0.5 1.55,1.05 0.75,0.65 1.25,1.45 0,0.35 -0.05,0.65 -0.1,0.15 -0.2,0.25 -0.25,0.05 -0.6,0.05 -0.8,0.1 -1.35,0.45 -0.05,0.05 -0.05,0.1 0,1 0.45,1.7 0.2,0.3 0.2,0.8 -0.05,0.7 -0.4,1.15 0.35,0.55 0.25,1.45 -0.2,0.35 -0.7,0.45 -0.3,0.1 -0.65,0.15 -1.25,0.3 -2.75,0.25 -0.15,0 -0.3,-0.05 -0.65,-0.3 -1.25,-0.05 0,0.05 -0.05,0.05 -0.25,0.2 -0.3,0.6 0,0.3 0.1,0.45 0.15,0.2 0.5,0.25 0.5,0.05 0.9,-0.05 1.45,-0.2 2.7,0.1 0.2,0 0.25,0.05 0.9,0.15 1.3,0.75 0,0.55 -0.5,0.75 -0.8,0.25 -1.8,0.3 -1.3,0 -1.85,0.8 -0.15,0.2 -0.15,0.55 -0.1,1.1 0.95,1.25 1.1,0.1 1.7,-0.45 0.35,-0.35 0.9,-0.55 0.75,-0.25 1.15,0.15 v 0.05 q 0.2,0.35 0.15,0.9 h 0.05 q 0,0.2 0.15,0.3 h 0.05 q 0.15,0.05 0.35,0.15 -0.05,0.2 0,0.55 0.35,0.15 0.5,0.45 -0.05,0.25 -0.25,0.4 -0.45,0.4 -1.05,0.75 -0.75,0.45 -1.4,1 -1.4,1.25 -2.55,2.65 -0.15,0.2 -0.35,0.4 -0.75,0.5 -0.7,1.9 0.2,0.5 0.7,0.65 0.15,0.05 0.4,0 1.05,-0.15 1.35,-1.2 0.35,-1.25 1.1,-2.15 0.25,-0.25 0.55,-0.4 1.3,-0.8 2.4,-1.7 0.2,-0.1 0.35,-0.3 0.35,-0.35 0.75,-0.6 0.3,0.4 0.65,0.7 h 0.05 q 0.15,0 0.3,0 l 0.05,-0.05 q 0.1,-0.05 0.2,-0.15 0.25,-0.25 0.75,-0.3 0.45,0.2 0.35,0.9 -0.15,0.9 -0.15,1.9 h 0.05 q 0,0.1 0.05,0.15 v 0.05 q 0.2,0.15 0.35,0.2 h 0.05 q 0.15,0 0.35,0 0.6,-0.4 0.5,-1.55 0,-0.4 0.15,-0.6 0.95,0.25 1.35,1.1 0.15,0.45 0.05,1 -0.1,0.6 -0.2,1.35 -0.2,1.15 -0.45,2.25 -0.2,1.2 0.45,1.75 0.35,0.05 0.55,0 0.5,-0.55 0.6,-1.55 0.25,-1.75 0.45,-3.45 0.3,-1.7 1.7,-2.25 0.25,-0.1 0.6,-0.05 1.1,0.2 1.55,1.05 0.25,0.4 0.2,1.05 0,1 0.05,1.9 h 0.05 q 0.1,0.1 0.2,0.25 h 0.05 q 0.4,0.1 0.8,0 v -0.05 q 0.2,-0.1 0.25,-0.25 0.15,-0.7 -0.05,-1.3 -0.15,-0.65 -0.3,-1.3 -0.25,-0.95 0.35,-1.4 0.2,-0.15 0.5,-0.05 0.85,0.15 1.35,0.7 0.05,0.05 0.05,0.1 0.25,0.4 0.5,0.85 0.8,1.45 1.2,3.35 0.2,1.1 1.05,1.6 0.7,0 0.85,-0.55 0.25,-0.8 -0.1,-1.4 -0.65,-1.1 -1.25,-2.05 -0.55,-0.8 -0.65,-1.95 -0.1,-0.7 0,-1.2 0,-0.05 0.05,-0.05 0.15,-0.15 0.4,-0.1 0.1,-0.05 0.2,-0.05 v -0.05 q 0.25,-0.4 0.15,-1.2 0.1,-0.1 0.25,-0.2 0.4,0.05 0.55,0.3 0.1,0.25 0.25,0.5 0.45,0.95 1.2,1.55 0.2,0 0.35,-0.05 v -0.05 q 0.2,-0.05 0.25,-0.25 -0.15,-0.9 -0.55,-1.5 -0.05,-0.1 -0.15,-0.2 -0.3,-0.35 -0.25,-0.85 0.15,-0.05 0.25,0.05 0.45,0.5 1.15,0.7 h 0.05 q 0.25,-0.1 0.35,-0.35 -0.35,-0.7 -0.95,-1 0,-0.05 -0.05,-0.05 -0.05,-0.1 -0.1,-0.3 0.1,-0.15 0.25,-0.25 0.25,0.05 0.45,0.15 0.55,0.25 1.35,0.3 0.25,-0.1 0.35,-0.35 v -0.05 q 0,-0.2 -0.05,-0.4 -0.2,-0.2 -0.4,-0.4 -0.15,-0.2 -0.45,-0.3 -0.6,-0.2 -0.8,-0.75 v -0.05 q 0.35,-0.65 0.75,-1.2 0.05,-0.25 -0.05,-0.45 -0.3,-0.4 -0.35,-1.05 0.1,-0.25 0.25,-0.4 0.15,-0.15 0.35,-0.3 0.7,-0.4 1,-1.15 -0.1,-0.4 -0.35,-0.65 -0.4,-0.4 -0.65,-0.95 -0.25,-0.6 0,-1.25 h -0.05 q 0,-0.25 -0.15,-0.35 -0.65,-0.15 -0.9,-0.7 0,-0.1 0.05,-0.2 0.05,-0.1 0.1,-0.15 0.4,-0.35 0.6,-0.95 -0.2,-0.5 -0.85,-0.6 -1.1,-0.05 -1.7,-0.6 -0.3,-0.25 -0.2,-0.65 0.1,-0.5 0.4,-0.95 0.45,-0.8 0.85,-1.7 v -0.05 q 0,-0.2 -0.05,-0.25 0,-0.05 -0.1,0 m -9.2,1 q 0.05,0.2 0.15,0.25 h 0.05 q -0.05,0.3 0.15,0.4 v 0.05 q 0.1,1.2 -0.05,2.25 -0.05,0.2 -0.1,0.3 0,0.2 -0.05,0.4 -0.15,0.15 -0.15,0.45 -0.15,0.1 -0.15,0.35 v 0.05 q -0.15,0.2 -0.3,0.4 0,0.1 -0.05,0.2 -0.3,0.4 -0.6,0.8 -0.3,0.4 -0.85,0.55 -0.3,0.2 -0.85,0.15 -0.2,0 -0.35,-0.05 -0.1,-0.15 -0.35,-0.15 -0.75,-0.45 -1.15,-1.2 -0.1,-0.1 -0.05,-0.25 v -0.05 q -0.25,-0.4 -0.2,-1.2 v -0.05 q 0.1,-0.15 0.2,-0.3 v -0.05 q 0,-0.3 0.1,-0.5 0.05,-0.05 0.05,-0.15 0.15,-0.05 0.2,-0.3 0.2,-0.3 0.3,-0.6 0.05,0 0.05,-0.05 0.15,-0.05 0.15,-0.2 0.15,-0.05 0.15,-0.2 l 0.05,-0.05 q 0.85,-0.9 1.9,-1.6 h 0.05 q 0.2,-0.1 0.45,-0.2 0.15,0 0.35,0 h 0.05 q 0.5,0.2 0.85,0.55 m 1.75,1.95 q 0.1,-0.05 0.15,-0.1 0.3,-0.55 0.8,-0.85 0.2,0 0.25,-0.1 v -0.05 q 0.35,-0.1 0.8,-0.05 0.1,0.2 0.35,0.2 0.15,0.15 0.3,0.25 0,0.05 0.05,0.05 0,0.15 0.1,0.2 h 0.05 q 0.1,0.25 0.2,0.5 0.2,0.2 0.25,0.5 0.05,0 0.05,0.1 0.05,0.1 0.05,0.25 v 0.05 q 0.05,0.15 0.15,0.35 0.05,0.75 0.05,1.4 0.1,0.6 0,1.1 -0.05,0.15 -0.05,0.4 -0.05,0.1 -0.15,0.2 0,0.15 -0.05,0.25 v 0.05 q -0.2,0.25 -0.3,0.55 -0.4,0.4 -0.9,0.75 -0.05,0 -0.15,0 -0.1,0.1 -0.2,0.15 v 0.05 q -0.35,0 -0.7,0.05 -0.25,0.05 -0.45,-0.05 -0.7,-0.1 -1.1,-0.6 0,-0.05 -0.05,-0.05 -0.1,-0.15 -0.2,-0.4 v -0.05 q -0.15,-0.25 -0.25,-0.65 -0.1,-0.85 -0.05,-1.9 0.15,-0.3 0.15,-0.8 v -0.05 q 0.05,-0.05 0.15,-0.15 0,-0.35 0.2,-0.45 v -0.05 q 0,-0.25 0.15,-0.35 0,-0.15 0.05,-0.2 v -0.05 q 0.2,-0.15 0.3,-0.45 m 4.95,5.15 v -0.05 q 0.3,-0.2 0.3,0.2 v 0.05 q -0.05,0.2 -0.25,0.3 -0.05,-0.2 -0.05,-0.5 m -1.55,1.5 q 0.8,-0.35 1.25,0.2 0.9,1.1 0.85,3 0,0.65 -0.25,1.05 -0.45,0.85 -1.6,1 -0.3,0 -0.55,0 -1.3,-0.35 -1.9,-1.45 -0.15,-0.35 -0.1,-0.95 0.5,-2.1 2.3,-2.85 m -6.25,-0.2 q 0.2,0.1 0.45,0.1 0.8,0.35 1.35,1 0,0.15 0.15,0.25 0,0.05 0.05,0.05 0,0.2 0.05,0.25 l 0.05,0.05 q 0.05,0.15 0.05,0.3 v 0.05 q 0.1,0 0.15,0.15 h 0.05 q 0,0.15 0,0.3 V 291 q 0.05,0.15 0.15,0.35 0,0.15 0,0.25 0.1,0.05 0.1,0.15 h 0.05 q 0,0.1 0,0.2 0.3,0.45 0.55,0.9 0.15,0.1 0.25,0.25 h 0.05 q 0,0.1 0.05,0.15 v 0.05 q 0.15,0 0.15,0.15 0.05,0 0.1,0.1 h 0.05 q 0,0.2 0.15,0.3 0,0.2 0.15,0.3 0.05,0.25 0.15,0.4 0.1,0.7 0.05,1.45 v 0.05 q -0.05,0.1 -0.15,0.2 0,0.15 -0.05,0.25 v 0.05 q -0.1,0.1 -0.15,0.3 -0.25,0.4 -0.5,0.8 -0.25,0.4 -0.65,0.55 -0.05,0 -0.1,0 -0.05,0.1 -0.15,0.15 h -0.05 q -0.75,0.1 -1.2,-0.15 -0.15,-0.05 -0.3,0 -0.2,-0.15 -0.45,-0.15 L 1055.1,298 q -0.6,-0.35 -1.05,-0.85 -0.05,0 -0.1,-0.1 -0.45,-0.4 -1.15,-0.6 -0.25,-0.2 -0.75,-0.15 -1.55,0.1 -2.95,-0.15 -0.3,0 -0.65,0 -0.05,-0.1 -0.15,-0.15 -0.65,-0.2 -0.8,-0.85 -0.2,-0.35 -0.2,-0.8 -0.05,-0.15 -0.05,-0.25 0,-0.2 0,-0.35 0.15,-0.35 0.15,-0.85 v -0.05 q 0.1,-0.1 0.15,-0.4 0.05,-0.1 0.1,-0.15 h 0.05 q -0.05,-0.15 0,-0.2 h 0.05 q 0.05,-0.05 0.1,-0.1 0.35,-0.6 0.9,-0.95 0.25,0 0.35,-0.15 0.25,0.05 0.3,-0.1 0.4,-0.1 0.65,-0.2 v -0.05 q 0.1,0 0.3,0 0.35,-0.2 0.7,-0.4 0.4,-0.4 0.75,-0.8 0.35,-0.35 0.9,-0.55 0.35,-0.15 0.7,-0.25 0.65,-0.15 1.15,-0.1 m -5.7,-4.7 q -0.2,-0.05 -0.15,-0.35 0.05,0 0.05,-0.05 0.1,-0.2 0.4,-0.15 h 0.05 q 0,0.45 -0.35,0.55 m 0.25,1.15 q 0.9,0.45 1.15,1.5 0.25,0.75 0.15,1.75 -0.05,1.15 -0.95,1.65 -0.9,0.5 -2.15,0.2 -0.9,-0.2 -1.2,-1.05 -0.2,-0.5 -0.2,-1.2 0.55,-2.1 2.5,-2.8 0.3,-0.05 0.7,-0.05 m 16.45,-7.4 v 0.05 q -0.15,0.1 -0.25,0.3 v 0.05 q 0,0.2 0,0.35 v 0.05 q 0.1,0.15 0.2,0.2 h 0.05 q 0.6,-0.05 0.8,-0.6 v -0.05 q 0,-0.15 -0.05,-0.3 h -0.05 q -0.3,-0.2 -0.7,-0.05 z"
         id="path39" />
    </g>
    <g
       id="Layer1_8_FILL">
      <path
         fill="#cccccc"
         stroke="none"
         d="m 1035.55,316.35 v 36.5 h 36.5 v -36.5 h -36.5 m 7.85,10.6 q 0,-0.95 0,-1.95 0.1,-0.25 0.6,-0.2 0.6,0 1.3,0 2.5,0 5.1,0 1.7,0 3.45,0 1,-0.4 1.4,-1.35 0.25,-0.5 0.5,-1 0.9,-1.55 1.75,-3.1 0.35,-0.5 0.85,-0.85 2.5,0 5.05,-0.05 0.65,0 1.15,0.1 0.1,0.5 0.1,1.1 -0.05,2.3 -0.05,4.65 -0.9,1.5 -1.75,3.05 -0.9,1.55 -1.75,3.1 -0.9,1.5 -1.8,3.1 -0.2,0.45 -0.45,0.9 -0.15,0.25 -0.3,0.45 -0.1,0.25 -0.15,0.45 0.15,0.35 0.45,0.55 2.45,0.05 5.05,-0.05 0.35,0 0.65,0.1 0.1,0.5 0.1,1.15 -0.05,2.4 -0.05,4.75 0.05,1 -0.05,1.95 v 0.05 q -2.5,0.1 -5.1,0.05 -2.5,0 -5.05,0 -0.15,0 -0.3,0 -0.9,0.35 -1.35,1.2 -0.35,0.8 -0.8,1.55 -0.9,1.6 -1.8,3.05 -0.05,0.15 -0.15,0.2 -0.15,0.15 -0.35,0.3 -1.15,0.05 -2.45,0.05 -1.9,0 -3.7,0 -0.05,0 -0.05,-0.05 -0.1,-0.5 -0.1,-1.15 0,-2.35 0.1,-4.65 v -0.05 q 0,-0.1 0.1,-0.2 0.85,-1.55 1.75,-3.1 0.85,-1.55 1.7,-3.1 0.9,-1.55 1.8,-3.15 0.4,-0.65 0.75,-1.45 -0.1,-0.3 -0.35,-0.5 -1.15,-0.05 -2.55,0 -1.6,0 -3.2,-0.05 -0.1,-0.45 -0.1,-1.1 0.05,-2.4 0.05,-4.75 z"
         id="path42" />
      <path
         fill="#ff00fe"
         stroke="none"
         d="m 1043.4,325 q 0,1 0,1.95 0,2.35 -0.05,4.75 0,0.65 0.1,1.1 1.6,0.05 3.2,0.05 1.4,-0.05 2.55,0 0.25,0.2 0.35,0.5 -0.35,0.8 -0.75,1.45 -0.9,1.6 -1.8,3.15 -0.85,1.55 -1.7,3.1 -0.9,1.55 -1.75,3.1 -0.1,0.1 -0.1,0.2 v 0.05 q -0.1,2.3 -0.1,4.65 0,0.65 0.1,1.15 0,0.05 0.05,0.05 1.8,0 3.7,0 1.3,0 2.45,-0.05 0.2,-0.15 0.35,-0.3 0.1,-0.05 0.15,-0.2 0.9,-1.45 1.8,-3.05 0.45,-0.75 0.8,-1.55 0.45,-0.85 1.35,-1.2 0.15,0 0.3,0 2.55,0 5.05,0 2.6,0.05 5.1,-0.05 v -0.05 q 0.1,-0.95 0.05,-1.95 0,-2.35 0.05,-4.75 0,-0.65 -0.1,-1.15 -0.3,-0.1 -0.65,-0.1 -2.6,0.1 -5.05,0.05 -0.3,-0.2 -0.45,-0.55 0.05,-0.2 0.15,-0.45 0.15,-0.2 0.3,-0.45 0.25,-0.45 0.45,-0.9 0.9,-1.6 1.8,-3.1 0.85,-1.55 1.75,-3.1 0.85,-1.55 1.75,-3.05 0,-2.35 0.05,-4.65 0,-0.6 -0.1,-1.1 -0.5,-0.1 -1.15,-0.1 -2.55,0.05 -5.05,0.05 -0.5,0.35 -0.85,0.85 -0.85,1.55 -1.75,3.1 -0.25,0.5 -0.5,1 -0.4,0.95 -1.4,1.35 -1.75,0 -3.45,0 -2.6,0 -5.1,0 -0.7,0 -1.3,0 -0.5,-0.05 -0.6,0.2 z"
         id="path44" />
    </g>
    <g
       id="Layer1_9_FILL">
      <path
         fill="#ff00ff"
         stroke="none"
         d="m 1088.9,461.45 v -36.5 h -36.5 v 36.5 h 36.5 m -22.7,-29.55 q 2.6,-1.15 5.95,-1.15 1.9,0 4.15,0.45 v -2.5 q 0.2,-0.7 0.55,-1.1 0.4,-0.5 1.15,-0.55 0.7,-0.1 1.15,0.4 0.35,0.3 0.45,0.9 0.05,0.6 -0.05,1.3 -0.15,0.75 -0.4,1.4 -0.25,0.7 -0.3,0.8 0.15,0.1 0.35,0.15 4.55,2.1 4.55,6.9 0,2.45 -1.35,4.45 -2.05,3.15 -6.65,3.75 -2,0.2 -3.35,1.9 -0.35,0.5 -0.8,1.35 -0.9,1.6 -0.5,2.5 0.4,0.85 1.1,1.25 0.75,0.4 1.6,0.25 0.85,-0.2 1.9,-0.8 1,-0.6 0.85,-1.5 -0.85,-2.35 0.5,-3.35 1.35,-1.05 2.2,-1 0.85,0 1.55,0.45 0.7,0.35 1,1.2 0.3,0.8 0.45,1.75 0.1,0.85 -0.75,3.2 -0.9,2.25 -4,3.9 -3.1,1.65 -7.55,1.05 -2.85,-0.2 -5.7,-1.75 -2.9,-1.6 -3.7,-4.9 -0.9,-3.35 -1.1,-7.05 -0.55,-7.85 3.55,-11.65 -0.4,-1.05 -0.8,-2.5 -0.35,-1.65 -0.3,-2.7 0.2,-1.6 1.2,-2.35 0.75,-0.5 1.4,-0.3 0.9,0.25 1.05,1.4 0.05,0.25 0.05,1.9 -0.1,1.45 0.6,2.55 z"
         id="path47" />
      <path
         fill="#3d3f3e"
         stroke="none"
         d="m 1072.15,430.75 q -3.35,0 -5.95,1.15 -0.7,-1.1 -0.6,-2.55 0,-1.65 -0.05,-1.9 -0.15,-1.15 -1.05,-1.4 -0.65,-0.2 -1.4,0.3 -1,0.75 -1.2,2.35 -0.05,1.05 0.3,2.7 0.4,1.45 0.8,2.5 -4.1,3.8 -3.55,11.65 0.2,3.7 1.1,7.05 0.8,3.3 3.7,4.9 2.85,1.55 5.7,1.75 4.45,0.6 7.55,-1.05 3.1,-1.65 4,-3.9 0.85,-2.35 0.75,-3.2 -0.15,-0.95 -0.45,-1.75 -0.3,-0.85 -1,-1.2 -0.7,-0.45 -1.55,-0.45 -0.85,-0.05 -2.2,1 -1.35,1 -0.5,3.35 0.15,0.9 -0.85,1.5 -1.05,0.6 -1.9,0.8 -0.85,0.15 -1.6,-0.25 -0.7,-0.4 -1.1,-1.25 -0.4,-0.9 0.5,-2.5 0.45,-0.85 0.8,-1.35 1.35,-1.7 3.35,-1.9 4.6,-0.6 6.65,-3.75 1.35,-2 1.35,-4.45 0,-4.8 -4.55,-6.9 -0.2,-0.05 -0.35,-0.15 0.05,-0.1 0.3,-0.8 0.25,-0.65 0.4,-1.4 0.1,-0.7 0.05,-1.3 -0.1,-0.6 -0.45,-0.9 -0.45,-0.5 -1.15,-0.4 -0.75,0.05 -1.15,0.55 -0.35,0.4 -0.55,1.1 v 2.5 q -2.25,-0.45 -4.15,-0.45 z"
         id="path49" />
    </g>
    <g
       id="Layer1_10_FILL">
      <path
         fill="#3c3f3e"
         stroke="none"
         d="m 1352.65,186.25 h -36.5 v 36.5 h 36.5 v -36.5 m -33.2,3.05 q 2.6,0.05 5.2,0.05 1.9,0 3.8,0 1.1,1.5 2.2,3 1.15,1.5 2.25,3 1.1,1.5 2.2,2.95 0.8,1.05 1.6,2 0.35,-0.25 0.7,-0.6 1.2,-1.4 2.45,-2.75 1.25,-1.3 2.5,-2.7 1.25,-1.35 2.55,-2.7 1,-1.05 1.9,-2.2 1.45,-0.05 2.8,0.05 -0.1,0.4 -0.4,0.6 -0.1,0.1 -0.15,0.15 -1.3,1.35 -2.55,2.7 -1.25,1.4 -2.5,2.75 -1.2,1.35 -2.5,2.7 -1.25,1.35 -2.55,2.7 -0.45,0.55 -0.9,1.15 1.05,1.55 2.15,3.05 1.15,1.45 2.25,2.95 1.15,1.5 2.25,3 1.1,1.5 2.25,3 1.1,1.5 2.25,2.95 1,1.35 1.95,2.7 v 0.05 q -0.35,0.15 -0.9,0.15 -2.65,-0.05 -5.25,-0.05 -1.75,0 -3.45,-0.05 -1.15,-1.45 -2.25,-2.95 -1.1,-1.5 -2.25,-3 -1.05,-1.5 -2.2,-3 -1.1,-1.5 -2.25,-2.9 -1.35,1.25 -2.6,2.65 -1.25,1.35 -2.5,2.7 -1.25,1.35 -2.5,2.7 -1.25,1.4 -2.5,2.75 -0.5,0.55 -1.05,1.1 -1.35,0 -2.65,-0.1 -0.05,0 -0.05,-0.05 1.2,-1.35 2.5,-2.7 1.25,-1.4 2.5,-2.75 1.25,-1.35 2.5,-2.7 1.3,-1.35 2.55,-2.7 1.25,-1.35 2.45,-2.75 -0.55,-0.8 -1.1,-1.55 -1.15,-1.45 -2.25,-2.95 -1.1,-1.5 -2.2,-3 -1.15,-1.5 -2.25,-3 -1.15,-1.5 -2.25,-3 -1.1,-1.5 -2.25,-2.95 -0.15,-0.1 -0.15,-0.35 0.3,-0.1 0.65,-0.1 m 25.6,26.05 0.1,0.15 q -0.05,-0.1 -0.05,-0.15 h -0.05 m -1,-1.4 q -0.047,0 -0.1,-0.05 l 0.15,0.15 q -0.05,-0.0531 -0.05,-0.1 m -1.05,-1.35 0.05,0.05 V 212.6 H 1343 m -10.6,-14.1 0.15,0.15 q -0.05,-0.0531 -0.05,-0.15 -0.05,0 -0.1,0 m 9.25,12.3 0.05,0.1 v -0.05 q 0,-0.05 -0.05,-0.05 m -0.3,-0.45 q -0.05,-0.05 -0.1,-0.05 l 0.1,0.1 v -0.05 m -1.7,-2.3 h -0.05 l 0.05,0.05 v -0.05 m -1.8,-2.3 0.15,0.15 q -0.05,-0.0531 -0.05,-0.1 -0.05,0 -0.05,-0.05 h -0.05 m -8.5,-11.4 -0.05,-0.05 q -0.05,0 -0.05,-0.05 v -0.05 l -0.15,-0.2 v -0.05 h -0.05 l -0.6,-0.8 -0.1,-0.1 q -0.15,-0.2 -0.25,-0.4 l -0.1,-0.1 q -0.05,-0.1 -0.1,-0.2 h -0.05 l -0.15,-0.2 h -0.05 q -0.15,-0.25 -0.35,-0.5 l -4.1,-0.05 19.45,26.05 4.15,0.05 v -0.05 q -0.1,-0.05 -0.1,-0.1 h -0.05 q -0.1,-0.15 -0.2,-0.3 l -0.1,-0.1 -1.85,-2.5 q -0.05,0 -0.05,-0.05 l -0.15,-0.2 q -0.1,-0.1 -0.15,-0.2 l -2.45,-3.3 -0.45,-0.6 q 0,-0.1 -0.05,-0.1 l -0.5,-0.6 v -0.1 l -0.05,-0.05 q 0,-0.05 -0.05,-0.1 l -0.05,-0.05 0.1,0.2 -0.55,-0.75 q -0.1,-0.05 -0.15,-0.2 l -0.05,-0.1 q -0.15,-0.1 -0.25,-0.3 v -0.05 l -0.1,-0.05 v -0.1 l -0.05,-0.05 q -0.05,0 -0.05,-0.05 l -0.5,-0.65 v -0.05 q 0,-0.05 -0.1,-0.1 l -0.35,-0.5 q -0.05,0 -0.05,-0.05 l -0.05,-0.05 q -0.05,-0.05 -0.1,-0.1 -0.15,-0.15 -0.25,-0.35 l -0.2,-0.25 -0.45,-0.65 -0.05,-0.05 q -0.1,-0.1 -0.2,-0.25 l -0.2,-0.25 q 0,-0.1 -0.1,-0.15 l -1.7,-2.25 q -0.15,-0.2 -0.3,-0.4 l -0.3,-0.4 v -0.05 q 0,-0.05 -0.05,-0.05 l -0.05,-0.05 -0.7,-0.9 v -0.05 q -0.05,-0.1 -0.1,-0.15 h -0.05 v -0.05 l -0.1,-0.1 v -0.05 q -0.05,-0.05 -0.1,-0.15 h -0.05 l -0.05,-0.05 -0.1,-0.15 q 0,-0.1 -0.05,-0.1 l -0.75,-0.95 -0.05,-0.1 q -0.05,-0.05 -0.05,-0.1 v -0.05 q -0.05,-0.05 -0.1,-0.05 l -0.15,-0.25 -0.05,-0.05 q 0,-0.05 -0.05,-0.1 -0.1,-0.1 -0.2,-0.25 l -0.05,-0.05 z"
         id="path52" />
      <path
         fill="#ff00fe"
         stroke="none"
         d="m 1324.65,189.35 q -2.6,0 -5.2,-0.05 -0.35,0 -0.65,0.1 0,0.25 0.15,0.35 1.15,1.45 2.25,2.95 1.1,1.5 2.25,3 1.1,1.5 2.25,3 1.1,1.5 2.2,3 1.1,1.5 2.25,2.95 0.55,0.75 1.1,1.55 -1.2,1.4 -2.45,2.75 -1.25,1.35 -2.55,2.7 -1.25,1.35 -2.5,2.7 -1.25,1.35 -2.5,2.75 -1.3,1.35 -2.5,2.7 0,0.05 0.05,0.05 1.3,0.1 2.65,0.1 0.55,-0.55 1.05,-1.1 1.25,-1.35 2.5,-2.75 1.25,-1.35 2.5,-2.7 1.25,-1.35 2.5,-2.7 1.25,-1.4 2.6,-2.65 1.15,1.4 2.25,2.9 1.15,1.5 2.2,3 1.15,1.5 2.25,3 1.1,1.5 2.25,2.95 1.7,0.05 3.45,0.05 2.6,0 5.25,0.05 0.55,0 0.9,-0.15 v -0.05 q -0.95,-1.35 -1.95,-2.7 -1.15,-1.45 -2.25,-2.95 -1.15,-1.5 -2.25,-3 -1.1,-1.5 -2.25,-3 -1.1,-1.5 -2.25,-2.95 -1.1,-1.5 -2.15,-3.05 0.45,-0.6 0.9,-1.15 1.3,-1.35 2.55,-2.7 1.3,-1.35 2.5,-2.7 1.25,-1.35 2.5,-2.75 1.25,-1.35 2.55,-2.7 0.05,-0.05 0.15,-0.15 0.3,-0.2 0.4,-0.6 -1.35,-0.1 -2.8,-0.05 -0.9,1.15 -1.9,2.2 -1.3,1.35 -2.55,2.7 -1.25,1.4 -2.5,2.7 -1.25,1.35 -2.45,2.75 -0.35,0.35 -0.7,0.6 -0.8,-0.95 -1.6,-2 -1.1,-1.45 -2.2,-2.95 -1.1,-1.5 -2.25,-3 -1.1,-1.5 -2.2,-3 -1.9,0 -3.8,0 m 4.65,4.95 0.05,0.05 2.35,3.15 0.05,0.05 q 0.1,0.15 0.2,0.25 0.05,0.05 0.05,0.1 l 0.05,0.05 0.15,0.25 q 0.05,0 0.1,0.05 v 0.05 q 0,0.05 0.05,0.1 l 0.05,0.1 q 0.05,0 0.1,0 0,0.0969 0.05,0.15 l -0.15,-0.15 0.75,0.95 q 0.05,0 0.05,0.1 l 0.1,0.15 0.05,0.05 h 0.05 q 0.05,0.1 0.1,0.15 v 0.05 l 0.1,0.1 v 0.05 h 0.05 q 0.05,0.05 0.1,0.15 v 0.05 l 0.7,0.9 0.05,0.05 q 0.05,0 0.05,0.05 v 0.05 l 0.3,0.4 q 0.15,0.2 0.3,0.4 l 1.7,2.25 q 0.1,0.05 0.1,0.15 l 0.2,0.25 q 0.1,0.15 0.2,0.25 l 0.05,0.05 0.45,0.65 h 0.05 q 0,0.05 0.05,0.05 0,0.0469 0.05,0.1 l -0.15,-0.15 0.2,0.25 q 0.1,0.2 0.25,0.35 0.05,0.05 0.1,0.1 l 0.05,0.05 q 0,0.05 0.05,0.05 l 0.35,0.5 q 0.1,0.05 0.1,0.1 v 0.05 l 0.5,0.65 q 0,0.05 0.05,0.05 l 0.05,0.05 v 0.1 l 0.1,0.05 -0.05,-0.05 h 0.05 v 0.05 0.05 q 0.1,0.2 0.25,0.3 l 0.05,0.1 q 0.05,0.15 0.15,0.2 l 0.55,0.75 -0.1,-0.2 0.05,0.05 q 0.05,0.05 0.05,0.1 l 0.05,0.05 v 0.1 l 0.5,0.6 q 0.05,0 0.05,0.1 0.05,0 0.1,0.05 v 0.05 l -0.1,-0.1 0.45,0.6 -0.05,-0.1 q 0.05,0 0.05,0.05 v 0.05 l 2.45,3.3 q 0.05,0.1 0.15,0.2 l 0.15,0.2 q 0,0.05 0.05,0.05 l 1.85,2.5 0.1,0.1 q 0.1,0.15 0.2,0.3 h 0.05 q 0,0.05 0.1,0.1 v 0.05 l -4.15,-0.05 -19.45,-26.05 4.1,0.05 q 0.2,0.25 0.35,0.5 h 0.05 l 0.15,0.2 h 0.05 q 0.05,0.1 0.1,0.2 l 0.1,0.1 q 0.1,0.2 0.25,0.4 l 0.1,0.1 0.6,0.8 h 0.05 V 194 l 0.15,0.2 v 0.05 q 0,0.05 0.05,0.05 m 13.75,18.35 -0.05,-0.05 h 0.05 v 0.05 m 0.9,1.25 q 0.053,0.05 0.1,0.05 0,0.0469 0.05,0.1 l -0.15,-0.15 m 1.2,1.6 -0.1,-0.15 h 0.05 q 0,0.05 0.05,0.15 z"
         id="path54" />
    </g>
    <g
       id="Layer1_11_FILL">
      <path
         fill="#3c3f3e"
         stroke="none"
         d="m 1316.15,257.25 v 36.5 h 36.5 v -36.5 h -36.5 m 5.8,6.75 q 1.55,-1.8 4.3,-2.4 0.5,-0.15 1.05,-0.2 v -0.05 q 0.15,0 0.3,0 v -0.05 q 0.2,0 0.35,0 h 0.1 v -0.05 q 0.15,0 0.3,0 0.15,0 0.3,0 h 0.1 q 0.25,0 0.45,0 h 0.05 q 0.15,0 0.25,0 h 0.05 q 0.15,0 0.25,0 h 0.05 v -0.05 q 0.3,0 0.55,0 h 0.05 q 0.3,0 0.55,0 h 0.05 q 0.45,0 0.85,0 h 0.05 v -0.05 q 2.65,0 5.35,0 v 0.05 q 0.5,0 1,0 h 0.05 q 0.15,0 0.35,0 0.2,0 0.35,0 h 0.05 q 0.1,0 0.25,0 h 0.05 q 0.2,0 0.4,0 v 0.05 h 0.05 q 0.2,0 0.4,0 h 0.05 q 0.2,0 0.4,0 h 0.05 q 0.15,0 0.3,0 0.15,0 0.3,0.05 0.2,0 0.4,0 v 0.05 q 0.15,0 0.3,0 v 0.05 q 2.95,0.4 4.7,2 0.3,0.3 0.65,0.6 0.1,0.05 0.15,0.15 1.45,1.75 1.85,4.55 0.05,0.1 0.05,0.25 V 269 q 0.05,0.15 0.05,0.35 v 0.05 q 0,0.15 0,0.3 0.05,0.1 0,0.3 0,0.05 0,0.1 v 0.05 q 0.1,0.1 0.05,0.35 v 0.05 q 0,0.15 0,0.3 0,0.05 0,0.1 V 271 q 0.05,0.05 0.05,0.25 v 0.05 q 0,0.25 0,0.5 v 0.05 q 0,0.25 0,0.55 v 0.05 q 0,0.2 0,0.45 0.05,3.15 0,6.4 0,0.1 0,0.25 v 0.05 q 0,0.25 0,0.45 v 0.05 q 0,0.15 0,0.35 v 0.05 q 0,0.1 0,0.25 v 0.05 q 0,0.2 -0.05,0.25 0,0.1 0,0.15 v 0.05 q 0,0.25 0,0.5 v 0.05 q 0.05,0.2 -0.05,0.3 v 0.05 q 0,0.15 0,0.25 v 0.1 q 0.05,0.15 0,0.25 v 0.15 q 0,0.2 -0.05,0.25 v 0.05 q 0,0.15 -0.05,0.25 -0.1,0.75 -0.3,1.4 -0.7,2.6 -2.5,4.15 -1.85,1.5 -4.85,1.85 -0.15,0 -0.35,0 h -0.05 v 0.05 q -0.15,0 -0.3,0 -0.15,0 -0.3,0 h -0.05 q -0.25,0.05 -0.45,0.05 h -0.05 q -0.15,0 -0.35,0 -0.1,0 -0.15,0 -0.15,0.05 -0.3,0.05 h -0.05 q -0.15,0 -0.25,0 h -0.05 q -0.15,0 -0.35,0 -0.2,0 -0.4,0 h -0.05 q -0.15,0 -0.35,0 -3.25,0.05 -6.35,0 h -0.05 q -0.25,0 -0.45,0 H 1331 q -0.25,0 -0.55,0 h -0.05 q -0.3,0 -0.55,-0.05 h -0.05 q -0.15,0 -0.3,0 -0.2,0 -0.4,0 h -0.05 q -0.2,0 -0.3,-0.05 h -0.15 q -0.2,0.05 -0.25,-0.05 h -0.05 q -0.15,0 -0.3,0 h -0.05 q -0.2,0.05 -0.35,0 -0.2,0 -0.3,-0.05 -0.75,-0.1 -1.4,-0.3 -2.65,-0.7 -4.15,-2.55 -1.5,-1.8 -1.8,-4.85 -0.05,-0.15 -0.05,-0.35 v -0.05 q 0,-0.25 0,-0.55 v -0.05 h -0.05 q 0,-0.25 0,-0.45 v -0.05 q 0,-0.15 0,-0.35 v -0.05 h -0.05 q 0,-0.2 0,-0.4 v -0.05 q 0,-0.15 0,-0.25 v -0.05 q 0,-0.2 0,-0.35 v -0.05 q 0,-0.2 0,-0.4 v -0.05 q 0,-0.15 0,-0.3 -0.05,-0.15 -0.05,-0.3 h 0.05 v -0.05 q 0,-0.15 0,-0.25 -0.05,-2.7 -0.05,-5.35 h 0.05 v -0.05 q 0,-0.45 0,-0.85 v -0.05 q 0,-0.3 0,-0.55 v -0.05 q 0,-0.3 0,-0.55 h 0.05 v -0.05 q 0,-0.15 0,-0.35 0,-0.2 0,-0.35 v -0.05 q 0,-0.15 0,-0.3 h 0.05 v -0.05 q 0,-0.05 0,-0.1 0,-0.2 0,-0.4 v -0.05 q 0,-0.05 0,-0.15 v -0.05 q 0,-0.15 0,-0.35 h 0.05 v -0.05 q 0,-0.1 0,-0.25 h 0.05 q 0.4,-2.95 1.95,-4.7 m 0.7,5.25 v 0.1 q 0,0.2 -0.05,0.3 0,0.05 0,0.1 v 0.1 q 0,0.25 -0.05,0.4 0,0.1 0,0.25 v 0.05 q 0,0.25 0,0.55 v 0.05 q 0.05,0.25 -0.05,0.4 v 0.05 q 0,0.15 0,0.3 v 0.05 q 0,0.25 0,0.5 v 0.05 q 0,0.3 0,0.55 v 0.05 q 0,3.25 0,6.45 v 0.05 q 0,0.25 0,0.55 v 0.05 q 0,0.15 0,0.35 v 0.05 q 0,0.15 0,0.35 0.1,0.1 0.05,0.3 v 0.05 q 0,0.15 0,0.3 v 0.05 q 0,0.1 0,0.2 v 0.05 q 0.05,0.15 0.05,0.45 v 0.05 q 0.15,3.15 2.05,4.6 1.25,0.95 3.3,1.15 0.15,0 0.3,0 v 0.05 q 0.05,0 0.1,0 h 0.05 q 0.25,0 0.5,0 0.1,0 0.2,0 h 0.05 q 0.15,0 0.35,0 0.2,0 0.35,0.05 0.15,0 0.25,0 h 0.05 q 0.2,0 0.4,0 h 0.05 q 0.25,0 0.5,0 0.3,0 0.55,0 h 0.05 q 0.45,0 0.95,0.05 2,0 4,0 h 0.05 v -0.05 q 0.75,0 1.45,0 h 0.05 q 0.3,0 0.55,0 h 0.05 q 0.1,0 0.25,0 h 0.05 q 0.2,0 0.45,0 v -0.05 q 0.35,0 0.65,0 h 0.05 q 0.1,0 0.2,0 0.25,0 0.5,0 h 0.05 q 0.05,0 0.15,0 v -0.05 q 0.15,0 0.3,0 3.05,-0.3 4.35,-2.3 0.9,-1.35 1,-3.45 v -0.05 q 0,-0.25 0,-0.5 h 0.05 v -0.05 q 0,-0.05 0,-0.15 v -0.05 q 0,-0.15 0,-0.25 v -0.05 q 0,-0.15 0,-0.35 0,-0.25 0,-0.45 v -0.05 q 0,-0.15 0,-0.25 v -0.05 q 0,-0.3 0,-0.55 v -0.05 q 0,-0.75 0,-1.45 h 0.05 v -0.05 q 0,-1.95 0,-3.95 -0.05,-0.5 -0.05,-1.05 0,-0.25 0,-0.5 v -0.05 q 0,-0.25 0,-0.5 v -0.05 q 0,-0.2 0,-0.4 v -0.05 q 0,-0.1 0,-0.25 0,-0.15 0,-0.3 v -0.05 q 0,-0.2 0,-0.35 v -0.05 q 0,-0.05 0,-0.15 h -0.05 q 0,-0.15 0,-0.3 V 270 q 0,-0.1 0,-0.25 v -0.1 q -0.05,-0.15 -0.05,-0.3 -0.15,-2.05 -1.1,-3.3 -1.45,-1.9 -4.6,-2.05 H 1341 q -0.25,0 -0.4,-0.05 h -0.05 q -0.15,0 -0.25,0 h -0.05 q -0.15,0 -0.25,0 h -0.05 q -0.25,0.05 -0.4,-0.05 -0.2,0 -0.35,0 h -0.05 q -0.15,0 -0.35,0 h -0.05 q -0.25,0 -0.55,0 h -0.05 q -0.75,0.05 -1.45,-0.05 h -0.05 q -1.95,0 -3.95,0 v 0.05 q -0.5,0 -1,0 h -0.05 q -0.3,0 -0.6,0 H 1331 q -0.25,0 -0.45,0 h -0.05 q -0.2,0 -0.35,0 h -0.05 q -0.1,0 -0.25,0 v 0.05 q -0.15,0 -0.3,0 h -0.05 q -0.15,0 -0.35,0 h -0.05 q -0.05,0 -0.15,0 -0.15,0.05 -0.3,0.05 -0.15,0 -0.3,0 -0.05,0 -0.1,0 -0.15,0 -0.3,0 -1.65,0.15 -2.8,0.85 -2.1,1.25 -2.5,4.15 0,0.15 0,0.25 m 6.5,1.5 q 0.85,-0.85 1.9,-1.45 1.3,-0.7 3.2,-0.85 v -0.05 q 0.45,0 0.95,0.05 3,0.35 4.7,1.95 1.7,1.6 2.3,4.3 0.1,0.45 0.15,0.9 0.05,0.4 0,0.95 0,0.05 0,0.1 v 0.05 q 0,0.2 -0.05,0.3 -0.25,1.7 -0.95,2.9 -0.6,1.05 -1.5,1.9 -1.7,1.6 -4.7,1.9 v 0.05 q -0.5,0.05 -0.9,-0.05 -0.75,0 -1.35,-0.15 -1.9,-0.5 -3.15,-1.55 -1.8,-1.55 -2.55,-4.15 v -0.05 q -0.05,-0.6 -0.15,-1.25 0,-0.45 0,-0.95 v -0.05 q 0,-0.1 0,-0.2 0.45,-2.9 2.1,-4.6 m 11.7,-2.35 q 0,-0.25 0,-0.5 h 0.05 v -0.05 q 0,-0.05 0,-0.15 0.3,-1.05 1.45,-1.35 0.3,0 0.55,0 1,0.2 1.4,1 0.05,0.3 0.1,0.5 v 0.05 q 0.1,0.2 0.05,0.45 0,0.05 -0.05,0.05 -0.2,1.3 -1.5,1.5 -0.3,0.05 -0.45,0 h -0.05 q -1.3,-0.25 -1.5,-1.5 h -0.05 m -5.5,2.75 h -0.05 q -0.2,0.05 -0.25,0 H 1335 q -0.05,0 -0.1,0 -0.2,0 -0.4,0 -1.15,0.05 -1.95,0.4 -2.25,1.1 -2.8,3.9 0,0.2 0,0.4 v 0.05 q 0,0.15 0,0.35 0,0.1 0,0.15 0.05,0.1 0.05,0.3 0.45,2.85 2.8,3.9 0.3,0.15 0.7,0.25 0.35,0.1 0.75,0.15 0.15,0 0.3,0 v 0.05 q 0.05,0 0.1,0 h 0.05 q 0.2,0 0.4,0 h 0.1 V 281 q 0.15,0 0.3,0 h 0.05 q 2.8,-0.5 3.85,-2.8 0.3,-0.65 0.4,-1.5 0,-0.15 0,-0.3 h 0.05 q 0,-0.05 0,-0.15 0,-0.2 0,-0.35 0,-0.6 -0.15,-1.05 -0.1,-0.5 -0.3,-0.9 -1.05,-2.3 -3.85,-2.8 z"
         id="path57" />
      <path
         fill="#ff00fe"
         stroke="none"
         d="m 1326.25,261.6 q -2.75,0.6 -4.3,2.4 -1.55,1.75 -1.95,4.7 h -0.05 q 0,0.15 0,0.25 V 269 h -0.05 q 0,0.2 0,0.35 v 0.05 q 0,0.1 0,0.15 v 0.05 q 0,0.2 0,0.4 0,0.05 0,0.1 v 0.05 h -0.05 q 0,0.15 0,0.3 v 0.05 q 0,0.15 0,0.35 0,0.2 0,0.35 v 0.05 h -0.05 q 0,0.25 0,0.55 v 0.05 q 0,0.25 0,0.55 v 0.05 q 0,0.4 0,0.85 v 0.05 h -0.05 q 0,2.65 0.05,5.35 0,0.1 0,0.25 V 279 h -0.05 q 0,0.15 0.05,0.3 0,0.15 0,0.3 v 0.05 q 0,0.2 0,0.4 v 0.05 q 0,0.15 0,0.35 v 0.05 q 0,0.1 0,0.25 v 0.05 q 0,0.2 0,0.4 h 0.05 v 0.05 q 0,0.2 0,0.35 v 0.05 q 0,0.2 0,0.45 h 0.05 v 0.05 q 0,0.3 0,0.55 v 0.05 q 0,0.2 0.05,0.35 0.3,3.05 1.8,4.85 1.5,1.85 4.15,2.55 0.65,0.2 1.4,0.3 0.1,0.05 0.3,0.05 0.15,0.05 0.35,0 h 0.05 q 0.15,0 0.3,0 h 0.05 q 0.05,0.1 0.25,0.05 h 0.15 q 0.1,0.05 0.3,0.05 h 0.05 q 0.2,0 0.4,0 0.15,0 0.3,0 h 0.05 q 0.25,0.05 0.55,0.05 h 0.05 q 0.3,0 0.55,0 h 0.05 q 0.2,0 0.45,0 h 0.05 q 3.1,0.05 6.35,0 0.2,0 0.35,0 h 0.05 q 0.2,0 0.4,0 0.2,0 0.35,0 h 0.05 q 0.1,0 0.25,0 h 0.05 q 0.15,0 0.3,-0.05 0.05,0 0.15,0 0.2,0 0.35,0 h 0.05 q 0.2,0 0.45,-0.05 h 0.05 q 0.15,0 0.3,0 0.15,0 0.3,0 v -0.05 h 0.05 q 0.2,0 0.35,0 3,-0.35 4.85,-1.85 1.8,-1.55 2.5,-4.15 0.2,-0.65 0.3,-1.4 0.05,-0.1 0.05,-0.25 v -0.05 q 0.05,-0.05 0.05,-0.25 v -0.15 q 0.05,-0.1 0,-0.25 v -0.1 q 0,-0.1 0,-0.25 v -0.05 q 0.1,-0.1 0.05,-0.3 v -0.05 q 0,-0.25 0,-0.5 v -0.05 q 0,-0.05 0,-0.15 0.05,-0.05 0.05,-0.25 v -0.05 q 0,-0.15 0,-0.25 v -0.05 q 0,-0.2 0,-0.35 v -0.05 q 0,-0.2 0,-0.45 v -0.05 q 0,-0.15 0,-0.25 0.05,-3.25 0,-6.4 0,-0.25 0,-0.45 v -0.05 q 0,-0.3 0,-0.55 v -0.05 q 0,-0.25 0,-0.5 v -0.05 q 0,-0.2 -0.05,-0.25 v -0.05 q 0,-0.05 0,-0.1 0,-0.15 0,-0.3 v -0.05 q 0.05,-0.25 -0.05,-0.35 v -0.05 q 0,-0.05 0,-0.1 0.05,-0.2 0,-0.3 0,-0.15 0,-0.3 v -0.05 q 0,-0.2 -0.05,-0.35 v -0.05 q 0,-0.15 -0.05,-0.25 -0.4,-2.8 -1.85,-4.55 -0.05,-0.1 -0.15,-0.15 -0.35,-0.3 -0.65,-0.6 -1.75,-1.6 -4.7,-2 v -0.05 q -0.15,0 -0.3,0 v -0.05 q -0.2,0 -0.4,0 -0.15,-0.05 -0.3,-0.05 -0.15,0 -0.3,0 h -0.05 q -0.2,0 -0.4,0 h -0.05 q -0.2,0 -0.4,0 h -0.05 v -0.05 q -0.2,0 -0.4,0 h -0.05 q -0.15,0 -0.25,0 h -0.05 q -0.15,0 -0.35,0 -0.2,0 -0.35,0 h -0.05 q -0.5,0 -1,0 v -0.05 q -2.7,0 -5.35,0 v 0.05 h -0.05 q -0.4,0 -0.85,0 H 1331 q -0.25,0 -0.55,0 h -0.05 q -0.25,0 -0.55,0 v 0.05 h -0.05 q -0.1,0 -0.25,0 h -0.05 q -0.1,0 -0.25,0 h -0.05 q -0.2,0 -0.45,0 h -0.1 q -0.15,0 -0.3,0 -0.15,0 -0.3,0 v 0.05 h -0.1 q -0.15,0 -0.35,0 v 0.05 q -0.15,0 -0.3,0 v 0.05 q -0.55,0.05 -1.05,0.2 m -3.6,7.75 v -0.1 q 0,-0.1 0,-0.25 0.4,-2.9 2.5,-4.15 1.15,-0.7 2.8,-0.85 0.15,0 0.3,0 0.05,0 0.1,0 0.15,0 0.3,0 0.15,0 0.3,-0.05 0.1,0 0.15,0 h 0.05 q 0.2,0 0.35,0 h 0.05 q 0.15,0 0.3,0 v -0.05 q 0.15,0 0.25,0 h 0.05 q 0.15,0 0.35,0 h 0.05 q 0.2,0 0.45,0 h 0.05 q 0.3,0 0.6,0 h 0.05 q 0.5,0 1,0 v -0.05 q 2,0 3.95,0 h 0.05 q 0.7,0.1 1.45,0.05 h 0.05 q 0.3,0 0.55,0 h 0.05 q 0.2,0 0.35,0 h 0.05 q 0.15,0 0.35,0 0.15,0.1 0.4,0.05 h 0.05 q 0.1,0 0.25,0 h 0.05 q 0.1,0 0.25,0 h 0.05 q 0.15,0.05 0.4,0.05 h 0.05 q 3.15,0.15 4.6,2.05 0.95,1.25 1.1,3.3 0,0.15 0.05,0.3 v 0.1 q 0,0.15 0,0.25 v 0.05 q 0,0.15 0,0.3 h 0.05 q 0,0.1 0,0.15 v 0.05 q 0,0.15 0,0.35 v 0.05 q 0,0.15 0,0.3 0,0.15 0,0.25 v 0.05 q 0,0.2 0,0.4 V 272 q 0,0.25 0,0.5 v 0.05 q 0,0.25 0,0.5 0,0.55 0.05,1.05 0,2 0,3.95 v 0.05 h -0.05 q 0,0.7 0,1.45 v 0.05 q 0,0.25 0,0.55 v 0.05 q 0,0.1 0,0.25 v 0.05 q 0,0.2 0,0.45 0,0.2 0,0.35 v 0.05 q 0,0.1 0,0.25 v 0.05 q 0,0.1 0,0.15 v 0.05 h -0.05 q 0,0.25 0,0.5 v 0.05 q -0.1,2.1 -1,3.45 -1.3,2 -4.35,2.3 -0.15,0 -0.3,0 v 0.05 q -0.1,0 -0.15,0 h -0.05 q -0.25,0 -0.5,0 -0.1,0 -0.2,0 h -0.05 q -0.3,0 -0.65,0 v 0.05 q -0.25,0 -0.45,0 h -0.05 q -0.15,0 -0.25,0 h -0.05 q -0.25,0 -0.55,0 h -0.05 q -0.7,0 -1.45,0 v 0.05 h -0.05 q -2,0 -4,0 -0.5,-0.05 -0.95,-0.05 h -0.05 q -0.25,0 -0.55,0 -0.25,0 -0.5,0 h -0.05 q -0.2,0 -0.4,0 h -0.05 q -0.1,0 -0.25,0 -0.15,-0.05 -0.35,-0.05 -0.2,0 -0.35,0 h -0.05 q -0.1,0 -0.2,0 -0.25,0 -0.5,0 h -0.05 q -0.05,0 -0.1,0 v -0.05 q -0.15,0 -0.3,0 -2.05,-0.2 -3.3,-1.15 -1.9,-1.45 -2.05,-4.6 v -0.05 q 0,-0.3 -0.05,-0.45 v -0.05 q 0,-0.1 0,-0.2 v -0.05 q 0,-0.15 0,-0.3 v -0.05 q 0.05,-0.2 -0.05,-0.3 0,-0.2 0,-0.35 v -0.05 q 0,-0.2 0,-0.35 v -0.05 q 0,-0.3 0,-0.55 v -0.05 q 0,-3.2 0,-6.45 v -0.05 q 0,-0.25 0,-0.55 v -0.05 q 0,-0.25 0,-0.5 v -0.05 q 0,-0.15 0,-0.3 v -0.05 q 0.1,-0.15 0.05,-0.4 v -0.05 q 0,-0.3 0,-0.55 v -0.05 q 0,-0.15 0,-0.25 0.05,-0.15 0.05,-0.4 v -0.1 q 0,-0.05 0,-0.1 0.05,-0.1 0.05,-0.3 m 18.2,-1.45 q 0,0.25 0,0.5 h 0.05 q 0.2,1.25 1.5,1.5 h 0.05 q 0.15,0.05 0.45,0 1.3,-0.2 1.5,-1.5 0.05,0 0.05,-0.05 0.05,-0.25 -0.05,-0.45 v -0.05 q -0.05,-0.2 -0.1,-0.5 -0.4,-0.8 -1.4,-1 -0.25,0 -0.55,0 -1.15,0.3 -1.45,1.35 0,0.1 0,0.15 v 0.05 h -0.05 m -9.8,1.4 q -1.05,0.6 -1.9,1.45 -1.65,1.7 -2.1,4.6 0,0.1 0,0.2 v 0.05 q 0,0.5 0,0.95 0.1,0.65 0.15,1.25 v 0.05 q 0.75,2.6 2.55,4.15 1.25,1.05 3.15,1.55 0.6,0.15 1.35,0.15 0.4,0.1 0.9,0.05 v -0.05 q 3,-0.3 4.7,-1.9 0.9,-0.85 1.5,-1.9 0.7,-1.2 0.95,-2.9 0.05,-0.1 0.05,-0.3 v -0.05 q 0,-0.05 0,-0.1 0.05,-0.55 0,-0.95 -0.05,-0.45 -0.15,-0.9 -0.6,-2.7 -2.3,-4.3 -1.7,-1.6 -4.7,-1.95 -0.5,-0.05 -0.95,-0.05 v 0.05 q -1.9,0.15 -3.2,0.85 m 4.25,1.85 h 0.05 q 2.8,0.5 3.85,2.8 0.2,0.4 0.3,0.9 0.15,0.45 0.15,1.05 0,0.15 0,0.35 0,0.1 0,0.15 h -0.05 q 0,0.15 0,0.3 -0.1,0.85 -0.4,1.5 -1.05,2.3 -3.85,2.8 h -0.05 q -0.15,0 -0.3,0 v 0.05 h -0.1 q -0.2,0 -0.4,0 h -0.05 q -0.05,0 -0.1,0 V 281 q -0.15,0 -0.3,0 -0.4,-0.05 -0.75,-0.15 -0.4,-0.1 -0.7,-0.25 -2.35,-1.05 -2.8,-3.9 0,-0.2 -0.05,-0.3 0,-0.05 0,-0.15 0,-0.2 0,-0.35 v -0.05 q 0,-0.2 0,-0.4 0.55,-2.8 2.8,-3.9 0.8,-0.35 1.95,-0.4 0.2,0 0.4,0 0.05,0 0.1,0 h 0.05 q 0.05,0.05 0.25,0 z"
         id="path59" />
    </g>
    <g
       id="Layer1_12_FILL">
      <path
         fill="#3c3f3e"
         stroke="none"
         d="m 1352.65,339.75 v -36.5 h -36.5 v 36.5 h 36.5 m -8.15,-27.2 q 1.95,3 3.1,6.8 1.15,3.9 0.75,8.7 -2.85,2.15 -6.55,3.4 -0.2,0.1 -0.5,0.1 -0.8,-1 -1.4,-2.25 v -0.05 q 0.45,-0.4 1.1,-0.6 0.65,-0.25 1.1,-0.7 -0.2,-0.2 -0.5,-0.3 l -0.05,-0.05 q -2.65,1.35 -6.4,1.5 h -0.1 q -0.5,0 -0.95,0 h -0.05 q -3.75,-0.15 -6.4,-1.5 -0.05,0 -0.05,0.05 -0.3,0.1 -0.5,0.3 V 328 q 1.05,0.65 2.2,1.2 v 0.05 q -0.6,1.25 -1.45,2.3 -0.25,0 -0.5,-0.1 -3.7,-1.25 -6.55,-3.4 V 328 q -0.05,-0.55 -0.05,-1.2 v -0.05 q 0,-1 0,-2 v -0.05 q 0,-0.25 0,-0.5 0,-0.05 0,-0.1 0,-0.15 0,-0.3 0.45,-4.55 2.05,-7.9 1,-2.05 2.25,-3.85 2.55,-1 5.55,-1.6 h 0.05 q 0.45,0.65 0.75,1.4 0.05,0 0.05,0.05 3.1,-0.45 6.2,0 h 0.05 q 0.4,-0.7 0.8,-1.4 v -0.05 q 3.2,0.55 5.65,1.8 0.2,0.1 0.35,0.3 m -13.65,6.9 q -0.2,-0.1 -0.5,-0.1 -2.4,0 -2.8,2.1 0,0.15 0,0.3 v 0.05 h -0.05 q 0,0.25 0,0.5 h 0.05 q 0.15,1.6 1.25,2.2 0.4,0.25 0.9,0.25 2.3,0 2.65,-2.05 0.35,-2.4 -1.5,-3.25 m 8.55,-0.05 q -2.35,0.05 -2.7,2.2 -0.05,1.3 0.4,2.05 0.5,0.8 1.45,1.05 1.55,0.35 2.4,-0.6 0.6,-0.65 0.65,-1.8 0.1,-1.9 -1.05,-2.65 -0.45,-0.3 -1.15,-0.25 z"
         id="path62" />
      <path
         fill="#ff00fe"
         stroke="none"
         d="m 1347.6,319.35 q -1.15,-3.8 -3.1,-6.8 -0.15,-0.2 -0.35,-0.3 -2.45,-1.25 -5.65,-1.8 v 0.05 q -0.4,0.7 -0.8,1.4 h -0.05 q -3.1,-0.45 -6.2,0 0,-0.05 -0.05,-0.05 -0.3,-0.75 -0.75,-1.4 h -0.05 q -3,0.6 -5.55,1.6 -1.25,1.8 -2.25,3.85 -1.6,3.35 -2.05,7.9 0,0.15 0,0.3 0,0.05 0,0.1 0,0.25 0,0.5 v 0.05 q 0,1 0,2 v 0.05 q 0,0.65 0.05,1.2 v 0.05 q 2.85,2.15 6.55,3.4 0.25,0.1 0.5,0.1 0.85,-1.05 1.45,-2.3 v -0.05 q -1.15,-0.55 -2.2,-1.2 v -0.05 q 0.2,-0.2 0.5,-0.3 0,-0.05 0.05,-0.05 2.65,1.35 6.4,1.5 h 0.05 q 0.45,0 0.95,0 h 0.1 q 3.75,-0.15 6.4,-1.5 l 0.05,0.05 q 0.3,0.1 0.5,0.3 -0.45,0.45 -1.1,0.7 -0.65,0.2 -1.1,0.6 v 0.05 q 0.6,1.25 1.4,2.25 0.3,0 0.5,-0.1 3.7,-1.25 6.55,-3.4 0.4,-4.8 -0.75,-8.7 m -10.9,2.25 q 0.35,-2.15 2.7,-2.2 0.7,-0.05 1.15,0.25 1.15,0.75 1.05,2.65 -0.05,1.15 -0.65,1.8 -0.85,0.95 -2.4,0.6 -0.95,-0.25 -1.45,-1.05 -0.45,-0.75 -0.4,-2.05 m -6.35,-2.25 q 0.3,0 0.5,0.1 1.85,0.85 1.5,3.25 -0.35,2.05 -2.65,2.05 -0.5,0 -0.9,-0.25 -1.1,-0.6 -1.25,-2.2 h -0.05 q 0,-0.25 0,-0.5 h 0.05 v -0.05 q 0,-0.15 0,-0.3 0.4,-2.1 2.8,-2.1 z"
         id="path64" />
    </g>
    <g
       id="Layer1_13_FILL">
      <path
         fill="#3c3f3e"
         stroke="none"
         d="m 1316.15,346.75 v 36.5 h 36.5 v -36.5 h -36.5 m 11,8.3 q 1.35,1.3 2.5,2.75 1.2,1.4 2.25,2.95 1.1,1.55 2.05,3.15 0.3,0.5 0.55,1 0.25,-0.5 0.55,-1 0.95,-1.6 2.05,-3.15 1.1,-1.55 2.25,-2.95 1.15,-1.45 2.5,-2.75 1.3,-1.3 2.95,-2.3 1.15,-0.75 2.75,-1.1 1,-0.2 1.7,0.15 1.35,0.6 1.45,2.45 0,2.6 -0.25,4.9 -0.05,0.25 -0.1,0.6 -0.15,1.7 -0.3,3.45 -0.05,0.6 -0.25,1.05 -0.45,2.05 -1.95,3.2 -1.45,1.2 -3.65,1.55 -1.05,0.15 -2.05,0.1 -0.4,-0.05 -0.65,0.05 2.15,0.45 3.75,1.45 1.35,0.85 1.8,2.5 0.15,0.7 0,1.35 -0.4,1.6 -1.3,2.6 -1.25,1.35 -2.85,2.4 -1.15,0.7 -2.8,0.65 -0.3,0 -0.55,-0.1 -1.45,-0.45 -2.35,-1.55 -1.15,-1.45 -1.9,-3.3 -0.35,-0.8 -0.6,-1.6 -0.05,-0.25 -0.2,-0.45 -0.15,0.2 -0.2,0.45 -0.25,0.8 -0.6,1.6 -0.75,1.85 -1.9,3.35 -0.85,1.05 -2.35,1.5 -0.25,0.1 -0.55,0.1 -1.7,0.05 -2.8,-0.65 -1.6,-1 -2.85,-2.4 -0.9,-1 -1.35,-2.6 -0.15,-0.65 0.1,-1.35 0.45,-1.65 1.75,-2.5 1.55,-1 3.75,-1.45 -0.25,-0.1 -0.7,-0.05 -0.95,0.05 -2,-0.1 -2.25,-0.35 -3.7,-1.55 -1.45,-1.15 -1.9,-3.2 -0.2,-0.45 -0.25,-1.05 -0.15,-1.75 -0.3,-3.45 -0.05,-0.3 -0.05,-0.6 -0.3,-2.3 -0.3,-4.9 0.1,-1.85 1.45,-2.45 0.7,-0.35 1.7,-0.15 1.55,0.35 2.75,1.1 1.65,1 2.95,2.3 z"
         id="path67" />
      <path
         fill="#ff00fe"
         stroke="none"
         d="m 1329.65,357.8 q -1.15,-1.45 -2.5,-2.75 -1.3,-1.3 -2.95,-2.3 -1.2,-0.75 -2.75,-1.1 -1,-0.2 -1.7,0.15 -1.35,0.6 -1.45,2.45 0,2.6 0.3,4.9 0,0.3 0.05,0.6 0.15,1.7 0.3,3.45 0.05,0.6 0.25,1.05 0.45,2.05 1.9,3.2 1.45,1.2 3.7,1.55 1.05,0.15 2,0.1 0.45,-0.05 0.7,0.05 -2.2,0.45 -3.75,1.45 -1.3,0.85 -1.75,2.5 -0.25,0.7 -0.1,1.35 0.45,1.6 1.35,2.6 1.25,1.4 2.85,2.4 1.1,0.7 2.8,0.65 0.3,0 0.55,-0.1 1.5,-0.45 2.35,-1.5 1.15,-1.5 1.9,-3.35 0.35,-0.8 0.6,-1.6 0.05,-0.25 0.2,-0.45 0.15,0.2 0.2,0.45 0.25,0.8 0.6,1.6 0.75,1.85 1.9,3.3 0.9,1.1 2.35,1.55 0.25,0.1 0.55,0.1 1.65,0.05 2.8,-0.65 1.6,-1.05 2.85,-2.4 0.9,-1 1.3,-2.6 0.15,-0.65 0,-1.35 -0.45,-1.65 -1.8,-2.5 -1.6,-1 -3.75,-1.45 0.25,-0.1 0.65,-0.05 1,0.05 2.05,-0.1 2.2,-0.35 3.65,-1.55 1.5,-1.15 1.95,-3.2 0.2,-0.45 0.25,-1.05 0.15,-1.75 0.3,-3.45 0.05,-0.35 0.1,-0.6 0.25,-2.3 0.25,-4.9 -0.1,-1.85 -1.45,-2.45 -0.7,-0.35 -1.7,-0.15 -1.6,0.35 -2.75,1.1 -1.65,1 -2.95,2.3 -1.35,1.3 -2.5,2.75 -1.15,1.4 -2.25,2.95 -1.1,1.55 -2.05,3.15 -0.3,0.5 -0.55,1 -0.25,-0.5 -0.55,-1 -0.95,-1.6 -2.05,-3.15 -1.05,-1.55 -2.25,-2.95 z"
         id="path69" />
    </g>
    <g
       id="Layer1_14_FILL">
      <path
         fill="#3c3f3e"
         stroke="none"
         d="m 1352.65,391.85 h -36.5 v 36.5 h 36.5 v -36.5 m -5.85,10.8 q 0.95,1.45 1.55,3.15 0.65,1.7 0.85,3.85 0.2,1.75 -0.05,3.25 -0.35,2.05 -1.05,3.7 -0.7,1.65 -1.7,3 -1,1.35 -2.25,2.45 -1.3,1.1 -2.8,1.9 -1.55,0.8 -3.45,1.25 -1.9,0.5 -4.3,0.35 -2.2,-0.1 -3.9,-0.75 -1.75,-0.6 -3.2,-1.5 -1.4,-0.95 -2.6,-2.15 -1.15,-1.2 -2,-2.65 -0.9,-1.4 -1.55,-3.2 -0.45,-1.55 -0.55,-3.5 -0.05,-1.2 -0.05,-2.35 0.25,-2.15 0.9,-3.85 0.65,-1.7 1.65,-3.05 0.95,-1.45 2.15,-2.55 1.2,-1.15 2.7,-2 1.5,-0.85 3.3,-1.4 1.8,-0.55 4.15,-0.55 2.3,0.05 4.1,0.6 1.8,0.55 3.3,1.45 1.45,0.9 2.65,2 1.2,1.15 2.15,2.55 m -7.6,0.85 q 0.15,0.2 0.15,0.5 v 0.05 q 0.15,0.1 0.2,0.25 v 0.05 q 0.25,0.2 0.55,0.35 0.5,0.1 1.05,0 0.2,-0.15 0.45,-0.3 0,-0.15 0.15,-0.2 v -0.05 q 0,-0.05 0.05,-0.2 0.2,-0.3 0.1,-0.85 -0.05,-0.15 -0.15,-0.25 -0.15,-0.5 -0.7,-0.6 -0.05,-0.15 -0.2,-0.15 -0.55,-0.05 -0.8,0.15 -0.5,0.1 -0.55,0.55 h -0.05 q -0.3,0.05 -0.5,-0.05 -0.2,0 -0.4,0 v -0.05 q -0.15,-0.05 -0.3,-0.1 -0.25,0 -0.5,-0.05 -0.15,-0.1 -0.35,-0.1 -0.25,0 -0.45,-0.05 -0.1,-0.05 -0.25,-0.05 -0.2,-0.05 -0.4,-0.1 -0.4,-0.2 -0.9,-0.1 -0.05,0.2 -0.2,0.35 v 0.05 q 0,0.2 0,0.45 -0.1,0.15 -0.15,0.25 0,0.15 0,0.25 -0.05,0.3 -0.15,0.6 0,0.1 -0.05,0.2 -0.15,0.35 -0.1,0.85 h -0.05 q -0.1,0.25 -0.1,0.75 -0.2,0.25 -0.15,0.7 -0.1,0.1 -0.15,0.25 -0.05,0.25 -0.05,0.5 v 0.05 q -0.1,0.1 -0.15,0.2 -0.35,0.05 -0.75,0.05 -0.2,0 -0.4,0.05 -0.4,0.1 -1,0.1 -0.25,0.15 -0.6,0.15 V 408 q -0.1,0 -0.2,0.1 -0.05,0 -0.1,0 -0.3,0.1 -0.6,0.15 l -0.05,0.05 q -0.3,0.1 -0.5,0.25 h -0.05 q -0.2,0 -0.25,0.15 -0.3,0.1 -0.55,0.2 -0.3,0.2 -0.45,0.4 -0.25,0.05 -0.45,0 -0.05,-0.05 -0.1,-0.1 H 1328 q -0.1,-0.05 -0.2,-0.2 -0.1,0 -0.25,0 0,-0.05 -0.05,-0.05 -0.55,-0.15 -1.25,-0.05 -0.1,0.05 -0.2,0.1 -0.5,0.2 -0.8,0.5 v 0.05 q -0.15,0.25 -0.3,0.45 v 0.05 q -0.05,0.35 -0.15,0.7 0.05,0.5 0.15,0.95 h 0.05 q 0.1,0.1 0.1,0.25 0.4,0.45 0.95,0.75 0,0.6 0.05,1.25 0,0.25 0.1,0.45 0.1,0.2 0.1,0.5 0.15,0.15 0.15,0.4 h 0.05 q 0.1,0.1 0.15,0.3 0,0.05 0.1,0.1 0.1,0.3 0.3,0.45 0.3,0.45 0.7,0.8 0.1,0.15 0.25,0.25 0.5,0.4 1.2,0.7 v 0.05 q 0.2,0.1 0.35,0.25 0.05,0 0.1,0.05 0.15,0.1 0.45,0.1 v 0.05 q 0.3,0.2 0.7,0.25 0.15,0.1 0.25,0.15 h 0.05 q 0.1,0 0.2,0 h 0.05 q 0.2,0.2 0.6,0.15 V 419 q 0.15,0.05 0.25,0.1 h 0.05 q 0.3,0 0.6,0.05 0.05,0.05 0.1,0.05 0.5,0.05 1.1,0.1 1.15,0 2.1,-0.1 0.55,-0.05 1,-0.25 0.25,0.05 0.4,0 v -0.05 q 0.1,-0.05 0.2,-0.1 h 0.05 q 0.15,0 0.25,0 h 0.05 q 0.15,-0.2 0.45,-0.15 0,-0.05 0.05,-0.05 0.25,-0.1 0.4,-0.25 h 0.05 q 0.1,0 0.2,0 0,-0.05 0.05,-0.05 0.05,-0.1 0.25,-0.15 0.1,-0.1 0.3,-0.1 0,-0.05 0.05,-0.05 0.2,-0.15 0.5,-0.25 0.45,-0.4 0.9,-0.75 0.45,-0.4 0.8,-0.95 0.1,-0.05 0.1,-0.2 h 0.05 q 0.05,-0.05 0.1,-0.1 v -0.05 q 0,-0.05 0.05,-0.1 h 0.05 q 0.1,-0.1 0.1,-0.3 0.1,-0.25 0.25,-0.5 0.05,-0.2 0.05,-0.4 0.05,-0.05 0.05,-0.15 0.15,-0.7 0.1,-1.5 v -0.05 q 0.4,-0.2 0.75,-0.5 0.15,-0.3 0.3,-0.6 0,-0.2 0.15,-0.25 v -0.05 q 0,-0.35 0,-0.8 -0.15,-0.15 -0.15,-0.4 -0.3,-0.6 -0.8,-0.95 -0.2,0 -0.25,-0.15 -0.1,0 -0.15,0 -0.4,-0.15 -0.95,-0.1 -0.15,0.05 -0.3,0.1 -0.25,-0.05 -0.35,0.15 -0.3,0.1 -0.45,0.35 -0.1,0 -0.15,-0.05 -0.35,-0.15 -0.6,-0.35 -0.35,-0.2 -0.8,-0.4 -0.1,-0.05 -0.2,-0.15 H 1339 q -0.2,0 -0.35,-0.15 -0.1,0 -0.25,0 0,-0.05 -0.05,-0.05 -0.25,-0.1 -0.4,-0.2 h -0.05 q -0.15,-0.1 -0.4,-0.05 v -0.05 q -0.1,-0.05 -0.2,-0.1 -0.1,0 -0.2,0 -0.3,-0.05 -0.55,-0.1 -0.25,-0.05 -0.45,-0.1 -0.55,-0.1 -1.25,-0.15 0,-0.15 0,-0.35 h 0.05 q 0.05,-0.05 0.1,-0.2 0,-0.3 0.05,-0.55 0.05,-0.1 0.1,-0.2 0,-0.1 0,-0.2 0,-0.1 0.05,-0.15 0.15,-0.35 0.15,-0.8 0.15,-0.3 0.1,-0.8 h 0.05 q 0.15,-0.25 0.15,-0.7 v -0.05 q 0.15,-0.3 0.15,-0.75 0.2,-0.05 0.35,0 0.15,0 0.25,0.05 0.35,0.1 0.9,0.1 0.3,0.2 0.75,0.15 v 0.05 q 0.25,0.15 0.7,0.15 h 0.05 q 0.15,0.1 0.4,0.15 m -1.15,7.45 q 0.3,0 0.55,0.1 0.75,0.35 0.75,1.5 0,0.15 -0.05,0.3 -0.3,1 -1.45,1 -0.35,0 -0.6,-0.15 -0.85,-0.4 -0.85,-1.55 0.25,-1.25 1.65,-1.2 m 0.25,5.15 q -0.2,0.45 -0.6,0.65 -0.8,0.4 -1.7,0.6 -1,0.25 -2.2,0.15 -1.95,-0.2 -3.05,-1.25 0,-0.15 0,-0.25 0.15,-0.2 0.35,-0.3 h 0.05 q 0.55,0.3 1.15,0.55 1.2,0.6 3.05,0.4 0.15,0 0.35,-0.05 1.25,-0.25 2.15,-0.9 0.35,0.05 0.45,0.4 m -5.85,-3.4 q 0,0.15 -0.1,0.3 -0.4,0.8 -1.5,0.75 -0.3,0 -0.55,-0.15 -0.7,-0.4 -0.75,-1.5 0.3,-1.25 1.6,-1.25 0.4,0 0.7,0.15 0.8,0.5 0.6,1.7 z"
         id="path72" />
      <path
         fill="#ff00fe"
         stroke="none"
         d="m 1348.35,405.8 q -0.6,-1.7 -1.55,-3.15 -0.95,-1.4 -2.15,-2.55 -1.2,-1.1 -2.65,-2 -1.5,-0.9 -3.3,-1.45 -1.8,-0.55 -4.1,-0.6 -2.35,0 -4.15,0.55 -1.8,0.55 -3.3,1.4 -1.5,0.85 -2.7,2 -1.2,1.1 -2.15,2.55 -1,1.35 -1.65,3.05 -0.65,1.7 -0.9,3.85 0,1.15 0.05,2.35 0.1,1.95 0.55,3.5 0.65,1.8 1.55,3.2 0.85,1.45 2,2.65 1.2,1.2 2.6,2.15 1.45,0.9 3.2,1.5 1.7,0.65 3.9,0.75 2.4,0.15 4.3,-0.35 1.9,-0.45 3.45,-1.25 1.5,-0.8 2.8,-1.9 1.25,-1.1 2.25,-2.45 1,-1.35 1.7,-3 0.7,-1.65 1.05,-3.7 0.25,-1.5 0.05,-3.25 -0.2,-2.15 -0.85,-3.85 m -9,-1.8 q 0,-0.3 -0.15,-0.5 -0.25,-0.05 -0.4,-0.15 h -0.05 q -0.45,0 -0.7,-0.15 v -0.05 q -0.45,0.05 -0.75,-0.15 -0.55,0 -0.9,-0.1 -0.1,-0.05 -0.25,-0.05 -0.15,-0.05 -0.35,0 0,0.45 -0.15,0.75 v 0.05 q 0,0.45 -0.15,0.7 h -0.05 q 0.05,0.5 -0.1,0.8 0,0.45 -0.15,0.8 -0.05,0.05 -0.05,0.15 0,0.1 0,0.2 -0.05,0.1 -0.1,0.2 -0.05,0.25 -0.05,0.55 -0.05,0.15 -0.1,0.2 h -0.05 q 0,0.2 0,0.35 0.7,0.05 1.25,0.15 0.2,0.05 0.45,0.1 0.25,0.05 0.55,0.1 0.1,0 0.2,0 0.1,0.05 0.2,0.1 v 0.05 q 0.25,-0.05 0.4,0.05 h 0.05 q 0.15,0.1 0.4,0.2 0.05,0 0.05,0.05 0.15,0 0.25,0 0.15,0.15 0.35,0.15 h 0.05 q 0.1,0.1 0.2,0.15 0.45,0.2 0.8,0.4 0.25,0.2 0.6,0.35 0.05,0.05 0.15,0.05 0.15,-0.25 0.45,-0.35 0.1,-0.2 0.35,-0.15 0.15,-0.05 0.3,-0.1 0.55,-0.05 0.95,0.1 0.05,0 0.15,0 0.05,0.15 0.25,0.15 0.5,0.35 0.8,0.95 0,0.25 0.15,0.4 0,0.45 0,0.8 v 0.05 q -0.15,0.05 -0.15,0.25 -0.15,0.3 -0.3,0.6 -0.35,0.3 -0.75,0.5 v 0.05 q 0.05,0.8 -0.1,1.5 0,0.1 -0.05,0.15 0,0.2 -0.05,0.4 -0.15,0.25 -0.25,0.5 0,0.2 -0.1,0.3 h -0.05 q -0.05,0.05 -0.05,0.1 v 0.05 q -0.05,0.05 -0.1,0.1 h -0.05 q 0,0.15 -0.1,0.2 -0.35,0.55 -0.8,0.95 -0.45,0.35 -0.9,0.75 -0.3,0.1 -0.5,0.25 -0.05,0 -0.05,0.05 -0.2,0 -0.3,0.1 -0.2,0.05 -0.25,0.15 -0.05,0 -0.05,0.05 -0.1,0 -0.2,0 H 1339 q -0.15,0.15 -0.4,0.25 -0.05,0 -0.05,0.05 -0.3,-0.05 -0.45,0.15 h -0.05 q -0.1,0 -0.25,0 h -0.05 q -0.1,0.05 -0.2,0.1 v 0.05 q -0.15,0.05 -0.4,0 -0.45,0.2 -1,0.25 -0.95,0.1 -2.1,0.1 -0.6,-0.05 -1.1,-0.1 -0.05,0 -0.1,-0.05 -0.3,-0.05 -0.6,-0.05 h -0.05 q -0.1,-0.05 -0.25,-0.1 v -0.05 q -0.4,0.05 -0.6,-0.15 h -0.05 q -0.1,0 -0.2,0 h -0.05 q -0.1,-0.05 -0.25,-0.15 -0.4,-0.05 -0.7,-0.25 v -0.05 q -0.3,0 -0.45,-0.1 -0.05,-0.05 -0.1,-0.05 -0.15,-0.15 -0.35,-0.25 v -0.05 q -0.7,-0.3 -1.2,-0.7 -0.15,-0.1 -0.25,-0.25 -0.4,-0.35 -0.7,-0.8 -0.2,-0.15 -0.3,-0.45 -0.1,-0.05 -0.1,-0.1 -0.05,-0.2 -0.15,-0.3 h -0.05 q 0,-0.25 -0.15,-0.4 0,-0.3 -0.1,-0.5 -0.1,-0.2 -0.1,-0.45 -0.05,-0.65 -0.05,-1.25 -0.55,-0.3 -0.95,-0.75 0,-0.15 -0.1,-0.25 h -0.05 q -0.1,-0.45 -0.15,-0.95 0.1,-0.35 0.15,-0.7 V 410 q 0.15,-0.2 0.3,-0.45 v -0.05 q 0.3,-0.3 0.8,-0.5 0.1,-0.05 0.2,-0.1 0.7,-0.1 1.25,0.05 0.05,0 0.05,0.05 0.15,0 0.25,0 0.1,0.15 0.2,0.2 h 0.05 q 0.05,0.05 0.1,0.1 0.2,0.05 0.45,0 0.15,-0.2 0.45,-0.4 0.25,-0.1 0.55,-0.2 0.05,-0.15 0.25,-0.15 h 0.05 q 0.2,-0.15 0.5,-0.25 l 0.05,-0.05 q 0.3,-0.05 0.6,-0.15 0.05,0 0.1,0 0.1,-0.1 0.2,-0.1 v -0.05 q 0.35,0 0.6,-0.15 0.6,0 1,-0.1 0.2,-0.05 0.4,-0.05 0.4,0 0.75,-0.05 0.05,-0.1 0.15,-0.2 v -0.05 q 0,-0.25 0.05,-0.5 0.05,-0.15 0.15,-0.25 -0.05,-0.45 0.15,-0.7 0,-0.5 0.1,-0.75 h 0.05 q -0.05,-0.5 0.1,-0.85 0.05,-0.1 0.05,-0.2 0.1,-0.3 0.15,-0.6 0,-0.1 0,-0.25 0.05,-0.1 0.15,-0.25 0,-0.25 0,-0.45 v -0.05 q 0.15,-0.15 0.2,-0.35 0.5,-0.1 0.9,0.1 0.2,0.05 0.4,0.1 0.15,0 0.25,0.05 0.2,0.05 0.45,0.05 0.2,0 0.35,0.1 0.25,0.05 0.5,0.05 0.15,0.05 0.3,0.1 v 0.05 q 0.2,0 0.4,0 0.2,0.1 0.5,0.05 h 0.05 q 0.05,-0.45 0.55,-0.55 0.25,-0.2 0.8,-0.15 0.15,0 0.2,0.15 0.55,0.1 0.7,0.6 0.1,0.1 0.15,0.25 0.1,0.55 -0.1,0.85 -0.05,0.15 -0.05,0.2 v 0.05 q -0.15,0.05 -0.15,0.2 -0.25,0.15 -0.45,0.3 -0.55,0.1 -1.05,0 -0.3,-0.15 -0.55,-0.35 v -0.05 q -0.05,-0.15 -0.2,-0.25 V 404 m -7,9 q 0.1,-0.15 0.1,-0.3 0.2,-1.2 -0.6,-1.7 -0.3,-0.15 -0.7,-0.15 -1.3,0 -1.6,1.25 0.05,1.1 0.75,1.5 0.25,0.15 0.55,0.15 1.1,0.05 1.5,-0.75 m 5.35,3.75 q 0.4,-0.2 0.6,-0.65 -0.1,-0.35 -0.45,-0.4 -0.9,0.65 -2.15,0.9 -0.2,0.05 -0.35,0.05 -1.85,0.2 -3.05,-0.4 -0.6,-0.25 -1.15,-0.55 h -0.05 q -0.2,0.1 -0.35,0.3 0,0.1 0,0.25 1.1,1.05 3.05,1.25 1.2,0.1 2.2,-0.15 0.9,-0.2 1.7,-0.6 m 0.9,-5.7 q -0.25,-0.1 -0.55,-0.1 -1.4,-0.05 -1.65,1.2 0,1.15 0.85,1.55 0.25,0.15 0.6,0.15 1.15,0 1.45,-1 0.05,-0.15 0.05,-0.3 0,-1.15 -0.75,-1.5 z"
         id="path74" />
    </g>
    <g
       id="Layer1_15_FILL">
      <path
         fill="#3c3f3e"
         stroke="none"
         d="m 1316.15,437.85 v 36.5 h 36.5 v -36.5 h -36.5 m 23.1,3.95 q 0.15,0.05 0.35,0.1 0.15,0.05 0.35,0.1 0.1,0.1 0.3,0.15 0.15,0.05 0.3,0.1 0.2,0.05 0.3,0.15 0.15,0.1 0.3,0.15 0.15,0.1 0.3,0.15 0.15,0.1 0.3,0.15 0.15,0.1 0.3,0.2 0.15,0.05 0.25,0.15 0.15,0.1 0.3,0.2 0.15,0.05 0.25,0.15 0.15,0.05 0.3,0.2 0.1,0.05 0.2,0.2 0.15,0.05 0.25,0.2 0.15,0.05 0.3,0.15 0.1,0.1 0.2,0.2 0.15,0.1 0.25,0.25 0.1,0.1 0.2,0.2 0.15,0.1 0.3,0.2 0.1,0.1 0.2,0.2 0.1,0.15 0.2,0.25 0.15,0.1 0.2,0.25 0.15,0.1 0.2,0.2 0.15,0.15 0.25,0.25 0.1,0.1 0.2,0.25 0.1,0.1 0.2,0.25 0.1,0.15 0.2,0.25 0.1,0.1 0.2,0.25 0.1,0.1 0.2,0.25 0.05,0.15 0.15,0.3 0.05,0.1 0.15,0.25 0.1,0.15 0.15,0.3 0.1,0.1 0.25,0.25 0.05,0.15 0.1,0.3 0.1,0.15 0.15,0.3 0.1,0.15 0.15,0.3 0.1,0.15 0.15,0.3 0.05,0.2 0.1,0.35 0.1,0.15 0.15,0.3 0.05,0.2 0.1,0.35 0.1,0.1 0.15,0.3 0.1,0.15 0.1,0.35 0.05,0.15 0.1,0.35 0.1,0.15 0.1,0.35 0.05,0.15 0.1,0.35 0,0.2 0.05,0.35 0.05,0.2 0.1,0.4 0,0.2 0,0.35 0.1,0.25 0.1,0.4 0.05,0.2 0.05,0.4 0,0.2 0,0.45 0,0.25 0,0.45 0,0.2 0,0.45 0,0.2 0,0.45 0,0.2 0,0.45 0,0.2 0,0.4 0,0.25 0,0.45 -0.05,0.2 -0.1,0.4 0,0.2 -0.05,0.4 0,0.2 -0.05,0.35 -0.05,0.2 -0.05,0.4 -0.05,0.2 -0.1,0.35 -0.05,0.15 -0.15,0.35 0,0.2 -0.05,0.35 -0.05,0.15 -0.1,0.35 -0.05,0.15 -0.1,0.3 -0.05,0.2 -0.15,0.35 -0.05,0.15 -0.1,0.35 -0.05,0.1 -0.15,0.3 -0.05,0.15 -0.15,0.3 -0.05,0.15 -0.15,0.3 -0.05,0.1 -0.1,0.3 -0.1,0.15 -0.15,0.3 -0.1,0.1 -0.2,0.25 -0.1,0.15 -0.15,0.3 -0.05,0.15 -0.15,0.3 -0.1,0.15 -0.2,0.25 -0.1,0.1 -0.2,0.25 -0.05,0.15 -0.15,0.3 -0.1,0.1 -0.2,0.25 -0.1,0.1 -0.2,0.25 -0.1,0.1 -0.2,0.25 -0.1,0.1 -0.2,0.25 -0.1,0.1 -0.2,0.2 -0.1,0.15 -0.2,0.25 -0.15,0.1 -0.25,0.25 -0.1,0.1 -0.2,0.2 -0.1,0.15 -0.25,0.25 -0.15,0.1 -0.25,0.15 -0.1,0.15 -0.2,0.2 -0.15,0.15 -0.3,0.2 -0.1,0.15 -0.2,0.25 -0.15,0.1 -0.25,0.2 -0.15,0.1 -0.3,0.15 -0.1,0.1 -0.25,0.2 -0.15,0.1 -0.25,0.15 -0.15,0.1 -0.25,0.2 -0.15,0.1 -0.3,0.2 -0.15,0.1 -0.3,0.15 -0.15,0.1 -0.3,0.15 -0.1,0.1 -0.25,0.15 -0.15,0.1 -0.3,0.2 -0.15,0.05 -0.3,0.1 -0.15,0.1 -0.3,0.15 -0.2,0.1 -0.35,0.1 -0.15,0.05 -0.3,0.15 -0.15,0.05 -0.35,0.1 -0.15,0.05 -0.3,0.15 -0.2,0 -0.35,0.05 -0.2,0.1 -0.35,0.15 -0.2,0.05 -0.35,0.05 -0.2,0.05 -0.35,0.1 -0.25,0.05 -0.4,0.05 -0.2,0.05 -0.4,0.1 -0.2,0.05 -0.35,0.05 -0.15,0.05 -0.2,-0.05 -0.1,-0.5 -0.1,-1.15 0.05,-2.3 0.05,-4.7 0,-2.15 0,-4.2 0,-0.1 0.05,-0.1 0.45,-0.05 1,-0.05 1.5,0.05 3,0 0.35,-2 0.75,-3.95 0.05,-0.3 0,-0.5 -0.2,-0.05 -0.55,-0.05 -2.1,0.05 -4.15,0 h -0.05 q -0.1,-0.55 -0.1,-1.15 0,-1.2 0.35,-2.15 0.45,-1.25 1.9,-1.5 1.2,-0.25 2.55,-0.05 0.2,0 0.3,-0.1 0.1,-0.4 0.1,-0.95 0,-1.55 -0.05,-3.05 -0.4,-0.2 -0.95,-0.25 -2.15,-0.3 -4.35,0.05 -2,0.3 -3.2,1.4 -1.25,1.15 -1.65,3.1 -0.4,1.7 -0.25,3.8 0,0.5 -0.1,0.85 -0.65,0.05 -1.45,0.05 -0.8,-0.05 -1.5,0 -0.1,0.5 -0.1,1.1 0.05,1.7 0.05,3.35 1.5,0 3,0.05 0.1,0.35 0.1,0.85 0,2.35 0,4.7 0,2.2 -0.1,4.3 -0.95,-0.15 -1.75,-0.5 -1.7,-0.7 -3.1,-1.65 -1.4,-1 -2.5,-2.2 -1.15,-1.2 -2,-2.75 -0.2,-0.35 -0.4,-0.75 -0.75,-1.6 -1.2,-3.5 -0.35,-1.6 -0.35,-3.6 0.05,-0.15 0.1,-0.4 0,-0.15 0,-0.4 0.05,-0.15 0.05,-0.35 0.05,-0.25 0.05,-0.45 0.05,-0.2 0.05,-0.4 0.05,-0.15 0.1,-0.35 0.05,-0.2 0.05,-0.4 0.05,-0.15 0.05,-0.35 0.05,-0.2 0.1,-0.3 0.05,-0.25 0.1,-0.35 0.1,-0.2 0.15,-0.35 0,-0.2 0.1,-0.35 0.05,-0.15 0.1,-0.35 0.1,-0.15 0.15,-0.3 0.05,-0.15 0.15,-0.3 0.05,-0.15 0.15,-0.35 0.05,-0.15 0.1,-0.25 0.1,-0.15 0.2,-0.3 0.05,-0.15 0.15,-0.3 0.05,-0.15 0.15,-0.3 0.05,-0.15 0.15,-0.3 0.1,-0.1 0.15,-0.25 0.15,-0.15 0.2,-0.3 0.1,-0.1 0.15,-0.25 0.15,-0.1 0.2,-0.25 0.1,-0.1 0.2,-0.25 0.1,-0.15 0.2,-0.25 0.1,-0.15 0.2,-0.25 0.1,-0.1 0.25,-0.25 0.1,-0.1 0.2,-0.2 0.05,-0.15 0.2,-0.25 0.1,-0.1 0.2,-0.25 0.1,-0.1 0.2,-0.2 0.15,-0.1 0.3,-0.2 0.1,-0.1 0.2,-0.2 0.1,-0.1 0.25,-0.25 0.1,-0.1 0.25,-0.2 0.1,-0.05 0.25,-0.2 0.1,-0.1 0.25,-0.2 0.1,-0.1 0.25,-0.15 0.15,-0.1 0.25,-0.2 0.15,-0.1 0.25,-0.2 0.15,-0.1 0.3,-0.15 0.1,-0.1 0.25,-0.2 0.15,-0.05 0.3,-0.15 0.1,-0.1 0.3,-0.2 0.1,-0.05 0.3,-0.15 0.15,-0.05 0.25,-0.1 0.15,-0.1 0.35,-0.15 0.15,-0.05 0.3,-0.15 0.15,-0.05 0.3,-0.15 0.15,-0.05 0.35,-0.1 0.15,-0.05 0.3,-0.15 0.15,-0.05 0.35,-0.1 0.2,-0.05 0.35,-0.05 0.15,-0.05 0.35,-0.1 0.15,-0.05 0.35,-0.1 0.2,0 0.35,-0.05 0.2,-0.1 0.4,-0.1 0.25,0 0.4,-0.05 0.15,-0.05 0.35,-0.05 0.25,-0.05 0.45,-0.05 0.2,-0.05 0.4,-0.05 0.2,-0.05 0.4,-0.05 0.2,0 0.4,0 0.2,0 0.45,-0.05 0.25,0 0.45,0.05 0.2,0 0.4,0 0.2,0.05 0.4,0.05 0.15,0.05 0.4,0.1 0.2,0 0.4,0.05 0.15,0 0.4,0.05 0.2,0 0.35,0.1 0.15,0.05 0.4,0.05 0.15,0 0.3,0.1 0.2,0 0.4,0.05 0.15,0.05 0.3,0.1 0.2,0.05 0.35,0.15 z"
         id="path77" />
      <path
         fill="#ff00fe"
         stroke="none"
         d="m 1339.6,441.9 q -0.2,-0.05 -0.35,-0.1 -0.15,-0.1 -0.35,-0.15 -0.15,-0.05 -0.3,-0.1 -0.2,-0.05 -0.4,-0.05 -0.15,-0.1 -0.3,-0.1 -0.25,0 -0.4,-0.05 -0.15,-0.1 -0.35,-0.1 -0.25,-0.05 -0.4,-0.05 -0.2,-0.05 -0.4,-0.05 -0.25,-0.05 -0.4,-0.1 -0.2,0 -0.4,-0.05 -0.2,0 -0.4,0 -0.2,-0.05 -0.45,-0.05 -0.25,0.05 -0.45,0.05 -0.2,0 -0.4,0 -0.2,0 -0.4,0.05 -0.2,0 -0.4,0.05 -0.2,0 -0.45,0.05 -0.2,0 -0.35,0.05 -0.15,0.05 -0.4,0.05 -0.2,0 -0.4,0.1 -0.15,0.05 -0.35,0.05 -0.2,0.05 -0.35,0.1 -0.2,0.05 -0.35,0.1 -0.15,0 -0.35,0.05 -0.2,0.05 -0.35,0.1 -0.15,0.1 -0.3,0.15 -0.2,0.05 -0.35,0.1 -0.15,0.1 -0.3,0.15 -0.15,0.1 -0.3,0.15 -0.2,0.05 -0.35,0.15 -0.1,0.05 -0.25,0.1 -0.2,0.1 -0.3,0.15 -0.2,0.1 -0.3,0.2 -0.15,0.1 -0.3,0.15 -0.15,0.1 -0.25,0.2 -0.15,0.05 -0.3,0.15 -0.1,0.1 -0.25,0.2 -0.1,0.1 -0.25,0.2 -0.15,0.05 -0.25,0.15 -0.15,0.1 -0.25,0.2 -0.15,0.15 -0.25,0.2 -0.15,0.1 -0.25,0.2 -0.15,0.15 -0.25,0.25 -0.1,0.1 -0.2,0.2 -0.15,0.1 -0.3,0.2 -0.1,0.1 -0.2,0.2 -0.1,0.15 -0.2,0.25 -0.15,0.1 -0.2,0.25 -0.1,0.1 -0.2,0.2 -0.15,0.15 -0.25,0.25 -0.1,0.1 -0.2,0.25 -0.1,0.1 -0.2,0.25 -0.1,0.15 -0.2,0.25 -0.05,0.15 -0.2,0.25 -0.05,0.15 -0.15,0.25 -0.05,0.15 -0.2,0.3 -0.05,0.15 -0.15,0.25 -0.1,0.15 -0.15,0.3 -0.1,0.15 -0.15,0.3 -0.1,0.15 -0.15,0.3 -0.1,0.15 -0.2,0.3 -0.05,0.1 -0.1,0.25 -0.1,0.2 -0.15,0.35 -0.1,0.15 -0.15,0.3 -0.05,0.15 -0.15,0.3 -0.05,0.2 -0.1,0.35 -0.1,0.15 -0.1,0.35 -0.05,0.15 -0.15,0.35 -0.05,0.1 -0.1,0.35 -0.05,0.1 -0.1,0.3 0,0.2 -0.05,0.35 0,0.2 -0.05,0.4 -0.05,0.2 -0.1,0.35 0,0.2 -0.05,0.4 0,0.2 -0.05,0.45 0,0.2 -0.05,0.35 0,0.25 0,0.4 -0.05,0.25 -0.1,0.4 0,2 0.35,3.6 0.45,1.9 1.2,3.5 0.2,0.4 0.4,0.75 0.85,1.55 2,2.75 1.1,1.2 2.5,2.2 1.4,0.95 3.1,1.65 0.8,0.35 1.75,0.5 0.1,-2.1 0.1,-4.3 0,-2.35 0,-4.7 0,-0.5 -0.1,-0.85 -1.5,-0.05 -3,-0.05 0,-1.65 -0.05,-3.35 0,-0.6 0.1,-1.1 0.7,-0.05 1.5,0 0.8,0 1.45,-0.05 0.1,-0.35 0.1,-0.85 -0.15,-2.1 0.25,-3.8 0.4,-1.95 1.65,-3.1 1.2,-1.1 3.2,-1.4 2.2,-0.35 4.35,-0.05 0.55,0.05 0.95,0.25 0.05,1.5 0.05,3.05 0,0.55 -0.1,0.95 -0.1,0.1 -0.3,0.1 -1.35,-0.2 -2.55,0.05 -1.45,0.25 -1.9,1.5 -0.35,0.95 -0.35,2.15 0,0.6 0.1,1.15 h 0.05 q 2.05,0.05 4.15,0 0.35,0 0.55,0.05 0.05,0.2 0,0.5 -0.4,1.95 -0.75,3.95 -1.5,0.05 -3,0 -0.55,0 -1,0.05 -0.05,0 -0.05,0.1 0,2.05 0,4.2 0,2.4 -0.05,4.7 0,0.65 0.1,1.15 0.05,0.1 0.2,0.05 0.15,0 0.35,-0.05 0.2,-0.05 0.4,-0.1 0.15,0 0.4,-0.05 0.15,-0.05 0.35,-0.1 0.15,0 0.35,-0.05 0.15,-0.05 0.35,-0.15 0.15,-0.05 0.35,-0.05 0.15,-0.1 0.3,-0.15 0.2,-0.05 0.35,-0.1 0.15,-0.1 0.3,-0.15 0.15,0 0.35,-0.1 0.15,-0.05 0.3,-0.15 0.15,-0.05 0.3,-0.1 0.15,-0.1 0.3,-0.2 0.15,-0.05 0.25,-0.15 0.15,-0.05 0.3,-0.15 0.15,-0.05 0.3,-0.15 0.15,-0.1 0.3,-0.2 0.1,-0.1 0.25,-0.2 0.1,-0.05 0.25,-0.15 0.15,-0.1 0.25,-0.2 0.15,-0.05 0.3,-0.15 0.1,-0.1 0.25,-0.2 0.1,-0.1 0.2,-0.25 0.15,-0.05 0.3,-0.2 0.1,-0.05 0.2,-0.2 0.1,-0.05 0.25,-0.15 0.15,-0.1 0.25,-0.25 0.1,-0.1 0.2,-0.2 0.1,-0.15 0.25,-0.25 0.1,-0.1 0.2,-0.25 0.1,-0.1 0.2,-0.2 0.1,-0.15 0.2,-0.25 0.1,-0.15 0.2,-0.25 0.1,-0.15 0.2,-0.25 0.1,-0.15 0.2,-0.25 0.1,-0.15 0.15,-0.3 0.1,-0.15 0.2,-0.25 0.1,-0.1 0.2,-0.25 0.1,-0.15 0.15,-0.3 0.05,-0.15 0.15,-0.3 0.1,-0.15 0.2,-0.25 0.05,-0.15 0.15,-0.3 0.05,-0.2 0.1,-0.3 0.1,-0.15 0.15,-0.3 0.1,-0.15 0.15,-0.3 0.1,-0.2 0.15,-0.3 0.05,-0.2 0.1,-0.35 0.1,-0.15 0.15,-0.35 0.05,-0.15 0.1,-0.3 0.05,-0.2 0.1,-0.35 0.05,-0.15 0.05,-0.35 0.1,-0.2 0.15,-0.35 0.05,-0.15 0.1,-0.35 0,-0.2 0.05,-0.4 0.05,-0.15 0.05,-0.35 0.05,-0.2 0.05,-0.4 0.05,-0.2 0.1,-0.4 0,-0.2 0,-0.45 0,-0.2 0,-0.4 0,-0.25 0,-0.45 0,-0.25 0,-0.45 0,-0.25 0,-0.45 0,-0.2 0,-0.45 0,-0.25 0,-0.45 0,-0.2 -0.05,-0.4 0,-0.15 -0.1,-0.4 0,-0.15 0,-0.35 -0.05,-0.2 -0.1,-0.4 -0.05,-0.15 -0.05,-0.35 -0.05,-0.2 -0.1,-0.35 0,-0.2 -0.1,-0.35 -0.05,-0.2 -0.1,-0.35 0,-0.2 -0.1,-0.35 -0.05,-0.2 -0.15,-0.3 -0.05,-0.15 -0.1,-0.35 -0.05,-0.15 -0.15,-0.3 -0.05,-0.15 -0.1,-0.35 -0.05,-0.15 -0.15,-0.3 -0.05,-0.15 -0.15,-0.3 -0.05,-0.15 -0.15,-0.3 -0.05,-0.15 -0.1,-0.3 -0.15,-0.15 -0.25,-0.25 -0.05,-0.15 -0.15,-0.3 -0.1,-0.15 -0.15,-0.25 -0.1,-0.15 -0.15,-0.3 -0.1,-0.15 -0.2,-0.25 -0.1,-0.15 -0.2,-0.25 -0.1,-0.1 -0.2,-0.25 -0.1,-0.15 -0.2,-0.25 -0.1,-0.15 -0.2,-0.25 -0.1,-0.1 -0.25,-0.25 -0.05,-0.1 -0.2,-0.2 -0.05,-0.15 -0.2,-0.25 -0.1,-0.1 -0.2,-0.25 -0.1,-0.1 -0.2,-0.2 -0.15,-0.1 -0.3,-0.2 -0.1,-0.1 -0.2,-0.2 -0.1,-0.15 -0.25,-0.25 -0.1,-0.1 -0.2,-0.2 -0.15,-0.1 -0.3,-0.15 -0.1,-0.15 -0.25,-0.2 -0.1,-0.15 -0.2,-0.2 -0.15,-0.15 -0.3,-0.2 -0.1,-0.1 -0.25,-0.15 -0.15,-0.1 -0.3,-0.2 -0.1,-0.1 -0.25,-0.15 -0.15,-0.1 -0.3,-0.2 -0.15,-0.05 -0.3,-0.15 -0.15,-0.05 -0.3,-0.15 -0.15,-0.05 -0.3,-0.15 -0.1,-0.1 -0.3,-0.15 -0.15,-0.05 -0.3,-0.1 -0.2,-0.05 -0.3,-0.15 -0.2,-0.05 -0.35,-0.1 z"
         id="path79" />
    </g>
  </defs>
  <g
     id="g86"
     transform="translate(-327.25,-186.25)">
    <use
       xlink:href="#Layer1_0_FILL"
       id="use84" />
  </g>
  <g
     id="g90"
     transform="translate(-327.25,-186.25)">
    <use
       xlink:href="#Layer1_1_FILL"
       id="use88" />
  </g>
  <g
     id="g94"
     transform="translate(-327.25,-186.25)">
    <use
       xlink:href="#Layer1_2_FILL"
       id="use92" />
  </g>
  <g
     id="g98"
     transform="translate(-327.25,-186.25)">
    <use
       xlink:href="#Layer1_3_FILL"
       id="use96" />
  </g>
  <g
     id="g102"
     transform="translate(-327.25,-186.25)">
    <use
       xlink:href="#Layer1_4_FILL"
       id="use100" />
  </g>
  <g
     id="g106"
     transform="translate(-327.25,-186.25)">
    <use
       xlink:href="#Layer1_5_FILL"
       id="use104" />
  </g>
  <g
     id="g110"
     transform="translate(-327.25,-186.25)">
    <use
       xlink:href="#Layer1_6_FILL"
       id="use108" />
  </g>
  <g
     id="g114"
     transform="translate(-327.25,-186.25)">
    <use
       xlink:href="#Layer1_7_FILL"
       id="use112" />
  </g>
  <g
     id="g118"
     transform="translate(-327.25,-186.25)">
    <use
       xlink:href="#Layer1_8_FILL"
       id="use116" />
  </g>
  <g
     id="g122"
     transform="translate(-327.25,-186.25)">
    <use
       xlink:href="#Layer1_9_FILL"
       id="use120" />
  </g>
  <g
     id="g126"
     transform="translate(-327.25,-186.25)">
    <use
       xlink:href="#Layer1_10_FILL"
       id="use124" />
  </g>
  <g
     id="g130"
     transform="translate(-327.25,-186.25)">
    <use
       xlink:href="#Layer1_11_FILL"
       id="use128" />
  </g>
  <g
     id="g134"
     transform="translate(-327.25,-186.25)">
    <use
       xlink:href="#Layer1_12_FILL"
       id="use132" />
  </g>
  <g
     id="g138"
     transform="translate(-327.25,-186.25)">
    <use
       xlink:href="#Layer1_13_FILL"
       id="use136" />
  </g>
  <g
     id="g142"
     transform="translate(-327.25,-186.25)">
    <use
       xlink:href="#Layer1_14_FILL"
       id="use140" />
  </g>
  <g
     id="g146"
     transform="translate(-327.25,-186.25)">
    <use
       xlink:href="#Layer1_15_FILL"
       id="use144" />
  </g>
</svg>
