<?xml version="1.0" encoding="UTF-8" standalone="no"?>
<svg
   version="1.1"
   preserveAspectRatio="none"
   x="0px"
   y="0px"
   width="41.5"
   height="41.5"
   viewBox="0 0 41.5 41.5"
   id="svg148"
   sodipodi:docname="pictos smart.svg"
   xmlns:inkscape="http://www.inkscape.org/namespaces/inkscape"
   xmlns:sodipodi="http://sodipodi.sourceforge.net/DTD/sodipodi-0.dtd"
   xmlns:xlink="http://www.w3.org/1999/xlink"
   xmlns="http://www.w3.org/2000/svg"
   xmlns:svg="http://www.w3.org/2000/svg">
  <sodipodi:namedview
     id="namedview150"
     pagecolor="#ffffff"
     bordercolor="#000000"
     borderopacity="0.25"
     inkscape:showpageshadow="2"
     inkscape:pageopacity="0.0"
     inkscape:pagecheckerboard="0"
     inkscape:deskcolor="#d1d1d1"
     showgrid="false" />
  <defs
     id="defs82">
    <g
       id="Layer2_1_FILL">
      <path
         fill="#cccccc"
         stroke="none"
         d="m 700.9,885.7 v 41.5 h 41.5 v -41.5 h -41.5 m 28.9,3.7 v 0.05 q 3.45,0.45 5.5,2.3 0.35,0.35 0.75,0.7 0.1,0.05 0.15,0.2 1.7,2 2.15,5.25 0.05,0.15 0.05,0.3 v 0.05 q 0.1,0.2 0.1,0.45 v 0.05 q 0,0.15 0,0.35 0.05,0.1 0,0.35 0,0.05 0,0.1 v 0.05 q 0.1,0.1 0.05,0.4 v 0.05 q 0,0.2 0,0.35 0,0.1 0,0.15 v 0.05 q 0.05,0.05 0.05,0.3 v 0.05 q 0,0.3 0,0.55 v 0.1 q 0,0.25 0,0.6 v 0.1 q 0,0.2 0,0.5 0.05,3.65 0,7.45 0,0.1 0,0.3 v 0.05 q 0,0.3 0,0.5 v 0.05 q 0,0.2 0,0.45 v 0.05 q 0,0.1 0,0.3 V 912 q 0,0.2 -0.05,0.3 0,0.1 0,0.15 v 0.05 q 0,0.3 0,0.6 v 0.05 q 0.05,0.25 -0.05,0.35 v 0.05 q 0,0.2 0,0.3 v 0.1 q 0.05,0.2 0,0.3 v 0.2 q 0,0.2 -0.1,0.25 v 0.05 q 0,0.2 -0.05,0.3 -0.1,0.9 -0.35,1.65 -0.8,3 -2.9,4.8 -2.15,1.75 -5.65,2.15 -0.15,0 -0.4,0 H 729 v 0.05 q -0.15,0 -0.35,0 -0.15,0 -0.35,0 h -0.05 q -0.3,0.1 -0.55,0.1 h -0.05 q -0.15,0 -0.4,0 -0.1,0 -0.15,0 -0.2,0.05 -0.35,0.05 h -0.05 q -0.2,0 -0.3,0 h -0.05 q -0.2,0 -0.45,0 -0.2,0 -0.45,0 h -0.05 q -0.2,0 -0.4,0 -3.8,0.05 -7.4,0 h -0.05 q -0.3,0 -0.5,0 h -0.1 q -0.25,0 -0.6,0 h -0.1 q -0.3,0 -0.6,-0.05 h -0.05 q -0.2,0 -0.35,0 -0.25,0 -0.5,0 h -0.05 q -0.25,0 -0.35,-0.1 h -0.15 q -0.25,0.1 -0.3,-0.05 h -0.05 q -0.2,0 -0.35,0 h -0.05 q -0.25,0.05 -0.45,0 -0.2,0 -0.35,-0.05 -0.85,-0.1 -1.6,-0.35 -3.1,-0.8 -4.85,-2.95 -1.7,-2.1 -2.05,-5.65 -0.1,-0.15 -0.1,-0.4 v -0.05 q 0,-0.3 0,-0.65 V 913.5 H 704 q 0,-0.3 0,-0.55 v -0.05 q 0,-0.15 0,-0.4 v -0.05 h -0.05 q 0,-0.25 0,-0.45 v -0.05 q 0,-0.2 0,-0.3 v -0.05 q 0,-0.25 0,-0.45 v -0.05 q 0,-0.2 0,-0.45 v -0.05 q 0,-0.2 0,-0.35 -0.05,-0.2 -0.05,-0.35 h 0.05 v -0.05 q 0,-0.2 0,-0.3 -0.05,-3.15 -0.05,-6.2 h 0.05 v -0.1 q 0,-0.5 0,-0.95 v -0.1 q 0,-0.35 0,-0.6 v -0.1 q 0,-0.35 0,-0.6 H 704 v -0.05 q 0,-0.2 0,-0.45 0,-0.2 0,-0.4 v -0.05 q 0,-0.15 0,-0.35 h 0.05 v -0.05 q 0,-0.05 0,-0.1 0,-0.25 0,-0.5 v -0.05 q 0,-0.05 0,-0.15 v -0.05 q 0,-0.2 0,-0.45 h 0.1 v -0.05 q 0,-0.1 0,-0.3 h 0.05 q 0.45,-3.4 2.25,-5.45 1.8,-2.1 5,-2.8 0.6,-0.15 1.2,-0.2 v -0.05 q 0.2,0 0.35,0 v -0.1 q 0.25,0 0.45,0 h 0.1 v -0.05 q 0.15,0 0.35,0 0.15,0 0.35,0 h 0.1 q 0.3,0 0.55,0 h 0.05 q 0.15,0 0.3,0 h 0.05 q 0.15,0 0.3,0 h 0.05 v -0.05 q 0.35,0 0.6,0 h 0.1 q 0.35,0 0.6,0 h 0.1 q 0.5,0 0.95,0 h 0.1 v -0.05 q 3.05,0 6.2,0 v 0.05 q 0.6,0 1.15,0 h 0.05 q 0.2,0 0.4,0 0.25,0 0.45,0 h 0.05 q 0.1,0 0.3,0 h 0.05 q 0.2,0 0.45,0 v 0.05 h 0.05 q 0.25,0 0.45,0 h 0.1 q 0.2,0 0.45,0 h 0.05 q 0.2,0 0.35,0 0.2,0 0.35,0.05 0.25,0 0.45,0 v 0.1 q 0.2,0 0.35,0 m -1.75,3 q -0.15,0 -0.25,0 h -0.1 q -0.15,0 -0.25,0 h -0.05 q -0.3,0.05 -0.5,-0.05 -0.2,0 -0.4,0 h -0.05 q -0.2,0 -0.4,0 H 726 q -0.3,0 -0.65,0 h -0.05 q -0.9,0.05 -1.7,-0.05 h -0.05 q -2.3,0 -4.6,0 v 0.05 q -0.6,0 -1.15,0 h -0.05 q -0.35,0 -0.7,0 h -0.1 q -0.25,0 -0.5,0 h -0.05 q -0.25,0 -0.4,0 h -0.05 q -0.15,0 -0.3,0 v 0.05 q -0.2,0 -0.35,0 h -0.05 q -0.2,0 -0.45,0 h -0.05 q -0.05,0 -0.15,0 -0.2,0.05 -0.35,0.05 -0.2,0 -0.35,0 -0.05,0 -0.1,0 -0.2,0 -0.35,0 -1.95,0.2 -3.3,1 -2.4,1.45 -2.9,4.8 0,0.2 0,0.3 v 0.15 q 0,0.2 -0.05,0.3 0,0.1 0,0.15 v 0.1 q 0,0.3 -0.05,0.45 0,0.15 0,0.3 v 0.05 q 0,0.3 0,0.65 v 0.05 q 0.05,0.3 -0.05,0.5 v 0.05 q 0,0.15 0,0.35 v 0.05 q 0,0.3 0,0.6 v 0.05 q 0,0.35 0,0.65 v 0.05 q 0,3.75 0,7.5 v 0.05 q 0,0.3 0,0.65 v 0.05 q 0,0.15 0,0.4 v 0.05 q 0,0.2 0,0.4 0.1,0.15 0.05,0.35 v 0.05 q 0,0.2 0,0.35 v 0.05 q 0,0.15 0,0.25 v 0.05 q 0.05,0.2 0.05,0.55 v 0.05 q 0.2,3.65 2.4,5.35 1.45,1.1 3.85,1.35 0.15,0 0.35,0 v 0.05 q 0.05,0 0.1,0 h 0.05 q 0.3,0 0.6,0 0.1,0 0.2,0 h 0.05 q 0.2,0 0.45,0 0.2,0 0.4,0.05 0.15,0 0.3,0 H 716 q 0.2,0 0.45,0 h 0.05 q 0.3,0 0.6,0 0.35,0 0.65,0 h 0.05 q 0.5,0 1.1,0.05 2.3,0 4.65,0 h 0.05 v -0.05 q 0.85,0 1.7,0 h 0.05 q 0.35,0 0.65,0 h 0.05 q 0.1,0 0.3,0 h 0.05 q 0.2,0 0.5,0 v -0.05 q 0.4,0 0.75,0 h 0.05 q 0.15,0 0.25,0 0.3,0 0.6,0 h 0.05 q 0.05,0 0.15,0 v -0.05 q 0.2,0 0.35,0 3.55,-0.35 5.05,-2.7 1.05,-1.55 1.2,-4 v -0.05 q 0,-0.3 0,-0.6 h 0.05 v -0.05 q 0,-0.05 0,-0.2 v -0.05 q 0,-0.15 0,-0.3 v -0.05 q 0,-0.15 0,-0.4 0,-0.3 0,-0.5 v -0.05 q 0,-0.2 0,-0.3 v -0.05 q 0,-0.35 0,-0.65 v -0.05 q 0,-0.9 0,-1.7 h 0.05 v -0.05 q 0,-2.3 0,-4.6 -0.05,-0.6 -0.05,-1.2 0,-0.3 0,-0.6 v -0.05 q 0,-0.3 0,-0.6 v -0.05 q 0,-0.25 0,-0.45 v -0.1 q 0,-0.1 0,-0.25 0,-0.2 0,-0.35 v -0.05 q 0,-0.25 0,-0.45 V 900 q 0,-0.05 0,-0.15 h -0.05 q 0,-0.2 0,-0.35 v -0.05 q 0,-0.15 0,-0.3 V 899 q -0.05,-0.15 -0.05,-0.3 -0.2,-2.4 -1.3,-3.85 -1.7,-2.2 -5.35,-2.4 h -0.05 q -0.3,0 -0.45,-0.05 h -0.1 m 0.45,4.55 q 0,-0.1 0,-0.2 0.35,-1.2 1.65,-1.55 0.35,0 0.65,0 1.15,0.2 1.65,1.15 0.05,0.35 0.1,0.6 V 897 q 0.1,0.2 0.05,0.5 0,0.05 -0.05,0.05 -0.25,1.55 -1.75,1.75 -0.35,0.05 -0.5,0 h -0.1 q -1.5,-0.3 -1.7,-1.75 h -0.1 q 0,-0.25 0,-0.55 h 0.1 v -0.05 m -7.75,0.6 q 0.5,0 1.1,0.1 3.5,0.4 5.45,2.25 2,1.85 2.7,5 0.1,0.5 0.15,1.05 0.05,0.45 0,1.1 0,0.05 0,0.1 v 0.05 q 0,0.25 -0.05,0.35 -0.3,2 -1.1,3.4 -0.7,1.2 -1.75,2.2 -1.95,1.85 -5.45,2.2 v 0.05 q -0.6,0.05 -1.05,-0.05 -0.85,0 -1.55,-0.15 -2.25,-0.6 -3.7,-1.8 -2.05,-1.8 -2.95,-4.85 v -0.05 q -0.05,-0.7 -0.15,-1.45 0,-0.55 0,-1.1 v -0.05 q 0,-0.15 0,-0.25 0.5,-3.35 2.4,-5.35 1,-1 2.25,-1.7 1.5,-0.8 3.7,-0.95 v -0.1 m 1.3,3.2 h -0.1 q -0.2,0.1 -0.25,0 h -0.1 q -0.05,0 -0.1,0 -0.25,0 -0.45,0 -1.35,0.1 -2.3,0.5 -2.6,1.25 -3.25,4.5 0,0.25 0,0.5 v 0.05 q 0,0.15 0,0.4 0,0.1 0,0.15 0.1,0.15 0.1,0.35 0.5,3.35 3.25,4.55 0.35,0.2 0.8,0.3 0.4,0.1 0.85,0.15 0.2,0 0.35,0 v 0.1 q 0.05,0 0.15,0 h 0.05 q 0.2,0 0.45,0 h 0.1 v -0.1 q 0.2,0 0.35,0 h 0.1 q 3.25,-0.55 4.45,-3.25 0.35,-0.75 0.45,-1.75 0,-0.15 0,-0.35 h 0.1 q 0,-0.05 0,-0.15 0,-0.25 0,-0.4 0,-0.7 -0.2,-1.25 -0.1,-0.55 -0.35,-1.05 -1.2,-2.65 -4.45,-3.25 z"
         id="path7" />
      <path
         fill="#ff00fe"
         stroke="none"
         d="m 729.8,889.45 v -0.05 q -0.15,0 -0.35,0 v -0.1 q -0.2,0 -0.45,0 -0.15,-0.05 -0.35,-0.05 -0.15,0 -0.35,0 h -0.05 q -0.25,0 -0.45,0 h -0.1 q -0.2,0 -0.45,0 h -0.05 v -0.05 q -0.25,0 -0.45,0 h -0.05 q -0.2,0 -0.3,0 h -0.05 q -0.2,0 -0.45,0 -0.2,0 -0.4,0 h -0.05 q -0.55,0 -1.15,0 v -0.05 q -3.15,0 -6.2,0 v 0.05 H 718 q -0.45,0 -0.95,0 h -0.1 q -0.25,0 -0.6,0 h -0.1 q -0.25,0 -0.6,0 v 0.05 h -0.05 q -0.15,0 -0.3,0 h -0.05 q -0.15,0 -0.3,0 h -0.05 q -0.25,0 -0.55,0 h -0.1 q -0.2,0 -0.35,0 -0.2,0 -0.35,0 v 0.05 h -0.1 q -0.2,0 -0.45,0 v 0.1 q -0.15,0 -0.35,0 v 0.05 q -0.6,0.05 -1.2,0.2 -3.2,0.7 -5,2.8 -1.8,2.05 -2.25,5.45 h -0.05 q 0,0.2 0,0.3 v 0.05 h -0.1 q 0,0.25 0,0.45 v 0.05 q 0,0.1 0,0.15 v 0.05 q 0,0.25 0,0.5 0,0.05 0,0.1 v 0.05 H 704 q 0,0.2 0,0.35 V 900 q 0,0.2 0,0.4 0,0.25 0,0.45 v 0.05 h -0.05 q 0,0.25 0,0.6 v 0.1 q 0,0.25 0,0.6 v 0.1 q 0,0.45 0,0.95 v 0.1 h -0.05 q 0,3.05 0.05,6.2 0,0.1 0,0.3 v 0.05 h -0.05 q 0,0.15 0.05,0.35 0,0.15 0,0.35 v 0.05 q 0,0.25 0,0.45 v 0.05 q 0,0.2 0,0.45 v 0.05 q 0,0.1 0,0.3 V 912 q 0,0.2 0,0.45 H 704 v 0.05 q 0,0.25 0,0.4 v 0.05 q 0,0.25 0,0.55 h 0.05 v 0.05 q 0,0.35 0,0.65 v 0.05 q 0,0.25 0.1,0.4 0.35,3.55 2.05,5.65 1.75,2.15 4.85,2.95 0.75,0.25 1.6,0.35 0.15,0.05 0.35,0.05 0.2,0.05 0.45,0 h 0.05 q 0.15,0 0.35,0 h 0.05 q 0.05,0.15 0.3,0.05 h 0.15 q 0.1,0.1 0.35,0.1 h 0.05 q 0.25,0 0.5,0 0.15,0 0.35,0 h 0.05 q 0.3,0.05 0.6,0.05 h 0.1 q 0.35,0 0.6,0 h 0.1 q 0.2,0 0.5,0 h 0.05 q 3.6,0.05 7.4,0 0.2,0 0.4,0 h 0.05 q 0.25,0 0.45,0 0.25,0 0.45,0 h 0.05 q 0.1,0 0.3,0 h 0.05 q 0.15,0 0.35,-0.05 0.05,0 0.15,0 0.25,0 0.4,0 h 0.05 q 0.25,0 0.55,-0.1 h 0.05 q 0.2,0 0.35,0 0.2,0 0.35,0 v -0.05 h 0.05 q 0.25,0 0.4,0 3.5,-0.4 5.65,-2.15 2.1,-1.8 2.9,-4.8 0.25,-0.75 0.35,-1.65 0.05,-0.1 0.05,-0.3 v -0.05 q 0.1,-0.05 0.1,-0.25 v -0.2 q 0.05,-0.1 0,-0.3 v -0.1 q 0,-0.1 0,-0.3 v -0.05 q 0.1,-0.1 0.05,-0.35 v -0.05 q 0,-0.3 0,-0.6 v -0.05 q 0,-0.05 0,-0.15 0.05,-0.1 0.05,-0.3 v -0.05 q 0,-0.2 0,-0.3 v -0.05 q 0,-0.25 0,-0.45 v -0.05 q 0,-0.2 0,-0.5 v -0.05 q 0,-0.2 0,-0.3 0.05,-3.8 0,-7.45 0,-0.3 0,-0.5 v -0.1 q 0,-0.35 0,-0.6 v -0.1 q 0,-0.25 0,-0.55 v -0.05 q 0,-0.25 -0.05,-0.3 v -0.05 q 0,-0.05 0,-0.15 0,-0.15 0,-0.35 V 900 q 0.05,-0.3 -0.05,-0.4 v -0.05 q 0,-0.05 0,-0.1 0.05,-0.25 0,-0.35 0,-0.2 0,-0.35 v -0.05 q 0,-0.25 -0.1,-0.45 v -0.05 q 0,-0.15 -0.05,-0.3 -0.45,-3.25 -2.15,-5.25 -0.05,-0.15 -0.15,-0.2 -0.4,-0.35 -0.75,-0.7 -2.05,-1.85 -5.5,-2.3 m -2,2.95 q 0.1,0 0.25,0 h 0.1 q 0.15,0.05 0.45,0.05 h 0.05 q 3.65,0.2 5.35,2.4 1.1,1.45 1.3,3.85 0,0.15 0.05,0.3 v 0.15 q 0,0.15 0,0.3 v 0.05 q 0,0.15 0,0.35 h 0.05 q 0,0.1 0,0.15 v 0.05 q 0,0.2 0,0.45 v 0.05 q 0,0.15 0,0.35 0,0.15 0,0.25 v 0.1 q 0,0.2 0,0.45 v 0.05 q 0,0.3 0,0.6 v 0.05 q 0,0.3 0,0.6 0,0.6 0.05,1.2 0,2.3 0,4.6 v 0.05 h -0.05 q 0,0.8 0,1.7 v 0.05 q 0,0.3 0,0.65 v 0.05 q 0,0.1 0,0.3 v 0.05 q 0,0.2 0,0.5 0,0.25 0,0.4 v 0.05 q 0,0.15 0,0.3 v 0.05 q 0,0.15 0,0.2 v 0.05 h -0.05 q 0,0.3 0,0.6 v 0.05 q -0.15,2.45 -1.2,4 -1.5,2.35 -5.05,2.7 -0.15,0 -0.35,0 v 0.05 q -0.1,0 -0.15,0 h -0.05 q -0.3,0 -0.6,0 -0.1,0 -0.25,0 h -0.05 q -0.35,0 -0.75,0 v 0.05 q -0.3,0 -0.5,0 h -0.05 q -0.2,0 -0.3,0 H 726 q -0.3,0 -0.65,0 h -0.05 q -0.85,0 -1.7,0 v 0.05 h -0.05 q -2.35,0 -4.65,0 -0.6,-0.05 -1.1,-0.05 h -0.05 q -0.3,0 -0.65,0 -0.3,0 -0.6,0 h -0.05 q -0.25,0 -0.45,0 h -0.05 q -0.15,0 -0.3,0 -0.2,-0.05 -0.4,-0.05 -0.25,0 -0.45,0 h -0.05 q -0.1,0 -0.2,0 -0.3,0 -0.6,0 h -0.05 q -0.05,0 -0.1,0 v -0.05 q -0.2,0 -0.35,0 -2.4,-0.25 -3.85,-1.35 -2.2,-1.7 -2.4,-5.35 v -0.05 q 0,-0.35 -0.05,-0.55 v -0.05 q 0,-0.1 0,-0.25 v -0.05 q 0,-0.15 0,-0.35 v -0.05 q 0.05,-0.2 -0.05,-0.35 0,-0.2 0,-0.4 v -0.05 q 0,-0.25 0,-0.4 v -0.05 q 0,-0.35 0,-0.65 v -0.05 q 0,-3.75 0,-7.5 V 903 q 0,-0.3 0,-0.65 v -0.05 q 0,-0.3 0,-0.6 v -0.05 q 0,-0.2 0,-0.35 v -0.05 q 0.1,-0.2 0.05,-0.5 v -0.05 q 0,-0.35 0,-0.65 V 900 q 0,-0.15 0,-0.3 0.05,-0.15 0.05,-0.45 v -0.1 q 0,-0.05 0,-0.15 0.05,-0.1 0.05,-0.3 v -0.15 q 0,-0.1 0,-0.3 0.5,-3.35 2.9,-4.8 1.35,-0.8 3.3,-1 0.15,0 0.35,0 0.05,0 0.1,0 0.15,0 0.35,0 0.15,0 0.35,-0.05 0.1,0 0.15,0 h 0.05 q 0.25,0 0.45,0 h 0.05 q 0.15,0 0.35,0 v -0.05 q 0.15,0 0.3,0 H 716 q 0.15,0 0.4,0 h 0.05 q 0.25,0 0.5,0 h 0.1 q 0.35,0 0.7,0 h 0.05 q 0.55,0 1.15,0 v -0.05 q 2.3,0 4.6,0 h 0.05 q 0.8,0.1 1.7,0.05 h 0.05 q 0.35,0 0.65,0 h 0.05 q 0.2,0 0.4,0 h 0.05 q 0.2,0 0.4,0 0.2,0.1 0.5,0.05 h 0.05 q 0.1,0 0.25,0 h 0.1 m -5.95,5.25 q -0.6,-0.1 -1.1,-0.1 v 0.1 q -2.2,0.15 -3.7,0.95 -1.25,0.7 -2.25,1.7 -1.9,2 -2.4,5.35 0,0.1 0,0.25 v 0.05 q 0,0.55 0,1.1 0.1,0.75 0.15,1.45 v 0.05 q 0.9,3.05 2.95,4.85 1.45,1.2 3.7,1.8 0.7,0.15 1.55,0.15 0.45,0.1 1.05,0.05 v -0.05 q 3.5,-0.35 5.45,-2.2 1.05,-1 1.75,-2.2 0.8,-1.4 1.1,-3.4 0.05,-0.1 0.05,-0.35 v -0.05 q 0,-0.05 0,-0.1 0.05,-0.65 0,-1.1 -0.05,-0.55 -0.15,-1.05 -0.7,-3.15 -2.7,-5 -1.95,-1.85 -5.45,-2.25 m 0.1,3.1 h 0.1 q 3.25,0.6 4.45,3.25 0.25,0.5 0.35,1.05 0.2,0.55 0.2,1.25 0,0.15 0,0.4 0,0.1 0,0.15 h -0.1 q 0,0.2 0,0.35 -0.1,1 -0.45,1.75 -1.2,2.7 -4.45,3.25 h -0.1 q -0.15,0 -0.35,0 v 0.1 h -0.1 q -0.25,0 -0.45,0 H 721 q -0.1,0 -0.15,0 v -0.1 q -0.15,0 -0.35,0 -0.45,-0.05 -0.85,-0.15 -0.45,-0.1 -0.8,-0.3 -2.75,-1.2 -3.25,-4.55 0,-0.2 -0.1,-0.35 0,-0.05 0,-0.15 0,-0.25 0,-0.4 v -0.05 q 0,-0.25 0,-0.5 0.65,-3.25 3.25,-4.5 0.95,-0.4 2.3,-0.5 0.2,0 0.45,0 0.05,0 0.1,0 h 0.1 q 0.05,0.1 0.25,0 m 6.55,-4 q 0,0.1 0,0.2 V 897 h -0.1 q 0,0.3 0,0.55 h 0.1 q 0.2,1.45 1.7,1.75 h 0.1 q 0.15,0.05 0.5,0 1.5,-0.2 1.75,-1.75 0.05,0 0.05,-0.05 0.05,-0.3 -0.05,-0.5 v -0.05 q -0.05,-0.25 -0.1,-0.6 -0.5,-0.95 -1.65,-1.15 -0.3,0 -0.65,0 -1.3,0.35 -1.65,1.55 z"
         id="path9" />
    </g>
  </defs>
  <g
     id="g90"
     transform="translate(-700.90002,-885.70001)">
    <use
       xlink:href="#Layer2_1_FILL"
       id="use88" />
  </g>
</svg>
