<?xml version="1.0" encoding="UTF-8" standalone="no"?>
<svg
   version="1.1"
   preserveAspectRatio="none"
   x="0px"
   y="0px"
   width="36.5"
   height="36.5"
   viewBox="0 0 36.5 36.5"
   id="svg148"
   sodipodi:docname="pictos carres.svg"
   inkscape:export-filename="../../../front/public/icons/facebook.svg"
   inkscape:export-xdpi="96"
   inkscape:export-ydpi="96"
   xmlns:inkscape="http://www.inkscape.org/namespaces/inkscape"
   xmlns:sodipodi="http://sodipodi.sourceforge.net/DTD/sodipodi-0.dtd"
   xmlns:xlink="http://www.w3.org/1999/xlink"
   xmlns="http://www.w3.org/2000/svg"
   xmlns:svg="http://www.w3.org/2000/svg">
  <sodipodi:namedview
     id="namedview150"
     pagecolor="#ffffff"
     bordercolor="#000000"
     borderopacity="0.25"
     inkscape:showpageshadow="2"
     inkscape:pageopacity="0.0"
     inkscape:pagecheckerboard="0"
     inkscape:deskcolor="#d1d1d1"
     showgrid="false" />
  <defs
     id="defs82">
    <g
       id="Layer1_11_FILL">
      <path
         fill="#3c3f3e"
         stroke="none"
         d="m 1316.15,257.25 v 36.5 h 36.5 v -36.5 h -36.5 m 5.8,6.75 q 1.55,-1.8 4.3,-2.4 0.5,-0.15 1.05,-0.2 v -0.05 q 0.15,0 0.3,0 v -0.05 q 0.2,0 0.35,0 h 0.1 v -0.05 q 0.15,0 0.3,0 0.15,0 0.3,0 h 0.1 q 0.25,0 0.45,0 h 0.05 q 0.15,0 0.25,0 h 0.05 q 0.15,0 0.25,0 h 0.05 v -0.05 q 0.3,0 0.55,0 h 0.05 q 0.3,0 0.55,0 h 0.05 q 0.45,0 0.85,0 h 0.05 v -0.05 q 2.65,0 5.35,0 v 0.05 q 0.5,0 1,0 h 0.05 q 0.15,0 0.35,0 0.2,0 0.35,0 h 0.05 q 0.1,0 0.25,0 h 0.05 q 0.2,0 0.4,0 v 0.05 h 0.05 q 0.2,0 0.4,0 h 0.05 q 0.2,0 0.4,0 h 0.05 q 0.15,0 0.3,0 0.15,0 0.3,0.05 0.2,0 0.4,0 v 0.05 q 0.15,0 0.3,0 v 0.05 q 2.95,0.4 4.7,2 0.3,0.3 0.65,0.6 0.1,0.05 0.15,0.15 1.45,1.75 1.85,4.55 0.05,0.1 0.05,0.25 V 269 q 0.05,0.15 0.05,0.35 v 0.05 q 0,0.15 0,0.3 0.05,0.1 0,0.3 0,0.05 0,0.1 v 0.05 q 0.1,0.1 0.05,0.35 v 0.05 q 0,0.15 0,0.3 0,0.05 0,0.1 V 271 q 0.05,0.05 0.05,0.25 v 0.05 q 0,0.25 0,0.5 v 0.05 q 0,0.25 0,0.55 v 0.05 q 0,0.2 0,0.45 0.05,3.15 0,6.4 0,0.1 0,0.25 v 0.05 q 0,0.25 0,0.45 v 0.05 q 0,0.15 0,0.35 v 0.05 q 0,0.1 0,0.25 v 0.05 q 0,0.2 -0.05,0.25 0,0.1 0,0.15 v 0.05 q 0,0.25 0,0.5 v 0.05 q 0.05,0.2 -0.05,0.3 v 0.05 q 0,0.15 0,0.25 v 0.1 q 0.05,0.15 0,0.25 v 0.15 q 0,0.2 -0.05,0.25 v 0.05 q 0,0.15 -0.05,0.25 -0.1,0.75 -0.3,1.4 -0.7,2.6 -2.5,4.15 -1.85,1.5 -4.85,1.85 -0.15,0 -0.35,0 h -0.05 v 0.05 q -0.15,0 -0.3,0 -0.15,0 -0.3,0 h -0.05 q -0.25,0.05 -0.45,0.05 h -0.05 q -0.15,0 -0.35,0 -0.1,0 -0.15,0 -0.15,0.05 -0.3,0.05 h -0.05 q -0.15,0 -0.25,0 h -0.05 q -0.15,0 -0.35,0 -0.2,0 -0.4,0 h -0.05 q -0.15,0 -0.35,0 -3.25,0.05 -6.35,0 h -0.05 q -0.25,0 -0.45,0 H 1331 q -0.25,0 -0.55,0 h -0.05 q -0.3,0 -0.55,-0.05 h -0.05 q -0.15,0 -0.3,0 -0.2,0 -0.4,0 h -0.05 q -0.2,0 -0.3,-0.05 h -0.15 q -0.2,0.05 -0.25,-0.05 h -0.05 q -0.15,0 -0.3,0 h -0.05 q -0.2,0.05 -0.35,0 -0.2,0 -0.3,-0.05 -0.75,-0.1 -1.4,-0.3 -2.65,-0.7 -4.15,-2.55 -1.5,-1.8 -1.8,-4.85 -0.05,-0.15 -0.05,-0.35 v -0.05 q 0,-0.25 0,-0.55 v -0.05 h -0.05 q 0,-0.25 0,-0.45 v -0.05 q 0,-0.15 0,-0.35 v -0.05 h -0.05 q 0,-0.2 0,-0.4 v -0.05 q 0,-0.15 0,-0.25 v -0.05 q 0,-0.2 0,-0.35 v -0.05 q 0,-0.2 0,-0.4 v -0.05 q 0,-0.15 0,-0.3 -0.05,-0.15 -0.05,-0.3 h 0.05 v -0.05 q 0,-0.15 0,-0.25 -0.05,-2.7 -0.05,-5.35 h 0.05 v -0.05 q 0,-0.45 0,-0.85 v -0.05 q 0,-0.3 0,-0.55 v -0.05 q 0,-0.3 0,-0.55 h 0.05 v -0.05 q 0,-0.15 0,-0.35 0,-0.2 0,-0.35 v -0.05 q 0,-0.15 0,-0.3 h 0.05 v -0.05 q 0,-0.05 0,-0.1 0,-0.2 0,-0.4 v -0.05 q 0,-0.05 0,-0.15 v -0.05 q 0,-0.15 0,-0.35 h 0.05 v -0.05 q 0,-0.1 0,-0.25 h 0.05 q 0.4,-2.95 1.95,-4.7 m 0.7,5.25 v 0.1 q 0,0.2 -0.05,0.3 0,0.05 0,0.1 v 0.1 q 0,0.25 -0.05,0.4 0,0.1 0,0.25 v 0.05 q 0,0.25 0,0.55 v 0.05 q 0.05,0.25 -0.05,0.4 v 0.05 q 0,0.15 0,0.3 v 0.05 q 0,0.25 0,0.5 v 0.05 q 0,0.3 0,0.55 v 0.05 q 0,3.25 0,6.45 v 0.05 q 0,0.25 0,0.55 v 0.05 q 0,0.15 0,0.35 v 0.05 q 0,0.15 0,0.35 0.1,0.1 0.05,0.3 v 0.05 q 0,0.15 0,0.3 v 0.05 q 0,0.1 0,0.2 v 0.05 q 0.05,0.15 0.05,0.45 v 0.05 q 0.15,3.15 2.05,4.6 1.25,0.95 3.3,1.15 0.15,0 0.3,0 v 0.05 q 0.05,0 0.1,0 h 0.05 q 0.25,0 0.5,0 0.1,0 0.2,0 h 0.05 q 0.15,0 0.35,0 0.2,0 0.35,0.05 0.15,0 0.25,0 h 0.05 q 0.2,0 0.4,0 h 0.05 q 0.25,0 0.5,0 0.3,0 0.55,0 h 0.05 q 0.45,0 0.95,0.05 2,0 4,0 h 0.05 v -0.05 q 0.75,0 1.45,0 h 0.05 q 0.3,0 0.55,0 h 0.05 q 0.1,0 0.25,0 h 0.05 q 0.2,0 0.45,0 v -0.05 q 0.35,0 0.65,0 h 0.05 q 0.1,0 0.2,0 0.25,0 0.5,0 h 0.05 q 0.05,0 0.15,0 v -0.05 q 0.15,0 0.3,0 3.05,-0.3 4.35,-2.3 0.9,-1.35 1,-3.45 v -0.05 q 0,-0.25 0,-0.5 h 0.05 v -0.05 q 0,-0.05 0,-0.15 v -0.05 q 0,-0.15 0,-0.25 v -0.05 q 0,-0.15 0,-0.35 0,-0.25 0,-0.45 v -0.05 q 0,-0.15 0,-0.25 v -0.05 q 0,-0.3 0,-0.55 v -0.05 q 0,-0.75 0,-1.45 h 0.05 v -0.05 q 0,-1.95 0,-3.95 -0.05,-0.5 -0.05,-1.05 0,-0.25 0,-0.5 v -0.05 q 0,-0.25 0,-0.5 v -0.05 q 0,-0.2 0,-0.4 v -0.05 q 0,-0.1 0,-0.25 0,-0.15 0,-0.3 v -0.05 q 0,-0.2 0,-0.35 v -0.05 q 0,-0.05 0,-0.15 h -0.05 q 0,-0.15 0,-0.3 V 270 q 0,-0.1 0,-0.25 v -0.1 q -0.05,-0.15 -0.05,-0.3 -0.15,-2.05 -1.1,-3.3 -1.45,-1.9 -4.6,-2.05 H 1341 q -0.25,0 -0.4,-0.05 h -0.05 q -0.15,0 -0.25,0 h -0.05 q -0.15,0 -0.25,0 h -0.05 q -0.25,0.05 -0.4,-0.05 -0.2,0 -0.35,0 h -0.05 q -0.15,0 -0.35,0 h -0.05 q -0.25,0 -0.55,0 h -0.05 q -0.75,0.05 -1.45,-0.05 h -0.05 q -1.95,0 -3.95,0 v 0.05 q -0.5,0 -1,0 h -0.05 q -0.3,0 -0.6,0 H 1331 q -0.25,0 -0.45,0 h -0.05 q -0.2,0 -0.35,0 h -0.05 q -0.1,0 -0.25,0 v 0.05 q -0.15,0 -0.3,0 h -0.05 q -0.15,0 -0.35,0 h -0.05 q -0.05,0 -0.15,0 -0.15,0.05 -0.3,0.05 -0.15,0 -0.3,0 -0.05,0 -0.1,0 -0.15,0 -0.3,0 -1.65,0.15 -2.8,0.85 -2.1,1.25 -2.5,4.15 0,0.15 0,0.25 m 6.5,1.5 q 0.85,-0.85 1.9,-1.45 1.3,-0.7 3.2,-0.85 v -0.05 q 0.45,0 0.95,0.05 3,0.35 4.7,1.95 1.7,1.6 2.3,4.3 0.1,0.45 0.15,0.9 0.05,0.4 0,0.95 0,0.05 0,0.1 v 0.05 q 0,0.2 -0.05,0.3 -0.25,1.7 -0.95,2.9 -0.6,1.05 -1.5,1.9 -1.7,1.6 -4.7,1.9 v 0.05 q -0.5,0.05 -0.9,-0.05 -0.75,0 -1.35,-0.15 -1.9,-0.5 -3.15,-1.55 -1.8,-1.55 -2.55,-4.15 v -0.05 q -0.05,-0.6 -0.15,-1.25 0,-0.45 0,-0.95 v -0.05 q 0,-0.1 0,-0.2 0.45,-2.9 2.1,-4.6 m 11.7,-2.35 q 0,-0.25 0,-0.5 h 0.05 v -0.05 q 0,-0.05 0,-0.15 0.3,-1.05 1.45,-1.35 0.3,0 0.55,0 1,0.2 1.4,1 0.05,0.3 0.1,0.5 v 0.05 q 0.1,0.2 0.05,0.45 0,0.05 -0.05,0.05 -0.2,1.3 -1.5,1.5 -0.3,0.05 -0.45,0 h -0.05 q -1.3,-0.25 -1.5,-1.5 h -0.05 m -5.5,2.75 h -0.05 q -0.2,0.05 -0.25,0 H 1335 q -0.05,0 -0.1,0 -0.2,0 -0.4,0 -1.15,0.05 -1.95,0.4 -2.25,1.1 -2.8,3.9 0,0.2 0,0.4 v 0.05 q 0,0.15 0,0.35 0,0.1 0,0.15 0.05,0.1 0.05,0.3 0.45,2.85 2.8,3.9 0.3,0.15 0.7,0.25 0.35,0.1 0.75,0.15 0.15,0 0.3,0 v 0.05 q 0.05,0 0.1,0 h 0.05 q 0.2,0 0.4,0 h 0.1 V 281 q 0.15,0 0.3,0 h 0.05 q 2.8,-0.5 3.85,-2.8 0.3,-0.65 0.4,-1.5 0,-0.15 0,-0.3 h 0.05 q 0,-0.05 0,-0.15 0,-0.2 0,-0.35 0,-0.6 -0.15,-1.05 -0.1,-0.5 -0.3,-0.9 -1.05,-2.3 -3.85,-2.8 z"
         id="path57" />
      <path
         fill="#ff00fe"
         stroke="none"
         d="m 1326.25,261.6 q -2.75,0.6 -4.3,2.4 -1.55,1.75 -1.95,4.7 h -0.05 q 0,0.15 0,0.25 V 269 h -0.05 q 0,0.2 0,0.35 v 0.05 q 0,0.1 0,0.15 v 0.05 q 0,0.2 0,0.4 0,0.05 0,0.1 v 0.05 h -0.05 q 0,0.15 0,0.3 v 0.05 q 0,0.15 0,0.35 0,0.2 0,0.35 v 0.05 h -0.05 q 0,0.25 0,0.55 v 0.05 q 0,0.25 0,0.55 v 0.05 q 0,0.4 0,0.85 v 0.05 h -0.05 q 0,2.65 0.05,5.35 0,0.1 0,0.25 V 279 h -0.05 q 0,0.15 0.05,0.3 0,0.15 0,0.3 v 0.05 q 0,0.2 0,0.4 v 0.05 q 0,0.15 0,0.35 v 0.05 q 0,0.1 0,0.25 v 0.05 q 0,0.2 0,0.4 h 0.05 v 0.05 q 0,0.2 0,0.35 v 0.05 q 0,0.2 0,0.45 h 0.05 v 0.05 q 0,0.3 0,0.55 v 0.05 q 0,0.2 0.05,0.35 0.3,3.05 1.8,4.85 1.5,1.85 4.15,2.55 0.65,0.2 1.4,0.3 0.1,0.05 0.3,0.05 0.15,0.05 0.35,0 h 0.05 q 0.15,0 0.3,0 h 0.05 q 0.05,0.1 0.25,0.05 h 0.15 q 0.1,0.05 0.3,0.05 h 0.05 q 0.2,0 0.4,0 0.15,0 0.3,0 h 0.05 q 0.25,0.05 0.55,0.05 h 0.05 q 0.3,0 0.55,0 h 0.05 q 0.2,0 0.45,0 h 0.05 q 3.1,0.05 6.35,0 0.2,0 0.35,0 h 0.05 q 0.2,0 0.4,0 0.2,0 0.35,0 h 0.05 q 0.1,0 0.25,0 h 0.05 q 0.15,0 0.3,-0.05 0.05,0 0.15,0 0.2,0 0.35,0 h 0.05 q 0.2,0 0.45,-0.05 h 0.05 q 0.15,0 0.3,0 0.15,0 0.3,0 v -0.05 h 0.05 q 0.2,0 0.35,0 3,-0.35 4.85,-1.85 1.8,-1.55 2.5,-4.15 0.2,-0.65 0.3,-1.4 0.05,-0.1 0.05,-0.25 v -0.05 q 0.05,-0.05 0.05,-0.25 v -0.15 q 0.05,-0.1 0,-0.25 v -0.1 q 0,-0.1 0,-0.25 v -0.05 q 0.1,-0.1 0.05,-0.3 v -0.05 q 0,-0.25 0,-0.5 v -0.05 q 0,-0.05 0,-0.15 0.05,-0.05 0.05,-0.25 v -0.05 q 0,-0.15 0,-0.25 v -0.05 q 0,-0.2 0,-0.35 v -0.05 q 0,-0.2 0,-0.45 v -0.05 q 0,-0.15 0,-0.25 0.05,-3.25 0,-6.4 0,-0.25 0,-0.45 v -0.05 q 0,-0.3 0,-0.55 v -0.05 q 0,-0.25 0,-0.5 v -0.05 q 0,-0.2 -0.05,-0.25 v -0.05 q 0,-0.05 0,-0.1 0,-0.15 0,-0.3 v -0.05 q 0.05,-0.25 -0.05,-0.35 v -0.05 q 0,-0.05 0,-0.1 0.05,-0.2 0,-0.3 0,-0.15 0,-0.3 v -0.05 q 0,-0.2 -0.05,-0.35 v -0.05 q 0,-0.15 -0.05,-0.25 -0.4,-2.8 -1.85,-4.55 -0.05,-0.1 -0.15,-0.15 -0.35,-0.3 -0.65,-0.6 -1.75,-1.6 -4.7,-2 v -0.05 q -0.15,0 -0.3,0 v -0.05 q -0.2,0 -0.4,0 -0.15,-0.05 -0.3,-0.05 -0.15,0 -0.3,0 h -0.05 q -0.2,0 -0.4,0 h -0.05 q -0.2,0 -0.4,0 h -0.05 v -0.05 q -0.2,0 -0.4,0 h -0.05 q -0.15,0 -0.25,0 h -0.05 q -0.15,0 -0.35,0 -0.2,0 -0.35,0 h -0.05 q -0.5,0 -1,0 v -0.05 q -2.7,0 -5.35,0 v 0.05 h -0.05 q -0.4,0 -0.85,0 H 1331 q -0.25,0 -0.55,0 h -0.05 q -0.25,0 -0.55,0 v 0.05 h -0.05 q -0.1,0 -0.25,0 h -0.05 q -0.1,0 -0.25,0 h -0.05 q -0.2,0 -0.45,0 h -0.1 q -0.15,0 -0.3,0 -0.15,0 -0.3,0 v 0.05 h -0.1 q -0.15,0 -0.35,0 v 0.05 q -0.15,0 -0.3,0 v 0.05 q -0.55,0.05 -1.05,0.2 m -3.6,7.75 v -0.1 q 0,-0.1 0,-0.25 0.4,-2.9 2.5,-4.15 1.15,-0.7 2.8,-0.85 0.15,0 0.3,0 0.05,0 0.1,0 0.15,0 0.3,0 0.15,0 0.3,-0.05 0.1,0 0.15,0 h 0.05 q 0.2,0 0.35,0 h 0.05 q 0.15,0 0.3,0 v -0.05 q 0.15,0 0.25,0 h 0.05 q 0.15,0 0.35,0 h 0.05 q 0.2,0 0.45,0 h 0.05 q 0.3,0 0.6,0 h 0.05 q 0.5,0 1,0 v -0.05 q 2,0 3.95,0 h 0.05 q 0.7,0.1 1.45,0.05 h 0.05 q 0.3,0 0.55,0 h 0.05 q 0.2,0 0.35,0 h 0.05 q 0.15,0 0.35,0 0.15,0.1 0.4,0.05 h 0.05 q 0.1,0 0.25,0 h 0.05 q 0.1,0 0.25,0 h 0.05 q 0.15,0.05 0.4,0.05 h 0.05 q 3.15,0.15 4.6,2.05 0.95,1.25 1.1,3.3 0,0.15 0.05,0.3 v 0.1 q 0,0.15 0,0.25 v 0.05 q 0,0.15 0,0.3 h 0.05 q 0,0.1 0,0.15 v 0.05 q 0,0.15 0,0.35 v 0.05 q 0,0.15 0,0.3 0,0.15 0,0.25 v 0.05 q 0,0.2 0,0.4 V 272 q 0,0.25 0,0.5 v 0.05 q 0,0.25 0,0.5 0,0.55 0.05,1.05 0,2 0,3.95 v 0.05 h -0.05 q 0,0.7 0,1.45 v 0.05 q 0,0.25 0,0.55 v 0.05 q 0,0.1 0,0.25 v 0.05 q 0,0.2 0,0.45 0,0.2 0,0.35 v 0.05 q 0,0.1 0,0.25 v 0.05 q 0,0.1 0,0.15 v 0.05 h -0.05 q 0,0.25 0,0.5 v 0.05 q -0.1,2.1 -1,3.45 -1.3,2 -4.35,2.3 -0.15,0 -0.3,0 v 0.05 q -0.1,0 -0.15,0 h -0.05 q -0.25,0 -0.5,0 -0.1,0 -0.2,0 h -0.05 q -0.3,0 -0.65,0 v 0.05 q -0.25,0 -0.45,0 h -0.05 q -0.15,0 -0.25,0 h -0.05 q -0.25,0 -0.55,0 h -0.05 q -0.7,0 -1.45,0 v 0.05 h -0.05 q -2,0 -4,0 -0.5,-0.05 -0.95,-0.05 h -0.05 q -0.25,0 -0.55,0 -0.25,0 -0.5,0 h -0.05 q -0.2,0 -0.4,0 h -0.05 q -0.1,0 -0.25,0 -0.15,-0.05 -0.35,-0.05 -0.2,0 -0.35,0 h -0.05 q -0.1,0 -0.2,0 -0.25,0 -0.5,0 h -0.05 q -0.05,0 -0.1,0 v -0.05 q -0.15,0 -0.3,0 -2.05,-0.2 -3.3,-1.15 -1.9,-1.45 -2.05,-4.6 v -0.05 q 0,-0.3 -0.05,-0.45 v -0.05 q 0,-0.1 0,-0.2 v -0.05 q 0,-0.15 0,-0.3 v -0.05 q 0.05,-0.2 -0.05,-0.3 0,-0.2 0,-0.35 v -0.05 q 0,-0.2 0,-0.35 v -0.05 q 0,-0.3 0,-0.55 v -0.05 q 0,-3.2 0,-6.45 v -0.05 q 0,-0.25 0,-0.55 v -0.05 q 0,-0.25 0,-0.5 v -0.05 q 0,-0.15 0,-0.3 v -0.05 q 0.1,-0.15 0.05,-0.4 v -0.05 q 0,-0.3 0,-0.55 v -0.05 q 0,-0.15 0,-0.25 0.05,-0.15 0.05,-0.4 v -0.1 q 0,-0.05 0,-0.1 0.05,-0.1 0.05,-0.3 m 18.2,-1.45 q 0,0.25 0,0.5 h 0.05 q 0.2,1.25 1.5,1.5 h 0.05 q 0.15,0.05 0.45,0 1.3,-0.2 1.5,-1.5 0.05,0 0.05,-0.05 0.05,-0.25 -0.05,-0.45 v -0.05 q -0.05,-0.2 -0.1,-0.5 -0.4,-0.8 -1.4,-1 -0.25,0 -0.55,0 -1.15,0.3 -1.45,1.35 0,0.1 0,0.15 v 0.05 h -0.05 m -9.8,1.4 q -1.05,0.6 -1.9,1.45 -1.65,1.7 -2.1,4.6 0,0.1 0,0.2 v 0.05 q 0,0.5 0,0.95 0.1,0.65 0.15,1.25 v 0.05 q 0.75,2.6 2.55,4.15 1.25,1.05 3.15,1.55 0.6,0.15 1.35,0.15 0.4,0.1 0.9,0.05 v -0.05 q 3,-0.3 4.7,-1.9 0.9,-0.85 1.5,-1.9 0.7,-1.2 0.95,-2.9 0.05,-0.1 0.05,-0.3 v -0.05 q 0,-0.05 0,-0.1 0.05,-0.55 0,-0.95 -0.05,-0.45 -0.15,-0.9 -0.6,-2.7 -2.3,-4.3 -1.7,-1.6 -4.7,-1.95 -0.5,-0.05 -0.95,-0.05 v 0.05 q -1.9,0.15 -3.2,0.85 m 4.25,1.85 h 0.05 q 2.8,0.5 3.85,2.8 0.2,0.4 0.3,0.9 0.15,0.45 0.15,1.05 0,0.15 0,0.35 0,0.1 0,0.15 h -0.05 q 0,0.15 0,0.3 -0.1,0.85 -0.4,1.5 -1.05,2.3 -3.85,2.8 h -0.05 q -0.15,0 -0.3,0 v 0.05 h -0.1 q -0.2,0 -0.4,0 h -0.05 q -0.05,0 -0.1,0 V 281 q -0.15,0 -0.3,0 -0.4,-0.05 -0.75,-0.15 -0.4,-0.1 -0.7,-0.25 -2.35,-1.05 -2.8,-3.9 0,-0.2 -0.05,-0.3 0,-0.05 0,-0.15 0,-0.2 0,-0.35 v -0.05 q 0,-0.2 0,-0.4 0.55,-2.8 2.8,-3.9 0.8,-0.35 1.95,-0.4 0.2,0 0.4,0 0.05,0 0.1,0 h 0.05 q 0.05,0.05 0.25,0 z"
         id="path59" />
    </g>
  </defs>
  <g
     id="g130"
     transform="translate(-1316.15,-257.25)">
    <use
       xlink:href="#Layer1_11_FILL"
       id="use128" />
  </g>
</svg>
