<?xml version="1.0" encoding="UTF-8" standalone="no"?>
<svg
   version="1.1"
   preserveAspectRatio="none"
   x="0px"
   y="0px"
   width="36.149963"
   height="8.5133362"
   viewBox="0 0 36.149963 8.5133362"
   id="svg116"
   sodipodi:docname="pc_pictos.svg"
   xmlns:inkscape="http://www.inkscape.org/namespaces/inkscape"
   xmlns:sodipodi="http://sodipodi.sourceforge.net/DTD/sodipodi-0.dtd"
   xmlns:xlink="http://www.w3.org/1999/xlink"
   xmlns="http://www.w3.org/2000/svg"
   xmlns:svg="http://www.w3.org/2000/svg">
  <sodipodi:namedview
     id="namedview118"
     pagecolor="#ffffff"
     bordercolor="#000000"
     borderopacity="0.25"
     inkscape:showpageshadow="2"
     inkscape:pageopacity="0.0"
     inkscape:pagecheckerboard="0"
     inkscape:deskcolor="#d1d1d1"
     showgrid="false" />
  <defs
     id="defs50">
    <g
       id="Layer1_2_FILL">
      <path
         fill="#ff00fe"
         stroke="none"
         d="m 686.7,284.15 q -0.85,-0.2 -2.15,-0.1 -2.4,0.15 -3.75,1.45 -0.05,0.2 0.1,0.2 h 0.05 q 0,0.05 0.1,0.05 0.05,0 0.1,0 0.65,0 1.25,-0.1 1.6,-0.25 3,0.1 h 0.05 q 0.1,0.1 0.25,0.2 0.25,0.45 0.1,1.05 -0.25,1.6 -0.8,2.9 -0.1,0.25 -0.2,0.5 -0.25,0.45 -0.05,0.85 0.1,0.05 0.15,0 0.8,-0.6 1.35,-1.45 1,-1.6 1.4,-4.15 v -0.15 q 0.05,-0.2 0,-0.35 v -0.1 q -0.05,-0.75 -0.95,-0.9 m -35.15,0.55 v 0.05 q 0,0.05 0,0.1 v 0.05 q -0.05,0.05 0,0.05 0.3,0.4 0.7,0.75 1.35,1.25 2.9,2.3 1.55,1.05 3.3,1.95 1.75,0.85 3.75,1.45 1.95,0.65 4.3,0.95 2.4,0.3 4.9,0.1 2.45,-0.2 4.5,-0.75 2.1,-0.55 3.9,-1.35 1.8,-0.8 3.4,-1.85 0.8,-0.5 1.35,-1.25 0,-0.1 0,-0.25 -0.15,-0.3 -0.45,-0.4 -0.7,0.15 -1.3,0.4 -1.85,0.8 -3.85,1.45 -2,0.55 -4.3,0.9 -2.25,0.35 -4.85,0.35 -2.65,0 -4.9,-0.35 -2.25,-0.4 -4.25,-1 -2.05,-0.55 -3.9,-1.35 -1.8,-0.8 -3.5,-1.7 -0.4,-0.25 -0.8,-0.55 -0.4,-0.35 -0.9,-0.15 0,0.05 0,0.1 z"
         id="path8" />
    </g>
  </defs>
  <g
     id="g62"
     transform="translate(-651.52502,-284.01666)">
    <use
       xlink:href="#Layer1_2_FILL"
       id="use60" />
  </g>
</svg>
