<?xml version="1.0" encoding="UTF-8" standalone="no"?>
<svg
   version="1.1"
   preserveAspectRatio="none"
   x="0px"
   y="0px"
   width="36.5"
   height="36.5"
   viewBox="0 0 36.5 36.5"
   id="svg148"
   sodipodi:docname="pictos carres.svg"
   inkscape:export-filename="../../../front/public/icons/facebook.svg"
   inkscape:export-xdpi="96"
   inkscape:export-ydpi="96"
   xmlns:inkscape="http://www.inkscape.org/namespaces/inkscape"
   xmlns:sodipodi="http://sodipodi.sourceforge.net/DTD/sodipodi-0.dtd"
   xmlns:xlink="http://www.w3.org/1999/xlink"
   xmlns="http://www.w3.org/2000/svg"
   xmlns:svg="http://www.w3.org/2000/svg">
  <sodipodi:namedview
     id="namedview150"
     pagecolor="#ffffff"
     bordercolor="#000000"
     borderopacity="0.25"
     inkscape:showpageshadow="2"
     inkscape:pageopacity="0.0"
     inkscape:pagecheckerboard="0"
     inkscape:deskcolor="#d1d1d1"
     showgrid="false" />
  <defs
     id="defs82">
    <g
       id="Layer1_2_FILL">
      <path
         fill="#cccccc"
         stroke="none"
         d="M 689.5,267.75 H 653 v 36.5 h 36.5 v -36.5 m -35.25,16.95 v -0.05 q 0,-0.05 0,-0.1 0.5,-0.2 0.85,0.15 0.4,0.3 0.75,0.55 1.6,0.95 3.3,1.75 1.75,0.8 3.65,1.35 1.85,0.65 4,1.05 2.1,0.35 4.6,0.35 2.4,0 4.55,-0.35 2.15,-0.35 4,-0.9 1.9,-0.7 3.6,-1.5 0.6,-0.25 1.25,-0.4 0.25,0.1 0.4,0.4 0,0.15 0,0.25 -0.5,0.75 -1.25,1.3 -1.5,1.05 -3.2,1.85 -1.7,0.85 -3.65,1.4 -1.9,0.55 -4.2,0.75 -2.35,0.2 -4.6,-0.1 -2.2,-0.3 -4.05,-0.95 -1.85,-0.65 -3.5,-1.5 -1.65,-0.9 -3.1,-2 -1.45,-1.05 -2.75,-2.35 -0.35,-0.35 -0.65,-0.75 -0.05,0 0,-0.05 v -0.05 q 0,-0.05 0,-0.1 M 685.2,284 q 1.25,-0.1 2,0.1 0.85,0.15 0.9,0.9 v 0.1 q 0.05,0.15 0,0.35 v 0.15 q -0.35,2.6 -1.3,4.25 -0.5,0.85 -1.25,1.5 -0.05,0.05 -0.15,0 -0.2,-0.45 0.05,-0.9 0.1,-0.25 0.2,-0.5 0.5,-1.3 0.75,-2.95 0.1,-0.6 -0.1,-1.05 -0.15,-0.1 -0.25,-0.25 H 686 q -1.3,-0.35 -2.8,-0.1 -0.55,0.1 -1.2,0.1 h -0.05 q -0.1,0 -0.1,-0.05 h -0.05 q -0.15,0 -0.1,-0.2 1.25,-1.3 3.5,-1.45 z"
         id="path12" />
      <path
         fill="#ff00fe"
         stroke="none"
         d="m 687.2,284.1 q -0.75,-0.2 -2,-0.1 -2.25,0.15 -3.5,1.45 -0.05,0.2 0.1,0.2 h 0.05 q 0,0.05 0.1,0.05 H 682 q 0.65,0 1.2,-0.1 1.5,-0.25 2.8,0.1 h 0.05 q 0.1,0.15 0.25,0.25 0.2,0.45 0.1,1.05 -0.25,1.65 -0.75,2.95 -0.1,0.25 -0.2,0.5 -0.25,0.45 -0.05,0.9 0.1,0.05 0.15,0 0.75,-0.65 1.25,-1.5 0.95,-1.65 1.3,-4.25 v -0.15 q 0.05,-0.2 0,-0.35 V 285 q -0.05,-0.75 -0.9,-0.9 m -32.95,0.55 v 0.05 q 0,0.05 0,0.1 v 0.05 q -0.05,0.05 0,0.05 0.3,0.4 0.65,0.75 1.3,1.3 2.75,2.35 1.45,1.1 3.1,2 1.65,0.85 3.5,1.5 1.85,0.65 4.05,0.95 2.25,0.3 4.6,0.1 2.3,-0.2 4.2,-0.75 1.95,-0.55 3.65,-1.4 1.7,-0.8 3.2,-1.85 0.75,-0.55 1.25,-1.3 0,-0.1 0,-0.25 -0.15,-0.3 -0.4,-0.4 -0.65,0.15 -1.25,0.4 -1.7,0.8 -3.6,1.5 -1.85,0.55 -4,0.9 -2.15,0.35 -4.55,0.35 -2.5,0 -4.6,-0.35 -2.15,-0.4 -4,-1.05 -1.9,-0.55 -3.65,-1.35 -1.7,-0.8 -3.3,-1.75 -0.35,-0.25 -0.75,-0.55 -0.35,-0.35 -0.85,-0.15 0,0.05 0,0.1 z"
         id="path14" />
    </g>
  </defs>
  <g
     id="g94"
     transform="translate(-653,-267.75)">
    <use
       xlink:href="#Layer1_2_FILL"
       id="use92" />
  </g>
</svg>
