<?xml version="1.0" encoding="UTF-8" standalone="no"?>
<svg
   version="1.1"
   preserveAspectRatio="none"
   x="0px"
   y="0px"
   width="41.5"
   height="41.5"
   viewBox="0 0 41.5 41.5"
   id="svg148"
   sodipodi:docname="pictos smart.svg"
   xmlns:inkscape="http://www.inkscape.org/namespaces/inkscape"
   xmlns:sodipodi="http://sodipodi.sourceforge.net/DTD/sodipodi-0.dtd"
   xmlns:xlink="http://www.w3.org/1999/xlink"
   xmlns="http://www.w3.org/2000/svg"
   xmlns:svg="http://www.w3.org/2000/svg">
  <sodipodi:namedview
     id="namedview150"
     pagecolor="#ffffff"
     bordercolor="#000000"
     borderopacity="0.25"
     inkscape:showpageshadow="2"
     inkscape:pageopacity="0.0"
     inkscape:pagecheckerboard="0"
     inkscape:deskcolor="#d1d1d1"
     showgrid="false" />
  <defs
     id="defs82">
    <g
       id="Layer2_8_FILL">
      <path
         fill="#3c3f3e"
         stroke="none"
         d="m 131.45,1374.2 v 41.5 h 41.5 v -41.5 h -41.5 m 17.45,24.15 q -2.55,-0.35 -4.65,-1.1 -2.1,-0.7 -4,-1.7 -1.95,-1.05 -3.6,-2.25 -1.65,-1.2 -3.1,-2.65 -0.45,-0.45 -0.8,-0.9 -0.05,0 0,-0.05 v -0.05 q 0,-0.05 0,-0.1 v -0.1 q 0,-0.05 0,-0.1 0.55,-0.25 1,0.2 0.45,0.3 0.85,0.6 1.8,1.05 3.75,2 2,0.9 4.25,1.55 2.15,0.7 4.6,1.15 2.4,0.45 5.3,0.45 2.75,0 5.2,-0.45 2.5,-0.4 4.65,-1 2.15,-0.8 4.15,-1.7 0.65,-0.3 1.4,-0.45 0.35,0.1 0.5,0.45 0,0.15 0,0.3 -0.6,0.85 -1.45,1.45 -1.75,1.2 -3.7,2.15 -1.95,0.9 -4.2,1.55 -2.2,0.65 -4.85,0.9 -2.7,0.2 -5.3,-0.15 m 20.45,-7.65 h -0.05 q -1.5,-0.4 -3.2,-0.15 -0.65,0.15 -1.35,0.15 -0.1,0 -0.15,0 -0.1,0 -0.1,-0.05 h -0.05 q -0.15,0 -0.1,-0.25 1.45,-1.5 4.05,-1.7 1.4,-0.1 2.35,0.15 0.9,0.15 1,1 v 0.15 q 0.05,0.15 0,0.4 v 0.15 q -0.45,3 -1.5,4.85 -0.65,1 -1.45,1.7 -0.05,0.05 -0.2,0 -0.2,-0.5 0.05,-1 0.15,-0.3 0.25,-0.6 0.6,-1.5 0.85,-3.35 0.15,-0.7 -0.15,-1.25 -0.1,-0.1 -0.25,-0.2 z"
         id="path42" />
      <path
         fill="#ff00fe"
         stroke="none"
         d="m 169.3,1390.7 h 0.05 q 0.15,0.1 0.25,0.2 0.3,0.55 0.15,1.25 -0.25,1.85 -0.85,3.35 -0.1,0.3 -0.25,0.6 -0.25,0.5 -0.05,1 0.15,0.05 0.2,0 0.8,-0.7 1.45,-1.7 1.05,-1.85 1.5,-4.85 v -0.15 q 0.05,-0.25 0,-0.4 v -0.15 q -0.1,-0.85 -1,-1 -0.95,-0.25 -2.35,-0.15 -2.6,0.2 -4.05,1.7 -0.05,0.25 0.1,0.25 h 0.05 q 0,0.05 0.1,0.05 0.05,0 0.15,0 0.7,0 1.35,-0.15 1.7,-0.25 3.2,0.15 m -25.05,6.55 q 2.1,0.75 4.65,1.1 2.6,0.35 5.3,0.15 2.65,-0.25 4.85,-0.9 2.25,-0.65 4.2,-1.55 1.95,-0.95 3.7,-2.15 0.85,-0.6 1.45,-1.45 0,-0.15 0,-0.3 -0.15,-0.35 -0.5,-0.45 -0.75,0.15 -1.4,0.45 -2,0.9 -4.15,1.7 -2.15,0.6 -4.65,1 -2.45,0.45 -5.2,0.45 -2.9,0 -5.3,-0.45 -2.45,-0.45 -4.6,-1.15 -2.25,-0.65 -4.25,-1.55 -1.95,-0.95 -3.75,-2 -0.4,-0.3 -0.85,-0.6 -0.45,-0.45 -1,-0.2 0,0.05 0,0.1 v 0.1 q 0,0.05 0,0.1 v 0.05 q -0.05,0.05 0,0.05 0.35,0.45 0.8,0.9 1.45,1.45 3.1,2.65 1.65,1.2 3.6,2.25 1.9,1 4,1.7 z"
         id="path44" />
    </g>
  </defs>
  <g
     id="g118"
     transform="translate(-131.45,-1374.2)">
    <use
       xlink:href="#Layer2_8_FILL"
       id="use116" />
  </g>
</svg>
