<?xml version="1.0" encoding="UTF-8" standalone="no"?>
<svg
   version="1.1"
   preserveAspectRatio="none"
   x="0px"
   y="0px"
   width="41.5"
   height="41.5"
   viewBox="0 0 41.5 41.5"
   id="svg148"
   sodipodi:docname="pictos smart.svg"
   xmlns:inkscape="http://www.inkscape.org/namespaces/inkscape"
   xmlns:sodipodi="http://sodipodi.sourceforge.net/DTD/sodipodi-0.dtd"
   xmlns:xlink="http://www.w3.org/1999/xlink"
   xmlns="http://www.w3.org/2000/svg"
   xmlns:svg="http://www.w3.org/2000/svg">
  <sodipodi:namedview
     id="namedview150"
     pagecolor="#ffffff"
     bordercolor="#000000"
     borderopacity="0.25"
     inkscape:showpageshadow="2"
     inkscape:pageopacity="0.0"
     inkscape:pagecheckerboard="0"
     inkscape:deskcolor="#d1d1d1"
     showgrid="false" />
  <defs
     id="defs82">
    <g
       id="Layer2_4_FILL">
      <path
         fill="#cccccc"
         stroke="none"
         d="m 741.9,1084.35 v -41.5 h -41.5 v 41.5 h 41.5 m -12.15,-36 q 1.7,1 3.1,2.3 1.4,1.35 2.5,2.95 1.1,1.7 1.8,3.7 0.75,1.95 1,4.45 0.2,2.05 -0.1,3.8 -0.4,2.35 -1.2,4.3 -0.8,1.9 -2,3.45 -1.15,1.6 -2.6,2.85 -1.5,1.3 -3.25,2.2 -1.8,0.95 -4,1.5 -2.2,0.55 -5,0.4 -2.55,-0.15 -4.55,-0.9 -2,-0.7 -3.7,-1.75 -1.65,-1.1 -3.05,-2.5 -1.3,-1.4 -2.3,-3.05 -1.05,-1.65 -1.8,-3.75 -0.55,-1.8 -0.65,-4.05 -0.05,-1.4 -0.05,-2.75 0.3,-2.5 1.05,-4.45 0.75,-2 1.9,-3.55 1.1,-1.7 2.5,-2.95 1.4,-1.35 3.15,-2.35 1.75,-1 3.85,-1.6 2.1,-0.65 4.8,-0.65 2.7,0.05 4.75,0.7 2.1,0.65 3.85,1.7 m -0.45,7.3 q 0,-0.15 0.15,-0.25 v -0.05 q 0,-0.05 0.1,-0.2 0.2,-0.35 0.1,-1 -0.05,-0.2 -0.2,-0.3 -0.15,-0.6 -0.8,-0.7 -0.05,-0.15 -0.25,-0.15 -0.6,-0.1 -0.9,0.15 -0.6,0.1 -0.65,0.65 h -0.05 q -0.35,0.05 -0.6,-0.05 -0.2,0 -0.45,0 v -0.1 q -0.2,-0.05 -0.35,-0.1 -0.3,0 -0.6,-0.05 -0.15,-0.1 -0.4,-0.1 -0.3,0 -0.5,-0.1 -0.15,-0.05 -0.3,-0.05 -0.25,-0.05 -0.45,-0.1 -0.5,-0.25 -1.05,-0.1 -0.05,0.2 -0.25,0.4 v 0.05 q 0,0.25 0,0.5 -0.1,0.2 -0.15,0.3 0,0.2 0,0.3 -0.1,0.35 -0.2,0.7 0,0.1 -0.05,0.25 -0.2,0.4 -0.1,0.95 h -0.1 q -0.1,0.3 -0.1,0.9 -0.25,0.3 -0.15,0.8 -0.15,0.1 -0.2,0.3 -0.05,0.3 -0.05,0.6 v 0.05 q -0.1,0.1 -0.15,0.2 -0.45,0.1 -0.9,0.1 -0.25,0 -0.45,0.05 -0.5,0.1 -1.15,0.1 -0.3,0.2 -0.7,0.2 v 0.05 q -0.15,0 -0.25,0.1 -0.05,0 -0.1,0 -0.35,0.1 -0.7,0.15 l -0.1,0.1 q -0.3,0.1 -0.55,0.25 h -0.05 q -0.25,0 -0.3,0.2 -0.35,0.1 -0.65,0.25 -0.35,0.2 -0.5,0.45 -0.3,0.05 -0.55,0 -0.05,-0.05 -0.1,-0.1 h -0.05 q -0.15,-0.1 -0.25,-0.25 -0.1,0 -0.3,0 0,-0.05 -0.05,-0.05 -0.65,-0.2 -1.45,-0.05 -0.1,0.05 -0.25,0.1 -0.55,0.25 -0.9,0.6 v 0.05 q -0.2,0.3 -0.35,0.5 v 0.05 q -0.05,0.4 -0.2,0.85 0.05,0.55 0.2,1.1 H 710 q 0.1,0.1 0.1,0.3 0.5,0.5 1.1,0.85 0,0.7 0.1,1.45 0,0.3 0.1,0.5 0.1,0.25 0.1,0.6 0.2,0.2 0.2,0.45 h 0.05 q 0.1,0.15 0.15,0.35 0,0.1 0.15,0.15 0.1,0.35 0.35,0.5 0.35,0.55 0.8,0.95 0.1,0.15 0.3,0.3 0.55,0.45 1.4,0.8 v 0.05 q 0.2,0.1 0.4,0.3 0.05,0 0.1,0.05 0.2,0.1 0.55,0.1 v 0.05 q 0.3,0.25 0.8,0.3 0.15,0.15 0.3,0.2 h 0.05 q 0.1,0 0.2,0 h 0.1 q 0.2,0.2 0.7,0.15 v 0.05 q 0.15,0.1 0.25,0.15 h 0.1 q 0.3,0 0.65,0.05 0.1,0.05 0.15,0.05 0.55,0.05 1.25,0.1 1.35,0 2.45,-0.1 0.65,-0.05 1.15,-0.3 0.3,0.05 0.5,0 v -0.05 q 0.1,-0.05 0.2,-0.1 h 0.1 q 0.15,0 0.25,0 h 0.05 q 0.2,-0.25 0.55,-0.2 0,-0.05 0.05,-0.05 0.3,-0.1 0.45,-0.3 h 0.1 q 0.1,0 0.2,0 0,-0.05 0.05,-0.05 0.1,-0.1 0.3,-0.15 0.15,-0.15 0.35,-0.15 0,-0.05 0.05,-0.05 0.25,-0.15 0.6,-0.3 0.5,-0.45 1.05,-0.85 0.5,-0.45 0.9,-1.1 0.15,-0.05 0.15,-0.25 h 0.05 q 0.05,-0.05 0.1,-0.1 v -0.05 q 0,-0.05 0.05,-0.15 h 0.1 q 0.1,-0.1 0.1,-0.35 0.1,-0.25 0.3,-0.55 0.05,-0.25 0.05,-0.5 0.05,-0.05 0.05,-0.15 0.2,-0.8 0.1,-1.75 v -0.05 q 0.5,-0.25 0.9,-0.6 0.15,-0.35 0.35,-0.7 0,-0.2 0.15,-0.25 v -0.1 q 0,-0.4 0,-0.9 -0.15,-0.2 -0.15,-0.5 -0.35,-0.65 -0.95,-1.1 -0.2,0 -0.3,-0.15 -0.1,0 -0.15,0 -0.45,-0.2 -1.1,-0.1 -0.2,0.05 -0.35,0.1 -0.3,-0.05 -0.4,0.15 -0.35,0.15 -0.55,0.45 -0.1,0 -0.15,-0.1 -0.4,-0.15 -0.7,-0.4 -0.4,-0.2 -0.95,-0.45 -0.1,-0.05 -0.2,-0.2 h -0.1 q -0.2,0 -0.4,-0.15 -0.1,0 -0.3,0 0,-0.05 -0.05,-0.05 -0.3,-0.15 -0.45,-0.25 H 725 q -0.2,-0.1 -0.45,-0.05 v -0.05 q -0.15,-0.05 -0.25,-0.1 -0.1,0 -0.25,0 -0.35,-0.1 -0.65,-0.15 -0.25,-0.05 -0.5,-0.1 -0.65,-0.1 -1.45,-0.2 0,-0.15 0,-0.4 h 0.05 q 0.05,-0.05 0.1,-0.2 0,-0.35 0.1,-0.65 0.05,-0.15 0.1,-0.25 0,-0.1 0,-0.2 0,-0.15 0.05,-0.2 0.2,-0.4 0.2,-0.95 0.15,-0.35 0.1,-0.9 h 0.05 q 0.2,-0.3 0.2,-0.8 v -0.1 q 0.15,-0.35 0.15,-0.85 0.25,-0.05 0.4,0 0.2,0 0.3,0.05 0.4,0.1 1.05,0.1 0.35,0.25 0.85,0.2 v 0.05 q 0.3,0.2 0.85,0.2 h 0.05 q 0.15,0.1 0.45,0.15 0.2,0.25 0.2,0.6 v 0.05 q 0.15,0.1 0.2,0.3 v 0.05 q 0.3,0.2 0.65,0.4 0.6,0.1 1.2,0 0.25,-0.2 0.55,-0.35 m -12.15,7.5 q 0.45,0 0.8,0.15 0.95,0.6 0.7,2 0,0.15 -0.1,0.35 -0.45,0.95 -1.75,0.85 -0.35,0 -0.65,-0.15 -0.8,-0.45 -0.85,-1.75 0.35,-1.45 1.85,-1.45 m 8,0.1 q 0.35,0 0.65,0.15 0.9,0.4 0.9,1.7 0,0.2 -0.1,0.35 -0.35,1.2 -1.65,1.2 -0.4,0 -0.7,-0.2 -1,-0.45 -1,-1.8 0.3,-1.45 1.9,-1.4 m 0.3,6 q -0.25,0.5 -0.7,0.75 -0.9,0.45 -1.95,0.7 -1.2,0.3 -2.55,0.2 -2.3,-0.25 -3.55,-1.5 0,-0.15 0,-0.25 0.15,-0.25 0.4,-0.35 h 0.05 q 0.65,0.35 1.35,0.6 1.4,0.7 3.55,0.5 0.15,0 0.4,-0.05 1.45,-0.3 2.5,-1.05 0.4,0.05 0.5,0.45 z"
         id="path22" />
      <path
         fill="#ff00fe"
         stroke="none"
         d="m 732.85,1050.65 q -1.4,-1.3 -3.1,-2.3 -1.75,-1.05 -3.85,-1.7 -2.05,-0.65 -4.75,-0.7 -2.7,0 -4.8,0.65 -2.1,0.6 -3.85,1.6 -1.75,1 -3.15,2.35 -1.4,1.25 -2.5,2.95 -1.15,1.55 -1.9,3.55 -0.75,1.95 -1.05,4.45 0,1.35 0.05,2.75 0.1,2.25 0.65,4.05 0.75,2.1 1.8,3.75 1,1.65 2.3,3.05 1.4,1.4 3.05,2.5 1.7,1.05 3.7,1.75 2,0.75 4.55,0.9 2.8,0.15 5,-0.4 2.2,-0.55 4,-1.5 1.75,-0.9 3.25,-2.2 1.45,-1.25 2.6,-2.85 1.2,-1.55 2,-3.45 0.8,-1.95 1.2,-4.3 0.3,-1.75 0.1,-3.8 -0.25,-2.5 -1,-4.45 -0.7,-2 -1.8,-3.7 -1.1,-1.6 -2.5,-2.95 m -3.4,4.75 q -0.15,0.1 -0.15,0.25 -0.3,0.15 -0.55,0.35 -0.6,0.1 -1.2,0 -0.35,-0.2 -0.65,-0.4 v -0.05 q -0.05,-0.2 -0.2,-0.3 v -0.05 q 0,-0.35 -0.2,-0.6 -0.3,-0.05 -0.45,-0.15 H 726 q -0.55,0 -0.85,-0.2 v -0.05 q -0.5,0.05 -0.85,-0.2 -0.65,0 -1.05,-0.1 -0.1,-0.05 -0.3,-0.05 -0.15,-0.05 -0.4,0 0,0.5 -0.15,0.85 v 0.1 q 0,0.5 -0.2,0.8 h -0.05 q 0.05,0.55 -0.1,0.9 0,0.55 -0.2,0.95 -0.05,0.05 -0.05,0.2 0,0.1 0,0.2 -0.05,0.1 -0.1,0.25 -0.1,0.3 -0.1,0.65 -0.05,0.15 -0.1,0.2 h -0.05 q 0,0.25 0,0.4 0.8,0.1 1.45,0.2 0.25,0.05 0.5,0.1 0.3,0.05 0.65,0.15 0.15,0 0.25,0 0.1,0.05 0.25,0.1 v 0.05 q 0.25,-0.05 0.45,0.05 h 0.05 q 0.15,0.1 0.45,0.25 0.05,0 0.05,0.05 0.2,0 0.3,0 0.2,0.15 0.4,0.15 h 0.1 q 0.1,0.15 0.2,0.2 0.55,0.25 0.95,0.45 0.3,0.25 0.7,0.4 0.05,0.1 0.15,0.1 0.2,-0.3 0.55,-0.45 0.1,-0.2 0.4,-0.15 0.15,-0.05 0.35,-0.1 0.65,-0.1 1.1,0.1 0.05,0 0.15,0 0.1,0.15 0.3,0.15 0.6,0.45 0.95,1.1 0,0.3 0.15,0.5 0,0.5 0,0.9 v 0.1 q -0.15,0.05 -0.15,0.25 -0.2,0.35 -0.35,0.7 -0.4,0.35 -0.9,0.6 v 0.05 q 0.1,0.95 -0.1,1.75 0,0.1 -0.05,0.15 0,0.25 -0.05,0.5 -0.2,0.3 -0.3,0.55 0,0.25 -0.1,0.35 h -0.1 q -0.05,0.1 -0.05,0.15 v 0.05 q -0.05,0.05 -0.1,0.1 H 730 q 0,0.2 -0.15,0.25 -0.4,0.65 -0.9,1.1 -0.55,0.4 -1.05,0.85 -0.35,0.15 -0.6,0.3 -0.05,0 -0.05,0.05 -0.2,0 -0.35,0.15 -0.2,0.05 -0.3,0.15 -0.05,0 -0.05,0.05 -0.1,0 -0.2,0 h -0.1 q -0.15,0.2 -0.45,0.3 -0.05,0 -0.05,0.05 -0.35,-0.05 -0.55,0.2 h -0.05 q -0.1,0 -0.25,0 h -0.1 q -0.1,0.05 -0.2,0.1 v 0.05 q -0.2,0.05 -0.5,0 -0.5,0.25 -1.15,0.3 -1.1,0.1 -2.45,0.1 -0.7,-0.05 -1.25,-0.1 -0.05,0 -0.15,-0.05 -0.35,-0.05 -0.65,-0.05 h -0.1 q -0.1,-0.05 -0.25,-0.15 v -0.05 q -0.5,0.05 -0.7,-0.15 h -0.1 q -0.1,0 -0.2,0 h -0.05 q -0.15,-0.05 -0.3,-0.2 -0.5,-0.05 -0.8,-0.3 v -0.05 q -0.35,0 -0.55,-0.1 -0.05,-0.05 -0.1,-0.05 -0.2,-0.2 -0.4,-0.3 v -0.05 q -0.85,-0.35 -1.4,-0.8 -0.2,-0.15 -0.3,-0.3 -0.45,-0.4 -0.8,-0.95 -0.25,-0.15 -0.35,-0.5 -0.15,-0.05 -0.15,-0.15 -0.05,-0.2 -0.15,-0.35 h -0.05 q 0,-0.25 -0.2,-0.45 0,-0.35 -0.1,-0.6 -0.1,-0.2 -0.1,-0.5 -0.1,-0.75 -0.1,-1.45 -0.6,-0.35 -1.1,-0.85 0,-0.2 -0.1,-0.3 h -0.05 q -0.15,-0.55 -0.2,-1.1 0.15,-0.45 0.2,-0.85 v -0.05 q 0.15,-0.2 0.35,-0.5 v -0.05 q 0.35,-0.35 0.9,-0.6 0.15,-0.05 0.25,-0.1 0.8,-0.15 1.45,0.05 0.05,0 0.05,0.05 0.2,0 0.3,0 0.1,0.15 0.25,0.25 h 0.05 q 0.05,0.05 0.1,0.1 0.25,0.05 0.55,0 0.15,-0.25 0.5,-0.45 0.3,-0.15 0.65,-0.25 0.05,-0.2 0.3,-0.2 h 0.05 q 0.25,-0.15 0.55,-0.25 l 0.1,-0.1 q 0.35,-0.05 0.7,-0.15 0.05,0 0.1,0 0.1,-0.1 0.25,-0.1 v -0.05 q 0.4,0 0.7,-0.2 0.65,0 1.15,-0.1 0.2,-0.05 0.45,-0.05 0.45,0 0.9,-0.1 0.05,-0.1 0.15,-0.2 v -0.05 q 0,-0.3 0.05,-0.6 0.05,-0.2 0.2,-0.3 -0.1,-0.5 0.15,-0.8 0,-0.6 0.1,-0.9 h 0.1 q -0.1,-0.55 0.1,-0.95 0.05,-0.15 0.05,-0.25 0.1,-0.35 0.2,-0.7 0,-0.1 0,-0.3 0.05,-0.1 0.15,-0.3 0,-0.25 0,-0.5 v -0.05 q 0.2,-0.2 0.25,-0.4 0.55,-0.15 1.05,0.1 0.2,0.05 0.45,0.1 0.15,0 0.3,0.05 0.2,0.1 0.5,0.1 0.25,0 0.4,0.1 0.3,0.05 0.6,0.05 0.15,0.05 0.35,0.1 v 0.1 q 0.25,0 0.45,0 0.25,0.1 0.6,0.05 h 0.05 q 0.05,-0.55 0.65,-0.65 0.3,-0.25 0.9,-0.15 0.2,0 0.25,0.15 0.65,0.1 0.8,0.7 0.15,0.1 0.2,0.3 0.1,0.65 -0.1,1 -0.1,0.15 -0.1,0.2 v 0.05 m -4.7,14.6 q 0.45,-0.25 0.7,-0.75 -0.1,-0.4 -0.5,-0.45 -1.05,0.75 -2.5,1.05 -0.25,0.05 -0.4,0.05 -2.15,0.2 -3.55,-0.5 -0.7,-0.25 -1.35,-0.6 h -0.05 q -0.25,0.1 -0.4,0.35 0,0.1 0,0.25 1.25,1.25 3.55,1.5 1.35,0.1 2.55,-0.2 1.05,-0.25 1.95,-0.7 m 1.05,-6.6 q -0.3,-0.15 -0.65,-0.15 -1.6,-0.05 -1.9,1.4 0,1.35 1,1.8 0.3,0.2 0.7,0.2 1.3,0 1.65,-1.2 0.1,-0.15 0.1,-0.35 0,-1.3 -0.9,-1.7 m -7.85,-0.1 q -0.35,-0.15 -0.8,-0.15 -1.5,0 -1.85,1.45 0.05,1.3 0.85,1.75 0.3,0.15 0.65,0.15 1.3,0.1 1.75,-0.85 0.1,-0.2 0.1,-0.35 0.25,-1.4 -0.7,-2 z"
         id="path24" />
    </g>
  </defs>
  <g
     id="g102"
     transform="translate(-700.40002,-1042.85)">
    <use
       xlink:href="#Layer2_4_FILL"
       id="use100" />
  </g>
</svg>
