<?xml version="1.0" encoding="UTF-8" standalone="no"?>
<svg
   version="1.1"
   preserveAspectRatio="none"
   x="0px"
   y="0px"
   width="36.5"
   height="36.5"
   viewBox="0 0 36.5 36.5"
   id="svg148"
   sodipodi:docname="pictos carres.svg"
   inkscape:export-filename="../../../front/public/icons/facebook.svg"
   inkscape:export-xdpi="96"
   inkscape:export-ydpi="96"
   xmlns:inkscape="http://www.inkscape.org/namespaces/inkscape"
   xmlns:sodipodi="http://sodipodi.sourceforge.net/DTD/sodipodi-0.dtd"
   xmlns:xlink="http://www.w3.org/1999/xlink"
   xmlns="http://www.w3.org/2000/svg"
   xmlns:svg="http://www.w3.org/2000/svg">
  <sodipodi:namedview
     id="namedview150"
     pagecolor="#ffffff"
     bordercolor="#000000"
     borderopacity="0.25"
     inkscape:showpageshadow="2"
     inkscape:pageopacity="0.0"
     inkscape:pagecheckerboard="0"
     inkscape:deskcolor="#d1d1d1"
     showgrid="false" />
  <defs
     id="defs82">
    <g
       id="Layer1_0_FILL">
      <path
         fill="#cccccc"
         stroke="none"
         d="m 363.75,272.25 h -36.5 v 36.5 h 36.5 v -36.5 m -24,5.4 q 0.45,-0.75 0.95,-1.45 0.5,-0.65 1.1,-1.2 0.95,-0.9 2.35,-1.25 0.65,-0.15 1.25,0.05 0.95,0.3 1.55,0.95 1.7,0 2.55,1 0.4,0.45 0.7,1.05 0.3,0.55 0.55,1.2 h 0.05 q 0.35,-0.1 0.75,-0.25 0.35,-0.15 0.8,-0.05 1.05,0.95 2,1.9 0.2,0.2 0.35,0.35 1.3,0.05 2.6,0.1 h 0.05 q 0.3,0.25 0.35,0.8 0,0.4 0.05,0.8 0.3,1.7 0.55,3.4 0.2,1.7 0.5,3.35 0.2,1.65 0.45,3.35 0.25,1.65 0.5,3.3 0.25,1.6 0.45,3.2 0.25,1.65 0.5,3.3 0.25,1.6 0.5,3.25 0.1,0.35 0.05,0.7 -0.4,0.2 -0.9,0.3 -0.95,0.25 -1.9,0.5 -0.9,0.25 -1.85,0.45 -0.95,0.25 -1.9,0.45 -0.95,0.25 -1.9,0.5 -0.35,0.1 -0.8,0.05 -0.45,-0.05 -1,-0.15 -1.6,-0.25 -3.15,-0.5 -1.6,-0.3 -3.2,-0.55 -1.6,-0.3 -3.15,-0.55 -1.5,-0.3 -3.05,-0.55 -1.6,-0.3 -3.15,-0.55 -1.6,-0.3 -3.2,-0.55 -0.45,-0.05 -0.85,-0.2 0,-0.1 0,-0.3 0.25,-1.65 0.45,-3.35 0.2,-1.65 0.4,-3.25 0.25,-1.6 0.45,-3.15 0.2,-1.55 0.4,-3.15 0.2,-1.65 0.4,-3.35 0.25,-1.75 0.45,-3.4 0.05,-0.5 0.25,-0.8 0.15,-0.2 0.35,-0.3 1.3,-0.45 2.65,-0.8 0.55,-0.2 1.1,-0.4 0.2,-0.95 0.5,-1.85 0.45,-1.3 1.1,-2.4 m 9.5,-0.05 q -0.45,-1.05 -1.5,-1.55 v 0.05 q 0.35,1.2 0.45,2.55 h 0.05 q 0.65,-0.15 1.25,-0.4 -0.15,-0.35 -0.25,-0.65 m -7.75,12.8 q -0.25,-0.6 0,-1.2 0.2,-0.35 0.5,-0.65 0.65,-0.45 1.8,-0.45 1.1,0 2,0.25 v 0.05 q 0.1,0.05 0.2,0.1 0.2,-0.6 0.4,-1.25 0.15,-0.6 0.3,-1.25 v -0.05 q 0.2,-0.6 0.25,-1.2 -1,-0.3 -2.4,-0.2 -1.05,0.05 -2.05,0.25 v 0.05 q -0.4,0.15 -0.85,0.3 -1.1,0.5 -1.9,1.35 -0.6,0.55 -1.05,1.3 v 0.05 q 0,0.05 0,0.2 -0.5,0.8 -0.55,1.95 -0.15,1.25 0.1,2.2 0.1,0.25 0.2,0.5 0.2,0.35 0.45,0.65 0.75,0.95 1.8,1.55 0.9,0.6 1.4,1.55 0.1,0.2 0.1,0.4 0.05,1.2 -0.7,1.6 -0.4,0.15 -0.85,0.1 -0.45,0 -0.9,-0.1 -0.35,-0.15 -0.8,-0.3 -0.7,-0.35 -1.3,-0.75 h -0.05 q -0.35,1.3 -0.6,2.65 -0.05,0.15 0.05,0.2 0.2,0.15 0.4,0.25 0.95,0.65 2.05,1.05 0.15,0 0.25,0 0.9,0.25 2.1,0.2 1.1,-0.05 1.95,-0.4 0.3,-0.2 0.65,-0.4 0.9,-0.65 1.45,-1.75 0.05,-0.05 0,-0.15 h 0.05 q 0,-0.1 0.05,-0.1 v -0.05 q 0.1,-0.3 0.2,-0.5 0.2,-1 0.15,-2.35 -0.05,-0.5 -0.15,-0.95 -0.1,-0.2 -0.2,-0.45 0,-0.1 -0.1,-0.15 0,-0.1 0,-0.15 -0.1,-0.15 -0.25,-0.3 -0.05,-0.1 -0.1,-0.2 -0.85,-1.05 -2,-1.7 -1.2,-0.7 -2.05,-1.75 m 2.4,-10.95 q -0.1,0.1 -0.15,0.2 0,0.25 -0.15,0.35 0,0.05 0.05,0.05 0.15,0.1 0.35,0 0.15,-0.15 0.35,-0.2 1.2,-0.35 2.45,-0.7 0,-0.35 0,-0.65 0,-0.3 -0.05,-0.6 -0.05,-0.6 -0.25,-1.05 0,-0.45 -0.2,-0.65 -0.7,0.4 -1.2,1 -0.45,0.65 -0.85,1.3 v 0.05 q 0,0.05 -0.05,0.1 v 0.05 q -0.05,0.1 -0.1,0.15 v 0.05 q 0,0.05 -0.05,0.15 -0.05,0.05 -0.1,0.1 v 0.05 q -0.05,0.1 -0.05,0.25 m -1.05,-1.2 q 0.05,-0.05 0.15,-0.15 0,-0.1 0,-0.2 0.5,-0.9 1.15,-1.7 0.55,-0.6 1.25,-1.1 -0.35,-0.1 -0.9,-0.05 -0.4,0 -0.75,0.15 -1.15,0.6 -1.95,1.65 -0.8,0.95 -1.4,2.1 0,0.1 -0.05,0.2 -0.1,0.1 -0.15,0.35 -0.05,0 -0.1,0.05 v 0.05 q -0.3,0.85 -0.6,1.7 0.05,0.1 0.3,0.05 0.45,-0.15 0.85,-0.35 h 0.05 q 0.1,0 0.2,0 0.55,-0.2 1.15,-0.4 0.35,-1.2 0.8,-2.35 z"
         id="path2" />
      <path
         fill="#ff00fe"
         stroke="none"
         d="m 340.7,276.2 q -0.5,0.7 -0.95,1.45 -0.65,1.1 -1.1,2.4 -0.3,0.9 -0.5,1.85 -0.55,0.2 -1.1,0.4 -1.35,0.35 -2.65,0.8 -0.2,0.1 -0.35,0.3 -0.2,0.3 -0.25,0.8 -0.2,1.65 -0.45,3.4 -0.2,1.7 -0.4,3.35 -0.2,1.6 -0.4,3.15 -0.2,1.55 -0.45,3.15 -0.2,1.6 -0.4,3.25 -0.2,1.7 -0.45,3.35 0,0.2 0,0.3 0.4,0.15 0.85,0.2 1.6,0.25 3.2,0.55 1.55,0.25 3.15,0.55 1.55,0.25 3.05,0.55 1.55,0.25 3.15,0.55 1.6,0.25 3.2,0.55 1.55,0.25 3.15,0.5 0.55,0.1 1,0.15 0.45,0.05 0.8,-0.05 0.95,-0.25 1.9,-0.5 0.95,-0.2 1.9,-0.45 0.95,-0.2 1.85,-0.45 0.95,-0.25 1.9,-0.5 0.5,-0.1 0.9,-0.3 0.05,-0.35 -0.05,-0.7 -0.25,-1.65 -0.5,-3.25 -0.25,-1.65 -0.5,-3.3 -0.2,-1.6 -0.45,-3.2 -0.25,-1.65 -0.5,-3.3 -0.25,-1.7 -0.45,-3.35 -0.3,-1.65 -0.5,-3.35 -0.25,-1.7 -0.55,-3.4 -0.05,-0.4 -0.05,-0.8 -0.05,-0.55 -0.35,-0.8 h -0.05 q -1.3,-0.05 -2.6,-0.1 -0.15,-0.15 -0.35,-0.35 -0.95,-0.95 -2,-1.9 -0.45,-0.1 -0.8,0.05 -0.4,0.15 -0.75,0.25 h -0.05 q -0.25,-0.65 -0.55,-1.2 -0.3,-0.6 -0.7,-1.05 -0.85,-1 -2.55,-1 -0.6,-0.65 -1.55,-0.95 -0.6,-0.2 -1.25,-0.05 -1.4,0.35 -2.35,1.25 -0.6,0.55 -1.1,1.2 m 2.3,1.9 q -0.1,0.1 -0.15,0.15 -0.45,1.15 -0.8,2.35 -0.6,0.2 -1.15,0.4 -0.1,0 -0.2,0 h -0.05 q -0.4,0.2 -0.85,0.35 -0.25,0.05 -0.3,-0.05 0.3,-0.85 0.6,-1.7 v -0.05 q 0.05,-0.05 0.1,-0.05 0.05,-0.25 0.15,-0.35 0.05,-0.1 0.05,-0.2 0.6,-1.15 1.4,-2.1 0.8,-1.05 1.95,-1.65 0.35,-0.15 0.75,-0.15 0.55,-0.05 0.9,0.05 -0.7,0.5 -1.25,1.1 -0.65,0.8 -1.15,1.7 0,0.1 0,0.2 m 0.75,1.55 q 0.05,-0.1 0.15,-0.2 0,-0.15 0.05,-0.25 v -0.05 q 0.05,-0.05 0.1,-0.1 0.05,-0.1 0.05,-0.15 v -0.05 q 0.05,-0.05 0.1,-0.15 v -0.05 q 0.05,-0.05 0.05,-0.1 v -0.05 q 0.4,-0.65 0.85,-1.3 0.5,-0.6 1.2,-1 0.2,0.2 0.2,0.65 0.2,0.45 0.25,1.05 0.05,0.3 0.05,0.6 0,0.3 0,0.65 -1.25,0.35 -2.45,0.7 -0.2,0.05 -0.35,0.2 -0.2,0.1 -0.35,0 -0.05,0 -0.05,-0.05 0.15,-0.1 0.15,-0.35 m -2.25,9.55 q -0.25,0.6 0,1.2 0.85,1.05 2.05,1.75 1.15,0.65 2,1.7 0.05,0.1 0.1,0.2 0.15,0.15 0.25,0.3 0,0.05 0,0.15 0.1,0.05 0.1,0.15 0.1,0.25 0.2,0.45 0.1,0.45 0.15,0.95 0.05,1.35 -0.15,2.35 -0.1,0.2 -0.2,0.5 v 0.05 q -0.05,0 -0.05,0.1 h -0.05 q 0.05,0.1 0,0.15 -0.55,1.1 -1.45,1.75 -0.35,0.2 -0.65,0.4 -0.85,0.35 -1.95,0.4 -1.2,0.05 -2.1,-0.2 -0.1,0 -0.25,0 -1.1,-0.4 -2.05,-1.05 -0.2,-0.1 -0.4,-0.25 -0.1,-0.05 -0.05,-0.2 0.25,-1.35 0.6,-2.65 h 0.05 q 0.6,0.4 1.3,0.75 0.45,0.15 0.8,0.3 0.45,0.1 0.9,0.1 0.45,0.05 0.85,-0.1 0.75,-0.4 0.7,-1.6 0,-0.2 -0.1,-0.4 -0.5,-0.95 -1.4,-1.55 -1.05,-0.6 -1.8,-1.55 -0.25,-0.3 -0.45,-0.65 -0.1,-0.25 -0.2,-0.5 -0.25,-0.95 -0.1,-2.2 0.05,-1.15 0.55,-1.95 0,-0.15 0,-0.2 v -0.05 q 0.45,-0.75 1.05,-1.3 0.8,-0.85 1.9,-1.35 0.45,-0.15 0.85,-0.3 v -0.05 q 1,-0.2 2.05,-0.25 1.4,-0.1 2.4,0.2 -0.05,0.6 -0.25,1.2 V 286 q -0.15,0.65 -0.3,1.25 -0.2,0.65 -0.4,1.25 -0.1,-0.05 -0.2,-0.1 v -0.05 q -0.9,-0.25 -2,-0.25 -1.15,0 -1.8,0.45 -0.3,0.3 -0.5,0.65 m 6.25,-13.15 q 1.05,0.5 1.5,1.55 0.1,0.3 0.25,0.65 -0.6,0.25 -1.25,0.4 h -0.05 q -0.1,-1.35 -0.45,-2.55 z"
         id="path4" />
    </g>
  </defs>
  <g
     id="g86"
     transform="translate(-327.25,-272.25)">
    <use
       xlink:href="#Layer1_0_FILL"
       id="use84" />
  </g>
</svg>
