<?xml version="1.0" encoding="UTF-8" standalone="no"?>
<svg
   version="1.1"
   preserveAspectRatio="none"
   x="0px"
   y="0px"
   width="41.5"
   height="41.5"
   viewBox="0 0 41.5 41.5"
   id="svg148"
   xmlns:xlink="http://www.w3.org/1999/xlink"
   xmlns="http://www.w3.org/2000/svg"
   xmlns:svg="http://www.w3.org/2000/svg">
  <defs
     id="defs82">
    <g
       id="Layer2_6_FILL">
      <path
         fill="#3c3f3e"
         stroke="none"
         d="m 178.3,1164.5 h -41.5 v 41.5 h 41.5 v -41.5 m -19.95,2.15 q 2,0 3,1.15 0.45,0.55 0.8,1.25 0.35,0.6 0.65,1.4 h 0.05 q 0.4,-0.15 0.85,-0.3 0.45,-0.2 0.95,-0.05 1.2,1.1 2.3,2.2 0.25,0.2 0.45,0.4 1.5,0.05 3,0.1 h 0.05 q 0.35,0.3 0.4,0.95 0,0.45 0.1,0.9 0.35,2 0.6,3.95 0.25,2 0.6,3.9 0.25,1.95 0.5,3.9 0.3,1.95 0.6,3.85 0.3,1.85 0.5,3.7 0.3,1.95 0.6,3.85 0.3,1.85 0.6,3.8 0.1,0.4 0.05,0.8 -0.45,0.25 -1.05,0.35 -1.1,0.3 -2.2,0.55 -1.05,0.3 -2.15,0.55 -1.1,0.3 -2.2,0.5 -1.1,0.3 -2.25,0.6 -0.4,0.1 -0.9,0.05 -0.55,-0.05 -1.15,-0.15 -1.9,-0.3 -3.7,-0.6 -1.85,-0.35 -3.7,-0.65 -1.85,-0.35 -3.65,-0.6 -1.75,-0.35 -3.55,-0.65 -1.85,-0.35 -3.65,-0.65 -1.9,-0.35 -3.75,-0.65 -0.5,-0.05 -1,-0.2 0,-0.15 0,-0.35 0.3,-1.95 0.55,-3.9 0.25,-1.95 0.45,-3.8 0.3,-1.85 0.55,-3.65 0.2,-1.8 0.45,-3.65 0.25,-1.95 0.45,-3.9 0.3,-2.05 0.55,-3.95 0.05,-0.6 0.3,-0.95 0.15,-0.25 0.4,-0.35 1.5,-0.5 3.05,-0.9 0.65,-0.25 1.3,-0.5 0.25,-1.1 0.6,-2.15 0.5,-1.5 1.25,-2.8 0.55,-0.85 1.1,-1.65 0.6,-0.75 1.3,-1.4 1.1,-1.05 2.7,-1.45 0.75,-0.2 1.45,0.05 1.15,0.35 1.8,1.1 M 150,1180.3 q -0.7,0.65 -1.2,1.5 v 0.1 q 0,0.05 0,0.2 -0.6,0.95 -0.65,2.3 -0.2,1.45 0.1,2.55 0.15,0.3 0.25,0.55 0.25,0.4 0.5,0.75 0.9,1.15 2.1,1.8 1.05,0.7 1.65,1.85 0.1,0.2 0.1,0.45 0.05,1.4 -0.8,1.85 -0.5,0.15 -1,0.1 -0.5,0 -1.05,-0.1 -0.4,-0.15 -0.95,-0.35 -0.8,-0.4 -1.5,-0.85 h -0.05 q -0.4,1.5 -0.7,3.05 -0.05,0.2 0.05,0.25 0.25,0.15 0.5,0.3 1.1,0.75 2.35,1.2 0.2,0 0.3,0 1.05,0.3 2.45,0.25 1.25,-0.05 2.25,-0.5 0.35,-0.2 0.75,-0.45 1.05,-0.75 1.7,-2.05 0.05,-0.05 0,-0.15 h 0.05 q 0,-0.1 0.05,-0.1 v -0.1 q 0.15,-0.35 0.25,-0.55 0.25,-1.15 0.2,-2.75 -0.1,-0.55 -0.2,-1.1 -0.1,-0.25 -0.25,-0.5 0,-0.15 -0.1,-0.2 0,-0.1 0,-0.15 -0.1,-0.2 -0.3,-0.35 -0.05,-0.15 -0.1,-0.25 -1,-1.2 -2.35,-1.95 -1.35,-0.85 -2.35,-2.05 -0.3,-0.7 0,-1.4 0.2,-0.4 0.55,-0.75 0.8,-0.55 2.1,-0.55 1.3,0 2.35,0.3 v 0.05 q 0.1,0.1 0.2,0.15 0.25,-0.7 0.5,-1.45 0.15,-0.7 0.35,-1.45 v -0.1 q 0.2,-0.7 0.25,-1.35 -1.15,-0.35 -2.75,-0.25 -1.25,0.05 -2.4,0.3 v 0.05 q -0.45,0.15 -1,0.35 -1.25,0.55 -2.2,1.55 m 5.1,-11.95 q 0.65,-0.7 1.45,-1.3 -0.4,-0.1 -1,-0.05 -0.5,0 -0.9,0.2 -1.35,0.65 -2.25,1.9 -0.95,1.1 -1.65,2.45 0,0.1 -0.05,0.2 -0.1,0.15 -0.15,0.4 -0.1,0 -0.15,0.1 v 0.05 q -0.35,1 -0.7,1.95 0.05,0.15 0.35,0.05 0.55,-0.15 1,-0.4 h 0.05 q 0.1,0 0.25,0 0.65,-0.2 1.35,-0.45 0.4,-1.4 0.9,-2.75 0.05,-0.05 0.2,-0.15 0,-0.1 0,-0.25 0.55,-1.05 1.3,-1.95 m 4.2,-0.2 v 0.05 q 0.4,1.4 0.55,3 h 0.05 q 0.75,-0.2 1.45,-0.5 -0.2,-0.4 -0.3,-0.75 -0.55,-1.2 -1.75,-1.8 m -1.45,0.95 q 0,-0.55 -0.25,-0.75 -0.8,0.45 -1.4,1.15 -0.5,0.75 -0.95,1.5 v 0.05 q 0,0.1 -0.05,0.15 v 0.05 q -0.1,0.1 -0.15,0.15 v 0.1 q 0,0.05 -0.05,0.15 -0.05,0.05 -0.1,0.1 v 0.05 q -0.05,0.15 -0.05,0.3 -0.15,0.15 -0.2,0.25 0,0.3 -0.15,0.4 0,0.05 0.05,0.05 0.15,0.15 0.4,0 0.15,-0.15 0.4,-0.2 1.4,-0.45 2.85,-0.85 0,-0.4 0,-0.75 0,-0.35 -0.05,-0.7 -0.05,-0.7 -0.3,-1.2 z"
         id="path32" />
      <path
         fill="#ff00fe"
         stroke="none"
         d="m 161.35,1167.8 q -1,-1.15 -3,-1.15 -0.65,-0.75 -1.8,-1.1 -0.7,-0.25 -1.45,-0.05 -1.6,0.4 -2.7,1.45 -0.7,0.65 -1.3,1.4 -0.55,0.8 -1.1,1.65 -0.75,1.3 -1.25,2.8 -0.35,1.05 -0.6,2.15 -0.65,0.25 -1.3,0.5 -1.55,0.4 -3.05,0.9 -0.25,0.1 -0.4,0.35 -0.25,0.35 -0.3,0.95 -0.25,1.9 -0.55,3.95 -0.2,1.95 -0.45,3.9 -0.25,1.85 -0.45,3.65 -0.25,1.8 -0.55,3.65 -0.2,1.85 -0.45,3.8 -0.25,1.95 -0.55,3.9 0,0.2 0,0.35 0.5,0.15 1,0.2 1.85,0.3 3.75,0.65 1.8,0.3 3.65,0.65 1.8,0.3 3.55,0.65 1.8,0.25 3.65,0.6 1.85,0.3 3.7,0.65 1.8,0.3 3.7,0.6 0.6,0.1 1.15,0.15 0.5,0.05 0.9,-0.05 1.15,-0.3 2.25,-0.6 1.1,-0.2 2.2,-0.5 1.1,-0.25 2.15,-0.55 1.1,-0.25 2.2,-0.55 0.6,-0.1 1.05,-0.35 0.05,-0.4 -0.05,-0.8 -0.3,-1.95 -0.6,-3.8 -0.3,-1.9 -0.6,-3.85 -0.2,-1.85 -0.5,-3.7 -0.3,-1.9 -0.6,-3.85 -0.25,-1.95 -0.5,-3.9 -0.35,-1.9 -0.6,-3.9 -0.25,-1.95 -0.6,-3.95 -0.1,-0.45 -0.1,-0.9 -0.05,-0.65 -0.4,-0.95 h -0.05 q -1.5,-0.05 -3,-0.1 -0.2,-0.2 -0.45,-0.4 -1.1,-1.1 -2.3,-2.2 -0.5,-0.15 -0.95,0.05 -0.45,0.15 -0.85,0.3 h -0.05 q -0.3,-0.8 -0.65,-1.4 -0.35,-0.7 -0.8,-1.25 m -3.75,0.55 q 0.25,0.2 0.25,0.75 0.25,0.5 0.3,1.2 0.05,0.35 0.05,0.7 0,0.35 0,0.75 -1.45,0.4 -2.85,0.85 -0.25,0.05 -0.4,0.2 -0.25,0.15 -0.4,0 -0.05,0 -0.05,-0.05 0.15,-0.1 0.15,-0.4 0.05,-0.1 0.2,-0.25 0,-0.15 0.05,-0.3 v -0.05 q 0.05,-0.05 0.1,-0.1 0.05,-0.1 0.05,-0.15 v -0.1 q 0.05,-0.05 0.15,-0.15 v -0.05 q 0.05,-0.05 0.05,-0.15 V 1171 q 0.45,-0.75 0.95,-1.5 0.6,-0.7 1.4,-1.15 m 1.7,-0.15 v -0.05 q 1.2,0.6 1.75,1.8 0.1,0.35 0.3,0.75 -0.7,0.3 -1.45,0.5 h -0.05 q -0.15,-1.6 -0.55,-3 m -2.75,-1.15 q -0.8,0.6 -1.45,1.3 -0.75,0.9 -1.3,1.95 0,0.15 0,0.25 -0.15,0.1 -0.2,0.15 -0.5,1.35 -0.9,2.75 -0.7,0.25 -1.35,0.45 -0.15,0 -0.25,0 h -0.05 q -0.45,0.25 -1,0.4 -0.3,0.1 -0.35,-0.05 0.35,-0.95 0.7,-1.95 v -0.05 q 0.05,-0.1 0.15,-0.1 0.05,-0.25 0.15,-0.4 0.05,-0.1 0.05,-0.2 0.7,-1.35 1.65,-2.45 0.9,-1.25 2.25,-1.9 0.4,-0.2 0.9,-0.2 0.6,-0.05 1,0.05 m -7.75,14.75 q 0.5,-0.85 1.2,-1.5 0.95,-1 2.2,-1.55 0.55,-0.2 1,-0.35 v -0.05 q 1.15,-0.25 2.4,-0.3 1.6,-0.1 2.75,0.25 -0.05,0.65 -0.25,1.35 v 0.1 q -0.2,0.75 -0.35,1.45 -0.25,0.75 -0.5,1.45 -0.1,-0.05 -0.2,-0.15 v -0.05 q -1.05,-0.3 -2.35,-0.3 -1.3,0 -2.1,0.55 -0.35,0.35 -0.55,0.75 -0.3,0.7 0,1.4 1,1.2 2.35,2.05 1.35,0.75 2.35,1.95 0.05,0.1 0.1,0.25 0.2,0.15 0.3,0.35 0,0.05 0,0.15 0.1,0.05 0.1,0.2 0.15,0.25 0.25,0.5 0.1,0.55 0.2,1.1 0.05,1.6 -0.2,2.75 -0.1,0.2 -0.25,0.55 v 0.1 q -0.05,0 -0.05,0.1 h -0.05 q 0.05,0.1 0,0.15 -0.65,1.3 -1.7,2.05 -0.4,0.25 -0.75,0.45 -1,0.45 -2.25,0.5 -1.4,0.05 -2.45,-0.25 -0.1,0 -0.3,0 -1.25,-0.45 -2.35,-1.2 -0.25,-0.15 -0.5,-0.3 -0.1,-0.05 -0.05,-0.25 0.3,-1.55 0.7,-3.05 h 0.05 q 0.7,0.45 1.5,0.85 0.55,0.2 0.95,0.35 0.55,0.1 1.05,0.1 0.5,0.05 1,-0.1 0.85,-0.45 0.8,-1.85 0,-0.25 -0.1,-0.45 -0.6,-1.15 -1.65,-1.85 -1.2,-0.65 -2.1,-1.8 -0.25,-0.35 -0.5,-0.75 -0.1,-0.25 -0.25,-0.55 -0.3,-1.1 -0.1,-2.55 0.05,-1.35 0.65,-2.3 0,-0.15 0,-0.2 z"
         id="path34" />
    </g>
  </defs>
  <g
     id="g110"
     transform="translate(-136.8,-1164.5)">
    <use
       xlink:href="#Layer2_6_FILL"
       id="use108" />
  </g>
</svg>
