<?xml version="1.0" encoding="UTF-8" standalone="no"?>
<svg
   version="1.1"
   preserveAspectRatio="none"
   x="0px"
   y="0px"
   width="36.5"
   height="36.5"
   viewBox="0 0 36.5 36.5"
   id="svg148"
   sodipodi:docname="pictos carres.svg"
   inkscape:export-filename="../../../front/public/icons/facebook.svg"
   inkscape:export-xdpi="96"
   inkscape:export-ydpi="96"
   xmlns:inkscape="http://www.inkscape.org/namespaces/inkscape"
   xmlns:sodipodi="http://sodipodi.sourceforge.net/DTD/sodipodi-0.dtd"
   xmlns:xlink="http://www.w3.org/1999/xlink"
   xmlns="http://www.w3.org/2000/svg"
   xmlns:svg="http://www.w3.org/2000/svg">
  <sodipodi:namedview
     id="namedview150"
     pagecolor="#ffffff"
     bordercolor="#000000"
     borderopacity="0.25"
     inkscape:showpageshadow="2"
     inkscape:pageopacity="0.0"
     inkscape:pagecheckerboard="0"
     inkscape:deskcolor="#d1d1d1"
     showgrid="false" />
  <defs
     id="defs82">
    <g
       id="Layer1_6_FILL">
      <path
         fill="#cccccc"
         stroke="none"
         d="m 653,451.7 v 36.5 h 36.5 V 451.7 H 653 m 24.65,2.65 q 0,0.25 0.1,0.5 0.4,1.75 1.3,2.95 0.95,1.25 2.25,2.05 1.25,0.85 3.05,1.15 0.6,0.1 1.2,0.15 0,1.05 0,2.3 0,2.15 0,4.2 0,0.1 -0.05,0.15 -0.25,0.05 -0.55,0.05 -1.8,0 -3.25,-0.35 -1.35,-0.35 -2.45,-1.05 -0.9,-0.55 -1.7,-1.25 -0.1,0.5 -0.1,1.1 0.05,1.95 0.05,3.9 0,0.15 0,0.3 0,2.05 0.05,4.15 0,2 -0.2,3.7 -0.15,1 -0.45,1.85 -0.55,1.5 -1.4,2.7 -0.9,1.2 -2.05,2.1 -1.1,0.9 -2.6,1.45 -0.8,0.35 -1.8,0.55 -1.6,0.3 -3.4,0.1 -1.65,-0.2 -2.95,-0.8 -1.4,-0.65 -2.5,-1.55 -1.1,-0.95 -1.95,-2.15 -0.85,-1.2 -1.35,-2.75 -0.55,-1.55 -0.45,-3.65 0,-0.2 0,-0.35 0.2,-1.9 0.8,-3.35 0.55,-1.25 1.35,-2.3 0.15,-0.15 0.25,-0.3 0.95,-1.15 2.2,-1.95 1.25,-0.9 2.85,-1.4 1.65,-0.45 3.8,-0.4 0.3,0 0.5,0.05 0.05,0.5 0.05,1.15 0,1.4 0,2.85 0,0.65 0,1.35 0,0.45 -0.05,0.75 -0.5,0.05 -1.1,0.05 -1.25,-0.05 -2,0.35 -1.4,0.7 -2.1,2.05 -0.55,1.05 -0.35,2.6 0.05,0.5 0.2,0.9 0.6,1.5 1.9,2.25 0.85,0.45 2.1,0.5 1.45,0.05 2.4,-0.5 1.3,-0.75 2,-2.15 0.35,-0.8 0.35,-2 -0.05,-2.05 -0.05,-4.15 0.05,-1 0.05,-2 0,-1.1 0,-2.15 0,-2.1 0,-4.25 0,-2.1 0,-4.25 0,-2.15 -0.05,-4.3 0,-1 0.1,-1.9 0.5,-0.1 1.1,-0.1 2.2,0.05 4.35,0.05 0.25,0 0.35,0.05 0.15,0.45 0.2,1 z"
         id="path32" />
      <path
         fill="#ff00fe"
         stroke="none"
         d="m 677.75,454.85 q -0.1,-0.25 -0.1,-0.5 -0.05,-0.55 -0.2,-1 -0.1,-0.05 -0.35,-0.05 -2.15,0 -4.35,-0.05 -0.6,0 -1.1,0.1 -0.1,0.9 -0.1,1.9 0.05,2.15 0.05,4.3 0,2.15 0,4.25 0,2.15 0,4.25 0,1.05 0,2.15 0,1 -0.05,2 0,2.1 0.05,4.15 0,1.2 -0.35,2 -0.7,1.4 -2,2.15 -0.95,0.55 -2.4,0.5 -1.25,-0.05 -2.1,-0.5 -1.3,-0.75 -1.9,-2.25 -0.15,-0.4 -0.2,-0.9 -0.2,-1.55 0.35,-2.6 0.7,-1.35 2.1,-2.05 0.75,-0.4 2,-0.35 0.6,0 1.1,-0.05 0.05,-0.3 0.05,-0.75 0,-0.7 0,-1.35 0,-1.45 0,-2.85 0,-0.65 -0.05,-1.15 -0.2,-0.05 -0.5,-0.05 -2.15,-0.05 -3.8,0.4 -1.6,0.5 -2.85,1.4 -1.25,0.8 -2.2,1.95 -0.1,0.15 -0.25,0.3 -0.8,1.05 -1.35,2.3 -0.6,1.45 -0.8,3.35 0,0.15 0,0.35 -0.1,2.1 0.45,3.65 0.5,1.55 1.35,2.75 0.85,1.2 1.95,2.15 1.1,0.9 2.5,1.55 1.3,0.6 2.95,0.8 1.8,0.2 3.4,-0.1 1,-0.2 1.8,-0.55 1.5,-0.55 2.6,-1.45 1.15,-0.9 2.05,-2.1 0.85,-1.2 1.4,-2.7 0.3,-0.85 0.45,-1.85 0.2,-1.7 0.2,-3.7 -0.05,-2.1 -0.05,-4.15 0,-0.15 0,-0.3 0,-1.95 -0.05,-3.9 0,-0.6 0.1,-1.1 0.8,0.7 1.7,1.25 1.1,0.7 2.45,1.05 1.45,0.35 3.25,0.35 0.3,0 0.55,-0.05 0.05,-0.05 0.05,-0.15 0,-2.05 0,-4.2 0,-1.25 0,-2.3 -0.6,-0.05 -1.2,-0.15 -1.8,-0.3 -3.05,-1.15 -1.3,-0.8 -2.25,-2.05 -0.9,-1.2 -1.3,-2.95 z"
         id="path34" />
    </g>
  </defs>
  <g
     id="g110"
     transform="translate(-653,-451.70001)">
    <use
       xlink:href="#Layer1_6_FILL"
       id="use108" />
  </g>
</svg>
