<?xml version="1.0" encoding="UTF-8" standalone="no"?>
<svg
   version="1.1"
   preserveAspectRatio="none"
   x="0px"
   y="0px"
   width="41.5"
   height="41.5"
   viewBox="0 0 41.5 41.5"
   id="svg148"
   sodipodi:docname="pictos smart.svg"
   xmlns:inkscape="http://www.inkscape.org/namespaces/inkscape"
   xmlns:sodipodi="http://sodipodi.sourceforge.net/DTD/sodipodi-0.dtd"
   xmlns:xlink="http://www.w3.org/1999/xlink"
   xmlns="http://www.w3.org/2000/svg"
   xmlns:svg="http://www.w3.org/2000/svg">
  <sodipodi:namedview
     id="namedview150"
     pagecolor="#ffffff"
     bordercolor="#000000"
     borderopacity="0.25"
     inkscape:showpageshadow="2"
     inkscape:pageopacity="0.0"
     inkscape:pagecheckerboard="0"
     inkscape:deskcolor="#d1d1d1"
     showgrid="false" />
  <defs
     id="defs82">
    <g
       id="Layer2_12_FILL">
      <path
         fill="#3c3f3e"
         stroke="none"
         d="m 172.95,1626.7 v -41.5 h -41.5 v 41.5 h 41.5 m -10.45,-35.05 q 1.1,1.45 2.6,2.4 1.45,1 3.55,1.35 0.7,0.1 1.4,0.15 0,1.25 0,2.7 0,2.5 0,4.85 0,0.15 -0.05,0.2 -0.3,0.05 -0.65,0.05 -2.1,0 -3.8,-0.4 -1.55,-0.4 -2.85,-1.25 -1.05,-0.6 -1.95,-1.45 -0.1,0.6 -0.1,1.3 0.05,2.25 0.05,4.55 0,0.15 0,0.35 0,2.35 0.05,4.8 0,2.35 -0.25,4.3 -0.15,1.15 -0.5,2.15 -0.65,1.75 -1.65,3.15 -1.05,1.4 -2.35,2.45 -1.3,1.05 -3.05,1.65 -0.95,0.45 -2.1,0.65 -1.85,0.35 -3.95,0.1 -1.9,-0.2 -3.4,-0.9 -1.65,-0.75 -2.9,-1.8 -1.3,-1.1 -2.3,-2.5 -1,-1.4 -1.55,-3.2 -0.65,-1.8 -0.55,-4.25 0,-0.25 0,-0.4 0.25,-2.2 0.95,-3.9 0.65,-1.45 1.55,-2.65 0.2,-0.2 0.3,-0.35 1.1,-1.35 2.55,-2.3 1.45,-1.05 3.35,-1.6 1.9,-0.55 4.4,-0.5 0.35,0 0.55,0.1 0.1,0.55 0.1,1.3 0,1.65 0,3.35 0,0.75 0,1.55 0,0.5 -0.1,0.85 -0.55,0.1 -1.25,0.1 -1.45,-0.1 -2.35,0.4 -1.6,0.8 -2.4,2.35 -0.65,1.25 -0.45,3.05 0.1,0.55 0.25,1.05 0.7,1.75 2.2,2.6 1,0.55 2.45,0.6 1.7,0.05 2.8,-0.6 1.5,-0.85 2.3,-2.5 0.45,-0.95 0.45,-2.3 -0.1,-2.4 -0.1,-4.85 0.1,-1.15 0.1,-2.3 0,-1.3 0,-2.5 0,-2.45 0,-4.95 0,-2.45 0,-4.95 0,-2.5 -0.1,-5 0,-1.15 0.15,-2.2 0.55,-0.1 1.25,-0.1 2.55,0.05 5.05,0.05 0.3,0 0.45,0.05 0.15,0.5 0.2,1.15 0,0.3 0.1,0.6 0.5,2 1.55,3.4 z"
         id="path62" />
      <path
         fill="#ff00fe"
         stroke="none"
         d="m 165.1,1594.05 q -1.5,-0.95 -2.6,-2.4 -1.05,-1.4 -1.55,-3.4 -0.1,-0.3 -0.1,-0.6 -0.05,-0.65 -0.2,-1.15 -0.15,-0.05 -0.45,-0.05 -2.5,0 -5.05,-0.05 -0.7,0 -1.25,0.1 -0.15,1.05 -0.15,2.2 0.1,2.5 0.1,5 0,2.5 0,4.95 0,2.5 0,4.95 0,1.2 0,2.5 0,1.15 -0.1,2.3 0,2.45 0.1,4.85 0,1.35 -0.45,2.3 -0.8,1.65 -2.3,2.5 -1.1,0.65 -2.8,0.6 -1.45,-0.05 -2.45,-0.6 -1.5,-0.85 -2.2,-2.6 -0.15,-0.5 -0.25,-1.05 -0.2,-1.8 0.45,-3.05 0.8,-1.55 2.4,-2.35 0.9,-0.5 2.35,-0.4 0.7,0 1.25,-0.1 0.1,-0.35 0.1,-0.85 0,-0.8 0,-1.55 0,-1.7 0,-3.35 0,-0.75 -0.1,-1.3 -0.2,-0.1 -0.55,-0.1 -2.5,-0.05 -4.4,0.5 -1.9,0.55 -3.35,1.6 -1.45,0.95 -2.55,2.3 -0.1,0.15 -0.3,0.35 -0.9,1.2 -1.55,2.65 -0.7,1.7 -0.95,3.9 0,0.15 0,0.4 -0.1,2.45 0.55,4.25 0.55,1.8 1.55,3.2 1,1.4 2.3,2.5 1.25,1.05 2.9,1.8 1.5,0.7 3.4,0.9 2.1,0.25 3.95,-0.1 1.15,-0.2 2.1,-0.65 1.75,-0.6 3.05,-1.65 1.3,-1.05 2.35,-2.45 1,-1.4 1.65,-3.15 0.35,-1 0.5,-2.15 0.25,-1.95 0.25,-4.3 -0.05,-2.45 -0.05,-4.8 0,-0.2 0,-0.35 0,-2.3 -0.05,-4.55 0,-0.7 0.1,-1.3 0.9,0.85 1.95,1.45 1.3,0.85 2.85,1.25 1.7,0.4 3.8,0.4 0.35,0 0.65,-0.05 0.05,-0.05 0.05,-0.2 0,-2.35 0,-4.85 0,-1.45 0,-2.7 -0.7,-0.05 -1.4,-0.15 -2.1,-0.35 -3.55,-1.35 z"
         id="path64" />
    </g>
  </defs>
  <g
     id="g134"
     transform="translate(-131.45,-1585.2)">
    <use
       xlink:href="#Layer2_12_FILL"
       id="use132" />
  </g>
</svg>
