<?xml version="1.0" encoding="UTF-8" standalone="no"?>
<svg
   version="1.1"
   preserveAspectRatio="none"
   x="0px"
   y="0px"
   width="41.5"
   height="41.5"
   viewBox="0 0 41.5 41.5"
   id="svg148"
   sodipodi:docname="pictos smart.svg"
   xmlns:inkscape="http://www.inkscape.org/namespaces/inkscape"
   xmlns:sodipodi="http://sodipodi.sourceforge.net/DTD/sodipodi-0.dtd"
   xmlns:xlink="http://www.w3.org/1999/xlink"
   xmlns="http://www.w3.org/2000/svg"
   xmlns:svg="http://www.w3.org/2000/svg">
  <sodipodi:namedview
     id="namedview150"
     pagecolor="#ffffff"
     bordercolor="#000000"
     borderopacity="0.25"
     inkscape:showpageshadow="2"
     inkscape:pageopacity="0.0"
     inkscape:pagecheckerboard="0"
     inkscape:deskcolor="#d1d1d1"
     showgrid="false" />
  <defs
     id="defs82">
    <g
       id="Layer2_11_FILL">
      <path
         fill="#3c3f3e"
         stroke="none"
         d="m 131.45,1532.45 v 41.5 h 41.5 v -41.5 h -41.5 m 22.2,3.35 q 2.65,0 5.45,0 2.7,0 5.45,0 2.45,0 4.7,0 h 0.1 q 0.1,0.6 0.05,1.35 0,2.75 0,5.45 0,2.75 0,5.5 0,2.7 0,5.45 0,2.15 0,4.25 -1.35,1.4 -2.75,2.8 -1.4,1.3 -2.7,2.65 -1.35,1.4 -2.75,2.8 -0.6,0.55 -1.15,1.15 -1.25,0.05 -2.7,0.05 -2.2,0 -4.35,0 -1.45,1.3 -2.8,2.7 -1,0.95 -1.95,1.95 -1.75,0 -3.6,0.05 -0.7,0.05 -1.1,-0.1 -0.15,-0.45 -0.1,-1.1 0,-1.75 0,-3.45 -0.6,-0.1 -1.3,-0.1 -2.75,0.05 -5.5,0.05 -0.9,0 -1.7,-0.1 h -0.1 q -0.05,-0.25 -0.05,-0.65 0,-2.75 0,-5.45 0,-2.75 0,-5.45 0,-2.75 0,-5.5 0,-2.7 0,-5.45 0,-1.35 0,-2.65 0.8,-2 1.5,-3.95 0.25,-0.6 0.45,-1.15 0.15,-0.45 0.25,-0.85 0.1,-0.15 0.25,-0.25 2.65,-0.05 5.4,0 2.75,0 5.45,0 2.75,0 5.55,0 m 4,3.2 q -2.75,0 -5.45,0 -2.75,0 -5.5,0 -2.7,0 -5.45,-0.1 -0.55,0 -0.9,0.15 0,2.45 0,4.9 0,2.75 0,5.45 0,2.75 0,5.5 0,2.7 0,5.45 -0.1,0.75 0.1,1.35 0.15,0.05 0.5,0.05 2.75,-0.05 5.5,-0.05 0.55,-0.1 0.9,0.1 0.05,0 0.05,0.05 0.1,1.55 0,3.3 0,0.65 0.1,1.1 0.05,0 0.05,-0.05 1,-0.85 1.85,-1.8 1.35,-1.4 2.8,-2.7 1.55,0 3.05,0 2.75,0 5.5,0 h 0.05 q 1.4,-1.35 2.8,-2.75 1.3,-1.4 2.65,-2.8 0,-2.35 0,-4.85 0,-2.8 0,-5.5 0,-2.8 0,-5.45 0,-0.75 0,-1.3 L 166.2,1539 q -1.5,-0.05 -3.1,-0.05 -2.7,0.05 -5.45,0.05 m -4.65,5.35 q 0.05,0.5 0.05,1.3 -0.05,2.7 -0.05,5.45 0,1.25 0.05,2.35 0,0.15 -0.05,0.1 -0.4,0.1 -1.05,0.1 -0.95,-0.05 -1.8,-0.1 h -0.05 q -0.1,-0.25 -0.1,-0.65 0.05,-2.75 0.05,-5.45 0,-1.55 0,-3.1 0.4,-0.1 1.05,-0.1 1.05,0.05 1.9,0.1 m 5.7,2.45 q 0,-1.25 -0.05,-2.4 0.25,-0.15 0.7,-0.15 0.6,0.05 1.2,0.05 0.65,-0.05 1.1,0.05 0.1,2.65 0.1,5.4 0,2 -0.1,3.8 -0.6,0.1 -1.5,0.05 -0.75,0 -1.4,-0.05 -0.1,-0.55 -0.1,-1.3 0.05,-2.75 0.05,-5.45 z"
         id="path57" />
      <path
         fill="#ff00fe"
         stroke="none"
         d="m 159.1,1535.8 q -2.8,0 -5.45,0 -2.8,0 -5.55,0 -2.7,0 -5.45,0 -2.75,-0.05 -5.4,0 -0.15,0.1 -0.25,0.25 -0.1,0.4 -0.25,0.85 -0.2,0.55 -0.45,1.15 -0.7,1.95 -1.5,3.95 0,1.3 0,2.65 0,2.75 0,5.45 0,2.75 0,5.5 0,2.7 0,5.45 0,2.7 0,5.45 0,0.4 0.05,0.65 h 0.1 q 0.8,0.1 1.7,0.1 2.75,0 5.5,-0.05 0.7,0 1.3,0.1 0,1.7 0,3.45 -0.05,0.65 0.1,1.1 0.4,0.15 1.1,0.1 1.85,-0.05 3.6,-0.05 0.95,-1 1.95,-1.95 1.35,-1.4 2.8,-2.7 2.15,0 4.35,0 1.45,0 2.7,-0.05 0.55,-0.6 1.15,-1.15 1.4,-1.4 2.75,-2.8 1.3,-1.35 2.7,-2.65 1.4,-1.4 2.75,-2.8 0,-2.1 0,-4.25 0,-2.75 0,-5.45 0,-2.75 0,-5.5 0,-2.7 0,-5.45 0.05,-0.75 -0.05,-1.35 h -0.1 q -2.25,0 -4.7,0 -2.75,0 -5.45,0 m -6.9,3.2 q 2.7,0 5.45,0 2.75,0 5.45,-0.05 1.6,0 3.1,0.05 l 0.05,0.05 q 0,0.55 0,1.3 0,2.65 0,5.45 0,2.7 0,5.5 0,2.5 0,4.85 -1.35,1.4 -2.65,2.8 -1.4,1.4 -2.8,2.75 h -0.05 q -2.75,0 -5.5,0 -1.5,0 -3.05,0 -1.45,1.3 -2.8,2.7 -0.85,0.95 -1.85,1.8 0,0.05 -0.05,0.05 -0.1,-0.45 -0.1,-1.1 0.1,-1.75 0,-3.3 0,-0.05 -0.05,-0.05 -0.35,-0.2 -0.9,-0.1 -2.75,0 -5.5,0.05 -0.35,0 -0.5,-0.05 -0.2,-0.6 -0.1,-1.35 0,-2.75 0,-5.45 0,-2.75 0,-5.5 0,-2.7 0,-5.45 0,-2.45 0,-4.9 0.35,-0.15 0.9,-0.15 2.75,0.1 5.45,0.1 2.75,0 5.5,0 m 6.45,5.4 q 0.05,1.15 0.05,2.4 0,2.7 -0.05,5.45 0,0.75 0.1,1.3 0.65,0.05 1.4,0.05 0.9,0.05 1.5,-0.05 0.1,-1.8 0.1,-3.8 0,-2.75 -0.1,-5.4 -0.45,-0.1 -1.1,-0.05 -0.6,0 -1.2,-0.05 -0.45,0 -0.7,0.15 m -5.6,1.25 q 0,-0.8 -0.05,-1.3 -0.85,-0.05 -1.9,-0.1 -0.65,0 -1.05,0.1 0,1.55 0,3.1 0,2.7 -0.05,5.45 0,0.4 0.1,0.65 h 0.05 q 0.85,0.05 1.8,0.1 0.65,0 1.05,-0.1 0.05,0.05 0.05,-0.1 -0.05,-1.1 -0.05,-2.35 0,-2.75 0.05,-5.45 z"
         id="path59" />
    </g>
  </defs>
  <g
     id="g130"
     transform="translate(-131.45,-1532.45)">
    <use
       xlink:href="#Layer2_11_FILL"
       id="use128" />
  </g>
</svg>
