<?xml version="1.0" encoding="UTF-8" standalone="no"?>
<svg
   version="1.1"
   preserveAspectRatio="none"
   x="0px"
   y="0px"
   width="29.766663"
   height="31.137482"
   viewBox="0 0 29.766663 31.137482"
   id="svg116"
   sodipodi:docname="pc_pictos.svg"
   xmlns:inkscape="http://www.inkscape.org/namespaces/inkscape"
   xmlns:sodipodi="http://sodipodi.sourceforge.net/DTD/sodipodi-0.dtd"
   xmlns:xlink="http://www.w3.org/1999/xlink"
   xmlns="http://www.w3.org/2000/svg"
   xmlns:svg="http://www.w3.org/2000/svg">
  <sodipodi:namedview
     id="namedview118"
     pagecolor="#ffffff"
     bordercolor="#000000"
     borderopacity="0.25"
     inkscape:showpageshadow="2"
     inkscape:pageopacity="0.0"
     inkscape:pagecheckerboard="0"
     inkscape:deskcolor="#d1d1d1"
     showgrid="false" />
  <defs
     id="defs50">
    <g
       id="Layer1_5_FILL">
      <path
         fill="#ff00fe"
         stroke="none"
         d="m 677,409.75 q -2.4,0 -4.7,0 -2.4,0 -4.75,0 -2.35,0 -4.7,0 -2.35,-0.05 -4.65,0 -0.15,0.05 -0.2,0.2 -0.1,0.35 -0.25,0.75 -0.15,0.45 -0.35,0.95 -0.6,1.7 -1.3,3.4 0,1.15 0,2.3 0,2.35 0,4.7 0,2.35 0,4.7 0,2.35 0,4.7 0,2.35 0,4.7 0,0.35 0.05,0.55 h 0.05 q 0.7,0.1 1.5,0.1 2.35,0 4.7,-0.05 0.6,0 1.15,0.1 0,1.45 0,2.95 -0.05,0.55 0.05,0.95 0.35,0.15 0.95,0.1 1.6,-0.05 3.1,-0.05 0.85,-0.85 1.7,-1.7 1.15,-1.2 2.4,-2.3 1.85,0 3.75,0 1.25,0 2.3,-0.05 0.5,-0.5 1,-1 1.2,-1.2 2.35,-2.4 1.15,-1.15 2.35,-2.3 1.2,-1.2 2.35,-2.4 0,-1.8 0,-3.65 0,-2.35 0,-4.7 0,-2.35 0,-4.7 0,-2.35 0,-4.7 0.05,-0.65 -0.05,-1.15 h -0.05 q -1.95,0 -4.05,0 -2.4,0 -4.7,0 m -5.95,2.75 q 2.35,0 4.7,0 2.35,0 4.7,-0.05 1.35,0 2.65,0.05 l 0.05,0.05 q 0,0.45 0,1.1 0,2.3 0,4.7 0,2.3 0,4.7 0,2.15 0,4.2 -1.15,1.2 -2.3,2.4 -1.2,1.2 -2.4,2.35 h -0.05 q -2.35,0 -4.7,0 -1.3,0 -2.65,0 -1.25,1.15 -2.4,2.35 -0.75,0.8 -1.6,1.55 0,0.05 -0.05,0.05 -0.05,-0.4 -0.05,-0.95 0.05,-1.5 0,-2.85 0,-0.05 -0.05,-0.05 -0.3,-0.15 -0.8,-0.1 -2.35,0 -4.7,0.05 -0.3,0 -0.45,-0.05 -0.15,-0.5 -0.1,-1.15 0,-2.35 0,-4.7 0,-2.35 0,-4.7 0,-2.35 0,-4.7 0,-2.1 0,-4.2 0.3,-0.15 0.8,-0.15 2.35,0.1 4.7,0.1 2.35,0 4.7,0 m 4.7,5.5 q 0.05,1 0.05,2.05 0,2.35 -0.05,4.7 0,0.65 0.1,1.1 0.55,0.05 1.2,0.05 0.75,0.05 1.3,-0.05 0.05,-1.55 0.05,-3.25 0,-2.35 -0.05,-4.65 -0.4,-0.1 -0.95,-0.05 -0.55,0 -1.05,-0.05 -0.4,0 -0.6,0.15 m -7.4,-0.05 q 0,1.35 0,2.65 0,2.35 -0.05,4.7 0,0.35 0.1,0.55 h 0.05 q 0.7,0.05 1.55,0.1 0.55,0 0.9,-0.1 0.05,0.05 0.05,-0.05 -0.05,-0.95 -0.05,-2.05 0,-2.35 0.05,-4.7 0,-0.65 -0.05,-1.1 -0.75,-0.05 -1.65,-0.1 -0.55,0 -0.9,0.1 z"
         id="path17" />
    </g>
  </defs>
  <g
     id="g74"
     transform="translate(-656.09998,-409.72501)">
    <use
       xlink:href="#Layer1_5_FILL"
       id="use72" />
  </g>
</svg>
