<?xml version="1.0" encoding="UTF-8" standalone="no"?>
<svg
   version="1.1"
   preserveAspectRatio="none"
   x="0px"
   y="0px"
   width="36.5"
   height="36.5"
   viewBox="0 0 36.5 36.5"
   id="svg148"
   sodipodi:docname="pictos carres.svg"
   inkscape:export-filename="../../../front/public/icons/facebook.svg"
   inkscape:export-xdpi="96"
   inkscape:export-ydpi="96"
   xmlns:inkscape="http://www.inkscape.org/namespaces/inkscape"
   xmlns:sodipodi="http://sodipodi.sourceforge.net/DTD/sodipodi-0.dtd"
   xmlns:xlink="http://www.w3.org/1999/xlink"
   xmlns="http://www.w3.org/2000/svg"
   xmlns:svg="http://www.w3.org/2000/svg">
  <sodipodi:namedview
     id="namedview150"
     pagecolor="#ffffff"
     bordercolor="#000000"
     borderopacity="0.25"
     inkscape:showpageshadow="2"
     inkscape:pageopacity="0.0"
     inkscape:pagecheckerboard="0"
     inkscape:deskcolor="#d1d1d1"
     showgrid="false" />
  <defs
     id="defs82">
    <g
       id="Layer1_10_FILL">
      <path
         fill="#3c3f3e"
         stroke="none"
         d="m 1352.65,186.25 h -36.5 v 36.5 h 36.5 v -36.5 m -33.2,3.05 q 2.6,0.05 5.2,0.05 1.9,0 3.8,0 1.1,1.5 2.2,3 1.15,1.5 2.25,3 1.1,1.5 2.2,2.95 0.8,1.05 1.6,2 0.35,-0.25 0.7,-0.6 1.2,-1.4 2.45,-2.75 1.25,-1.3 2.5,-2.7 1.25,-1.35 2.55,-2.7 1,-1.05 1.9,-2.2 1.45,-0.05 2.8,0.05 -0.1,0.4 -0.4,0.6 -0.1,0.1 -0.15,0.15 -1.3,1.35 -2.55,2.7 -1.25,1.4 -2.5,2.75 -1.2,1.35 -2.5,2.7 -1.25,1.35 -2.55,2.7 -0.45,0.55 -0.9,1.15 1.05,1.55 2.15,3.05 1.15,1.45 2.25,2.95 1.15,1.5 2.25,3 1.1,1.5 2.25,3 1.1,1.5 2.25,2.95 1,1.35 1.95,2.7 v 0.05 q -0.35,0.15 -0.9,0.15 -2.65,-0.05 -5.25,-0.05 -1.75,0 -3.45,-0.05 -1.15,-1.45 -2.25,-2.95 -1.1,-1.5 -2.25,-3 -1.05,-1.5 -2.2,-3 -1.1,-1.5 -2.25,-2.9 -1.35,1.25 -2.6,2.65 -1.25,1.35 -2.5,2.7 -1.25,1.35 -2.5,2.7 -1.25,1.4 -2.5,2.75 -0.5,0.55 -1.05,1.1 -1.35,0 -2.65,-0.1 -0.05,0 -0.05,-0.05 1.2,-1.35 2.5,-2.7 1.25,-1.4 2.5,-2.75 1.25,-1.35 2.5,-2.7 1.3,-1.35 2.55,-2.7 1.25,-1.35 2.45,-2.75 -0.55,-0.8 -1.1,-1.55 -1.15,-1.45 -2.25,-2.95 -1.1,-1.5 -2.2,-3 -1.15,-1.5 -2.25,-3 -1.15,-1.5 -2.25,-3 -1.1,-1.5 -2.25,-2.95 -0.15,-0.1 -0.15,-0.35 0.3,-0.1 0.65,-0.1 m 25.6,26.05 0.1,0.15 q -0.05,-0.1 -0.05,-0.15 h -0.05 m -1,-1.4 q -0.047,0 -0.1,-0.05 l 0.15,0.15 q -0.05,-0.0531 -0.05,-0.1 m -1.05,-1.35 0.05,0.05 V 212.6 H 1343 m -10.6,-14.1 0.15,0.15 q -0.05,-0.0531 -0.05,-0.15 -0.05,0 -0.1,0 m 9.25,12.3 0.05,0.1 v -0.05 q 0,-0.05 -0.05,-0.05 m -0.3,-0.45 q -0.05,-0.05 -0.1,-0.05 l 0.1,0.1 v -0.05 m -1.7,-2.3 h -0.05 l 0.05,0.05 v -0.05 m -1.8,-2.3 0.15,0.15 q -0.05,-0.0531 -0.05,-0.1 -0.05,0 -0.05,-0.05 h -0.05 m -8.5,-11.4 -0.05,-0.05 q -0.05,0 -0.05,-0.05 v -0.05 l -0.15,-0.2 v -0.05 h -0.05 l -0.6,-0.8 -0.1,-0.1 q -0.15,-0.2 -0.25,-0.4 l -0.1,-0.1 q -0.05,-0.1 -0.1,-0.2 h -0.05 l -0.15,-0.2 h -0.05 q -0.15,-0.25 -0.35,-0.5 l -4.1,-0.05 19.45,26.05 4.15,0.05 v -0.05 q -0.1,-0.05 -0.1,-0.1 h -0.05 q -0.1,-0.15 -0.2,-0.3 l -0.1,-0.1 -1.85,-2.5 q -0.05,0 -0.05,-0.05 l -0.15,-0.2 q -0.1,-0.1 -0.15,-0.2 l -2.45,-3.3 -0.45,-0.6 q 0,-0.1 -0.05,-0.1 l -0.5,-0.6 v -0.1 l -0.05,-0.05 q 0,-0.05 -0.05,-0.1 l -0.05,-0.05 0.1,0.2 -0.55,-0.75 q -0.1,-0.05 -0.15,-0.2 l -0.05,-0.1 q -0.15,-0.1 -0.25,-0.3 v -0.05 l -0.1,-0.05 v -0.1 l -0.05,-0.05 q -0.05,0 -0.05,-0.05 l -0.5,-0.65 v -0.05 q 0,-0.05 -0.1,-0.1 l -0.35,-0.5 q -0.05,0 -0.05,-0.05 l -0.05,-0.05 q -0.05,-0.05 -0.1,-0.1 -0.15,-0.15 -0.25,-0.35 l -0.2,-0.25 -0.45,-0.65 -0.05,-0.05 q -0.1,-0.1 -0.2,-0.25 l -0.2,-0.25 q 0,-0.1 -0.1,-0.15 l -1.7,-2.25 q -0.15,-0.2 -0.3,-0.4 l -0.3,-0.4 v -0.05 q 0,-0.05 -0.05,-0.05 l -0.05,-0.05 -0.7,-0.9 v -0.05 q -0.05,-0.1 -0.1,-0.15 h -0.05 v -0.05 l -0.1,-0.1 v -0.05 q -0.05,-0.05 -0.1,-0.15 h -0.05 l -0.05,-0.05 -0.1,-0.15 q 0,-0.1 -0.05,-0.1 l -0.75,-0.95 -0.05,-0.1 q -0.05,-0.05 -0.05,-0.1 v -0.05 q -0.05,-0.05 -0.1,-0.05 l -0.15,-0.25 -0.05,-0.05 q 0,-0.05 -0.05,-0.1 -0.1,-0.1 -0.2,-0.25 l -0.05,-0.05 z"
         id="path52" />
      <path
         fill="#ff00fe"
         stroke="none"
         d="m 1324.65,189.35 q -2.6,0 -5.2,-0.05 -0.35,0 -0.65,0.1 0,0.25 0.15,0.35 1.15,1.45 2.25,2.95 1.1,1.5 2.25,3 1.1,1.5 2.25,3 1.1,1.5 2.2,3 1.1,1.5 2.25,2.95 0.55,0.75 1.1,1.55 -1.2,1.4 -2.45,2.75 -1.25,1.35 -2.55,2.7 -1.25,1.35 -2.5,2.7 -1.25,1.35 -2.5,2.75 -1.3,1.35 -2.5,2.7 0,0.05 0.05,0.05 1.3,0.1 2.65,0.1 0.55,-0.55 1.05,-1.1 1.25,-1.35 2.5,-2.75 1.25,-1.35 2.5,-2.7 1.25,-1.35 2.5,-2.7 1.25,-1.4 2.6,-2.65 1.15,1.4 2.25,2.9 1.15,1.5 2.2,3 1.15,1.5 2.25,3 1.1,1.5 2.25,2.95 1.7,0.05 3.45,0.05 2.6,0 5.25,0.05 0.55,0 0.9,-0.15 v -0.05 q -0.95,-1.35 -1.95,-2.7 -1.15,-1.45 -2.25,-2.95 -1.15,-1.5 -2.25,-3 -1.1,-1.5 -2.25,-3 -1.1,-1.5 -2.25,-2.95 -1.1,-1.5 -2.15,-3.05 0.45,-0.6 0.9,-1.15 1.3,-1.35 2.55,-2.7 1.3,-1.35 2.5,-2.7 1.25,-1.35 2.5,-2.75 1.25,-1.35 2.55,-2.7 0.05,-0.05 0.15,-0.15 0.3,-0.2 0.4,-0.6 -1.35,-0.1 -2.8,-0.05 -0.9,1.15 -1.9,2.2 -1.3,1.35 -2.55,2.7 -1.25,1.4 -2.5,2.7 -1.25,1.35 -2.45,2.75 -0.35,0.35 -0.7,0.6 -0.8,-0.95 -1.6,-2 -1.1,-1.45 -2.2,-2.95 -1.1,-1.5 -2.25,-3 -1.1,-1.5 -2.2,-3 -1.9,0 -3.8,0 m 4.65,4.95 0.05,0.05 2.35,3.15 0.05,0.05 q 0.1,0.15 0.2,0.25 0.05,0.05 0.05,0.1 l 0.05,0.05 0.15,0.25 q 0.05,0 0.1,0.05 v 0.05 q 0,0.05 0.05,0.1 l 0.05,0.1 q 0.05,0 0.1,0 0,0.0969 0.05,0.15 l -0.15,-0.15 0.75,0.95 q 0.05,0 0.05,0.1 l 0.1,0.15 0.05,0.05 h 0.05 q 0.05,0.1 0.1,0.15 v 0.05 l 0.1,0.1 v 0.05 h 0.05 q 0.05,0.05 0.1,0.15 v 0.05 l 0.7,0.9 0.05,0.05 q 0.05,0 0.05,0.05 v 0.05 l 0.3,0.4 q 0.15,0.2 0.3,0.4 l 1.7,2.25 q 0.1,0.05 0.1,0.15 l 0.2,0.25 q 0.1,0.15 0.2,0.25 l 0.05,0.05 0.45,0.65 h 0.05 q 0,0.05 0.05,0.05 0,0.0469 0.05,0.1 l -0.15,-0.15 0.2,0.25 q 0.1,0.2 0.25,0.35 0.05,0.05 0.1,0.1 l 0.05,0.05 q 0,0.05 0.05,0.05 l 0.35,0.5 q 0.1,0.05 0.1,0.1 v 0.05 l 0.5,0.65 q 0,0.05 0.05,0.05 l 0.05,0.05 v 0.1 l 0.1,0.05 -0.05,-0.05 h 0.05 v 0.05 0.05 q 0.1,0.2 0.25,0.3 l 0.05,0.1 q 0.05,0.15 0.15,0.2 l 0.55,0.75 -0.1,-0.2 0.05,0.05 q 0.05,0.05 0.05,0.1 l 0.05,0.05 v 0.1 l 0.5,0.6 q 0.05,0 0.05,0.1 0.05,0 0.1,0.05 v 0.05 l -0.1,-0.1 0.45,0.6 -0.05,-0.1 q 0.05,0 0.05,0.05 v 0.05 l 2.45,3.3 q 0.05,0.1 0.15,0.2 l 0.15,0.2 q 0,0.05 0.05,0.05 l 1.85,2.5 0.1,0.1 q 0.1,0.15 0.2,0.3 h 0.05 q 0,0.05 0.1,0.1 v 0.05 l -4.15,-0.05 -19.45,-26.05 4.1,0.05 q 0.2,0.25 0.35,0.5 h 0.05 l 0.15,0.2 h 0.05 q 0.05,0.1 0.1,0.2 l 0.1,0.1 q 0.1,0.2 0.25,0.4 l 0.1,0.1 0.6,0.8 h 0.05 V 194 l 0.15,0.2 v 0.05 q 0,0.05 0.05,0.05 m 13.75,18.35 -0.05,-0.05 h 0.05 v 0.05 m 0.9,1.25 q 0.053,0.05 0.1,0.05 0,0.0469 0.05,0.1 l -0.15,-0.15 m 1.2,1.6 -0.1,-0.15 h 0.05 q 0,0.05 0.05,0.15 z"
         id="path54" />
    </g>
  </defs>
  <g
     id="g126"
     transform="translate(-1316.15,-186.25)">
    <use
       xlink:href="#Layer1_10_FILL"
       id="use124" />
  </g>
</svg>
