<?xml version="1.0" encoding="UTF-8" standalone="no"?>
<svg
   version="1.1"
   preserveAspectRatio="none"
   x="0px"
   y="0px"
   width="41.5"
   height="41.5"
   viewBox="0 0 41.5 41.5"
   id="svg148"
   sodipodi:docname="pictos smart.svg"
   xmlns:inkscape="http://www.inkscape.org/namespaces/inkscape"
   xmlns:sodipodi="http://sodipodi.sourceforge.net/DTD/sodipodi-0.dtd"
   xmlns:xlink="http://www.w3.org/1999/xlink"
   xmlns="http://www.w3.org/2000/svg"
   xmlns:svg="http://www.w3.org/2000/svg">
  <sodipodi:namedview
     id="namedview150"
     pagecolor="#ffffff"
     bordercolor="#000000"
     borderopacity="0.25"
     inkscape:showpageshadow="2"
     inkscape:pageopacity="0.0"
     inkscape:pagecheckerboard="0"
     inkscape:deskcolor="#d1d1d1"
     showgrid="false" />
  <defs
     id="defs82">
    <g
       id="Layer2_0_FILL">
      <path
         fill="#cccccc"
         stroke="none"
         d="m 742.4,844.15 v -41.5 h -41.5 v 41.5 h 41.5 m -10.3,-31.2 q -1.4,1.55 -2.9,3.15 -1.5,1.55 -3,3.15 -0.5,0.6 -1.05,1.3 1.25,1.8 2.5,3.55 1.35,1.7 2.65,3.45 1.3,1.75 2.6,3.5 1.25,1.7 2.6,3.45 1.3,1.75 2.65,3.45 1.15,1.55 2.25,3.15 v 0.05 q -0.4,0.15 -1.05,0.15 -3.1,-0.05 -6.1,-0.05 -2.05,0 -4,-0.05 -1.35,-1.7 -2.65,-3.45 -1.25,-1.7 -2.6,-3.45 -1.2,-1.75 -2.55,-3.5 -1.3,-1.75 -2.6,-3.4 -1.6,1.5 -3.05,3.1 -1.45,1.55 -2.9,3.15 -1.45,1.55 -2.9,3.15 -1.45,1.6 -2.9,3.2 -0.6,0.6 -1.25,1.25 -1.55,0 -3.05,-0.1 -0.05,0 -0.05,-0.05 1.4,-1.6 2.9,-3.15 1.45,-1.65 2.9,-3.2 1.45,-1.55 2.9,-3.15 1.5,-1.55 2.95,-3.15 1.45,-1.55 2.85,-3.2 -0.65,-0.9 -1.25,-1.8 -1.35,-1.65 -2.65,-3.4 -1.25,-1.75 -2.55,-3.5 -1.3,-1.75 -2.6,-3.5 -1.35,-1.7 -2.6,-3.45 -1.3,-1.75 -2.65,-3.45 -0.15,-0.1 -0.15,-0.4 0.35,-0.1 0.75,-0.1 3,0.05 6.05,0.05 2.2,0 4.4,0 1.3,1.75 2.55,3.5 1.35,1.7 2.65,3.45 1.25,1.75 2.55,3.45 0.9,1.2 1.85,2.3 0.4,-0.25 0.8,-0.7 1.4,-1.6 2.85,-3.2 1.45,-1.5 2.9,-3.1 1.45,-1.6 3,-3.15 1.15,-1.2 2.2,-2.55 1.65,-0.05 3.25,0.05 -0.1,0.45 -0.45,0.7 -0.15,0.1 -0.2,0.15 -1.5,1.6 -2.95,3.15 -1.45,1.65 -2.9,3.2 m 1.2,22.95 0.1,0.2 q -0.05,-0.15 -0.05,-0.2 h -0.05 m -1.15,-1.6 q -0.0453,0 -0.15,-0.1 l 0.2,0.2 q -0.05,-0.0531 -0.05,-0.1 M 731,832.75 v -0.05 h -0.1 l 0.1,0.05 m -4.05,-5.35 0.1,0.1 v -0.1 h -0.1 m -2,-2.65 0.15,0.2 q -0.05,-0.1 -0.05,-0.15 -0.05,0 -0.05,-0.05 h -0.05 m -6.25,-8.45 q -0.05,0 -0.1,0 l 0.1,0.15 q 0,-0.0467 0,-0.15 m 13.95,18.8 q -0.05,0 -0.05,-0.05 l -0.15,-0.25 q -0.15,-0.1 -0.2,-0.25 l -2.85,-3.8 -0.5,-0.7 q 0,-0.15 -0.05,-0.15 l -0.6,-0.65 v -0.15 l -0.05,-0.05 q 0,-0.05 -0.05,-0.1 l -0.1,-0.05 -0.5,-0.65 q -0.1,-0.05 -0.15,-0.25 l -0.1,-0.1 q -0.15,-0.15 -0.25,-0.35 v -0.05 l -0.15,-0.1 v -0.1 l -0.05,-0.05 q -0.05,0 -0.05,-0.05 l -0.6,-0.75 v -0.05 q 0,-0.1 -0.1,-0.15 l -0.4,-0.55 q -0.05,0 -0.05,-0.1 l -0.1,-0.05 q -0.05,-0.05 -0.1,-0.1 -0.15,-0.2 -0.3,-0.4 l -0.2,-0.3 -0.55,-0.75 -0.05,-0.05 q -0.1,-0.15 -0.25,-0.3 l -0.2,-0.3 q 0,-0.1 -0.15,-0.15 l -1.95,-2.65 q -0.2,-0.2 -0.35,-0.45 l -0.35,-0.45 v -0.05 q 0,-0.1 -0.05,-0.1 l -0.05,-0.05 -0.85,-1.05 v -0.05 q -0.05,-0.1 -0.1,-0.15 H 720 v -0.05 L 719.9,818 v -0.05 q -0.1,-0.05 -0.15,-0.15 h -0.05 l -0.05,-0.1 -0.1,-0.15 q 0,-0.1 -0.1,-0.1 l -0.7,-0.95 -0.05,-0.05 -0.1,-0.15 -0.05,-0.1 q -0.05,-0.05 -0.05,-0.1 v -0.05 Q 718.45,816 718.35,816 l -0.15,-0.3 -0.05,-0.05 q 0,-0.1 -0.05,-0.15 -0.15,-0.1 -0.25,-0.3 l -0.05,-0.05 -2.75,-3.65 -0.05,-0.05 q -0.05,0 -0.05,-0.05 v -0.05 l -0.2,-0.25 v -0.05 H 714.7 L 714,810.1 713.9,810 q -0.2,-0.25 -0.3,-0.5 l -0.1,-0.1 q -0.05,-0.1 -0.15,-0.2 h -0.05 l -0.15,-0.25 h -0.05 q -0.2,-0.3 -0.45,-0.6 l -4.75,-0.05 22.6,30.3 4.85,0.05 v -0.05 q -0.15,-0.1 -0.15,-0.15 h -0.05 q -0.1,-0.15 -0.2,-0.35 l -0.15,-0.1 -2.15,-2.9 m -3.25,-4.35 v -0.05 q 0,-0.1 -0.05,-0.1 l 0.05,0.15 m -0.4,-0.6 v -0.05 q -0.05,-0.05 -0.1,-0.05 z"
         id="path2" />
      <path
         fill="#ff00fe"
         stroke="none"
         d="m 729.2,816.1 q 1.5,-1.6 2.9,-3.15 1.45,-1.55 2.9,-3.2 1.45,-1.55 2.95,-3.15 0.05,-0.05 0.2,-0.15 0.35,-0.25 0.45,-0.7 -1.6,-0.1 -3.25,-0.05 -1.05,1.35 -2.2,2.55 -1.55,1.55 -3,3.15 -1.45,1.6 -2.9,3.1 -1.45,1.6 -2.85,3.2 -0.4,0.45 -0.8,0.7 -0.95,-1.1 -1.85,-2.3 -1.3,-1.7 -2.55,-3.45 -1.3,-1.75 -2.65,-3.45 -1.25,-1.75 -2.55,-3.5 -2.2,0 -4.4,0 -3.05,0 -6.05,-0.05 -0.4,0 -0.75,0.1 0,0.3 0.15,0.4 1.35,1.7 2.65,3.45 1.25,1.75 2.6,3.45 1.3,1.75 2.6,3.5 1.3,1.75 2.55,3.5 1.3,1.75 2.65,3.4 0.6,0.9 1.25,1.8 -1.4,1.65 -2.85,3.2 -1.45,1.6 -2.95,3.15 -1.45,1.6 -2.9,3.15 -1.45,1.55 -2.9,3.2 -1.5,1.55 -2.9,3.15 0,0.05 0.05,0.05 1.5,0.1 3.05,0.1 0.65,-0.65 1.25,-1.25 1.45,-1.6 2.9,-3.2 1.45,-1.6 2.9,-3.15 1.45,-1.6 2.9,-3.15 1.45,-1.6 3.05,-3.1 1.3,1.65 2.6,3.4 1.35,1.75 2.55,3.5 1.35,1.75 2.6,3.45 1.3,1.75 2.65,3.45 1.95,0.05 4,0.05 3,0 6.1,0.05 0.65,0 1.05,-0.15 v -0.05 q -1.1,-1.6 -2.25,-3.15 -1.35,-1.7 -2.65,-3.45 -1.35,-1.75 -2.6,-3.45 -1.3,-1.75 -2.6,-3.5 -1.3,-1.75 -2.65,-3.45 -1.25,-1.75 -2.5,-3.55 0.55,-0.7 1.05,-1.3 1.5,-1.6 3,-3.15 m -0.2,14 v 0.05 l -0.1,-0.1 0.5,0.7 -0.05,-0.15 q 0.05,0 0.05,0.1 v 0.05 l 2.85,3.8 q 0.05,0.15 0.2,0.25 l 0.15,0.25 q 0,0.05 0.05,0.05 l 2.15,2.9 0.15,0.1 q 0.1,0.2 0.2,0.35 h 0.05 q 0,0.05 0.15,0.15 v 0.05 l -4.85,-0.05 -22.6,-30.3 4.75,0.05 q 0.25,0.3 0.45,0.6 h 0.05 l 0.15,0.25 h 0.05 q 0.1,0.1 0.15,0.2 l 0.1,0.1 q 0.1,0.25 0.3,0.5 l 0.1,0.1 0.7,0.95 h 0.05 v 0.05 l 0.2,0.25 v 0.05 q 0,0.05 0.05,0.05 l 0.05,0.05 2.75,3.65 0.05,0.05 q 0.1,0.2 0.25,0.3 0.05,0.05 0.05,0.15 l 0.05,0.05 0.15,0.3 q 0.1,0 0.15,0.05 v 0.05 q 0,0.05 0.05,0.1 l 0.05,0.1 q 0.05,0 0.1,0 0,0.10332 0,0.15 l -0.1,-0.15 0.1,0.15 0.05,0.05 0.7,0.95 q 0.1,0 0.1,0.1 l 0.1,0.15 0.05,0.1 h 0.05 q 0.05,0.1 0.15,0.15 V 818 l 0.1,0.15 v 0.05 h 0.05 q 0.05,0.05 0.1,0.15 v 0.05 l 0.85,1.05 0.05,0.05 q 0.05,0 0.05,0.1 v 0.05 l 0.35,0.45 q 0.15,0.25 0.35,0.45 l 1.95,2.65 q 0.15,0.05 0.15,0.15 l 0.2,0.3 q 0.15,0.15 0.25,0.3 l 0.05,0.05 0.55,0.75 H 725 q 0,0.05 0.05,0.05 0,0.05 0.05,0.15 l -0.15,-0.2 0.2,0.3 q 0.15,0.2 0.3,0.4 0.05,0.05 0.1,0.1 l 0.1,0.05 q 0,0.1 0.05,0.1 l 0.4,0.55 q 0.1,0.05 0.1,0.15 v 0.05 l 0.6,0.75 q 0,0.05 0.05,0.05 l 0.05,0.05 v 0.1 l 0.15,0.1 -0.1,-0.1 h 0.1 v 0.1 0.05 q 0.1,0.2 0.25,0.35 l 0.1,0.1 q 0.05,0.2 0.15,0.25 l 0.5,0.65 0.1,0.05 q 0.05,0.05 0.05,0.1 l 0.05,0.05 v 0.15 l 0.6,0.65 q 0.05,0 0.05,0.15 0.05,0 0.1,0.05 m 2,2.6 v 0.05 l -0.1,-0.05 h 0.1 m 1,1.5 q 0.10469,0.1 0.15,0.1 0,0.0469 0.05,0.1 l -0.2,-0.2 m 1.4,1.9 -0.1,-0.2 h 0.05 q 0,0.05 0.05,0.2 z"
         id="path4" />
    </g>
  </defs>
  <g
     id="g86"
     transform="translate(-700.90002,-802.65002)">
    <use
       xlink:href="#Layer2_0_FILL"
       id="use84" />
  </g>
</svg>
