<?xml version="1.0" encoding="UTF-8" standalone="no"?>
<svg
   version="1.1"
   preserveAspectRatio="none"
   x="0px"
   y="0px"
   width="41.5"
   height="41.5"
   viewBox="0 0 41.5 41.5"
   id="svg148"
   sodipodi:docname="pictos smart.svg"
   xmlns:inkscape="http://www.inkscape.org/namespaces/inkscape"
   xmlns:sodipodi="http://sodipodi.sourceforge.net/DTD/sodipodi-0.dtd"
   xmlns:xlink="http://www.w3.org/1999/xlink"
   xmlns="http://www.w3.org/2000/svg"
   xmlns:svg="http://www.w3.org/2000/svg">
  <sodipodi:namedview
     id="namedview150"
     pagecolor="#ffffff"
     bordercolor="#000000"
     borderopacity="0.25"
     inkscape:showpageshadow="2"
     inkscape:pageopacity="0.0"
     inkscape:pagecheckerboard="0"
     inkscape:deskcolor="#d1d1d1"
     showgrid="false" />
  <defs
     id="defs82">
    <g
       id="Layer2_10_FILL">
      <path
         fill="#3c3f3e"
         stroke="none"
         d="m 131.45,1479.7 v 41.5 h 41.5 v -41.5 h -41.5 m 21.1,7.7 q 3,0 6.05,0.05 2.9,0.1 5.7,0.3 1.45,0.1 2.7,0.4 1.75,0.45 2.7,1.8 0.9,1.2 1.15,3.1 0.3,1.95 0.35,4.1 0.1,2.2 0.1,4.5 0,3.05 -0.35,5.75 -0.15,1.4 -0.5,2.55 -0.35,1.2 -1.1,1.95 -0.75,0.8 -1.95,1.2 -1.15,0.35 -2.55,0.45 -2.8,0.25 -5.75,0.35 -2.9,0.1 -5.9,0.1 -3.1,0 -6.05,-0.1 -2.9,-0.05 -5.85,-0.25 -2.2,-0.1 -4.15,-0.55 -0.55,-0.2 -1,-0.5 -1.9,-1.15 -2.35,-3.75 -0.4,-2.7 -0.5,-5.6 -0.1,-1.95 -0.05,-4.05 0.1,-2.95 0.4,-5.65 0.15,-1.75 0.85,-3 1,-2.05 3.55,-2.45 1.4,-0.2 2.75,-0.35 2.8,-0.25 5.8,-0.3 2.9,-0.05 5.95,-0.05 m -3.25,7.9 q -0.45,-0.35 -0.9,-0.2 0,2.25 0,4.45 0,3 0,6.05 0,0.45 0.15,0.7 0,0.05 0.1,0 0.55,-0.25 1.15,-0.55 1.9,-1.1 3.85,-2.25 1.9,-1.1 3.9,-2.2 0.45,-0.25 0.85,-0.6 v -0.05 q -0.35,-0.35 -0.8,-0.6 -1.95,-1.1 -3.9,-2.2 -1.9,-1.1 -3.85,-2.15 -0.35,-0.25 -0.55,-0.4 z"
         id="path52" />
      <path
         fill="#ff00fe"
         stroke="none"
         d="m 158.6,1487.45 q -3.05,-0.05 -6.05,-0.05 -3.05,0 -5.95,0.05 -3,0.05 -5.8,0.3 -1.35,0.15 -2.75,0.35 -2.55,0.4 -3.55,2.45 -0.7,1.25 -0.85,3 -0.3,2.7 -0.4,5.65 -0.05,2.1 0.05,4.05 0.1,2.9 0.5,5.6 0.45,2.6 2.35,3.75 0.45,0.3 1,0.5 1.95,0.45 4.15,0.55 2.95,0.2 5.85,0.25 2.95,0.1 6.05,0.1 3,0 5.9,-0.1 2.95,-0.1 5.75,-0.35 1.4,-0.1 2.55,-0.45 1.2,-0.4 1.95,-1.2 0.75,-0.75 1.1,-1.95 0.35,-1.15 0.5,-2.55 0.35,-2.7 0.35,-5.75 0,-2.3 -0.1,-4.5 -0.05,-2.15 -0.35,-4.1 -0.25,-1.9 -1.15,-3.1 -0.95,-1.35 -2.7,-1.8 -1.25,-0.3 -2.7,-0.4 -2.8,-0.2 -5.7,-0.3 m -10.2,7.65 q 0.45,-0.15 0.9,0.2 0.2,0.15 0.55,0.4 1.95,1.05 3.85,2.15 1.95,1.1 3.9,2.2 0.45,0.25 0.8,0.6 v 0.05 q -0.4,0.35 -0.85,0.6 -2,1.1 -3.9,2.2 -1.95,1.15 -3.85,2.25 -0.6,0.3 -1.15,0.55 -0.1,0.05 -0.1,0 -0.15,-0.25 -0.15,-0.7 0,-3.05 0,-6.05 0,-2.2 0,-4.45 z"
         id="path54" />
    </g>
  </defs>
  <g
     id="g126"
     transform="translate(-131.45,-1479.7)">
    <use
       xlink:href="#Layer2_10_FILL"
       id="use124" />
  </g>
</svg>
