<?xml version="1.0" encoding="UTF-8" standalone="no"?>
<svg
   version="1.1"
   preserveAspectRatio="none"
   x="0px"
   y="0px"
   width="32.766663"
   height="22.899994"
   viewBox="0 0 32.766663 22.899994"
   id="svg116"
   sodipodi:docname="pc_pictos.svg"
   xmlns:inkscape="http://www.inkscape.org/namespaces/inkscape"
   xmlns:sodipodi="http://sodipodi.sourceforge.net/DTD/sodipodi-0.dtd"
   xmlns:xlink="http://www.w3.org/1999/xlink"
   xmlns="http://www.w3.org/2000/svg"
   xmlns:svg="http://www.w3.org/2000/svg">
  <sodipodi:namedview
     id="namedview118"
     pagecolor="#ffffff"
     bordercolor="#000000"
     borderopacity="0.25"
     inkscape:showpageshadow="2"
     inkscape:pageopacity="0.0"
     inkscape:pagecheckerboard="0"
     inkscape:deskcolor="#d1d1d1"
     showgrid="false" />
  <defs
     id="defs50">
    <g
       id="Layer1_4_FILL">
      <path
         fill="#ff00fe"
         stroke="none"
         d="m 676.55,369 q -2.6,-0.05 -5.2,-0.05 -2.6,0 -5.1,0.05 -2.6,0.05 -5,0.25 -1.15,0.15 -2.35,0.3 -2.2,0.35 -3.05,2.1 -0.6,1.1 -0.75,2.6 -0.25,2.3 -0.35,4.85 -0.05,1.8 0.05,3.5 0.1,2.5 0.45,4.8 0.35,2.25 2,3.25 0.4,0.25 0.85,0.4 1.7,0.4 3.6,0.5 2.5,0.15 5,0.2 2.55,0.1 5.2,0.1 2.6,0 5.1,-0.1 2.55,-0.1 4.95,-0.3 1.2,-0.1 2.2,-0.4 1,-0.35 1.65,-1 0.65,-0.65 0.95,-1.7 0.3,-1 0.45,-2.2 0.3,-2.3 0.3,-4.95 0,-1.95 -0.1,-3.85 -0.05,-1.85 -0.3,-3.55 -0.2,-1.6 -1,-2.65 -0.8,-1.15 -2.3,-1.55 -1.1,-0.25 -2.35,-0.35 -2.4,-0.15 -4.9,-0.25 m -8.75,10.4 q 0,-1.9 0,-3.8 0.4,-0.15 0.75,0.15 0.2,0.15 0.5,0.35 1.65,0.9 3.3,1.85 1.7,0.95 3.35,1.9 0.4,0.2 0.7,0.5 v 0.05 q -0.35,0.3 -0.75,0.5 -1.7,0.95 -3.35,1.9 -1.65,1 -3.3,1.95 -0.5,0.25 -1,0.45 -0.1,0.05 -0.1,0 -0.1,-0.2 -0.1,-0.6 0,-2.6 0,-5.2 z"
         id="path14" />
    </g>
  </defs>
  <g
     id="g70"
     inkscape:label="g70"
     transform="translate(-654.73334,-368.95001)">
    <use
       xlink:href="#Layer1_4_FILL"
       id="use68" />
  </g>
</svg>
