
<svg xmlns="http://www.w3.org/2000/svg" version="1.1" xmlns:xlink="http://www.w3.org/1999/xlink" preserveAspectRatio="none" x="0px" y="0px" width="1080px" height="2400px" viewBox="0 0 1080 2400">
<defs>
<g id="Layer4_0_FILL">
<path fill="#CCCCCC" stroke="none" d="
M 661.55 673.55
L 655.3 678.8 615.6 718.5 615.6 1308.95 871.95 1308.95 1047.9 1133 1047.9 1030.45 1048.35 1030.45
Q 1048.35 1029.05 1048.35 1027.6 1048.35 959.7 1048.3 891.8
L 1048.25 891.8 1048.25 673.55 661.55 673.55 Z"/>
</g>

<g id="Layer4_1_MEMBER_0_FILL">
<path fill="#3D3F3E" stroke="none" d="
M 605.1 1140.15
L 388.7 923.75 39.65 923.75
Q 36.5 923.75 36.35 926.85
L 36.35 2303.9 81.7 2349.25 419.1 2349.25 419.1 2077.2 357.4 2015.5 419.1 1953.8 419.1 1632.65 605.1 1446.65 605.1 1140.15 Z"/>
</g>

<g id="Layer4_2_FILL">
<path fill="#FF00FF" stroke="none" d="
M 615.6 1308.95
L 615.6 1458.05 657.85 1500.3 986.4 1500.3 986.4 1485.15 986.4 1470.8 986.4 1456.3 986.4 1441.85 986.4 1427.5 986.4 1413 986.4 1396.45 986.4 1382.05 986.4 1367.65 986.4 1353.2 986.4 1338.7 986.4 1324.35 986.4 1309.85 986.4 1308.95 972.95 1308.95 958.45 1308.95 944.05 1308.95 929.55 1308.95 915.1 1308.95 900.7 1308.95 886.25 1308.95 615.6 1308.95 Z"/>
</g>

<path id="Layer4_0_1_STROKES" stroke="#FF00FF" stroke-width="1" stroke-linejoin="miter" stroke-linecap="square" stroke-miterlimit="3" fill="none" d="
M 1015.35 1513.95
L 1014.1 1515.2"/>

<path id="Layer4_1_MEMBER_1_1_STROKES" stroke="#FF00FE" stroke-width="1" stroke-linejoin="miter" stroke-linecap="square" stroke-miterlimit="3" fill="none" d="
M 217.4 842.8
L 341.85 967.5
Q 350.65 976.55 359.6 985.45
M 418.8 842.8
L 605.1 1029.5
M 332.25 842.8
L 605.1 1116.05
M 404.35 842.8
L 605.1 1043.9
M 346.7 842.8
L 605.1 1101.6
M 375.5 842.8
L 605.1 1072.75
M 389.95 842.8
L 605.1 1058.35
M 361.1 842.8
L 605.1 1087.2
M 173.8 842.8
L 316.3 985.45
M 36.35 980.55
L 41.3 985.45
M 36.35 966.1
L 55.75 985.45
M 36.35 951.7
L 70.05 985.45
M 37.55 865.05
L 157.9 985.45
M 37.55 879.55
L 143.45 985.45
M 37.55 922.75
L 100.2 985.45
M 37.55 937.25
L 85.75 985.45
M 37.55 908.4
L 114.6 985.45
M 37.55 893.9
L 129.05 985.45
M 37.55 850.7
L 172.1 985.45
M 44.1 842.8
L 186.55 985.45
M 58.5 842.8
L 200.95 985.45
M 130.6 842.8
L 273.05 985.45
M 116.2 842.8
L 258.65 985.45
M 101.75 842.8
L 244.2 985.45
M 87.35 842.8
L 229.8 985.45
M 72.9 842.8
L 215.35 985.45
M 144.95 842.8
L 287.45 985.45
M 159.45 842.8
L 301.85 985.45
M 260.15 842.8
L 605.1 1188.2
M 274.65 842.8
L 605.1 1173.75
M 289 842.8
L 605.1 1159.35
M 317.85 842.8
L 605.1 1130.45
M 303.4 842.8
L 605.1 1144.9
M 202.4 842.8
L 345.15 985.45
M 231.25 842.8
L 374 985.45
M 246.15 842.8
L 388.45 985.45
M 188.3 842.8
L 330.7 985.45"/>

<path id="Layer4_2_1_STROKES" stroke="#CCCCCC" stroke-width="1" stroke-linejoin="round" stroke-linecap="round" fill="none" d="
M 764.6 646.45
L 742.55 668.5
M 807.9 646.45
L 785.85 668.5
M 793.45 646.45
L 771.4 668.5
M 779.05 646.45
L 757 668.5
M 699.25 668.5
L 719.35 648.4
M 684.2 669.15
L 704.95 648.4
M 669.75 669.15
L 690.5 648.4
M 728.5 668.5
L 748.6 648.4
M 713.7 668.5
L 733.8 648.4
M 923.3 646.45
L 901.25 668.5
M 966.55 646.45
L 944.5 668.5
M 937.7 646.45
L 915.65 668.5
M 952.15 646.45
L 930.1 668.5
M 836.75 646.45
L 814.7 668.5
M 880 646.45
L 857.95 668.5
M 865.6 646.45
L 843.55 668.5
M 851.15 646.45
L 829.1 668.5
M 894.45 646.45
L 872.4 668.5
M 908.85 646.45
L 886.8 668.5
M 822.3 646.45
L 800.25 668.5
M 1009.85 646.45
L 987.8 668.5
M 995.45 646.45
L 973.4 668.5
M 1048.65 650.9
L 1031.05 668.5
M 1038.725 646.45
L 1016.7 668.5
M 1024.3 646.45
L 1002.25 668.5
M 981 646.45
L 958.95 668.5"/>

<path id="Layer4_2_2_STROKES" stroke="#FF00FF" stroke-width="1" stroke-linejoin="miter" stroke-linecap="square" stroke-miterlimit="3" fill="none" d="
M 1047.9 1147.35
L 886.25 1308.95
M 1047.9 1219.5
L 958.45 1308.95
M 1047.9 1176.2
L 915.1 1308.95
M 1047.9 1190.65
L 929.575 1308.95
M 1047.9 1205.15
L 944.075 1308.95
M 1047.9 1161.9
L 900.725 1308.95
M 1047.9 1248.35
L 986.4 1309.85
M 1047.9 1262.9
L 986.4 1324.375
M 1047.9 1291.7
L 986.4 1353.2
M 1047.9 1306.15
L 986.4 1367.65
M 1047.9 1320.55
L 986.4 1382.05
M 1047.9 1277.2
L 986.4 1338.7
M 1047.9 1234.05
L 972.975 1308.95
M 1047.9 1351.5
L 986.4 1413
M 1047.9 1366.05
L 986.4 1427.5
M 1047.9 1394.8
L 986.4 1456.3
M 1047.9 1409.3
L 986.4 1470.8
M 1047.9 1380.35
L 986.4 1441.85
M 1047.9 1510.3
L 1029 1529.25
M 1047.9 1495.85
L 1021.55 1522.2
M 1047.9 1539.15
L 1043.8 1543.25
M 1047.9 1524.7
L 1036.4 1536.25
M 1047.9 1423.65
L 986.4 1485.15
M 1047.9 1481.35
L 1015.35 1513.95
M 1047.9 1452.5
L 999.25 1501.2
M 1047.9 1467.05
L 1006.7 1508.25
M 1047.9 1438.2
L 991.85 1494.2
M 1047.9 1335
L 986.4 1396.45"/>

<path id="Layer4_3_1_STROKES" stroke="#CCCCCC" stroke-width="1" stroke-linejoin="round" stroke-linecap="round" fill="none" d="
M 1029.05 1444.9
L 1027.6 1446.35
M 1029.25 1502.4
L 1027.6 1504.05
M 1036.45 1509.6
L 1027.6 1518.45
M 1043.675 1516.825
L 1027.65 1532.95
M 1047.7 1556.1
L 1027.65 1576.2
M 1047.7 1541.65
L 1027.6 1561.75
M 1047.7 1527.2
L 1027.6 1547.3
M 1047.7 1599.4
L 1027.65 1619.5
M 1047.7 1584.95
L 1027.6 1605.05
M 1047.7 1657.1
L 1027.6 1677.2
M 1047.7 1642.65
L 1027.6 1662.75
M 1029.05 1675.35
L 1027.6 1676.8
M 1047.7 1613.8
L 1027.6 1633.9
M 1047.7 1628.25
L 1027.6 1648.35
M 1047.7 1700.4
L 1027.6 1720.5
M 1047.7 1685.95
L 1027.6 1706.05
M 1047.7 1699.95
L 1027.6 1720.05
M 1047.7 1757.65
L 1027.6 1777.75
M 1047.7 1743.25
L 1027.6 1763.35
M 1047.7 1714.4
L 1027.6 1734.5
M 1047.7 1728.8
L 1027.6 1748.9
M 1047.7 1671.55
L 1027.6 1691.65
M 1047.7 1786.5
L 1027.6 1806.6
M 1047.7 1800.95
L 1027.6 1821.05
M 1047.7 1858.7
L 1027.6 1878.8
M 1047.7 1844.25
L 1027.6 1864.35
M 1047.7 1815.4
L 1027.6 1835.5
M 1047.7 1829.8
L 1027.6 1849.9
M 1047.7 1901.95
L 1027.6 1922.05
M 1047.7 1887.55
L 1027.6 1907.65
M 1047.7 1959.7
L 1027.6 1979.8
M 1047.7 1930.8
L 1027.6 1950.9
M 1047.7 1945.25
L 1027.6 1965.35
M 1047.7 1916.4
L 1027.6 1936.5
M 1047.7 1873.1
L 1027.6 1893.2
M 1047.7 1772.1
L 1027.6 1792.2
M 678.7 2343.1
L 679.3 2342.5
M 1047.7 1988.55
L 1027.6 2008.65
M 1047.7 2291.45
L 976.55 2362.6
M 1047.7 2002.95
L 688.05 2362.6
M 1047.7 1974.1
L 1027.6 1994.2
M 1047.7 2060.65
L 745.75 2362.6
M 1047.7 2017.4
L 702.5 2362.6
M 1047.7 2031.8
L 716.9 2362.6
M 1047.7 2046.25
L 731.35 2362.6
M 1047.7 2219.35
L 904.45 2362.6
M 1047.7 2075.1
L 760.2 2362.6
M 1047.7 2089.5
L 774.6 2362.6
M 1047.7 2176.05
L 861.15 2362.6
M 1047.7 2204.9
L 890 2362.6
M 1047.7 2190.5
L 875.6 2362.6
M 1047.7 2118.35
L 803.45 2362.6
M 1047.7 2132.8
L 817.9 2362.6
M 1047.7 2147.2
L 832.3 2362.6
M 1047.7 2161.65
L 846.75 2362.6
M 1047.7 2103.95
L 789.05 2362.6
M 1047.7 2277.05
L 962.2 2362.6
M 1047.7 2233.8
L 918.9 2362.6
M 1047.7 2248.2
L 933.3 2362.6
M 1047.7 2262.65
L 947.75 2362.6
M 1047.7 1570.55
L 1027.65 1590.65"/>
</defs>

<g transform="matrix( 1, 0, 0, 1, 0,0) ">
<use xlink:href="#Layer4_0_FILL"/>

<use xlink:href="#Layer4_0_1_STROKES"/>
</g>

<g transform="matrix( 1, 0, 0, 1, 0,0) ">
<use xlink:href="#Layer4_1_MEMBER_0_FILL"/>
</g>

<g transform="matrix( 1, 0, 0, 1, 0,0) ">
<use xlink:href="#Layer4_1_MEMBER_1_1_STROKES"/>
</g>

<g transform="matrix( 1, 0, 0, 1, 0,0) ">
<use xlink:href="#Layer4_2_FILL"/>

<use xlink:href="#Layer4_2_1_STROKES"/>

<use xlink:href="#Layer4_2_2_STROKES"/>
</g>

<g transform="matrix( 1, 0, 0, 1, 0,0) ">
<use xlink:href="#Layer4_3_1_STROKES"/>
</g>
</svg>
