
<svg xmlns="http://www.w3.org/2000/svg" version="1.1" xmlns:xlink="http://www.w3.org/1999/xlink" preserveAspectRatio="none" x="0px" y="0px" width="1920px" height="1080px" viewBox="0 0 1920 1080">
<defs>
<g id="Layer5_0_FILL">
<path fill="#FFFFFF" stroke="none" d="
M 1920.8 1081.6
L 1920.8 0 0 0 0 1081.6 1920.8 1081.6
M 1622.05 212.35
Q 1627.3888671875 212.35 1632.3 213.35 1649.8080078125 214.1080078125 1662.4 226.7 1675.85 240.15 1675.85 259.1 1675.85 278.05 1662.4 291.45 1658.12578125 295.740234375 1653.25 298.65 1639.9970703125 309.95 1622.05 309.95 1601.85 309.95 1587.55 295.65 1573.25 281.35 1573.25 261.15 1573.25 240.95 1587.55 226.65 1601.85 212.35 1622.05 212.35 Z"/>
</g>

<g id="Layer4_0_FILL">
<path fill="#CCCCCC" stroke="none" d="
M 1266.4 194.45
L 1236.2 164.25 56.9 164.25 57 287.25 275.45 505.8 382.95 505.65
Q 384.275 505.64453125 385.55 505.65 466.1890625 505.6296875 546.8 505.6
L 1270.4 505.6 1270.4 199.15 1266.4 194.45
M 1820.65 595.05
L 1750.4 524.8 1289.15 524.8 1289.15 940.8 1362.75 1014.4 1820.65 1014.4 1820.65 595.05
M 1589.8 530.1
L 1335.5 784.4 1589.8 530.1
M 1600.75 530.1
L 1346.45 784.4 1600.75 530.1
M 1611.75 530.1
L 1357.45 784.4 1611.75 530.1
M 1556.85 530.1
L 1302.55 784.4 1556.85 530.1
M 1567.85 530.1
L 1313.55 784.4 1567.85 530.1
M 1578.8 530.1
L 1324.5 784.4 1578.8 530.1
M 1752.3 535.9
Q 1752.3 535.85 1752.3 535.8 1752.35 535.8 1752.45 535.85 1752.8 535.95 1752.8 536 1752.55 536 1752.45 536 1752.3 535.95 1752.3 535.9
M 1622.7 530.1
L 1368.4 784.4 1622.7 530.1
M 1633.7 530.1
L 1379.4 784.4 1633.7 530.1
M 1379 784.4
L 1293.25 870.15 1379 784.4
M 1368 784.4
L 1293.25 859.2 1368 784.4
M 1357.05 784.4
L 1293.25 848.2 1357.05 784.4
M 1346.05 784.4
L 1293.25 837.2 1346.05 784.4
M 1335.1 784.4
L 1293.25 826.25 1335.1 784.4
M 1324.1 784.4
L 1293.25 815.25 1324.1 784.4
M 1313.15 784.4
L 1293.25 804.3 1313.15 784.4
M 1302.15 784.4
L 1293.25 793.3 1302.15 784.4
M 1534.9 530.1
L 1293.25 771.75 1534.9 530.1
M 1545.9 530.1
L 1293.25 782.75 1545.9 530.1
M 1512.95 530.1
L 1293.25 749.8 1512.95 530.1
M 1523.9 530.1
L 1293.25 760.75 1523.9 530.1
M 1458.05 530.1
L 1293.25 694.9 1458.05 530.1
M 1469.05 530.1
L 1293.25 705.9 1469.05 530.1
M 1480 530.1
L 1293.25 716.85 1480 530.1
M 1491 530.1
L 1293.25 727.85 1491 530.1
M 1501.95 530.1
L 1293.25 738.8 1501.95 530.1
M 1414.15 530.1
L 1293.25 651 1414.15 530.1
M 1425.15 530.1
L 1293.25 662 1425.15 530.1
M 1436.1 530.1
L 1293.25 672.95 1436.1 530.1
M 1447.1 530.1
L 1293.25 683.95 1447.1 530.1 Z"/>

<path fill="#3D3F3E" stroke="none" d="
M 1711.85 98.5
L 1711.85 87.6 1711.85 76.6 1711.85 75.35
Q 1711.85 72.95 1709.5 72.85
L 1334.7 72.85 1289.15 118.4 1289.15 505.6 1547.2 505.6 1711.85 340.95 1711.85 340.75 1711.85 329.7 1711.85 318.75 1711.85 307.75 1711.85 296.8 1711.85 285.85 1711.85 274.85 1711.85 263.9 1711.85 252.95 1711.85 242 1711.85 231 1711.85 220.05 1711.85 209.05 1711.85 198.1 1711.85 187.15 1711.85 176.15 1711.85 165.35 1711.85 154.35 1711.85 143.4 1711.85 132.4 1711.85 121.45 1711.85 110.45 1711.85 98.5 Z"/>
</g>

<g id="Layer4_1_FILL">
<path fill="#CCCCCC" stroke="none" d="
M 1236.2 164.25
L 1204.05 132.1 595.85 132.1 563.7 164.25 1236.2 164.25 Z"/>
</g>

<path id="Layer4_0_1_STROKES" stroke="#FF00FE" stroke-width="1" stroke-linejoin="miter" stroke-linecap="square" stroke-miterlimit="3" fill="none" d="
M 1737.55 72.85
L 1711.85 98.5
M 1726.6 72.85
L 1711.85 87.6
M 1715.6 72.85
L 1711.85 76.6
M 1781.5 73.75
L 1711.85 143.4
M 1770.5 73.75
L 1711.85 132.4
M 1759.55 73.75
L 1711.85 121.45
M 1820.4 78.75
L 1711.85 187.15
M 1814.4 73.75
L 1711.85 176.15
M 1803.45 73.75
L 1711.85 165.35
M 1792.45 73.75
L 1711.85 154.35
M 1748.55 73.75
L 1711.85 110.45
M 1820.4 133.6
L 1711.85 242
M 1820.4 122.6
L 1711.85 231
M 1820.4 111.65
L 1711.85 220.05
M 1820.4 100.65
L 1711.85 209.05
M 1820.4 188.425
L 1711.85 296.8
M 1820.4 177.45
L 1711.85 285.85
M 1820.4 166.475
L 1711.85 274.85
M 1820.4 155.5
L 1711.85 263.9
M 1820.4 144.55
L 1711.85 252.95
M 1820.4 210.575
L 1725.475 305.275
Q 1718.6638671875 312.02421875 1711.85 318.775
M 1820.4 221.15
L 1711.85 329.725
M 1820.4 232.5
L 1711.85 340.75
M 1820.4 199.2
L 1711.85 307.775
M 1820.4 89.7
L 1711.85 198.1
M 1820.4 396.5
L 1711.3 505.6
M 1820.4 407.45
L 1722.25 505.6
M 1820.4 440.45
L 1755.25 505.6
M 1820.4 418.45
L 1733.25 505.6
M 1820.4 429.45
L 1744.25 505.6
M 1820.4 254.15
L 1568.6 505.6
M 1820.4 243.15
L 1557.6 505.6
M 1820.4 265.075
L 1579.55 505.6
M 1820.4 308.975
L 1623.5 505.6
M 1820.4 330.9
L 1645.45 505.6
M 1820.4 352.85
L 1667.4 505.6
M 1820.4 374.55
L 1689.35 505.6
M 1820.4 385.5
L 1700.3 505.6
M 1820.4 363.85
L 1678.35 505.6
M 1820.4 341.9
L 1656.4 505.6
M 1820.4 319.95
L 1634.45 505.6
M 1820.4 298
L 1612.5 505.6
M 1820.4 287.025
L 1601.55 505.6
M 1820.4 276.05
L 1590.55 505.6"/>

<path id="Layer4_0_2_STROKES" stroke="#FFFFFF" stroke-width="1" stroke-linejoin="miter" stroke-linecap="square" stroke-miterlimit="3" fill="none" d="
M 1589.8 530.1
L 1335.5 784.4
M 1600.75 530.1
L 1346.45 784.4
M 1611.75 530.1
L 1357.45 784.4
M 1556.85 530.1
L 1302.55 784.4
M 1567.85 530.1
L 1313.55 784.4
M 1578.8 530.1
L 1324.5 784.4
M 1622.7 530.1
L 1368.4 784.4
M 1633.7 530.1
L 1379.4 784.4
M 56.9 164.25
L 1236.2 164.25
M 1379 784.4
L 1293.25 870.15
M 1368 784.4
L 1293.25 859.2
M 1357.05 784.4
L 1293.25 848.2
M 1346.05 784.4
L 1293.25 837.2
M 1335.1 784.4
L 1293.25 826.25
M 1324.1 784.4
L 1293.25 815.25
M 1313.15 784.4
L 1293.25 804.3
M 1302.15 784.4
L 1293.25 793.3
M 1534.9 530.1
L 1293.25 771.75
M 1545.9 530.1
L 1293.25 782.75
M 1512.95 530.1
L 1293.25 749.8
M 1523.9 530.1
L 1293.25 760.75
M 1458.05 530.1
L 1293.25 694.9
M 1469.05 530.1
L 1293.25 705.9
M 1480 530.1
L 1293.25 716.85
M 1491 530.1
L 1293.25 727.85
M 1501.95 530.1
L 1293.25 738.8
M 1414.15 530.1
L 1293.25 651
M 1425.15 530.1
L 1293.25 662
M 1436.1 530.1
L 1293.25 672.95
M 1447.1 530.1
L 1293.25 683.95"/>

<path id="Layer4_0_3_STROKES" stroke="#CCCCCC" stroke-width="1" stroke-linejoin="round" stroke-linecap="round" fill="none" d="
M 875.6 528.9
L 860.3 544.2
M 886.55 528.9
L 871.25 544.2
M 831.65 528.9
L 816.35 544.2
M 842.65 528.9
L 827.35 544.2
M 864.6 528.9
L 849.3 544.2
M 853.6 528.9
L 838.3 544.2
M 952.4 528.9
L 937.1 544.2
M 963.4 528.9
L 948.1 544.2
M 919.5 528.9
L 904.2 544.2
M 908.5 528.9
L 893.2 544.2
M 930.45 528.9
L 915.15 544.2
M 941.45 528.9
L 926.15 544.2
M 897.55 528.9
L 882.25 544.2
M 710.95 528.9
L 695.65 544.2
M 721.9 528.9
L 706.6 544.2
M 667.05 528.9
L 651.75 544.2
M 678 528.9
L 662.7 544.2
M 699.95 528.9
L 684.65 544.2
M 689 528.9
L 673.7 544.2
M 787.75 528.9
L 772.45 544.2
M 798.75 528.9
L 783.45 544.2
M 809.7 528.9
L 794.4 544.2
M 754.85 528.9
L 739.55 544.2
M 765.8 528.9
L 750.5 544.2
M 776.8 528.9
L 761.5 544.2
M 743.85 528.9
L 728.55 544.2
M 732.9 528.9
L 717.6 544.2
M 820.7 528.9
L 805.4 544.2
M 1193.9 528.9
L 1178.6 544.2
M 1204.85 528.9
L 1189.55 544.2
M 1160.95 528.9
L 1145.65 544.2
M 1171.95 528.9
L 1156.65 544.2
M 1150 528.9
L 1134.7 544.2
M 1182.9 528.9
L 1167.6 544.2
M 1248.75 528.9
L 1233.45 544.2
M 1237.8 528.9
L 1222.5 544.2
M 1259.75 528.9
L 1244.45 544.2
M 1269.9 562.4
L 1254.6 577.7
M 1269.9 573.35
L 1254.6 588.65
M 1269.9 551.4
L 1254.6 566.7
M 1270.4 539.95
L 1254.6 555.75
M 1270.4 528.95
L 1254.6 544.75
M 1226.8 528.9
L 1211.5 544.2
M 1215.85 528.9
L 1200.55 544.2
M 1040.2 528.9
L 1024.9 544.2
M 1029.25 528.9
L 1013.95 544.2
M 1051.2 528.9
L 1035.9 544.2
M 996.3 528.9
L 981 544.2
M 1007.3 528.9
L 992 544.2
M 1018.25 528.9
L 1002.95 544.2
M 1117.05 528.9
L 1101.75 544.2
M 1128.05 528.9
L 1112.75 544.2
M 1073.15 528.9
L 1057.85 544.2
M 1084.15 528.9
L 1068.85 544.2
M 1095.1 528.9
L 1079.8 544.2
M 1106.1 528.9
L 1090.8 544.2
M 1062.15 528.9
L 1046.85 544.2
M 1269.9 606.3
L 1254.6 621.6
M 1269.9 617.25
L 1254.6 632.55
M 1269.9 661.15
L 1254.6 676.45
M 1269.9 628.25
L 1254.6 643.55
M 1269.9 650.2
L 1254.6 665.5
M 1269.9 639.2
L 1254.6 654.5
M 1269.9 595.3
L 1254.6 610.6
M 1139 528.9
L 1123.7 544.2
M 1269.9 584.35
L 1254.6 599.65
M 985.35 528.9
L 970.05 544.2
M 974.35 528.9
L 959.05 544.2
M 623.1 528.9
L 607.8 544.2
M 634.1 528.9
L 618.8 544.2
M 645.05 528.9
L 629.75 544.2
M 392.65 528.9
L 338.5 583.05
M 403.6 528.9
L 338.5 593.95
M 469.45 528.9
L 338.5 659.85
M 458.5 528.9
L 338.5 648.9
M 491.4 528.9
L 338.5 681.8
M 480.45 528.9
L 338.5 670.85
M 502.4 528.9
L 338.5 692.8
M 513.35 528.9
L 338.5 703.75
M 535.3 528.9
L 338.5 725.7
M 524.35 528.9
L 338.5 714.75
M 557.25 528.9
L 338.5 747.65
M 546.3 528.9
L 338.5 736.7
M 568.25 528.9
L 338.5 758.65
M 590.2 528.9
L 338.5 780.6
M 579.2 528.9
L 338.5 769.6
M 601.15 528.9
L 338.5 791.55
M 414.55 528.9
L 338.5 604.95
M 425.55 528.9
L 338.5 615.95
M 436.5 528.9
L 338.5 626.9
M 447.5 528.9
L 338.5 637.9
M 535.25 945.5
L 550.55 930.2
M 546.25 945.5
L 561.55 930.2
M 513.3 945.5
L 528.6 930.2
M 524.25 945.5
L 539.55 930.2
M 502.3 945.5
L 517.6 930.2
M 491.35 945.5
L 506.65 930.2
M 612.1 945.5
L 627.4 930.2
M 623.05 945.5
L 638.35 930.2
M 568.2 945.5
L 583.5 930.2
M 579.15 945.5
L 594.45 930.2
M 590.15 945.5
L 605.45 930.2
M 601.1 945.5
L 616.4 930.2
M 557.2 945.5
L 572.5 930.2
M 338.5 813.25
L 353.8 797.95
M 338.5 824.2
L 353.8 808.9
M 338.5 835.2
L 353.8 819.9
M 338.5 868.1
L 353.8 852.8
M 338.5 857.15
L 353.8 841.85
M 338.5 879.1
L 353.8 863.8
M 338.5 890.05
L 353.8 874.75
M 338.5 846.15
L 353.8 830.85
M 338.5 912
L 353.8 896.7
M 338.5 923
L 353.8 907.7
M 338 934.45
L 353.8 918.65
M 338 945.45
L 353.8 929.65
M 359.65 945.5
L 374.95 930.2
M 348.65 945.5
L 363.95 930.2
M 381.6 945.5
L 396.9 930.2
M 370.6 945.5
L 385.9 930.2
M 414.5 945.5
L 429.8 930.2
M 469.4 945.5
L 484.7 930.2
M 458.4 945.5
L 473.7 930.2
M 447.45 945.5
L 462.75 930.2
M 436.45 945.5
L 451.75 930.2
M 425.5 945.5
L 440.8 930.2
M 338.5 901.05
L 353.8 885.75
M 392.55 945.5
L 407.85 930.2
M 403.55 945.5
L 418.85 930.2
M 480.35 945.5
L 495.65 930.2
M 1215.75 945.5
L 1269.9 891.35
M 1193.85 945.5
L 1269.9 869.45
M 1204.8 945.5
L 1269.9 880.45
M 1182.85 945.5
L 1269.9 858.45
M 1171.9 945.5
L 1269.9 847.5
M 1160.9 945.5
L 1269.9 836.5
M 1138.95 945.5
L 1269.9 814.55
M 1149.9 945.5
L 1269.9 825.5
M 985.3 945.5
L 1000.6 930.2
M 974.3 945.5
L 989.6 930.2
M 1117 945.5
L 1269.9 792.6
M 1127.95 945.5
L 1269.9 803.55
M 864.55 945.5
L 879.85 930.2
M 853.55 945.5
L 868.85 930.2
M 875.5 945.5
L 890.8 930.2
M 820.65 945.5
L 835.95 930.2
M 831.6 945.5
L 846.9 930.2
M 842.6 945.5
L 857.9 930.2
M 941.35 945.5
L 956.65 930.2
M 952.35 945.5
L 967.65 930.2
M 897.45 945.5
L 912.75 930.2
M 908.45 945.5
L 923.75 930.2
M 930.4 945.5
L 945.7 930.2
M 919.4 945.5
L 934.7 930.2
M 886.5 945.5
L 901.8 930.2
M 688.9 945.5
L 704.2 930.2
M 699.9 945.5
L 715.2 930.2
M 710.85 945.5
L 726.15 930.2
M 656 945.5
L 671.3 930.2
M 666.95 945.5
L 682.25 930.2
M 677.95 945.5
L 693.25 930.2
M 776.75 945.5
L 792.05 930.2
M 787.7 945.5
L 803 930.2
M 732.8 945.5
L 748.1 930.2
M 743.8 945.5
L 759.1 930.2
M 765.75 945.5
L 781.05 930.2
M 754.8 945.5
L 770.1 930.2
M 721.85 945.5
L 737.15 930.2
M 809.65 945.5
L 824.95 930.2
M 798.7 945.5
L 814 930.2
M 963.35 945.5
L 978.65 930.2
M 656.05 528.9
L 640.75 544.2
M 612.15 528.9
L 338.5 802.55
M 1106 945.5
L 1269.9 781.6
M 1095.05 945.5
L 1269.9 770.65
M 1073.1 945.5
L 1269.9 748.7
M 1084.05 945.5
L 1269.9 759.65
M 1051.15 945.5
L 1269.9 726.75
M 1062.1 945.5
L 1269.9 737.7
M 1040.15 945.5
L 1269.9 715.75
M 1018.2 945.5
L 1269.9 693.8
M 1029.2 945.5
L 1269.9 704.8
M 1007.25 945.5
L 1269.9 682.85
M 996.25 945.5
L 1269.9 671.85
M 645 945.5
L 660.3 930.2
M 634.05 945.5
L 649.35 930.2"/>

<path id="Layer4_0_4_STROKES" stroke="#CCCCCC" stroke-width="1" stroke-linejoin="miter" stroke-linecap="square" stroke-miterlimit="3" fill="none" d="
M 253.45 505.8
L 75.35 327.55
Q 74.4 326.6 73.45 325.7 65.25 317.45 57 309.2
M 176.6 505.8
L 102.65 431.8
Q 102.1 431.25 101.6 430.75
L 75.35 404.45
Q 74.4 403.5 73.45 402.6 65.25 394.35 57 386.1
M 154.7 505.8
L 57 408.05
M 143.7 505.8
L 57 419.1
M 132.75 505.8
L 57 430.05
M 121.75 505.8
L 57 441
M 165.7 505.8
L 57 397.05
M 187.65 505.8
L 57 375.1
M 198.55 505.8
L 57 364.15
M 220.55 505.8
L 57 342.2
M 209.6 505.8
L 57 353.15
M 242.55 505.8
L 57 320.15
M 231.55 505.8
L 57 331.15
M 264.5 505.8
L 57 298.2"/>
</defs>

<g transform="matrix( 1, 0, 0, 1, 0,0) ">
<use xlink:href="#Layer5_0_FILL"/>
</g>

<g transform="matrix( 1, 0, 0, 1, 0,0) ">
<use xlink:href="#Layer4_0_FILL"/>

<use xlink:href="#Layer4_0_1_STROKES"/>

<use xlink:href="#Layer4_0_2_STROKES"/>

<use xlink:href="#Layer4_0_3_STROKES"/>

<use xlink:href="#Layer4_0_4_STROKES"/>
</g>

<g transform="matrix( 1, 0, 0, 1, 0,0) ">
<use xlink:href="#Layer4_1_FILL"/>
</g>
</svg>
