
<svg xmlns="http://www.w3.org/2000/svg" version="1.1" xmlns:xlink="http://www.w3.org/1999/xlink" preserveAspectRatio="none" x="0px" y="0px" width="1920px" height="1080px" viewBox="0 0 1920 1080">
<defs>
<g id="Layer1_0_FILL">
<path fill="#FF00FE" stroke="none" d="
M 340.7 276.2
Q 340.2 276.9 339.75 277.65 339.1 278.75 338.65 280.05 338.35 280.95 338.15 281.9 337.6 282.1 337.05 282.3 335.7 282.65 334.4 283.1 334.2 283.2 334.05 283.4 333.85 283.7 333.8 284.2 333.6 285.85 333.35 287.6 333.15 289.3 332.95 290.95 332.75 292.55 332.55 294.1 332.35 295.65 332.1 297.25 331.9 298.85 331.7 300.5 331.5 302.2 331.25 303.85 331.25 304.05 331.25 304.15 331.65 304.3 332.1 304.35 333.7 304.6 335.3 304.9 336.85 305.15 338.45 305.45 340 305.7 341.5 306 343.05 306.25 344.65 306.55 346.25 306.8 347.85 307.1 349.4 307.35 351 307.6 351.55 307.7 352 307.75 352.45 307.8 352.8 307.7 353.75 307.45 354.7 307.2 355.65 307 356.6 306.75 357.55 306.55 358.45 306.3 359.4 306.05 360.35 305.8 360.85 305.7 361.25 305.5 361.3 305.15 361.2 304.8 360.95 303.15 360.7 301.55 360.45 299.9 360.2 298.25 360 296.65 359.75 295.05 359.5 293.4 359.25 291.75 359 290.05 358.8 288.4 358.5 286.75 358.3 285.05 358.05 283.35 357.75 281.65 357.7 281.25 357.7 280.85 357.65 280.3 357.35 280.05
L 357.3 280.05
Q 356 280 354.7 279.95 354.55 279.8 354.35 279.6 353.4 278.65 352.35 277.7 351.9 277.6 351.55 277.75 351.15 277.9 350.8 278
L 350.75 278
Q 350.5 277.35 350.2 276.8 349.9 276.2 349.5 275.75 348.65 274.75 346.95 274.75 346.35 274.1 345.4 273.8 344.8 273.6 344.15 273.75 342.75 274.1 341.8 275 341.2 275.55 340.7 276.2
M 343 278.1
Q 342.9 278.2 342.85 278.25 342.4 279.4 342.05 280.6 341.45 280.8 340.9 281 340.8 281 340.7 281
L 340.65 281
Q 340.25 281.2 339.8 281.35 339.55 281.4 339.5 281.3 339.8 280.45 340.1 279.6
L 340.1 279.55
Q 340.15 279.5 340.2 279.5 340.25 279.25 340.35 279.15 340.4 279.05 340.4 278.95 341 277.8 341.8 276.85 342.6 275.8 343.75 275.2 344.1 275.05 344.5 275.05 345.05 275 345.4 275.1 344.7 275.6 344.15 276.2 343.5 277 343 277.9 343 278 343 278.1
M 343.75 279.65
Q 343.8 279.55 343.9 279.45 343.9 279.3 343.95 279.2
L 343.95 279.15
Q 344 279.1 344.05 279.05 344.1 278.95 344.1 278.9
L 344.1 278.85
Q 344.15 278.8 344.2 278.7
L 344.2 278.65
Q 344.25 278.6 344.25 278.55
L 344.25 278.5
Q 344.65 277.85 345.1 277.2 345.6 276.6 346.3 276.2 346.5 276.4 346.5 276.85 346.7 277.3 346.75 277.9 346.8 278.2 346.8 278.5 346.8 278.8 346.8 279.15 345.55 279.5 344.35 279.85 344.15 279.9 344 280.05 343.8 280.15 343.65 280.05 343.6 280.05 343.6 280 343.75 279.9 343.75 279.65
M 341.5 289.2
Q 341.25 289.8 341.5 290.4 342.35 291.45 343.55 292.15 344.7 292.8 345.55 293.85 345.6 293.95 345.65 294.05 345.8 294.2 345.9 294.35 345.9 294.4 345.9 294.5 346 294.55 346 294.65 346.1 294.9 346.2 295.1 346.3 295.55 346.35 296.05 346.4 297.4 346.2 298.4 346.1 298.6 346 298.9
L 346 298.95
Q 345.95 298.95 345.95 299.05
L 345.9 299.05
Q 345.95 299.15 345.9 299.2 345.35 300.3 344.45 300.95 344.1 301.15 343.8 301.35 342.95 301.7 341.85 301.75 340.65 301.8 339.75 301.55 339.65 301.55 339.5 301.55 338.4 301.15 337.45 300.5 337.25 300.4 337.05 300.25 336.95 300.2 337 300.05 337.25 298.7 337.6 297.4
L 337.65 297.4
Q 338.25 297.8 338.95 298.15 339.4 298.3 339.75 298.45 340.2 298.55 340.65 298.55 341.1 298.6 341.5 298.45 342.25 298.05 342.2 296.85 342.2 296.65 342.1 296.45 341.6 295.5 340.7 294.9 339.65 294.3 338.9 293.35 338.65 293.05 338.45 292.7 338.35 292.45 338.25 292.2 338 291.25 338.15 290 338.2 288.85 338.7 288.05 338.7 287.9 338.7 287.85
L 338.7 287.8
Q 339.15 287.05 339.75 286.5 340.55 285.65 341.65 285.15 342.1 285 342.5 284.85
L 342.5 284.8
Q 343.5 284.6 344.55 284.55 345.95 284.45 346.95 284.75 346.9 285.35 346.7 285.95
L 346.7 286
Q 346.55 286.65 346.4 287.25 346.2 287.9 346 288.5 345.9 288.45 345.8 288.4
L 345.8 288.35
Q 344.9 288.1 343.8 288.1 342.65 288.1 342 288.55 341.7 288.85 341.5 289.2
M 347.75 276.05
Q 348.8 276.55 349.25 277.6 349.35 277.9 349.5 278.25 348.9 278.5 348.25 278.65
L 348.2 278.65
Q 348.1 277.3 347.75 276.1
L 347.75 276.05 Z"/>
</g>

<g id="Layer1_1_FILL">
<path fill="#FF00FE" stroke="none" d="
M 353.95 319.85
Q 352 319.95 350 319.95 348 319.95 346 319.95 344 319.95 342 319.95 340 319.95 338 319.85 336.1 319.8 334.15 319.75 333.5 319.75 332.9 319.65 332.3 319.6 332.1 319.9 332.15 320.75 332.2 321.55
L 332.2 321.6
Q 333.2 321.85 334.35 322 335.5 322.15 336.2 322.8 336.35 323 336.4 323.25 336.7 324.15 336.7 325.3 336.7 327.25 336.75 329.2 336.75 331.1 336.75 333.1 336.75 335.05 336.75 337 336.75 339 336.75 340.95 336.75 342.85 336.7 344.75 336.7 346.55 336.55 348.2 336.5 348.8 336.15 349.05 335.4 349.6 334.25 349.75 333.2 349.9 332.2 350.15
L 332.2 350.2
Q 332.1 350.6 332.1 351.15 332.1 351.7 332.2 352.05
L 332.25 352.05
Q 334.05 352.05 335.85 352.05
L 335.9 352.05
Q 336.05 352.1 336.05 351.95 336.15 351.9 336.25 351.9
L 336.3 351.95
Q 336.4 351.95 336.55 351.9 336.9 351.85 337.25 351.9
L 337.3 351.9
Q 337.4 351.9 337.5 351.85 339.4 351.8 341.35 351.85 343.2 351.85 345.15 351.85 347.05 351.85 348.95 351.85 350.6 351.85 352.25 351.85 352.45 351.85 352.65 351.85
L 352.7 351.85
Q 353.2 351.85 353.75 351.85 353.85 351.95 354.05 351.9 354.55 351.85 355 351.9 355.1 351.95 355.25 351.95
L 355.3 351.95
Q 355.4 351.95 355.5 351.95
L 355.55 351.95
Q 355.5 352.1 355.7 352.05 357.45 352.05 359.2 352.05
L 359.3 352.05
Q 359.5 350.7 359.65 349.35 359.85 347.6 360.1 345.9 360.2 344.7 360.4 343.55 360.5 343 360.45 342.45
L 360.4 342.45
Q 359.65 342.4 358.95 342.45 358.9 342.5 358.85 342.5 358.25 343.75 357.7 345.05 357.2 346.25 356.6 347.3 356 348.3 355 348.95 354 349.55 352.45 349.6 350.5 349.65 348.6 349.65 347.25 349.65 345.95 349.7 344.2 349.75 343.05 349.25 342.15 348.9 341.85 347.85 341.65 346.7 341.7 345.2 341.7 343.3 341.7 341.35 341.7 339.45 341.7 337.5 341.7 337.1 341.8 336.9
L 341.8 336.85
Q 342.95 336.85 344.2 336.85 346.15 336.85 348 336.95 348.6 337 349.1 337.15 349.25 337.2 349.4 337.3 350.4 337.9 350.65 339.3 350.8 340.4 351.15 341.4 351.6 341.45 352.05 341.5 352.6 341.5 353 341.4
L 353 341.35
Q 353.05 340 353 338.6 352.9 336.65 352.95 334.75 353.05 332.9 353.15 331.05 353.2 330.35 353.1 329.8
L 353.1 329.75
Q 352.2 329.7 351.3 329.75 351.1 330.15 351 330.65 350.75 332.1 350.3 333.4 350.1 333.9 349.65 334.05 348.5 334.6 346.9 334.6 345 334.65 343.05 334.7 342.3 334.7 341.8 334.6 341.7 333.75 341.7 332.85 341.7 330.9 341.7 328.9 341.7 326.9 341.7 324.95 341.7 324.3 341.7 323.65 341.6 322.7 341.95 322.2 342.05 322.15 342.15 322.1 343.6 322.1 345.15 322.1 347.15 322.1 349.15 322.1 350.45 322.1 351.75 322.05 353 322 353.75 322.4 355 323.1 355.5 324.6 356 326.1 356.35 327.7 356.45 328.25 356.7 328.7 357.1 328.7 357.6 328.7 358.05 328.7 358.35 328.6 358.45 328.45 358.5 328.15 358.55 326.3 358.65 324.35 358.75 322.55 358.9 320.7 358.95 320.05 358.95 319.55
L 358.9 319.55
Q 358.25 319.5 357.6 319.55 355.8 319.75 353.95 319.85 Z"/>
</g>

<g id="Layer1_2_FILL">
<path fill="#FF00FE" stroke="none" d="
M 686.7 284.15
Q 685.85 283.95 684.55 284.05 682.15 284.2 680.8 285.5 680.75 285.7 680.9 285.7
L 680.95 285.7
Q 680.95 285.75 681.05 285.75 681.1 285.75 681.15 285.75 681.8 285.75 682.4 285.65 684 285.4 685.4 285.75
L 685.45 285.75
Q 685.55 285.85 685.7 285.95 685.95 286.4 685.8 287 685.55 288.6 685 289.9 684.9 290.15 684.8 290.4 684.55 290.85 684.75 291.25 684.85 291.3 684.9 291.25 685.7 290.65 686.25 289.8 687.25 288.2 687.65 285.65
L 687.65 285.5
Q 687.7 285.3 687.65 285.15
L 687.65 285.05
Q 687.6 284.3 686.7 284.15
M 651.55 284.7
L 651.55 284.75
Q 651.55 284.8 651.55 284.85
L 651.55 284.9
Q 651.5 284.95 651.55 284.95 651.85 285.35 652.25 285.7 653.6 286.95 655.15 288 656.7 289.05 658.45 289.95 660.2 290.8 662.2 291.4 664.15 292.05 666.5 292.35 668.9 292.65 671.4 292.45 673.85 292.25 675.9 291.7 678 291.15 679.8 290.35 681.6 289.55 683.2 288.5 684 288 684.55 287.25 684.55 287.15 684.55 287 684.4 286.7 684.1 286.6 683.4 286.75 682.8 287 680.95 287.8 678.95 288.45 676.95 289 674.65 289.35 672.4 289.7 669.8 289.7 667.15 289.7 664.9 289.35 662.65 288.95 660.65 288.35 658.6 287.8 656.75 287 654.95 286.2 653.25 285.3 652.85 285.05 652.45 284.75 652.05 284.4 651.55 284.6 651.55 284.65 651.55 284.7 Z"/>
</g>

<g id="Layer1_3_FILL">
<path fill="#FF00FE" stroke="none" d="
M 663 323.7
Q 660.9 323.9 659.4 324.75 657.95 325.6 656.85 326.9 655.75 328.2 655.1 329.9 654.45 331.55 654.3 333.75 654.3 334 654.3 334.25 654.25 336.6 654.65 338.6 655.05 340.55 655.7 342.25 656.3 344 657.15 345.5 658 347 658.95 348.35 659.95 349.75 661.2 350.85 662 351.5 663.15 351.85 664.15 352.1 665.25 351.8 666.35 351.5 667.35 351 668.2 350.65 669.2 350.55 670.85 350.35 672.15 350.75 673 351 673.85 351.4 674.8 351.9 676.25 351.85 677.7 351.85 678.55 351.3 680 350.3 680.95 348.95 681.95 347.55 682.8 346.1 683.7 344.6 684.35 342.9 684.5 342.5 684.65 342 684.25 341.75 683.75 341.45 682.25 340.6 681.25 339.3 680.2 337.95 679.8 336 679.6 335 679.7 333.85 679.85 331.7 680.75 330.25 681.7 328.75 683.05 327.8 683.4 327.55 683.65 327.2 682.75 325.85 681.35 324.95 679.95 324 677.95 323.65 677.25 323.5 676.4 323.5 674.3 323.6 672.75 324.25 671.55 324.8 670.15 325.15 669.6 325.35 669.1 325.2 668.6 325.05 668.2 324.9 666.75 324.3 665.2 323.85 664.2 323.55 663 323.7
M 673.85 321.6
Q 675.15 320.55 675.95 319.05 676.8 317.5 676.95 315.3 677 314.85 676.85 314.55 676.75 314.4 676.55 314.5 676.1 314.55 675.7 314.7 673.85 315.15 672.55 316.2 671.2 317.2 670.35 318.7 669.5 320.15 669.3 322.35
L 669.3 322.4
Q 669.3 322.8 669.4 323.1 670.05 323.25 670.6 323.1 672.55 322.7 673.85 321.6 Z"/>
</g>

<g id="Layer1_4_FILL">
<path fill="#FF00FE" stroke="none" d="
M 676.55 369
Q 673.95 368.95 671.35 368.95 668.75 368.95 666.25 369 663.65 369.05 661.25 369.25 660.1 369.4 658.9 369.55 656.7 369.9 655.85 371.65 655.25 372.75 655.1 374.25 654.85 376.55 654.75 379.1 654.7 380.9 654.8 382.6 654.9 385.1 655.25 387.4 655.6 389.65 657.25 390.65 657.65 390.9 658.1 391.05 659.8 391.45 661.7 391.55 664.2 391.7 666.7 391.75 669.25 391.85 671.9 391.85 674.5 391.85 677 391.75 679.55 391.65 681.95 391.45 683.15 391.35 684.15 391.05 685.15 390.7 685.8 390.05 686.45 389.4 686.75 388.35 687.05 387.35 687.2 386.15 687.5 383.85 687.5 381.2 687.5 379.25 687.4 377.35 687.35 375.5 687.1 373.8 686.9 372.2 686.1 371.15 685.3 370 683.8 369.6 682.7 369.35 681.45 369.25 679.05 369.1 676.55 369
M 667.8 379.4
Q 667.8 377.5 667.8 375.6 668.2 375.45 668.55 375.75 668.75 375.9 669.05 376.1 670.7 377 672.35 377.95 674.05 378.9 675.7 379.85 676.1 380.05 676.4 380.35
L 676.4 380.4
Q 676.05 380.7 675.65 380.9 673.95 381.85 672.3 382.8 670.65 383.8 669 384.75 668.5 385 668 385.2 667.9 385.25 667.9 385.2 667.8 385 667.8 384.6 667.8 382 667.8 379.4 Z"/>
</g>

<g id="Layer1_5_FILL">
<path fill="#FF00FE" stroke="none" d="
M 677 409.75
Q 674.6 409.75 672.3 409.75 669.9 409.75 667.55 409.75 665.2 409.75 662.85 409.75 660.5 409.7 658.2 409.75 658.05 409.8 658 409.95 657.9 410.3 657.75 410.7 657.6 411.15 657.4 411.65 656.8 413.35 656.1 415.05 656.1 416.2 656.1 417.35 656.1 419.7 656.1 422.05 656.1 424.4 656.1 426.75 656.1 429.1 656.1 431.45 656.1 433.8 656.1 436.15 656.1 436.5 656.15 436.7
L 656.2 436.7
Q 656.9 436.8 657.7 436.8 660.05 436.8 662.4 436.75 663 436.75 663.55 436.85 663.55 438.3 663.55 439.8 663.5 440.35 663.6 440.75 663.95 440.9 664.55 440.85 666.15 440.8 667.65 440.8 668.5 439.95 669.35 439.1 670.5 437.9 671.75 436.8 673.6 436.8 675.5 436.8 676.75 436.8 677.8 436.75 678.3 436.25 678.8 435.75 680 434.55 681.15 433.35 682.3 432.2 683.5 431.05 684.7 429.85 685.85 428.65 685.85 426.85 685.85 425 685.85 422.65 685.85 420.3 685.85 417.95 685.85 415.6 685.85 413.25 685.85 410.9 685.9 410.25 685.8 409.75
L 685.75 409.75
Q 683.8 409.75 681.7 409.75 679.3 409.75 677 409.75
M 671.05 412.5
Q 673.4 412.5 675.75 412.5 678.1 412.5 680.45 412.45 681.8 412.45 683.1 412.5
L 683.15 412.55
Q 683.15 413 683.15 413.65 683.15 415.95 683.15 418.35 683.15 420.65 683.15 423.05 683.15 425.2 683.15 427.25 682 428.45 680.85 429.65 679.65 430.85 678.45 432
L 678.4 432
Q 676.05 432 673.7 432 672.4 432 671.05 432 669.8 433.15 668.65 434.35 667.9 435.15 667.05 435.9 667.05 435.95 667 435.95 666.95 435.55 666.95 435 667 433.5 666.95 432.15 666.95 432.1 666.9 432.1 666.6 431.95 666.1 432 663.75 432 661.4 432.05 661.1 432.05 660.95 432 660.8 431.5 660.85 430.85 660.85 428.5 660.85 426.15 660.85 423.8 660.85 421.45 660.85 419.1 660.85 416.75 660.85 414.65 660.85 412.55 661.15 412.4 661.65 412.4 664 412.5 666.35 412.5 668.7 412.5 671.05 412.5
M 675.75 418
Q 675.8 419 675.8 420.05 675.8 422.4 675.75 424.75 675.75 425.4 675.85 425.85 676.4 425.9 677.05 425.9 677.8 425.95 678.35 425.85 678.4 424.3 678.4 422.6 678.4 420.25 678.35 417.95 677.95 417.85 677.4 417.9 676.85 417.9 676.35 417.85 675.95 417.85 675.75 418
M 668.35 417.95
Q 668.35 419.3 668.35 420.6 668.35 422.95 668.3 425.3 668.3 425.65 668.4 425.85
L 668.45 425.85
Q 669.15 425.9 670 425.95 670.55 425.95 670.9 425.85 670.95 425.9 670.95 425.8 670.9 424.85 670.9 423.75 670.9 421.4 670.95 419.05 670.95 418.4 670.9 417.95 670.15 417.9 669.25 417.85 668.7 417.85 668.35 417.95 Z"/>
</g>

<g id="Layer1_6_FILL">
<path fill="#FF00FE" stroke="none" d="
M 677.75 454.85
Q 677.65 454.6 677.65 454.35 677.6 453.8 677.45 453.35 677.35 453.3 677.1 453.3 674.95 453.3 672.75 453.25 672.15 453.25 671.65 453.35 671.55 454.25 671.55 455.25 671.6 457.4 671.6 459.55 671.6 461.7 671.6 463.8 671.6 465.95 671.6 468.05 671.6 469.1 671.6 470.2 671.6 471.2 671.55 472.2 671.55 474.3 671.6 476.35 671.6 477.55 671.25 478.35 670.55 479.75 669.25 480.5 668.3 481.05 666.85 481 665.6 480.95 664.75 480.5 663.45 479.75 662.85 478.25 662.7 477.85 662.65 477.35 662.45 475.8 663 474.75 663.7 473.4 665.1 472.7 665.85 472.3 667.1 472.35 667.7 472.35 668.2 472.3 668.25 472 668.25 471.55 668.25 470.85 668.25 470.2 668.25 468.75 668.25 467.35 668.25 466.7 668.2 466.2 668 466.15 667.7 466.15 665.55 466.1 663.9 466.55 662.3 467.05 661.05 467.95 659.8 468.75 658.85 469.9 658.75 470.05 658.6 470.2 657.8 471.25 657.25 472.5 656.65 473.95 656.45 475.85 656.45 476 656.45 476.2 656.35 478.3 656.9 479.85 657.4 481.4 658.25 482.6 659.1 483.8 660.2 484.75 661.3 485.65 662.7 486.3 664 486.9 665.65 487.1 667.45 487.3 669.05 487 670.05 486.8 670.85 486.45 672.35 485.9 673.45 485 674.6 484.1 675.5 482.9 676.35 481.7 676.9 480.2 677.2 479.35 677.35 478.35 677.55 476.65 677.55 474.65 677.5 472.55 677.5 470.5 677.5 470.35 677.5 470.2 677.5 468.25 677.45 466.3 677.45 465.7 677.55 465.2 678.35 465.9 679.25 466.45 680.35 467.15 681.7 467.5 683.15 467.85 684.95 467.85 685.25 467.85 685.5 467.8 685.55 467.75 685.55 467.65 685.55 465.6 685.55 463.45 685.55 462.2 685.55 461.15 684.95 461.1 684.35 461 682.55 460.7 681.3 459.85 680 459.05 679.05 457.8 678.15 456.6 677.75 454.85 Z"/>
</g>

<g id="Layer1_7_FILL">
<path fill="#FF00FE" stroke="none" d="
M 1054.2 302.85
L 1054.2 302.9
Q 1054.45 303 1054.7 302.85 1054.95 302.6 1054.9 302.05 1054.9 301.95 1054.8 301.9 1054.75 301.9 1054.65 301.9 1054.2 302.05 1054.1 302.5 1054.1 302.6 1054.1 302.75
L 1054.1 302.8
Q 1054.15 302.8 1054.2 302.85
M 1064.6 302.1
L 1064.6 302.15
Q 1064.65 303.45 1065.45 303.95
L 1065.5 303.95
Q 1065.65 303.95 1065.75 303.95 1066.05 303.75 1066.2 303.4 1066.2 303.2 1066.2 303.05 1065.9 302.4 1065.4 302.1 1064.95 301.85 1064.6 302.1
M 1038.1 299.65
L 1038.05 299.6
Q 1037.65 299.55 1037.55 299.8 1037.55 300 1037.55 300.2 1037.75 300.4 1038 300.45
L 1038.05 300.45
Q 1038.3 300.35 1038.4 300.15
L 1038.4 300.1
Q 1038.35 299.75 1038.1 299.65
M 1043.25 296.7
Q 1043.5 296.25 1043.2 295.9 1043.1 295.85 1042.95 295.9 1042.2 296.15 1041.85 296.85 1041.85 296.95 1041.85 297.05 1041.95 297.35 1042.2 297.45 1042.9 297.25 1043.25 296.7
M 1041.85 282.85
Q 1042.3 282.75 1042.3 282.4
L 1042.3 282.35
Q 1042.2 282.15 1042.05 282.1
L 1042 282.1
Q 1041.75 282.25 1041.6 282.55 1041.6 282.85 1041.85 282.85
M 1039.65 283.25
Q 1039.6 283.9 1039.95 284.2 1040.3 284.5 1040.85 284.3 1041 284.15 1041.1 284 1041.05 283.05 1040.35 282.8
L 1040.3 282.8
Q 1040.15 282.8 1040 282.8
L 1040 282.85
Q 1039.9 282.85 1039.8 282.95
L 1039.8 283
Q 1039.7 283.1 1039.65 283.25
M 1067.7 296.5
Q 1067.7 296.65 1067.7 296.8
L 1067.75 296.8
Q 1067.9 297.15 1068.2 297.3
L 1068.25 297.3
Q 1068.4 297.3 1068.6 297.3
L 1068.6 297.25
Q 1068.85 297.2 1068.9 296.95 1068.8 296.15 1068 296.25
L 1067.95 296.25
Q 1067.8 296.4 1067.7 296.5
M 1070.2 287.4
Q 1070.35 287.3 1070.45 287.15
L 1070.45 287.1
Q 1070.45 286.85 1070.4 286.65 1070.1 286.45 1069.6 286.55 1069.25 286.65 1068.8 286.75 1068.55 286.85 1068.25 286.85 1067.7 286.9 1067.3 287.1
L 1067.3 287.15
Q 1067.3 287.4 1067.45 287.5
L 1067.5 287.5
Q 1067.5 287.55 1067.55 287.55 1069 287.65 1070.2 287.4
M 1058.6 274.65
L 1058.6 274.6
Q 1058.5 274.25 1058.15 274.15 1057.95 274.15 1057.85 274.15
L 1057.8 274.15
Q 1057.6 274.25 1057.5 274.35
L 1057.5 274.4
Q 1057.4 274.6 1057.4 274.8 1057.4 275.1 1057.55 275.25 1058.4 275.35 1058.6 274.65
M 1067.85 282.4
Q 1067.65 282.5 1067.55 282.65
L 1067.55 282.7
Q 1067.55 283 1067.85 283.05
L 1067.9 283.05
Q 1068.15 283 1068.25 282.7 1068.2 282.7 1068.2 282.65 1068.15 282.4 1067.9 282.4
L 1067.85 282.4
M 1067.05 282.75
L 1067.05 282.7
Q 1067.05 282.4 1066.75 282.3
L 1066.7 282.3
Q 1066.55 282.25 1066.4 282.3 1066.3 282.45 1066.2 282.55 1066.2 282.75 1066.3 282.9 1066.5 283.1 1066.9 283
L 1066.9 282.95
Q 1067 282.9 1067.05 282.75
M 1064.85 279.05
Q 1064.3 279.35 1063.9 279.85 1063.5 280.4 1062.9 280.7 1062.8 280.65 1062.75 280.5 1062.6 279.95 1062.1 279.7 1061.95 279.7 1061.85 279.7 1061.55 279.85 1061.2 279.9 1060.1 279.15 1059.45 278 1059.5 277.95 1059.5 277.9 1059.75 277.45 1060 277.05 1060.3 276.55 1060.15 275.85 1060 275.7 1059.85 275.6 1058.4 275.65 1057.6 276.3 1057.15 276.65 1056.35 276.75 1055.55 276.2 1055.6 274.85 1055.65 273.5 1055.6 272.35
L 1055.55 272.35
Q 1055.3 271.95 1054.8 272.1 1054.7 272.2 1054.6 272.3 1054.55 272.4 1054.55 272.55 1054.45 274.05 1054.55 275.55 1054.65 276.2 1054.75 276.75 1054.95 278.05 1053.75 278.05
L 1053.75 278.1
Q 1053.55 278.3 1053.3 278.45 1053.15 278.4 1053.05 278.3 1052.75 278 1052.5 277.7 1052.15 277.3 1051.8 276.85 1050.7 275.3 1050.25 273.15 1050.1 272.55 1049.65 272.3
L 1049.6 272.3
Q 1049.3 272.4 1049.2 272.7 1049.2 272.85 1049.2 272.95 1049.65 274.05 1050.1 275.2 1050.45 276.1 1050.9 277.05 1051.1 277.55 1051.05 278.1
L 1051 278.1
Q 1050.9 278.25 1050.7 278.25 1050.5 278.2 1050.4 278.05 1050.35 277.9 1050.25 277.65 1049.95 276.5 1049.45 275.5 1049.35 275.3 1049.25 275.15 1049 274.7 1048.4 274.65 1048.1 274.85 1047.95 275.1 1047.85 275.6 1048.05 275.95 1048.85 277.6 1049.65 279.25 1049.65 279.45 1049.6 279.6 1049.55 279.65 1049.45 279.65 1048.9 279.75 1048.6 280.05
L 1048.6 280.1
Q 1048.6 280.65 1048.55 281.15
L 1048.5 281.15
Q 1048.3 281.35 1047.85 281.2 1047.7 281.1 1047.6 280.85 1047.35 280.15 1046.7 279.8 1046.5 279.7 1046.3 279.6 1045.95 279.45 1045.7 279.15 1044.6 277.65 1042.9 276.7 1042.55 276.55 1042.2 276.45 1041 276.2 1040.5 277.1 1040.3 277.5 1040.55 277.9 1040.8 278.35 1041.2 278.6 1041.9 279.05 1042.6 279.45 1043.45 279.95 1044.15 280.5 1044.9 281.15 1045.4 281.95 1045.4 282.3 1045.35 282.6 1045.25 282.75 1045.15 282.85 1044.9 282.9 1044.55 282.9 1043.75 283 1043.2 283.35 1043.15 283.4 1043.15 283.45 1043.15 284.45 1043.6 285.15 1043.8 285.45 1043.8 285.95 1043.75 286.65 1043.4 287.1 1043.75 287.65 1043.65 288.55 1043.45 288.9 1042.95 289 1042.65 289.1 1042.3 289.15 1041.05 289.45 1039.55 289.4 1039.4 289.4 1039.25 289.35 1038.6 289.05 1038 289.3 1038 289.35 1037.95 289.35 1037.7 289.55 1037.65 289.95 1037.65 290.25 1037.75 290.4 1037.9 290.6 1038.25 290.65 1038.75 290.7 1039.15 290.6 1040.6 290.4 1041.85 290.7 1042.05 290.7 1042.1 290.75 1043 290.9 1043.4 291.5 1043.4 292.05 1042.9 292.25 1042.1 292.5 1041.1 292.55 1039.8 292.55 1039.25 293.35 1039.1 293.55 1039.1 293.9 1039 295 1040.05 295.15 1041.15 295.25 1041.75 294.7 1042.1 294.35 1042.65 294.15 1043.4 293.9 1043.8 294.3
L 1043.8 294.35
Q 1044 294.7 1043.95 295.25
L 1044 295.25
Q 1044 295.45 1044.15 295.55
L 1044.2 295.55
Q 1044.35 295.6 1044.55 295.7 1044.5 295.9 1044.55 296.25 1044.9 296.4 1045.05 296.7 1045 296.95 1044.8 297.1 1044.35 297.5 1043.75 297.85 1043 298.3 1042.35 298.85 1040.95 300.1 1039.8 301.5 1039.65 301.7 1039.45 301.9 1038.7 302.4 1038.75 303.8 1038.95 304.3 1039.45 304.45 1039.6 304.5 1039.85 304.45 1040.9 304.3 1041.2 303.25 1041.55 302 1042.3 301.1 1042.55 300.85 1042.85 300.7 1044.15 299.9 1045.25 299 1045.45 298.9 1045.6 298.7 1045.95 298.35 1046.35 298.1 1046.65 298.5 1047 298.8
L 1047.05 298.8
Q 1047.2 298.8 1047.35 298.8
L 1047.4 298.75
Q 1047.5 298.7 1047.6 298.6 1047.85 298.35 1048.35 298.3 1048.8 298.5 1048.7 299.2 1048.55 300.1 1048.55 301.1
L 1048.6 301.1
Q 1048.6 301.2 1048.65 301.25
L 1048.65 301.3
Q 1048.85 301.45 1049 301.5
L 1049.05 301.5
Q 1049.2 301.5 1049.4 301.5 1050 301.1 1049.9 299.95 1049.9 299.55 1050.05 299.35 1051 299.6 1051.4 300.45 1051.55 300.9 1051.45 301.45 1051.35 302.05 1051.25 302.8 1051.05 303.95 1050.8 305.05 1050.6 306.25 1051.25 306.8 1051.6 306.85 1051.8 306.8 1052.3 306.25 1052.4 305.25 1052.65 303.5 1052.85 301.8 1053.15 300.1 1054.55 299.55 1054.8 299.45 1055.15 299.5 1056.25 299.7 1056.7 300.55 1056.95 300.95 1056.9 301.6 1056.9 302.6 1056.95 303.5
L 1057 303.5
Q 1057.1 303.6 1057.2 303.75
L 1057.25 303.75
Q 1057.65 303.85 1058.05 303.75
L 1058.05 303.7
Q 1058.25 303.6 1058.3 303.45 1058.45 302.75 1058.25 302.15 1058.1 301.5 1057.95 300.85 1057.7 299.9 1058.3 299.45 1058.5 299.3 1058.8 299.4 1059.65 299.55 1060.15 300.1 1060.2 300.15 1060.2 300.2 1060.45 300.6 1060.7 301.05 1061.5 302.5 1061.9 304.4 1062.1 305.5 1062.95 306 1063.65 306 1063.8 305.45 1064.05 304.65 1063.7 304.05 1063.05 302.95 1062.45 302 1061.9 301.2 1061.8 300.05 1061.7 299.35 1061.8 298.85 1061.8 298.8 1061.85 298.8 1062 298.65 1062.25 298.7 1062.35 298.65 1062.45 298.65
L 1062.45 298.6
Q 1062.7 298.2 1062.6 297.4 1062.7 297.3 1062.85 297.2 1063.25 297.25 1063.4 297.5 1063.5 297.75 1063.65 298 1064.1 298.95 1064.85 299.55 1065.05 299.55 1065.2 299.5
L 1065.2 299.45
Q 1065.4 299.4 1065.45 299.2 1065.3 298.3 1064.9 297.7 1064.85 297.6 1064.75 297.5 1064.45 297.15 1064.5 296.65 1064.65 296.6 1064.75 296.7 1065.2 297.2 1065.9 297.4
L 1065.95 297.4
Q 1066.2 297.3 1066.3 297.05 1065.95 296.35 1065.35 296.05 1065.35 296 1065.3 296 1065.25 295.9 1065.2 295.7 1065.3 295.55 1065.45 295.45 1065.7 295.5 1065.9 295.6 1066.45 295.85 1067.25 295.9 1067.5 295.8 1067.6 295.55
L 1067.6 295.5
Q 1067.6 295.3 1067.55 295.1 1067.35 294.9 1067.15 294.7 1067 294.5 1066.7 294.4 1066.1 294.2 1065.9 293.65
L 1065.9 293.6
Q 1066.25 292.95 1066.65 292.4 1066.7 292.15 1066.6 291.95 1066.3 291.55 1066.25 290.9 1066.35 290.65 1066.5 290.5 1066.65 290.35 1066.85 290.2 1067.55 289.8 1067.85 289.05 1067.75 288.65 1067.5 288.4 1067.1 288 1066.85 287.45 1066.6 286.85 1066.85 286.2
L 1066.8 286.2
Q 1066.8 285.95 1066.65 285.85 1066 285.7 1065.75 285.15 1065.75 285.05 1065.8 284.95 1065.85 284.85 1065.9 284.8 1066.3 284.45 1066.5 283.85 1066.3 283.35 1065.65 283.25 1064.55 283.2 1063.95 282.65 1063.65 282.4 1063.75 282 1063.85 281.5 1064.15 281.05 1064.6 280.25 1065 279.35
L 1065 279.3
Q 1065 279.1 1064.95 279.05 1064.95 279 1064.85 279.05
M 1055.65 280.05
Q 1055.7 280.25 1055.8 280.3
L 1055.85 280.3
Q 1055.8 280.6 1056 280.7
L 1056 280.75
Q 1056.1 281.95 1055.95 283 1055.9 283.2 1055.85 283.3 1055.85 283.5 1055.8 283.7 1055.65 283.85 1055.65 284.15 1055.5 284.25 1055.5 284.5
L 1055.5 284.55
Q 1055.35 284.75 1055.2 284.95 1055.2 285.05 1055.15 285.15 1054.85 285.55 1054.55 285.95 1054.25 286.35 1053.7 286.5 1053.4 286.7 1052.85 286.65 1052.65 286.65 1052.5 286.6 1052.4 286.45 1052.15 286.45 1051.4 286 1051 285.25 1050.9 285.15 1050.95 285
L 1050.95 284.95
Q 1050.7 284.55 1050.75 283.75
L 1050.75 283.7
Q 1050.85 283.55 1050.95 283.4
L 1050.95 283.35
Q 1050.95 283.05 1051.05 282.85 1051.1 282.8 1051.1 282.7 1051.25 282.65 1051.3 282.4 1051.5 282.1 1051.6 281.8 1051.65 281.8 1051.65 281.75 1051.8 281.7 1051.8 281.55 1051.95 281.5 1051.95 281.35
L 1052 281.3
Q 1052.85 280.4 1053.9 279.7
L 1053.95 279.7
Q 1054.15 279.6 1054.4 279.5 1054.55 279.5 1054.75 279.5
L 1054.8 279.5
Q 1055.3 279.7 1055.65 280.05
M 1057.4 282
Q 1057.5 281.95 1057.55 281.9 1057.85 281.35 1058.35 281.05 1058.55 281.05 1058.6 280.95
L 1058.6 280.9
Q 1058.95 280.8 1059.4 280.85 1059.5 281.05 1059.75 281.05 1059.9 281.2 1060.05 281.3 1060.05 281.35 1060.1 281.35 1060.1 281.5 1060.2 281.55
L 1060.25 281.55
Q 1060.35 281.8 1060.45 282.05 1060.65 282.25 1060.7 282.55 1060.75 282.55 1060.75 282.65 1060.8 282.75 1060.8 282.9
L 1060.8 282.95
Q 1060.85 283.1 1060.95 283.3 1061 284.05 1061 284.7 1061.1 285.3 1061 285.8 1060.95 285.95 1060.95 286.2 1060.9 286.3 1060.8 286.4 1060.8 286.55 1060.75 286.65
L 1060.75 286.7
Q 1060.55 286.95 1060.45 287.25 1060.05 287.65 1059.55 288 1059.5 288 1059.4 288 1059.3 288.1 1059.2 288.15
L 1059.2 288.2
Q 1058.85 288.2 1058.5 288.25 1058.25 288.3 1058.05 288.2 1057.35 288.1 1056.95 287.6 1056.95 287.55 1056.9 287.55 1056.8 287.4 1056.7 287.15
L 1056.7 287.1
Q 1056.55 286.85 1056.45 286.45 1056.35 285.6 1056.4 284.55 1056.55 284.25 1056.55 283.75
L 1056.55 283.7
Q 1056.6 283.65 1056.7 283.55 1056.7 283.2 1056.9 283.1
L 1056.9 283.05
Q 1056.9 282.8 1057.05 282.7 1057.05 282.55 1057.1 282.5
L 1057.1 282.45
Q 1057.3 282.3 1057.4 282
M 1062.35 287.15
L 1062.35 287.1
Q 1062.65 286.9 1062.65 287.3
L 1062.65 287.35
Q 1062.6 287.55 1062.4 287.65 1062.35 287.45 1062.35 287.15
M 1060.8 288.65
Q 1061.6 288.3 1062.05 288.85 1062.95 289.95 1062.9 291.85 1062.9 292.5 1062.65 292.9 1062.2 293.75 1061.05 293.9 1060.75 293.9 1060.5 293.9 1059.2 293.55 1058.6 292.45 1058.45 292.1 1058.5 291.5 1059 289.4 1060.8 288.65
M 1054.55 288.45
Q 1054.75 288.55 1055 288.55 1055.8 288.9 1056.35 289.55 1056.35 289.7 1056.5 289.8 1056.5 289.85 1056.55 289.85 1056.55 290.05 1056.6 290.1
L 1056.65 290.15
Q 1056.7 290.3 1056.7 290.45
L 1056.7 290.5
Q 1056.8 290.5 1056.85 290.65
L 1056.9 290.65
Q 1056.9 290.8 1056.9 290.95
L 1056.9 291
Q 1056.95 291.15 1057.05 291.35 1057.05 291.5 1057.05 291.6 1057.15 291.65 1057.15 291.75
L 1057.2 291.75
Q 1057.2 291.85 1057.2 291.95 1057.5 292.4 1057.75 292.85 1057.9 292.95 1058 293.1
L 1058.05 293.1
Q 1058.05 293.2 1058.1 293.25
L 1058.1 293.3
Q 1058.25 293.3 1058.25 293.45 1058.3 293.45 1058.35 293.55
L 1058.4 293.55
Q 1058.4 293.75 1058.55 293.85 1058.55 294.05 1058.7 294.15 1058.75 294.4 1058.85 294.55 1058.95 295.25 1058.9 296
L 1058.9 296.05
Q 1058.85 296.15 1058.75 296.25 1058.75 296.4 1058.7 296.5
L 1058.7 296.55
Q 1058.6 296.65 1058.55 296.85 1058.3 297.25 1058.05 297.65 1057.8 298.05 1057.4 298.2 1057.35 298.2 1057.3 298.2 1057.25 298.3 1057.15 298.35
L 1057.1 298.35
Q 1056.35 298.45 1055.9 298.2 1055.75 298.15 1055.6 298.2 1055.4 298.05 1055.15 298.05
L 1055.1 298
Q 1054.5 297.65 1054.05 297.15 1054 297.15 1053.95 297.05 1053.5 296.65 1052.8 296.45 1052.55 296.25 1052.05 296.3 1050.5 296.4 1049.1 296.15 1048.8 296.15 1048.45 296.15 1048.4 296.05 1048.3 296 1047.65 295.8 1047.5 295.15 1047.3 294.8 1047.3 294.35 1047.25 294.2 1047.25 294.1 1047.25 293.9 1047.25 293.75 1047.4 293.4 1047.4 292.9
L 1047.4 292.85
Q 1047.5 292.75 1047.55 292.45 1047.6 292.35 1047.65 292.3
L 1047.7 292.3
Q 1047.65 292.15 1047.7 292.1
L 1047.75 292.1
Q 1047.8 292.05 1047.85 292 1048.2 291.4 1048.75 291.05 1049 291.05 1049.1 290.9 1049.35 290.95 1049.4 290.8 1049.8 290.7 1050.05 290.6
L 1050.05 290.55
Q 1050.15 290.55 1050.35 290.55 1050.7 290.35 1051.05 290.15 1051.45 289.75 1051.8 289.35 1052.15 289 1052.7 288.8 1053.05 288.65 1053.4 288.55 1054.05 288.4 1054.55 288.45
M 1048.85 283.75
Q 1048.65 283.7 1048.7 283.4 1048.75 283.4 1048.75 283.35 1048.85 283.15 1049.15 283.2
L 1049.2 283.2
Q 1049.2 283.65 1048.85 283.75
M 1049.1 284.9
Q 1050 285.35 1050.25 286.4 1050.5 287.15 1050.4 288.15 1050.35 289.3 1049.45 289.8 1048.55 290.3 1047.3 290 1046.4 289.8 1046.1 288.95 1045.9 288.45 1045.9 287.75 1046.45 285.65 1048.4 284.95 1048.7 284.9 1049.1 284.9
M 1065.55 277.55
Q 1065.4 277.65 1065.3 277.85
L 1065.3 277.9
Q 1065.3 278.1 1065.3 278.25
L 1065.3 278.3
Q 1065.4 278.45 1065.5 278.5
L 1065.55 278.5
Q 1066.15 278.45 1066.35 277.9
L 1066.35 277.85
Q 1066.35 277.7 1066.3 277.55
L 1066.25 277.55
Q 1065.95 277.35 1065.55 277.5
L 1065.55 277.55 Z"/>
</g>

<g id="Layer1_8_FILL">
<path fill="#FF00FE" stroke="none" d="
M 1045.1 323.9
Q 1044.4 323.9 1043.75 323.85 1043.25 323.8 1043.15 324.1 1043.15 325.2 1043.15 326.25 1043.15 328.85 1043.1 331.5 1043.1 332.2 1043.2 332.7 1044.85 332.75 1046.5 332.75 1047.9 332.7 1049.1 332.8 1049.35 333 1049.45 333.35 1049.1 334.2 1048.7 334.95 1047.75 336.7 1046.85 338.4 1045.95 340.15 1045.1 341.85 1044.2 343.55 1043.3 345.25 1043.2 345.35 1043.2 345.5
L 1043.2 345.55
Q 1043.1 348.1 1043.1 350.7 1043.1 351.4 1043.2 351.95 1043.2 352 1043.25 352 1045.1 352 1047.05 352 1048.4 352 1049.55 351.95 1049.75 351.8 1049.9 351.65 1050 351.55 1050.05 351.4 1051 349.8 1051.9 348.05 1052.35 347.2 1052.75 346.3 1053.2 345.4 1054.1 345 1054.25 345 1054.4 345 1057 345 1059.6 345 1062.25 345.05 1064.8 344.95
L 1064.8 344.9
Q 1064.9 343.85 1064.85 342.7 1064.85 340.1 1064.9 337.45 1064.9 336.75 1064.8 336.2 1064.5 336.1 1064.15 336.1 1061.5 336.2 1058.95 336.15 1058.65 335.9 1058.5 335.55 1058.55 335.3 1058.65 335.05 1058.8 334.8 1058.95 334.55 1059.2 334.05 1059.45 333.55 1060.35 331.8 1061.25 330.1 1062.15 328.4 1063.05 326.7 1063.95 325 1064.85 323.3 1064.85 320.75 1064.9 318.2 1064.9 317.5 1064.8 316.95 1064.3 316.85 1063.65 316.85 1061 316.9 1058.45 316.9 1057.95 317.3 1057.6 317.85 1056.7 319.55 1055.8 321.3 1055.55 321.85 1055.3 322.4 1054.85 323.45 1053.85 323.9 1052.05 323.9 1050.3 323.9 1047.65 323.9 1045.1 323.9 Z"/>
</g>

<g id="Layer1_9_FILL">
<path fill="#FF00FE" stroke="none" d="
M 1321.2 192.7
Q 1322.3 194.2 1323.45 195.7 1324.55 197.2 1325.7 198.7 1326.8 200.2 1327.9 201.7 1329 203.2 1330.15 204.65 1330.7 205.4 1331.25 206.2 1330.05 207.6 1328.8 208.95 1327.55 210.3 1326.25 211.65 1325 213 1323.75 214.35 1322.5 215.7 1321.25 217.1 1319.95 218.45 1318.75 219.8 1318.75 219.85 1318.8 219.85 1320.1 219.95 1321.45 219.95 1322 219.4 1322.5 218.85 1323.75 217.5 1325 216.1 1326.25 214.75 1327.5 213.4 1328.75 212.05 1330 210.7 1331.25 209.3 1332.6 208.05 1333.75 209.45 1334.85 210.95 1336 212.45 1337.05 213.95 1338.2 215.45 1339.3 216.95 1340.4 218.45 1341.55 219.9 1343.25 219.95 1345 219.95 1347.6 219.95 1350.25 220 1350.8 220 1351.15 219.85
L 1351.15 219.8
Q 1350.2 218.45 1349.2 217.1 1348.05 215.65 1346.95 214.15 1345.8 212.65 1344.7 211.15 1343.6 209.65 1342.45 208.15 1341.35 206.65 1340.2 205.2 1339.1 203.7 1338.05 202.15 1338.5 201.55 1338.95 201 1340.25 199.65 1341.5 198.3 1342.8 196.95 1344 195.6 1345.25 194.25 1346.5 192.85 1347.75 191.5 1349.05 190.15 1349.1 190.1 1349.2 190 1349.5 189.8 1349.6 189.4 1348.25 189.3 1346.8 189.35 1345.9 190.5 1344.9 191.55 1343.6 192.9 1342.35 194.25 1341.1 195.65 1339.85 196.95 1338.6 198.3 1337.4 199.7 1337.05 200.05 1336.7 200.3 1335.9 199.35 1335.1 198.3 1334 196.85 1332.9 195.35 1331.8 193.85 1330.65 192.35 1329.55 190.85 1328.45 189.35 1326.55 189.35 1324.65 189.35 1322.05 189.35 1319.45 189.3 1319.1 189.3 1318.8 189.4 1318.8 189.65 1318.95 189.75 1320.1 191.2 1321.2 192.7
M 1329.3 194.3
L 1329.35 194.35 1331.7 197.5 1331.75 197.55
Q 1331.85 197.7 1331.95 197.8 1332 197.85 1332 197.9
L 1332.05 197.95 1332.2 198.2
Q 1332.25 198.2 1332.3 198.25
L 1332.3 198.3
Q 1332.3 198.35 1332.35 198.4
L 1332.4 198.5
Q 1332.45 198.5 1332.5 198.5 1332.5 198.596875 1332.55 198.65
L 1332.4 198.5 1333.15 199.45
Q 1333.2 199.45 1333.2 199.55
L 1333.3 199.7 1333.35 199.75 1333.4 199.75
Q 1333.45 199.85 1333.5 199.9
L 1333.5 199.95 1333.6 200.05 1333.6 200.1 1333.65 200.1
Q 1333.7 200.15 1333.75 200.25
L 1333.75 200.3 1334.45 201.2 1334.5 201.25
Q 1334.55 201.25 1334.55 201.3
L 1334.55 201.35 1334.85 201.75
Q 1335 201.95 1335.15 202.15
L 1336.85 204.4
Q 1336.95 204.45 1336.95 204.55
L 1337.15 204.8
Q 1337.25 204.95 1337.35 205.05
L 1337.4 205.1 1337.85 205.75 1337.9 205.75
Q 1337.9 205.8 1337.95 205.8 1337.95 205.846875 1338 205.9
L 1337.85 205.75 1338.05 206
Q 1338.15 206.2 1338.3 206.35 1338.35 206.4 1338.4 206.45
L 1338.45 206.5
Q 1338.45 206.55 1338.5 206.55
L 1338.85 207.05
Q 1338.95 207.1 1338.95 207.15
L 1338.95 207.2 1339.45 207.85
Q 1339.45 207.9 1339.5 207.9
L 1339.55 207.95 1339.55 208.05 1339.65 208.1 1339.6 208.05 1339.65 208.05 1339.65 208.1 1339.65 208.15
Q 1339.75 208.35 1339.9 208.45
L 1339.95 208.55
Q 1340 208.7 1340.1 208.75
L 1340.65 209.5 1340.55 209.3 1340.6 209.35
Q 1340.65 209.4 1340.65 209.45
L 1340.7 209.5 1340.7 209.6 1341.2 210.2
Q 1341.25 210.2 1341.25 210.3 1341.3 210.3 1341.35 210.35
L 1341.35 210.4 1341.25 210.3 1341.7 210.9 1341.65 210.8
Q 1341.7 210.8 1341.7 210.85
L 1341.7 210.9 1344.15 214.2
Q 1344.2 214.3 1344.3 214.4
L 1344.45 214.6
Q 1344.45 214.65 1344.5 214.65
L 1346.35 217.15 1346.45 217.25
Q 1346.55 217.4 1346.65 217.55
L 1346.7 217.55
Q 1346.7 217.6 1346.8 217.65
L 1346.8 217.7 1342.65 217.65 1323.2 191.6 1327.3 191.65
Q 1327.5 191.9 1327.65 192.15
L 1327.7 192.15 1327.85 192.35 1327.9 192.35
Q 1327.95 192.45 1328 192.55
L 1328.1 192.65
Q 1328.2 192.85 1328.35 193.05
L 1328.45 193.15 1329.05 193.95 1329.1 193.95 1329.1 194 1329.25 194.2 1329.25 194.25
Q 1329.25 194.3 1329.3 194.3
M 1343.05 212.65
L 1343 212.6 1343.05 212.6 1343.05 212.65
M 1343.95 213.9
Q 1344.003125 213.95 1344.05 213.95 1344.05 213.996875 1344.1 214.05
L 1343.95 213.9
M 1345.15 215.5
L 1345.05 215.35 1345.1 215.35
Q 1345.1 215.4 1345.15 215.5 Z"/>
</g>

<g id="Layer1_10_FILL">
<path fill="#FF00FE" stroke="none" d="
M 1326.25 261.6
Q 1323.5 262.2 1321.95 264 1320.4 265.75 1320 268.7
L 1319.95 268.7
Q 1319.95 268.85 1319.95 268.95
L 1319.95 269 1319.9 269
Q 1319.9 269.2 1319.9 269.35
L 1319.9 269.4
Q 1319.9 269.5 1319.9 269.55
L 1319.9 269.6
Q 1319.9 269.8 1319.9 270 1319.9 270.05 1319.9 270.1
L 1319.9 270.15 1319.85 270.15
Q 1319.85 270.3 1319.85 270.45
L 1319.85 270.5
Q 1319.85 270.65 1319.85 270.85 1319.85 271.05 1319.85 271.2
L 1319.85 271.25 1319.8 271.25
Q 1319.8 271.5 1319.8 271.8
L 1319.8 271.85
Q 1319.8 272.1 1319.8 272.4
L 1319.8 272.45
Q 1319.8 272.85 1319.8 273.3
L 1319.8 273.35 1319.75 273.35
Q 1319.75 276 1319.8 278.7 1319.8 278.8 1319.8 278.95
L 1319.8 279 1319.75 279
Q 1319.75 279.15 1319.8 279.3 1319.8 279.45 1319.8 279.6
L 1319.8 279.65
Q 1319.8 279.85 1319.8 280.05
L 1319.8 280.1
Q 1319.8 280.25 1319.8 280.45
L 1319.8 280.5
Q 1319.8 280.6 1319.8 280.75
L 1319.8 280.8
Q 1319.8 281 1319.8 281.2
L 1319.85 281.2 1319.85 281.25
Q 1319.85 281.45 1319.85 281.6
L 1319.85 281.65
Q 1319.85 281.85 1319.85 282.1
L 1319.9 282.1 1319.9 282.15
Q 1319.9 282.45 1319.9 282.7
L 1319.9 282.75
Q 1319.9 282.95 1319.95 283.1 1320.25 286.15 1321.75 287.95 1323.25 289.8 1325.9 290.5 1326.55 290.7 1327.3 290.8 1327.4 290.85 1327.6 290.85 1327.75 290.9 1327.95 290.85
L 1328 290.85
Q 1328.15 290.85 1328.3 290.85
L 1328.35 290.85
Q 1328.4 290.95 1328.6 290.9
L 1328.75 290.9
Q 1328.85 290.95 1329.05 290.95
L 1329.1 290.95
Q 1329.3 290.95 1329.5 290.95 1329.65 290.95 1329.8 290.95
L 1329.85 290.95
Q 1330.1 291 1330.4 291
L 1330.45 291
Q 1330.75 291 1331 291
L 1331.05 291
Q 1331.25 291 1331.5 291
L 1331.55 291
Q 1334.65 291.05 1337.9 291 1338.1 291 1338.25 291
L 1338.3 291
Q 1338.5 291 1338.7 291 1338.9 291 1339.05 291
L 1339.1 291
Q 1339.2 291 1339.35 291
L 1339.4 291
Q 1339.55 291 1339.7 290.95 1339.75 290.95 1339.85 290.95 1340.05 290.95 1340.2 290.95
L 1340.25 290.95
Q 1340.45 290.95 1340.7 290.9
L 1340.75 290.9
Q 1340.9 290.9 1341.05 290.9 1341.2 290.9 1341.35 290.9
L 1341.35 290.85 1341.4 290.85
Q 1341.6 290.85 1341.75 290.85 1344.75 290.5 1346.6 289 1348.4 287.45 1349.1 284.85 1349.3 284.2 1349.4 283.45 1349.45 283.35 1349.45 283.2
L 1349.45 283.15
Q 1349.5 283.1 1349.5 282.9
L 1349.5 282.75
Q 1349.55 282.65 1349.5 282.5
L 1349.5 282.4
Q 1349.5 282.3 1349.5 282.15
L 1349.5 282.1
Q 1349.6 282 1349.55 281.8
L 1349.55 281.75
Q 1349.55 281.5 1349.55 281.25
L 1349.55 281.2
Q 1349.55 281.15 1349.55 281.05 1349.6 281 1349.6 280.8
L 1349.6 280.75
Q 1349.6 280.6 1349.6 280.5
L 1349.6 280.45
Q 1349.6 280.25 1349.6 280.1
L 1349.6 280.05
Q 1349.6 279.85 1349.6 279.6
L 1349.6 279.55
Q 1349.6 279.4 1349.6 279.3 1349.65 276.05 1349.6 272.9 1349.6 272.65 1349.6 272.45
L 1349.6 272.4
Q 1349.6 272.1 1349.6 271.85
L 1349.6 271.8
Q 1349.6 271.55 1349.6 271.3
L 1349.6 271.25
Q 1349.6 271.05 1349.55 271
L 1349.55 270.95
Q 1349.55 270.9 1349.55 270.85 1349.55 270.7 1349.55 270.55
L 1349.55 270.5
Q 1349.6 270.25 1349.5 270.15
L 1349.5 270.1
Q 1349.5 270.05 1349.5 270 1349.55 269.8 1349.5 269.7 1349.5 269.55 1349.5 269.4
L 1349.5 269.35
Q 1349.5 269.15 1349.45 269
L 1349.45 268.95
Q 1349.45 268.8 1349.4 268.7 1349 265.9 1347.55 264.15 1347.5 264.05 1347.4 264 1347.05 263.7 1346.75 263.4 1345 261.8 1342.05 261.4
L 1342.05 261.35
Q 1341.9 261.35 1341.75 261.35
L 1341.75 261.3
Q 1341.55 261.3 1341.35 261.3 1341.2 261.25 1341.05 261.25 1340.9 261.25 1340.75 261.25
L 1340.7 261.25
Q 1340.5 261.25 1340.3 261.25
L 1340.25 261.25
Q 1340.05 261.25 1339.85 261.25
L 1339.8 261.25 1339.8 261.2
Q 1339.6 261.2 1339.4 261.2
L 1339.35 261.2
Q 1339.2 261.2 1339.1 261.2
L 1339.05 261.2
Q 1338.9 261.2 1338.7 261.2 1338.5 261.2 1338.35 261.2
L 1338.3 261.2
Q 1337.8 261.2 1337.3 261.2
L 1337.3 261.15
Q 1334.6 261.15 1331.95 261.15
L 1331.95 261.2 1331.9 261.2
Q 1331.5 261.2 1331.05 261.2
L 1331 261.2
Q 1330.75 261.2 1330.45 261.2
L 1330.4 261.2
Q 1330.15 261.2 1329.85 261.2
L 1329.85 261.25 1329.8 261.25
Q 1329.7 261.25 1329.55 261.25
L 1329.5 261.25
Q 1329.4 261.25 1329.25 261.25
L 1329.2 261.25
Q 1329 261.25 1328.75 261.25
L 1328.65 261.25
Q 1328.5 261.25 1328.35 261.25 1328.2 261.25 1328.05 261.25
L 1328.05 261.3 1327.95 261.3
Q 1327.8 261.3 1327.6 261.3
L 1327.6 261.35
Q 1327.45 261.35 1327.3 261.35
L 1327.3 261.4
Q 1326.75 261.45 1326.25 261.6
M 1322.65 269.35
L 1322.65 269.25
Q 1322.65 269.15 1322.65 269 1323.05 266.1 1325.15 264.85 1326.3 264.15 1327.95 264 1328.1 264 1328.25 264 1328.3 264 1328.35 264 1328.5 264 1328.65 264 1328.8 264 1328.95 263.95 1329.05 263.95 1329.1 263.95
L 1329.15 263.95
Q 1329.35 263.95 1329.5 263.95
L 1329.55 263.95
Q 1329.7 263.95 1329.85 263.95
L 1329.85 263.9
Q 1330 263.9 1330.1 263.9
L 1330.15 263.9
Q 1330.3 263.9 1330.5 263.9
L 1330.55 263.9
Q 1330.75 263.9 1331 263.9
L 1331.05 263.9
Q 1331.35 263.9 1331.65 263.9
L 1331.7 263.9
Q 1332.2 263.9 1332.7 263.9
L 1332.7 263.85
Q 1334.7 263.85 1336.65 263.85
L 1336.7 263.85
Q 1337.4 263.95 1338.15 263.9
L 1338.2 263.9
Q 1338.5 263.9 1338.75 263.9
L 1338.8 263.9
Q 1339 263.9 1339.15 263.9
L 1339.2 263.9
Q 1339.35 263.9 1339.55 263.9 1339.7 264 1339.95 263.95
L 1340 263.95
Q 1340.1 263.95 1340.25 263.95
L 1340.3 263.95
Q 1340.4 263.95 1340.55 263.95
L 1340.6 263.95
Q 1340.75 264 1341 264
L 1341.05 264
Q 1344.2 264.15 1345.65 266.05 1346.6 267.3 1346.75 269.35 1346.75 269.5 1346.8 269.65
L 1346.8 269.75
Q 1346.8 269.9 1346.8 270
L 1346.8 270.05
Q 1346.8 270.2 1346.8 270.35
L 1346.85 270.35
Q 1346.85 270.45 1346.85 270.5
L 1346.85 270.55
Q 1346.85 270.7 1346.85 270.9
L 1346.85 270.95
Q 1346.85 271.1 1346.85 271.25 1346.85 271.4 1346.85 271.5
L 1346.85 271.55
Q 1346.85 271.75 1346.85 271.95
L 1346.85 272
Q 1346.85 272.25 1346.85 272.5
L 1346.85 272.55
Q 1346.85 272.8 1346.85 273.05 1346.85 273.6 1346.9 274.1 1346.9 276.1 1346.9 278.05
L 1346.9 278.1 1346.85 278.1
Q 1346.85 278.8 1346.85 279.55
L 1346.85 279.6
Q 1346.85 279.85 1346.85 280.15
L 1346.85 280.2
Q 1346.85 280.3 1346.85 280.45
L 1346.85 280.5
Q 1346.85 280.7 1346.85 280.95 1346.85 281.15 1346.85 281.3
L 1346.85 281.35
Q 1346.85 281.45 1346.85 281.6
L 1346.85 281.65
Q 1346.85 281.75 1346.85 281.8
L 1346.85 281.85 1346.8 281.85
Q 1346.8 282.1 1346.8 282.35
L 1346.8 282.4
Q 1346.7 284.5 1345.8 285.85 1344.5 287.85 1341.45 288.15 1341.3 288.15 1341.15 288.15
L 1341.15 288.2
Q 1341.05 288.2 1341 288.2
L 1340.95 288.2
Q 1340.7 288.2 1340.45 288.2 1340.35 288.2 1340.25 288.2
L 1340.2 288.2
Q 1339.9 288.2 1339.55 288.2
L 1339.55 288.25
Q 1339.3 288.25 1339.1 288.25
L 1339.05 288.25
Q 1338.9 288.25 1338.8 288.25
L 1338.75 288.25
Q 1338.5 288.25 1338.2 288.25
L 1338.15 288.25
Q 1337.45 288.25 1336.7 288.25
L 1336.7 288.3 1336.65 288.3
Q 1334.65 288.3 1332.65 288.3 1332.15 288.25 1331.7 288.25
L 1331.65 288.25
Q 1331.4 288.25 1331.1 288.25 1330.85 288.25 1330.6 288.25
L 1330.55 288.25
Q 1330.35 288.25 1330.15 288.25
L 1330.1 288.25
Q 1330 288.25 1329.85 288.25 1329.7 288.2 1329.5 288.2 1329.3 288.2 1329.15 288.2
L 1329.1 288.2
Q 1329 288.2 1328.9 288.2 1328.65 288.2 1328.4 288.2
L 1328.35 288.2
Q 1328.3 288.2 1328.25 288.2
L 1328.25 288.15
Q 1328.1 288.15 1327.95 288.15 1325.9 287.95 1324.65 287 1322.75 285.55 1322.6 282.4
L 1322.6 282.35
Q 1322.6 282.05 1322.55 281.9
L 1322.55 281.85
Q 1322.55 281.75 1322.55 281.65
L 1322.55 281.6
Q 1322.55 281.45 1322.55 281.3
L 1322.55 281.25
Q 1322.6 281.05 1322.5 280.95 1322.5 280.75 1322.5 280.6
L 1322.5 280.55
Q 1322.5 280.35 1322.5 280.2
L 1322.5 280.15
Q 1322.5 279.85 1322.5 279.6
L 1322.5 279.55
Q 1322.5 276.35 1322.5 273.1
L 1322.5 273.05
Q 1322.5 272.8 1322.5 272.5
L 1322.5 272.45
Q 1322.5 272.2 1322.5 271.95
L 1322.5 271.9
Q 1322.5 271.75 1322.5 271.6
L 1322.5 271.55
Q 1322.6 271.4 1322.55 271.15
L 1322.55 271.1
Q 1322.55 270.8 1322.55 270.55
L 1322.55 270.5
Q 1322.55 270.35 1322.55 270.25 1322.6 270.1 1322.6 269.85
L 1322.6 269.75
Q 1322.6 269.7 1322.6 269.65 1322.65 269.55 1322.65 269.35
M 1340.85 267.9
Q 1340.85 268.15 1340.85 268.4
L 1340.9 268.4
Q 1341.1 269.65 1342.4 269.9
L 1342.45 269.9
Q 1342.6 269.95 1342.9 269.9 1344.2 269.7 1344.4 268.4 1344.45 268.4 1344.45 268.35 1344.5 268.1 1344.4 267.9
L 1344.4 267.85
Q 1344.35 267.65 1344.3 267.35 1343.9 266.55 1342.9 266.35 1342.65 266.35 1342.35 266.35 1341.2 266.65 1340.9 267.7 1340.9 267.8 1340.9 267.85
L 1340.9 267.9 1340.85 267.9
M 1331.05 269.3
Q 1330 269.9 1329.15 270.75 1327.5 272.45 1327.05 275.35 1327.05 275.45 1327.05 275.55
L 1327.05 275.6
Q 1327.05 276.1 1327.05 276.55 1327.15 277.2 1327.2 277.8
L 1327.2 277.85
Q 1327.95 280.45 1329.75 282 1331 283.05 1332.9 283.55 1333.5 283.7 1334.25 283.7 1334.65 283.8 1335.15 283.75
L 1335.15 283.7
Q 1338.15 283.4 1339.85 281.8 1340.75 280.95 1341.35 279.9 1342.05 278.7 1342.3 277 1342.35 276.9 1342.35 276.7
L 1342.35 276.65
Q 1342.35 276.6 1342.35 276.55 1342.4 276 1342.35 275.6 1342.3 275.15 1342.2 274.7 1341.6 272 1339.9 270.4 1338.2 268.8 1335.2 268.45 1334.7 268.4 1334.25 268.4
L 1334.25 268.45
Q 1332.35 268.6 1331.05 269.3
M 1335.3 271.15
L 1335.35 271.15
Q 1338.15 271.65 1339.2 273.95 1339.4 274.35 1339.5 274.85 1339.65 275.3 1339.65 275.9 1339.65 276.05 1339.65 276.25 1339.65 276.35 1339.65 276.4
L 1339.6 276.4
Q 1339.6 276.55 1339.6 276.7 1339.5 277.55 1339.2 278.2 1338.15 280.5 1335.35 281
L 1335.3 281
Q 1335.15 281 1335 281
L 1335 281.05 1334.9 281.05
Q 1334.7 281.05 1334.5 281.05
L 1334.45 281.05
Q 1334.4 281.05 1334.35 281.05
L 1334.35 281
Q 1334.2 281 1334.05 281 1333.65 280.95 1333.3 280.85 1332.9 280.75 1332.6 280.6 1330.25 279.55 1329.8 276.7 1329.8 276.5 1329.75 276.4 1329.75 276.35 1329.75 276.25 1329.75 276.05 1329.75 275.9
L 1329.75 275.85
Q 1329.75 275.65 1329.75 275.45 1330.3 272.65 1332.55 271.55 1333.35 271.2 1334.5 271.15 1334.7 271.15 1334.9 271.15 1334.95 271.15 1335 271.15
L 1335.05 271.15
Q 1335.1 271.2 1335.3 271.15 Z"/>
</g>

<g id="Layer1_11_FILL">
<path fill="#FF00FE" stroke="none" d="
M 1347.6 319.35
Q 1346.45 315.55 1344.5 312.55 1344.35 312.35 1344.15 312.25 1341.7 311 1338.5 310.45
L 1338.5 310.5
Q 1338.1 311.2 1337.7 311.9
L 1337.65 311.9
Q 1334.55 311.45 1331.45 311.9 1331.45 311.85 1331.4 311.85 1331.1 311.1 1330.65 310.45
L 1330.6 310.45
Q 1327.6 311.05 1325.05 312.05 1323.8 313.85 1322.8 315.9 1321.2 319.25 1320.75 323.8 1320.75 323.95 1320.75 324.1 1320.75 324.15 1320.75 324.2 1320.75 324.45 1320.75 324.7
L 1320.75 324.75
Q 1320.75 325.75 1320.75 326.75
L 1320.75 326.8
Q 1320.75 327.45 1320.8 328
L 1320.8 328.05
Q 1323.65 330.2 1327.35 331.45 1327.6 331.55 1327.85 331.55 1328.7 330.5 1329.3 329.25
L 1329.3 329.2
Q 1328.15 328.65 1327.1 328
L 1327.1 327.95
Q 1327.3 327.75 1327.6 327.65 1327.6 327.6 1327.65 327.6 1330.3 328.95 1334.05 329.1
L 1334.1 329.1
Q 1334.55 329.1 1335.05 329.1
L 1335.15 329.1
Q 1338.9 328.95 1341.55 327.6
L 1341.6 327.65
Q 1341.9 327.75 1342.1 327.95 1341.65 328.4 1341 328.65 1340.35 328.85 1339.9 329.25
L 1339.9 329.3
Q 1340.5 330.55 1341.3 331.55 1341.6 331.55 1341.8 331.45 1345.5 330.2 1348.35 328.05 1348.75 323.25 1347.6 319.35
M 1339.4 319.4
Q 1340.1 319.35 1340.55 319.65 1341.7 320.4 1341.6 322.3 1341.55 323.45 1340.95 324.1 1340.1 325.05 1338.55 324.7 1337.6 324.45 1337.1 323.65 1336.65 322.9 1336.7 321.6 1337.05 319.45 1339.4 319.4
M 1330.35 319.35
Q 1330.65 319.35 1330.85 319.45 1332.7 320.3 1332.35 322.7 1332 324.75 1329.7 324.75 1329.2 324.75 1328.8 324.5 1327.7 323.9 1327.55 322.3
L 1327.5 322.3
Q 1327.5 322.05 1327.5 321.8
L 1327.55 321.8 1327.55 321.75
Q 1327.55 321.6 1327.55 321.45 1327.95 319.35 1330.35 319.35 Z"/>
</g>

<g id="Layer1_12_FILL">
<path fill="#FF00FE" stroke="none" d="
M 1329.65 357.8
Q 1328.5 356.35 1327.15 355.05 1325.85 353.75 1324.2 352.75 1323 352 1321.45 351.65 1320.45 351.45 1319.75 351.8 1318.4 352.4 1318.3 354.25 1318.3 356.85 1318.6 359.15 1318.6 359.45 1318.65 359.75 1318.8 361.45 1318.95 363.2 1319 363.8 1319.2 364.25 1319.65 366.3 1321.1 367.45 1322.55 368.65 1324.8 369 1325.85 369.15 1326.8 369.1 1327.25 369.05 1327.5 369.15 1325.3 369.6 1323.75 370.6 1322.45 371.45 1322 373.1 1321.75 373.8 1321.9 374.45 1322.35 376.05 1323.25 377.05 1324.5 378.45 1326.1 379.45 1327.2 380.15 1328.9 380.1 1329.2 380.1 1329.45 380 1330.95 379.55 1331.8 378.5 1332.95 377 1333.7 375.15 1334.05 374.35 1334.3 373.55 1334.35 373.3 1334.5 373.1 1334.65 373.3 1334.7 373.55 1334.95 374.35 1335.3 375.15 1336.05 377 1337.2 378.45 1338.1 379.55 1339.55 380 1339.8 380.1 1340.1 380.1 1341.75 380.15 1342.9 379.45 1344.5 378.4 1345.75 377.05 1346.65 376.05 1347.05 374.45 1347.2 373.8 1347.05 373.1 1346.6 371.45 1345.25 370.6 1343.65 369.6 1341.5 369.15 1341.75 369.05 1342.15 369.1 1343.15 369.15 1344.2 369 1346.4 368.65 1347.85 367.45 1349.35 366.3 1349.8 364.25 1350 363.8 1350.05 363.2 1350.2 361.45 1350.35 359.75 1350.4 359.4 1350.45 359.15 1350.7 356.85 1350.7 354.25 1350.6 352.4 1349.25 351.8 1348.55 351.45 1347.55 351.65 1345.95 352 1344.8 352.75 1343.15 353.75 1341.85 355.05 1340.5 356.35 1339.35 357.8 1338.2 359.2 1337.1 360.75 1336 362.3 1335.05 363.9 1334.75 364.4 1334.5 364.9 1334.25 364.4 1333.95 363.9 1333 362.3 1331.9 360.75 1330.85 359.2 1329.65 357.8 Z"/>
</g>

<g id="Layer1_13_FILL">
<path fill="#FF00FE" stroke="none" d="
M 1348.35 405.8
Q 1347.75 404.1 1346.8 402.65 1345.85 401.25 1344.65 400.1 1343.45 399 1342 398.1 1340.5 397.2 1338.7 396.65 1336.9 396.1 1334.6 396.05 1332.25 396.05 1330.45 396.6 1328.65 397.15 1327.15 398 1325.65 398.85 1324.45 400 1323.25 401.1 1322.3 402.55 1321.3 403.9 1320.65 405.6 1320 407.3 1319.75 409.45 1319.75 410.6 1319.8 411.8 1319.9 413.75 1320.35 415.3 1321 417.1 1321.9 418.5 1322.75 419.95 1323.9 421.15 1325.1 422.35 1326.5 423.3 1327.95 424.2 1329.7 424.8 1331.4 425.45 1333.6 425.55 1336 425.7 1337.9 425.2 1339.8 424.75 1341.35 423.95 1342.85 423.15 1344.15 422.05 1345.4 420.95 1346.4 419.6 1347.4 418.25 1348.1 416.6 1348.8 414.95 1349.15 412.9 1349.4 411.4 1349.2 409.65 1349 407.5 1348.35 405.8
M 1339.35 404
Q 1339.35 403.7 1339.2 403.5 1338.95 403.45 1338.8 403.35
L 1338.75 403.35
Q 1338.3 403.35 1338.05 403.2
L 1338.05 403.15
Q 1337.6 403.2 1337.3 403 1336.75 403 1336.4 402.9 1336.3 402.85 1336.15 402.85 1336 402.8 1335.8 402.85 1335.8 403.3 1335.65 403.6
L 1335.65 403.65
Q 1335.65 404.1 1335.5 404.35
L 1335.45 404.35
Q 1335.5 404.85 1335.35 405.15 1335.35 405.6 1335.2 405.95 1335.15 406 1335.15 406.1 1335.15 406.2 1335.15 406.3 1335.1 406.4 1335.05 406.5 1335 406.75 1335 407.05 1334.95 407.2 1334.9 407.25
L 1334.85 407.25
Q 1334.85 407.45 1334.85 407.6 1335.55 407.65 1336.1 407.75 1336.3 407.8 1336.55 407.85 1336.8 407.9 1337.1 407.95 1337.2 407.95 1337.3 407.95 1337.4 408 1337.5 408.05
L 1337.5 408.1
Q 1337.75 408.05 1337.9 408.15
L 1337.95 408.15
Q 1338.1 408.25 1338.35 408.35 1338.4 408.35 1338.4 408.4 1338.55 408.4 1338.65 408.4 1338.8 408.55 1339 408.55
L 1339.05 408.55
Q 1339.15 408.65 1339.25 408.7 1339.7 408.9 1340.05 409.1 1340.3 409.3 1340.65 409.45 1340.7 409.5 1340.8 409.5 1340.95 409.25 1341.25 409.15 1341.35 408.95 1341.6 409 1341.75 408.95 1341.9 408.9 1342.45 408.85 1342.85 409 1342.9 409 1343 409 1343.05 409.15 1343.25 409.15 1343.75 409.5 1344.05 410.1 1344.05 410.35 1344.2 410.5 1344.2 410.95 1344.2 411.3
L 1344.2 411.35
Q 1344.05 411.4 1344.05 411.6 1343.9 411.9 1343.75 412.2 1343.4 412.5 1343 412.7
L 1343 412.75
Q 1343.05 413.55 1342.9 414.25 1342.9 414.35 1342.85 414.4 1342.85 414.6 1342.8 414.8 1342.65 415.05 1342.55 415.3 1342.55 415.5 1342.45 415.6
L 1342.4 415.6
Q 1342.35 415.65 1342.35 415.7
L 1342.35 415.75
Q 1342.3 415.8 1342.25 415.85
L 1342.2 415.85
Q 1342.2 416 1342.1 416.05 1341.75 416.6 1341.3 417 1340.85 417.35 1340.4 417.75 1340.1 417.85 1339.9 418 1339.85 418 1339.85 418.05 1339.65 418.05 1339.55 418.15 1339.35 418.2 1339.3 418.3 1339.25 418.3 1339.25 418.35 1339.15 418.35 1339.05 418.35
L 1339 418.35
Q 1338.85 418.5 1338.6 418.6 1338.55 418.6 1338.55 418.65 1338.25 418.6 1338.1 418.8
L 1338.05 418.8
Q 1337.95 418.8 1337.8 418.8
L 1337.75 418.8
Q 1337.65 418.85 1337.55 418.9
L 1337.55 418.95
Q 1337.4 419 1337.15 418.95 1336.7 419.15 1336.15 419.2 1335.2 419.3 1334.05 419.3 1333.45 419.25 1332.95 419.2 1332.9 419.2 1332.85 419.15 1332.55 419.1 1332.25 419.1
L 1332.2 419.1
Q 1332.1 419.05 1331.95 419
L 1331.95 418.95
Q 1331.55 419 1331.35 418.8
L 1331.3 418.8
Q 1331.2 418.8 1331.1 418.8
L 1331.05 418.8
Q 1330.95 418.75 1330.8 418.65 1330.4 418.6 1330.1 418.4
L 1330.1 418.35
Q 1329.8 418.35 1329.65 418.25 1329.6 418.2 1329.55 418.2 1329.4 418.05 1329.2 417.95
L 1329.2 417.9
Q 1328.5 417.6 1328 417.2 1327.85 417.1 1327.75 416.95 1327.35 416.6 1327.05 416.15 1326.85 416 1326.75 415.7 1326.65 415.65 1326.65 415.6 1326.6 415.4 1326.5 415.3
L 1326.45 415.3
Q 1326.45 415.05 1326.3 414.9 1326.3 414.6 1326.2 414.4 1326.1 414.2 1326.1 413.95 1326.05 413.3 1326.05 412.7 1325.5 412.4 1325.1 411.95 1325.1 411.8 1325 411.7
L 1324.95 411.7
Q 1324.85 411.25 1324.8 410.75 1324.9 410.4 1324.95 410.05
L 1324.95 410
Q 1325.1 409.8 1325.25 409.55
L 1325.25 409.5
Q 1325.55 409.2 1326.05 409 1326.15 408.95 1326.25 408.9 1326.95 408.8 1327.5 408.95 1327.55 408.95 1327.55 409 1327.7 409 1327.8 409 1327.9 409.15 1328 409.2
L 1328.05 409.2
Q 1328.1 409.25 1328.15 409.3 1328.35 409.35 1328.6 409.3 1328.75 409.1 1329.05 408.9 1329.3 408.8 1329.6 408.7 1329.65 408.55 1329.85 408.55
L 1329.9 408.55
Q 1330.1 408.4 1330.4 408.3
L 1330.45 408.25
Q 1330.75 408.2 1331.05 408.1 1331.1 408.1 1331.15 408.1 1331.25 408 1331.35 408
L 1331.35 407.95
Q 1331.7 407.95 1331.95 407.8 1332.55 407.8 1332.95 407.7 1333.15 407.65 1333.35 407.65 1333.75 407.65 1334.1 407.6 1334.15 407.5 1334.25 407.4
L 1334.25 407.35
Q 1334.25 407.1 1334.3 406.85 1334.35 406.7 1334.45 406.6 1334.4 406.15 1334.6 405.9 1334.6 405.4 1334.7 405.15
L 1334.75 405.15
Q 1334.7 404.65 1334.85 404.3 1334.9 404.2 1334.9 404.1 1335 403.8 1335.05 403.5 1335.05 403.4 1335.05 403.25 1335.1 403.15 1335.2 403 1335.2 402.75 1335.2 402.55
L 1335.2 402.5
Q 1335.35 402.35 1335.4 402.15 1335.9 402.05 1336.3 402.25 1336.5 402.3 1336.7 402.35 1336.85 402.35 1336.95 402.4 1337.15 402.45 1337.4 402.45 1337.6 402.45 1337.75 402.55 1338 402.6 1338.25 402.6 1338.4 402.65 1338.55 402.7
L 1338.55 402.75
Q 1338.75 402.75 1338.95 402.75 1339.15 402.85 1339.45 402.8
L 1339.5 402.8
Q 1339.55 402.35 1340.05 402.25 1340.3 402.05 1340.85 402.1 1341 402.1 1341.05 402.25 1341.6 402.35 1341.75 402.85 1341.85 402.95 1341.9 403.1 1342 403.65 1341.8 403.95 1341.75 404.1 1341.75 404.15
L 1341.75 404.2
Q 1341.6 404.25 1341.6 404.4 1341.35 404.55 1341.15 404.7 1340.6 404.8 1340.1 404.7 1339.8 404.55 1339.55 404.35
L 1339.55 404.3
Q 1339.5 404.15 1339.35 404.05
L 1339.35 404
M 1332.35 413
Q 1332.45 412.85 1332.45 412.7 1332.65 411.5 1331.85 411 1331.55 410.85 1331.15 410.85 1329.85 410.85 1329.55 412.1 1329.6 413.2 1330.3 413.6 1330.55 413.75 1330.85 413.75 1331.95 413.8 1332.35 413
M 1337.7 416.75
Q 1338.1 416.55 1338.3 416.1 1338.2 415.75 1337.85 415.7 1336.95 416.35 1335.7 416.6 1335.5 416.65 1335.35 416.65 1333.5 416.85 1332.3 416.25 1331.7 416 1331.15 415.7
L 1331.1 415.7
Q 1330.9 415.8 1330.75 416 1330.75 416.1 1330.75 416.25 1331.85 417.3 1333.8 417.5 1335 417.6 1336 417.35 1336.9 417.15 1337.7 416.75
M 1338.6 411.05
Q 1338.35 410.95 1338.05 410.95 1336.65 410.9 1336.4 412.15 1336.4 413.3 1337.25 413.7 1337.5 413.85 1337.85 413.85 1339 413.85 1339.3 412.85 1339.35 412.7 1339.35 412.55 1339.35 411.4 1338.6 411.05 Z"/>
</g>

<g id="Layer1_14_FILL">
<path fill="#FF00FE" stroke="none" d="
M 1340.85 442.4
Q 1340.75 442.3 1340.55 442.25 1340.4 442.2 1340.25 442.15 1340.05 442.1 1339.95 442 1339.75 441.95 1339.6 441.9 1339.4 441.85 1339.25 441.8 1339.1 441.7 1338.9 441.65 1338.75 441.6 1338.6 441.55 1338.4 441.5 1338.2 441.5 1338.05 441.4 1337.9 441.4 1337.65 441.4 1337.5 441.35 1337.35 441.25 1337.15 441.25 1336.9 441.2 1336.75 441.2 1336.55 441.15 1336.35 441.15 1336.1 441.1 1335.95 441.05 1335.75 441.05 1335.55 441 1335.35 441 1335.15 441 1334.95 440.95 1334.7 440.95 1334.45 441 1334.25 441 1334.05 441 1333.85 441 1333.65 441 1333.45 441.05 1333.25 441.05 1333.05 441.1 1332.85 441.1 1332.6 441.15 1332.4 441.15 1332.25 441.2 1332.1 441.25 1331.85 441.25 1331.65 441.25 1331.45 441.35 1331.3 441.4 1331.1 441.4 1330.9 441.45 1330.75 441.5 1330.55 441.55 1330.4 441.6 1330.25 441.6 1330.05 441.65 1329.85 441.7 1329.7 441.75 1329.55 441.85 1329.4 441.9 1329.2 441.95 1329.05 442 1328.9 442.1 1328.75 442.15 1328.6 442.25 1328.45 442.3 1328.25 442.35 1328.1 442.45 1328 442.5 1327.85 442.55 1327.65 442.65 1327.55 442.7 1327.35 442.8 1327.25 442.9 1327.1 443 1326.95 443.05 1326.8 443.15 1326.7 443.25 1326.55 443.3 1326.4 443.4 1326.3 443.5 1326.15 443.6 1326.05 443.7 1325.9 443.8 1325.75 443.85 1325.65 443.95 1325.5 444.05 1325.4 444.15 1325.25 444.3 1325.15 444.35 1325 444.45 1324.9 444.55 1324.75 444.7 1324.65 444.8 1324.55 444.9 1324.45 445 1324.3 445.1 1324.15 445.2 1324.05 445.3 1323.95 445.4 1323.85 445.55 1323.75 445.65 1323.6 445.75 1323.55 445.9 1323.45 446 1323.35 446.1 1323.2 446.25 1323.1 446.35 1323 446.45 1322.9 446.6 1322.8 446.7 1322.7 446.85 1322.6 447 1322.5 447.1 1322.45 447.25 1322.3 447.35 1322.25 447.5 1322.15 447.6 1322.1 447.75 1321.95 447.9 1321.9 448.05 1321.8 448.15 1321.7 448.3 1321.65 448.45 1321.55 448.6 1321.5 448.75 1321.4 448.9 1321.35 449.05 1321.25 449.2 1321.15 449.35 1321.1 449.45 1321.05 449.6 1320.95 449.8 1320.9 449.95 1320.8 450.1 1320.75 450.25 1320.7 450.4 1320.6 450.55 1320.55 450.75 1320.5 450.9 1320.4 451.05 1320.4 451.25 1320.35 451.4 1320.25 451.6 1320.2 451.7 1320.15 451.95 1320.1 452.05 1320.05 452.25 1320.05 452.45 1320 452.6 1320 452.8 1319.95 453 1319.9 453.2 1319.85 453.35 1319.85 453.55 1319.8 453.75 1319.8 453.95 1319.75 454.2 1319.75 454.4 1319.7 454.55 1319.7 454.8 1319.7 454.95 1319.65 455.2 1319.6 455.35 1319.6 457.35 1319.95 458.95 1320.4 460.85 1321.15 462.45 1321.35 462.85 1321.55 463.2 1322.4 464.75 1323.55 465.95 1324.65 467.15 1326.05 468.15 1327.45 469.1 1329.15 469.8 1329.95 470.15 1330.9 470.3 1331 468.2 1331 466 1331 463.65 1331 461.3 1331 460.8 1330.9 460.45 1329.4 460.4 1327.9 460.4 1327.9 458.75 1327.85 457.05 1327.85 456.45 1327.95 455.95 1328.65 455.9 1329.45 455.95 1330.25 455.95 1330.9 455.9 1331 455.55 1331 455.05 1330.85 452.95 1331.25 451.25 1331.65 449.3 1332.9 448.15 1334.1 447.05 1336.1 446.75 1338.3 446.4 1340.45 446.7 1341 446.75 1341.4 446.95 1341.45 448.45 1341.45 450 1341.45 450.55 1341.35 450.95 1341.25 451.05 1341.05 451.05 1339.7 450.85 1338.5 451.1 1337.05 451.35 1336.6 452.6 1336.25 453.55 1336.25 454.75 1336.25 455.35 1336.35 455.9
L 1336.4 455.9
Q 1338.45 455.95 1340.55 455.9 1340.9 455.9 1341.1 455.95 1341.15 456.15 1341.1 456.45 1340.7 458.4 1340.35 460.4 1338.85 460.45 1337.35 460.4 1336.8 460.4 1336.35 460.45 1336.3 460.45 1336.3 460.55 1336.3 462.6 1336.3 464.75 1336.3 467.15 1336.25 469.45 1336.25 470.1 1336.35 470.6 1336.4 470.7 1336.55 470.65 1336.7 470.65 1336.9 470.6 1337.1 470.55 1337.3 470.5 1337.45 470.5 1337.7 470.45 1337.85 470.4 1338.05 470.35 1338.2 470.35 1338.4 470.3 1338.55 470.25 1338.75 470.15 1338.9 470.1 1339.1 470.1 1339.25 470 1339.4 469.95 1339.6 469.9 1339.75 469.85 1339.9 469.75 1340.05 469.7 1340.2 469.7 1340.4 469.6 1340.55 469.55 1340.7 469.45 1340.85 469.4 1341 469.35 1341.15 469.25 1341.3 469.15 1341.45 469.1 1341.55 469 1341.7 468.95 1341.85 468.85 1342 468.8 1342.15 468.7 1342.3 468.6 1342.45 468.5 1342.55 468.4 1342.7 468.3 1342.8 468.25 1342.95 468.15 1343.1 468.05 1343.2 467.95 1343.35 467.9 1343.5 467.8 1343.6 467.7 1343.75 467.6 1343.85 467.5 1343.95 467.35 1344.1 467.3 1344.25 467.15 1344.35 467.1 1344.45 466.95 1344.55 466.9 1344.7 466.8 1344.85 466.7 1344.95 466.55 1345.05 466.45 1345.15 466.35 1345.25 466.2 1345.4 466.1 1345.5 466 1345.6 465.85 1345.7 465.75 1345.8 465.65 1345.9 465.5 1346 465.4 1346.1 465.25 1346.2 465.15 1346.3 465 1346.4 464.9 1346.5 464.75 1346.6 464.65 1346.7 464.5 1346.75 464.35 1346.85 464.2 1346.95 464.1 1347.05 464 1347.15 463.85 1347.25 463.7 1347.3 463.55 1347.35 463.4 1347.45 463.25 1347.55 463.1 1347.65 463 1347.7 462.85 1347.8 462.7 1347.85 462.5 1347.9 462.4 1348 462.25 1348.05 462.1 1348.15 461.95 1348.2 461.8 1348.3 461.6 1348.35 461.5 1348.4 461.3 1348.45 461.15 1348.55 461 1348.6 460.8 1348.65 460.65 1348.7 460.5 1348.75 460.3 1348.8 460.15 1348.85 460 1348.85 459.8 1348.95 459.6 1349 459.45 1349.05 459.3 1349.1 459.1 1349.1 458.9 1349.15 458.7 1349.2 458.55 1349.2 458.35 1349.25 458.15 1349.25 457.95 1349.3 457.75 1349.35 457.55 1349.35 457.35 1349.35 457.1 1349.35 456.9 1349.35 456.7 1349.35 456.45 1349.35 456.25 1349.35 456 1349.35 455.8 1349.35 455.55 1349.35 455.35 1349.35 455.15 1349.35 454.9 1349.35 454.65 1349.35 454.45 1349.35 454.25 1349.3 454.05 1349.3 453.9 1349.2 453.65 1349.2 453.5 1349.2 453.3 1349.15 453.1 1349.1 452.9 1349.05 452.75 1349.05 452.55 1349 452.35 1348.95 452.2 1348.95 452 1348.85 451.85 1348.8 451.65 1348.75 451.5 1348.75 451.3 1348.65 451.15 1348.6 450.95 1348.5 450.85 1348.45 450.7 1348.4 450.5 1348.35 450.35 1348.25 450.2 1348.2 450.05 1348.15 449.85 1348.1 449.7 1348 449.55 1347.95 449.4 1347.85 449.25 1347.8 449.1 1347.7 448.95 1347.65 448.8 1347.6 448.65 1347.45 448.5 1347.35 448.4 1347.3 448.25 1347.2 448.1 1347.1 447.95 1347.05 447.85 1346.95 447.7 1346.9 447.55 1346.8 447.4 1346.7 447.3 1346.6 447.15 1346.5 447.05 1346.4 446.95 1346.3 446.8 1346.2 446.65 1346.1 446.55 1346 446.4 1345.9 446.3 1345.8 446.2 1345.65 446.05 1345.6 445.95 1345.45 445.85 1345.4 445.7 1345.25 445.6 1345.15 445.5 1345.05 445.35 1344.95 445.25 1344.85 445.15 1344.7 445.05 1344.55 444.95 1344.45 444.85 1344.35 444.75 1344.25 444.6 1344.1 444.5 1344 444.4 1343.9 444.3 1343.75 444.2 1343.6 444.15 1343.5 444 1343.35 443.95 1343.25 443.8 1343.15 443.75 1343 443.6 1342.85 443.55 1342.75 443.45 1342.6 443.4 1342.45 443.3 1342.3 443.2 1342.2 443.1 1342.05 443.05 1341.9 442.95 1341.75 442.85 1341.6 442.8 1341.45 442.7 1341.3 442.65 1341.15 442.55 1341 442.5 1340.85 442.4 Z"/>
</g>

<g id="Layer1_15_FILL">
<path fill="#3D3F3E" stroke="none" d="
M 1072.25 428.5
Q 1068.25 428.5 1065.15 429.85 1064.35 428.55 1064.45 426.85 1064.45 424.85 1064.4 424.6 1064.2 423.2 1063.15 422.9 1062.4 422.7 1061.5 423.3 1060.3 424.15 1060.1 426.05 1060 427.3 1060.45 429.25 1060.9 431 1061.4 432.25 1056.5 436.75 1057.15 446.05 1057.4 450.45 1058.45 454.4 1059.45 458.3 1062.85 460.2 1066.25 462.05 1069.65 462.25 1074.9 463 1078.6 461.05 1082.25 459.1 1083.3 456.4 1084.35 453.65 1084.2 452.6 1084.05 451.5 1083.7 450.55 1083.3 449.55 1082.5 449.1 1081.65 448.6 1080.65 448.6 1079.65 448.55 1078.05 449.8 1076.45 450.95 1077.45 453.75 1077.65 454.8 1076.45 455.55 1075.2 456.25 1074.2 456.45 1073.15 456.65 1072.3 456.2 1071.45 455.7 1071 454.7 1070.5 453.65 1071.55 451.75 1072.1 450.7 1072.55 450.1 1074.1 448.1 1076.5 447.85 1081.95 447.15 1084.4 443.45 1086 441.05 1086 438.15 1086 432.45 1080.6 430 1080.35 429.9 1080.15 429.8 1080.25 429.65 1080.55 428.85 1080.8 428.05 1081 427.2 1081.15 426.35 1081.05 425.65 1080.95 424.95 1080.55 424.55 1080 424 1079.15 424.1 1078.3 424.15 1077.8 424.75 1077.4 425.25 1077.15 426.05
L 1077.15 429
Q 1074.5 428.5 1072.25 428.5 Z"/>
</g>
</defs>

<g transform="matrix( 1, 0, 0, 1, 0,0) ">
<use xlink:href="#Layer1_0_FILL"/>
</g>

<g transform="matrix( 1, 0, 0, 1, 0,0) ">
<use xlink:href="#Layer1_1_FILL"/>
</g>

<g transform="matrix( 1, 0, 0, 1, 0,0) ">
<use xlink:href="#Layer1_2_FILL"/>
</g>

<g transform="matrix( 1, 0, 0, 1, 0,0) ">
<use xlink:href="#Layer1_3_FILL"/>
</g>

<g transform="matrix( 1, 0, 0, 1, 0,0) ">
<use xlink:href="#Layer1_4_FILL"/>
</g>

<g transform="matrix( 1, 0, 0, 1, 0,0) ">
<use xlink:href="#Layer1_5_FILL"/>
</g>

<g transform="matrix( 1, 0, 0, 1, 0,0) ">
<use xlink:href="#Layer1_6_FILL"/>
</g>

<g transform="matrix( 1, 0, 0, 1, 0,0) ">
<use xlink:href="#Layer1_7_FILL"/>
</g>

<g transform="matrix( 1, 0, 0, 1, 0,0) ">
<use xlink:href="#Layer1_8_FILL"/>
</g>

<g transform="matrix( 1, 0, 0, 1, 0,0) ">
<use xlink:href="#Layer1_9_FILL"/>
</g>

<g transform="matrix( 1, 0, 0, 1, 0,0) ">
<use xlink:href="#Layer1_10_FILL"/>
</g>

<g transform="matrix( 1, 0, 0, 1, 0,0) ">
<use xlink:href="#Layer1_11_FILL"/>
</g>

<g transform="matrix( 1, 0, 0, 1, 0,0) ">
<use xlink:href="#Layer1_12_FILL"/>
</g>

<g transform="matrix( 1, 0, 0, 1, 0,0) ">
<use xlink:href="#Layer1_13_FILL"/>
</g>

<g transform="matrix( 1, 0, 0, 1, 0,0) ">
<use xlink:href="#Layer1_14_FILL"/>
</g>

<g transform="matrix( 1, 0, 0, 1, 0,0) ">
<use xlink:href="#Layer1_15_FILL"/>
</g>
</svg>
